solid CATIA STL
  facet normal  0.000000e+000 -1.000000e+000  0.000000e+000
    outer loop
      vertex  7.390915e-001  1.426407e+003 -3.931125e+000
      vertex  2.908595e+000  1.426407e+003 -2.745920e+000
      vertex -1.712720e+000  1.426407e+003 -3.614774e+000
    endloop
  endfacet
  facet normal  0.000000e+000 -1.000000e+000  0.000000e+000
    outer loop
      vertex -1.712720e+000  1.426407e+003 -3.614774e+000
      vertex  2.908595e+000  1.426407e+003 -2.745920e+000
      vertex -6.171247e-012  1.426407e+003 -2.500000e+000
    endloop
  endfacet
  facet normal  -0.000000e+000 -9.999999e-001  0.000000e+000
    outer loop
      vertex -1.712720e+000  1.426407e+003 -3.614774e+000
      vertex -6.171247e-012  1.426407e+003 -2.500000e+000
      vertex -3.510330e+000  1.426407e+003 -1.917702e+000
    endloop
  endfacet
  facet normal  0.000000e+000 -1.000000e+000  0.000000e+000
    outer loop
      vertex -3.510330e+000  1.426407e+003 -1.917702e+000
      vertex -6.171247e-012  1.426407e+003 -2.500000e+000
      vertex -1.767767e+000  1.426407e+003 -1.767767e+000
    endloop
  endfacet
  facet normal  -0.000000e+000 -1.000000e+000  0.000000e+000
    outer loop
      vertex -3.510330e+000  1.426407e+003 -1.917702e+000
      vertex -1.767767e+000  1.426407e+003 -1.767767e+000
      vertex -3.967114e+000  1.426407e+003  5.118667e-001
    endloop
  endfacet
  facet normal  0.000000e+000 -1.000000e+000  0.000000e+000
    outer loop
      vertex -3.967114e+000  1.426407e+003  5.118667e-001
      vertex -1.767767e+000  1.426407e+003 -1.767767e+000
      vertex -2.500000e+000  1.426407e+003 -4.069452e-010
    endloop
  endfacet
  facet normal  0.000000e+000 -1.000000e+000  0.000000e+000
    outer loop
      vertex -3.967114e+000  1.426407e+003  5.118667e-001
      vertex -2.500000e+000  1.426407e+003 -4.069452e-010
      vertex -2.908595e+000  1.426407e+003  2.745920e+000
    endloop
  endfacet
  facet normal  0.000000e+000 -1.000000e+000  0.000000e+000
    outer loop
      vertex -2.908595e+000  1.426407e+003  2.745920e+000
      vertex -2.500000e+000  1.426407e+003 -4.069452e-010
      vertex -1.767767e+000  1.426407e+003  1.767767e+000
    endloop
  endfacet
  facet normal  0.000000e+000 -9.999999e-001  0.000000e+000
    outer loop
      vertex -2.908595e+000  1.426407e+003  2.745920e+000
      vertex -1.767767e+000  1.426407e+003  1.767767e+000
      vertex -6.151646e-012  1.426407e+003  2.500000e+000
    endloop
  endfacet
  facet normal  0.000000e+000 -1.000000e+000  0.000000e+000
    outer loop
      vertex -7.390915e-001  1.426407e+003  3.931125e+000
      vertex -2.908595e+000  1.426407e+003  2.745920e+000
      vertex  1.712720e+000  1.426407e+003  3.614774e+000
    endloop
  endfacet
  facet normal  0.000000e+000 -1.000000e+000  0.000000e+000
    outer loop
      vertex  1.712720e+000  1.426407e+003  3.614774e+000
      vertex -2.908595e+000  1.426407e+003  2.745920e+000
      vertex -6.151646e-012  1.426407e+003  2.500000e+000
    endloop
  endfacet
  facet normal  0.000000e+000 -9.999999e-001  0.000000e+000
    outer loop
      vertex  1.712720e+000  1.426407e+003  3.614774e+000
      vertex -6.151646e-012  1.426407e+003  2.500000e+000
      vertex  3.510330e+000  1.426407e+003  1.917702e+000
    endloop
  endfacet
  facet normal  -0.000000e+000 -1.000000e+000  0.000000e+000
    outer loop
      vertex  3.510330e+000  1.426407e+003  1.917702e+000
      vertex -6.151646e-012  1.426407e+003  2.500000e+000
      vertex  1.767767e+000  1.426407e+003  1.767767e+000
    endloop
  endfacet
  facet normal  0.000000e+000 -1.000000e+000  0.000000e+000
    outer loop
      vertex  3.510330e+000  1.426407e+003  1.917702e+000
      vertex  1.767767e+000  1.426407e+003  1.767767e+000
      vertex  3.967114e+000  1.426407e+003 -5.118667e-001
    endloop
  endfacet
  facet normal  0.000000e+000 -1.000000e+000  0.000000e+000
    outer loop
      vertex  3.967114e+000  1.426407e+003 -5.118667e-001
      vertex  1.767767e+000  1.426407e+003  1.767767e+000
      vertex  2.500000e+000  1.426407e+003 -4.069667e-010
    endloop
  endfacet
  facet normal  0.000000e+000 -1.000000e+000  0.000000e+000
    outer loop
      vertex  3.967114e+000  1.426407e+003 -5.118667e-001
      vertex  2.500000e+000  1.426407e+003 -4.069667e-010
      vertex  2.908595e+000  1.426407e+003 -2.745920e+000
    endloop
  endfacet
  facet normal  0.000000e+000 -1.000000e+000  0.000000e+000
    outer loop
      vertex  2.908595e+000  1.426407e+003 -2.745920e+000
      vertex  2.500000e+000  1.426407e+003 -4.069667e-010
      vertex  1.767767e+000  1.426407e+003 -1.767767e+000
    endloop
  endfacet
  facet normal  0.000000e+000 -9.999999e-001  -0.000000e+000
    outer loop
      vertex  2.908595e+000  1.426407e+003 -2.745920e+000
      vertex  1.767767e+000  1.426407e+003 -1.767767e+000
      vertex -6.171247e-012  1.426407e+003 -2.500000e+000
    endloop
  endfacet
  facet normal  0.000000e+000  1.000000e+000  0.000000e+000
    outer loop
      vertex -6.410773e-012  1.486407e+003  2.500000e+000
      vertex  3.510330e+000  1.486407e+003  1.917702e+000
      vertex  1.767767e+000  1.486407e+003  1.767767e+000
    endloop
  endfacet
  facet normal  -0.000000e+000  1.000000e+000  0.000000e+000
    outer loop
      vertex  1.767767e+000  1.486407e+003  1.767767e+000
      vertex  3.510330e+000  1.486407e+003  1.917702e+000
      vertex  3.999373e+000  1.486407e+003 -7.079263e-002
    endloop
  endfacet
  facet normal  0.000000e+000  1.000000e+000  0.000000e+000
    outer loop
      vertex  1.767767e+000  1.486407e+003  1.767767e+000
      vertex  3.999373e+000  1.486407e+003 -7.079263e-002
      vertex  2.500000e+000  1.486407e+003 -4.240848e-010
    endloop
  endfacet
  facet normal  0.000000e+000  1.000000e+000  0.000000e+000
    outer loop
      vertex  2.500000e+000  1.486407e+003 -4.240848e-010
      vertex  3.999373e+000  1.486407e+003 -7.079263e-002
      vertex  3.440262e+000  1.486407e+003 -2.040734e+000
    endloop
  endfacet
  facet normal  0.000000e+000  1.000000e+000  0.000000e+000
    outer loop
      vertex  2.500000e+000  1.486407e+003 -4.240848e-010
      vertex  3.440262e+000  1.486407e+003 -2.040734e+000
      vertex  1.767767e+000  1.486407e+003 -1.767767e+000
    endloop
  endfacet
  facet normal  0.000000e+000  1.000000e+000  0.000000e+000
    outer loop
      vertex  1.767767e+000  1.486407e+003 -1.767767e+000
      vertex  3.440262e+000  1.486407e+003 -2.040734e+000
      vertex  1.979528e+000  1.486407e+003 -3.475841e+000
    endloop
  endfacet
  facet normal  0.000000e+000  1.000000e+000  0.000000e+000
    outer loop
      vertex  1.767767e+000  1.486407e+003 -1.767767e+000
      vertex  1.979528e+000  1.486407e+003 -3.475841e+000
      vertex -6.428206e-012  1.486407e+003 -2.500000e+000
    endloop
  endfacet
  facet normal  0.000000e+000  1.000000e+000  0.000000e+000
    outer loop
      vertex -6.428206e-012  1.486407e+003 -2.500000e+000
      vertex  1.979528e+000  1.486407e+003 -3.475841e+000
      vertex  1.524851e-009  1.486407e+003 -4.000000e+000
    endloop
  endfacet
  facet normal  0.000000e+000  1.000000e+000  0.000000e+000
    outer loop
      vertex -6.428206e-012  1.486407e+003 -2.500000e+000
      vertex  1.524851e-009  1.486407e+003 -4.000000e+000
      vertex -2.040734e+000  1.486407e+003 -3.440262e+000
    endloop
  endfacet
  facet normal  -0.000000e+000  1.000000e+000  0.000000e+000
    outer loop
      vertex  3.510330e+000  1.486407e+003  1.917702e+000
      vertex -6.410773e-012  1.486407e+003  2.500000e+000
      vertex  2.040734e+000  1.486407e+003  3.440262e+000
    endloop
  endfacet
  facet normal  0.000000e+000  1.000000e+000  0.000000e+000
    outer loop
      vertex  2.040734e+000  1.486407e+003  3.440262e+000
      vertex -6.410773e-012  1.486407e+003  2.500000e+000
      vertex  1.534396e-009  1.486407e+003  4.000000e+000
    endloop
  endfacet
  facet normal  0.000000e+000  1.000000e+000  0.000000e+000
    outer loop
      vertex -6.410773e-012  1.486407e+003  2.500000e+000
      vertex -3.440262e+000  1.486407e+003  2.040734e+000
      vertex  1.534396e-009  1.486407e+003  4.000000e+000
    endloop
  endfacet
  facet normal  0.000000e+000  1.000000e+000  0.000000e+000
    outer loop
      vertex  1.534396e-009  1.486407e+003  4.000000e+000
      vertex -3.440262e+000  1.486407e+003  2.040734e+000
      vertex -1.979528e+000  1.486407e+003  3.475841e+000
    endloop
  endfacet
  facet normal  0.000000e+000  1.000000e+000  -0.000000e+000
    outer loop
      vertex -6.410773e-012  1.486407e+003  2.500000e+000
      vertex -1.767767e+000  1.486407e+003  1.767767e+000
      vertex -3.440262e+000  1.486407e+003  2.040734e+000
    endloop
  endfacet
  facet normal  0.000000e+000  1.000000e+000  0.000000e+000
    outer loop
      vertex -3.440262e+000  1.486407e+003  2.040734e+000
      vertex -1.767767e+000  1.486407e+003  1.767767e+000
      vertex -2.500000e+000  1.486407e+003 -4.240633e-010
    endloop
  endfacet
  facet normal  0.000000e+000  1.000000e+000  0.000000e+000
    outer loop
      vertex -3.440262e+000  1.486407e+003  2.040734e+000
      vertex -2.500000e+000  1.486407e+003 -4.240633e-010
      vertex -3.999373e+000  1.486407e+003  7.079263e-002
    endloop
  endfacet
  facet normal  0.000000e+000  1.000000e+000  0.000000e+000
    outer loop
      vertex -3.999373e+000  1.486407e+003  7.079263e-002
      vertex -2.500000e+000  1.486407e+003 -4.240633e-010
      vertex -1.767767e+000  1.486407e+003 -1.767767e+000
    endloop
  endfacet
  facet normal  0.000000e+000  1.000000e+000  0.000000e+000
    outer loop
      vertex -3.999373e+000  1.486407e+003  7.079263e-002
      vertex -1.767767e+000  1.486407e+003 -1.767767e+000
      vertex -3.510330e+000  1.486407e+003 -1.917702e+000
    endloop
  endfacet
  facet normal  -0.000000e+000  1.000000e+000  0.000000e+000
    outer loop
      vertex -3.510330e+000  1.486407e+003 -1.917702e+000
      vertex -1.767767e+000  1.486407e+003 -1.767767e+000
      vertex -6.428206e-012  1.486407e+003 -2.500000e+000
    endloop
  endfacet
  facet normal  0.000000e+000  1.000000e+000  0.000000e+000
    outer loop
      vertex -3.510330e+000  1.486407e+003 -1.917702e+000
      vertex -6.428206e-012  1.486407e+003 -2.500000e+000
      vertex -2.040734e+000  1.486407e+003 -3.440262e+000
    endloop
  endfacet
  facet normal  3.826834e-001  0.000000e+000 -9.238795e-001
    outer loop
      vertex -6.410773e-012  1.486407e+003  2.500000e+000
      vertex -1.767767e+000  1.426407e+003  1.767767e+000
      vertex -1.767767e+000  1.486407e+003  1.767767e+000
    endloop
  endfacet
  facet normal  9.238795e-001  0.000000e+000 -3.826834e-001
    outer loop
      vertex -1.767767e+000  1.486407e+003  1.767767e+000
      vertex -1.767767e+000  1.426407e+003  1.767767e+000
      vertex -2.500000e+000  1.426407e+003 -4.069452e-010
    endloop
  endfacet
  facet normal  9.238795e-001 -1.091799e-013 -3.826834e-001
    outer loop
      vertex -1.767767e+000  1.486407e+003  1.767767e+000
      vertex -2.500000e+000  1.426407e+003 -4.069452e-010
      vertex -2.500000e+000  1.486407e+003 -4.240633e-010
    endloop
  endfacet
  facet normal  3.826834e-001  1.652721e-015 -9.238795e-001
    outer loop
      vertex -1.767767e+000  1.426407e+003  1.767767e+000
      vertex -6.410773e-012  1.486407e+003  2.500000e+000
      vertex -6.151646e-012  1.426407e+003  2.500000e+000
    endloop
  endfacet
  facet normal -3.826834e-001 -1.652721e-015 -9.238795e-001
    outer loop
      vertex -6.151646e-012  1.426407e+003  2.500000e+000
      vertex -6.410773e-012  1.486407e+003  2.500000e+000
      vertex  1.767767e+000  1.486407e+003  1.767767e+000
    endloop
  endfacet
  facet normal -3.826834e-001  -0.000000e+000 -9.238795e-001
    outer loop
      vertex -6.151646e-012  1.426407e+003  2.500000e+000
      vertex  1.767767e+000  1.486407e+003  1.767767e+000
      vertex  1.767767e+000  1.426407e+003  1.767767e+000
    endloop
  endfacet
  facet normal -9.238795e-001  0.000000e+000 -3.826834e-001
    outer loop
      vertex  1.767767e+000  1.426407e+003  1.767767e+000
      vertex  1.767767e+000  1.486407e+003  1.767767e+000
      vertex  2.500000e+000  1.486407e+003 -4.240848e-010
    endloop
  endfacet
  facet normal -9.238795e-001 -1.091799e-013 -3.826834e-001
    outer loop
      vertex  1.767767e+000  1.426407e+003  1.767767e+000
      vertex  2.500000e+000  1.486407e+003 -4.240848e-010
      vertex  2.500000e+000  1.426407e+003 -4.069667e-010
    endloop
  endfacet
  facet normal -3.826834e-001  0.000000e+000  9.238795e-001
    outer loop
      vertex -6.428206e-012  1.486407e+003 -2.500000e+000
      vertex  1.767767e+000  1.426407e+003 -1.767767e+000
      vertex  1.767767e+000  1.486407e+003 -1.767767e+000
    endloop
  endfacet
  facet normal -9.238795e-001  0.000000e+000  3.826834e-001
    outer loop
      vertex  1.767767e+000  1.486407e+003 -1.767767e+000
      vertex  1.767767e+000  1.426407e+003 -1.767767e+000
      vertex  2.500000e+000  1.426407e+003 -4.069667e-010
    endloop
  endfacet
  facet normal -9.238795e-001  1.091799e-013  3.826834e-001
    outer loop
      vertex  1.767767e+000  1.486407e+003 -1.767767e+000
      vertex  2.500000e+000  1.426407e+003 -4.069667e-010
      vertex  2.500000e+000  1.486407e+003 -4.240848e-010
    endloop
  endfacet
  facet normal -3.826834e-001 -1.638902e-015  9.238795e-001
    outer loop
      vertex  1.767767e+000  1.426407e+003 -1.767767e+000
      vertex -6.428206e-012  1.486407e+003 -2.500000e+000
      vertex -6.171247e-012  1.426407e+003 -2.500000e+000
    endloop
  endfacet
  facet normal  3.826834e-001  1.638902e-015  9.238795e-001
    outer loop
      vertex -6.171247e-012  1.426407e+003 -2.500000e+000
      vertex -6.428206e-012  1.486407e+003 -2.500000e+000
      vertex -1.767767e+000  1.486407e+003 -1.767767e+000
    endloop
  endfacet
  facet normal  3.826834e-001  0.000000e+000  9.238795e-001
    outer loop
      vertex -6.171247e-012  1.426407e+003 -2.500000e+000
      vertex -1.767767e+000  1.486407e+003 -1.767767e+000
      vertex -1.767767e+000  1.426407e+003 -1.767767e+000
    endloop
  endfacet
  facet normal  9.238795e-001  -0.000000e+000  3.826834e-001
    outer loop
      vertex -1.767767e+000  1.426407e+003 -1.767767e+000
      vertex -1.767767e+000  1.486407e+003 -1.767767e+000
      vertex -2.500000e+000  1.486407e+003 -4.240633e-010
    endloop
  endfacet
  facet normal  9.238795e-001  1.091799e-013  3.826834e-001
    outer loop
      vertex -1.767767e+000  1.426407e+003 -1.767767e+000
      vertex -2.500000e+000  1.486407e+003 -4.240633e-010
      vertex -2.500000e+000  1.426407e+003 -4.069452e-010
    endloop
  endfacet
  facet normal  7.538238e-001 -6.570694e-001 -3.076336e-003
    outer loop
      vertex  1.414214e+000  1.480993e+003  1.500000e+001
      vertex  1.240482e+000  1.480839e+003  5.463041e+000
      vertex  1.728079e+000  1.481401e+003  4.904586e+000
    endloop
  endfacet
  facet normal  9.359767e-001 -3.517462e-001  1.490653e-002
    outer loop
      vertex  1.414214e+000  1.480993e+003  1.500000e+001
      vertex  1.728079e+000  1.481401e+003  4.904586e+000
      vertex  1.956850e+000  1.481994e+003  4.547852e+000
    endloop
  endfacet
  facet normal  9.944695e-001 -9.607496e-002  4.242827e-002
    outer loop
      vertex  1.414214e+000  1.480993e+003  1.500000e+001
      vertex  1.956850e+000  1.481994e+003  4.547852e+000
      vertex  2.000000e+000  1.482407e+003  4.472136e+000
    endloop
  endfacet
  facet normal  9.238768e-001 -3.826901e-001  0.000000e+000
    outer loop
      vertex  1.414214e+000  1.480993e+003  1.500000e+001
      vertex  2.000000e+000  1.482407e+003  4.472136e+000
      vertex  2.000000e+000  1.482407e+003  1.500000e+001
    endloop
  endfacet
  facet normal -3.826818e-001 -9.238300e-001  9.634815e-003
    outer loop
      vertex -3.673819e-016  1.480407e+003  1.500000e+001
      vertex -1.414214e+000  1.480993e+003  1.500000e+001
      vertex -1.194165e+000  1.480803e+003  5.504169e+000
    endloop
  endfacet
  facet normal -4.787355e-001 -8.776410e-001  2.363861e-002
    outer loop
      vertex -3.673819e-016  1.480407e+003  1.500000e+001
      vertex -1.194165e+000  1.480803e+003  5.504169e+000
      vertex -6.515297e-001  1.480516e+003  5.856794e+000
    endloop
  endfacet
  facet normal -1.023424e-001 -9.947386e-001 -4.580182e-003
    outer loop
      vertex -3.673819e-016  1.480407e+003  1.500000e+001
      vertex -6.515297e-001  1.480516e+003  5.856794e+000
      vertex  2.506635e-001  1.480423e+003  5.979019e+000
    endloop
  endfacet
  facet normal  2.606954e-001 -9.654050e-001  5.558655e-003
    outer loop
      vertex -3.673819e-016  1.480407e+003  1.500000e+001
      vertex  2.506635e-001  1.480423e+003  5.979019e+000
      vertex  7.753239e-001  1.480564e+003  5.796162e+000
    endloop
  endfacet
  facet normal  5.240620e-001 -8.511627e-001  2.968541e-002
    outer loop
      vertex -3.673819e-016  1.480407e+003  1.500000e+001
      vertex  7.753239e-001  1.480564e+003  5.796162e+000
      vertex  1.240482e+000  1.480839e+003  5.463041e+000
    endloop
  endfacet
  facet normal  3.826873e-001 -9.238431e-001  8.010880e-003
    outer loop
      vertex -3.673819e-016  1.480407e+003  1.500000e+001
      vertex  1.240482e+000  1.480839e+003  5.463041e+000
      vertex  1.414214e+000  1.480993e+003  1.500000e+001
    endloop
  endfacet
  facet normal -9.238767e-001 -3.826901e-001  0.000000e+000
    outer loop
      vertex -2.000000e+000  1.482407e+003  1.500000e+001
      vertex -2.000000e+000  1.482407e+003  4.472135e+000
      vertex -1.414214e+000  1.480993e+003  1.500000e+001
    endloop
  endfacet
  facet normal -9.862700e-001 -1.617796e-001  3.314607e-002
    outer loop
      vertex -1.414214e+000  1.480993e+003  1.500000e+001
      vertex -2.000000e+000  1.482407e+003  4.472135e+000
      vertex -1.882525e+000  1.481732e+003  4.671659e+000
    endloop
  endfacet
  facet normal -8.006575e-001 -5.990866e-001 -6.555068e-003
    outer loop
      vertex -1.414214e+000  1.480993e+003  1.500000e+001
      vertex -1.882525e+000  1.481732e+003  4.671659e+000
      vertex -1.194165e+000  1.480803e+003  5.504169e+000
    endloop
  endfacet
  facet normal  9.839948e-001  1.781972e-001  0.000000e+000
    outer loop
      vertex  2.000000e+000  1.482407e+003  4.472136e+000
      vertex  1.872999e+000  1.483109e+003  4.686950e+000
      vertex  2.000000e+000  1.482407e+003  1.500000e+001
    endloop
  endfacet
  facet normal -3.826657e-001  9.237910e-001  1.330781e-002
    outer loop
      vertex -1.414214e+000  1.483822e+003  1.500000e+001
      vertex  1.224606e-016  1.484407e+003  1.500000e+001
      vertex -4.256082e-001  1.484362e+003  5.939312e+000
    endloop
  endfacet
  facet normal -3.674460e-001  9.299184e-001  1.533362e-002
    outer loop
      vertex -1.414214e+000  1.483822e+003  1.500000e+001
      vertex -4.256082e-001  1.484362e+003  5.939312e+000
      vertex -1.000912e+000  1.484139e+003  5.656209e+000
    endloop
  endfacet
  facet normal -6.300500e-001  7.765531e-001 -1.491462e-003
    outer loop
      vertex -1.414214e+000  1.483822e+003  1.500000e+001
      vertex -1.000912e+000  1.484139e+003  5.656209e+000
      vertex -1.490932e+000  1.483740e+003  5.206581e+000
    endloop
  endfacet
  facet normal -8.568777e-001  5.155140e-001  2.445919e-003
    outer loop
      vertex -1.414214e+000  1.483822e+003  1.500000e+001
      vertex -1.490932e+000  1.483740e+003  5.206581e+000
      vertex -1.873792e+000  1.483107e+003  4.685681e+000
    endloop
  endfacet
  facet normal -9.852614e-001  1.679865e-001  3.225620e-002
    outer loop
      vertex -1.414214e+000  1.483822e+003  1.500000e+001
      vertex -1.873792e+000  1.483107e+003  4.685681e+000
      vertex -2.000000e+000  1.482407e+003  4.472135e+000
    endloop
  endfacet
  facet normal -9.238767e-001  3.826901e-001  0.000000e+000
    outer loop
      vertex -1.414214e+000  1.483822e+003  1.500000e+001
      vertex -2.000000e+000  1.482407e+003  4.472135e+000
      vertex -2.000000e+000  1.482407e+003  1.500000e+001
    endloop
  endfacet
  facet normal  3.826595e-001  9.237760e-001  1.447772e-002
    outer loop
      vertex  1.414214e+000  1.483822e+003  1.500000e+001
      vertex  9.994366e-001  1.484140e+003  5.657253e+000
      vertex  1.224606e-016  1.484407e+003  1.500000e+001
    endloop
  endfacet
  facet normal  3.653651e-001  9.307813e-001  1.242702e-002
    outer loop
      vertex  1.224606e-016  1.484407e+003  1.500000e+001
      vertex  9.994366e-001  1.484140e+003  5.657253e+000
      vertex  4.238446e-001  1.484362e+003  5.939817e+000
    endloop
  endfacet
  facet normal -4.281199e-004  9.999872e-001 -5.032022e-003
    outer loop
      vertex  1.224606e-016  1.484407e+003  1.500000e+001
      vertex  4.238446e-001  1.484362e+003  5.939817e+000
      vertex -4.256082e-001  1.484362e+003  5.939312e+000
    endloop
  endfacet
  facet normal  9.237777e-001  3.826491e-001  1.464441e-002
    outer loop
      vertex  2.000000e+000  1.482407e+003  1.500000e+001
      vertex  1.872999e+000  1.483109e+003  4.686950e+000
      vertex  1.414214e+000  1.483822e+003  1.500000e+001
    endloop
  endfacet
  facet normal  8.563170e-001  5.164450e-001  2.394704e-003
    outer loop
      vertex  1.414214e+000  1.483822e+003  1.500000e+001
      vertex  1.872999e+000  1.483109e+003  4.686950e+000
      vertex  1.489671e+000  1.483742e+003  5.208025e+000
    endloop
  endfacet
  facet normal  6.294270e-001  7.770582e-001 -1.475257e-003
    outer loop
      vertex  1.414214e+000  1.483822e+003  1.500000e+001
      vertex  1.489671e+000  1.483742e+003  5.208025e+000
      vertex  9.994366e-001  1.484140e+003  5.657253e+000
    endloop
  endfacet
  facet normal -6.971228e-001  1.090760e-002  7.168687e-001
    outer loop
      vertex -2.666668e+000  1.482407e+003  2.981423e+000
      vertex -2.498390e+000  1.483806e+003  3.123787e+000
      vertex -2.908595e+000  1.482423e+003  2.745920e+000
    endloop
  endfacet
  facet normal -9.704931e-001 -3.428070e-002 -2.386796e-001
    outer loop
      vertex -3.510330e+000  1.486407e+003 -1.917702e+000
      vertex -3.967114e+000  1.482423e+003  5.118667e-001
      vertex -3.999373e+000  1.486407e+003  7.079263e-002
    endloop
  endfacet
  facet normal -9.617615e-001  2.243164e-002  2.729683e-001
    outer loop
      vertex -3.440262e+000  1.486407e+003  2.040734e+000
      vertex -3.999373e+000  1.486407e+003  7.079263e-002
      vertex -3.967114e+000  1.482423e+003  5.118667e-001
    endloop
  endfacet
  facet normal -9.027877e-001 -4.476097e-002  4.277508e-001
    outer loop
      vertex -3.967114e+000  1.482423e+003  5.118667e-001
      vertex -2.908595e+000  1.482423e+003  2.745920e+000
      vertex -3.440262e+000  1.486407e+003  2.040734e+000
    endloop
  endfacet
  facet normal -4.163424e-001 -6.465917e-004  9.092077e-001
    outer loop
      vertex -1.979528e+000  1.486407e+003  3.475841e+000
      vertex -1.987910e+000  1.485073e+003  3.471054e+000
      vertex -1.334550e+000  1.485870e+003  3.770806e+000
    endloop
  endfacet
  facet normal -3.126929e-001  1.404400e-001  9.394146e-001
    outer loop
      vertex -1.979528e+000  1.486407e+003  3.475841e+000
      vertex -1.334550e+000  1.485870e+003  3.770806e+000
      vertex -5.674777e-001  1.486316e+003  3.959542e+000
    endloop
  endfacet
  facet normal -1.671820e-001  7.572419e-001  6.313754e-001
    outer loop
      vertex  1.534396e-009  1.486407e+003  4.000000e+000
      vertex -1.979528e+000  1.486407e+003  3.475841e+000
      vertex -5.674777e-001  1.486316e+003  3.959542e+000
    endloop
  endfacet
  facet normal  1.676920e-001  7.733621e-001  6.113841e-001
    outer loop
      vertex  1.534396e-009  1.486407e+003  4.000000e+000
      vertex  5.651261e-001  1.486317e+003  3.959878e+000
      vertex  2.040734e+000  1.486407e+003  3.440262e+000
    endloop
  endfacet
  facet normal  3.195614e-001  1.556390e-001  9.346963e-001
    outer loop
      vertex  2.040734e+000  1.486407e+003  3.440262e+000
      vertex  5.651261e-001  1.486317e+003  3.959878e+000
      vertex  1.332582e+000  1.485872e+003  3.771502e+000
    endloop
  endfacet
  facet normal  4.209568e-001  4.401412e-003  9.070700e-001
    outer loop
      vertex  2.040734e+000  1.486407e+003  3.440262e+000
      vertex  1.332582e+000  1.485872e+003  3.771502e+000
      vertex  1.986228e+000  1.485076e+003  3.472016e+000
    endloop
  endfacet
  facet normal  3.371993e-001 -1.106446e-004  9.414333e-001
    outer loop
      vertex  1.712720e+000  1.426407e+003  3.614774e+000
      vertex  1.653975e+000  1.479270e+003  3.642028e+000
      vertex  1.033765e+000  1.478720e+003  3.864108e+000
    endloop
  endfacet
  facet normal  7.194508e-001 -1.289467e-002  6.944239e-001
    outer loop
      vertex  3.510330e+000  1.486407e+003  1.917702e+000
      vertex  2.040734e+000  1.486407e+003  3.440262e+000
      vertex  1.986228e+000  1.485076e+003  3.472016e+000
    endloop
  endfacet
  facet normal  6.795977e-001  7.408804e-002  7.298341e-001
    outer loop
      vertex  3.510330e+000  1.486407e+003  1.917702e+000
      vertex  1.986228e+000  1.485076e+003  3.472016e+000
      vertex  2.497332e+000  1.483810e+003  3.124634e+000
    endloop
  endfacet
  facet normal  7.427105e-001  2.133058e-002  6.692729e-001
    outer loop
      vertex  3.510330e+000  1.486407e+003  1.917702e+000
      vertex  2.497332e+000  1.483810e+003  3.124634e+000
      vertex  2.666667e+000  1.482407e+003  2.981424e+000
    endloop
  endfacet
  facet normal  7.834897e-001  0.000000e+000  6.214047e-001
    outer loop
      vertex  3.510330e+000  1.486407e+003  1.917702e+000
      vertex  2.666667e+000  1.482407e+003  2.981424e+000
      vertex  3.510330e+000  1.426407e+003  1.917702e+000
    endloop
  endfacet
  facet normal  1.279660e-001 -3.066168e-003  9.917738e-001
    outer loop
      vertex -7.390915e-001  1.426407e+003  3.931125e+000
      vertex  1.712720e+000  1.426407e+003  3.614774e+000
      vertex  1.033765e+000  1.478720e+003  3.864108e+000
    endloop
  endfacet
  facet normal  1.734753e-001 -4.617354e-003  9.848274e-001
    outer loop
      vertex -7.390915e-001  1.426407e+003  3.931125e+000
      vertex  1.033765e+000  1.478720e+003  3.864108e+000
      vertex  3.342180e-001  1.478439e+003  3.986013e+000
    endloop
  endfacet
  facet normal -6.753042e-002  3.405309e-004  9.977171e-001
    outer loop
      vertex -7.390915e-001  1.426407e+003  3.931125e+000
      vertex  3.342180e-001  1.478439e+003  3.986013e+000
      vertex -8.687063e-001  1.478626e+003  3.904529e+000
    endloop
  endfacet
  facet normal -3.092189e-001 -2.831804e-004  9.509909e-001
    outer loop
      vertex -7.390915e-001  1.426407e+003  3.931125e+000
      vertex -8.687063e-001  1.478626e+003  3.904529e+000
      vertex -1.592220e+000  1.479199e+003  3.669446e+000
    endloop
  endfacet
  facet normal -5.237214e-001 -4.240913e-003  8.518790e-001
    outer loop
      vertex -7.390915e-001  1.426407e+003  3.931125e+000
      vertex -1.592220e+000  1.479199e+003  3.669446e+000
      vertex -2.510033e+000  1.481057e+003  3.114439e+000
    endloop
  endfacet
  facet normal -7.069506e-001 -1.234133e-002  7.071552e-001
    outer loop
      vertex -7.390915e-001  1.426407e+003  3.931125e+000
      vertex -2.510033e+000  1.481057e+003  3.114439e+000
      vertex -2.666668e+000  1.482407e+003  2.981423e+000
    endloop
  endfacet
  facet normal -6.978766e-001 -1.187697e-002  7.161195e-001
    outer loop
      vertex -7.390915e-001  1.426407e+003  3.931125e+000
      vertex -2.666668e+000  1.482407e+003  2.981423e+000
      vertex -2.908595e+000  1.482423e+003  2.745920e+000
    endloop
  endfacet
  facet normal -4.794255e-001  0.000000e+000  8.775826e-001
    outer loop
      vertex -7.390915e-001  1.426407e+003  3.931125e+000
      vertex -2.908595e+000  1.482423e+003  2.745920e+000
      vertex -2.908595e+000  1.426407e+003  2.745920e+000
    endloop
  endfacet
  facet normal -9.036934e-001  0.000000e+000  4.281799e-001
    outer loop
      vertex -2.908595e+000  1.426407e+003  2.745920e+000
      vertex -2.908595e+000  1.482423e+003  2.745920e+000
      vertex -3.967114e+000  1.426407e+003  5.118667e-001
    endloop
  endfacet
  facet normal -9.036934e-001  0.000000e+000  4.281799e-001
    outer loop
      vertex -3.967114e+000  1.426407e+003  5.118667e-001
      vertex -2.908595e+000  1.482423e+003  2.745920e+000
      vertex -3.967114e+000  1.482423e+003  5.118667e-001
    endloop
  endfacet
  facet normal -9.827812e-001  -0.000000e+000 -1.847729e-001
    outer loop
      vertex -3.967114e+000  1.426407e+003  5.118667e-001
      vertex -3.967114e+000  1.482423e+003  5.118667e-001
      vertex -3.510330e+000  1.426407e+003 -1.917702e+000
    endloop
  endfacet
  facet normal -9.827812e-001  0.000000e+000 -1.847729e-001
    outer loop
      vertex -3.510330e+000  1.426407e+003 -1.917702e+000
      vertex -3.967114e+000  1.482423e+003  5.118667e-001
      vertex -3.510330e+000  1.486407e+003 -1.917702e+000
    endloop
  endfacet
  facet normal -7.004464e-001  3.271906e-002  7.129547e-001
    outer loop
      vertex -3.440262e+000  1.486407e+003  2.040734e+000
      vertex -2.908595e+000  1.482423e+003  2.745920e+000
      vertex -1.979528e+000  1.486407e+003  3.475841e+000
    endloop
  endfacet
  facet normal -8.144578e-001  8.476181e-002  5.739982e-001
    outer loop
      vertex -1.979528e+000  1.486407e+003  3.475841e+000
      vertex -2.908595e+000  1.482423e+003  2.745920e+000
      vertex -2.498390e+000  1.483806e+003  3.123787e+000
    endloop
  endfacet
  facet normal -5.634421e-001  5.757972e-004  8.261554e-001
    outer loop
      vertex -1.979528e+000  1.486407e+003  3.475841e+000
      vertex -2.498390e+000  1.483806e+003  3.123787e+000
      vertex -1.987910e+000  1.485073e+003  3.471054e+000
    endloop
  endfacet
  facet normal  6.864758e-001 -3.470082e-003  7.271443e-001
    outer loop
      vertex  3.510330e+000  1.426407e+003  1.917702e+000
      vertex  2.666667e+000  1.482407e+003  2.981424e+000
      vertex  1.712720e+000  1.426407e+003  3.614774e+000
    endloop
  endfacet
  facet normal  6.289008e-001 -1.919979e-003  7.774832e-001
    outer loop
      vertex  1.712720e+000  1.426407e+003  3.614774e+000
      vertex  2.666667e+000  1.482407e+003  2.981424e+000
      vertex  2.304106e+000  1.480394e+003  3.269724e+000
    endloop
  endfacet
  facet normal  4.968078e-001  1.046546e-004  8.678606e-001
    outer loop
      vertex  1.712720e+000  1.426407e+003  3.614774e+000
      vertex  2.304106e+000  1.480394e+003  3.269724e+000
      vertex  1.653975e+000  1.479270e+003  3.642028e+000
    endloop
  endfacet
  facet normal  6.157315e-001  6.470308e-001  4.496951e-001
    outer loop
      vertex  2.174258e+000  1.482407e+003  3.655639e+000
      vertex  1.956850e+000  1.481994e+003  4.547852e+000
      vertex  2.666667e+000  1.482407e+003  2.981424e+000
    endloop
  endfacet
  facet normal  9.759858e-001 -6.375131e-002  2.082967e-001
    outer loop
      vertex  1.956850e+000  1.481994e+003  4.547852e+000
      vertex  2.174258e+000  1.482407e+003  3.655639e+000
      vertex  2.000000e+000  1.482407e+003  4.472136e+000
    endloop
  endfacet
  facet normal  6.403545e-001 -6.995531e-001  3.171301e-001
    outer loop
      vertex  1.176749e+000  1.480259e+003  4.314298e+000
      vertex  1.240482e+000  1.480839e+003  5.463041e+000
      vertex  7.753239e-001  1.480564e+003  5.796162e+000
    endloop
  endfacet
  facet normal  2.954973e-001 -3.496258e-001  8.890687e-001
    outer loop
      vertex  3.342180e-001  1.478439e+003  3.986013e+000
      vertex  1.033765e+000  1.478720e+003  3.864108e+000
      vertex  2.074520e-001  1.479835e+003  4.577073e+000
    endloop
  endfacet
  facet normal  9.493128e-001 -2.575664e-001  1.801797e-001
    outer loop
      vertex  1.728079e+000  1.481401e+003  4.904586e+000
      vertex  1.792042e+000  1.480975e+003  3.959977e+000
      vertex  1.956850e+000  1.481994e+003  4.547852e+000
    endloop
  endfacet
  facet normal  4.367181e-001 -5.016119e-001  7.467681e-001
    outer loop
      vertex  1.956850e+000  1.481994e+003  4.547852e+000
      vertex  1.792042e+000  1.480975e+003  3.959977e+000
      vertex  2.304106e+000  1.480394e+003  3.269724e+000
    endloop
  endfacet
  facet normal  9.159109e-001 -1.096281e-001  3.861204e-001
    outer loop
      vertex  1.956850e+000  1.481994e+003  4.547852e+000
      vertex  2.304106e+000  1.480394e+003  3.269724e+000
      vertex  2.666667e+000  1.482407e+003  2.981424e+000
    endloop
  endfacet
  facet normal -9.722731e-001 -1.078280e-001  2.075050e-001
    outer loop
      vertex -2.000000e+000  1.482407e+003  4.472135e+000
      vertex -2.174258e+000  1.482407e+003  3.655639e+000
      vertex -1.882525e+000  1.481732e+003  4.671659e+000
    endloop
  endfacet
  facet normal -9.724711e-001 -1.410954e-001  1.854508e-001
    outer loop
      vertex -1.882525e+000  1.481732e+003  4.671659e+000
      vertex -2.174258e+000  1.482407e+003  3.655639e+000
      vertex -2.005964e+000  1.481435e+003  3.798592e+000
    endloop
  endfacet
  facet normal -8.064199e-001 -5.300419e-002  5.889631e-001
    outer loop
      vertex -2.174258e+000  1.482407e+003  3.655639e+000
      vertex -2.666668e+000  1.482407e+003  2.981423e+000
      vertex -2.005964e+000  1.481435e+003  3.798592e+000
    endloop
  endfacet
  facet normal -7.959025e-001 -3.276233e-002  6.045378e-001
    outer loop
      vertex -2.005964e+000  1.481435e+003  3.798592e+000
      vertex -2.666668e+000  1.482407e+003  2.981423e+000
      vertex -2.510033e+000  1.481057e+003  3.114439e+000
    endloop
  endfacet
  facet normal  8.325598e-001 -5.118312e-001  2.118327e-001
    outer loop
      vertex  1.240482e+000  1.480839e+003  5.463041e+000
      vertex  1.176749e+000  1.480259e+003  4.314298e+000
      vertex  1.728079e+000  1.481401e+003  4.904586e+000
    endloop
  endfacet
  facet normal  7.919943e-001 -5.349023e-001  2.943207e-001
    outer loop
      vertex  1.728079e+000  1.481401e+003  4.904586e+000
      vertex  1.176749e+000  1.480259e+003  4.314298e+000
      vertex  1.792042e+000  1.480975e+003  3.959977e+000
    endloop
  endfacet
  facet normal  6.465957e-001 -1.900380e-001  7.387825e-001
    outer loop
      vertex  1.176749e+000  1.480259e+003  4.314298e+000
      vertex  1.653975e+000  1.479270e+003  3.642028e+000
      vertex  1.792042e+000  1.480975e+003  3.959977e+000
    endloop
  endfacet
  facet normal  7.086568e-001 -1.843016e-001  6.810569e-001
    outer loop
      vertex  1.792042e+000  1.480975e+003  3.959977e+000
      vertex  1.653975e+000  1.479270e+003  3.642028e+000
      vertex  2.304106e+000  1.480394e+003  3.269724e+000
    endloop
  endfacet
  facet normal  3.549328e-001 -8.659034e-001  3.524686e-001
    outer loop
      vertex  2.506635e-001  1.480423e+003  5.979019e+000
      vertex  2.074520e-001  1.479835e+003  4.577073e+000
      vertex  7.753239e-001  1.480564e+003  5.796162e+000
    endloop
  endfacet
  facet normal  4.494047e-001 -8.432449e-001  2.949124e-001
    outer loop
      vertex  7.753239e-001  1.480564e+003  5.796162e+000
      vertex  2.074520e-001  1.479835e+003  4.577073e+000
      vertex  1.176749e+000  1.480259e+003  4.314298e+000
    endloop
  endfacet
  facet normal  3.674412e-001 -2.923480e-001  8.829042e-001
    outer loop
      vertex  2.074520e-001  1.479835e+003  4.577073e+000
      vertex  1.033765e+000  1.478720e+003  3.864108e+000
      vertex  1.176749e+000  1.480259e+003  4.314298e+000
    endloop
  endfacet
  facet normal  5.353556e-001 -2.825218e-001  7.959748e-001
    outer loop
      vertex  1.176749e+000  1.480259e+003  4.314298e+000
      vertex  1.033765e+000  1.478720e+003  3.864108e+000
      vertex  1.653975e+000  1.479270e+003  3.642028e+000
    endloop
  endfacet
  facet normal -1.475175e-001 -9.060438e-001  3.966400e-001
    outer loop
      vertex -6.515297e-001  1.480516e+003  5.856794e+000
      vertex -5.610247e-001  1.479918e+003  4.522720e+000
      vertex  2.506635e-001  1.480423e+003  5.979019e+000
    endloop
  endfacet
  facet normal -1.260413e-001 -9.133393e-001  3.872016e-001
    outer loop
      vertex  2.506635e-001  1.480423e+003  5.979019e+000
      vertex -5.610247e-001  1.479918e+003  4.522720e+000
      vertex  2.074520e-001  1.479835e+003  4.577073e+000
    endloop
  endfacet
  facet normal -1.081865e-001 -4.079686e-001  9.065635e-001
    outer loop
      vertex -5.610247e-001  1.479918e+003  4.522720e+000
      vertex -8.687063e-001  1.478626e+003  3.904529e+000
      vertex  2.074520e-001  1.479835e+003  4.577073e+000
    endloop
  endfacet
  facet normal -1.231737e-001 -3.964137e-001  9.097716e-001
    outer loop
      vertex  2.074520e-001  1.479835e+003  4.577073e+000
      vertex -8.687063e-001  1.478626e+003  3.904529e+000
      vertex  3.342180e-001  1.478439e+003  3.986013e+000
    endloop
  endfacet
  facet normal -5.992735e-001 -7.296493e-001  3.293681e-001
    outer loop
      vertex -1.194165e+000  1.480803e+003  5.504169e+000
      vertex -1.123316e+000  1.480218e+003  4.338024e+000
      vertex -6.515297e-001  1.480516e+003  5.856794e+000
    endloop
  endfacet
  facet normal -5.261857e-001 -7.885795e-001  3.182308e-001
    outer loop
      vertex -6.515297e-001  1.480516e+003  5.856794e+000
      vertex -1.123316e+000  1.480218e+003  4.338024e+000
      vertex -5.610247e-001  1.479918e+003  4.522720e+000
    endloop
  endfacet
  facet normal -4.509006e-001 -3.350587e-001  8.272995e-001
    outer loop
      vertex -1.123316e+000  1.480218e+003  4.338024e+000
      vertex -1.592220e+000  1.479199e+003  3.669446e+000
      vertex -5.610247e-001  1.479918e+003  4.522720e+000
    endloop
  endfacet
  facet normal -4.893138e-001 -2.788287e-001  8.263332e-001
    outer loop
      vertex -5.610247e-001  1.479918e+003  4.522720e+000
      vertex -1.592220e+000  1.479199e+003  3.669446e+000
      vertex -8.687063e-001  1.478626e+003  3.904529e+000
    endloop
  endfacet
  facet normal -8.728639e-001 -4.109620e-001  2.630947e-001
    outer loop
      vertex -1.882525e+000  1.481732e+003  4.671659e+000
      vertex -2.005964e+000  1.481435e+003  3.798592e+000
      vertex -1.194165e+000  1.480803e+003  5.504169e+000
    endloop
  endfacet
  facet normal -8.332732e-001 -5.128593e-001  2.064735e-001
    outer loop
      vertex -1.194165e+000  1.480803e+003  5.504169e+000
      vertex -2.005964e+000  1.481435e+003  3.798592e+000
      vertex -1.123316e+000  1.480218e+003  4.338024e+000
    endloop
  endfacet
  facet normal -7.183522e-001 -2.299919e-001  6.565621e-001
    outer loop
      vertex -2.005964e+000  1.481435e+003  3.798592e+000
      vertex -2.510033e+000  1.481057e+003  3.114439e+000
      vertex -1.123316e+000  1.480218e+003  4.338024e+000
    endloop
  endfacet
  facet normal -7.006438e-001 -1.369282e-001  7.002491e-001
    outer loop
      vertex -1.123316e+000  1.480218e+003  4.338024e+000
      vertex -2.510033e+000  1.481057e+003  3.114439e+000
      vertex -1.592220e+000  1.479199e+003  3.669446e+000
    endloop
  endfacet
  facet normal -6.417450e-004  9.062739e-001  4.226904e-001
    outer loop
      vertex -7.717749e-004  1.484993e+003  4.585786e+000
      vertex -4.256082e-001  1.484362e+003  5.939312e+000
      vertex  4.238446e-001  1.484362e+003  5.939817e+000
    endloop
  endfacet
  facet normal  3.089439e-001  8.954329e-001  3.205522e-001
    outer loop
      vertex -7.717749e-004  1.484993e+003  4.585786e+000
      vertex  4.238446e-001  1.484362e+003  5.939817e+000
      vertex  9.083107e-001  1.484738e+003  4.422639e+000
    endloop
  endfacet
  facet normal  4.826010e-001  8.016564e-001  3.527654e-001
    outer loop
      vertex  9.083107e-001  1.484738e+003  4.422639e+000
      vertex  4.238446e-001  1.484362e+003  5.939817e+000
      vertex  9.994366e-001  1.484140e+003  5.657253e+000
    endloop
  endfacet
  facet normal -4.047774e-001  3.368571e-001  8.501074e-001
    outer loop
      vertex -9.098820e-001  1.484737e+003  4.422084e+000
      vertex -5.674777e-001  1.486316e+003  3.959542e+000
      vertex -1.334550e+000  1.485870e+003  3.770806e+000
    endloop
  endfacet
  facet normal -4.835779e-001  8.011329e-001  3.526167e-001
    outer loop
      vertex -1.000912e+000  1.484139e+003  5.656209e+000
      vertex -4.256082e-001  1.484362e+003  5.939312e+000
      vertex -9.098820e-001  1.484737e+003  4.422084e+000
    endloop
  endfacet
  facet normal -3.098727e-001  8.951517e-001  3.204409e-001
    outer loop
      vertex -9.098820e-001  1.484737e+003  4.422084e+000
      vertex -4.256082e-001  1.484362e+003  5.939312e+000
      vertex -7.717749e-004  1.484993e+003  4.585786e+000
    endloop
  endfacet
  facet normal -2.549743e-001  3.223895e-001  9.116212e-001
    outer loop
      vertex -9.098820e-001  1.484737e+003  4.422084e+000
      vertex -7.717749e-004  1.484993e+003  4.585786e+000
      vertex -5.674777e-001  1.486316e+003  3.959542e+000
    endloop
  endfacet
  facet normal -1.265896e-001  3.796703e-001  9.164199e-001
    outer loop
      vertex -5.674777e-001  1.486316e+003  3.959542e+000
      vertex -7.717749e-004  1.484993e+003  4.585786e+000
      vertex  1.534396e-009  1.486407e+003  4.000000e+000
    endloop
  endfacet
  facet normal -9.718144e-001  1.120670e-001  2.074071e-001
    outer loop
      vertex -2.000000e+000  1.482407e+003  4.472135e+000
      vertex -1.873792e+000  1.483107e+003  4.685681e+000
      vertex -2.174258e+000  1.482407e+003  3.655639e+000
    endloop
  endfacet
  facet normal -9.719328e-001  1.465808e-001  1.840127e-001
    outer loop
      vertex -2.174258e+000  1.482407e+003  3.655639e+000
      vertex -1.873792e+000  1.483107e+003  4.685681e+000
      vertex -1.993642e+000  1.483413e+003  3.808485e+000
    endloop
  endfacet
  facet normal -8.063189e-001  5.530835e-002  5.888894e-001
    outer loop
      vertex -2.174258e+000  1.482407e+003  3.655639e+000
      vertex -1.993642e+000  1.483413e+003  3.808485e+000
      vertex -2.666668e+000  1.482407e+003  2.981423e+000
    endloop
  endfacet
  facet normal -7.950405e-001  3.401758e-002  6.056018e-001
    outer loop
      vertex -2.666668e+000  1.482407e+003  2.981423e+000
      vertex -1.993642e+000  1.483413e+003  3.808485e+000
      vertex -2.498390e+000  1.483806e+003  3.123787e+000
    endloop
  endfacet
  facet normal  9.766671e-001  1.229303e-001  1.760950e-001
    outer loop
      vertex  1.872999e+000  1.483109e+003  4.686950e+000
      vertex  2.000000e+000  1.482407e+003  4.472136e+000
      vertex  1.992523e+000  1.483416e+003  3.809379e+000
    endloop
  endfacet
  facet normal  9.679393e-001  1.428933e-001  2.065794e-001
    outer loop
      vertex  1.992523e+000  1.483416e+003  3.809379e+000
      vertex  2.000000e+000  1.482407e+003  4.472136e+000
      vertex  2.174258e+000  1.482407e+003  3.655639e+000
    endloop
  endfacet
  facet normal  7.901896e-001  4.925578e-002  6.108800e-001
    outer loop
      vertex  1.992523e+000  1.483416e+003  3.809379e+000
      vertex  2.174258e+000  1.482407e+003  3.655639e+000
      vertex  2.497332e+000  1.483810e+003  3.124634e+000
    endloop
  endfacet
  facet normal  8.069947e-001  3.724734e-002  5.893828e-001
    outer loop
      vertex  2.497332e+000  1.483810e+003  3.124634e+000
      vertex  2.174258e+000  1.482407e+003  3.655639e+000
      vertex  2.666667e+000  1.482407e+003  2.981424e+000
    endloop
  endfacet
  facet normal  9.010732e-001  3.908000e-001  1.879960e-001
    outer loop
      vertex  1.489671e+000  1.483742e+003  5.208025e+000
      vertex  1.872999e+000  1.483109e+003  4.686950e+000
      vertex  1.479357e+000  1.484270e+003  4.159207e+000
    endloop
  endfacet
  facet normal  8.706611e-001  4.150296e-001  2.640068e-001
    outer loop
      vertex  1.479357e+000  1.484270e+003  4.159207e+000
      vertex  1.872999e+000  1.483109e+003  4.686950e+000
      vertex  1.992523e+000  1.483416e+003  3.809379e+000
    endloop
  endfacet
  facet normal  7.088804e-001  1.430404e-001  6.906722e-001
    outer loop
      vertex  1.479357e+000  1.484270e+003  4.159207e+000
      vertex  1.992523e+000  1.483416e+003  3.809379e+000
      vertex  1.986228e+000  1.485076e+003  3.472016e+000
    endloop
  endfacet
  facet normal  7.600010e-001  1.321926e-001  6.363361e-001
    outer loop
      vertex  1.986228e+000  1.485076e+003  3.472016e+000
      vertex  1.992523e+000  1.483416e+003  3.809379e+000
      vertex  2.497332e+000  1.483810e+003  3.124634e+000
    endloop
  endfacet
  facet normal  7.377709e-001  6.272725e-001  2.494461e-001
    outer loop
      vertex  9.994366e-001  1.484140e+003  5.657253e+000
      vertex  1.489671e+000  1.483742e+003  5.208025e+000
      vertex  9.083107e-001  1.484738e+003  4.422639e+000
    endloop
  endfacet
  facet normal  6.844149e-001  6.538283e-001  3.226218e-001
    outer loop
      vertex  9.083107e-001  1.484738e+003  4.422639e+000
      vertex  1.489671e+000  1.483742e+003  5.208025e+000
      vertex  1.479357e+000  1.484270e+003  4.159207e+000
    endloop
  endfacet
  facet normal  5.632249e-001  2.427645e-001  7.898375e-001
    outer loop
      vertex  9.083107e-001  1.484738e+003  4.422639e+000
      vertex  1.479357e+000  1.484270e+003  4.159207e+000
      vertex  1.332582e+000  1.485872e+003  3.771502e+000
    endloop
  endfacet
  facet normal  6.280636e-001  2.369370e-001  7.412131e-001
    outer loop
      vertex  1.332582e+000  1.485872e+003  3.771502e+000
      vertex  1.479357e+000  1.484270e+003  4.159207e+000
      vertex  1.986228e+000  1.485076e+003  3.472016e+000
    endloop
  endfacet
  facet normal  2.698078e-001  4.015352e-001  8.751990e-001
    outer loop
      vertex  9.083107e-001  1.484738e+003  4.422639e+000
      vertex  1.332582e+000  1.485872e+003  3.771502e+000
      vertex -7.717749e-004  1.484993e+003  4.585786e+000
    endloop
  endfacet
  facet normal  3.708056e-001  2.627412e-001  8.907696e-001
    outer loop
      vertex -7.717749e-004  1.484993e+003  4.585786e+000
      vertex  1.332582e+000  1.485872e+003  3.771502e+000
      vertex  5.651261e-001  1.486317e+003  3.959878e+000
    endloop
  endfacet
  facet normal  1.260721e-001  3.795779e-001  9.165297e-001
    outer loop
      vertex -7.717749e-004  1.484993e+003  4.585786e+000
      vertex  5.651261e-001  1.486317e+003  3.959878e+000
      vertex  1.534396e-009  1.486407e+003  4.000000e+000
    endloop
  endfacet
  facet normal -7.501643e-001  5.934488e-001  2.916709e-001
    outer loop
      vertex -1.490932e+000  1.483740e+003  5.206581e+000
      vertex -1.000912e+000  1.484139e+003  5.656209e+000
      vertex -1.480952e+000  1.484268e+003  4.158294e+000
    endloop
  endfacet
  facet normal -6.828588e-001  6.759072e-001  2.772243e-001
    outer loop
      vertex -1.480952e+000  1.484268e+003  4.158294e+000
      vertex -1.000912e+000  1.484139e+003  5.656209e+000
      vertex -9.098820e-001  1.484737e+003  4.422084e+000
    endloop
  endfacet
  facet normal -5.835409e-001  2.824498e-001  7.613817e-001
    outer loop
      vertex -1.480952e+000  1.484268e+003  4.158294e+000
      vertex -9.098820e-001  1.484737e+003  4.422084e+000
      vertex -1.987910e+000  1.485073e+003  3.471054e+000
    endloop
  endfacet
  facet normal -6.086773e-001  2.113929e-001  7.647384e-001
    outer loop
      vertex -1.987910e+000  1.485073e+003  3.471054e+000
      vertex -9.098820e-001  1.484737e+003  4.422084e+000
      vertex -1.334550e+000  1.485870e+003  3.770806e+000
    endloop
  endfacet
  facet normal -9.057696e-001  3.460103e-001  2.446596e-001
    outer loop
      vertex -1.873792e+000  1.483107e+003  4.685681e+000
      vertex -1.490932e+000  1.483740e+003  5.206581e+000
      vertex -1.993642e+000  1.483413e+003  3.808485e+000
    endloop
  endfacet
  facet normal -8.740079e-001  4.372917e-001  2.118637e-001
    outer loop
      vertex -1.993642e+000  1.483413e+003  3.808485e+000
      vertex -1.490932e+000  1.483740e+003  5.206581e+000
      vertex -1.480952e+000  1.484268e+003  4.158294e+000
    endloop
  endfacet
  facet normal -7.402499e-001  1.786488e-001  6.481626e-001
    outer loop
      vertex -1.993642e+000  1.483413e+003  3.808485e+000
      vertex -1.480952e+000  1.484268e+003  4.158294e+000
      vertex -2.498390e+000  1.483806e+003  3.123787e+000
    endloop
  endfacet
  facet normal -7.329621e-001  1.113133e-001  6.711006e-001
    outer loop
      vertex -2.498390e+000  1.483806e+003  3.123787e+000
      vertex -1.480952e+000  1.484268e+003  4.158294e+000
      vertex -1.987910e+000  1.485073e+003  3.471054e+000
    endloop
  endfacet
  facet normal  9.704931e-001 -3.428070e-002  2.386796e-001
    outer loop
      vertex  3.510330e+000  1.486407e+003  1.917702e+000
      vertex  3.967114e+000  1.482423e+003 -5.118667e-001
      vertex  3.999373e+000  1.486407e+003 -7.079263e-002
    endloop
  endfacet
  facet normal  6.971204e-001  1.096750e-002 -7.168702e-001
    outer loop
      vertex  2.666667e+000  1.482407e+003 -2.981424e+000
      vertex  2.497332e+000  1.483810e+003 -3.124634e+000
      vertex  2.908595e+000  1.482423e+003 -2.745920e+000
    endloop
  endfacet
  facet normal  9.617615e-001  2.243164e-002 -2.729683e-001
    outer loop
      vertex  3.440262e+000  1.486407e+003 -2.040734e+000
      vertex  3.999373e+000  1.486407e+003 -7.079263e-002
      vertex  3.967114e+000  1.482423e+003 -5.118667e-001
    endloop
  endfacet
  facet normal  9.027877e-001 -4.476097e-002 -4.277508e-001
    outer loop
      vertex  3.967114e+000  1.482423e+003 -5.118667e-001
      vertex  2.908595e+000  1.482423e+003 -2.745920e+000
      vertex  3.440262e+000  1.486407e+003 -2.040734e+000
    endloop
  endfacet
  facet normal  4.160151e-001 -5.185956e-004 -9.093576e-001
    outer loop
      vertex  1.979528e+000  1.486407e+003 -3.475841e+000
      vertex  1.986228e+000  1.485076e+003 -3.472016e+000
      vertex  1.332582e+000  1.485872e+003 -3.771502e+000
    endloop
  endfacet
  facet normal  3.124034e-001  1.412927e-001 -9.393830e-001
    outer loop
      vertex  1.979528e+000  1.486407e+003 -3.475841e+000
      vertex  1.332582e+000  1.485872e+003 -3.771502e+000
      vertex  5.651261e-001  1.486317e+003 -3.959878e+000
    endloop
  endfacet
  facet normal  1.666620e-001  7.589891e-001 -6.294119e-001
    outer loop
      vertex  1.524851e-009  1.486407e+003 -4.000000e+000
      vertex  1.979528e+000  1.486407e+003 -3.475841e+000
      vertex  5.651261e-001  1.486317e+003 -3.959878e+000
    endloop
  endfacet
  facet normal -1.682280e-001  7.716964e-001 -6.133384e-001
    outer loop
      vertex  1.524851e-009  1.486407e+003 -4.000000e+000
      vertex -5.674777e-001  1.486316e+003 -3.959542e+000
      vertex -2.040734e+000  1.486407e+003 -3.440262e+000
    endloop
  endfacet
  facet normal -3.198530e-001  1.547493e-001 -9.347442e-001
    outer loop
      vertex -2.040734e+000  1.486407e+003 -3.440262e+000
      vertex -5.674777e-001  1.486316e+003 -3.959542e+000
      vertex -1.334550e+000  1.485870e+003 -3.770806e+000
    endloop
  endfacet
  facet normal -4.212705e-001  4.252578e-003 -9.069251e-001
    outer loop
      vertex -2.040734e+000  1.486407e+003 -3.440262e+000
      vertex -1.334550e+000  1.485870e+003 -3.770806e+000
      vertex -1.987910e+000  1.485073e+003 -3.471054e+000
    endloop
  endfacet
  facet normal -3.092159e-001 -2.790692e-004 -9.509918e-001
    outer loop
      vertex -1.712720e+000  1.426407e+003 -3.614774e+000
      vertex -1.592220e+000  1.479199e+003 -3.669446e+000
      vertex -8.687063e-001  1.478626e+003 -3.904529e+000
    endloop
  endfacet
  facet normal -7.194546e-001 -1.246163e-002 -6.944276e-001
    outer loop
      vertex -3.510330e+000  1.486407e+003 -1.917702e+000
      vertex -2.040734e+000  1.486407e+003 -3.440262e+000
      vertex -1.987910e+000  1.485073e+003 -3.471054e+000
    endloop
  endfacet
  facet normal -6.797922e-001  7.385674e-002 -7.296765e-001
    outer loop
      vertex -3.510330e+000  1.486407e+003 -1.917702e+000
      vertex -1.987910e+000  1.485073e+003 -3.471054e+000
      vertex -2.498390e+000  1.483806e+003 -3.123787e+000
    endloop
  endfacet
  facet normal -7.428358e-001  2.126771e-002 -6.691357e-001
    outer loop
      vertex -3.510330e+000  1.486407e+003 -1.917702e+000
      vertex -2.498390e+000  1.483806e+003 -3.123787e+000
      vertex -2.666668e+000  1.482407e+003 -2.981423e+000
    endloop
  endfacet
  facet normal -7.834899e-001  0.000000e+000 -6.214046e-001
    outer loop
      vertex -3.510330e+000  1.486407e+003 -1.917702e+000
      vertex -2.666668e+000  1.482407e+003 -2.981423e+000
      vertex -3.510330e+000  1.426407e+003 -1.917702e+000
    endloop
  endfacet
  facet normal -1.279659e-001 -3.434938e-003 -9.917726e-001
    outer loop
      vertex  7.390915e-001  1.426407e+003 -3.931125e+000
      vertex -1.712720e+000  1.426407e+003 -3.614774e+000
      vertex -8.687063e-001  1.478626e+003 -3.904529e+000
    endloop
  endfacet
  facet normal -6.782721e-002 -1.580254e-003 -9.976959e-001
    outer loop
      vertex  7.390915e-001  1.426407e+003 -3.931125e+000
      vertex -8.687063e-001  1.478626e+003 -3.904529e+000
      vertex  3.342180e-001  1.478439e+003 -3.986013e+000
    endloop
  endfacet
  facet normal  1.715603e-001  2.957054e-004 -9.851735e-001
    outer loop
      vertex  7.390915e-001  1.426407e+003 -3.931125e+000
      vertex  3.342180e-001  1.478439e+003 -3.986013e+000
      vertex  1.033765e+000  1.478720e+003 -3.864108e+000
    endloop
  endfacet
  facet normal  3.376591e-001 -6.961625e-004 -9.412683e-001
    outer loop
      vertex  7.390915e-001  1.426407e+003 -3.931125e+000
      vertex  1.033765e+000  1.478720e+003 -3.864108e+000
      vertex  1.653975e+000  1.479270e+003 -3.642028e+000
    endloop
  endfacet
  facet normal  5.020872e-001 -3.960061e-003 -8.648078e-001
    outer loop
      vertex  7.390915e-001  1.426407e+003 -3.931125e+000
      vertex  1.653975e+000  1.479270e+003 -3.642028e+000
      vertex  2.304106e+000  1.480394e+003 -3.269724e+000
    endloop
  endfacet
  facet normal  6.549024e-001 -9.727344e-003 -7.556509e-001
    outer loop
      vertex  7.390915e-001  1.426407e+003 -3.931125e+000
      vertex  2.304106e+000  1.480394e+003 -3.269724e+000
      vertex  2.666667e+000  1.482407e+003 -2.981424e+000
    endloop
  endfacet
  facet normal  6.978766e-001 -1.187697e-002 -7.161195e-001
    outer loop
      vertex  7.390915e-001  1.426407e+003 -3.931125e+000
      vertex  2.666667e+000  1.482407e+003 -2.981424e+000
      vertex  2.908595e+000  1.482423e+003 -2.745920e+000
    endloop
  endfacet
  facet normal  4.794255e-001  0.000000e+000 -8.775826e-001
    outer loop
      vertex  7.390915e-001  1.426407e+003 -3.931125e+000
      vertex  2.908595e+000  1.482423e+003 -2.745920e+000
      vertex  2.908595e+000  1.426407e+003 -2.745920e+000
    endloop
  endfacet
  facet normal  9.036934e-001  0.000000e+000 -4.281799e-001
    outer loop
      vertex  2.908595e+000  1.426407e+003 -2.745920e+000
      vertex  2.908595e+000  1.482423e+003 -2.745920e+000
      vertex  3.967114e+000  1.426407e+003 -5.118667e-001
    endloop
  endfacet
  facet normal  9.036934e-001  0.000000e+000 -4.281799e-001
    outer loop
      vertex  3.967114e+000  1.426407e+003 -5.118667e-001
      vertex  2.908595e+000  1.482423e+003 -2.745920e+000
      vertex  3.967114e+000  1.482423e+003 -5.118667e-001
    endloop
  endfacet
  facet normal  9.827812e-001  0.000000e+000  1.847729e-001
    outer loop
      vertex  3.967114e+000  1.426407e+003 -5.118667e-001
      vertex  3.967114e+000  1.482423e+003 -5.118667e-001
      vertex  3.510330e+000  1.426407e+003  1.917702e+000
    endloop
  endfacet
  facet normal  9.827812e-001  -0.000000e+000  1.847729e-001
    outer loop
      vertex  3.510330e+000  1.426407e+003  1.917702e+000
      vertex  3.967114e+000  1.482423e+003 -5.118667e-001
      vertex  3.510330e+000  1.486407e+003  1.917702e+000
    endloop
  endfacet
  facet normal  7.004464e-001  3.271906e-002 -7.129547e-001
    outer loop
      vertex  3.440262e+000  1.486407e+003 -2.040734e+000
      vertex  2.908595e+000  1.482423e+003 -2.745920e+000
      vertex  1.979528e+000  1.486407e+003 -3.475841e+000
    endloop
  endfacet
  facet normal  8.144062e-001  8.473565e-002 -5.740753e-001
    outer loop
      vertex  1.979528e+000  1.486407e+003 -3.475841e+000
      vertex  2.908595e+000  1.482423e+003 -2.745920e+000
      vertex  2.497332e+000  1.483810e+003 -3.124634e+000
    endloop
  endfacet
  facet normal  5.629018e-001  4.587669e-004 -8.265237e-001
    outer loop
      vertex  1.979528e+000  1.486407e+003 -3.475841e+000
      vertex  2.497332e+000  1.483810e+003 -3.124634e+000
      vertex  1.986228e+000  1.485076e+003 -3.472016e+000
    endloop
  endfacet
  facet normal -6.864758e-001 -3.470081e-003 -7.271443e-001
    outer loop
      vertex -3.510330e+000  1.426407e+003 -1.917702e+000
      vertex -2.666668e+000  1.482407e+003 -2.981423e+000
      vertex -1.712720e+000  1.426407e+003 -3.614774e+000
    endloop
  endfacet
  facet normal -6.610994e-001 -2.775987e-003 -7.502932e-001
    outer loop
      vertex -1.712720e+000  1.426407e+003 -3.614774e+000
      vertex -2.666668e+000  1.482407e+003 -2.981423e+000
      vertex -2.510033e+000  1.481057e+003 -3.114439e+000
    endloop
  endfacet
  facet normal -5.170181e-001  2.936565e-004 -8.559744e-001
    outer loop
      vertex -1.712720e+000  1.426407e+003 -3.614774e+000
      vertex -2.510033e+000  1.481057e+003 -3.114439e+000
      vertex -1.592220e+000  1.479199e+003 -3.669446e+000
    endloop
  endfacet
  facet normal  9.238768e-001 -3.826901e-001  0.000000e+000
    outer loop
      vertex  2.000000e+000  1.482407e+003 -1.500000e+001
      vertex  2.000000e+000  1.482407e+003 -4.472136e+000
      vertex  1.414214e+000  1.480993e+003 -1.500000e+001
    endloop
  endfacet
  facet normal  9.944695e-001 -9.607492e-002 -4.242827e-002
    outer loop
      vertex  1.414214e+000  1.480993e+003 -1.500000e+001
      vertex  2.000000e+000  1.482407e+003 -4.472136e+000
      vertex  1.956850e+000  1.481994e+003 -4.547852e+000
    endloop
  endfacet
  facet normal  8.474936e-001 -5.307617e-001  6.831051e-003
    outer loop
      vertex  1.414214e+000  1.480993e+003 -1.500000e+001
      vertex  1.956850e+000  1.481994e+003 -4.547852e+000
      vertex  1.240482e+000  1.480839e+003 -5.463041e+000
    endloop
  endfacet
  facet normal  6.164076e-001  2.172762e-001 -7.568570e-001
    outer loop
      vertex  1.240482e+000  1.480839e+003 -5.463041e+000
      vertex  1.956850e+000  1.481994e+003 -4.547852e+000
      vertex  1.728079e+000  1.481401e+003 -4.904586e+000
    endloop
  endfacet
  facet normal  3.826873e-001 -9.238431e-001 -8.010880e-003
    outer loop
      vertex  1.414214e+000  1.480993e+003 -1.500000e+001
      vertex  1.240482e+000  1.480839e+003 -5.463041e+000
      vertex -3.673819e-016  1.480407e+003 -1.500000e+001
    endloop
  endfacet
  facet normal  5.240620e-001 -8.511627e-001 -2.968541e-002
    outer loop
      vertex -3.673819e-016  1.480407e+003 -1.500000e+001
      vertex  1.240482e+000  1.480839e+003 -5.463041e+000
      vertex  7.753239e-001  1.480564e+003 -5.796162e+000
    endloop
  endfacet
  facet normal  2.606954e-001 -9.654050e-001 -5.558655e-003
    outer loop
      vertex -3.673819e-016  1.480407e+003 -1.500000e+001
      vertex  7.753239e-001  1.480564e+003 -5.796162e+000
      vertex  2.506635e-001  1.480423e+003 -5.979019e+000
    endloop
  endfacet
  facet normal -4.703253e-001 -8.824672e-001 -6.775412e-003
    outer loop
      vertex -1.194165e+000  1.480803e+003 -5.504169e+000
      vertex -1.414214e+000  1.480993e+003 -1.500000e+001
      vertex -6.515297e-001  1.480516e+003 -5.856794e+000
    endloop
  endfacet
  facet normal -3.826491e-001 -9.237510e-001 -1.624130e-002
    outer loop
      vertex -6.515297e-001  1.480516e+003 -5.856794e+000
      vertex -1.414214e+000  1.480993e+003 -1.500000e+001
      vertex -3.673819e-016  1.480407e+003 -1.500000e+001
    endloop
  endfacet
  facet normal -1.023424e-001 -9.947386e-001  4.580182e-003
    outer loop
      vertex -6.515297e-001  1.480516e+003 -5.856794e+000
      vertex -3.673819e-016  1.480407e+003 -1.500000e+001
      vertex  2.506635e-001  1.480423e+003 -5.979019e+000
    endloop
  endfacet
  facet normal -9.852037e-001 -1.713876e-001  0.000000e+000
    outer loop
      vertex -2.000000e+000  1.482407e+003 -4.472135e+000
      vertex -2.000000e+000  1.482407e+003 -1.500000e+001
      vertex -1.882525e+000  1.481732e+003 -4.671659e+000
    endloop
  endfacet
  facet normal -9.237795e-001 -3.826498e-001 -1.451150e-002
    outer loop
      vertex -1.882525e+000  1.481732e+003 -4.671659e+000
      vertex -2.000000e+000  1.482407e+003 -1.500000e+001
      vertex -1.414214e+000  1.480993e+003 -1.500000e+001
    endloop
  endfacet
  facet normal -8.006575e-001 -5.990865e-001  6.555067e-003
    outer loop
      vertex -1.882525e+000  1.481732e+003 -4.671659e+000
      vertex -1.414214e+000  1.480993e+003 -1.500000e+001
      vertex -1.194165e+000  1.480803e+003 -5.504169e+000
    endloop
  endfacet
  facet normal -6.300500e-001  7.765531e-001  1.491462e-003
    outer loop
      vertex -1.414214e+000  1.483822e+003 -1.500000e+001
      vertex -1.490932e+000  1.483740e+003 -5.206581e+000
      vertex -1.000912e+000  1.484139e+003 -5.656209e+000
    endloop
  endfacet
  facet normal -3.674461e-001  9.299184e-001 -1.533362e-002
    outer loop
      vertex -1.414214e+000  1.483822e+003 -1.500000e+001
      vertex -1.000912e+000  1.484139e+003 -5.656209e+000
      vertex -4.256082e-001  1.484362e+003 -5.939312e+000
    endloop
  endfacet
  facet normal -3.826657e-001  9.237910e-001 -1.330781e-002
    outer loop
      vertex  1.224606e-016  1.484407e+003 -1.500000e+001
      vertex -1.414214e+000  1.483822e+003 -1.500000e+001
      vertex -4.256082e-001  1.484362e+003 -5.939312e+000
    endloop
  endfacet
  facet normal  6.294270e-001  7.770582e-001  1.475257e-003
    outer loop
      vertex  9.994366e-001  1.484140e+003 -5.657253e+000
      vertex  1.489671e+000  1.483742e+003 -5.208025e+000
      vertex  1.414214e+000  1.483822e+003 -1.500000e+001
    endloop
  endfacet
  facet normal -9.238767e-001  3.826901e-001  0.000000e+000
    outer loop
      vertex -2.000000e+000  1.482407e+003 -1.500000e+001
      vertex -2.000000e+000  1.482407e+003 -4.472135e+000
      vertex -1.414214e+000  1.483822e+003 -1.500000e+001
    endloop
  endfacet
  facet normal -9.852614e-001  1.679865e-001 -3.225620e-002
    outer loop
      vertex -1.414214e+000  1.483822e+003 -1.500000e+001
      vertex -2.000000e+000  1.482407e+003 -4.472135e+000
      vertex -1.873792e+000  1.483107e+003 -4.685681e+000
    endloop
  endfacet
  facet normal -8.568776e-001  5.155140e-001 -2.445919e-003
    outer loop
      vertex -1.414214e+000  1.483822e+003 -1.500000e+001
      vertex -1.873792e+000  1.483107e+003 -4.685681e+000
      vertex -1.490932e+000  1.483740e+003 -5.206581e+000
    endloop
  endfacet
  facet normal  3.666215e-001  9.302425e-001 -1.541000e-002
    outer loop
      vertex  9.994366e-001  1.484140e+003 -5.657253e+000
      vertex  1.414214e+000  1.483822e+003 -1.500000e+001
      vertex  4.238446e-001  1.484362e+003 -5.939817e+000
    endloop
  endfacet
  facet normal  3.826659e-001  9.237914e-001 -1.327140e-002
    outer loop
      vertex  4.238446e-001  1.484362e+003 -5.939817e+000
      vertex  1.414214e+000  1.483822e+003 -1.500000e+001
      vertex  1.224606e-016  1.484407e+003 -1.500000e+001
    endloop
  endfacet
  facet normal -4.281142e-004  9.999873e-001  5.032021e-003
    outer loop
      vertex  4.238446e-001  1.484362e+003 -5.939817e+000
      vertex  1.224606e-016  1.484407e+003 -1.500000e+001
      vertex -4.256082e-001  1.484362e+003 -5.939312e+000
    endloop
  endfacet
  facet normal  9.238694e-001  3.826871e-001 -4.004129e-003
    outer loop
      vertex  1.414214e+000  1.483822e+003 -1.500000e+001
      vertex  1.489671e+000  1.483742e+003 -5.208025e+000
      vertex  2.000000e+000  1.482407e+003 -1.500000e+001
    endloop
  endfacet
  facet normal  8.636954e-001  5.034614e-001 -2.359961e-002
    outer loop
      vertex  2.000000e+000  1.482407e+003 -1.500000e+001
      vertex  1.489671e+000  1.483742e+003 -5.208025e+000
      vertex  1.872999e+000  1.483109e+003 -4.686950e+000
    endloop
  endfacet
  facet normal  9.839948e-001  1.781972e-001  0.000000e+000
    outer loop
      vertex  2.000000e+000  1.482407e+003 -1.500000e+001
      vertex  1.872999e+000  1.483109e+003 -4.686950e+000
      vertex  2.000000e+000  1.482407e+003 -4.472136e+000
    endloop
  endfacet
  facet normal  7.808307e-001 -5.144682e-002 -6.226208e-001
    outer loop
      vertex  2.304106e+000  1.480394e+003 -3.269724e+000
      vertex  1.792042e+000  1.480975e+003 -3.959977e+000
      vertex  2.666667e+000  1.482407e+003 -2.981424e+000
    endloop
  endfacet
  facet normal  9.493128e-001 -2.575664e-001 -1.801797e-001
    outer loop
      vertex  1.728079e+000  1.481401e+003 -4.904586e+000
      vertex  1.956850e+000  1.481994e+003 -4.547852e+000
      vertex  1.792042e+000  1.480975e+003 -3.959977e+000
    endloop
  endfacet
  facet normal  5.353556e-001 -2.825218e-001 -7.959748e-001
    outer loop
      vertex  1.176749e+000  1.480259e+003 -4.314298e+000
      vertex  1.653975e+000  1.479270e+003 -3.642028e+000
      vertex  1.033765e+000  1.478720e+003 -3.864108e+000
    endloop
  endfacet
  facet normal  3.549328e-001 -8.659034e-001 -3.524686e-001
    outer loop
      vertex  2.506635e-001  1.480423e+003 -5.979019e+000
      vertex  7.753239e-001  1.480564e+003 -5.796162e+000
      vertex  2.074520e-001  1.479835e+003 -4.577073e+000
    endloop
  endfacet
  facet normal  9.759858e-001 -6.375131e-002 -2.082967e-001
    outer loop
      vertex  2.000000e+000  1.482407e+003 -4.472136e+000
      vertex  2.174258e+000  1.482407e+003 -3.655639e+000
      vertex  1.956850e+000  1.481994e+003 -4.547852e+000
    endloop
  endfacet
  facet normal  6.157315e-001  6.470308e-001 -4.496951e-001
    outer loop
      vertex  1.956850e+000  1.481994e+003 -4.547852e+000
      vertex  2.174258e+000  1.482407e+003 -3.655639e+000
      vertex  2.666667e+000  1.482407e+003 -2.981424e+000
    endloop
  endfacet
  facet normal  8.902129e-001 -3.270358e-001 -3.171256e-001
    outer loop
      vertex  1.956850e+000  1.481994e+003 -4.547852e+000
      vertex  2.666667e+000  1.482407e+003 -2.981424e+000
      vertex  1.792042e+000  1.480975e+003 -3.959977e+000
    endloop
  endfacet
  facet normal -8.070449e-001 -3.554331e-002 -5.894194e-001
    outer loop
      vertex -2.666668e+000  1.482407e+003 -2.981423e+000
      vertex -2.174258e+000  1.482407e+003 -3.655640e+000
      vertex -2.510033e+000  1.481057e+003 -3.114439e+000
    endloop
  endfacet
  facet normal -7.914629e-001 -4.741285e-002 -6.093754e-001
    outer loop
      vertex -2.510033e+000  1.481057e+003 -3.114439e+000
      vertex -2.174258e+000  1.482407e+003 -3.655640e+000
      vertex -2.005964e+000  1.481435e+003 -3.798592e+000
    endloop
  endfacet
  facet normal -9.687114e-001 -1.373130e-001 -2.067449e-001
    outer loop
      vertex -2.174258e+000  1.482407e+003 -3.655640e+000
      vertex -2.000000e+000  1.482407e+003 -4.472135e+000
      vertex -2.005964e+000  1.481435e+003 -3.798592e+000
    endloop
  endfacet
  facet normal -9.770024e-001 -1.173612e-001 -1.780242e-001
    outer loop
      vertex -2.005964e+000  1.481435e+003 -3.798592e+000
      vertex -2.000000e+000  1.482407e+003 -4.472135e+000
      vertex -1.882525e+000  1.481732e+003 -4.671659e+000
    endloop
  endfacet
  facet normal  6.812219e-001 -1.571899e-001 -7.150022e-001
    outer loop
      vertex  1.653975e+000  1.479270e+003 -3.642028e+000
      vertex  1.176749e+000  1.480259e+003 -4.314298e+000
      vertex  2.304106e+000  1.480394e+003 -3.269724e+000
    endloop
  endfacet
  facet normal  6.755772e-001 -2.346493e-001 -6.989529e-001
    outer loop
      vertex  2.304106e+000  1.480394e+003 -3.269724e+000
      vertex  1.176749e+000  1.480259e+003 -4.314298e+000
      vertex  1.792042e+000  1.480975e+003 -3.959977e+000
    endloop
  endfacet
  facet normal  7.917971e-001 -5.619326e-001 -2.393513e-001
    outer loop
      vertex  1.176749e+000  1.480259e+003 -4.314298e+000
      vertex  1.240482e+000  1.480839e+003 -5.463041e+000
      vertex  1.792042e+000  1.480975e+003 -3.959977e+000
    endloop
  endfacet
  facet normal  8.433316e-001 -4.663900e-001 -2.669683e-001
    outer loop
      vertex  1.792042e+000  1.480975e+003 -3.959977e+000
      vertex  1.240482e+000  1.480839e+003 -5.463041e+000
      vertex  1.728079e+000  1.481401e+003 -4.904586e+000
    endloop
  endfacet
  facet normal  2.954973e-001 -3.496258e-001 -8.890687e-001
    outer loop
      vertex  3.342180e-001  1.478439e+003 -3.986013e+000
      vertex  2.074520e-001  1.479835e+003 -4.577073e+000
      vertex  1.033765e+000  1.478720e+003 -3.864108e+000
    endloop
  endfacet
  facet normal  3.674412e-001 -2.923480e-001 -8.829042e-001
    outer loop
      vertex  1.033765e+000  1.478720e+003 -3.864108e+000
      vertex  2.074520e-001  1.479835e+003 -4.577073e+000
      vertex  1.176749e+000  1.480259e+003 -4.314298e+000
    endloop
  endfacet
  facet normal  4.494047e-001 -8.432449e-001 -2.949124e-001
    outer loop
      vertex  2.074520e-001  1.479835e+003 -4.577073e+000
      vertex  7.753239e-001  1.480564e+003 -5.796162e+000
      vertex  1.176749e+000  1.480259e+003 -4.314298e+000
    endloop
  endfacet
  facet normal  6.403545e-001 -6.995531e-001 -3.171301e-001
    outer loop
      vertex  1.176749e+000  1.480259e+003 -4.314298e+000
      vertex  7.753239e-001  1.480564e+003 -5.796162e+000
      vertex  1.240482e+000  1.480839e+003 -5.463041e+000
    endloop
  endfacet
  facet normal -1.241213e-001 -4.040392e-001 -9.062815e-001
    outer loop
      vertex -8.687063e-001  1.478626e+003 -3.904529e+000
      vertex -5.610247e-001  1.479918e+003 -4.522720e+000
      vertex  3.342180e-001  1.478439e+003 -3.986013e+000
    endloop
  endfacet
  facet normal -1.072689e-001 -3.959133e-001 -9.120011e-001
    outer loop
      vertex  3.342180e-001  1.478439e+003 -3.986013e+000
      vertex -5.610247e-001  1.479918e+003 -4.522720e+000
      vertex  2.074520e-001  1.479835e+003 -4.577073e+000
    endloop
  endfacet
  facet normal -1.263224e-001 -9.081899e-001 -3.990411e-001
    outer loop
      vertex -5.610247e-001  1.479918e+003 -4.522720e+000
      vertex -6.515297e-001  1.480516e+003 -5.856794e+000
      vertex  2.074520e-001  1.479835e+003 -4.577073e+000
    endloop
  endfacet
  facet normal -1.466243e-001 -9.104987e-001 -3.866439e-001
    outer loop
      vertex  2.074520e-001  1.479835e+003 -4.577073e+000
      vertex -6.515297e-001  1.480516e+003 -5.856794e+000
      vertex  2.506635e-001  1.480423e+003 -5.979019e+000
    endloop
  endfacet
  facet normal -5.018127e-001 -3.009251e-001 -8.109427e-001
    outer loop
      vertex -1.592220e+000  1.479199e+003 -3.669446e+000
      vertex -1.123316e+000  1.480218e+003 -4.338024e+000
      vertex -8.687063e-001  1.478626e+003 -3.904529e+000
    endloop
  endfacet
  facet normal -4.388784e-001 -3.006152e-001 -8.467681e-001
    outer loop
      vertex -8.687063e-001  1.478626e+003 -3.904529e+000
      vertex -1.123316e+000  1.480218e+003 -4.338024e+000
      vertex -5.610247e-001  1.479918e+003 -4.522720e+000
    endloop
  endfacet
  facet normal -5.287905e-001 -7.711869e-001 -3.544733e-001
    outer loop
      vertex -1.123316e+000  1.480218e+003 -4.338024e+000
      vertex -1.194165e+000  1.480803e+003 -5.504169e+000
      vertex -5.610247e-001  1.479918e+003 -4.522720e+000
    endloop
  endfacet
  facet normal -5.896068e-001 -7.510663e-001 -2.970917e-001
    outer loop
      vertex -5.610247e-001  1.479918e+003 -4.522720e+000
      vertex -1.194165e+000  1.480803e+003 -5.504169e+000
      vertex -6.515297e-001  1.480516e+003 -5.856794e+000
    endloop
  endfacet
  facet normal -7.439740e-001 -1.748579e-001 -6.449243e-001
    outer loop
      vertex -2.510033e+000  1.481057e+003 -3.114439e+000
      vertex -2.005964e+000  1.481435e+003 -3.798592e+000
      vertex -1.592220e+000  1.479199e+003 -3.669446e+000
    endloop
  endfacet
  facet normal -6.705158e-001 -1.657855e-001 -7.231346e-001
    outer loop
      vertex -1.592220e+000  1.479199e+003 -3.669446e+000
      vertex -2.005964e+000  1.481435e+003 -3.798592e+000
      vertex -1.123316e+000  1.480218e+003 -4.338024e+000
    endloop
  endfacet
  facet normal -8.318087e-001 -4.790175e-001 -2.804220e-001
    outer loop
      vertex -2.005964e+000  1.481435e+003 -3.798592e+000
      vertex -1.882525e+000  1.481732e+003 -4.671659e+000
      vertex -1.123316e+000  1.480218e+003 -4.338024e+000
    endloop
  endfacet
  facet normal -8.615710e-001 -4.728457e-001 -1.846953e-001
    outer loop
      vertex -1.123316e+000  1.480218e+003 -4.338024e+000
      vertex -1.882525e+000  1.481732e+003 -4.671659e+000
      vertex -1.194165e+000  1.480803e+003 -5.504169e+000
    endloop
  endfacet
  facet normal  4.039639e-001  3.371086e-001 -8.503946e-001
    outer loop
      vertex  5.651261e-001  1.486317e+003 -3.959878e+000
      vertex  1.332582e+000  1.485872e+003 -3.771502e+000
      vertex  9.083107e-001  1.484738e+003 -4.422639e+000
    endloop
  endfacet
  facet normal -4.835779e-001  8.011329e-001 -3.526167e-001
    outer loop
      vertex -9.098820e-001  1.484737e+003 -4.422084e+000
      vertex -4.256082e-001  1.484362e+003 -5.939312e+000
      vertex -1.000912e+000  1.484139e+003 -5.656209e+000
    endloop
  endfacet
  facet normal  1.157854e-001  3.025114e-001 -9.460870e-001
    outer loop
      vertex  1.524851e-009  1.486407e+003 -4.000000e+000
      vertex  5.651261e-001  1.486317e+003 -3.959878e+000
      vertex  9.083107e-001  1.484738e+003 -4.422639e+000
    endloop
  endfacet
  facet normal  2.635653e-001  3.690360e-001 -8.912608e-001
    outer loop
      vertex  1.524851e-009  1.486407e+003 -4.000000e+000
      vertex  9.083107e-001  1.484738e+003 -4.422639e+000
      vertex -7.717751e-004  1.484993e+003 -4.585786e+000
    endloop
  endfacet
  facet normal -1.265896e-001  3.796703e-001 -9.164199e-001
    outer loop
      vertex  1.524851e-009  1.486407e+003 -4.000000e+000
      vertex -7.717751e-004  1.484993e+003 -4.585786e+000
      vertex -5.674777e-001  1.486316e+003 -3.959542e+000
    endloop
  endfacet
  facet normal -8.069990e-001  3.710741e-002 -5.893859e-001
    outer loop
      vertex -2.666668e+000  1.482407e+003 -2.981423e+000
      vertex -2.498390e+000  1.483806e+003 -3.123787e+000
      vertex -2.174258e+000  1.482407e+003 -3.655640e+000
    endloop
  endfacet
  facet normal -7.902937e-001  4.910727e-002 -6.107571e-001
    outer loop
      vertex -2.174258e+000  1.482407e+003 -3.655640e+000
      vertex -2.498390e+000  1.483806e+003 -3.123787e+000
      vertex -1.993642e+000  1.483413e+003 -3.808485e+000
    endloop
  endfacet
  facet normal -9.680025e-001  1.424434e-001 -2.065936e-001
    outer loop
      vertex -2.174258e+000  1.482407e+003 -3.655640e+000
      vertex -1.993642e+000  1.483413e+003 -3.808485e+000
      vertex -2.000000e+000  1.482407e+003 -4.472135e+000
    endloop
  endfacet
  facet normal -9.766994e-001  1.224679e-001 -1.762382e-001
    outer loop
      vertex -2.000000e+000  1.482407e+003 -4.472135e+000
      vertex -1.993642e+000  1.483413e+003 -3.808485e+000
      vertex -1.873792e+000  1.483107e+003 -4.685681e+000
    endloop
  endfacet
  facet normal  7.949631e-001  3.412928e-002 -6.056970e-001
    outer loop
      vertex  2.497332e+000  1.483810e+003 -3.124634e+000
      vertex  2.666667e+000  1.482407e+003 -2.981424e+000
      vertex  1.992523e+000  1.483416e+003 -3.809379e+000
    endloop
  endfacet
  facet normal  8.063098e-001  5.551227e-002 -5.888826e-001
    outer loop
      vertex  1.992523e+000  1.483416e+003 -3.809379e+000
      vertex  2.666667e+000  1.482407e+003 -2.981424e+000
      vertex  2.174258e+000  1.482407e+003 -3.655639e+000
    endloop
  endfacet
  facet normal  9.718820e-001  1.470602e-001 -1.838983e-001
    outer loop
      vertex  1.992523e+000  1.483416e+003 -3.809379e+000
      vertex  2.174258e+000  1.482407e+003 -3.655639e+000
      vertex  1.872999e+000  1.483109e+003 -4.686950e+000
    endloop
  endfacet
  facet normal  9.717716e-001  1.124555e-001 -2.073973e-001
    outer loop
      vertex  1.872999e+000  1.483109e+003 -4.686950e+000
      vertex  2.174258e+000  1.482407e+003 -3.655639e+000
      vertex  2.000000e+000  1.482407e+003 -4.472136e+000
    endloop
  endfacet
  facet normal  7.327082e-001  1.115745e-001 -6.713344e-001
    outer loop
      vertex  1.986228e+000  1.485076e+003 -3.472016e+000
      vertex  2.497332e+000  1.483810e+003 -3.124634e+000
      vertex  1.479357e+000  1.484270e+003 -4.159207e+000
    endloop
  endfacet
  facet normal  7.399172e-001  1.789861e-001 -6.484494e-001
    outer loop
      vertex  1.479357e+000  1.484270e+003 -4.159207e+000
      vertex  2.497332e+000  1.483810e+003 -3.124634e+000
      vertex  1.992523e+000  1.483416e+003 -3.809379e+000
    endloop
  endfacet
  facet normal  8.735751e-001  4.380555e-001 -2.120704e-001
    outer loop
      vertex  1.479357e+000  1.484270e+003 -4.159207e+000
      vertex  1.992523e+000  1.483416e+003 -3.809379e+000
      vertex  1.489671e+000  1.483742e+003 -5.208025e+000
    endloop
  endfacet
  facet normal  9.054638e-001  3.467057e-001 -2.448067e-001
    outer loop
      vertex  1.489671e+000  1.483742e+003 -5.208025e+000
      vertex  1.992523e+000  1.483416e+003 -3.809379e+000
      vertex  1.872999e+000  1.483109e+003 -4.686950e+000
    endloop
  endfacet
  facet normal  6.082244e-001  2.116821e-001 -7.650188e-001
    outer loop
      vertex  1.332582e+000  1.485872e+003 -3.771502e+000
      vertex  1.986228e+000  1.485076e+003 -3.472016e+000
      vertex  9.083107e-001  1.484738e+003 -4.422639e+000
    endloop
  endfacet
  facet normal  5.829888e-001  2.827394e-001 -7.616972e-001
    outer loop
      vertex  9.083107e-001  1.484738e+003 -4.422639e+000
      vertex  1.986228e+000  1.485076e+003 -3.472016e+000
      vertex  1.479357e+000  1.484270e+003 -4.159207e+000
    endloop
  endfacet
  facet normal  6.821601e-001  6.765335e-001 -2.774166e-001
    outer loop
      vertex  9.083107e-001  1.484738e+003 -4.422639e+000
      vertex  1.479357e+000  1.484270e+003 -4.159207e+000
      vertex  9.994366e-001  1.484140e+003 -5.657253e+000
    endloop
  endfacet
  facet normal  7.496397e-001  5.940214e-001 -2.918539e-001
    outer loop
      vertex  9.994366e-001  1.484140e+003 -5.657253e+000
      vertex  1.479357e+000  1.484270e+003 -4.159207e+000
      vertex  1.489671e+000  1.483742e+003 -5.208025e+000
    endloop
  endfacet
  facet normal  3.133722e-001  8.634850e-001 -3.952108e-001
    outer loop
      vertex  9.083107e-001  1.484738e+003 -4.422639e+000
      vertex  9.994366e-001  1.484140e+003 -5.657253e+000
      vertex -7.717751e-004  1.484993e+003 -4.585786e+000
    endloop
  endfacet
  facet normal  4.546563e-001  8.533161e-001 -2.552235e-001
    outer loop
      vertex -7.717751e-004  1.484993e+003 -4.585786e+000
      vertex  9.994366e-001  1.484140e+003 -5.657253e+000
      vertex  4.238446e-001  1.484362e+003 -5.939817e+000
    endloop
  endfacet
  facet normal -6.417450e-004  9.062739e-001 -4.226904e-001
    outer loop
      vertex -7.717751e-004  1.484993e+003 -4.585786e+000
      vertex  4.238446e-001  1.484362e+003 -5.939817e+000
      vertex -4.256082e-001  1.484362e+003 -5.939312e+000
    endloop
  endfacet
  facet normal -4.047774e-001  3.368571e-001 -8.501074e-001
    outer loop
      vertex -1.334550e+000  1.485870e+003 -3.770806e+000
      vertex -5.674777e-001  1.486316e+003 -3.959542e+000
      vertex -9.098820e-001  1.484737e+003 -4.422084e+000
    endloop
  endfacet
  facet normal -2.549743e-001  3.223895e-001 -9.116212e-001
    outer loop
      vertex -9.098820e-001  1.484737e+003 -4.422084e+000
      vertex -5.674777e-001  1.486316e+003 -3.959542e+000
      vertex -7.717751e-004  1.484993e+003 -4.585786e+000
    endloop
  endfacet
  facet normal -3.098727e-001  8.951517e-001 -3.204409e-001
    outer loop
      vertex -9.098820e-001  1.484737e+003 -4.422084e+000
      vertex -7.717751e-004  1.484993e+003 -4.585786e+000
      vertex -4.256082e-001  1.484362e+003 -5.939312e+000
    endloop
  endfacet
  facet normal -6.285379e-001  2.366416e-001 -7.409055e-001
    outer loop
      vertex -1.987910e+000  1.485073e+003 -3.471054e+000
      vertex -1.334550e+000  1.485870e+003 -3.770806e+000
      vertex -1.480952e+000  1.484268e+003 -4.158294e+000
    endloop
  endfacet
  facet normal -5.637489e-001  2.424863e-001 -7.895489e-001
    outer loop
      vertex -1.480952e+000  1.484268e+003 -4.158294e+000
      vertex -1.334550e+000  1.485870e+003 -3.770806e+000
      vertex -9.098820e-001  1.484737e+003 -4.422084e+000
    endloop
  endfacet
  facet normal -6.851018e-001  6.532239e-001 -3.223881e-001
    outer loop
      vertex -1.480952e+000  1.484268e+003 -4.158294e+000
      vertex -9.098820e-001  1.484737e+003 -4.422084e+000
      vertex -1.490932e+000  1.483740e+003 -5.206581e+000
    endloop
  endfacet
  facet normal -7.383105e-001  6.267013e-001 -2.492854e-001
    outer loop
      vertex -1.490932e+000  1.483740e+003 -5.206581e+000
      vertex -9.098820e-001  1.484737e+003 -4.422084e+000
      vertex -1.000912e+000  1.484139e+003 -5.656209e+000
    endloop
  endfacet
  facet normal -7.602555e-001  1.318932e-001 -6.360943e-001
    outer loop
      vertex -2.498390e+000  1.483806e+003 -3.123787e+000
      vertex -1.987910e+000  1.485073e+003 -3.471054e+000
      vertex -1.993642e+000  1.483413e+003 -3.808485e+000
    endloop
  endfacet
  facet normal -7.091969e-001  1.427544e-001 -6.904063e-001
    outer loop
      vertex -1.993642e+000  1.483413e+003 -3.808485e+000
      vertex -1.987910e+000  1.485073e+003 -3.471054e+000
      vertex -1.480952e+000  1.484268e+003 -4.158294e+000
    endloop
  endfacet
  facet normal -8.710773e-001  4.142990e-001 -2.637818e-001
    outer loop
      vertex -1.993642e+000  1.483413e+003 -3.808485e+000
      vertex -1.480952e+000  1.484268e+003 -4.158294e+000
      vertex -1.873792e+000  1.483107e+003 -4.685681e+000
    endloop
  endfacet
  facet normal -9.014193e-001  3.900803e-001 -1.878310e-001
    outer loop
      vertex -1.873792e+000  1.483107e+003 -4.685681e+000
      vertex -1.480952e+000  1.484268e+003 -4.158294e+000
      vertex -1.490932e+000  1.483740e+003 -5.206581e+000
    endloop
  endfacet
  facet normal  0.000000e+000  0.000000e+000  1.000000e+000
    outer loop
      vertex -1.414214e+000  1.483822e+003  1.500000e+001
      vertex  1.414214e+000  1.483822e+003  1.500000e+001
      vertex  1.224606e-016  1.484407e+003  1.500000e+001
    endloop
  endfacet
  facet normal  -0.000000e+000  0.000000e+000  1.000000e+000
    outer loop
      vertex  1.414214e+000  1.483822e+003  1.500000e+001
      vertex -1.414214e+000  1.483822e+003  1.500000e+001
      vertex  2.000000e+000  1.482407e+003  1.500000e+001
    endloop
  endfacet
  facet normal  0.000000e+000  0.000000e+000  9.999999e-001
    outer loop
      vertex  2.000000e+000  1.482407e+003  1.500000e+001
      vertex -1.414214e+000  1.483822e+003  1.500000e+001
      vertex -2.000000e+000  1.482407e+003  1.500000e+001
    endloop
  endfacet
  facet normal  -0.000000e+000  0.000000e+000  9.999999e-001
    outer loop
      vertex  2.000000e+000  1.482407e+003  1.500000e+001
      vertex -2.000000e+000  1.482407e+003  1.500000e+001
      vertex  1.414214e+000  1.480993e+003  1.500000e+001
    endloop
  endfacet
  facet normal  0.000000e+000  0.000000e+000  1.000000e+000
    outer loop
      vertex  1.414214e+000  1.480993e+003  1.500000e+001
      vertex -2.000000e+000  1.482407e+003  1.500000e+001
      vertex -1.414214e+000  1.480993e+003  1.500000e+001
    endloop
  endfacet
  facet normal  -0.000000e+000  0.000000e+000  1.000000e+000
    outer loop
      vertex  1.414214e+000  1.480993e+003  1.500000e+001
      vertex -1.414214e+000  1.480993e+003  1.500000e+001
      vertex -3.673819e-016  1.480407e+003  1.500000e+001
    endloop
  endfacet
  facet normal  0.000000e+000  0.000000e+000 -1.000000e+000
    outer loop
      vertex  1.224606e-016  1.484407e+003 -1.500000e+001
      vertex  1.414214e+000  1.483822e+003 -1.500000e+001
      vertex -1.414214e+000  1.483822e+003 -1.500000e+001
    endloop
  endfacet
  facet normal  0.000000e+000  0.000000e+000 -1.000000e+000
    outer loop
      vertex -3.673819e-016  1.480407e+003 -1.500000e+001
      vertex -1.414214e+000  1.480993e+003 -1.500000e+001
      vertex  1.414214e+000  1.480993e+003 -1.500000e+001
    endloop
  endfacet
  facet normal  0.000000e+000  0.000000e+000 -1.000000e+000
    outer loop
      vertex  1.414214e+000  1.480993e+003 -1.500000e+001
      vertex -1.414214e+000  1.480993e+003 -1.500000e+001
      vertex -2.000000e+000  1.482407e+003 -1.500000e+001
    endloop
  endfacet
  facet normal  0.000000e+000  0.000000e+000 -9.999999e-001
    outer loop
      vertex  1.414214e+000  1.480993e+003 -1.500000e+001
      vertex -2.000000e+000  1.482407e+003 -1.500000e+001
      vertex  2.000000e+000  1.482407e+003 -1.500000e+001
    endloop
  endfacet
  facet normal  0.000000e+000  0.000000e+000 -9.999999e-001
    outer loop
      vertex  2.000000e+000  1.482407e+003 -1.500000e+001
      vertex -2.000000e+000  1.482407e+003 -1.500000e+001
      vertex -1.414214e+000  1.483822e+003 -1.500000e+001
    endloop
  endfacet
  facet normal  0.000000e+000  0.000000e+000 -1.000000e+000
    outer loop
      vertex  2.000000e+000  1.482407e+003 -1.500000e+001
      vertex -1.414214e+000  1.483822e+003 -1.500000e+001
      vertex  1.414214e+000  1.483822e+003 -1.500000e+001
    endloop
  endfacet
endsolid CATIA STL
