<?xml version="1.0" encoding="UTF-8" standalone="no"?>
<!-- Created with Inkscape (http://www.inkscape.org/) -->

<svg
   version="1.1"
   id="svg9"
   width="330.65817"
   height="331.75882"
   viewBox="0 0 330.65817 331.75882"
   sodipodi:docname="Tigresse-2.svg"
   inkscape:version="1.1.1 (3bf5ae0d25, 2021-09-20)"
   xmlns:inkscape="http://www.inkscape.org/namespaces/inkscape"
   xmlns:sodipodi="http://sodipodi.sourceforge.net/DTD/sodipodi-0.dtd"
   xmlns="http://www.w3.org/2000/svg"
   xmlns:svg="http://www.w3.org/2000/svg">
  <defs
     id="defs13" />
  <sodipodi:namedview
     id="namedview11"
     pagecolor="#ffffff"
     bordercolor="#666666"
     borderopacity="1.0"
     inkscape:pageshadow="2"
     inkscape:pageopacity="0.0"
     inkscape:pagecheckerboard="0"
     showgrid="false"
     inkscape:zoom="1.36"
     inkscape:cx="163.60294"
     inkscape:cy="156.61765"
     inkscape:window-width="1500"
     inkscape:window-height="930"
     inkscape:window-x="-6"
     inkscape:window-y="-6"
     inkscape:window-maximized="1"
     inkscape:current-layer="g15" />
  <g
     inkscape:groupmode="layer"
     inkscape:label="Image"
     id="g15"
     transform="translate(-86.119847,-93.093524)">
    <path
       style="fill:#000000"
       d="M 234.5204,424.3083 C 165.55901,417.08785 107.72008,367.1299 91.00829,300.35078 c -3.77848,-15.09855 -4.888443,-24.41413 -4.888443,-41.02725 0,-26.00549 4.044892,-44.90122 14.663373,-68.5 18.83299,-41.85488 54.50796,-73.88902 98.57509,-88.51494 14.51578,-4.81779 23.58496,-6.674261 39.55248,-8.09642 l 12.5598,-1.118646 12.5598,1.118646 c 15.96752,1.422158 25.0367,3.27863 39.55248,8.09642 59.74761,19.83029 102.11332,70.33975 111.98801,133.51494 1.61033,10.30239 1.6094,36.70657 -0.002,47 -7.10238,45.37891 -29.42838,82.47044 -66.59864,110.64435 -18.3486,13.90767 -45.91525,25.48343 -69.97018,29.38181 -11.55851,1.87319 -33.61302,2.59641 -44.48001,1.45861 z m 48.04945,-15.42249 c 32.54569,-6.74893 62.09034,-23.84935 83.48495,-48.32101 22.04851,-25.21961 34.3823,-54.24223 37.58546,-88.44222 l 1.19876,-12.79905 -1.22136,-13.0404 C 396.59417,171.29369 338.75724,113.59188 264.27881,107.26984 l -12.80822,-1.08721 -12.80822,1.08721 c -36.10522,3.06476 -68.43157,17.85152 -94.12266,43.05369 -49.48009,48.53845 -60.159484,124.5311 -25.94004,184.58469 7.26496,12.74969 14.82752,22.53234 25.832,33.41531 20.0927,19.87084 45.69196,33.88096 73.16564,40.04252 20.35436,4.56491 44.53271,4.75833 64.97254,0.51976 z m -49.09926,-6.57956 c -65.24582,-9.0836 -114.70629,-57.70722 -124.59076,-122.48272 -9.921294,-65.01677 28.38424,-130.57291 90.2614,-154.47349 17.48648,-6.7543 34.43516,-9.98987 52.32936,-9.98987 17.8942,0 34.84288,3.23557 52.32936,9.98987 47.1356,18.20653 81.02901,59.9254 89.64914,110.34771 12.93644,75.67007 -36.97945,148.65681 -112.57949,164.61312 -11.31726,2.38865 -36.85284,3.46363 -47.39901,1.99538 z m 46.40119,-8.44348 c 38.89809,-8.85974 71.29319,-32.4822 90.44796,-65.95455 6.7796,-11.84711 10.77088,-21.6616 14.46839,-35.57747 l 3.05752,-11.50722 v -21.5 -21.5 l -3.05752,-11.50722 c -5.60874,-21.10893 -14.18491,-38.01418 -27.65897,-54.52102 -7.33769,-8.98929 -22.38123,-22.59847 -29.68378,-26.85353 l -3.22951,-1.88177 2.37736,3.21555 2.37736,3.21555 v 10.66622 10.66622 l -2.24568,4.5568 c -2.23189,4.52882 -6.09829,9.43256 -6.84692,8.68393 -0.21533,-0.21533 1.17992,-4.28856 3.10055,-9.05164 5.20064,-12.89738 4.61094,-18.48388 -2.67263,-25.3191 -6.16895,-5.7892 -11.05393,-6.86115 -16.10094,-3.53316 -5.79339,3.82015 -7.00202,7.37614 -3.83597,11.28604 l 1.89841,2.34444 3.63552,-1.73365 c 4.77282,-2.276 5.56766,-2.19093 5.56766,0.59593 0,1.41761 -2.1071,4.64727 -5.38248,8.25 l -5.38249,5.92041 -6.17878,2.3554 c -3.39833,1.29547 -6.39522,2.13896 -6.65975,1.87443 -0.26453,-0.26453 1.00054,-1.70099 2.81127,-3.19212 1.81072,-1.49114 4.49242,-4.27726 5.95932,-6.19137 l 2.66708,-3.48021 -3.06656,-4.93307 c -1.68661,-2.71318 -3.35627,-4.93306 -3.71037,-4.93306 -0.35409,0 -3.23721,2.19281 -6.40693,4.87291 -9.64589,8.15591 -15.98966,10.62702 -12.11998,4.72114 1.07164,-1.63553 1.45986,-3.49701 1.06085,-5.08676 l -0.62928,-2.50729 h 4.97223 4.97224 l 6.22145,-7.25 c 7.89975,-9.20578 10.84531,-11.36879 16.67286,-12.24338 l 4.69932,-0.70527 -3.84589,-1.97376 c -5.30968,-2.725 -22.70505,-8.27852 -31.15411,-9.94605 -9.40319,-1.85584 -41.59681,-1.85584 -51,0 -39.34571,7.76538 -73.75177,32.28798 -93.34915,66.53377 -6.7796,11.84711 -10.77088,21.6616 -14.46839,35.57747 l -3.05752,11.50722 v 21.5 21.5 l 3.05752,11.50722 c 10.78613,40.59447 36.09005,71.85365 73.23287,90.46817 9.35408,4.6879 25.33701,9.92495 35.08467,11.49602 4.125,0.66485 8.175,1.37005 9,1.56712 4.0594,0.96966 38.09468,-0.56287 44.40119,-1.99929 z m -97.65119,-23.11151 c -0.4125,-0.41859 -0.75,-2.26106 -0.75,-4.0944 v -3.33333 h -2.94098 c -1.61754,0 -3.2191,-0.45 -3.55902,-1 -0.39104,-0.63271 2.13661,-1 6.88197,-1 7.54274,0 11.48276,1.59826 5.38701,2.18523 l -3.26898,0.31477 -0.5,3.84439 c -0.275,2.11442 -0.8375,3.50192 -1.25,3.08334 z m 10.91667,-0.0944 c -1.04686,-1.04685 -0.77896,-5.33333 0.33333,-5.33333 0.55,0 1,1.35 1,3 0,3.10687 -0.20356,3.4631 -1.33333,2.33333 z m 5.42373,-0.72441 c -0.67477,-0.81305 -1.08366,-2.97017 -0.90863,-4.7936 l 0.31823,-3.31532 6.71965,-0.295 6.71966,-0.295 0.61322,2.44329 c 0.33728,1.34381 0.46343,3.50156 0.28035,4.795 l -0.33288,2.35171 -6.09137,0.2936 -6.09137,0.2936 z m 8.4096,-2.34385 c -6.31827,-0.62981 -6.67924,-2.26507 -0.5,-2.26507 h 5.4 l -1.06049,-1.06049 c -0.58327,-0.58327 -3.26077,-0.92077 -5.95,-0.75 l -4.88951,0.31049 -0.31955,2.25 -0.31955,2.25 5.81955,-0.1681 5.81955,-0.16811 z m 21.26793,1.73493 -1.24902,-2 h -4.79084 c -3.33603,0 -4.96563,0.4555 -5.36644,1.5 -1.13839,2.96659 -2.36163,1.4127 -2.36163,-3 v -4.5 h 6.94098 c 7.71303,0 8.38006,0.48034 8.67652,6.24806 0.21978,4.27605 -0.09,4.56947 -1.84957,1.75194 z m -0.76793,-5 c 0,-0.55 -2.25,-1 -5,-1 -2.75,0 -5,0.45 -5,1 0,0.55 2.25,1 5,1 2.75,0 5,-0.45 5,-1 z m 6.61242,5.70586 -1.76984,-1.29414 0.32871,-3.45586 0.32871,-3.45586 7.25,-0.29381 c 4.55718,-0.18468 7.25,0.0939 7.25,0.75 0,0.6091 -2.49878,1.04381 -6,1.04381 -3.33333,0 -6,0.44444 -6,1 0,0.55 2.475,1 5.5,1 7.5621,0 6.95743,1.82177 -0.75,2.2596 l -6.25,0.35504 6.75,0.19268 6.75,0.19268 v 1.5 1.5 h -5.80887 c -3.19488,0 -6.6053,-0.58236 -7.57871,-1.29414 z m 17.0952,0.66843 c -1.74776,-1.74776 -0.24004,-2.38739 6.04238,-2.56337 l 6.75,-0.18909 -5.66691,-0.35834 c -5.88168,-0.37192 -8.51464,-2.04501 -7.47635,-4.75076 l 0.58049,-1.51273 h 7.03139 c 4.02092,0 7.03138,0.42815 7.03138,1 0,0.55556 -2.66667,1 -6,1 -7.66307,0 -7.86792,1.80277 -0.25,2.2001 l 5.75,0.2999 v 2.5 2.5 l -6.54238,0.29096 c -3.5983,0.16002 -6.8608,-0.0275 -7.25,-0.41667 z m 18,0 c -1.74944,-1.74944 -0.23857,-2.38628 6.04238,-2.54689 l 6.75,-0.1726 -6.5,-0.5774 -6.5,-0.5774 v -2.5 -2.5 l 6.39843,-0.30157 c 3.56665,-0.1681 6.86383,0.16383 7.45,0.75 0.73543,0.73543 -0.79465,1.05157 -5.08941,1.05157 -8.23832,0 -9.09579,1.81851 -1.03808,2.20153 l 6.27906,0.29847 v 2.5 2.5 l -6.54238,0.29096 c -3.5983,0.16002 -6.8608,-0.0275 -7.25,-0.41667 z m 17.9048,-0.66843 -1.76984,-1.29414 0.32871,-3.45586 0.32871,-3.45586 6.90087,-0.29913 c 3.90245,-0.16916 7.35672,0.15672 7.95,0.75 0.73217,0.73217 -0.97504,1.04913 -5.65087,1.04913 -3.8,0 -6.7,0.43284 -6.7,1 0,0.55 2.475,1 5.5,1 7.28412,0 7.08502,1.80073 -0.25,2.26101 l -5.75,0.36082 6.14301,0.18909 6.14301,0.18908 0.57561,1.5 0.5756,1.5 h -6.27749 c -3.55779,0 -7.04426,-0.56068 -8.04732,-1.29414 z m 27.05425,0.62747 c -0.36667,-0.36666 -0.66667,-1.71666 -0.66667,-3 v -2.33333 h 6 c 3.76251,0 6,-0.41774 6,-1.12019 0,-0.75113 -1.98396,-0.97668 -6.0218,-0.68461 -3.99037,0.28863 -5.90322,0.0762 -5.6703,-0.62981 0.19332,-0.58597 3.31655,-1.19762 6.9405,-1.35923 l 6.589,-0.29383 0.64585,2.03488 c 1.03581,3.26357 -0.21556,4.04204 -6.79227,4.22539 l -6.19098,0.1726 6.4219,0.5774 c 3.8026,0.3419 6.58971,1.08724 6.83333,1.8274 l 0.41144,1.25 h -6.91667 c -3.80417,0 -7.21667,-0.3 -7.58333,-0.66667 z m -10.16667,-4.33333 c -0.3678,-0.59512 0.82295,-1 2.94098,-1 1.95746,0 3.55902,0.45 3.55902,1 0,0.55 -1.32344,1 -2.94098,1 -1.61754,0 -3.2191,-0.45 -3.55902,-1 z m -111.5,-3.5 c 0,-0.825 0.45,-1.5 1,-1.5 0.55,0 1,0.675 1,1.5 0,0.825 -0.45,1.5 -1,1.5 -0.55,0 -1,-0.675 -1,-1.5 z m 27.66152,-10.92857 c -2.51107,-1.91674 -4.31402,-2.82944 -4.00656,-2.02821 0.96933,2.52603 -1.17545,1.59224 -5.48857,-2.38961 l -4.16639,-3.84639 -0.0216,-5.90361 -0.0216,-5.90361 -5.57383,-3.99398 c -9.03827,-6.47647 -10.05183,-11.3137 -1.43373,-6.84247 2.69761,1.39958 5.38759,2.24627 5.97772,1.88155 0.5902,-0.36472 1.07304,-2.58314 1.07304,-4.9298 v -4.26667 l 2.25,-1.97177 c 5.32709,-4.66835 6.134,-4.78493 2.97534,-0.42986 -3.66586,5.05439 -4.11104,8.50862 -1.29108,10.01782 2.69197,1.44069 4.06574,1.29208 4.06574,-0.43982 v -1.475 l 2.8615,0.5723 c 3.67949,0.7359 7.9044,-1.45542 12.18749,-6.32122 1.84023,-2.09059 2.97448,-2.90108 2.52055,-1.80108 -0.45392,1.1 -1.66593,4.1375 -2.69335,6.75 l -1.86804,4.75 h 1.60202 c 0.88111,0 3.35428,-1.38781 5.49593,-3.08403 l 3.8939,-3.08403 0.0354,-6.16597 c 0.0198,-3.44756 0.66549,-7.26815 1.46456,-8.66597 1.75032,-3.06186 1.94012,-11.15988 0.3,-12.8 -1.76671,-1.76671 -6.25926,-1.4596 -8.04564,0.55 -0.85559,0.9625 -3.12653,4.37351 -5.04652,7.58002 -4.19588,7.00738 -5.58802,6.16315 -2.13323,-1.29366 4.48435,-9.67902 -0.10069,-6.85191 -5.19646,3.2041 -1.32651,2.61775 -2.55132,4.75954 -2.7218,4.75954 -0.17048,0 -0.12706,-1.2462 0.0965,-2.76934 l 0.40645,-2.76934 -4.16471,-5.23066 c -2.29056,-2.87686 -4.8014,-5.23066 -5.57962,-5.23066 -1.72079,0 -1.74247,0.4522 -0.22313,4.65387 0.65549,1.81272 0.8758,3.61187 0.48957,3.99809 -0.82572,0.82573 -6.68137,-4.52647 -6.68137,-6.10692 0,-0.59442 -1.11474,-2.72126 -2.4772,-4.7263 l -2.4772,-3.64553 -3.47104,1.06529 -3.47103,1.06529 -0.30176,2.44881 -0.30177,2.4488 -2.65773,-2.1007 c -2.9615,-2.3408 -5.85024,-2.76252 -5.82721,-0.8507 0.008,0.6875 0.66353,3.05 1.4561,5.25 0.79258,2.2 1.46081,4.8188 1.48495,5.81955 l 0.0439,1.81955 -2.24297,-0.31955 -2.24296,-0.31955 -5.50704,-9.21367 -5.50703,-9.21367 -6,-4.82774 c -6.97199,-5.60984 -11.02297,-12.02509 -10.04754,-15.91155 l 0.64834,-2.58319 3.87688,0.52 c 2.26501,0.3038 4.63469,0.0103 5.6996,-0.70596 3.47856,-2.33967 10.21931,-4.54056 10.83843,-3.5388 0.33128,0.53602 0.0266,0.97458 -0.67715,0.97458 -2.3499,0 -16.85548,7.449 -16.51687,8.48185 0.46038,1.40428 7.89552,5.50194 8.87961,4.89374 0.43929,-0.27149 0.7987,-2.21821 0.7987,-4.32603 v -3.8324 l 3.75,-1.474 c 2.0625,-0.81069 5.5052,-1.79265 7.65045,-2.18211 l 3.90045,-0.70813 -5.65045,6.24396 c -3.10776,3.43417 -5.65046,7.08138 -5.65046,8.10492 0,2.87519 2.82073,3.31524 5.44538,0.84951 1.49556,-1.405 2.5831,-1.81424 3.00541,-1.13093 0.36398,0.58893 -0.45232,2.1033 -1.814,3.36526 l -2.47578,2.29448 8.27236,2.86751 8.27236,2.86751 5.39714,-3.12499 c 2.96842,-1.71874 6.74713,-4.23106 8.39713,-5.58293 l 3,-2.45794 -1.14264,-1.16728 -1.14264,-1.16728 -2.35736,1.21263 c -1.29655,0.66695 -3.76543,2.54416 -5.48641,4.17158 -2.17341,2.05526 -4.46396,3.10657 -7.5,3.44235 l -4.37095,0.48341 2,-1.26214 c 1.1,-0.69418 5.70721,-3.33752 10.23823,-5.87411 l 8.23824,-4.61197 -1.18824,-1.18824 c -1.63729,-1.63729 -0.30727,-1.48186 7.0473,0.82356 10.13322,3.17645 18.96692,8.71545 27.55034,17.27489 4.33723,4.32512 7.59781,7.11317 7.24574,6.19568 -0.35208,-0.91749 -0.89875,-2.86386 -1.21483,-4.32526 l -0.5747,-2.6571 2.06748,2.5 c 3.13663,3.79281 6.37139,12.95487 6.35509,18 -0.009,2.77183 -1.21755,7.34407 -3.14708,11.9057 -2.00315,4.73568 -3.36016,9.96345 -3.76387,14.5 -0.34723,3.90186 -1.23487,8.29207 -1.97253,9.756 -1.71757,3.40862 -6.11188,6.87887 -7.86077,6.20776 l -1.35195,-0.5188 2.88106,-4.26891 c 1.58458,-2.3479 3.3634,-5.53757 3.95293,-7.08817 l 1.07188,-2.81926 -1.06083,-1.06083 -1.06082,-1.06082 -3.86081,4.22366 -3.86081,4.22367 -7.36553,0.0239 c -16.76771,0.0543 -21.24049,3.78736 -11.05737,9.22864 2.58052,1.37888 6.49185,3.08202 8.69185,3.78475 3.72188,1.18885 6.39328,3.36612 6.4682,5.27177 0.0175,0.44496 -0.43791,0.51872 -1.012,0.16391 -0.5741,-0.35481 -1.648,-0.14368 -2.38646,0.46919 l -1.34264,1.11429 -4.56558,-3.48498 z m 6.33848,0.98759 c 0,-0.24254 -0.45,-0.7191 -1,-1.05902 -0.55,-0.33992 -1,-0.14148 -1,0.44098 0,0.58246 0.45,1.05902 1,1.05902 0.55,0 1,-0.19844 1,-0.44098 z m -10,-63.05902 c -0.69443,-0.83674 -0.80272,-1.5 -0.24489,-1.5 0.55,0 1.5602,0.675 2.24489,1.5 1.58694,1.91214 5,1.95243 5,0.059 0,-0.79254 -0.45,-1.7191 -1,-2.05902 -0.55,-0.33992 -1,-1.11122 -1,-1.714 0,-0.60279 0.82293,-0.35123 1.82874,0.55901 3.82874,3.46496 6.91952,1.24428 3.51072,-2.5224 -2.56745,-2.83701 -1.09358,-3.03428 2.1091,-0.2823 1.57439,1.35283 3.58003,2.45847 4.45698,2.45699 2.35446,-0.004 -6.39472,-7.3439 -13.04552,-10.94419 -3.10199,-1.67921 -6.47699,-3.04268 -7.5,-3.02993 l -1.86002,0.0232 4.80742,4.58607 c 2.64408,2.52234 4.6196,4.77388 4.39004,5.00344 -0.22955,0.22955 -2.77561,-1.16961 -5.6579,-3.10925 -9.16566,-6.16803 -9.1283,-3.85986 0.0508,3.14022 4.77537,3.64175 7.15675,7.18966 2.65963,3.96248 -4.84941,-3.48 -12.40032,-5.91854 -11.58333,-3.7408 0.44134,1.17644 10.08787,8.96468 11.20577,9.04713 0.47985,0.0354 0.31225,-0.61065 -0.37244,-1.43565 z m 16.10453,62.05594 -2.19018,-1.17214 2.43387,-1.30257 c 1.55541,-0.83243 3.01153,-0.97929 4.03435,-0.40688 l 1.60049,0.89567 -1.84418,1.57904 -1.84417,1.57903 z m 8.3911,-1.563 c -0.34231,-0.55389 0.057,-1.26776 0.8873,-1.58639 0.83034,-0.31863 2.95401,-4.91462 4.71926,-10.2133 1.76526,-5.29869 4.43007,-11.67231 5.92179,-14.16361 1.49172,-2.4913 4.62719,-7.65056 6.96771,-11.46501 4.25543,-6.93525 8.00831,-17.62524 8.00831,-22.81145 0,-1.51425 0.51242,-2.75318 1.13871,-2.75318 h 1.1387 l -0.51425,9.01915 -0.51425,9.01916 1.27743,-1.06017 c 1.51398,-1.25649 2.12982,-3.49271 3.36624,-12.22341 0.59693,-4.21511 1.87369,-7.95553 3.61238,-10.58286 l 2.68913,-4.06356 -0.66867,-3.95783 c -1.05446,-6.24131 -5.96135,-11.00476 -17.61274,-17.09789 -9.71005,-5.0779 -15.91268,-9.8156 -15.91268,-12.15446 0,-1.29044 2.53391,-0.50684 10.41025,3.21933 3.34936,1.58453 6.90192,2.88132 7.89456,2.88175 2.89032,10e-4 15.36345,5.65239 19.21148,8.70403 4.57007,3.62425 7.79523,10.14063 6.90495,13.95132 -0.36563,1.56499 -1.95998,4.90984 -3.54301,7.43299 -1.58303,2.52315 -2.87823,4.88565 -2.87823,5.25 0,0.36435 1.6875,0.65805 3.75,0.65268 3.8487,-0.01 13.37192,-3.8856 16.49675,-6.71353 l 1.75325,-1.58668 v -7.22288 c 0,-4.15812 -0.63647,-8.74618 -1.5,-10.8129 -1.84998,-4.42762 -1.8554,-4.72785 -0.073,-4.04388 0.78484,0.30117 2.43338,2.64955 3.66341,5.21861 2.93586,6.13193 3.17729,16.02945 0.53402,21.89346 l -1.87557,4.1609 -3.85894,1.54404 c -2.12242,0.84922 -5.55341,1.81718 -7.62443,2.15103 l -3.76549,0.60698 -2.31866,5.28288 -2.31865,5.28289 0.70028,3.87442 c 0.38515,2.13094 1.12751,4.70047 1.64968,5.71008 1.26874,2.45311 0.43416,3.08088 -2.21265,1.66435 -1.19421,-0.63912 -2.40908,-0.92425 -2.69971,-0.63362 -0.88168,0.88168 3.55124,7.29608 7.34307,10.62534 1.96167,1.72237 3.33623,3.36202 3.05458,3.64367 -0.70101,0.70101 -6.04583,-2.14471 -7.64322,-4.06945 -0.71478,-0.86127 -1.80701,-1.54748 -2.42716,-1.52493 -0.62016,0.0226 0.84281,1.82256 3.25105,4 l 4.37861,3.95899 h -2.15095 c -1.18303,0 -4.1659,-1.85731 -6.62861,-4.12736 -4.88259,-4.50061 -5.70024,-4.44528 -2.29869,0.15555 2.97985,4.03047 1.69894,4.74321 -2.61329,1.45411 -1.96112,-1.49582 -3.56568,-2.18423 -3.56568,-1.52979 0,0.65444 -1.51563,-0.41715 -3.36808,-2.38131 l -3.36807,-3.5712 h -2.99707 c -1.64838,0 -4.12184,0.88475 -5.49656,1.96611 -2.79246,2.19654 -3.70668,4.20871 -6.83059,15.03389 -1.19039,4.125 -3.02293,9.1875 -4.07231,11.25 l -1.90797,3.75 h -2.42066 c -1.33136,0 -2.70074,-0.45318 -3.04306,-1.00706 z m 43.72566,-51.13259 3.44408,-6.63966 -2.90804,1.01375 c -3.61463,1.26007 -6.30711,6.43892 -5.34355,10.27804 0.82325,3.28012 0.56161,3.53331 4.80751,-4.65213 z m -24.97038,-6.61035 c -1.67485,-3.7125 -3.80829,-9.12953 -4.74098,-12.03784 -1.08811,-3.39295 -2.63022,-5.9001 -4.30338,-6.99639 l -2.60758,-1.70855 -6.96571,-0.004 c -3.83115,-0.002 -7.13554,-0.45361 -7.34311,-1.00361 -0.20756,-0.55 -1.37025,-3.025 -2.58377,-5.5 l -2.20638,-4.49961 -7.5,-2.56546 c -8.01178,-2.74051 -12.44126,-4.82662 -11.73919,-5.52869 0.23766,-0.23766 2.06175,0.2488 4.05353,1.08102 1.99178,0.83222 4.77533,1.51313 6.18566,1.51313 4.08399,0 8.75967,2.40177 14.36185,7.3773 l 5.20491,4.6227 h 2.96662 2.96662 v -2.06574 c 0,-2.49272 -1.49361,-5.46831 -4.64857,-9.26099 -3.41341,-4.10335 -2.89451,-4.99098 1.58249,-2.70698 4.91442,2.50715 7.06608,5.50808 7.06608,9.85509 0,1.857 0.6948,4.84055 1.54401,6.63012 2.07273,4.36795 7.83866,10.5485 9.84086,10.5485 h 1.61513 v -3.37788 c 0,-4.24611 -2.14498,-9.42735 -6.55984,-15.84543 -3.26677,-4.74905 -4.12858,-6.77669 -2.8803,-6.77669 1.20665,0 11.7133,10.62755 13.03669,13.18671 1.95471,3.78 1.75305,7.8329 -0.67074,13.48038 l -2.0742,4.83291 0.67569,6.75 c 0.40902,4.08609 0.2994,6.75 -0.27777,6.75 -0.5244,0 -2.32378,-3.0375 -3.99862,-6.75 z M 155.47059,246.0255 c 0,-1.99247 7.99559,-11.9504 14.2389,-17.73351 l 7.05129,-6.53154 0.68324,-8.60244 c 0.80942,-10.19101 2.06344,-12.51793 10.52657,-19.53272 3.3,-2.73525 6.62301,-5.72863 7.38446,-6.65195 l 1.38446,-1.67877 -2.63446,-5.0778 c -6.30922,-12.16075 -0.2527,-24.95878 11.89838,-25.14248 l 4.81963,-0.0729 3.30889,3.91105 c 4.43967,5.24762 4.18753,5.99284 -0.99922,2.9532 -5.01673,-2.93999 -7.57804,-3.15412 -11.77399,-0.98431 -4.00376,2.07043 -3.5151,4.83211 0.93074,5.26005 4.37553,0.42117 3.6259,2.06643 -1.86306,4.089 -3.1136,1.1473 -4.54805,2.2815 -4.76198,3.76523 -0.3922,2.72014 2.34468,9.32788 3.86353,9.32788 1.09213,0 0.91541,-1.90588 -0.67226,-7.25 -0.70194,-2.36275 1.32223,-2.24742 2.07302,0.11812 0.32611,1.02746 1.48143,2.6722 2.56739,3.65498 l 1.97447,1.78688 v -1.84054 c 0,-1.0123 -0.98476,-2.88877 -2.18835,-4.16993 l -2.18836,-2.3294 3.68836,-3.77722 c 4.4888,-4.59695 4.62202,-6.05616 0.62585,-6.85539 -3.83504,-0.76701 -2.38,-2.63085 1.69068,-2.16568 l 2.87182,0.32822 -0.025,3.5 c -0.0138,1.925 -0.36254,4.74825 -0.77505,6.27389 l -0.75002,2.77388 3.77504,-1.6447 c 2.07628,-0.90459 5.12505,-1.76987 6.77505,-1.92284 1.65,-0.15297 4.0125,-0.60108 5.25,-0.99581 3.08164,-0.98295 2.87986,0.7791 -0.52571,4.59058 l -2.7757,3.10656 -3.77817,-1.80168 -3.77817,-1.80169 -1.69612,1.06989 c -0.93287,0.58844 -1.69613,1.91926 -1.69613,2.95737 v 1.88748 l 4,-0.33966 c 5.64412,-0.47926 3.56507,0.99431 -4.71897,3.34467 -6.65918,1.88935 -9.20959,4.37443 -3.78103,3.68418 l 2.5,-0.31788 -1.29987,1.31788 c -0.71492,0.72483 -5.40368,3.11788 -10.41946,5.31788 -5.01578,2.2 -9.31238,4.58213 -9.54801,5.29362 l -0.4284,1.29361 2.84787,-0.68551 c 1.56633,-0.37704 4.57898,-1.55306 6.69478,-2.61338 2.11579,-1.06032 4.14079,-1.63319 4.5,-1.27303 1.25654,1.25989 -4.81507,5.33352 -10.34592,6.94138 -7.36585,2.14131 -9.51956,4.37721 -9.43331,9.79331 l 0.0677,4.25 0.89319,-2 c 0.49125,-1.1 1.56284,-3.6875 2.38129,-5.75 0.81846,-2.0625 1.90804,-3.75 2.4213,-3.75 0.51325,0 0.33096,1.6875 -0.40509,3.75 -1.60059,4.48507 -1.70281,6.26403 -0.47179,8.21024 l 0.92364,1.46023 2.06718,-1.87077 c 1.13695,-1.02892 2.3254,-1.61256 2.641,-1.29696 0.89799,0.898 -6.34773,7.28626 -14.58608,12.85996 -7.5444,5.1042 -14.96513,11.35907 -15.04064,12.67761 -0.0556,0.96979 -5.9594,7.81705 -5.9594,6.91166 z m 75.9624,-1.06094 c -2.49568,-0.6732 -7.67068,-2.9766 -11.5,-5.11868 l -6.9624,-3.89469 -7,-0.0638 c -3.85,-0.0351 -10.375,0.30669 -14.5,0.75955 l -7.5,0.82338 1.11499,-1.13836 c 1.49499,-1.52635 15.26054,-5.01882 15.87336,-4.02725 0.26612,0.43058 3.48962,1.10477 7.16334,1.49819 l 6.6795,0.71532 4.8165,3.31316 c 3.00538,2.06734 7.64341,3.97961 12.3344,5.08552 4.13485,0.97479 7.51791,2.14007 7.51791,2.5895 0,1.10269 -2.58774,0.92825 -8.0376,-0.54181 z m -5.9624,-8.50404 -5.5,-1.74082 2.5,-0.68443 c 1.375,-0.37644 4.81265,-0.69058 7.63922,-0.69809 3.44023,-0.009 5.80907,-0.59219 7.16544,-1.76365 l 2.02622,-1.75 0.39837,-6.25 0.39837,-6.25 h -1.30124 c -0.71568,0 -2.87069,3.11652 -4.78891,6.9256 -1.91822,3.80907 -3.98292,7.23167 -4.58822,7.60577 -1.6773,1.03663 -12.08231,-0.50705 -11.35458,-1.68456 0.40343,-0.65275 -2.22574,-0.8902 -7.48884,-0.67635 -4.46079,0.18125 -8.10947,0.24252 -8.10818,0.13615 0.0114,-0.93553 11.74972,-11.06 13.8212,-11.92094 1.47463,-0.61288 7.63115,-1.38395 13.68115,-1.7135 6.05,-0.32955 12.47617,-1.11439 14.28038,-1.74409 3.67048,-1.28106 6.21962,-5.27959 6.21962,-9.75598 0,-3.70414 1.47626,-4.91292 6.781,-5.55232 2.32796,-0.28061 4.67959,-0.7864 5.22583,-1.124 1.39906,-0.86467 1.23466,-4.37551 -0.47016,-10.04019 -1.67638,-5.57018 -1.35393,-6.50517 1.38774,-4.024 4.42977,4.00888 8.98421,20.67119 6.67258,24.41147 -1.103,1.7847 -5.74274,1.36545 -9.37116,-0.8468 -1.80079,-1.09794 -4.21578,-1.99626 -5.36663,-1.99626 h -2.09246 l 0.68041,2.25 c 0.37423,1.2375 0.93524,4.1625 1.24669,6.5 l 0.56626,4.25 h -1.57103 c -0.86407,0 -1.84915,-0.45 -2.18907,-1 -0.33992,-0.55 -1.95261,-1 -3.58377,-1 h -2.96573 l -0.97539,2.56547 c -1.12055,2.94727 -0.35209,4.81832 3.43307,8.35884 4.96804,4.64696 2.42864,9.07731 -4.34963,7.58855 -1.97154,-0.43302 -4.187,0.0222 -6.93769,1.42548 -4.74331,2.41986 -4.13732,2.40903 -11.12086,0.19865 z m 2.75,-9.11006 c 2.39083,-1.08524 4.25,-2.61981 4.25,-3.50798 v -1.57882 l -2.82247,2.08674 c -1.55236,1.14771 -4.58986,2.71643 -6.75,3.48604 l -3.92753,1.3993 2.5,0.0219 c 1.375,0.0121 4.4125,-0.84619 6.75,-1.90722 z m 77.34223,3.6223 c -2.73018,-4.41753 -8.51316,-9.63722 -14.71762,-13.28405 l -4.87461,-2.86518 -12.08653,0.25937 -12.08653,0.25938 -1.824,-2.01551 c -2.27596,-2.5149 -1.52054,-3.42401 1.64623,-1.98113 l 2.40762,1.09698 7.47161,-1.71118 c 4.10938,-0.94115 10.06646,-1.90829 13.23795,-2.14919 l 5.76636,-0.43801 5.73364,5.86915 c 3.17986,3.255 7.25041,8.86752 9.13901,12.60095 3.62726,7.1705 3.75418,10.13045 0.18687,4.35842 z m -82.35798,-16.24831 c -0.3416,-0.3416 1.60345,-3.52345 4.32233,-7.07077 2.71888,-3.54733 4.94342,-7.06565 4.94342,-7.81849 0,-1.84209 -2.22534,-3.94831 -7.017,-6.64137 -2.19065,-1.23121 -3.983,-2.60571 -3.983,-3.05443 0,-1.58485 3.38013,-0.772 13.24086,3.18414 5.48353,2.2 10.7101,3.99832 11.6146,3.99626 0.9045,-0.002 3.15779,-0.9263 5.00732,-2.05389 1.84953,-1.12758 3.57832,-1.8346 3.84176,-1.57117 0.7449,0.7449 -6.8645,5.42417 -10.10555,6.21424 -1.59556,0.38895 -6.09556,3.73131 -10,7.42747 -6.77769,6.41613 -10.51157,8.74117 -11.86474,7.38801 z m 68.80913,-11.76663 c -3.36533,-3.36533 -6.54338,-10.01658 -6.54338,-13.69445 v -3.13984 l 3.31963,-3.31963 c 2.18283,-2.18283 5.35047,-3.8991 9.25,-5.01176 8.38566,-2.3927 15.327,-6.36804 17.09751,-9.79182 1.88459,-3.64439 1.10037,-8.59834 -2.28378,-14.42679 -2.6376,-4.54268 -2.23655,-5.23633 1.51019,-2.61201 2.68656,1.88174 6.79241,10.54592 7.70649,16.26224 0.80345,5.02449 -1.03581,10.50805 -4.42243,13.18503 l -2.67761,2.11652 -7.68849,-0.66425 -7.68848,-0.66425 -2.40739,1.57738 c -3.18918,2.08964 -4.71564,5.67016 -4.71564,11.06121 v 4.41776 l 1.75,1.0183 c 0.9625,0.56006 2.64781,1.71866 3.74513,2.57467 l 1.99513,1.55637 -1.49513,0.9452 c -2.35607,1.48948 -3.90636,1.15551 -6.45175,-1.38988 z M 239.54389,194.227 c -1.33469,-0.53336 -4.59823,-2.52984 -7.25232,-4.43661 -2.65408,-1.90677 -5.45762,-3.46686 -6.23008,-3.46686 -0.77245,0 -4.45787,1.36997 -8.1898,3.04437 -3.73194,1.67441 -7.66314,2.91191 -8.73601,2.75 l -1.95067,-0.29437 4.89279,-3.16954 c 2.69103,-1.74324 6.21448,-4.55574 7.82988,-6.25 1.82039,-1.90925 3.93311,-3.08046 5.55678,-3.08046 h 2.61969 l 5.2317,5.43199 c 3.14444,3.26481 7.0117,6.11177 9.69322,7.13586 2.45384,0.93712 4.46152,2.09273 4.46152,2.56801 0,1.13724 -4.85558,0.99489 -7.9267,-0.23239 z m -21.43493,-27.40347 c 0.31659,-0.825 0.96334,-1.5 1.43723,-1.5 0.4739,0 0.60261,0.675 0.28603,1.5 -0.31659,0.825 -0.96334,1.5 -1.43723,1.5 -0.4739,0 -0.60261,-0.675 -0.28603,-1.5 z m 8.44934,-2.86073 c 0.84964,-0.93684 15.17205,-5.71284 15.66213,-5.22276 0.22671,0.22671 -0.0901,1.35074 -0.704,2.49784 l -1.11621,2.08565 h -3.83981 c -2.1119,0 -5.35857,0.28964 -7.21482,0.64364 -1.85625,0.354 -3.11053,0.35203 -2.78729,-0.004 z m 29.41229,-6.63927 c -0.36155,-0.585 0.67595,-1 2.5,-1 1.82405,0 2.86155,0.415 2.5,1 -0.33992,0.55 -1.46492,1 -2.5,1 -1.03508,0 -2.16008,-0.45 -2.5,-1 z"
       id="path371" />
  </g>
</svg>
