solid CATIA STL
  facet normal  9.622619e-001 -2.721248e-001  0.000000e+000
    outer loop
      vertex  5.704287e+000 -3.116266e+000  4.000000e+000
      vertex  5.704287e+000 -3.116266e+000  9.027944e-001
      vertex  6.491482e+000 -3.326614e-001  4.000000e+000
    endloop
  endfacet
  facet normal  9.098090e-001 -3.958922e-001  1.245672e-001
    outer loop
      vertex  6.491482e+000 -3.326614e-001  4.000000e+000
      vertex  5.704287e+000 -3.116266e+000  9.027944e-001
      vertex  6.191993e+000 -1.977177e+000  9.608924e-001
    endloop
  endfacet
  facet normal  9.926256e-001 -1.160517e-001 -3.502069e-002
    outer loop
      vertex  6.491482e+000 -3.326614e-001  4.000000e+000
      vertex  6.191993e+000 -1.977177e+000  9.608924e-001
      vertex  6.481595e+000  4.887992e-001  9.976107e-001
    endloop
  endfacet
  facet normal  9.840904e-001  1.721679e-001  4.386496e-002
    outer loop
      vertex  6.491482e+000 -3.326614e-001  4.000000e+000
      vertex  6.481595e+000  4.887992e-001  9.976107e-001
      vertex  5.992959e+000  2.516831e+000  4.000000e+000
    endloop
  endfacet
  facet normal  9.789198e-001  2.030380e-001  2.217151e-002
    outer loop
      vertex  5.992959e+000  2.516831e+000  4.000000e+000
      vertex  6.481595e+000  4.887992e-001  9.976107e-001
      vertex  6.143745e+000  2.122355e+000  9.549317e-001
    endloop
  endfacet
  facet normal  8.957595e-001  4.443427e-001 -1.320642e-002
    outer loop
      vertex  5.992959e+000  2.516831e+000  4.000000e+000
      vertex  6.143745e+000  2.122355e+000  9.549317e-001
      vertex  5.402157e+000  3.614789e+000  8.691618e-001
    endloop
  endfacet
  facet normal  8.116626e-001  5.819042e-001  5.090465e-002
    outer loop
      vertex  5.992959e+000  2.516831e+000  4.000000e+000
      vertex  5.402157e+000  3.614789e+000  8.691618e-001
      vertex  4.307458e+000  4.867834e+000  4.000000e+000
    endloop
  endfacet
  facet normal  7.530268e-001  6.579899e-001 -4.891812e-005
    outer loop
      vertex  4.307458e+000  4.867834e+000  4.000000e+000
      vertex  5.402157e+000  3.614789e+000  8.691618e-001
      vertex  4.306531e+000  4.868654e+000  7.623976e-001
    endloop
  endfacet
  facet normal  4.794254e-001  8.775826e-001  8.504577e-005
    outer loop
      vertex  4.307458e+000  4.867834e+000  4.000000e+000
      vertex  4.306531e+000  4.868654e+000  7.623976e-001
      vertex  1.768811e+000  6.254703e+000  4.000000e+000
    endloop
  endfacet
  facet normal  5.552477e-001  8.277457e-001  8.085224e-002
    outer loop
      vertex  1.768811e+000  6.254703e+000  4.000000e+000
      vertex  4.306531e+000  4.868654e+000  7.623976e-001
      vertex  2.927948e+000  5.803199e+000  6.620870e-001
    endloop
  endfacet
  facet normal  3.336188e-001  9.426361e-001 -1.165217e-002
    outer loop
      vertex  1.768811e+000  6.254703e+000  4.000000e+000
      vertex  2.927948e+000  5.803199e+000  6.620870e-001
      vertex  1.368355e+000  6.354337e+000  5.945853e-001
    endloop
  endfacet
  facet normal  5.116496e-002  9.984208e-001  2.319482e-002
    outer loop
      vertex  1.768811e+000  6.254703e+000  4.000000e+000
      vertex  1.368355e+000  6.354337e+000  5.945853e-001
      vertex -1.120170e+000  6.402751e+000  4.000000e+000
    endloop
  endfacet
  facet normal  8.371685e-002  9.953794e-001  4.702552e-002
    outer loop
      vertex -1.120170e+000  6.402751e+000  4.000000e+000
      vertex  1.368355e+000  6.354337e+000  5.945853e-001
      vertex -2.810925e-001  6.493919e+000  5.764966e-001
    endloop
  endfacet
  facet normal -1.710326e-001  9.851405e-001 -1.568448e-002
    outer loop
      vertex -1.120170e+000  6.402751e+000  4.000000e+000
      vertex -2.810925e-001  6.493919e+000  5.764966e-001
      vertex -1.919970e+000  6.209969e+000  6.128685e-001
    endloop
  endfacet
  facet normal -3.869113e-001  9.212950e-001  3.892457e-002
    outer loop
      vertex -1.120170e+000  6.402751e+000  4.000000e+000
      vertex -1.919970e+000  6.209969e+000  6.128685e-001
      vertex -3.787287e+000  5.282656e+000  4.000000e+000
    endloop
  endfacet
  facet normal -4.140587e-001  9.100109e-001  2.086900e-002
    outer loop
      vertex -3.787287e+000  5.282656e+000  4.000000e+000
      vertex -1.919970e+000  6.209969e+000  6.128685e-001
      vertex -3.431807e+000  5.520208e+000  6.943387e-001
    endloop
  endfacet
  facet normal -6.331189e-001  7.739542e-001 -1.246539e-002
    outer loop
      vertex -3.787287e+000  5.282656e+000  4.000000e+000
      vertex -3.431807e+000  5.520208e+000  6.943387e-001
      vertex -4.723467e+000  4.465295e+000  8.002117e-001
    endloop
  endfacet
  facet normal -8.088195e-001  5.880570e-001  0.000000e+000
    outer loop
      vertex -5.704287e+000  3.116266e+000  9.027944e-001
      vertex -5.704287e+000  3.116266e+000  4.000000e+000
      vertex -4.723467e+000  4.465295e+000  8.002117e-001
    endloop
  endfacet
  facet normal -7.479694e-001  6.618646e-001  4.976942e-002
    outer loop
      vertex -4.723467e+000  4.465295e+000  8.002117e-001
      vertex -5.704287e+000  3.116266e+000  4.000000e+000
      vertex -3.787287e+000  5.282656e+000  4.000000e+000
    endloop
  endfacet
  facet normal -9.622619e-001  2.721248e-001  0.000000e+000
    outer loop
      vertex -5.704287e+000  3.116266e+000  4.000000e+000
      vertex -5.704287e+000  3.116266e+000  9.027944e-001
      vertex -6.491482e+000  3.326614e-001  4.000000e+000
    endloop
  endfacet
  facet normal -9.098090e-001  3.958922e-001  1.245672e-001
    outer loop
      vertex -6.491482e+000  3.326614e-001  4.000000e+000
      vertex -5.704287e+000  3.116266e+000  9.027944e-001
      vertex -6.191993e+000  1.977177e+000  9.608924e-001
    endloop
  endfacet
  facet normal -9.926256e-001  1.160517e-001 -3.502069e-002
    outer loop
      vertex -6.491482e+000  3.326614e-001  4.000000e+000
      vertex -6.191993e+000  1.977177e+000  9.608924e-001
      vertex -6.481595e+000 -4.887992e-001  9.976107e-001
    endloop
  endfacet
  facet normal -9.840904e-001 -1.721679e-001  4.386496e-002
    outer loop
      vertex -6.491482e+000  3.326614e-001  4.000000e+000
      vertex -6.481595e+000 -4.887992e-001  9.976107e-001
      vertex -5.992959e+000 -2.516831e+000  4.000000e+000
    endloop
  endfacet
  facet normal -9.789198e-001 -2.030380e-001  2.217151e-002
    outer loop
      vertex -5.992959e+000 -2.516831e+000  4.000000e+000
      vertex -6.481595e+000 -4.887992e-001  9.976107e-001
      vertex -6.143745e+000 -2.122355e+000  9.549317e-001
    endloop
  endfacet
  facet normal -8.957595e-001 -4.443427e-001 -1.320642e-002
    outer loop
      vertex -5.992959e+000 -2.516831e+000  4.000000e+000
      vertex -6.143745e+000 -2.122355e+000  9.549317e-001
      vertex -5.402157e+000 -3.614789e+000  8.691618e-001
    endloop
  endfacet
  facet normal -8.116626e-001 -5.819042e-001  5.090465e-002
    outer loop
      vertex -5.992959e+000 -2.516831e+000  4.000000e+000
      vertex -5.402157e+000 -3.614789e+000  8.691618e-001
      vertex -4.307458e+000 -4.867834e+000  4.000000e+000
    endloop
  endfacet
  facet normal -7.530268e-001 -6.579899e-001 -4.891812e-005
    outer loop
      vertex -4.307458e+000 -4.867834e+000  4.000000e+000
      vertex -5.402157e+000 -3.614789e+000  8.691618e-001
      vertex -4.306531e+000 -4.868654e+000  7.623976e-001
    endloop
  endfacet
  facet normal -4.794254e-001 -8.775826e-001  8.504577e-005
    outer loop
      vertex -4.307458e+000 -4.867834e+000  4.000000e+000
      vertex -4.306531e+000 -4.868654e+000  7.623976e-001
      vertex -1.768811e+000 -6.254703e+000  4.000000e+000
    endloop
  endfacet
  facet normal -5.552477e-001 -8.277457e-001  8.085224e-002
    outer loop
      vertex -1.768811e+000 -6.254703e+000  4.000000e+000
      vertex -4.306531e+000 -4.868654e+000  7.623976e-001
      vertex -2.927948e+000 -5.803199e+000  6.620870e-001
    endloop
  endfacet
  facet normal -3.336188e-001 -9.426361e-001 -1.165217e-002
    outer loop
      vertex -1.768811e+000 -6.254703e+000  4.000000e+000
      vertex -2.927948e+000 -5.803199e+000  6.620870e-001
      vertex -1.368355e+000 -6.354337e+000  5.945853e-001
    endloop
  endfacet
  facet normal -5.116496e-002 -9.984208e-001  2.319482e-002
    outer loop
      vertex -1.768811e+000 -6.254703e+000  4.000000e+000
      vertex -1.368355e+000 -6.354337e+000  5.945853e-001
      vertex  1.120170e+000 -6.402751e+000  4.000000e+000
    endloop
  endfacet
  facet normal -8.371685e-002 -9.953794e-001  4.702552e-002
    outer loop
      vertex  1.120170e+000 -6.402751e+000  4.000000e+000
      vertex -1.368355e+000 -6.354337e+000  5.945853e-001
      vertex  2.810925e-001 -6.493919e+000  5.764966e-001
    endloop
  endfacet
  facet normal  1.710326e-001 -9.851405e-001 -1.568448e-002
    outer loop
      vertex  1.120170e+000 -6.402751e+000  4.000000e+000
      vertex  2.810925e-001 -6.493919e+000  5.764966e-001
      vertex  1.919970e+000 -6.209969e+000  6.128685e-001
    endloop
  endfacet
  facet normal  3.869113e-001 -9.212950e-001  3.892457e-002
    outer loop
      vertex  1.120170e+000 -6.402751e+000  4.000000e+000
      vertex  1.919970e+000 -6.209969e+000  6.128685e-001
      vertex  3.787287e+000 -5.282656e+000  4.000000e+000
    endloop
  endfacet
  facet normal  4.140587e-001 -9.100109e-001  2.086900e-002
    outer loop
      vertex  3.787287e+000 -5.282656e+000  4.000000e+000
      vertex  1.919970e+000 -6.209969e+000  6.128685e-001
      vertex  3.431807e+000 -5.520208e+000  6.943387e-001
    endloop
  endfacet
  facet normal  6.331189e-001 -7.739542e-001 -1.246539e-002
    outer loop
      vertex  3.787287e+000 -5.282656e+000  4.000000e+000
      vertex  3.431807e+000 -5.520208e+000  6.943387e-001
      vertex  4.723467e+000 -4.465295e+000  8.002117e-001
    endloop
  endfacet
  facet normal  8.088195e-001 -5.880570e-001  0.000000e+000
    outer loop
      vertex  5.704287e+000 -3.116266e+000  9.027944e-001
      vertex  5.704287e+000 -3.116266e+000  4.000000e+000
      vertex  4.723467e+000 -4.465295e+000  8.002117e-001
    endloop
  endfacet
  facet normal  7.479694e-001 -6.618646e-001  4.976942e-002
    outer loop
      vertex  4.723467e+000 -4.465295e+000  8.002117e-001
      vertex  5.704287e+000 -3.116266e+000  4.000000e+000
      vertex  3.787287e+000 -5.282656e+000  4.000000e+000
    endloop
  endfacet
  facet normal  0.000000e+000  9.965969e-001 -8.243034e-002
    outer loop
      vertex  1.236068e+000 -3.804226e+000  3.000000e+000
      vertex  3.706419e-001 -3.982791e+000  8.411213e-001
      vertex -1.236068e+000 -3.804226e+000  3.000000e+000
    endloop
  endfacet
  facet normal -3.335132e-001  9.410892e-001  5.585570e-002
    outer loop
      vertex  2.210922e+000 -3.333440e+000  8.887580e-001
      vertex  3.706419e-001 -3.982791e+000  8.411213e-001
      vertex  1.236068e+000 -3.804226e+000  3.000000e+000
    endloop
  endfacet
  facet normal -5.853664e-001  8.056877e-001 -9.062929e-002
    outer loop
      vertex  3.236068e+000 -2.351141e+000  3.000000e+000
      vertex  2.210922e+000 -3.333440e+000  8.887580e-001
      vertex  1.236068e+000 -3.804226e+000  3.000000e+000
    endloop
  endfacet
  facet normal  9.079151e-001  4.185899e-001  2.174264e-002
    outer loop
      vertex -3.112019e+000 -2.513033e+000  9.368067e-001
      vertex -3.931026e+000 -7.396190e-001  9.945294e-001
      vertex -3.236068e+000 -2.351141e+000  3.000000e+000
    endloop
  endfacet
  facet normal  9.613754e-001  9.157436e-002 -2.595606e-001
    outer loop
      vertex -3.236068e+000 -2.351141e+000  3.000000e+000
      vertex -3.931026e+000 -7.396190e-001  9.945294e-001
      vertex -4.000000e+000 -4.898425e-016  1.000000e+000
    endloop
  endfacet
  facet normal  9.510565e-001  3.090170e-001  -0.000000e+000
    outer loop
      vertex -3.236068e+000 -2.351141e+000  3.000000e+000
      vertex -4.000000e+000 -4.898425e-016  1.000000e+000
      vertex -4.000000e+000 -4.898425e-016  3.000000e+000
    endloop
  endfacet
  facet normal  1.527522e-001  9.877468e-001  3.198498e-002
    outer loop
      vertex  3.706419e-001 -3.982791e+000  8.411213e-001
      vertex -1.553644e+000 -3.685945e+000  8.639530e-001
      vertex -1.236068e+000 -3.804226e+000  3.000000e+000
    endloop
  endfacet
  facet normal  5.994092e-001  7.991846e-001 -4.486290e-002
    outer loop
      vertex -1.236068e+000 -3.804226e+000  3.000000e+000
      vertex -1.553644e+000 -3.685945e+000  8.639530e-001
      vertex -3.112019e+000 -2.513033e+000  9.368067e-001
    endloop
  endfacet
  facet normal  5.875527e-001  8.086968e-001 -2.812947e-002
    outer loop
      vertex -1.236068e+000 -3.804226e+000  3.000000e+000
      vertex -3.112019e+000 -2.513033e+000  9.368067e-001
      vertex -3.236068e+000 -2.351141e+000  3.000000e+000
    endloop
  endfacet
  facet normal -7.398319e-001  6.711501e-001  4.697015e-002
    outer loop
      vertex  2.210922e+000 -3.333440e+000  8.887580e-001
      vertex  3.236068e+000 -2.351141e+000  3.000000e+000
      vertex  3.525563e+000 -1.889552e+000  9.642832e-001
    endloop
  endfacet
  facet normal -9.490427e-001  3.083626e-001 -6.504146e-002
    outer loop
      vertex  3.525563e+000 -1.889552e+000  9.642832e-001
      vertex  3.236068e+000 -2.351141e+000  3.000000e+000
      vertex  4.000000e+000  0.000000e+000  3.000000e+000
    endloop
  endfacet
  facet normal -9.698945e-001  2.435255e-001  0.000000e+000
    outer loop
      vertex  3.525563e+000 -1.889552e+000  9.642832e-001
      vertex  4.000000e+000  0.000000e+000  3.000000e+000
      vertex  4.000000e+000  0.000000e+000  1.000000e+000
    endloop
  endfacet
  facet normal  0.000000e+000 -9.965969e-001 -8.243034e-002
    outer loop
      vertex -1.236068e+000  3.804226e+000  3.000000e+000
      vertex -3.706419e-001  3.982791e+000  8.411213e-001
      vertex  1.236068e+000  3.804226e+000  3.000000e+000
    endloop
  endfacet
  facet normal  3.335132e-001 -9.410892e-001  5.585570e-002
    outer loop
      vertex -2.210922e+000  3.333440e+000  8.887580e-001
      vertex -3.706419e-001  3.982791e+000  8.411213e-001
      vertex -1.236068e+000  3.804226e+000  3.000000e+000
    endloop
  endfacet
  facet normal  5.853664e-001 -8.056877e-001 -9.062929e-002
    outer loop
      vertex -3.236068e+000  2.351141e+000  3.000000e+000
      vertex -2.210922e+000  3.333440e+000  8.887580e-001
      vertex -1.236068e+000  3.804226e+000  3.000000e+000
    endloop
  endfacet
  facet normal -9.079151e-001 -4.185899e-001  2.174264e-002
    outer loop
      vertex  3.112019e+000  2.513033e+000  9.368067e-001
      vertex  3.931026e+000  7.396190e-001  9.945294e-001
      vertex  3.236068e+000  2.351141e+000  3.000000e+000
    endloop
  endfacet
  facet normal -9.613754e-001 -9.157436e-002 -2.595606e-001
    outer loop
      vertex  3.236068e+000  2.351141e+000  3.000000e+000
      vertex  3.931026e+000  7.396190e-001  9.945294e-001
      vertex  4.000000e+000  0.000000e+000  1.000000e+000
    endloop
  endfacet
  facet normal -9.510565e-001 -3.090170e-001  0.000000e+000
    outer loop
      vertex  3.236068e+000  2.351141e+000  3.000000e+000
      vertex  4.000000e+000  0.000000e+000  1.000000e+000
      vertex  4.000000e+000  0.000000e+000  3.000000e+000
    endloop
  endfacet
  facet normal -1.527522e-001 -9.877468e-001  3.198498e-002
    outer loop
      vertex -3.706419e-001  3.982791e+000  8.411213e-001
      vertex  1.553644e+000  3.685945e+000  8.639530e-001
      vertex  1.236068e+000  3.804226e+000  3.000000e+000
    endloop
  endfacet
  facet normal -5.994092e-001 -7.991846e-001 -4.486290e-002
    outer loop
      vertex  1.236068e+000  3.804226e+000  3.000000e+000
      vertex  1.553644e+000  3.685945e+000  8.639530e-001
      vertex  3.112019e+000  2.513033e+000  9.368067e-001
    endloop
  endfacet
  facet normal -5.875527e-001 -8.086968e-001 -2.812947e-002
    outer loop
      vertex  1.236068e+000  3.804226e+000  3.000000e+000
      vertex  3.112019e+000  2.513033e+000  9.368067e-001
      vertex  3.236068e+000  2.351141e+000  3.000000e+000
    endloop
  endfacet
  facet normal  7.398319e-001 -6.711501e-001  4.697015e-002
    outer loop
      vertex -2.210922e+000  3.333440e+000  8.887580e-001
      vertex -3.236068e+000  2.351141e+000  3.000000e+000
      vertex -3.525563e+000  1.889552e+000  9.642832e-001
    endloop
  endfacet
  facet normal  9.490427e-001 -3.083626e-001 -6.504146e-002
    outer loop
      vertex -3.525563e+000  1.889552e+000  9.642832e-001
      vertex -3.236068e+000  2.351141e+000  3.000000e+000
      vertex -4.000000e+000 -4.898425e-016  3.000000e+000
    endloop
  endfacet
  facet normal  9.698945e-001 -2.435255e-001  0.000000e+000
    outer loop
      vertex -3.525563e+000  1.889552e+000  9.642832e-001
      vertex -4.000000e+000 -4.898425e-016  3.000000e+000
      vertex -4.000000e+000 -4.898425e-016  1.000000e+000
    endloop
  endfacet
  facet normal -3.682175e-002  5.279666e-002 -9.979262e-001
    outer loop
      vertex -2.927948e+000 -5.803199e+000  6.620870e-001
      vertex -4.306531e+000 -4.868654e+000  7.623976e-001
      vertex -5.402157e+000 -3.614789e+000  8.691618e-001
    endloop
  endfacet
  facet normal -1.829159e-002 -7.764534e-002 -9.968132e-001
    outer loop
      vertex -3.431807e+000  5.520208e+000  6.943387e-001
      vertex -1.919970e+000  6.209969e+000  6.128685e-001
      vertex -4.723467e+000  4.465295e+000  8.002117e-001
    endloop
  endfacet
  facet normal -2.426007e-003  1.002701e-001 -9.949573e-001
    outer loop
      vertex -1.368355e+000 -6.354337e+000  5.945853e-001
      vertex -1.553644e+000 -3.685945e+000  8.639530e-001
      vertex  2.810925e-001 -6.493919e+000  5.764966e-001
    endloop
  endfacet
  facet normal  4.343288e-003  1.046463e-001 -9.945000e-001
    outer loop
      vertex  2.810925e-001 -6.493919e+000  5.764966e-001
      vertex -1.553644e+000 -3.685945e+000  8.639530e-001
      vertex  3.706419e-001 -3.982791e+000  8.411213e-001
    endloop
  endfacet
  facet normal  3.937684e-003  1.046608e-001 -9.945002e-001
    outer loop
      vertex  2.810925e-001 -6.493919e+000  5.764966e-001
      vertex  3.706419e-001 -3.982791e+000  8.411213e-001
      vertex  1.919970e+000 -6.209969e+000  6.128685e-001
    endloop
  endfacet
  facet normal  2.114466e-003  1.034065e-001 -9.946370e-001
    outer loop
      vertex  1.919970e+000 -6.209969e+000  6.128685e-001
      vertex  3.706419e-001 -3.982791e+000  8.411213e-001
      vertex  4.723467e+000 -4.465295e+000  8.002117e-001
    endloop
  endfacet
  facet normal  1.829159e-002  7.764534e-002 -9.968132e-001
    outer loop
      vertex  1.919970e+000 -6.209969e+000  6.128685e-001
      vertex  4.723467e+000 -4.465295e+000  8.002117e-001
      vertex  3.431807e+000 -5.520208e+000  6.943387e-001
    endloop
  endfacet
  facet normal  6.450287e-004 -1.906079e-002 -9.998181e-001
    outer loop
      vertex -3.525563e+000  1.889552e+000  9.642832e-001
      vertex -4.000000e+000 -4.898425e-016  1.000000e+000
      vertex -6.191993e+000  1.977177e+000  9.608924e-001
    endloop
  endfacet
  facet normal  2.675323e-002  9.888460e-003 -9.995931e-001
    outer loop
      vertex -6.191993e+000  1.977177e+000  9.608924e-001
      vertex -4.000000e+000 -4.898425e-016  1.000000e+000
      vertex -3.931026e+000 -7.396190e-001  9.945294e-001
    endloop
  endfacet
  facet normal -2.641550e-003 -1.457809e-002 -9.998902e-001
    outer loop
      vertex -6.191993e+000  1.977177e+000  9.608924e-001
      vertex -3.931026e+000 -7.396190e-001  9.945294e-001
      vertex -6.481595e+000 -4.887992e-001  9.976107e-001
    endloop
  endfacet
  facet normal  2.086356e-003  3.349410e-002 -9.994368e-001
    outer loop
      vertex -6.481595e+000 -4.887992e-001  9.976107e-001
      vertex -3.931026e+000 -7.396190e-001  9.945294e-001
      vertex -3.112019e+000 -2.513033e+000  9.368067e-001
    endloop
  endfacet
  facet normal -2.682354e-003  2.556302e-002 -9.996697e-001
    outer loop
      vertex -6.481595e+000 -4.887992e-001  9.976107e-001
      vertex -3.112019e+000 -2.513033e+000  9.368067e-001
      vertex -6.143745e+000 -2.122355e+000  9.549317e-001
    endloop
  endfacet
  facet normal  2.438944e-003  6.522156e-002 -9.978678e-001
    outer loop
      vertex -6.143745e+000 -2.122355e+000  9.549317e-001
      vertex -3.112019e+000 -2.513033e+000  9.368067e-001
      vertex -1.553644e+000 -3.685945e+000  8.639530e-001
    endloop
  endfacet
  facet normal -2.931108e-004  5.722998e-002 -9.983610e-001
    outer loop
      vertex -6.143745e+000 -2.122355e+000  9.549317e-001
      vertex -1.553644e+000 -3.685945e+000  8.639530e-001
      vertex -5.402157e+000 -3.614789e+000  8.691618e-001
    endloop
  endfacet
  facet normal  5.110380e-004  1.004722e-001 -9.949397e-001
    outer loop
      vertex -5.402157e+000 -3.614789e+000  8.691618e-001
      vertex -1.553644e+000 -3.685945e+000  8.639530e-001
      vertex -1.368355e+000 -6.354337e+000  5.945853e-001
    endloop
  endfacet
  facet normal -1.634290e-002  7.586087e-002 -9.969845e-001
    outer loop
      vertex -5.402157e+000 -3.614789e+000  8.691618e-001
      vertex -1.368355e+000 -6.354337e+000  5.945853e-001
      vertex -2.927948e+000 -5.803199e+000  6.620870e-001
    endloop
  endfacet
  facet normal  5.618284e-003 -9.852474e-002 -9.951187e-001
    outer loop
      vertex  4.306531e+000  4.868654e+000  7.623976e-001
      vertex  1.553644e+000  3.685945e+000  8.639530e-001
      vertex  2.927948e+000  5.803199e+000  6.620870e-001
    endloop
  endfacet
  facet normal  7.760264e-003 -9.990065e-002 -9.949672e-001
    outer loop
      vertex  2.927948e+000  5.803199e+000  6.620870e-001
      vertex  1.553644e+000  3.685945e+000  8.639530e-001
      vertex  1.368355e+000  6.354337e+000  5.945853e-001
    endloop
  endfacet
  facet normal -3.728521e-003 -1.006927e-001 -9.949105e-001
    outer loop
      vertex  1.553644e+000  3.685945e+000  8.639530e-001
      vertex -3.706419e-001  3.982791e+000  8.411213e-001
      vertex  1.368355e+000  6.354337e+000  5.945853e-001
    endloop
  endfacet
  facet normal  2.031387e-003 -1.048719e-001 -9.944837e-001
    outer loop
      vertex  1.368355e+000  6.354337e+000  5.945853e-001
      vertex -3.706419e-001  3.982791e+000  8.411213e-001
      vertex -2.810925e-001  6.493919e+000  5.764966e-001
    endloop
  endfacet
  facet normal -3.937684e-003 -1.046608e-001 -9.945002e-001
    outer loop
      vertex -3.706419e-001  3.982791e+000  8.411213e-001
      vertex -1.919970e+000  6.209969e+000  6.128685e-001
      vertex -2.810925e-001  6.493919e+000  5.764966e-001
    endloop
  endfacet
  facet normal -2.114466e-003 -1.034065e-001 -9.946370e-001
    outer loop
      vertex -1.919970e+000  6.209969e+000  6.128685e-001
      vertex -3.706419e-001  3.982791e+000  8.411213e-001
      vertex -4.723467e+000  4.465295e+000  8.002117e-001
    endloop
  endfacet
  facet normal  9.609614e-004 -7.587238e-002 -9.971171e-001
    outer loop
      vertex -4.723467e+000  4.465295e+000  8.002117e-001
      vertex -3.706419e-001  3.982791e+000  8.411213e-001
      vertex -2.210922e+000  3.333440e+000  8.887580e-001
    endloop
  endfacet
  facet normal  7.407408e-004 -7.635835e-002 -9.970802e-001
    outer loop
      vertex -4.723467e+000  4.465295e+000  8.002117e-001
      vertex -2.210922e+000  3.333440e+000  8.887580e-001
      vertex -5.704287e+000  3.116266e+000  9.027944e-001
    endloop
  endfacet
  facet normal -8.111107e-004 -5.149889e-002 -9.986727e-001
    outer loop
      vertex -5.704287e+000  3.116266e+000  9.027944e-001
      vertex -2.210922e+000  3.333440e+000  8.887580e-001
      vertex -3.525563e+000  1.889552e+000  9.642832e-001
    endloop
  endfacet
  facet normal -3.983317e-004 -5.076765e-002 -9.987103e-001
    outer loop
      vertex -5.704287e+000  3.116266e+000  9.027944e-001
      vertex -3.525563e+000  1.889552e+000  9.642832e-001
      vertex -6.191993e+000  1.977177e+000  9.608924e-001
    endloop
  endfacet
  facet normal  4.851601e-004 -7.351112e-003 -9.999729e-001
    outer loop
      vertex  3.931026e+000  7.396190e-001  9.945294e-001
      vertex  6.481595e+000  4.887992e-001  9.976107e-001
      vertex  4.000000e+000  0.000000e+000  1.000000e+000
    endloop
  endfacet
  facet normal -3.987430e-003  1.535635e-002 -9.998742e-001
    outer loop
      vertex  4.000000e+000  0.000000e+000  1.000000e+000
      vertex  6.481595e+000  4.887992e-001  9.976107e-001
      vertex  6.191993e+000 -1.977177e+000  9.608924e-001
    endloop
  endfacet
  facet normal -6.450287e-004  1.906079e-002 -9.998181e-001
    outer loop
      vertex  4.000000e+000  0.000000e+000  1.000000e+000
      vertex  6.191993e+000 -1.977177e+000  9.608924e-001
      vertex  3.525563e+000 -1.889552e+000  9.642832e-001
    endloop
  endfacet
  facet normal  3.983317e-004  5.076765e-002 -9.987103e-001
    outer loop
      vertex  3.525563e+000 -1.889552e+000  9.642832e-001
      vertex  6.191993e+000 -1.977177e+000  9.608924e-001
      vertex  5.704287e+000 -3.116266e+000  9.027944e-001
    endloop
  endfacet
  facet normal  8.111107e-004  5.149889e-002 -9.986727e-001
    outer loop
      vertex  3.525563e+000 -1.889552e+000  9.642832e-001
      vertex  5.704287e+000 -3.116266e+000  9.027944e-001
      vertex  2.210922e+000 -3.333440e+000  8.887580e-001
    endloop
  endfacet
  facet normal -7.407408e-004  7.635835e-002 -9.970802e-001
    outer loop
      vertex  2.210922e+000 -3.333440e+000  8.887580e-001
      vertex  5.704287e+000 -3.116266e+000  9.027944e-001
      vertex  4.723467e+000 -4.465295e+000  8.002117e-001
    endloop
  endfacet
  facet normal -9.609614e-004  7.587238e-002 -9.971171e-001
    outer loop
      vertex  2.210922e+000 -3.333440e+000  8.887580e-001
      vertex  4.723467e+000 -4.465295e+000  8.002117e-001
      vertex  3.706419e-001 -3.982791e+000  8.411213e-001
    endloop
  endfacet
  facet normal -2.236695e-004 -8.503508e-002 -9.963779e-001
    outer loop
      vertex  4.306531e+000  4.868654e+000  7.623976e-001
      vertex  5.402157e+000  3.614789e+000  8.691618e-001
      vertex  1.553644e+000  3.685945e+000  8.639530e-001
    endloop
  endfacet
  facet normal  2.931108e-004 -5.722998e-002 -9.983610e-001
    outer loop
      vertex  1.553644e+000  3.685945e+000  8.639530e-001
      vertex  5.402157e+000  3.614789e+000  8.691618e-001
      vertex  6.143745e+000  2.122355e+000  9.549317e-001
    endloop
  endfacet
  facet normal -2.438944e-003 -6.522156e-002 -9.978678e-001
    outer loop
      vertex  1.553644e+000  3.685945e+000  8.639530e-001
      vertex  6.143745e+000  2.122355e+000  9.549317e-001
      vertex  3.112019e+000  2.513033e+000  9.368067e-001
    endloop
  endfacet
  facet normal  2.682354e-003 -2.556302e-002 -9.996697e-001
    outer loop
      vertex  3.112019e+000  2.513033e+000  9.368067e-001
      vertex  6.143745e+000  2.122355e+000  9.549317e-001
      vertex  6.481595e+000  4.887992e-001  9.976107e-001
    endloop
  endfacet
  facet normal -2.086356e-003 -3.349410e-002 -9.994368e-001
    outer loop
      vertex  3.112019e+000  2.513033e+000  9.368067e-001
      vertex  6.481595e+000  4.887992e-001  9.976107e-001
      vertex  3.931026e+000  7.396190e-001  9.945294e-001
    endloop
  endfacet
  facet normal -3.826835e-001  9.238794e-001  0.000000e+000
    outer loop
      vertex  8.310857e-016 -2.150000e+000  3.000000e+000
      vertex  1.520280e+000 -1.520280e+000  1.000000e+001
      vertex  1.520280e+000 -1.520280e+000  3.000000e+000
    endloop
  endfacet
  facet normal -9.238794e-001  3.826835e-001  0.000000e+000
    outer loop
      vertex  1.520280e+000 -1.520280e+000  3.000000e+000
      vertex  1.520280e+000 -1.520280e+000  1.000000e+001
      vertex  2.150000e+000 -5.265807e-016  1.000000e+001
    endloop
  endfacet
  facet normal -9.238794e-001  3.826835e-001  2.878768e-017
    outer loop
      vertex  1.520280e+000 -1.520280e+000  3.000000e+000
      vertex  2.150000e+000 -5.265807e-016  1.000000e+001
      vertex  2.150000e+000  0.000000e+000  3.000000e+000
    endloop
  endfacet
  facet normal -3.826835e-001  9.238794e-001 -6.702545e-017
    outer loop
      vertex  1.520280e+000 -1.520280e+000  1.000000e+001
      vertex  8.310857e-016 -2.150000e+000  3.000000e+000
      vertex -3.949355e-016 -2.150000e+000  1.000000e+001
    endloop
  endfacet
  facet normal  3.826835e-001  9.238794e-001  6.702545e-017
    outer loop
      vertex -3.949355e-016 -2.150000e+000  1.000000e+001
      vertex  8.310857e-016 -2.150000e+000  3.000000e+000
      vertex -1.520280e+000 -1.520280e+000  3.000000e+000
    endloop
  endfacet
  facet normal  3.826835e-001  9.238794e-001  -0.000000e+000
    outer loop
      vertex -3.949355e-016 -2.150000e+000  1.000000e+001
      vertex -1.520280e+000 -1.520280e+000  3.000000e+000
      vertex -1.520280e+000 -1.520280e+000  1.000000e+001
    endloop
  endfacet
  facet normal  9.238794e-001  3.826835e-001  0.000000e+000
    outer loop
      vertex -1.520280e+000 -1.520280e+000  1.000000e+001
      vertex -1.520280e+000 -1.520280e+000  3.000000e+000
      vertex -2.150000e+000  2.632904e-016  3.000000e+000
    endloop
  endfacet
  facet normal  9.238794e-001  3.826835e-001  -0.000000e+000
    outer loop
      vertex -1.520280e+000 -1.520280e+000  1.000000e+001
      vertex -2.150000e+000  2.632904e-016  3.000000e+000
      vertex -2.150000e+000  2.632904e-016  1.000000e+001
    endloop
  endfacet
  facet normal  3.826835e-001 -9.238794e-001  0.000000e+000
    outer loop
      vertex -8.390248e-016  2.150000e+000  3.000000e+000
      vertex -1.520280e+000  1.520280e+000  1.000000e+001
      vertex -1.520280e+000  1.520280e+000  3.000000e+000
    endloop
  endfacet
  facet normal  9.238794e-001 -3.826835e-001  0.000000e+000
    outer loop
      vertex -1.520280e+000  1.520280e+000  3.000000e+000
      vertex -1.520280e+000  1.520280e+000  1.000000e+001
      vertex -2.150000e+000  2.632904e-016  1.000000e+001
    endloop
  endfacet
  facet normal  9.238794e-001 -3.826835e-001  0.000000e+000
    outer loop
      vertex -1.520280e+000  1.520280e+000  3.000000e+000
      vertex -2.150000e+000  2.632904e-016  1.000000e+001
      vertex -2.150000e+000  2.632904e-016  3.000000e+000
    endloop
  endfacet
  facet normal  3.826835e-001 -9.238794e-001 -5.306563e-017
    outer loop
      vertex -1.520280e+000  1.520280e+000  1.000000e+001
      vertex -8.390248e-016  2.150000e+000  3.000000e+000
      vertex  1.316452e-016  2.150000e+000  1.000000e+001
    endloop
  endfacet
  facet normal -3.826835e-001 -9.238794e-001  5.306563e-017
    outer loop
      vertex  1.316452e-016  2.150000e+000  1.000000e+001
      vertex -8.390248e-016  2.150000e+000  3.000000e+000
      vertex  1.520280e+000  1.520280e+000  3.000000e+000
    endloop
  endfacet
  facet normal -3.826835e-001 -9.238794e-001  0.000000e+000
    outer loop
      vertex  1.316452e-016  2.150000e+000  1.000000e+001
      vertex  1.520280e+000  1.520280e+000  3.000000e+000
      vertex  1.520280e+000  1.520280e+000  1.000000e+001
    endloop
  endfacet
  facet normal -9.238794e-001 -3.826835e-001  -0.000000e+000
    outer loop
      vertex  1.520280e+000  1.520280e+000  1.000000e+001
      vertex  1.520280e+000  1.520280e+000  3.000000e+000
      vertex  2.150000e+000  0.000000e+000  3.000000e+000
    endloop
  endfacet
  facet normal -9.238794e-001 -3.826835e-001 -2.878768e-017
    outer loop
      vertex  1.520280e+000  1.520280e+000  1.000000e+001
      vertex  2.150000e+000  0.000000e+000  3.000000e+000
      vertex  2.150000e+000 -5.265807e-016  1.000000e+001
    endloop
  endfacet
  facet normal  -0.000000e+000  0.000000e+000 -1.000000e+000
    outer loop
      vertex -1.236068e+000  3.804226e+000  3.000000e+000
      vertex  1.236068e+000  3.804226e+000  3.000000e+000
      vertex -8.390248e-016  2.150000e+000  3.000000e+000
    endloop
  endfacet
  facet normal  0.000000e+000  0.000000e+000 -1.000000e+000
    outer loop
      vertex -8.390248e-016  2.150000e+000  3.000000e+000
      vertex  1.236068e+000  3.804226e+000  3.000000e+000
      vertex  3.236068e+000  2.351141e+000  3.000000e+000
    endloop
  endfacet
  facet normal  0.000000e+000  0.000000e+000 -1.000000e+000
    outer loop
      vertex -8.390248e-016  2.150000e+000  3.000000e+000
      vertex  3.236068e+000  2.351141e+000  3.000000e+000
      vertex  1.520280e+000  1.520280e+000  3.000000e+000
    endloop
  endfacet
  facet normal  0.000000e+000  0.000000e+000 -1.000000e+000
    outer loop
      vertex  1.236068e+000 -3.804226e+000  3.000000e+000
      vertex -1.236068e+000 -3.804226e+000  3.000000e+000
      vertex  8.310857e-016 -2.150000e+000  3.000000e+000
    endloop
  endfacet
  facet normal  0.000000e+000  0.000000e+000 -1.000000e+000
    outer loop
      vertex  8.310857e-016 -2.150000e+000  3.000000e+000
      vertex -1.236068e+000 -3.804226e+000  3.000000e+000
      vertex -3.236068e+000 -2.351141e+000  3.000000e+000
    endloop
  endfacet
  facet normal  0.000000e+000  0.000000e+000 -1.000000e+000
    outer loop
      vertex  8.310857e-016 -2.150000e+000  3.000000e+000
      vertex -3.236068e+000 -2.351141e+000  3.000000e+000
      vertex -1.520280e+000 -1.520280e+000  3.000000e+000
    endloop
  endfacet
  facet normal  0.000000e+000  0.000000e+000 -1.000000e+000
    outer loop
      vertex -1.236068e+000  3.804226e+000  3.000000e+000
      vertex -8.390248e-016  2.150000e+000  3.000000e+000
      vertex -3.236068e+000  2.351141e+000  3.000000e+000
    endloop
  endfacet
  facet normal  0.000000e+000  0.000000e+000 -1.000000e+000
    outer loop
      vertex -3.236068e+000  2.351141e+000  3.000000e+000
      vertex -8.390248e-016  2.150000e+000  3.000000e+000
      vertex -1.520280e+000  1.520280e+000  3.000000e+000
    endloop
  endfacet
  facet normal  -0.000000e+000  0.000000e+000 -1.000000e+000
    outer loop
      vertex -3.236068e+000  2.351141e+000  3.000000e+000
      vertex -1.520280e+000  1.520280e+000  3.000000e+000
      vertex -4.000000e+000 -4.898425e-016  3.000000e+000
    endloop
  endfacet
  facet normal  0.000000e+000  0.000000e+000 -1.000000e+000
    outer loop
      vertex -4.000000e+000 -4.898425e-016  3.000000e+000
      vertex -1.520280e+000  1.520280e+000  3.000000e+000
      vertex -2.150000e+000  2.632904e-016  3.000000e+000
    endloop
  endfacet
  facet normal  0.000000e+000  0.000000e+000 -9.999999e-001
    outer loop
      vertex -4.000000e+000 -4.898425e-016  3.000000e+000
      vertex -2.150000e+000  2.632904e-016  3.000000e+000
      vertex -3.236068e+000 -2.351141e+000  3.000000e+000
    endloop
  endfacet
  facet normal  0.000000e+000  0.000000e+000 -9.999999e-001
    outer loop
      vertex -3.236068e+000 -2.351141e+000  3.000000e+000
      vertex -2.150000e+000  2.632904e-016  3.000000e+000
      vertex -1.520280e+000 -1.520280e+000  3.000000e+000
    endloop
  endfacet
  facet normal  0.000000e+000  0.000000e+000 -1.000000e+000
    outer loop
      vertex  1.236068e+000 -3.804226e+000  3.000000e+000
      vertex  8.310857e-016 -2.150000e+000  3.000000e+000
      vertex  3.236068e+000 -2.351141e+000  3.000000e+000
    endloop
  endfacet
  facet normal  0.000000e+000  0.000000e+000 -1.000000e+000
    outer loop
      vertex  3.236068e+000 -2.351141e+000  3.000000e+000
      vertex  8.310857e-016 -2.150000e+000  3.000000e+000
      vertex  1.520280e+000 -1.520280e+000  3.000000e+000
    endloop
  endfacet
  facet normal  0.000000e+000  0.000000e+000 -1.000000e+000
    outer loop
      vertex  3.236068e+000 -2.351141e+000  3.000000e+000
      vertex  1.520280e+000 -1.520280e+000  3.000000e+000
      vertex  4.000000e+000  0.000000e+000  3.000000e+000
    endloop
  endfacet
  facet normal  -0.000000e+000  0.000000e+000 -1.000000e+000
    outer loop
      vertex  4.000000e+000  0.000000e+000  3.000000e+000
      vertex  1.520280e+000 -1.520280e+000  3.000000e+000
      vertex  2.150000e+000  0.000000e+000  3.000000e+000
    endloop
  endfacet
  facet normal  0.000000e+000  0.000000e+000 -9.999999e-001
    outer loop
      vertex  4.000000e+000  0.000000e+000  3.000000e+000
      vertex  2.150000e+000  0.000000e+000  3.000000e+000
      vertex  3.236068e+000  2.351141e+000  3.000000e+000
    endloop
  endfacet
  facet normal  0.000000e+000  0.000000e+000 -9.999999e-001
    outer loop
      vertex  3.236068e+000  2.351141e+000  3.000000e+000
      vertex  2.150000e+000  0.000000e+000  3.000000e+000
      vertex  1.520280e+000  1.520280e+000  3.000000e+000
    endloop
  endfacet
  facet normal  -0.000000e+000  0.000000e+000  1.000000e+000
    outer loop
      vertex -1.120170e+000  6.402751e+000  1.200000e+001
      vertex -3.787287e+000  5.282656e+000  1.200000e+001
      vertex  1.881325e-008  4.150000e+000  1.200000e+001
    endloop
  endfacet
  facet normal  0.000000e+000  -0.000000e+000  1.000000e+000
    outer loop
      vertex -4.307458e+000 -4.867834e+000  1.200000e+001
      vertex -1.768811e+000 -6.254703e+000  1.200000e+001
      vertex  9.274002e-009 -4.150000e+000  1.200000e+001
    endloop
  endfacet
  facet normal  0.000000e+000  0.000000e+000  1.000000e+000
    outer loop
      vertex  2.075000e+000  3.594005e+000  1.200000e+001
      vertex  4.307458e+000  4.867834e+000  1.200000e+001
      vertex  1.881325e-008  4.150000e+000  1.200000e+001
    endloop
  endfacet
  facet normal  0.000000e+000  0.000000e+000  1.000000e+000
    outer loop
      vertex  1.881325e-008  4.150000e+000  1.200000e+001
      vertex  4.307458e+000  4.867834e+000  1.200000e+001
      vertex  1.768811e+000  6.254703e+000  1.200000e+001
    endloop
  endfacet
  facet normal  0.000000e+000  0.000000e+000  9.999999e-001
    outer loop
      vertex  1.881325e-008  4.150000e+000  1.200000e+001
      vertex  1.768811e+000  6.254703e+000  1.200000e+001
      vertex -1.120170e+000  6.402751e+000  1.200000e+001
    endloop
  endfacet
  facet normal  0.000000e+000  0.000000e+000  1.000000e+000
    outer loop
      vertex  4.150000e+000 -8.847090e-016  1.200000e+001
      vertex  3.594005e+000 -2.075000e+000  1.200000e+001
      vertex  6.491482e+000 -3.326614e-001  1.200000e+001
    endloop
  endfacet
  facet normal  0.000000e+000  0.000000e+000  1.000000e+000
    outer loop
      vertex  6.491482e+000 -3.326614e-001  1.200000e+001
      vertex  3.594005e+000 -2.075000e+000  1.200000e+001
      vertex  2.075000e+000 -3.594005e+000  1.200000e+001
    endloop
  endfacet
  facet normal  0.000000e+000  0.000000e+000  1.000000e+000
    outer loop
      vertex  6.491482e+000 -3.326614e-001  1.200000e+001
      vertex  2.075000e+000 -3.594005e+000  1.200000e+001
      vertex  5.704287e+000 -3.116266e+000  1.200000e+001
    endloop
  endfacet
  facet normal  0.000000e+000  0.000000e+000  1.000000e+000
    outer loop
      vertex  5.704287e+000 -3.116266e+000  1.200000e+001
      vertex  2.075000e+000 -3.594005e+000  1.200000e+001
      vertex  9.274002e-009 -4.150000e+000  1.200000e+001
    endloop
  endfacet
  facet normal  -0.000000e+000  0.000000e+000  1.000000e+000
    outer loop
      vertex  5.704287e+000 -3.116266e+000  1.200000e+001
      vertex  9.274002e-009 -4.150000e+000  1.200000e+001
      vertex  3.787287e+000 -5.282656e+000  1.200000e+001
    endloop
  endfacet
  facet normal  0.000000e+000  0.000000e+000  1.000000e+000
    outer loop
      vertex  3.787287e+000 -5.282656e+000  1.200000e+001
      vertex  9.274002e-009 -4.150000e+000  1.200000e+001
      vertex -1.768811e+000 -6.254703e+000  1.200000e+001
    endloop
  endfacet
  facet normal  -0.000000e+000  0.000000e+000  1.000000e+000
    outer loop
      vertex  3.787287e+000 -5.282656e+000  1.200000e+001
      vertex -1.768811e+000 -6.254703e+000  1.200000e+001
      vertex  1.120170e+000 -6.402751e+000  1.200000e+001
    endloop
  endfacet
  facet normal  0.000000e+000  0.000000e+000  1.000000e+000
    outer loop
      vertex  9.274002e-009 -4.150000e+000  1.200000e+001
      vertex -2.075000e+000 -3.594005e+000  1.200000e+001
      vertex -4.307458e+000 -4.867834e+000  1.200000e+001
    endloop
  endfacet
  facet normal  0.000000e+000  0.000000e+000  1.000000e+000
    outer loop
      vertex -4.307458e+000 -4.867834e+000  1.200000e+001
      vertex -2.075000e+000 -3.594005e+000  1.200000e+001
      vertex -3.594005e+000 -2.075000e+000  1.200000e+001
    endloop
  endfacet
  facet normal  0.000000e+000  0.000000e+000  1.000000e+000
    outer loop
      vertex -4.307458e+000 -4.867834e+000  1.200000e+001
      vertex -3.594005e+000 -2.075000e+000  1.200000e+001
      vertex -5.992959e+000 -2.516831e+000  1.200000e+001
    endloop
  endfacet
  facet normal  0.000000e+000  0.000000e+000  1.000000e+000
    outer loop
      vertex -5.992959e+000 -2.516831e+000  1.200000e+001
      vertex -3.594005e+000 -2.075000e+000  1.200000e+001
      vertex -4.150000e+000  3.762687e-008  1.200000e+001
    endloop
  endfacet
  facet normal  0.000000e+000  0.000000e+000  1.000000e+000
    outer loop
      vertex -5.992959e+000 -2.516831e+000  1.200000e+001
      vertex -4.150000e+000  3.762687e-008  1.200000e+001
      vertex -6.491482e+000  3.326614e-001  1.200000e+001
    endloop
  endfacet
  facet normal  -0.000000e+000  0.000000e+000  1.000000e+000
    outer loop
      vertex -6.491482e+000  3.326614e-001  1.200000e+001
      vertex -4.150000e+000  3.762687e-008  1.200000e+001
      vertex -3.594005e+000  2.075000e+000  1.200000e+001
    endloop
  endfacet
  facet normal  0.000000e+000  0.000000e+000  1.000000e+000
    outer loop
      vertex -6.491482e+000  3.326614e-001  1.200000e+001
      vertex -3.594005e+000  2.075000e+000  1.200000e+001
      vertex -5.704287e+000  3.116266e+000  1.200000e+001
    endloop
  endfacet
  facet normal  0.000000e+000  0.000000e+000  1.000000e+000
    outer loop
      vertex -3.594005e+000  2.075000e+000  1.200000e+001
      vertex -2.075000e+000  3.594005e+000  1.200000e+001
      vertex -5.704287e+000  3.116266e+000  1.200000e+001
    endloop
  endfacet
  facet normal  0.000000e+000  0.000000e+000  1.000000e+000
    outer loop
      vertex -5.704287e+000  3.116266e+000  1.200000e+001
      vertex -2.075000e+000  3.594005e+000  1.200000e+001
      vertex  1.881325e-008  4.150000e+000  1.200000e+001
    endloop
  endfacet
  facet normal  0.000000e+000  0.000000e+000  1.000000e+000
    outer loop
      vertex -5.704287e+000  3.116266e+000  1.200000e+001
      vertex  1.881325e-008  4.150000e+000  1.200000e+001
      vertex -3.787287e+000  5.282656e+000  1.200000e+001
    endloop
  endfacet
  facet normal  0.000000e+000  0.000000e+000  1.000000e+000
    outer loop
      vertex  6.491482e+000 -3.326614e-001  1.200000e+001
      vertex  5.992959e+000  2.516831e+000  1.200000e+001
      vertex  4.150000e+000 -8.847090e-016  1.200000e+001
    endloop
  endfacet
  facet normal  0.000000e+000  -0.000000e+000  1.000000e+000
    outer loop
      vertex  4.150000e+000 -8.847090e-016  1.200000e+001
      vertex  5.992959e+000  2.516831e+000  1.200000e+001
      vertex  3.594005e+000  2.075000e+000  1.200000e+001
    endloop
  endfacet
  facet normal  0.000000e+000  0.000000e+000  1.000000e+000
    outer loop
      vertex  5.992959e+000  2.516831e+000  1.200000e+001
      vertex  4.307458e+000  4.867834e+000  1.200000e+001
      vertex  3.594005e+000  2.075000e+000  1.200000e+001
    endloop
  endfacet
  facet normal  0.000000e+000  -0.000000e+000  1.000000e+000
    outer loop
      vertex  3.594005e+000  2.075000e+000  1.200000e+001
      vertex  4.307458e+000  4.867834e+000  1.200000e+001
      vertex  2.075000e+000  3.594005e+000  1.200000e+001
    endloop
  endfacet
  facet normal  6.947466e-001 -1.861568e-001  6.947466e-001
    outer loop
      vertex -2.150000e+000  2.632904e-016  1.000000e+001
      vertex -3.594005e+000  2.075000e+000  1.200000e+001
      vertex -4.150000e+000  3.762687e-008  1.200000e+001
    endloop
  endfacet
  facet normal  6.326961e-001 -2.620714e-001  7.287073e-001
    outer loop
      vertex -2.150000e+000  2.632904e-016  1.000000e+001
      vertex -1.520280e+000  1.520280e+000  1.000000e+001
      vertex -3.594005e+000  2.075000e+000  1.200000e+001
    endloop
  endfacet
  facet normal -6.326961e-001 -2.620713e-001  7.287072e-001
    outer loop
      vertex  2.150000e+000 -5.265807e-016  1.000000e+001
      vertex  3.594005e+000  2.075000e+000  1.200000e+001
      vertex  1.520280e+000  1.520280e+000  1.000000e+001
    endloop
  endfacet
  facet normal -6.947466e-001 -1.861568e-001  6.947466e-001
    outer loop
      vertex  2.150000e+000 -5.265807e-016  1.000000e+001
      vertex  4.150000e+000 -8.847090e-016  1.200000e+001
      vertex  3.594005e+000  2.075000e+000  1.200000e+001
    endloop
  endfacet
  facet normal  5.179760e-001 -5.179760e-001  6.807361e-001
    outer loop
      vertex -1.520280e+000  1.520280e+000  1.000000e+001
      vertex -2.075000e+000  3.594005e+000  1.200000e+001
      vertex -3.594005e+000  2.075000e+000  1.200000e+001
    endloop
  endfacet
  facet normal  1.861568e-001 -6.947466e-001  6.947466e-001
    outer loop
      vertex  1.316452e-016  2.150000e+000  1.000000e+001
      vertex  1.881325e-008  4.150000e+000  1.200000e+001
      vertex -2.075000e+000  3.594005e+000  1.200000e+001
    endloop
  endfacet
  facet normal  2.620713e-001 -6.326961e-001  7.287072e-001
    outer loop
      vertex  1.316452e-016  2.150000e+000  1.000000e+001
      vertex -2.075000e+000  3.594005e+000  1.200000e+001
      vertex -1.520280e+000  1.520280e+000  1.000000e+001
    endloop
  endfacet
  facet normal -5.179760e-001 -5.179760e-001  6.807361e-001
    outer loop
      vertex  1.520280e+000  1.520280e+000  1.000000e+001
      vertex  3.594005e+000  2.075000e+000  1.200000e+001
      vertex  2.075000e+000  3.594005e+000  1.200000e+001
    endloop
  endfacet
  facet normal -2.620713e-001 -6.326961e-001  7.287072e-001
    outer loop
      vertex  1.520280e+000  1.520280e+000  1.000000e+001
      vertex  2.075000e+000  3.594005e+000  1.200000e+001
      vertex  1.316452e-016  2.150000e+000  1.000000e+001
    endloop
  endfacet
  facet normal -1.861568e-001 -6.947466e-001  6.947466e-001
    outer loop
      vertex  1.316452e-016  2.150000e+000  1.000000e+001
      vertex  2.075000e+000  3.594005e+000  1.200000e+001
      vertex  1.881325e-008  4.150000e+000  1.200000e+001
    endloop
  endfacet
  facet normal -6.947466e-001  1.861568e-001  6.947466e-001
    outer loop
      vertex  2.150000e+000 -5.265807e-016  1.000000e+001
      vertex  3.594005e+000 -2.075000e+000  1.200000e+001
      vertex  4.150000e+000 -8.847090e-016  1.200000e+001
    endloop
  endfacet
  facet normal -6.326961e-001  2.620714e-001  7.287073e-001
    outer loop
      vertex  2.150000e+000 -5.265807e-016  1.000000e+001
      vertex  1.520280e+000 -1.520280e+000  1.000000e+001
      vertex  3.594005e+000 -2.075000e+000  1.200000e+001
    endloop
  endfacet
  facet normal  6.326961e-001  2.620713e-001  7.287072e-001
    outer loop
      vertex -2.150000e+000  2.632904e-016  1.000000e+001
      vertex -3.594005e+000 -2.075000e+000  1.200000e+001
      vertex -1.520280e+000 -1.520280e+000  1.000000e+001
    endloop
  endfacet
  facet normal  6.947466e-001  1.861568e-001  6.947466e-001
    outer loop
      vertex -2.150000e+000  2.632904e-016  1.000000e+001
      vertex -4.150000e+000  3.762687e-008  1.200000e+001
      vertex -3.594005e+000 -2.075000e+000  1.200000e+001
    endloop
  endfacet
  facet normal -5.179760e-001  5.179760e-001  6.807361e-001
    outer loop
      vertex  1.520280e+000 -1.520280e+000  1.000000e+001
      vertex  2.075000e+000 -3.594005e+000  1.200000e+001
      vertex  3.594005e+000 -2.075000e+000  1.200000e+001
    endloop
  endfacet
  facet normal -1.861568e-001  6.947466e-001  6.947466e-001
    outer loop
      vertex -3.949355e-016 -2.150000e+000  1.000000e+001
      vertex  9.274002e-009 -4.150000e+000  1.200000e+001
      vertex  2.075000e+000 -3.594005e+000  1.200000e+001
    endloop
  endfacet
  facet normal -2.620713e-001  6.326961e-001  7.287072e-001
    outer loop
      vertex -3.949355e-016 -2.150000e+000  1.000000e+001
      vertex  2.075000e+000 -3.594005e+000  1.200000e+001
      vertex  1.520280e+000 -1.520280e+000  1.000000e+001
    endloop
  endfacet
  facet normal  5.179760e-001  5.179760e-001  6.807361e-001
    outer loop
      vertex -1.520280e+000 -1.520280e+000  1.000000e+001
      vertex -3.594005e+000 -2.075000e+000  1.200000e+001
      vertex -2.075000e+000 -3.594005e+000  1.200000e+001
    endloop
  endfacet
  facet normal  2.620713e-001  6.326961e-001  7.287072e-001
    outer loop
      vertex -1.520280e+000 -1.520280e+000  1.000000e+001
      vertex -2.075000e+000 -3.594005e+000  1.200000e+001
      vertex -3.949355e-016 -2.150000e+000  1.000000e+001
    endloop
  endfacet
  facet normal  1.861568e-001  6.947466e-001  6.947466e-001
    outer loop
      vertex -3.949355e-016 -2.150000e+000  1.000000e+001
      vertex -2.075000e+000 -3.594005e+000  1.200000e+001
      vertex  9.274002e-009 -4.150000e+000  1.200000e+001
    endloop
  endfacet
  facet normal  0.000000e+000  0.000000e+000 -1.000000e+000
    outer loop
      vertex  1.669902e+000 -3.524405e+000  8.700000e+000
      vertex  1.120170e+000 -6.402751e+000  8.700000e+000
      vertex -7.206141e-001 -3.832847e+000  8.700000e+000
    endloop
  endfacet
  facet normal  0.000000e+000  -0.000000e+000 -1.000000e+000
    outer loop
      vertex -5.704287e+000  3.116266e+000  8.700000e+000
      vertex -3.787287e+000  5.282656e+000  8.700000e+000
      vertex -1.669902e+000  3.524405e+000  8.700000e+000
    endloop
  endfacet
  facet normal  0.000000e+000  0.000000e+000 -1.000000e+000
    outer loop
      vertex -5.704287e+000  3.116266e+000  8.700000e+000
      vertex -1.669902e+000  3.524405e+000  8.700000e+000
      vertex -3.422572e+000  1.869760e+000  8.700000e+000
    endloop
  endfacet
  facet normal  -0.000000e+000  0.000000e+000 -1.000000e+000
    outer loop
      vertex -5.704287e+000  3.116266e+000  8.700000e+000
      vertex -3.422572e+000  1.869760e+000  8.700000e+000
      vertex -3.867936e+000 -4.990700e-001  8.700000e+000
    endloop
  endfacet
  facet normal  0.000000e+000  0.000000e+000 -9.999999e-001
    outer loop
      vertex -5.704287e+000  3.116266e+000  8.700000e+000
      vertex -3.867936e+000 -4.990700e-001  8.700000e+000
      vertex -6.491482e+000  3.326614e-001  8.700000e+000
    endloop
  endfacet
  facet normal  0.000000e+000  0.000000e+000 -1.000000e+000
    outer loop
      vertex  1.768811e+000  6.254703e+000  8.700000e+000
      vertex  4.307458e+000  4.867834e+000  8.700000e+000
      vertex -1.120170e+000  6.402751e+000  8.700000e+000
    endloop
  endfacet
  facet normal  0.000000e+000  0.000000e+000 -1.000000e+000
    outer loop
      vertex -1.120170e+000  6.402751e+000  8.700000e+000
      vertex  4.307458e+000  4.867834e+000  8.700000e+000
      vertex  7.206141e-001  3.832847e+000  8.700000e+000
    endloop
  endfacet
  facet normal  0.000000e+000  0.000000e+000 -1.000000e+000
    outer loop
      vertex -1.120170e+000  6.402751e+000  8.700000e+000
      vertex  7.206141e-001  3.832847e+000  8.700000e+000
      vertex -3.787287e+000  5.282656e+000  8.700000e+000
    endloop
  endfacet
  facet normal  0.000000e+000  0.000000e+000 -1.000000e+000
    outer loop
      vertex -3.787287e+000  5.282656e+000  8.700000e+000
      vertex  7.206141e-001  3.832847e+000  8.700000e+000
      vertex -1.669902e+000  3.524405e+000  8.700000e+000
    endloop
  endfacet
  facet normal  0.000000e+000  0.000000e+000 -1.000000e+000
    outer loop
      vertex  3.787287e+000 -5.282656e+000  8.700000e+000
      vertex  1.120170e+000 -6.402751e+000  8.700000e+000
      vertex  5.704287e+000 -3.116266e+000  8.700000e+000
    endloop
  endfacet
  facet normal  0.000000e+000  0.000000e+000 -9.999999e-001
    outer loop
      vertex  5.704287e+000 -3.116266e+000  8.700000e+000
      vertex  1.120170e+000 -6.402751e+000  8.700000e+000
      vertex  1.669902e+000 -3.524405e+000  8.700000e+000
    endloop
  endfacet
  facet normal  0.000000e+000  0.000000e+000 -1.000000e+000
    outer loop
      vertex  5.704287e+000 -3.116266e+000  8.700000e+000
      vertex  1.669902e+000 -3.524405e+000  8.700000e+000
      vertex  6.491482e+000 -3.326614e-001  8.700000e+000
    endloop
  endfacet
  facet normal  0.000000e+000  0.000000e+000 -1.000000e+000
    outer loop
      vertex  6.491482e+000 -3.326614e-001  8.700000e+000
      vertex  1.669902e+000 -3.524405e+000  8.700000e+000
      vertex  3.422572e+000 -1.869760e+000  8.700000e+000
    endloop
  endfacet
  facet normal  0.000000e+000  0.000000e+000 -9.999999e-001
    outer loop
      vertex  6.491482e+000 -3.326614e-001  8.700000e+000
      vertex  3.422572e+000 -1.869760e+000  8.700000e+000
      vertex  3.867936e+000  4.990700e-001  8.700000e+000
    endloop
  endfacet
  facet normal  0.000000e+000  0.000000e+000 -1.000000e+000
    outer loop
      vertex  1.120170e+000 -6.402751e+000  8.700000e+000
      vertex -1.768811e+000 -6.254703e+000  8.700000e+000
      vertex -7.206141e-001 -3.832847e+000  8.700000e+000
    endloop
  endfacet
  facet normal  0.000000e+000  0.000000e+000 -1.000000e+000
    outer loop
      vertex -7.206141e-001 -3.832847e+000  8.700000e+000
      vertex -1.768811e+000 -6.254703e+000  8.700000e+000
      vertex -4.307458e+000 -4.867834e+000  8.700000e+000
    endloop
  endfacet
  facet normal  0.000000e+000  0.000000e+000 -9.999999e-001
    outer loop
      vertex -7.206141e-001 -3.832847e+000  8.700000e+000
      vertex -4.307458e+000 -4.867834e+000  8.700000e+000
      vertex -2.835880e+000 -2.677272e+000  8.700000e+000
    endloop
  endfacet
  facet normal  -0.000000e+000  0.000000e+000 -1.000000e+000
    outer loop
      vertex -2.835880e+000 -2.677272e+000  8.700000e+000
      vertex -4.307458e+000 -4.867834e+000  8.700000e+000
      vertex -5.992959e+000 -2.516831e+000  8.700000e+000
    endloop
  endfacet
  facet normal  0.000000e+000  0.000000e+000 -1.000000e+000
    outer loop
      vertex -2.835880e+000 -2.677272e+000  8.700000e+000
      vertex -5.992959e+000 -2.516831e+000  8.700000e+000
      vertex -3.867936e+000 -4.990700e-001  8.700000e+000
    endloop
  endfacet
  facet normal  -0.000000e+000  0.000000e+000 -1.000000e+000
    outer loop
      vertex -3.867936e+000 -4.990700e-001  8.700000e+000
      vertex -5.992959e+000 -2.516831e+000  8.700000e+000
      vertex -6.491482e+000  3.326614e-001  8.700000e+000
    endloop
  endfacet
  facet normal  0.000000e+000  0.000000e+000 -1.000000e+000
    outer loop
      vertex  6.491482e+000 -3.326614e-001  8.700000e+000
      vertex  3.867936e+000  4.990700e-001  8.700000e+000
      vertex  5.992959e+000  2.516831e+000  8.700000e+000
    endloop
  endfacet
  facet normal  -0.000000e+000  0.000000e+000 -1.000000e+000
    outer loop
      vertex  5.992959e+000  2.516831e+000  8.700000e+000
      vertex  3.867936e+000  4.990700e-001  8.700000e+000
      vertex  2.835880e+000  2.677272e+000  8.700000e+000
    endloop
  endfacet
  facet normal  0.000000e+000  0.000000e+000 -1.000000e+000
    outer loop
      vertex  5.992959e+000  2.516831e+000  8.700000e+000
      vertex  2.835880e+000  2.677272e+000  8.700000e+000
      vertex  4.307458e+000  4.867834e+000  8.700000e+000
    endloop
  endfacet
  facet normal  0.000000e+000  0.000000e+000 -9.999999e-001
    outer loop
      vertex  4.307458e+000  4.867834e+000  8.700000e+000
      vertex  2.835880e+000  2.677272e+000  8.700000e+000
      vertex  7.206141e-001  3.832847e+000  8.700000e+000
    endloop
  endfacet
  facet normal  0.000000e+000  -0.000000e+000  1.000000e+000
    outer loop
      vertex -7.206141e-001 -3.832847e+000  4.000000e+000
      vertex  1.120170e+000 -6.402751e+000  4.000000e+000
      vertex  1.669902e+000 -3.524405e+000  4.000000e+000
    endloop
  endfacet
  facet normal  -0.000000e+000  0.000000e+000  1.000000e+000
    outer loop
      vertex -5.704287e+000  3.116266e+000  4.000000e+000
      vertex -6.491482e+000  3.326614e-001  4.000000e+000
      vertex -3.867936e+000 -4.990700e-001  4.000000e+000
    endloop
  endfacet
  facet normal  0.000000e+000  -0.000000e+000  1.000000e+000
    outer loop
      vertex -5.704287e+000  3.116266e+000  4.000000e+000
      vertex -3.867936e+000 -4.990700e-001  4.000000e+000
      vertex -3.422572e+000  1.869760e+000  4.000000e+000
    endloop
  endfacet
  facet normal  0.000000e+000  -0.000000e+000  1.000000e+000
    outer loop
      vertex -5.704287e+000  3.116266e+000  4.000000e+000
      vertex -3.422572e+000  1.869760e+000  4.000000e+000
      vertex -1.669902e+000  3.524405e+000  4.000000e+000
    endloop
  endfacet
  facet normal  0.000000e+000  0.000000e+000  9.999999e-001
    outer loop
      vertex -5.704287e+000  3.116266e+000  4.000000e+000
      vertex -1.669902e+000  3.524405e+000  4.000000e+000
      vertex -3.787287e+000  5.282656e+000  4.000000e+000
    endloop
  endfacet
  facet normal  0.000000e+000  0.000000e+000  1.000000e+000
    outer loop
      vertex  1.768811e+000  6.254703e+000  4.000000e+000
      vertex -1.120170e+000  6.402751e+000  4.000000e+000
      vertex  4.307458e+000  4.867834e+000  4.000000e+000
    endloop
  endfacet
  facet normal  0.000000e+000  0.000000e+000  1.000000e+000
    outer loop
      vertex  4.307458e+000  4.867834e+000  4.000000e+000
      vertex -1.120170e+000  6.402751e+000  4.000000e+000
      vertex  7.206141e-001  3.832847e+000  4.000000e+000
    endloop
  endfacet
  facet normal  -0.000000e+000  0.000000e+000  1.000000e+000
    outer loop
      vertex -1.120170e+000  6.402751e+000  4.000000e+000
      vertex -3.787287e+000  5.282656e+000  4.000000e+000
      vertex  7.206141e-001  3.832847e+000  4.000000e+000
    endloop
  endfacet
  facet normal  0.000000e+000  0.000000e+000  1.000000e+000
    outer loop
      vertex  7.206141e-001  3.832847e+000  4.000000e+000
      vertex -3.787287e+000  5.282656e+000  4.000000e+000
      vertex -1.669902e+000  3.524405e+000  4.000000e+000
    endloop
  endfacet
  facet normal  0.000000e+000  0.000000e+000  9.999999e-001
    outer loop
      vertex  3.867936e+000  4.990700e-001  4.000000e+000
      vertex  3.422572e+000 -1.869760e+000  4.000000e+000
      vertex  6.491482e+000 -3.326614e-001  4.000000e+000
    endloop
  endfacet
  facet normal  0.000000e+000  0.000000e+000  1.000000e+000
    outer loop
      vertex  6.491482e+000 -3.326614e-001  4.000000e+000
      vertex  3.422572e+000 -1.869760e+000  4.000000e+000
      vertex  1.669902e+000 -3.524405e+000  4.000000e+000
    endloop
  endfacet
  facet normal  0.000000e+000  0.000000e+000  1.000000e+000
    outer loop
      vertex  6.491482e+000 -3.326614e-001  4.000000e+000
      vertex  1.669902e+000 -3.524405e+000  4.000000e+000
      vertex  5.704287e+000 -3.116266e+000  4.000000e+000
    endloop
  endfacet
  facet normal  0.000000e+000  0.000000e+000  9.999999e-001
    outer loop
      vertex  5.704287e+000 -3.116266e+000  4.000000e+000
      vertex  1.669902e+000 -3.524405e+000  4.000000e+000
      vertex  1.120170e+000 -6.402751e+000  4.000000e+000
    endloop
  endfacet
  facet normal  0.000000e+000  0.000000e+000  1.000000e+000
    outer loop
      vertex  5.704287e+000 -3.116266e+000  4.000000e+000
      vertex  1.120170e+000 -6.402751e+000  4.000000e+000
      vertex  3.787287e+000 -5.282656e+000  4.000000e+000
    endloop
  endfacet
  facet normal  -0.000000e+000  0.000000e+000  1.000000e+000
    outer loop
      vertex -7.206141e-001 -3.832847e+000  4.000000e+000
      vertex -1.768811e+000 -6.254703e+000  4.000000e+000
      vertex  1.120170e+000 -6.402751e+000  4.000000e+000
    endloop
  endfacet
  facet normal  0.000000e+000  0.000000e+000  1.000000e+000
    outer loop
      vertex -1.768811e+000 -6.254703e+000  4.000000e+000
      vertex -7.206141e-001 -3.832847e+000  4.000000e+000
      vertex -4.307458e+000 -4.867834e+000  4.000000e+000
    endloop
  endfacet
  facet normal  0.000000e+000  0.000000e+000  9.999999e-001
    outer loop
      vertex -4.307458e+000 -4.867834e+000  4.000000e+000
      vertex -7.206141e-001 -3.832847e+000  4.000000e+000
      vertex -2.835880e+000 -2.677272e+000  4.000000e+000
    endloop
  endfacet
  facet normal  0.000000e+000  0.000000e+000  1.000000e+000
    outer loop
      vertex -4.307458e+000 -4.867834e+000  4.000000e+000
      vertex -2.835880e+000 -2.677272e+000  4.000000e+000
      vertex -5.992959e+000 -2.516831e+000  4.000000e+000
    endloop
  endfacet
  facet normal  -0.000000e+000  0.000000e+000  1.000000e+000
    outer loop
      vertex -5.992959e+000 -2.516831e+000  4.000000e+000
      vertex -2.835880e+000 -2.677272e+000  4.000000e+000
      vertex -3.867936e+000 -4.990700e-001  4.000000e+000
    endloop
  endfacet
  facet normal  0.000000e+000  0.000000e+000  1.000000e+000
    outer loop
      vertex -5.992959e+000 -2.516831e+000  4.000000e+000
      vertex -3.867936e+000 -4.990700e-001  4.000000e+000
      vertex -6.491482e+000  3.326614e-001  4.000000e+000
    endloop
  endfacet
  facet normal  0.000000e+000  0.000000e+000  1.000000e+000
    outer loop
      vertex  6.491482e+000 -3.326614e-001  4.000000e+000
      vertex  5.992959e+000  2.516831e+000  4.000000e+000
      vertex  3.867936e+000  4.990700e-001  4.000000e+000
    endloop
  endfacet
  facet normal  0.000000e+000  -0.000000e+000  1.000000e+000
    outer loop
      vertex  3.867936e+000  4.990700e-001  4.000000e+000
      vertex  5.992959e+000  2.516831e+000  4.000000e+000
      vertex  2.835880e+000  2.677272e+000  4.000000e+000
    endloop
  endfacet
  facet normal  0.000000e+000  0.000000e+000  1.000000e+000
    outer loop
      vertex  5.992959e+000  2.516831e+000  4.000000e+000
      vertex  4.307458e+000  4.867834e+000  4.000000e+000
      vertex  2.835880e+000  2.677272e+000  4.000000e+000
    endloop
  endfacet
  facet normal  0.000000e+000  -0.000000e+000  9.999999e-001
    outer loop
      vertex  2.835880e+000  2.677272e+000  4.000000e+000
      vertex  4.307458e+000  4.867834e+000  4.000000e+000
      vertex  7.206141e-001  3.832847e+000  4.000000e+000
    endloop
  endfacet
  facet normal -9.622620e-001  2.721248e-001  0.000000e+000
    outer loop
      vertex -5.704287e+000  3.116266e+000  1.200000e+001
      vertex -5.704287e+000  3.116266e+000  8.700000e+000
      vertex -6.491482e+000  3.326614e-001  1.200000e+001
    endloop
  endfacet
  facet normal -9.622620e-001  2.721248e-001  0.000000e+000
    outer loop
      vertex -6.491482e+000  3.326614e-001  1.200000e+001
      vertex -5.704287e+000  3.116266e+000  8.700000e+000
      vertex -6.491482e+000  3.326614e-001  8.700000e+000
    endloop
  endfacet
  facet normal -9.850386e-001 -1.723338e-001  0.000000e+000
    outer loop
      vertex -6.491482e+000  3.326614e-001  1.200000e+001
      vertex -6.491482e+000  3.326614e-001  8.700000e+000
      vertex -5.992959e+000 -2.516831e+000  1.200000e+001
    endloop
  endfacet
  facet normal -9.850386e-001 -1.723338e-001  -0.000000e+000
    outer loop
      vertex -5.992959e+000 -2.516831e+000  1.200000e+001
      vertex -6.491482e+000  3.326614e-001  8.700000e+000
      vertex -5.992959e+000 -2.516831e+000  8.700000e+000
    endloop
  endfacet
  facet normal -8.127163e-001 -5.826597e-001  0.000000e+000
    outer loop
      vertex -5.992959e+000 -2.516831e+000  1.200000e+001
      vertex -5.992959e+000 -2.516831e+000  8.700000e+000
      vertex -4.307458e+000 -4.867834e+000  1.200000e+001
    endloop
  endfacet
  facet normal -8.127163e-001 -5.826597e-001  -0.000000e+000
    outer loop
      vertex -4.307458e+000 -4.867834e+000  1.200000e+001
      vertex -5.992959e+000 -2.516831e+000  8.700000e+000
      vertex -4.307458e+000 -4.867834e+000  8.700000e+000
    endloop
  endfacet
  facet normal -4.794254e-001 -8.775826e-001  0.000000e+000
    outer loop
      vertex -4.307458e+000 -4.867834e+000  1.200000e+001
      vertex -4.307458e+000 -4.867834e+000  8.700000e+000
      vertex -1.768811e+000 -6.254703e+000  1.200000e+001
    endloop
  endfacet
  facet normal -4.794254e-001 -8.775826e-001  -0.000000e+000
    outer loop
      vertex -1.768811e+000 -6.254703e+000  1.200000e+001
      vertex -4.307458e+000 -4.867834e+000  8.700000e+000
      vertex -1.768811e+000 -6.254703e+000  8.700000e+000
    endloop
  endfacet
  facet normal -5.117873e-002 -9.986895e-001  0.000000e+000
    outer loop
      vertex -1.768811e+000 -6.254703e+000  1.200000e+001
      vertex -1.768811e+000 -6.254703e+000  8.700000e+000
      vertex  1.120170e+000 -6.402751e+000  1.200000e+001
    endloop
  endfacet
  facet normal -5.117873e-002 -9.986895e-001  -0.000000e+000
    outer loop
      vertex  1.120170e+000 -6.402751e+000  1.200000e+001
      vertex -1.768811e+000 -6.254703e+000  8.700000e+000
      vertex  1.120170e+000 -6.402751e+000  8.700000e+000
    endloop
  endfacet
  facet normal  3.872048e-001 -9.219938e-001  0.000000e+000
    outer loop
      vertex  1.120170e+000 -6.402751e+000  1.200000e+001
      vertex  1.120170e+000 -6.402751e+000  8.700000e+000
      vertex  3.787287e+000 -5.282656e+000  1.200000e+001
    endloop
  endfacet
  facet normal  3.872048e-001 -9.219938e-001  0.000000e+000
    outer loop
      vertex  3.787287e+000 -5.282656e+000  1.200000e+001
      vertex  1.120170e+000 -6.402751e+000  8.700000e+000
      vertex  3.787287e+000 -5.282656e+000  8.700000e+000
    endloop
  endfacet
  facet normal  7.488975e-001 -6.626859e-001  0.000000e+000
    outer loop
      vertex  3.787287e+000 -5.282656e+000  1.200000e+001
      vertex  3.787287e+000 -5.282656e+000  8.700000e+000
      vertex  5.704287e+000 -3.116266e+000  1.200000e+001
    endloop
  endfacet
  facet normal  7.488975e-001 -6.626859e-001  0.000000e+000
    outer loop
      vertex  5.704287e+000 -3.116266e+000  1.200000e+001
      vertex  3.787287e+000 -5.282656e+000  8.700000e+000
      vertex  5.704287e+000 -3.116266e+000  8.700000e+000
    endloop
  endfacet
  facet normal -9.827813e-001  1.847730e-001  0.000000e+000
    outer loop
      vertex -3.422572e+000  1.869760e+000  8.700000e+000
      vertex -3.422572e+000  1.869760e+000  4.000000e+000
      vertex -3.867936e+000 -4.990700e-001  8.700000e+000
    endloop
  endfacet
  facet normal -9.827813e-001  1.847730e-001  0.000000e+000
    outer loop
      vertex -3.867936e+000 -4.990700e-001  8.700000e+000
      vertex -3.422572e+000  1.869760e+000  4.000000e+000
      vertex -3.867936e+000 -4.990700e-001  4.000000e+000
    endloop
  endfacet
  facet normal -9.036936e-001 -4.281800e-001  0.000000e+000
    outer loop
      vertex -3.867936e+000 -4.990700e-001  8.700000e+000
      vertex -3.867936e+000 -4.990700e-001  4.000000e+000
      vertex -2.835880e+000 -2.677272e+000  8.700000e+000
    endloop
  endfacet
  facet normal -9.036936e-001 -4.281800e-001  -0.000000e+000
    outer loop
      vertex -2.835880e+000 -2.677272e+000  8.700000e+000
      vertex -3.867936e+000 -4.990700e-001  4.000000e+000
      vertex -2.835880e+000 -2.677272e+000  4.000000e+000
    endloop
  endfacet
  facet normal -4.794256e-001 -8.775826e-001  0.000000e+000
    outer loop
      vertex -2.835880e+000 -2.677272e+000  8.700000e+000
      vertex -2.835880e+000 -2.677272e+000  4.000000e+000
      vertex -7.206141e-001 -3.832847e+000  8.700000e+000
    endloop
  endfacet
  facet normal -4.794256e-001 -8.775826e-001  -0.000000e+000
    outer loop
      vertex -7.206141e-001 -3.832847e+000  8.700000e+000
      vertex -2.835880e+000 -2.677272e+000  4.000000e+000
      vertex -7.206141e-001 -3.832847e+000  4.000000e+000
    endloop
  endfacet
  facet normal  1.279667e-001 -9.917785e-001  0.000000e+000
    outer loop
      vertex -7.206141e-001 -3.832847e+000  8.700000e+000
      vertex -7.206141e-001 -3.832847e+000  4.000000e+000
      vertex  1.669902e+000 -3.524405e+000  8.700000e+000
    endloop
  endfacet
  facet normal  1.279667e-001 -9.917785e-001  0.000000e+000
    outer loop
      vertex  1.669902e+000 -3.524405e+000  8.700000e+000
      vertex -7.206141e-001 -3.832847e+000  4.000000e+000
      vertex  1.669902e+000 -3.524405e+000  4.000000e+000
    endloop
  endfacet
  facet normal  6.864800e-001 -7.271487e-001  0.000000e+000
    outer loop
      vertex  1.669902e+000 -3.524405e+000  8.700000e+000
      vertex  1.669902e+000 -3.524405e+000  4.000000e+000
      vertex  3.422572e+000 -1.869760e+000  8.700000e+000
    endloop
  endfacet
  facet normal  6.864800e-001 -7.271487e-001  0.000000e+000
    outer loop
      vertex  3.422572e+000 -1.869760e+000  8.700000e+000
      vertex  1.669902e+000 -3.524405e+000  4.000000e+000
      vertex  3.422572e+000 -1.869760e+000  4.000000e+000
    endloop
  endfacet
  facet normal  9.622620e-001 -2.721248e-001  0.000000e+000
    outer loop
      vertex  5.704287e+000 -3.116266e+000  1.200000e+001
      vertex  5.704287e+000 -3.116266e+000  8.700000e+000
      vertex  6.491482e+000 -3.326614e-001  1.200000e+001
    endloop
  endfacet
  facet normal  9.622620e-001 -2.721248e-001  0.000000e+000
    outer loop
      vertex  6.491482e+000 -3.326614e-001  1.200000e+001
      vertex  5.704287e+000 -3.116266e+000  8.700000e+000
      vertex  6.491482e+000 -3.326614e-001  8.700000e+000
    endloop
  endfacet
  facet normal  9.850386e-001  1.723338e-001  -0.000000e+000
    outer loop
      vertex  6.491482e+000 -3.326614e-001  1.200000e+001
      vertex  6.491482e+000 -3.326614e-001  8.700000e+000
      vertex  5.992959e+000  2.516831e+000  1.200000e+001
    endloop
  endfacet
  facet normal  9.850386e-001  1.723338e-001  0.000000e+000
    outer loop
      vertex  5.992959e+000  2.516831e+000  1.200000e+001
      vertex  6.491482e+000 -3.326614e-001  8.700000e+000
      vertex  5.992959e+000  2.516831e+000  8.700000e+000
    endloop
  endfacet
  facet normal  8.127163e-001  5.826597e-001  -0.000000e+000
    outer loop
      vertex  5.992959e+000  2.516831e+000  1.200000e+001
      vertex  5.992959e+000  2.516831e+000  8.700000e+000
      vertex  4.307458e+000  4.867834e+000  1.200000e+001
    endloop
  endfacet
  facet normal  8.127163e-001  5.826597e-001  0.000000e+000
    outer loop
      vertex  4.307458e+000  4.867834e+000  1.200000e+001
      vertex  5.992959e+000  2.516831e+000  8.700000e+000
      vertex  4.307458e+000  4.867834e+000  8.700000e+000
    endloop
  endfacet
  facet normal  4.794254e-001  8.775826e-001  -0.000000e+000
    outer loop
      vertex  4.307458e+000  4.867834e+000  1.200000e+001
      vertex  4.307458e+000  4.867834e+000  8.700000e+000
      vertex  1.768811e+000  6.254703e+000  1.200000e+001
    endloop
  endfacet
  facet normal  4.794254e-001  8.775826e-001  0.000000e+000
    outer loop
      vertex  1.768811e+000  6.254703e+000  1.200000e+001
      vertex  4.307458e+000  4.867834e+000  8.700000e+000
      vertex  1.768811e+000  6.254703e+000  8.700000e+000
    endloop
  endfacet
  facet normal  5.117873e-002  9.986895e-001  -0.000000e+000
    outer loop
      vertex  1.768811e+000  6.254703e+000  1.200000e+001
      vertex  1.768811e+000  6.254703e+000  8.700000e+000
      vertex -1.120170e+000  6.402751e+000  1.200000e+001
    endloop
  endfacet
  facet normal  5.117873e-002  9.986895e-001  0.000000e+000
    outer loop
      vertex -1.120170e+000  6.402751e+000  1.200000e+001
      vertex  1.768811e+000  6.254703e+000  8.700000e+000
      vertex -1.120170e+000  6.402751e+000  8.700000e+000
    endloop
  endfacet
  facet normal -3.872048e-001  9.219938e-001  0.000000e+000
    outer loop
      vertex -1.120170e+000  6.402751e+000  1.200000e+001
      vertex -1.120170e+000  6.402751e+000  8.700000e+000
      vertex -3.787287e+000  5.282656e+000  1.200000e+001
    endloop
  endfacet
  facet normal -3.872048e-001  9.219938e-001  0.000000e+000
    outer loop
      vertex -3.787287e+000  5.282656e+000  1.200000e+001
      vertex -1.120170e+000  6.402751e+000  8.700000e+000
      vertex -3.787287e+000  5.282656e+000  8.700000e+000
    endloop
  endfacet
  facet normal -7.488975e-001  6.626859e-001  0.000000e+000
    outer loop
      vertex -3.787287e+000  5.282656e+000  1.200000e+001
      vertex -3.787287e+000  5.282656e+000  8.700000e+000
      vertex -5.704287e+000  3.116266e+000  1.200000e+001
    endloop
  endfacet
  facet normal -7.488975e-001  6.626859e-001  0.000000e+000
    outer loop
      vertex -5.704287e+000  3.116266e+000  1.200000e+001
      vertex -3.787287e+000  5.282656e+000  8.700000e+000
      vertex -5.704287e+000  3.116266e+000  8.700000e+000
    endloop
  endfacet
  facet normal  9.827813e-001 -1.847730e-001  0.000000e+000
    outer loop
      vertex  3.422572e+000 -1.869760e+000  8.700000e+000
      vertex  3.422572e+000 -1.869760e+000  4.000000e+000
      vertex  3.867936e+000  4.990700e-001  8.700000e+000
    endloop
  endfacet
  facet normal  9.827813e-001 -1.847730e-001  0.000000e+000
    outer loop
      vertex  3.867936e+000  4.990700e-001  8.700000e+000
      vertex  3.422572e+000 -1.869760e+000  4.000000e+000
      vertex  3.867936e+000  4.990700e-001  4.000000e+000
    endloop
  endfacet
  facet normal  9.036936e-001  4.281800e-001  -0.000000e+000
    outer loop
      vertex  3.867936e+000  4.990700e-001  8.700000e+000
      vertex  3.867936e+000  4.990700e-001  4.000000e+000
      vertex  2.835880e+000  2.677272e+000  8.700000e+000
    endloop
  endfacet
  facet normal  9.036936e-001  4.281800e-001  0.000000e+000
    outer loop
      vertex  2.835880e+000  2.677272e+000  8.700000e+000
      vertex  3.867936e+000  4.990700e-001  4.000000e+000
      vertex  2.835880e+000  2.677272e+000  4.000000e+000
    endloop
  endfacet
  facet normal  4.794256e-001  8.775826e-001  -0.000000e+000
    outer loop
      vertex  2.835880e+000  2.677272e+000  8.700000e+000
      vertex  2.835880e+000  2.677272e+000  4.000000e+000
      vertex  7.206141e-001  3.832847e+000  8.700000e+000
    endloop
  endfacet
  facet normal  4.794256e-001  8.775826e-001  0.000000e+000
    outer loop
      vertex  7.206141e-001  3.832847e+000  8.700000e+000
      vertex  2.835880e+000  2.677272e+000  4.000000e+000
      vertex  7.206141e-001  3.832847e+000  4.000000e+000
    endloop
  endfacet
  facet normal -1.279667e-001  9.917785e-001  0.000000e+000
    outer loop
      vertex  7.206141e-001  3.832847e+000  8.700000e+000
      vertex  7.206141e-001  3.832847e+000  4.000000e+000
      vertex -1.669902e+000  3.524405e+000  8.700000e+000
    endloop
  endfacet
  facet normal -1.279667e-001  9.917785e-001  0.000000e+000
    outer loop
      vertex -1.669902e+000  3.524405e+000  8.700000e+000
      vertex  7.206141e-001  3.832847e+000  4.000000e+000
      vertex -1.669902e+000  3.524405e+000  4.000000e+000
    endloop
  endfacet
  facet normal -6.864800e-001  7.271487e-001  0.000000e+000
    outer loop
      vertex -1.669902e+000  3.524405e+000  8.700000e+000
      vertex -1.669902e+000  3.524405e+000  4.000000e+000
      vertex -3.422572e+000  1.869760e+000  8.700000e+000
    endloop
  endfacet
  facet normal -6.864800e-001  7.271487e-001  0.000000e+000
    outer loop
      vertex -3.422572e+000  1.869760e+000  8.700000e+000
      vertex -1.669902e+000  3.524405e+000  4.000000e+000
      vertex -3.422572e+000  1.869760e+000  4.000000e+000
    endloop
  endfacet
endsolid CATIA STL
