solid CATIA STL
  facet normal  6.877200e-001  7.259759e-001  0.000000e+000
    outer loop
      vertex  6.078782e+001  3.532302e+001  0.000000e+000
      vertex  6.078782e+001  3.532302e+001  1.250000e+002
      vertex  6.180202e+001  3.436227e+001  0.000000e+000
    endloop
  endfacet
  facet normal  6.877200e-001  7.259759e-001  -0.000000e+000
    outer loop
      vertex  6.180202e+001  3.436227e+001  0.000000e+000
      vertex  6.078782e+001  3.532302e+001  1.250000e+002
      vertex  6.180202e+001  3.436227e+001  1.250000e+002
    endloop
  endfacet
  facet normal  7.085565e-001  7.056539e-001  0.000000e+000
    outer loop
      vertex  6.180202e+001  3.436227e+001  0.000000e+000
      vertex  6.180202e+001  3.436227e+001  1.250000e+002
      vertex  6.278782e+001  3.337241e+001  0.000000e+000
    endloop
  endfacet
  facet normal  7.085565e-001  7.056539e-001  -0.000000e+000
    outer loop
      vertex  6.278782e+001  3.337241e+001  0.000000e+000
      vertex  6.180202e+001  3.436227e+001  1.250000e+002
      vertex  6.278782e+001  3.337241e+001  1.250000e+002
    endloop
  endfacet
  facet normal  7.085552e-001 -7.056553e-001  0.000000e+000
    outer loop
      vertex  6.278782e+001 -3.337337e+001  0.000000e+000
      vertex  6.278782e+001 -3.337337e+001  1.250000e+002
      vertex  6.180202e+001 -3.436323e+001  0.000000e+000
    endloop
  endfacet
  facet normal  7.085552e-001 -7.056553e-001  0.000000e+000
    outer loop
      vertex  6.180202e+001 -3.436323e+001  0.000000e+000
      vertex  6.278782e+001 -3.337337e+001  1.250000e+002
      vertex  6.180202e+001 -3.436323e+001  1.250000e+002
    endloop
  endfacet
  facet normal  6.877215e-001 -7.259747e-001  0.000000e+000
    outer loop
      vertex  6.180202e+001 -3.436323e+001  0.000000e+000
      vertex  6.180202e+001 -3.436323e+001  1.250000e+002
      vertex  6.078782e+001 -3.532399e+001  0.000000e+000
    endloop
  endfacet
  facet normal  6.877215e-001 -7.259747e-001  0.000000e+000
    outer loop
      vertex  6.078782e+001 -3.532399e+001  0.000000e+000
      vertex  6.180202e+001 -3.436323e+001  1.250000e+002
      vertex  6.078782e+001 -3.532399e+001  1.250000e+002
    endloop
  endfacet
  facet normal  1.000000e+000  -0.000000e+000  0.000000e+000
    outer loop
      vertex  6.278782e+001  3.337241e+001  1.250000e+002
      vertex  6.278782e+001 -3.337337e+001  1.250000e+002
      vertex  6.278782e+001  0.000000e+000  2.200000e+001
    endloop
  endfacet
  facet normal  9.999999e-001  -0.000000e+000  0.000000e+000
    outer loop
      vertex  6.278782e+001  3.337241e+001  1.250000e+002
      vertex  6.278782e+001  0.000000e+000  2.200000e+001
      vertex  6.278782e+001  3.901806e-001  2.196157e+001
    endloop
  endfacet
  facet normal  1.000000e+000  -0.000000e+000  0.000000e+000
    outer loop
      vertex  6.278782e+001  3.337241e+001  1.250000e+002
      vertex  6.278782e+001  3.901806e-001  2.196157e+001
      vertex  6.278782e+001  7.653669e-001  2.184776e+001
    endloop
  endfacet
  facet normal  1.000000e+000  -0.000000e+000  0.000000e+000
    outer loop
      vertex  6.278782e+001  3.337241e+001  1.250000e+002
      vertex  6.278782e+001  7.653669e-001  2.184776e+001
      vertex  6.278782e+001  1.111140e+000  2.166294e+001
    endloop
  endfacet
  facet normal  1.000000e+000  -0.000000e+000  0.000000e+000
    outer loop
      vertex  6.278782e+001  3.337241e+001  1.250000e+002
      vertex  6.278782e+001  1.111140e+000  2.166294e+001
      vertex  6.278782e+001  3.337241e+001  0.000000e+000
    endloop
  endfacet
  facet normal  1.000000e+000  0.000000e+000  0.000000e+000
    outer loop
      vertex  6.278782e+001  3.337241e+001  0.000000e+000
      vertex  6.278782e+001  1.111140e+000  2.166294e+001
      vertex  6.278782e+001  1.414214e+000  2.141421e+001
    endloop
  endfacet
  facet normal  1.000000e+000  0.000000e+000  0.000000e+000
    outer loop
      vertex  6.278782e+001  3.337241e+001  0.000000e+000
      vertex  6.278782e+001  1.414214e+000  2.141421e+001
      vertex  6.278782e+001  1.662939e+000  2.111114e+001
    endloop
  endfacet
  facet normal  1.000000e+000  0.000000e+000  0.000000e+000
    outer loop
      vertex  6.278782e+001  3.337241e+001  0.000000e+000
      vertex  6.278782e+001  1.662939e+000  2.111114e+001
      vertex  6.278782e+001  1.847759e+000  2.076537e+001
    endloop
  endfacet
  facet normal  1.000000e+000  0.000000e+000  0.000000e+000
    outer loop
      vertex  6.278782e+001  3.337241e+001  0.000000e+000
      vertex  6.278782e+001  1.847759e+000  2.076537e+001
      vertex  6.278782e+001  1.961571e+000  2.039018e+001
    endloop
  endfacet
  facet normal  1.000000e+000  0.000000e+000  0.000000e+000
    outer loop
      vertex  6.278782e+001  3.337241e+001  0.000000e+000
      vertex  6.278782e+001  1.961571e+000  2.039018e+001
      vertex  6.278782e+001  2.000000e+000  2.000000e+001
    endloop
  endfacet
  facet normal  1.000000e+000  0.000000e+000  0.000000e+000
    outer loop
      vertex  6.278782e+001  3.337241e+001  0.000000e+000
      vertex  6.278782e+001  2.000000e+000  2.000000e+001
      vertex  6.278782e+001  1.961571e+000  1.960982e+001
    endloop
  endfacet
  facet normal  9.999999e-001  0.000000e+000  0.000000e+000
    outer loop
      vertex  6.278782e+001  3.337241e+001  0.000000e+000
      vertex  6.278782e+001  1.961571e+000  1.960982e+001
      vertex  6.278782e+001  1.847759e+000  1.923463e+001
    endloop
  endfacet
  facet normal  9.999999e-001  0.000000e+000  0.000000e+000
    outer loop
      vertex  6.278782e+001  3.337241e+001  0.000000e+000
      vertex  6.278782e+001  1.847759e+000  1.923463e+001
      vertex  6.278782e+001  1.662939e+000  1.888886e+001
    endloop
  endfacet
  facet normal  1.000000e+000  0.000000e+000  0.000000e+000
    outer loop
      vertex  6.278782e+001  3.337241e+001  0.000000e+000
      vertex  6.278782e+001  1.662939e+000  1.888886e+001
      vertex  6.278782e+001  1.414214e+000  1.858579e+001
    endloop
  endfacet
  facet normal  1.000000e+000  0.000000e+000  0.000000e+000
    outer loop
      vertex  6.278782e+001  3.337241e+001  0.000000e+000
      vertex  6.278782e+001  1.414214e+000  1.858579e+001
      vertex  6.278782e+001  1.111140e+000  1.833706e+001
    endloop
  endfacet
  facet normal  1.000000e+000  0.000000e+000  0.000000e+000
    outer loop
      vertex  6.278782e+001  3.337241e+001  0.000000e+000
      vertex  6.278782e+001  1.111140e+000  1.833706e+001
      vertex  6.278782e+001  7.653669e-001  1.815224e+001
    endloop
  endfacet
  facet normal  1.000000e+000  0.000000e+000  0.000000e+000
    outer loop
      vertex  6.278782e+001  3.337241e+001  0.000000e+000
      vertex  6.278782e+001  7.653669e-001  1.815224e+001
      vertex  6.278782e+001  3.901806e-001  1.803843e+001
    endloop
  endfacet
  facet normal  1.000000e+000  0.000000e+000  0.000000e+000
    outer loop
      vertex  6.278782e+001  3.337241e+001  0.000000e+000
      vertex  6.278782e+001  3.901806e-001  1.803843e+001
      vertex  6.278782e+001  0.000000e+000  1.800000e+001
    endloop
  endfacet
  facet normal  9.999999e-001  0.000000e+000  0.000000e+000
    outer loop
      vertex  6.278782e+001  3.337241e+001  0.000000e+000
      vertex  6.278782e+001  0.000000e+000  1.800000e+001
      vertex  6.278782e+001 -3.337337e+001  0.000000e+000
    endloop
  endfacet
  facet normal  1.000000e+000  0.000000e+000  0.000000e+000
    outer loop
      vertex  6.278782e+001 -3.337337e+001  0.000000e+000
      vertex  6.278782e+001  0.000000e+000  1.800000e+001
      vertex  6.278782e+001 -3.901806e-001  1.803843e+001
    endloop
  endfacet
  facet normal  1.000000e+000  0.000000e+000  0.000000e+000
    outer loop
      vertex  6.278782e+001 -3.337337e+001  0.000000e+000
      vertex  6.278782e+001 -3.901806e-001  1.803843e+001
      vertex  6.278782e+001 -7.653669e-001  1.815224e+001
    endloop
  endfacet
  facet normal  1.000000e+000  0.000000e+000  0.000000e+000
    outer loop
      vertex  6.278782e+001 -3.337337e+001  0.000000e+000
      vertex  6.278782e+001 -7.653669e-001  1.815224e+001
      vertex  6.278782e+001 -1.111140e+000  1.833706e+001
    endloop
  endfacet
  facet normal  1.000000e+000  0.000000e+000  0.000000e+000
    outer loop
      vertex  6.278782e+001 -3.337337e+001  0.000000e+000
      vertex  6.278782e+001 -1.111140e+000  1.833706e+001
      vertex  6.278782e+001 -1.414214e+000  1.858579e+001
    endloop
  endfacet
  facet normal  1.000000e+000  0.000000e+000  0.000000e+000
    outer loop
      vertex  6.278782e+001 -3.337337e+001  0.000000e+000
      vertex  6.278782e+001 -1.414214e+000  1.858579e+001
      vertex  6.278782e+001 -1.662939e+000  1.888886e+001
    endloop
  endfacet
  facet normal  1.000000e+000  0.000000e+000  0.000000e+000
    outer loop
      vertex  6.278782e+001 -3.337337e+001  0.000000e+000
      vertex  6.278782e+001 -1.662939e+000  1.888886e+001
      vertex  6.278782e+001 -1.847759e+000  1.923463e+001
    endloop
  endfacet
  facet normal  9.999999e-001  0.000000e+000  0.000000e+000
    outer loop
      vertex  6.278782e+001 -3.337337e+001  0.000000e+000
      vertex  6.278782e+001 -1.847759e+000  1.923463e+001
      vertex  6.278782e+001 -1.961571e+000  1.960982e+001
    endloop
  endfacet
  facet normal  1.000000e+000  0.000000e+000  0.000000e+000
    outer loop
      vertex  6.278782e+001 -3.337337e+001  0.000000e+000
      vertex  6.278782e+001 -1.961571e+000  1.960982e+001
      vertex  6.278782e+001 -2.000000e+000  2.000000e+001
    endloop
  endfacet
  facet normal  1.000000e+000  0.000000e+000  -0.000000e+000
    outer loop
      vertex  6.278782e+001 -3.337337e+001  0.000000e+000
      vertex  6.278782e+001 -2.000000e+000  2.000000e+001
      vertex  6.278782e+001 -1.961571e+000  2.039018e+001
    endloop
  endfacet
  facet normal  1.000000e+000  0.000000e+000  -0.000000e+000
    outer loop
      vertex  6.278782e+001 -3.337337e+001  0.000000e+000
      vertex  6.278782e+001 -1.961571e+000  2.039018e+001
      vertex  6.278782e+001 -1.847759e+000  2.076537e+001
    endloop
  endfacet
  facet normal  1.000000e+000  0.000000e+000  -0.000000e+000
    outer loop
      vertex  6.278782e+001 -3.337337e+001  0.000000e+000
      vertex  6.278782e+001 -1.847759e+000  2.076537e+001
      vertex  6.278782e+001 -1.662939e+000  2.111114e+001
    endloop
  endfacet
  facet normal  1.000000e+000  0.000000e+000  -0.000000e+000
    outer loop
      vertex  6.278782e+001 -3.337337e+001  0.000000e+000
      vertex  6.278782e+001 -1.662939e+000  2.111114e+001
      vertex  6.278782e+001 -1.414214e+000  2.141421e+001
    endloop
  endfacet
  facet normal  1.000000e+000  0.000000e+000  -0.000000e+000
    outer loop
      vertex  6.278782e+001 -3.337337e+001  0.000000e+000
      vertex  6.278782e+001 -1.414214e+000  2.141421e+001
      vertex  6.278782e+001 -1.111140e+000  2.166294e+001
    endloop
  endfacet
  facet normal  1.000000e+000  0.000000e+000  0.000000e+000
    outer loop
      vertex  6.278782e+001 -3.337337e+001  1.250000e+002
      vertex  6.278782e+001 -3.337337e+001  0.000000e+000
      vertex  6.278782e+001 -1.111140e+000  2.166294e+001
    endloop
  endfacet
  facet normal  1.000000e+000  0.000000e+000  -0.000000e+000
    outer loop
      vertex  6.278782e+001 -3.337337e+001  1.250000e+002
      vertex  6.278782e+001 -1.111140e+000  2.166294e+001
      vertex  6.278782e+001 -7.653669e-001  2.184776e+001
    endloop
  endfacet
  facet normal  1.000000e+000  0.000000e+000  -0.000000e+000
    outer loop
      vertex  6.278782e+001 -3.337337e+001  1.250000e+002
      vertex  6.278782e+001 -7.653669e-001  2.184776e+001
      vertex  6.278782e+001 -3.901806e-001  2.196157e+001
    endloop
  endfacet
  facet normal  1.000000e+000  0.000000e+000  -0.000000e+000
    outer loop
      vertex  6.278782e+001 -3.337337e+001  1.250000e+002
      vertex  6.278782e+001 -3.901806e-001  2.196157e+001
      vertex  6.278782e+001  0.000000e+000  2.200000e+001
    endloop
  endfacet
  facet normal -1.000000e+000  -0.000000e+000  0.000000e+000
    outer loop
      vertex  6.078782e+001 -3.532399e+001  1.250000e+002
      vertex  6.078782e+001  3.532302e+001  1.250000e+002
      vertex  6.078782e+001  0.000000e+000  2.200000e+001
    endloop
  endfacet
  facet normal -1.000000e+000  -0.000000e+000  0.000000e+000
    outer loop
      vertex  6.078782e+001 -3.532399e+001  1.250000e+002
      vertex  6.078782e+001  0.000000e+000  2.200000e+001
      vertex  6.078782e+001 -3.901806e-001  2.196157e+001
    endloop
  endfacet
  facet normal -1.000000e+000  -0.000000e+000  0.000000e+000
    outer loop
      vertex  6.078782e+001 -3.532399e+001  1.250000e+002
      vertex  6.078782e+001 -3.901806e-001  2.196157e+001
      vertex  6.078782e+001 -7.653669e-001  2.184776e+001
    endloop
  endfacet
  facet normal -1.000000e+000  -0.000000e+000  0.000000e+000
    outer loop
      vertex  6.078782e+001 -3.532399e+001  1.250000e+002
      vertex  6.078782e+001 -7.653669e-001  2.184776e+001
      vertex  6.078782e+001 -1.111140e+000  2.166294e+001
    endloop
  endfacet
  facet normal -1.000000e+000  -0.000000e+000  0.000000e+000
    outer loop
      vertex  6.078782e+001 -3.532399e+001  1.250000e+002
      vertex  6.078782e+001 -1.111140e+000  2.166294e+001
      vertex  6.078782e+001 -3.532399e+001  0.000000e+000
    endloop
  endfacet
  facet normal -1.000000e+000  0.000000e+000  0.000000e+000
    outer loop
      vertex  6.078782e+001 -3.532399e+001  0.000000e+000
      vertex  6.078782e+001 -1.111140e+000  2.166294e+001
      vertex  6.078782e+001 -1.414214e+000  2.141421e+001
    endloop
  endfacet
  facet normal -1.000000e+000  0.000000e+000  0.000000e+000
    outer loop
      vertex  6.078782e+001 -3.532399e+001  0.000000e+000
      vertex  6.078782e+001 -1.414214e+000  2.141421e+001
      vertex  6.078782e+001 -1.662939e+000  2.111114e+001
    endloop
  endfacet
  facet normal -1.000000e+000  0.000000e+000  0.000000e+000
    outer loop
      vertex  6.078782e+001 -3.532399e+001  0.000000e+000
      vertex  6.078782e+001 -1.662939e+000  2.111114e+001
      vertex  6.078782e+001 -1.847759e+000  2.076537e+001
    endloop
  endfacet
  facet normal -1.000000e+000  0.000000e+000  0.000000e+000
    outer loop
      vertex  6.078782e+001 -3.532399e+001  0.000000e+000
      vertex  6.078782e+001 -1.847759e+000  2.076537e+001
      vertex  6.078782e+001 -1.961571e+000  2.039018e+001
    endloop
  endfacet
  facet normal -9.999999e-001  0.000000e+000  0.000000e+000
    outer loop
      vertex  6.078782e+001 -3.532399e+001  0.000000e+000
      vertex  6.078782e+001 -1.961571e+000  2.039018e+001
      vertex  6.078782e+001 -2.000000e+000  2.000000e+001
    endloop
  endfacet
  facet normal -1.000000e+000  0.000000e+000  -0.000000e+000
    outer loop
      vertex  6.078782e+001 -3.532399e+001  0.000000e+000
      vertex  6.078782e+001 -2.000000e+000  2.000000e+001
      vertex  6.078782e+001 -1.961571e+000  1.960982e+001
    endloop
  endfacet
  facet normal -1.000000e+000  0.000000e+000  -0.000000e+000
    outer loop
      vertex  6.078782e+001 -3.532399e+001  0.000000e+000
      vertex  6.078782e+001 -1.961571e+000  1.960982e+001
      vertex  6.078782e+001 -1.847759e+000  1.923463e+001
    endloop
  endfacet
  facet normal -1.000000e+000  0.000000e+000  -0.000000e+000
    outer loop
      vertex  6.078782e+001 -3.532399e+001  0.000000e+000
      vertex  6.078782e+001 -1.847759e+000  1.923463e+001
      vertex  6.078782e+001 -1.662939e+000  1.888886e+001
    endloop
  endfacet
  facet normal -1.000000e+000  0.000000e+000  -0.000000e+000
    outer loop
      vertex  6.078782e+001 -3.532399e+001  0.000000e+000
      vertex  6.078782e+001 -1.662939e+000  1.888886e+001
      vertex  6.078782e+001 -1.414214e+000  1.858579e+001
    endloop
  endfacet
  facet normal -1.000000e+000  0.000000e+000  -0.000000e+000
    outer loop
      vertex  6.078782e+001 -3.532399e+001  0.000000e+000
      vertex  6.078782e+001 -1.414214e+000  1.858579e+001
      vertex  6.078782e+001 -1.111140e+000  1.833706e+001
    endloop
  endfacet
  facet normal -1.000000e+000  0.000000e+000  -0.000000e+000
    outer loop
      vertex  6.078782e+001 -3.532399e+001  0.000000e+000
      vertex  6.078782e+001 -1.111140e+000  1.833706e+001
      vertex  6.078782e+001 -7.653669e-001  1.815224e+001
    endloop
  endfacet
  facet normal -9.999999e-001  0.000000e+000  -0.000000e+000
    outer loop
      vertex  6.078782e+001 -3.532399e+001  0.000000e+000
      vertex  6.078782e+001 -7.653669e-001  1.815224e+001
      vertex  6.078782e+001 -3.901806e-001  1.803843e+001
    endloop
  endfacet
  facet normal -1.000000e+000  0.000000e+000  -0.000000e+000
    outer loop
      vertex  6.078782e+001 -3.532399e+001  0.000000e+000
      vertex  6.078782e+001 -3.901806e-001  1.803843e+001
      vertex  6.078782e+001  0.000000e+000  1.800000e+001
    endloop
  endfacet
  facet normal -1.000000e+000  0.000000e+000  -0.000000e+000
    outer loop
      vertex  6.078782e+001 -3.532399e+001  0.000000e+000
      vertex  6.078782e+001  0.000000e+000  1.800000e+001
      vertex  6.078782e+001  3.532302e+001  0.000000e+000
    endloop
  endfacet
  facet normal -1.000000e+000  0.000000e+000  0.000000e+000
    outer loop
      vertex  6.078782e+001  3.532302e+001  0.000000e+000
      vertex  6.078782e+001  0.000000e+000  1.800000e+001
      vertex  6.078782e+001  3.901806e-001  1.803843e+001
    endloop
  endfacet
  facet normal -1.000000e+000  0.000000e+000  0.000000e+000
    outer loop
      vertex  6.078782e+001  3.532302e+001  0.000000e+000
      vertex  6.078782e+001  3.901806e-001  1.803843e+001
      vertex  6.078782e+001  7.653669e-001  1.815224e+001
    endloop
  endfacet
  facet normal -1.000000e+000  0.000000e+000  0.000000e+000
    outer loop
      vertex  6.078782e+001  3.532302e+001  0.000000e+000
      vertex  6.078782e+001  7.653669e-001  1.815224e+001
      vertex  6.078782e+001  1.111140e+000  1.833706e+001
    endloop
  endfacet
  facet normal -9.999999e-001  0.000000e+000  0.000000e+000
    outer loop
      vertex  6.078782e+001  3.532302e+001  0.000000e+000
      vertex  6.078782e+001  1.111140e+000  1.833706e+001
      vertex  6.078782e+001  1.414214e+000  1.858579e+001
    endloop
  endfacet
  facet normal -1.000000e+000  0.000000e+000  0.000000e+000
    outer loop
      vertex  6.078782e+001  3.532302e+001  0.000000e+000
      vertex  6.078782e+001  1.414214e+000  1.858579e+001
      vertex  6.078782e+001  1.662939e+000  1.888886e+001
    endloop
  endfacet
  facet normal -1.000000e+000  0.000000e+000  0.000000e+000
    outer loop
      vertex  6.078782e+001  3.532302e+001  0.000000e+000
      vertex  6.078782e+001  1.662939e+000  1.888886e+001
      vertex  6.078782e+001  1.847759e+000  1.923463e+001
    endloop
  endfacet
  facet normal -9.999999e-001  0.000000e+000  0.000000e+000
    outer loop
      vertex  6.078782e+001  3.532302e+001  0.000000e+000
      vertex  6.078782e+001  1.847759e+000  1.923463e+001
      vertex  6.078782e+001  1.961571e+000  1.960982e+001
    endloop
  endfacet
  facet normal -1.000000e+000  0.000000e+000  0.000000e+000
    outer loop
      vertex  6.078782e+001  3.532302e+001  0.000000e+000
      vertex  6.078782e+001  1.961571e+000  1.960982e+001
      vertex  6.078782e+001  2.000000e+000  2.000000e+001
    endloop
  endfacet
  facet normal -1.000000e+000  0.000000e+000  0.000000e+000
    outer loop
      vertex  6.078782e+001  3.532302e+001  0.000000e+000
      vertex  6.078782e+001  2.000000e+000  2.000000e+001
      vertex  6.078782e+001  1.961571e+000  2.039018e+001
    endloop
  endfacet
  facet normal -1.000000e+000  0.000000e+000  0.000000e+000
    outer loop
      vertex  6.078782e+001  3.532302e+001  0.000000e+000
      vertex  6.078782e+001  1.961571e+000  2.039018e+001
      vertex  6.078782e+001  1.847759e+000  2.076537e+001
    endloop
  endfacet
  facet normal -1.000000e+000  0.000000e+000  0.000000e+000
    outer loop
      vertex  6.078782e+001  3.532302e+001  0.000000e+000
      vertex  6.078782e+001  1.847759e+000  2.076537e+001
      vertex  6.078782e+001  1.662939e+000  2.111114e+001
    endloop
  endfacet
  facet normal -1.000000e+000  0.000000e+000  0.000000e+000
    outer loop
      vertex  6.078782e+001  3.532302e+001  0.000000e+000
      vertex  6.078782e+001  1.662939e+000  2.111114e+001
      vertex  6.078782e+001  1.414214e+000  2.141421e+001
    endloop
  endfacet
  facet normal -1.000000e+000  0.000000e+000  0.000000e+000
    outer loop
      vertex  6.078782e+001  3.532302e+001  0.000000e+000
      vertex  6.078782e+001  1.414214e+000  2.141421e+001
      vertex  6.078782e+001  1.111140e+000  2.166294e+001
    endloop
  endfacet
  facet normal -1.000000e+000  0.000000e+000  0.000000e+000
    outer loop
      vertex  6.078782e+001  3.532302e+001  1.250000e+002
      vertex  6.078782e+001  3.532302e+001  0.000000e+000
      vertex  6.078782e+001  1.111140e+000  2.166294e+001
    endloop
  endfacet
  facet normal -9.999999e-001  0.000000e+000  0.000000e+000
    outer loop
      vertex  6.078782e+001  3.532302e+001  1.250000e+002
      vertex  6.078782e+001  1.111140e+000  2.166294e+001
      vertex  6.078782e+001  7.653669e-001  2.184776e+001
    endloop
  endfacet
  facet normal -1.000000e+000  0.000000e+000  0.000000e+000
    outer loop
      vertex  6.078782e+001  3.532302e+001  1.250000e+002
      vertex  6.078782e+001  7.653669e-001  2.184776e+001
      vertex  6.078782e+001  3.901806e-001  2.196157e+001
    endloop
  endfacet
  facet normal -9.999999e-001  0.000000e+000  0.000000e+000
    outer loop
      vertex  6.078782e+001  3.532302e+001  1.250000e+002
      vertex  6.078782e+001  3.901806e-001  2.196157e+001
      vertex  6.078782e+001  0.000000e+000  2.200000e+001
    endloop
  endfacet
  facet normal  0.000000e+000  0.000000e+000  1.000000e+000
    outer loop
      vertex  6.278782e+001  3.337241e+001  1.250000e+002
      vertex  6.180202e+001  3.436227e+001  1.250000e+002
      vertex  6.278782e+001 -3.337337e+001  1.250000e+002
    endloop
  endfacet
  facet normal  0.000000e+000  0.000000e+000  1.000000e+000
    outer loop
      vertex  6.278782e+001 -3.337337e+001  1.250000e+002
      vertex  6.180202e+001  3.436227e+001  1.250000e+002
      vertex  6.180202e+001 -3.436323e+001  1.250000e+002
    endloop
  endfacet
  facet normal  0.000000e+000  0.000000e+000  1.000000e+000
    outer loop
      vertex  6.180202e+001  3.436227e+001  1.250000e+002
      vertex  6.078782e+001  3.532302e+001  1.250000e+002
      vertex  6.180202e+001 -3.436323e+001  1.250000e+002
    endloop
  endfacet
  facet normal  0.000000e+000  0.000000e+000  1.000000e+000
    outer loop
      vertex  6.180202e+001 -3.436323e+001  1.250000e+002
      vertex  6.078782e+001  3.532302e+001  1.250000e+002
      vertex  6.078782e+001 -3.532399e+001  1.250000e+002
    endloop
  endfacet
  facet normal  0.000000e+000 -9.801669e-002 -9.951848e-001
    outer loop
      vertex  6.278782e+001  0.000000e+000  2.200000e+001
      vertex  6.078782e+001  3.901806e-001  2.196157e+001
      vertex  6.278782e+001  3.901806e-001  2.196157e+001
    endloop
  endfacet
  facet normal  -0.000000e+000 -2.902847e-001 -9.569404e-001
    outer loop
      vertex  6.278782e+001  3.901806e-001  2.196157e+001
      vertex  6.078782e+001  3.901806e-001  2.196157e+001
      vertex  6.078782e+001  7.653669e-001  2.184776e+001
    endloop
  endfacet
  facet normal  0.000000e+000 -2.902847e-001 -9.569404e-001
    outer loop
      vertex  6.278782e+001  3.901806e-001  2.196157e+001
      vertex  6.078782e+001  7.653669e-001  2.184776e+001
      vertex  6.278782e+001  7.653669e-001  2.184776e+001
    endloop
  endfacet
  facet normal  -0.000000e+000 -4.713974e-001 -8.819209e-001
    outer loop
      vertex  6.278782e+001  7.653669e-001  2.184776e+001
      vertex  6.078782e+001  7.653669e-001  2.184776e+001
      vertex  6.078782e+001  1.111140e+000  2.166294e+001
    endloop
  endfacet
  facet normal  0.000000e+000 -4.713974e-001 -8.819209e-001
    outer loop
      vertex  6.278782e+001  7.653669e-001  2.184776e+001
      vertex  6.078782e+001  1.111140e+000  2.166294e+001
      vertex  6.278782e+001  1.111140e+000  2.166294e+001
    endloop
  endfacet
  facet normal  -0.000000e+000 -6.343937e-001 -7.730101e-001
    outer loop
      vertex  6.278782e+001  1.111140e+000  2.166294e+001
      vertex  6.078782e+001  1.111140e+000  2.166294e+001
      vertex  6.078782e+001  1.414214e+000  2.141421e+001
    endloop
  endfacet
  facet normal  0.000000e+000 -6.343937e-001 -7.730101e-001
    outer loop
      vertex  6.278782e+001  1.111140e+000  2.166294e+001
      vertex  6.078782e+001  1.414214e+000  2.141421e+001
      vertex  6.278782e+001  1.414214e+000  2.141421e+001
    endloop
  endfacet
  facet normal  -0.000000e+000 -7.730093e-001 -6.343947e-001
    outer loop
      vertex  6.278782e+001  1.414214e+000  2.141421e+001
      vertex  6.078782e+001  1.414214e+000  2.141421e+001
      vertex  6.078782e+001  1.662939e+000  2.111114e+001
    endloop
  endfacet
  facet normal  0.000000e+000 -7.730093e-001 -6.343947e-001
    outer loop
      vertex  6.278782e+001  1.414214e+000  2.141421e+001
      vertex  6.078782e+001  1.662939e+000  2.111114e+001
      vertex  6.278782e+001  1.662939e+000  2.111114e+001
    endloop
  endfacet
  facet normal  -0.000000e+000 -8.819214e-001 -4.713966e-001
    outer loop
      vertex  6.278782e+001  1.662939e+000  2.111114e+001
      vertex  6.078782e+001  1.662939e+000  2.111114e+001
      vertex  6.078782e+001  1.847759e+000  2.076537e+001
    endloop
  endfacet
  facet normal  0.000000e+000 -8.819214e-001 -4.713966e-001
    outer loop
      vertex  6.278782e+001  1.662939e+000  2.111114e+001
      vertex  6.078782e+001  1.847759e+000  2.076537e+001
      vertex  6.278782e+001  1.847759e+000  2.076537e+001
    endloop
  endfacet
  facet normal  -0.000000e+000 -9.569405e-001 -2.902842e-001
    outer loop
      vertex  6.278782e+001  1.847759e+000  2.076537e+001
      vertex  6.078782e+001  1.847759e+000  2.076537e+001
      vertex  6.078782e+001  1.961571e+000  2.039018e+001
    endloop
  endfacet
  facet normal  0.000000e+000 -9.569405e-001 -2.902842e-001
    outer loop
      vertex  6.278782e+001  1.847759e+000  2.076537e+001
      vertex  6.078782e+001  1.961571e+000  2.039018e+001
      vertex  6.278782e+001  1.961571e+000  2.039018e+001
    endloop
  endfacet
  facet normal  -0.000000e+000 -9.951848e-001 -9.801731e-002
    outer loop
      vertex  6.278782e+001  1.961571e+000  2.039018e+001
      vertex  6.078782e+001  1.961571e+000  2.039018e+001
      vertex  6.078782e+001  2.000000e+000  2.000000e+001
    endloop
  endfacet
  facet normal  0.000000e+000 -9.951848e-001 -9.801731e-002
    outer loop
      vertex  6.278782e+001  1.961571e+000  2.039018e+001
      vertex  6.078782e+001  2.000000e+000  2.000000e+001
      vertex  6.278782e+001  2.000000e+000  2.000000e+001
    endloop
  endfacet
  facet normal  -0.000000e+000 -9.801669e-002 -9.951848e-001
    outer loop
      vertex  6.078782e+001  3.901806e-001  2.196157e+001
      vertex  6.278782e+001  0.000000e+000  2.200000e+001
      vertex  6.078782e+001  0.000000e+000  2.200000e+001
    endloop
  endfacet
  facet normal  0.000000e+000  9.801669e-002 -9.951848e-001
    outer loop
      vertex  6.078782e+001  0.000000e+000  2.200000e+001
      vertex  6.278782e+001  0.000000e+000  2.200000e+001
      vertex  6.278782e+001 -3.901806e-001  2.196157e+001
    endloop
  endfacet
  facet normal  0.000000e+000  9.801669e-002 -9.951848e-001
    outer loop
      vertex  6.078782e+001  0.000000e+000  2.200000e+001
      vertex  6.278782e+001 -3.901806e-001  2.196157e+001
      vertex  6.078782e+001 -3.901806e-001  2.196157e+001
    endloop
  endfacet
  facet normal  0.000000e+000  2.902847e-001 -9.569404e-001
    outer loop
      vertex  6.078782e+001 -3.901806e-001  2.196157e+001
      vertex  6.278782e+001 -3.901806e-001  2.196157e+001
      vertex  6.278782e+001 -7.653669e-001  2.184776e+001
    endloop
  endfacet
  facet normal  0.000000e+000  2.902847e-001 -9.569404e-001
    outer loop
      vertex  6.078782e+001 -3.901806e-001  2.196157e+001
      vertex  6.278782e+001 -7.653669e-001  2.184776e+001
      vertex  6.078782e+001 -7.653669e-001  2.184776e+001
    endloop
  endfacet
  facet normal  0.000000e+000  4.713974e-001 -8.819209e-001
    outer loop
      vertex  6.078782e+001 -7.653669e-001  2.184776e+001
      vertex  6.278782e+001 -7.653669e-001  2.184776e+001
      vertex  6.278782e+001 -1.111140e+000  2.166294e+001
    endloop
  endfacet
  facet normal  0.000000e+000  4.713974e-001 -8.819209e-001
    outer loop
      vertex  6.078782e+001 -7.653669e-001  2.184776e+001
      vertex  6.278782e+001 -1.111140e+000  2.166294e+001
      vertex  6.078782e+001 -1.111140e+000  2.166294e+001
    endloop
  endfacet
  facet normal  0.000000e+000  6.343937e-001 -7.730101e-001
    outer loop
      vertex  6.078782e+001 -1.111140e+000  2.166294e+001
      vertex  6.278782e+001 -1.111140e+000  2.166294e+001
      vertex  6.278782e+001 -1.414214e+000  2.141421e+001
    endloop
  endfacet
  facet normal  0.000000e+000  6.343937e-001 -7.730101e-001
    outer loop
      vertex  6.078782e+001 -1.111140e+000  2.166294e+001
      vertex  6.278782e+001 -1.414214e+000  2.141421e+001
      vertex  6.078782e+001 -1.414214e+000  2.141421e+001
    endloop
  endfacet
  facet normal  0.000000e+000  7.730093e-001 -6.343947e-001
    outer loop
      vertex  6.078782e+001 -1.414214e+000  2.141421e+001
      vertex  6.278782e+001 -1.414214e+000  2.141421e+001
      vertex  6.278782e+001 -1.662939e+000  2.111114e+001
    endloop
  endfacet
  facet normal  0.000000e+000  7.730093e-001 -6.343947e-001
    outer loop
      vertex  6.078782e+001 -1.414214e+000  2.141421e+001
      vertex  6.278782e+001 -1.662939e+000  2.111114e+001
      vertex  6.078782e+001 -1.662939e+000  2.111114e+001
    endloop
  endfacet
  facet normal  0.000000e+000  8.819214e-001 -4.713966e-001
    outer loop
      vertex  6.078782e+001 -1.662939e+000  2.111114e+001
      vertex  6.278782e+001 -1.662939e+000  2.111114e+001
      vertex  6.278782e+001 -1.847759e+000  2.076537e+001
    endloop
  endfacet
  facet normal  0.000000e+000  8.819214e-001 -4.713966e-001
    outer loop
      vertex  6.078782e+001 -1.662939e+000  2.111114e+001
      vertex  6.278782e+001 -1.847759e+000  2.076537e+001
      vertex  6.078782e+001 -1.847759e+000  2.076537e+001
    endloop
  endfacet
  facet normal  0.000000e+000  9.569405e-001 -2.902842e-001
    outer loop
      vertex  6.078782e+001 -1.847759e+000  2.076537e+001
      vertex  6.278782e+001 -1.847759e+000  2.076537e+001
      vertex  6.278782e+001 -1.961571e+000  2.039018e+001
    endloop
  endfacet
  facet normal  0.000000e+000  9.569405e-001 -2.902842e-001
    outer loop
      vertex  6.078782e+001 -1.847759e+000  2.076537e+001
      vertex  6.278782e+001 -1.961571e+000  2.039018e+001
      vertex  6.078782e+001 -1.961571e+000  2.039018e+001
    endloop
  endfacet
  facet normal  0.000000e+000  9.951848e-001 -9.801731e-002
    outer loop
      vertex  6.078782e+001 -1.961571e+000  2.039018e+001
      vertex  6.278782e+001 -1.961571e+000  2.039018e+001
      vertex  6.278782e+001 -2.000000e+000  2.000000e+001
    endloop
  endfacet
  facet normal  0.000000e+000  9.951848e-001 -9.801731e-002
    outer loop
      vertex  6.078782e+001 -1.961571e+000  2.039018e+001
      vertex  6.278782e+001 -2.000000e+000  2.000000e+001
      vertex  6.078782e+001 -2.000000e+000  2.000000e+001
    endloop
  endfacet
  facet normal  -0.000000e+000  9.801669e-002  9.951848e-001
    outer loop
      vertex  6.278782e+001  0.000000e+000  1.800000e+001
      vertex  6.078782e+001 -3.901806e-001  1.803843e+001
      vertex  6.278782e+001 -3.901806e-001  1.803843e+001
    endloop
  endfacet
  facet normal  0.000000e+000  2.902847e-001  9.569404e-001
    outer loop
      vertex  6.278782e+001 -3.901806e-001  1.803843e+001
      vertex  6.078782e+001 -3.901806e-001  1.803843e+001
      vertex  6.078782e+001 -7.653669e-001  1.815224e+001
    endloop
  endfacet
  facet normal  -0.000000e+000  2.902847e-001  9.569404e-001
    outer loop
      vertex  6.278782e+001 -3.901806e-001  1.803843e+001
      vertex  6.078782e+001 -7.653669e-001  1.815224e+001
      vertex  6.278782e+001 -7.653669e-001  1.815224e+001
    endloop
  endfacet
  facet normal  0.000000e+000  4.713974e-001  8.819209e-001
    outer loop
      vertex  6.278782e+001 -7.653669e-001  1.815224e+001
      vertex  6.078782e+001 -7.653669e-001  1.815224e+001
      vertex  6.078782e+001 -1.111140e+000  1.833706e+001
    endloop
  endfacet
  facet normal  -0.000000e+000  4.713974e-001  8.819209e-001
    outer loop
      vertex  6.278782e+001 -7.653669e-001  1.815224e+001
      vertex  6.078782e+001 -1.111140e+000  1.833706e+001
      vertex  6.278782e+001 -1.111140e+000  1.833706e+001
    endloop
  endfacet
  facet normal  0.000000e+000  6.343937e-001  7.730101e-001
    outer loop
      vertex  6.278782e+001 -1.111140e+000  1.833706e+001
      vertex  6.078782e+001 -1.111140e+000  1.833706e+001
      vertex  6.078782e+001 -1.414214e+000  1.858579e+001
    endloop
  endfacet
  facet normal  -0.000000e+000  6.343937e-001  7.730101e-001
    outer loop
      vertex  6.278782e+001 -1.111140e+000  1.833706e+001
      vertex  6.078782e+001 -1.414214e+000  1.858579e+001
      vertex  6.278782e+001 -1.414214e+000  1.858579e+001
    endloop
  endfacet
  facet normal  0.000000e+000  7.730093e-001  6.343947e-001
    outer loop
      vertex  6.278782e+001 -1.414214e+000  1.858579e+001
      vertex  6.078782e+001 -1.414214e+000  1.858579e+001
      vertex  6.078782e+001 -1.662939e+000  1.888886e+001
    endloop
  endfacet
  facet normal  -0.000000e+000  7.730093e-001  6.343947e-001
    outer loop
      vertex  6.278782e+001 -1.414214e+000  1.858579e+001
      vertex  6.078782e+001 -1.662939e+000  1.888886e+001
      vertex  6.278782e+001 -1.662939e+000  1.888886e+001
    endloop
  endfacet
  facet normal  0.000000e+000  8.819214e-001  4.713966e-001
    outer loop
      vertex  6.278782e+001 -1.662939e+000  1.888886e+001
      vertex  6.078782e+001 -1.662939e+000  1.888886e+001
      vertex  6.078782e+001 -1.847759e+000  1.923463e+001
    endloop
  endfacet
  facet normal  -0.000000e+000  8.819214e-001  4.713966e-001
    outer loop
      vertex  6.278782e+001 -1.662939e+000  1.888886e+001
      vertex  6.078782e+001 -1.847759e+000  1.923463e+001
      vertex  6.278782e+001 -1.847759e+000  1.923463e+001
    endloop
  endfacet
  facet normal  0.000000e+000  9.569405e-001  2.902842e-001
    outer loop
      vertex  6.278782e+001 -1.847759e+000  1.923463e+001
      vertex  6.078782e+001 -1.847759e+000  1.923463e+001
      vertex  6.078782e+001 -1.961571e+000  1.960982e+001
    endloop
  endfacet
  facet normal  -0.000000e+000  9.569405e-001  2.902842e-001
    outer loop
      vertex  6.278782e+001 -1.847759e+000  1.923463e+001
      vertex  6.078782e+001 -1.961571e+000  1.960982e+001
      vertex  6.278782e+001 -1.961571e+000  1.960982e+001
    endloop
  endfacet
  facet normal  0.000000e+000  9.951848e-001  9.801731e-002
    outer loop
      vertex  6.278782e+001 -1.961571e+000  1.960982e+001
      vertex  6.078782e+001 -1.961571e+000  1.960982e+001
      vertex  6.078782e+001 -2.000000e+000  2.000000e+001
    endloop
  endfacet
  facet normal  -0.000000e+000  9.951848e-001  9.801731e-002
    outer loop
      vertex  6.278782e+001 -1.961571e+000  1.960982e+001
      vertex  6.078782e+001 -2.000000e+000  2.000000e+001
      vertex  6.278782e+001 -2.000000e+000  2.000000e+001
    endloop
  endfacet
  facet normal  0.000000e+000  9.801669e-002  9.951848e-001
    outer loop
      vertex  6.078782e+001 -3.901806e-001  1.803843e+001
      vertex  6.278782e+001  0.000000e+000  1.800000e+001
      vertex  6.078782e+001  0.000000e+000  1.800000e+001
    endloop
  endfacet
  facet normal  0.000000e+000 -9.801669e-002  9.951848e-001
    outer loop
      vertex  6.078782e+001  0.000000e+000  1.800000e+001
      vertex  6.278782e+001  0.000000e+000  1.800000e+001
      vertex  6.278782e+001  3.901806e-001  1.803843e+001
    endloop
  endfacet
  facet normal  0.000000e+000 -9.801669e-002  9.951848e-001
    outer loop
      vertex  6.078782e+001  0.000000e+000  1.800000e+001
      vertex  6.278782e+001  3.901806e-001  1.803843e+001
      vertex  6.078782e+001  3.901806e-001  1.803843e+001
    endloop
  endfacet
  facet normal  0.000000e+000 -2.902847e-001  9.569404e-001
    outer loop
      vertex  6.078782e+001  3.901806e-001  1.803843e+001
      vertex  6.278782e+001  3.901806e-001  1.803843e+001
      vertex  6.278782e+001  7.653669e-001  1.815224e+001
    endloop
  endfacet
  facet normal  0.000000e+000 -2.902847e-001  9.569404e-001
    outer loop
      vertex  6.078782e+001  3.901806e-001  1.803843e+001
      vertex  6.278782e+001  7.653669e-001  1.815224e+001
      vertex  6.078782e+001  7.653669e-001  1.815224e+001
    endloop
  endfacet
  facet normal  0.000000e+000 -4.713974e-001  8.819209e-001
    outer loop
      vertex  6.078782e+001  7.653669e-001  1.815224e+001
      vertex  6.278782e+001  7.653669e-001  1.815224e+001
      vertex  6.278782e+001  1.111140e+000  1.833706e+001
    endloop
  endfacet
  facet normal  0.000000e+000 -4.713974e-001  8.819209e-001
    outer loop
      vertex  6.078782e+001  7.653669e-001  1.815224e+001
      vertex  6.278782e+001  1.111140e+000  1.833706e+001
      vertex  6.078782e+001  1.111140e+000  1.833706e+001
    endloop
  endfacet
  facet normal  0.000000e+000 -6.343937e-001  7.730101e-001
    outer loop
      vertex  6.078782e+001  1.111140e+000  1.833706e+001
      vertex  6.278782e+001  1.111140e+000  1.833706e+001
      vertex  6.278782e+001  1.414214e+000  1.858579e+001
    endloop
  endfacet
  facet normal  0.000000e+000 -6.343937e-001  7.730101e-001
    outer loop
      vertex  6.078782e+001  1.111140e+000  1.833706e+001
      vertex  6.278782e+001  1.414214e+000  1.858579e+001
      vertex  6.078782e+001  1.414214e+000  1.858579e+001
    endloop
  endfacet
  facet normal  0.000000e+000 -7.730093e-001  6.343947e-001
    outer loop
      vertex  6.078782e+001  1.414214e+000  1.858579e+001
      vertex  6.278782e+001  1.414214e+000  1.858579e+001
      vertex  6.278782e+001  1.662939e+000  1.888886e+001
    endloop
  endfacet
  facet normal  0.000000e+000 -7.730093e-001  6.343947e-001
    outer loop
      vertex  6.078782e+001  1.414214e+000  1.858579e+001
      vertex  6.278782e+001  1.662939e+000  1.888886e+001
      vertex  6.078782e+001  1.662939e+000  1.888886e+001
    endloop
  endfacet
  facet normal  0.000000e+000 -8.819214e-001  4.713966e-001
    outer loop
      vertex  6.078782e+001  1.662939e+000  1.888886e+001
      vertex  6.278782e+001  1.662939e+000  1.888886e+001
      vertex  6.278782e+001  1.847759e+000  1.923463e+001
    endloop
  endfacet
  facet normal  0.000000e+000 -8.819214e-001  4.713966e-001
    outer loop
      vertex  6.078782e+001  1.662939e+000  1.888886e+001
      vertex  6.278782e+001  1.847759e+000  1.923463e+001
      vertex  6.078782e+001  1.847759e+000  1.923463e+001
    endloop
  endfacet
  facet normal  0.000000e+000 -9.569405e-001  2.902842e-001
    outer loop
      vertex  6.078782e+001  1.847759e+000  1.923463e+001
      vertex  6.278782e+001  1.847759e+000  1.923463e+001
      vertex  6.278782e+001  1.961571e+000  1.960982e+001
    endloop
  endfacet
  facet normal  0.000000e+000 -9.569405e-001  2.902842e-001
    outer loop
      vertex  6.078782e+001  1.847759e+000  1.923463e+001
      vertex  6.278782e+001  1.961571e+000  1.960982e+001
      vertex  6.078782e+001  1.961571e+000  1.960982e+001
    endloop
  endfacet
  facet normal  0.000000e+000 -9.951848e-001  9.801731e-002
    outer loop
      vertex  6.078782e+001  1.961571e+000  1.960982e+001
      vertex  6.278782e+001  1.961571e+000  1.960982e+001
      vertex  6.278782e+001  2.000000e+000  2.000000e+001
    endloop
  endfacet
  facet normal  0.000000e+000 -9.951848e-001  9.801731e-002
    outer loop
      vertex  6.078782e+001  1.961571e+000  1.960982e+001
      vertex  6.278782e+001  2.000000e+000  2.000000e+001
      vertex  6.078782e+001  2.000000e+000  2.000000e+001
    endloop
  endfacet
  facet normal  0.000000e+000  0.000000e+000 -1.000000e+000
    outer loop
      vertex  6.180202e+001 -3.436323e+001  0.000000e+000
      vertex  6.078782e+001 -3.532399e+001  0.000000e+000
      vertex  6.278782e+001 -3.337337e+001  0.000000e+000
    endloop
  endfacet
  facet normal  0.000000e+000  0.000000e+000 -1.000000e+000
    outer loop
      vertex  6.180202e+001  3.436227e+001  0.000000e+000
      vertex  6.278782e+001  3.337241e+001  0.000000e+000
      vertex  6.078782e+001  3.532302e+001  0.000000e+000
    endloop
  endfacet
  facet normal  0.000000e+000  0.000000e+000 -1.000000e+000
    outer loop
      vertex  6.078782e+001  3.532302e+001  0.000000e+000
      vertex  6.278782e+001  3.337241e+001  0.000000e+000
      vertex  6.278782e+001 -3.337337e+001  0.000000e+000
    endloop
  endfacet
  facet normal  -0.000000e+000  0.000000e+000 -1.000000e+000
    outer loop
      vertex  6.078782e+001  3.532302e+001  0.000000e+000
      vertex  6.278782e+001 -3.337337e+001  0.000000e+000
      vertex  6.078782e+001 -3.532399e+001  0.000000e+000
    endloop
  endfacet
endsolid CATIA STL
