solid CATIA STL
  facet normal  -0.000000e+000  1.000000e+000  0.000000e+000
    outer loop
      vertex -2.855256e+001  2.500000e+001  3.858434e+001
      vertex -2.703054e+001  2.500000e+001  3.966547e+001
      vertex -1.022284e+001  2.500000e+001  3.970508e+001
    endloop
  endfacet
  facet normal  0.000000e+000  1.000000e+000  0.000000e+000
    outer loop
      vertex -2.855256e+001  2.500000e+001  3.858434e+001
      vertex -1.022284e+001  2.500000e+001  3.970508e+001
      vertex -1.191180e+001  2.500000e+001  3.923148e+001
    endloop
  endfacet
  facet normal  0.000000e+000  1.000000e+000  0.000000e+000
    outer loop
      vertex -2.855256e+001  2.500000e+001  3.858434e+001
      vertex -1.191180e+001  2.500000e+001  3.923148e+001
      vertex -1.357895e+001  2.500000e+001  3.868607e+001
    endloop
  endfacet
  facet normal  0.000000e+000  1.000000e+000  0.000000e+000
    outer loop
      vertex -2.855256e+001  2.500000e+001  3.858434e+001
      vertex -1.357895e+001  2.500000e+001  3.868607e+001
      vertex -1.522126e+001  2.500000e+001  3.806985e+001
    endloop
  endfacet
  facet normal  0.000000e+000  1.000000e+000  0.000000e+000
    outer loop
      vertex -2.855256e+001  2.500000e+001  3.858434e+001
      vertex -1.522126e+001  2.500000e+001  3.806985e+001
      vertex -1.683570e+001  2.500000e+001  3.738395e+001
    endloop
  endfacet
  facet normal  0.000000e+000  1.000000e+000  0.000000e+000
    outer loop
      vertex -2.855256e+001  2.500000e+001  3.858434e+001
      vertex -1.683570e+001  2.500000e+001  3.738395e+001
      vertex -1.841932e+001  2.500000e+001  3.662961e+001
    endloop
  endfacet
  facet normal  0.000000e+000  1.000000e+000  0.000000e+000
    outer loop
      vertex -2.855256e+001  2.500000e+001  3.858434e+001
      vertex -1.841932e+001  2.500000e+001  3.662961e+001
      vertex -1.996923e+001  2.500000e+001  3.580824e+001
    endloop
  endfacet
  facet normal  0.000000e+000  1.000000e+000  0.000000e+000
    outer loop
      vertex -2.855256e+001  2.500000e+001  3.858434e+001
      vertex -1.996923e+001  2.500000e+001  3.580824e+001
      vertex -2.148259e+001  2.500000e+001  3.492131e+001
    endloop
  endfacet
  facet normal  0.000000e+000  9.999999e-001  0.000000e+000
    outer loop
      vertex -2.855256e+001  2.500000e+001  3.858434e+001
      vertex -2.148259e+001  2.500000e+001  3.492131e+001
      vertex -2.295663e+001  2.500000e+001  3.397047e+001
    endloop
  endfacet
  facet normal  0.000000e+000  1.000000e+000  0.000000e+000
    outer loop
      vertex -2.855256e+001  2.500000e+001  3.858434e+001
      vertex -2.295663e+001  2.500000e+001  3.397047e+001
      vertex -2.438865e+001  2.500000e+001  3.295745e+001
    endloop
  endfacet
  facet normal  0.000000e+000  1.000000e+000  -0.000000e+000
    outer loop
      vertex -8.515166e+000  2.500000e+001  4.010601e+001
      vertex -1.022284e+001  2.500000e+001  3.970508e+001
      vertex -2.703054e+001  2.500000e+001  3.966547e+001
    endloop
  endfacet
  facet normal  0.000000e+000  1.000000e+000  0.000000e+000
    outer loop
      vertex -8.515166e+000  2.500000e+001  4.010601e+001
      vertex -2.703054e+001  2.500000e+001  3.966547e+001
      vertex -2.546763e+001  2.500000e+001  4.068660e+001
    endloop
  endfacet
  facet normal  -0.000000e+000  1.000000e+000  0.000000e+000
    outer loop
      vertex -8.515166e+000  2.500000e+001  4.010601e+001
      vertex -2.546763e+001  2.500000e+001  4.068660e+001
      vertex -2.386620e+001  2.500000e+001  4.164618e+001
    endloop
  endfacet
  facet normal  -0.000000e+000  1.000000e+000  0.000000e+000
    outer loop
      vertex -8.515166e+000  2.500000e+001  4.010601e+001
      vertex -2.386620e+001  2.500000e+001  4.164618e+001
      vertex -2.222866e+001  2.500000e+001  4.254277e+001
    endloop
  endfacet
  facet normal  -0.000000e+000  1.000000e+000  0.000000e+000
    outer loop
      vertex -8.515166e+000  2.500000e+001  4.010601e+001
      vertex -2.222866e+001  2.500000e+001  4.254277e+001
      vertex -2.055749e+001  2.500000e+001  4.337499e+001
    endloop
  endfacet
  facet normal  -0.000000e+000  9.999999e-001  0.000000e+000
    outer loop
      vertex -8.515166e+000  2.500000e+001  4.010601e+001
      vertex -2.055749e+001  2.500000e+001  4.337499e+001
      vertex -1.885522e+001  2.500000e+001  4.414160e+001
    endloop
  endfacet
  facet normal  -0.000000e+000  1.000000e+000  0.000000e+000
    outer loop
      vertex -8.515166e+000  2.500000e+001  4.010601e+001
      vertex -1.885522e+001  2.500000e+001  4.414160e+001
      vertex -1.712444e+001  2.500000e+001  4.484143e+001
    endloop
  endfacet
  facet normal  -0.000000e+000  9.999999e-001  0.000000e+000
    outer loop
      vertex -8.515166e+000  2.500000e+001  4.010601e+001
      vertex -1.712444e+001  2.500000e+001  4.484143e+001
      vertex -1.536774e+001  2.500000e+001  4.547343e+001
    endloop
  endfacet
  facet normal  -0.000000e+000  1.000000e+000  0.000000e+000
    outer loop
      vertex -8.515166e+000  2.500000e+001  4.010601e+001
      vertex -1.536774e+001  2.500000e+001  4.547343e+001
      vertex -1.358780e+001  2.500000e+001  4.603663e+001
    endloop
  endfacet
  facet normal  -0.000000e+000  1.000000e+000  0.000000e+000
    outer loop
      vertex -8.515166e+000  2.500000e+001  4.010601e+001
      vertex -1.358780e+001  2.500000e+001  4.603663e+001
      vertex -1.178730e+001  2.500000e+001  4.653020e+001
    endloop
  endfacet
  facet normal  -0.000000e+000  1.000000e+000  0.000000e+000
    outer loop
      vertex -8.515166e+000  2.500000e+001  4.010601e+001
      vertex -1.178730e+001  2.500000e+001  4.653020e+001
      vertex -9.968975e+000  2.500000e+001  4.695338e+001
    endloop
  endfacet
  facet normal  0.000000e+000 -1.000000e+000  0.000000e+000
    outer loop
      vertex -2.855256e+001  0.000000e+000  3.858434e+001
      vertex -2.438865e+001  0.000000e+000  3.295745e+001
      vertex -2.295663e+001  0.000000e+000  3.397047e+001
    endloop
  endfacet
  facet normal  0.000000e+000 -9.999999e-001  0.000000e+000
    outer loop
      vertex -2.855256e+001  0.000000e+000  3.858434e+001
      vertex -2.295663e+001  0.000000e+000  3.397047e+001
      vertex -2.148259e+001  0.000000e+000  3.492131e+001
    endloop
  endfacet
  facet normal  0.000000e+000 -1.000000e+000  0.000000e+000
    outer loop
      vertex -2.855256e+001  0.000000e+000  3.858434e+001
      vertex -2.148259e+001  0.000000e+000  3.492131e+001
      vertex -1.996923e+001  0.000000e+000  3.580824e+001
    endloop
  endfacet
  facet normal  0.000000e+000 -1.000000e+000  0.000000e+000
    outer loop
      vertex -2.855256e+001  0.000000e+000  3.858434e+001
      vertex -1.996923e+001  0.000000e+000  3.580824e+001
      vertex -1.841932e+001  0.000000e+000  3.662961e+001
    endloop
  endfacet
  facet normal  0.000000e+000 -1.000000e+000  0.000000e+000
    outer loop
      vertex -2.855256e+001  0.000000e+000  3.858434e+001
      vertex -1.841932e+001  0.000000e+000  3.662961e+001
      vertex -1.683570e+001  0.000000e+000  3.738395e+001
    endloop
  endfacet
  facet normal  0.000000e+000 -1.000000e+000  0.000000e+000
    outer loop
      vertex -2.855256e+001  0.000000e+000  3.858434e+001
      vertex -1.683570e+001  0.000000e+000  3.738395e+001
      vertex -1.522126e+001  0.000000e+000  3.806985e+001
    endloop
  endfacet
  facet normal  0.000000e+000 -1.000000e+000  0.000000e+000
    outer loop
      vertex -2.855256e+001  0.000000e+000  3.858434e+001
      vertex -1.522126e+001  0.000000e+000  3.806985e+001
      vertex -1.357895e+001  0.000000e+000  3.868607e+001
    endloop
  endfacet
  facet normal  -0.000000e+000 -1.000000e+000  0.000000e+000
    outer loop
      vertex -2.855256e+001  0.000000e+000  3.858434e+001
      vertex -1.357895e+001  0.000000e+000  3.868607e+001
      vertex -1.191180e+001  0.000000e+000  3.923148e+001
    endloop
  endfacet
  facet normal  -0.000000e+000 -1.000000e+000  0.000000e+000
    outer loop
      vertex -2.855256e+001  0.000000e+000  3.858434e+001
      vertex -1.191180e+001  0.000000e+000  3.923148e+001
      vertex -1.022284e+001  0.000000e+000  3.970508e+001
    endloop
  endfacet
  facet normal  0.000000e+000 -1.000000e+000  0.000000e+000
    outer loop
      vertex -2.855256e+001  0.000000e+000  3.858434e+001
      vertex -1.022284e+001  0.000000e+000  3.970508e+001
      vertex -2.703054e+001  0.000000e+000  3.966547e+001
    endloop
  endfacet
  facet normal  0.000000e+000 -1.000000e+000  -0.000000e+000
    outer loop
      vertex -8.515166e+000  0.000000e+000  4.010601e+001
      vertex -9.968975e+000  0.000000e+000  4.695338e+001
      vertex -1.178730e+001  0.000000e+000  4.653020e+001
    endloop
  endfacet
  facet normal  0.000000e+000 -1.000000e+000  -0.000000e+000
    outer loop
      vertex -8.515166e+000  0.000000e+000  4.010601e+001
      vertex -1.178730e+001  0.000000e+000  4.653020e+001
      vertex -1.358780e+001  0.000000e+000  4.603663e+001
    endloop
  endfacet
  facet normal  0.000000e+000 -1.000000e+000  -0.000000e+000
    outer loop
      vertex -8.515166e+000  0.000000e+000  4.010601e+001
      vertex -1.358780e+001  0.000000e+000  4.603663e+001
      vertex -1.536774e+001  0.000000e+000  4.547343e+001
    endloop
  endfacet
  facet normal  0.000000e+000 -9.999999e-001  -0.000000e+000
    outer loop
      vertex -8.515166e+000  0.000000e+000  4.010601e+001
      vertex -1.536774e+001  0.000000e+000  4.547343e+001
      vertex -1.712444e+001  0.000000e+000  4.484143e+001
    endloop
  endfacet
  facet normal  0.000000e+000 -1.000000e+000  -0.000000e+000
    outer loop
      vertex -8.515166e+000  0.000000e+000  4.010601e+001
      vertex -1.712444e+001  0.000000e+000  4.484143e+001
      vertex -1.885522e+001  0.000000e+000  4.414160e+001
    endloop
  endfacet
  facet normal  0.000000e+000 -9.999999e-001  -0.000000e+000
    outer loop
      vertex -8.515166e+000  0.000000e+000  4.010601e+001
      vertex -1.885522e+001  0.000000e+000  4.414160e+001
      vertex -2.055749e+001  0.000000e+000  4.337499e+001
    endloop
  endfacet
  facet normal  0.000000e+000 -1.000000e+000  -0.000000e+000
    outer loop
      vertex -8.515166e+000  0.000000e+000  4.010601e+001
      vertex -2.055749e+001  0.000000e+000  4.337499e+001
      vertex -2.222866e+001  0.000000e+000  4.254277e+001
    endloop
  endfacet
  facet normal  0.000000e+000 -1.000000e+000  -0.000000e+000
    outer loop
      vertex -8.515166e+000  0.000000e+000  4.010601e+001
      vertex -2.222866e+001  0.000000e+000  4.254277e+001
      vertex -2.386620e+001  0.000000e+000  4.164618e+001
    endloop
  endfacet
  facet normal  0.000000e+000 -1.000000e+000  -0.000000e+000
    outer loop
      vertex -8.515166e+000  0.000000e+000  4.010601e+001
      vertex -2.386620e+001  0.000000e+000  4.164618e+001
      vertex -2.546763e+001  0.000000e+000  4.068660e+001
    endloop
  endfacet
  facet normal  0.000000e+000 -1.000000e+000  -0.000000e+000
    outer loop
      vertex -8.515166e+000  0.000000e+000  4.010601e+001
      vertex -2.546763e+001  0.000000e+000  4.068660e+001
      vertex -2.703054e+001  0.000000e+000  3.966547e+001
    endloop
  endfacet
  facet normal  0.000000e+000 -1.000000e+000  0.000000e+000
    outer loop
      vertex -8.515166e+000  0.000000e+000  4.010601e+001
      vertex -2.703054e+001  0.000000e+000  3.966547e+001
      vertex -1.022284e+001  0.000000e+000  3.970508e+001
    endloop
  endfacet
  facet normal -8.038405e-001  -0.000000e+000 -5.948449e-001
    outer loop
      vertex -2.855256e+001  0.000000e+000  3.858434e+001
      vertex -2.855256e+001  2.500000e+001  3.858434e+001
      vertex -2.438865e+001  0.000000e+000  3.295745e+001
    endloop
  endfacet
  facet normal -8.038405e-001  0.000000e+000 -5.948449e-001
    outer loop
      vertex -2.438865e+001  0.000000e+000  3.295745e+001
      vertex -2.855256e+001  2.500000e+001  3.858434e+001
      vertex -2.438865e+001  2.500000e+001  3.295745e+001
    endloop
  endfacet
  facet normal  3.910266e-001  0.000000e+000 -9.203793e-001
    outer loop
      vertex -1.683570e+001  0.000000e+000  3.738395e+001
      vertex -1.522126e+001  2.500000e+001  3.806985e+001
      vertex -1.522126e+001  0.000000e+000  3.806985e+001
    endloop
  endfacet
  facet normal  3.513030e-001  0.000000e+000 -9.362618e-001
    outer loop
      vertex -1.522126e+001  0.000000e+000  3.806985e+001
      vertex -1.522126e+001  2.500000e+001  3.806985e+001
      vertex -1.357895e+001  2.500000e+001  3.868607e+001
    endloop
  endfacet
  facet normal  3.513030e-001  0.000000e+000 -9.362618e-001
    outer loop
      vertex -1.522126e+001  0.000000e+000  3.806985e+001
      vertex -1.357895e+001  2.500000e+001  3.868607e+001
      vertex -1.357895e+001  0.000000e+000  3.868607e+001
    endloop
  endfacet
  facet normal  3.109337e-001  0.000000e+000 -9.504316e-001
    outer loop
      vertex -1.357895e+001  0.000000e+000  3.868607e+001
      vertex -1.357895e+001  2.500000e+001  3.868607e+001
      vertex -1.191180e+001  2.500000e+001  3.923148e+001
    endloop
  endfacet
  facet normal  3.109337e-001  0.000000e+000 -9.504316e-001
    outer loop
      vertex -1.357895e+001  0.000000e+000  3.868607e+001
      vertex -1.191180e+001  2.500000e+001  3.923148e+001
      vertex -1.191180e+001  0.000000e+000  3.923148e+001
    endloop
  endfacet
  facet normal  2.699965e-001  0.000000e+000 -9.628614e-001
    outer loop
      vertex -1.191180e+001  0.000000e+000  3.923148e+001
      vertex -1.191180e+001  2.500000e+001  3.923148e+001
      vertex -1.022284e+001  2.500000e+001  3.970508e+001
    endloop
  endfacet
  facet normal  2.699965e-001  0.000000e+000 -9.628614e-001
    outer loop
      vertex -1.191180e+001  0.000000e+000  3.923148e+001
      vertex -1.022284e+001  2.500000e+001  3.970508e+001
      vertex -1.022284e+001  0.000000e+000  3.970508e+001
    endloop
  endfacet
  facet normal  2.285658e-001  0.000000e+000 -9.735284e-001
    outer loop
      vertex -1.022284e+001  0.000000e+000  3.970508e+001
      vertex -1.022284e+001  2.500000e+001  3.970508e+001
      vertex -8.515166e+000  2.500000e+001  4.010601e+001
    endloop
  endfacet
  facet normal  2.285658e-001  0.000000e+000 -9.735284e-001
    outer loop
      vertex -1.022284e+001  0.000000e+000  3.970508e+001
      vertex -8.515166e+000  2.500000e+001  4.010601e+001
      vertex -8.515166e+000  0.000000e+000  4.010601e+001
    endloop
  endfacet
  facet normal  3.910266e-001  0.000000e+000 -9.203793e-001
    outer loop
      vertex -1.522126e+001  2.500000e+001  3.806985e+001
      vertex -1.683570e+001  0.000000e+000  3.738395e+001
      vertex -1.683570e+001  2.500000e+001  3.738395e+001
    endloop
  endfacet
  facet normal  4.300390e-001  0.000000e+000 -9.028103e-001
    outer loop
      vertex -1.683570e+001  2.500000e+001  3.738395e+001
      vertex -1.683570e+001  0.000000e+000  3.738395e+001
      vertex -1.841932e+001  0.000000e+000  3.662961e+001
    endloop
  endfacet
  facet normal  4.300390e-001  0.000000e+000 -9.028103e-001
    outer loop
      vertex -1.683570e+001  2.500000e+001  3.738395e+001
      vertex -1.841932e+001  0.000000e+000  3.662961e+001
      vertex -1.841932e+001  2.500000e+001  3.662961e+001
    endloop
  endfacet
  facet normal  4.682597e-001  0.000000e+000 -8.835909e-001
    outer loop
      vertex -1.841932e+001  2.500000e+001  3.662961e+001
      vertex -1.841932e+001  0.000000e+000  3.662961e+001
      vertex -1.996923e+001  0.000000e+000  3.580824e+001
    endloop
  endfacet
  facet normal  4.682597e-001  0.000000e+000 -8.835909e-001
    outer loop
      vertex -1.841932e+001  2.500000e+001  3.662961e+001
      vertex -1.996923e+001  0.000000e+000  3.580824e+001
      vertex -1.996923e+001  2.500000e+001  3.580824e+001
    endloop
  endfacet
  facet normal  5.056259e-001  0.000000e+000 -8.627528e-001
    outer loop
      vertex -1.996923e+001  2.500000e+001  3.580824e+001
      vertex -1.996923e+001  0.000000e+000  3.580824e+001
      vertex -2.148259e+001  0.000000e+000  3.492131e+001
    endloop
  endfacet
  facet normal  5.056259e-001  0.000000e+000 -8.627528e-001
    outer loop
      vertex -1.996923e+001  2.500000e+001  3.580824e+001
      vertex -2.148259e+001  0.000000e+000  3.492131e+001
      vertex -2.148259e+001  2.500000e+001  3.492131e+001
    endloop
  endfacet
  facet normal  5.420657e-001  0.000000e+000 -8.403360e-001
    outer loop
      vertex -2.148259e+001  2.500000e+001  3.492131e+001
      vertex -2.148259e+001  0.000000e+000  3.492131e+001
      vertex -2.295663e+001  0.000000e+000  3.397047e+001
    endloop
  endfacet
  facet normal  5.420657e-001  0.000000e+000 -8.403360e-001
    outer loop
      vertex -2.148259e+001  2.500000e+001  3.492131e+001
      vertex -2.295663e+001  0.000000e+000  3.397047e+001
      vertex -2.295663e+001  2.500000e+001  3.397047e+001
    endloop
  endfacet
  facet normal  5.775136e-001  0.000000e+000 -8.163810e-001
    outer loop
      vertex -2.295663e+001  2.500000e+001  3.397047e+001
      vertex -2.295663e+001  0.000000e+000  3.397047e+001
      vertex -2.438865e+001  0.000000e+000  3.295745e+001
    endloop
  endfacet
  facet normal  5.775136e-001  0.000000e+000 -8.163810e-001
    outer loop
      vertex -2.295663e+001  2.500000e+001  3.397047e+001
      vertex -2.438865e+001  0.000000e+000  3.295745e+001
      vertex -2.438865e+001  2.500000e+001  3.295745e+001
    endloop
  endfacet
  facet normal  9.781953e-001  0.000000e+000  2.076870e-001
    outer loop
      vertex -9.968975e+000  0.000000e+000  4.695338e+001
      vertex -8.515166e+000  0.000000e+000  4.010601e+001
      vertex -9.968975e+000  2.500000e+001  4.695338e+001
    endloop
  endfacet
  facet normal  9.781953e-001  0.000000e+000  2.076870e-001
    outer loop
      vertex -9.968975e+000  2.500000e+001  4.695338e+001
      vertex -8.515166e+000  0.000000e+000  4.010601e+001
      vertex -8.515166e+000  2.500000e+001  4.010601e+001
    endloop
  endfacet
  facet normal -2.266704e-001  0.000000e+000  9.739715e-001
    outer loop
      vertex -9.968975e+000  0.000000e+000  4.695338e+001
      vertex -9.968975e+000  2.500000e+001  4.695338e+001
      vertex -1.178730e+001  0.000000e+000  4.653020e+001
    endloop
  endfacet
  facet normal -2.266704e-001  0.000000e+000  9.739715e-001
    outer loop
      vertex -1.178730e+001  0.000000e+000  4.653020e+001
      vertex -9.968975e+000  2.500000e+001  4.695338e+001
      vertex -1.178730e+001  2.500000e+001  4.653020e+001
    endloop
  endfacet
  facet normal -2.643756e-001  0.000000e+000  9.644198e-001
    outer loop
      vertex -1.178730e+001  0.000000e+000  4.653020e+001
      vertex -1.178730e+001  2.500000e+001  4.653020e+001
      vertex -1.358780e+001  0.000000e+000  4.603663e+001
    endloop
  endfacet
  facet normal -2.643756e-001  0.000000e+000  9.644198e-001
    outer loop
      vertex -1.358780e+001  0.000000e+000  4.603663e+001
      vertex -1.178730e+001  2.500000e+001  4.653020e+001
      vertex -1.358780e+001  2.500000e+001  4.603663e+001
    endloop
  endfacet
  facet normal -3.016763e-001  0.000000e+000  9.534104e-001
    outer loop
      vertex -1.358780e+001  0.000000e+000  4.603663e+001
      vertex -1.358780e+001  2.500000e+001  4.603663e+001
      vertex -1.536774e+001  0.000000e+000  4.547343e+001
    endloop
  endfacet
  facet normal -3.016763e-001  0.000000e+000  9.534104e-001
    outer loop
      vertex -1.536774e+001  0.000000e+000  4.547343e+001
      vertex -1.358780e+001  2.500000e+001  4.603663e+001
      vertex -1.536774e+001  2.500000e+001  4.547343e+001
    endloop
  endfacet
  facet normal -3.385250e-001  0.000000e+000  9.409574e-001
    outer loop
      vertex -1.536774e+001  0.000000e+000  4.547343e+001
      vertex -1.536774e+001  2.500000e+001  4.547343e+001
      vertex -1.712444e+001  0.000000e+000  4.484143e+001
    endloop
  endfacet
  facet normal -3.385250e-001  0.000000e+000  9.409574e-001
    outer loop
      vertex -1.712444e+001  0.000000e+000  4.484143e+001
      vertex -1.536774e+001  2.500000e+001  4.547343e+001
      vertex -1.712444e+001  2.500000e+001  4.484143e+001
    endloop
  endfacet
  facet normal -3.748575e-001  0.000000e+000  9.270825e-001
    outer loop
      vertex -1.712444e+001  0.000000e+000  4.484143e+001
      vertex -1.712444e+001  2.500000e+001  4.484143e+001
      vertex -1.885522e+001  0.000000e+000  4.414160e+001
    endloop
  endfacet
  facet normal -3.748575e-001  0.000000e+000  9.270825e-001
    outer loop
      vertex -1.885522e+001  0.000000e+000  4.414160e+001
      vertex -1.712444e+001  2.500000e+001  4.484143e+001
      vertex -1.885522e+001  2.500000e+001  4.414160e+001
    endloop
  endfacet
  facet normal -4.106275e-001  0.000000e+000  9.118032e-001
    outer loop
      vertex -1.885522e+001  0.000000e+000  4.414160e+001
      vertex -1.885522e+001  2.500000e+001  4.414160e+001
      vertex -2.055749e+001  0.000000e+000  4.337499e+001
    endloop
  endfacet
  facet normal -4.106275e-001  0.000000e+000  9.118032e-001
    outer loop
      vertex -2.055749e+001  0.000000e+000  4.337499e+001
      vertex -1.885522e+001  2.500000e+001  4.414160e+001
      vertex -2.055749e+001  2.500000e+001  4.337499e+001
    endloop
  endfacet
  facet normal -4.457725e-001  0.000000e+000  8.951463e-001
    outer loop
      vertex -2.055749e+001  0.000000e+000  4.337499e+001
      vertex -2.055749e+001  2.500000e+001  4.337499e+001
      vertex -2.222866e+001  0.000000e+000  4.254277e+001
    endloop
  endfacet
  facet normal -4.457725e-001  0.000000e+000  8.951463e-001
    outer loop
      vertex -2.222866e+001  0.000000e+000  4.254277e+001
      vertex -2.055749e+001  2.500000e+001  4.337499e+001
      vertex -2.222866e+001  2.500000e+001  4.254277e+001
    endloop
  endfacet
  facet normal -4.802471e-001  0.000000e+000  8.771333e-001
    outer loop
      vertex -2.222866e+001  0.000000e+000  4.254277e+001
      vertex -2.222866e+001  2.500000e+001  4.254277e+001
      vertex -2.386620e+001  0.000000e+000  4.164618e+001
    endloop
  endfacet
  facet normal -4.802471e-001  0.000000e+000  8.771333e-001
    outer loop
      vertex -2.386620e+001  0.000000e+000  4.164618e+001
      vertex -2.222866e+001  2.500000e+001  4.254277e+001
      vertex -2.386620e+001  2.500000e+001  4.164618e+001
    endloop
  endfacet
  facet normal -5.139906e-001  0.000000e+000  8.577958e-001
    outer loop
      vertex -2.386620e+001  0.000000e+000  4.164618e+001
      vertex -2.386620e+001  2.500000e+001  4.164618e+001
      vertex -2.546763e+001  0.000000e+000  4.068660e+001
    endloop
  endfacet
  facet normal -5.139906e-001  0.000000e+000  8.577958e-001
    outer loop
      vertex -2.546763e+001  0.000000e+000  4.068660e+001
      vertex -2.386620e+001  2.500000e+001  4.164618e+001
      vertex -2.546763e+001  2.500000e+001  4.068660e+001
    endloop
  endfacet
  facet normal -5.469592e-001  0.000000e+000  8.371593e-001
    outer loop
      vertex -2.546763e+001  0.000000e+000  4.068660e+001
      vertex -2.546763e+001  2.500000e+001  4.068660e+001
      vertex -2.703054e+001  0.000000e+000  3.966547e+001
    endloop
  endfacet
  facet normal -5.469592e-001  0.000000e+000  8.371593e-001
    outer loop
      vertex -2.703054e+001  0.000000e+000  3.966547e+001
      vertex -2.546763e+001  2.500000e+001  4.068660e+001
      vertex -2.703054e+001  2.500000e+001  3.966547e+001
    endloop
  endfacet
  facet normal -5.791001e-001  0.000000e+000  8.152564e-001
    outer loop
      vertex -2.703054e+001  0.000000e+000  3.966547e+001
      vertex -2.703054e+001  2.500000e+001  3.966547e+001
      vertex -2.855256e+001  0.000000e+000  3.858434e+001
    endloop
  endfacet
  facet normal -5.791001e-001  0.000000e+000  8.152564e-001
    outer loop
      vertex -2.855256e+001  0.000000e+000  3.858434e+001
      vertex -2.703054e+001  2.500000e+001  3.966547e+001
      vertex -2.855256e+001  2.500000e+001  3.858434e+001
    endloop
  endfacet
endsolid CATIA STL
