solid CATIA STL
  facet normal  0.000000e+000 -1.000000e+000  0.000000e+000
    outer loop
      vertex  4.250000e+001  0.000000e+000  5.866175e+000
      vertex  4.598473e+001  0.000000e+000  1.190190e+001
      vertex -4.672814e+001  0.000000e+000  8.528227e+000
    endloop
  endfacet
  facet normal  0.000000e+000 -1.000000e+000  0.000000e+000
    outer loop
      vertex -4.672814e+001  0.000000e+000  8.528227e+000
      vertex  4.598473e+001  0.000000e+000  1.190190e+001
      vertex  4.310061e+001  0.000000e+000  1.996467e+001
    endloop
  endfacet
  facet normal  0.000000e+000 -1.000000e+000  0.000000e+000
    outer loop
      vertex -4.672814e+001  0.000000e+000  8.528227e+000
      vertex  4.310061e+001  0.000000e+000  1.996467e+001
      vertex -4.443766e+001  0.000000e+000  1.677929e+001
    endloop
  endfacet
  facet normal  0.000000e+000 -1.000000e+000  0.000000e+000
    outer loop
      vertex -4.443766e+001  0.000000e+000  1.677929e+001
      vertex  4.310061e+001  0.000000e+000  1.996467e+001
      vertex  3.881575e+001  0.000000e+000  2.737860e+001
    endloop
  endfacet
  facet normal  0.000000e+000 -1.000000e+000  0.000000e+000
    outer loop
      vertex -4.443766e+001  0.000000e+000  1.677929e+001
      vertex  3.881575e+001  0.000000e+000  2.737860e+001
      vertex -4.070298e+001  0.000000e+000  2.448504e+001
    endloop
  endfacet
  facet normal  0.000000e+000 -1.000000e+000  0.000000e+000
    outer loop
      vertex -4.070298e+001  0.000000e+000  2.448504e+001
      vertex  3.881575e+001  0.000000e+000  2.737860e+001
      vertex  3.326941e+001  0.000000e+000  3.390275e+001
    endloop
  endfacet
  facet normal  0.000000e+000 -1.000000e+000  0.000000e+000
    outer loop
      vertex -4.070298e+001  0.000000e+000  2.448504e+001
      vertex  3.326941e+001  0.000000e+000  3.390275e+001
      vertex -3.564549e+001  0.000000e+000  3.139505e+001
    endloop
  endfacet
  facet normal  0.000000e+000 -1.000000e+000  0.000000e+000
    outer loop
      vertex -3.564549e+001  0.000000e+000  3.139505e+001
      vertex  3.326941e+001  0.000000e+000  3.390275e+001
      vertex  2.664184e+001  0.000000e+000  3.932508e+001
    endloop
  endfacet
  facet normal  0.000000e+000 -1.000000e+000  0.000000e+000
    outer loop
      vertex -3.564549e+001  0.000000e+000  3.139505e+001
      vertex  2.664184e+001  0.000000e+000  3.932508e+001
      vertex -2.942954e+001  0.000000e+000  3.728474e+001
    endloop
  endfacet
  facet normal  0.000000e+000 -1.000000e+000  0.000000e+000
    outer loop
      vertex -2.942954e+001  0.000000e+000  3.728474e+001
      vertex  2.664184e+001  0.000000e+000  3.932508e+001
      vertex  1.914843e+001  0.000000e+000  4.346939e+001
    endloop
  endfacet
  facet normal  0.000000e+000 -1.000000e+000  0.000000e+000
    outer loop
      vertex -2.942954e+001  0.000000e+000  3.728474e+001
      vertex  1.914843e+001  0.000000e+000  4.346939e+001
      vertex -2.225716e+001  0.000000e+000  4.196271e+001
    endloop
  endfacet
  facet normal  0.000000e+000 -1.000000e+000  0.000000e+000
    outer loop
      vertex -2.225716e+001  0.000000e+000  4.196271e+001
      vertex  1.914843e+001  0.000000e+000  4.346939e+001
      vertex  1.103271e+001  0.000000e+000  4.620097e+001
    endloop
  endfacet
  facet normal  0.000000e+000 -1.000000e+000  0.000000e+000
    outer loop
      vertex -2.225716e+001  0.000000e+000  4.196271e+001
      vertex  1.103271e+001  0.000000e+000  4.620097e+001
      vertex -1.436144e+001  0.000000e+000  4.527692e+001
    endloop
  endfacet
  facet normal  0.000000e+000 -9.999999e-001  0.000000e+000
    outer loop
      vertex -1.436144e+001  0.000000e+000  4.527692e+001
      vertex  1.103271e+001  0.000000e+000  4.620097e+001
      vertex  2.558438e+000  0.000000e+000  4.743105e+001
    endloop
  endfacet
  facet normal  0.000000e+000 -1.000000e+000  0.000000e+000
    outer loop
      vertex -1.436144e+001  0.000000e+000  4.527692e+001
      vertex  2.558438e+000  0.000000e+000  4.743105e+001
      vertex -5.998982e+000  0.000000e+000  4.711966e+001
    endloop
  endfacet
  facet normal  -0.000000e+000 -1.000000e+000  0.000000e+000
    outer loop
      vertex -4.672814e+001  0.000000e+000 -8.528227e+000
      vertex  4.250000e+001  0.000000e+000 -5.866175e+000
      vertex -4.750000e+001  0.000000e+000  0.000000e+000
    endloop
  endfacet
  facet normal  0.000000e+000 -1.000000e+000  0.000000e+000
    outer loop
      vertex -4.750000e+001  0.000000e+000  0.000000e+000
      vertex  4.250000e+001  0.000000e+000 -5.866175e+000
      vertex  4.250000e+001  0.000000e+000  5.866175e+000
    endloop
  endfacet
  facet normal  -0.000000e+000 -1.000000e+000  0.000000e+000
    outer loop
      vertex -4.750000e+001  0.000000e+000  0.000000e+000
      vertex  4.250000e+001  0.000000e+000  5.866175e+000
      vertex -4.672814e+001  0.000000e+000  8.528227e+000
    endloop
  endfacet
  facet normal  0.000000e+000 -1.000000e+000  0.000000e+000
    outer loop
      vertex  4.310061e+001  0.000000e+000 -1.996467e+001
      vertex  4.598473e+001  0.000000e+000 -1.190190e+001
      vertex -4.443766e+001  0.000000e+000 -1.677929e+001
    endloop
  endfacet
  facet normal  0.000000e+000 -1.000000e+000  0.000000e+000
    outer loop
      vertex -4.443766e+001  0.000000e+000 -1.677929e+001
      vertex  4.598473e+001  0.000000e+000 -1.190190e+001
      vertex  4.250000e+001  0.000000e+000 -5.866175e+000
    endloop
  endfacet
  facet normal  0.000000e+000 -9.999999e-001  0.000000e+000
    outer loop
      vertex -4.443766e+001  0.000000e+000 -1.677929e+001
      vertex  4.250000e+001  0.000000e+000 -5.866175e+000
      vertex -4.672814e+001  0.000000e+000 -8.528227e+000
    endloop
  endfacet
  facet normal  -0.000000e+000 -1.000000e+000  0.000000e+000
    outer loop
      vertex -2.942954e+001  0.000000e+000 -3.728474e+001
      vertex  3.326941e+001  0.000000e+000 -3.390275e+001
      vertex -3.564549e+001  0.000000e+000 -3.139505e+001
    endloop
  endfacet
  facet normal  0.000000e+000 -1.000000e+000  0.000000e+000
    outer loop
      vertex -3.564549e+001  0.000000e+000 -3.139505e+001
      vertex  3.326941e+001  0.000000e+000 -3.390275e+001
      vertex  3.881575e+001  0.000000e+000 -2.737860e+001
    endloop
  endfacet
  facet normal  -0.000000e+000 -1.000000e+000  0.000000e+000
    outer loop
      vertex -3.564549e+001  0.000000e+000 -3.139505e+001
      vertex  3.881575e+001  0.000000e+000 -2.737860e+001
      vertex -4.070298e+001  0.000000e+000 -2.448504e+001
    endloop
  endfacet
  facet normal  0.000000e+000 -1.000000e+000  0.000000e+000
    outer loop
      vertex -4.070298e+001  0.000000e+000 -2.448504e+001
      vertex  3.881575e+001  0.000000e+000 -2.737860e+001
      vertex  4.310061e+001  0.000000e+000 -1.996467e+001
    endloop
  endfacet
  facet normal  -0.000000e+000 -1.000000e+000  0.000000e+000
    outer loop
      vertex -4.070298e+001  0.000000e+000 -2.448504e+001
      vertex  4.310061e+001  0.000000e+000 -1.996467e+001
      vertex -4.443766e+001  0.000000e+000 -1.677929e+001
    endloop
  endfacet
  facet normal  0.000000e+000 -1.000000e+000  0.000000e+000
    outer loop
      vertex  3.326941e+001  0.000000e+000 -3.390275e+001
      vertex -2.942954e+001  0.000000e+000 -3.728474e+001
      vertex  2.664184e+001  0.000000e+000 -3.932508e+001
    endloop
  endfacet
  facet normal  -0.000000e+000 -1.000000e+000  0.000000e+000
    outer loop
      vertex  2.664184e+001  0.000000e+000 -3.932508e+001
      vertex -2.942954e+001  0.000000e+000 -3.728474e+001
      vertex -2.225716e+001  0.000000e+000 -4.196271e+001
    endloop
  endfacet
  facet normal  0.000000e+000 -1.000000e+000  0.000000e+000
    outer loop
      vertex  2.664184e+001  0.000000e+000 -3.932508e+001
      vertex -2.225716e+001  0.000000e+000 -4.196271e+001
      vertex  1.914843e+001  0.000000e+000 -4.346939e+001
    endloop
  endfacet
  facet normal  -0.000000e+000 -1.000000e+000  0.000000e+000
    outer loop
      vertex  1.914843e+001  0.000000e+000 -4.346939e+001
      vertex -2.225716e+001  0.000000e+000 -4.196271e+001
      vertex -1.436144e+001  0.000000e+000 -4.527692e+001
    endloop
  endfacet
  facet normal  0.000000e+000 -1.000000e+000  0.000000e+000
    outer loop
      vertex  1.914843e+001  0.000000e+000 -4.346939e+001
      vertex -1.436144e+001  0.000000e+000 -4.527692e+001
      vertex  1.103271e+001  0.000000e+000 -4.620097e+001
    endloop
  endfacet
  facet normal  -0.000000e+000 -1.000000e+000  0.000000e+000
    outer loop
      vertex  1.103271e+001  0.000000e+000 -4.620097e+001
      vertex -1.436144e+001  0.000000e+000 -4.527692e+001
      vertex -5.998982e+000  0.000000e+000 -4.711966e+001
    endloop
  endfacet
  facet normal  0.000000e+000 -1.000000e+000  0.000000e+000
    outer loop
      vertex  1.103271e+001  0.000000e+000 -4.620097e+001
      vertex -5.998982e+000  0.000000e+000 -4.711966e+001
      vertex  2.558438e+000  0.000000e+000 -4.743105e+001
    endloop
  endfacet
  facet normal -9.633954e-001 -1.861837e-002 -2.674373e-001
    outer loop
      vertex -4.443766e+001  0.000000e+000 -1.677929e+001
      vertex -4.672814e+001  0.000000e+000 -8.528227e+000
      vertex -4.619814e+001  8.720062e+000 -1.104454e+001
    endloop
  endfacet
  facet normal -9.553187e-001  1.515990e-003 -2.955735e-001
    outer loop
      vertex -4.619814e+001  8.720062e+000 -1.104454e+001
      vertex -4.437701e+001  7.071584e+000 -1.693902e+001
      vertex -4.443766e+001  0.000000e+000 -1.677929e+001
    endloop
  endfacet
  facet normal -5.461212e-001 -2.519245e-002 -8.373272e-001
    outer loop
      vertex -2.942954e+001  0.000000e+000 -3.728474e+001
      vertex -2.362428e+001  4.569738e+000 -4.120854e+001
      vertex -2.225716e+001  0.000000e+000 -4.196271e+001
    endloop
  endfacet
  facet normal -4.187716e-001  2.453027e-002 -9.077602e-001
    outer loop
      vertex -2.225716e+001  0.000000e+000 -4.196271e+001
      vertex -2.362428e+001  4.569738e+000 -4.120854e+001
      vertex -1.596732e+001  4.756375e+000 -4.473583e+001
    endloop
  endfacet
  facet normal -3.869059e-001 -2.577077e-002 -9.217590e-001
    outer loop
      vertex -2.225716e+001  0.000000e+000 -4.196271e+001
      vertex -1.596732e+001  4.756375e+000 -4.473583e+001
      vertex -1.436144e+001  0.000000e+000 -4.527692e+001
    endloop
  endfacet
  facet normal -2.516865e-001  2.508459e-002 -9.674836e-001
    outer loop
      vertex -1.436144e+001  0.000000e+000 -4.527692e+001
      vertex -1.596732e+001  4.756375e+000 -4.473583e+001
      vertex -7.807267e+000  4.935368e+000 -4.685399e+001
    endloop
  endfacet
  facet normal -2.151219e-001 -2.626929e-002 -9.762338e-001
    outer loop
      vertex -1.436144e+001  0.000000e+000 -4.527692e+001
      vertex -7.807267e+000  4.935368e+000 -4.685399e+001
      vertex -5.998982e+000  0.000000e+000 -4.711966e+001
    endloop
  endfacet
  facet normal  1.435973e-001 -2.698604e-002 -9.892682e-001
    outer loop
      vertex  1.103271e+001  0.000000e+000 -4.620097e+001
      vertex  2.558438e+000  0.000000e+000 -4.743105e+001
      vertex  4.473450e+000  4.978360e+000 -4.728888e+001
    endloop
  endfacet
  facet normal  1.764754e-001  1.745103e-002 -9.841504e-001
    outer loop
      vertex  4.473450e+000  4.978360e+000 -4.728888e+001
      vertex  1.220998e+001  4.848844e+000 -4.590388e+001
      vertex  1.103271e+001  0.000000e+000 -4.620097e+001
    endloop
  endfacet
  facet normal  3.189348e-001 -1.937794e-002 -9.475785e-001
    outer loop
      vertex  1.914843e+001  0.000000e+000 -4.346939e+001
      vertex  1.103271e+001  0.000000e+000 -4.620097e+001
      vertex  1.220998e+001  4.848844e+000 -4.590388e+001
    endloop
  endfacet
  facet normal  3.362884e-001  8.394779e-003 -9.417216e-001
    outer loop
      vertex  1.220998e+001  4.848844e+000 -4.590388e+001
      vertex  1.961122e+001  4.661539e+000 -4.326257e+001
      vertex  1.914843e+001  0.000000e+000 -4.346939e+001
    endloop
  endfacet
  facet normal  6.331373e-001 -1.638887e-002 -7.738659e-001
    outer loop
      vertex  2.664184e+001  0.000000e+000 -3.932508e+001
      vertex  3.259359e+001  4.594653e+000 -3.455297e+001
      vertex  3.326941e+001  0.000000e+000 -3.390275e+001
    endloop
  endfacet
  facet normal  7.414274e-001  1.411283e-002 -6.708848e-001
    outer loop
      vertex  3.326941e+001  0.000000e+000 -3.390275e+001
      vertex  3.259359e+001  4.594653e+000 -3.455297e+001
      vertex  3.767264e+001  5.000368e+000 -2.893133e+001
    endloop
  endfacet
  facet normal  7.616160e-001 -2.694591e-002 -6.474682e-001
    outer loop
      vertex  3.326941e+001  0.000000e+000 -3.390275e+001
      vertex  3.767264e+001  5.000368e+000 -2.893133e+001
      vertex  3.881575e+001  0.000000e+000 -2.737860e+001
    endloop
  endfacet
  facet normal  8.373272e-001  2.178720e-002 -5.462677e-001
    outer loop
      vertex  3.881575e+001  0.000000e+000 -2.737860e+001
      vertex  3.767264e+001  5.000368e+000 -2.893133e+001
      vertex  4.177359e+001  5.883621e+000 -2.261011e+001
    endloop
  endfacet
  facet normal  8.654197e-001 -2.969909e-002 -5.001665e-001
    outer loop
      vertex  3.881575e+001  0.000000e+000 -2.737860e+001
      vertex  4.177359e+001  5.883621e+000 -2.261011e+001
      vertex  4.310061e+001  0.000000e+000 -1.996467e+001
    endloop
  endfacet
  facet normal  4.718927e-002  1.037207e-002 -9.988320e-001
    outer loop
      vertex  6.552799e-006  5.000000e+000 -4.750000e+001
      vertex  4.473450e+000  4.978360e+000 -4.728888e+001
      vertex  2.558438e+000  0.000000e+000 -4.743105e+001
    endloop
  endfacet
  facet normal -3.634517e-002 -3.237111e-002 -9.988148e-001
    outer loop
      vertex  6.552799e-006  5.000000e+000 -4.750000e+001
      vertex  2.558438e+000  0.000000e+000 -4.743105e+001
      vertex -5.998982e+000  0.000000e+000 -4.711966e+001
    endloop
  endfacet
  facet normal -8.263204e-002  2.335458e-002 -9.963064e-001
    outer loop
      vertex  6.552799e-006  5.000000e+000 -4.750000e+001
      vertex -5.998982e+000  0.000000e+000 -4.711966e+001
      vertex -7.807267e+000  4.935368e+000 -4.685399e+001
    endloop
  endfacet
  facet normal -9.959293e-001  -0.000000e+000 -9.013788e-002
    outer loop
      vertex -4.750000e+001  0.000000e+000  0.000000e+000
      vertex -4.750000e+001  1.303734e+001  0.000000e+000
      vertex -4.672814e+001  0.000000e+000 -8.528227e+000
    endloop
  endfacet
  facet normal -9.986660e-001 -3.332656e-002 -3.943832e-002
    outer loop
      vertex -4.672814e+001  0.000000e+000 -8.528227e+000
      vertex -4.750000e+001  1.303734e+001  0.000000e+000
      vertex -4.722478e+001  1.083236e+001 -5.105882e+000
    endloop
  endfacet
  facet normal -9.847507e-001  9.729313e-003 -1.736988e-001
    outer loop
      vertex -4.672814e+001  0.000000e+000 -8.528227e+000
      vertex -4.722478e+001  1.083236e+001 -5.105882e+000
      vertex -4.619814e+001  8.720062e+000 -1.104454e+001
    endloop
  endfacet
  facet normal -8.998783e-001 -2.134420e-003 -4.361358e-001
    outer loop
      vertex -4.443766e+001  0.000000e+000 -1.677929e+001
      vertex -4.437701e+001  7.071584e+000 -1.693902e+001
      vertex -4.070298e+001  0.000000e+000 -2.448504e+001
    endloop
  endfacet
  facet normal -9.142228e-001 -4.529552e-002 -4.026724e-001
    outer loop
      vertex -4.070298e+001  0.000000e+000 -2.448504e+001
      vertex -4.437701e+001  7.071584e+000 -1.693902e+001
      vertex -4.207231e+001  5.984211e+000 -2.204928e+001
    endloop
  endfacet
  facet normal -8.553734e-001  1.502872e-002 -5.177938e-001
    outer loop
      vertex -4.070298e+001  0.000000e+000 -2.448504e+001
      vertex -4.207231e+001  5.984211e+000 -2.204928e+001
      vertex -3.915052e+001  5.234732e+000 -2.689771e+001
    endloop
  endfacet
  facet normal -8.065168e-001 -3.287686e-002 -5.902964e-001
    outer loop
      vertex -4.070298e+001  0.000000e+000 -2.448504e+001
      vertex -3.915052e+001  5.234732e+000 -2.689771e+001
      vertex -3.564549e+001  0.000000e+000 -3.139505e+001
    endloop
  endfacet
  facet normal -7.888147e-001 -1.173585e-004 -6.146310e-001
    outer loop
      vertex -3.564549e+001  0.000000e+000 -3.139505e+001
      vertex -3.915052e+001  5.234732e+000 -2.689771e+001
      vertex -3.565168e+001  4.779511e+000 -3.138801e+001
    endloop
  endfacet
  facet normal -6.878001e-001  1.774242e-004 -7.259002e-001
    outer loop
      vertex -3.564549e+001  0.000000e+000 -3.139505e+001
      vertex -3.565168e+001  4.779511e+000 -3.138801e+001
      vertex -2.942954e+001  0.000000e+000 -3.728474e+001
    endloop
  endfacet
  facet normal -6.941411e-001 -1.576856e-002 -7.196663e-001
    outer loop
      vertex -2.942954e+001  0.000000e+000 -3.728474e+001
      vertex -3.565168e+001  4.779511e+000 -3.138801e+001
      vertex -3.004367e+001  4.531311e+000 -3.679168e+001
    endloop
  endfacet
  facet normal -5.668414e-001  1.280727e-002 -8.237274e-001
    outer loop
      vertex -2.942954e+001  0.000000e+000 -3.728474e+001
      vertex -3.004367e+001  4.531311e+000 -3.679168e+001
      vertex -2.362428e+001  4.569738e+000 -4.120854e+001
    endloop
  endfacet
  facet normal  4.839524e-001 -9.223367e-003 -8.750457e-001
    outer loop
      vertex  1.914843e+001  0.000000e+000 -4.346939e+001
      vertex  1.961122e+001  4.661539e+000 -4.326257e+001
      vertex  2.664184e+001  0.000000e+000 -3.932508e+001
    endloop
  endfacet
  facet normal  4.865890e-001 -4.043936e-003 -8.736216e-001
    outer loop
      vertex  2.664184e+001  0.000000e+000 -3.932508e+001
      vertex  1.961122e+001  4.661539e+000 -4.326257e+001
      vertex  2.646297e+001  4.528398e+000 -3.944567e+001
    endloop
  endfacet
  facet normal  6.237477e-001  3.823952e-003 -7.816164e-001
    outer loop
      vertex  2.664184e+001  0.000000e+000 -3.932508e+001
      vertex  2.646297e+001  4.528398e+000 -3.944567e+001
      vertex  3.259359e+001  4.594653e+000 -3.455297e+001
    endloop
  endfacet
  facet normal  9.512545e-001  0.000000e+000 -3.084070e-001
    outer loop
      vertex  4.598473e+001  8.453232e+000 -1.190190e+001
      vertex  4.598473e+001  0.000000e+000 -1.190190e+001
      vertex  4.422047e+001  6.974133e+000 -1.734360e+001
    endloop
  endfacet
  facet normal  9.412881e-001 -2.460258e-002 -3.367067e-001
    outer loop
      vertex  4.422047e+001  6.974133e+000 -1.734360e+001
      vertex  4.598473e+001  0.000000e+000 -1.190190e+001
      vertex  4.310061e+001  0.000000e+000 -1.996467e+001
    endloop
  endfacet
  facet normal  9.057161e-001  1.378889e-002 -4.236604e-001
    outer loop
      vertex  4.422047e+001  6.974133e+000 -1.734360e+001
      vertex  4.310061e+001  0.000000e+000 -1.996467e+001
      vertex  4.177359e+001  5.883621e+000 -2.261011e+001
    endloop
  endfacet
  facet normal  8.657922e-001 -4.700385e-003  5.003818e-001
    outer loop
      vertex  3.881575e+001  0.000000e+000  2.737860e+001
      vertex  4.310061e+001  0.000000e+000  1.996467e+001
      vertex  4.231433e+001  2.725840e+001  2.158119e+001
    endloop
  endfacet
  facet normal  7.075632e-001  1.704925e-003  7.066480e-001
    outer loop
      vertex  3.534425e+001  3.789118e+001  3.173380e+001
      vertex  3.166673e+001  4.275293e+001  3.540435e+001
      vertex  3.326941e+001  0.000000e+000  3.390275e+001
    endloop
  endfacet
  facet normal  6.332186e-001 -3.446394e-003  7.739653e-001
    outer loop
      vertex  2.664184e+001  0.000000e+000  3.932508e+001
      vertex  3.326941e+001  0.000000e+000  3.390275e+001
      vertex  3.166673e+001  4.275293e+001  3.540435e+001
    endloop
  endfacet
  facet normal  1.436493e-001 -1.996011e-003  9.896266e-001
    outer loop
      vertex  1.103271e+001  0.000000e+000  4.620097e+001
      vertex  3.861023e+000  5.000000e+001  4.734282e+001
      vertex  2.558438e+000  0.000000e+000  4.743105e+001
    endloop
  endfacet
  facet normal  0.000000e+000  1.764600e-003  9.999985e-001
    outer loop
      vertex  2.558438e+000  0.000000e+000  4.743105e+001
      vertex  3.861023e+000  5.000000e+001  4.734282e+001
      vertex -3.861023e+000  5.000000e+001  4.734282e+001
    endloop
  endfacet
  facet normal -3.636407e-002 -2.905327e-003  9.993345e-001
    outer loop
      vertex  2.558438e+000  0.000000e+000  4.743105e+001
      vertex -3.861023e+000  5.000000e+001  4.734282e+001
      vertex -5.998982e+000  0.000000e+000  4.711966e+001
    endloop
  endfacet
  facet normal -1.620308e-001  2.524101e-003  9.867825e-001
    outer loop
      vertex -5.998982e+000  0.000000e+000  4.711966e+001
      vertex -3.861023e+000  5.000000e+001  4.734282e+001
      vertex -1.148103e+001  5.000000e+001  4.609161e+001
    endloop
  endfacet
  facet normal -2.151948e-001 -3.514940e-003  9.765648e-001
    outer loop
      vertex -5.998982e+000  0.000000e+000  4.711966e+001
      vertex -1.148103e+001  5.000000e+001  4.609161e+001
      vertex -1.436144e+001  0.000000e+000  4.527692e+001
    endloop
  endfacet
  facet normal -3.197791e-001  2.983761e-003  9.474875e-001
    outer loop
      vertex -1.436144e+001  0.000000e+000  4.527692e+001
      vertex -1.148103e+001  5.000000e+001  4.609161e+001
      vertex -1.879760e+001  5.000000e+001  4.362225e+001
    endloop
  endfacet
  facet normal -3.870316e-001 -3.824628e-003  9.220586e-001
    outer loop
      vertex -1.436144e+001  0.000000e+000  4.527692e+001
      vertex -1.879760e+001  5.000000e+001  4.362225e+001
      vertex -2.225716e+001  0.000000e+000  4.196271e+001
    endloop
  endfacet
  facet normal -8.069397e-001 -5.736116e-003  5.906060e-001
    outer loop
      vertex -3.564549e+001  0.000000e+000  3.139505e+001
      vertex -3.865676e+001  3.313826e+001  2.760262e+001
      vertex -4.070298e+001  0.000000e+000  2.448504e+001
    endloop
  endfacet
  facet normal -8.565481e-001  4.341251e-003  5.160489e-001
    outer loop
      vertex -3.865676e+001  3.313826e+001  2.760262e+001
      vertex -4.231433e+001  2.725840e+001  2.158119e+001
      vertex -4.070298e+001  0.000000e+000  2.448504e+001
    endloop
  endfacet
  facet normal -8.998600e-001 -6.733224e-003  4.361269e-001
    outer loop
      vertex -4.443766e+001  0.000000e+000  1.677929e+001
      vertex -4.070298e+001  0.000000e+000  2.448504e+001
      vertex -4.231433e+001  2.725840e+001  2.158119e+001
    endloop
  endfacet
  facet normal -9.247666e-001  5.005919e-003  3.805020e-001
    outer loop
      vertex -4.231433e+001  2.725840e+001  2.158119e+001
      vertex -4.514063e+001  2.178198e+001  1.478423e+001
      vertex -4.443766e+001  0.000000e+000  1.677929e+001
    endloop
  endfacet
  facet normal -9.635415e-001 -6.597595e-003  2.674779e-001
    outer loop
      vertex -4.672814e+001  0.000000e+000  8.528227e+000
      vertex -4.443766e+001  0.000000e+000  1.677929e+001
      vertex -4.514063e+001  2.178198e+001  1.478423e+001
    endloop
  endfacet
  facet normal -6.073239e-001  3.161759e-003  7.944481e-001
    outer loop
      vertex -2.561738e+001  5.000000e+001  4.000000e+001
      vertex -3.166673e+001  4.275293e+001  3.540435e+001
      vertex -2.942954e+001  0.000000e+000  3.728474e+001
    endloop
  endfacet
  facet normal -5.462906e-001 -3.834286e-003  8.375869e-001
    outer loop
      vertex -2.561738e+001  5.000000e+001  4.000000e+001
      vertex -2.942954e+001  0.000000e+000  3.728474e+001
      vertex -2.225716e+001  0.000000e+000  4.196271e+001
    endloop
  endfacet
  facet normal -4.690762e-001  3.143473e-003  8.831521e-001
    outer loop
      vertex -2.561738e+001  5.000000e+001  4.000000e+001
      vertex -2.225716e+001  0.000000e+000  4.196271e+001
      vertex -1.879760e+001  5.000000e+001  4.362225e+001
    endloop
  endfacet
  facet normal  4.690785e-001  5.913555e-004  8.831564e-001
    outer loop
      vertex  2.561738e+001  5.000000e+001  4.000000e+001
      vertex  1.879760e+001  5.000000e+001  4.362225e+001
      vertex  1.914843e+001  0.000000e+000  4.346939e+001
    endloop
  endfacet
  facet normal  4.839721e-001 -1.895879e-003  8.750813e-001
    outer loop
      vertex  2.561738e+001  5.000000e+001  4.000000e+001
      vertex  1.914843e+001  0.000000e+000  4.346939e+001
      vertex  2.664184e+001  0.000000e+000  3.932508e+001
    endloop
  endfacet
  facet normal  6.062066e-001  1.685456e-003  7.953054e-001
    outer loop
      vertex  2.561738e+001  5.000000e+001  4.000000e+001
      vertex  2.664184e+001  0.000000e+000  3.932508e+001
      vertex  3.166673e+001  4.275293e+001  3.540435e+001
    endloop
  endfacet
  facet normal  9.415731e-001  0.000000e+000  3.368086e-001
    outer loop
      vertex  4.598473e+001  0.000000e+000  1.190190e+001
      vertex  4.598473e+001  1.976674e+001  1.190190e+001
      vertex  4.310061e+001  0.000000e+000  1.996467e+001
    endloop
  endfacet
  facet normal  9.557145e-001 -1.967282e-002  2.936371e-001
    outer loop
      vertex  4.310061e+001  0.000000e+000  1.996467e+001
      vertex  4.598473e+001  1.976674e+001  1.190190e+001
      vertex  4.514063e+001  2.178198e+001  1.478423e+001
    endloop
  endfacet
  facet normal  9.245037e-001  4.063952e-003  3.811516e-001
    outer loop
      vertex  4.310061e+001  0.000000e+000  1.996467e+001
      vertex  4.514063e+001  2.178198e+001  1.478423e+001
      vertex  4.231433e+001  2.725840e+001  2.158119e+001
    endloop
  endfacet
  facet normal  7.765174e-001 -6.454725e-003  6.300626e-001
    outer loop
      vertex  3.534425e+001  3.789118e+001  3.173380e+001
      vertex  3.326941e+001  0.000000e+000  3.390275e+001
      vertex  3.865676e+001  3.313826e+001  2.760262e+001
    endloop
  endfacet
  facet normal  7.618924e-001 -7.233504e-004  6.477032e-001
    outer loop
      vertex  3.865676e+001  3.313826e+001  2.760262e+001
      vertex  3.326941e+001  0.000000e+000  3.390275e+001
      vertex  3.881575e+001  0.000000e+000  2.737860e+001
    endloop
  endfacet
  facet normal  8.549383e-001  5.949152e-004  5.187294e-001
    outer loop
      vertex  3.865676e+001  3.313826e+001  2.760262e+001
      vertex  3.881575e+001  0.000000e+000  2.737860e+001
      vertex  4.231433e+001  2.725840e+001  2.158119e+001
    endloop
  endfacet
  facet normal  3.189947e-001 -6.592102e-004  9.477562e-001
    outer loop
      vertex  1.914843e+001  0.000000e+000  4.346939e+001
      vertex  1.879760e+001  5.000000e+001  4.362225e+001
      vertex  1.103271e+001  0.000000e+000  4.620097e+001
    endloop
  endfacet
  facet normal  3.197804e-001 -7.949031e-004  9.474913e-001
    outer loop
      vertex  1.103271e+001  0.000000e+000  4.620097e+001
      vertex  1.879760e+001  5.000000e+001  4.362225e+001
      vertex  1.148103e+001  5.000000e+001  4.609161e+001
    endloop
  endfacet
  facet normal  1.620313e-001  7.054691e-004  9.867854e-001
    outer loop
      vertex  1.103271e+001  0.000000e+000  4.620097e+001
      vertex  1.148103e+001  5.000000e+001  4.609161e+001
      vertex  3.861023e+000  5.000000e+001  4.734282e+001
    endloop
  endfacet
  facet normal -6.877944e-001 -4.064317e-003  7.258942e-001
    outer loop
      vertex -2.942954e+001  0.000000e+000  3.728474e+001
      vertex -3.166673e+001  4.275293e+001  3.540435e+001
      vertex -3.564549e+001  0.000000e+000  3.139505e+001
    endloop
  endfacet
  facet normal -7.059592e-001 -7.193902e-004  7.082521e-001
    outer loop
      vertex -3.564549e+001  0.000000e+000  3.139505e+001
      vertex -3.166673e+001  4.275293e+001  3.540435e+001
      vertex -3.534425e+001  3.789118e+001  3.173380e+001
    endloop
  endfacet
  facet normal -7.805170e-001  6.164337e-004  6.251343e-001
    outer loop
      vertex -3.564549e+001  0.000000e+000  3.139505e+001
      vertex -3.534425e+001  3.789118e+001  3.173380e+001
      vertex -3.865676e+001  3.313826e+001  2.760262e+001
    endloop
  endfacet
  facet normal -9.967172e-001  0.000000e+000  8.096129e-002
    outer loop
      vertex -4.750000e+001  1.303734e+001  0.000000e+000
      vertex -4.750000e+001  0.000000e+000  0.000000e+000
      vertex -4.687730e+001  1.709455e+001  7.666078e+000
    endloop
  endfacet
  facet normal -9.959207e-001 -4.143916e-003  9.013709e-002
    outer loop
      vertex -4.687730e+001  1.709455e+001  7.666078e+000
      vertex -4.750000e+001  0.000000e+000  0.000000e+000
      vertex -4.672814e+001  0.000000e+000  8.528227e+000
    endloop
  endfacet
  facet normal -9.720064e-001  3.367281e-003  2.349305e-001
    outer loop
      vertex -4.687730e+001  1.709455e+001  7.666078e+000
      vertex -4.672814e+001  0.000000e+000  8.528227e+000
      vertex -4.514063e+001  2.178198e+001  1.478423e+001
    endloop
  endfacet
  facet normal  7.330401e-005  9.949443e-001  1.004284e-001
    outer loop
      vertex -7.807267e+000  4.935368e+000 -4.685399e+001
      vertex  4.473450e+000  4.978360e+000 -4.728888e+001
      vertex  6.552799e-006  5.000000e+000 -4.750000e+001
    endloop
  endfacet
  facet normal -1.572983e-004  9.955742e-001  9.397870e-002
    outer loop
      vertex  4.473450e+000  4.978360e+000 -4.728888e+001
      vertex -7.807267e+000  4.935368e+000 -4.685399e+001
      vertex  1.220998e+001  4.848844e+000 -4.590388e+001
    endloop
  endfacet
  facet normal  2.624223e-004  9.963632e-001  8.520773e-002
    outer loop
      vertex  1.220998e+001  4.848844e+000 -4.590388e+001
      vertex -7.807267e+000  4.935368e+000 -4.685399e+001
      vertex -1.596732e+001  4.756375e+000 -4.473583e+001
    endloop
  endfacet
  facet normal -3.056774e-004  9.974343e-001  7.158803e-002
    outer loop
      vertex  1.220998e+001  4.848844e+000 -4.590388e+001
      vertex -1.596732e+001  4.756375e+000 -4.473583e+001
      vertex  1.961122e+001  4.661539e+000 -4.326257e+001
    endloop
  endfacet
  facet normal  4.347392e-004  9.985527e-001  5.377935e-002
    outer loop
      vertex  1.961122e+001  4.661539e+000 -4.326257e+001
      vertex -1.596732e+001  4.756375e+000 -4.473583e+001
      vertex -2.362428e+001  4.569738e+000 -4.120854e+001
    endloop
  endfacet
  facet normal -4.292075e-004  9.993649e-001  3.563035e-002
    outer loop
      vertex  1.961122e+001  4.661539e+000 -4.326257e+001
      vertex -2.362428e+001  4.569738e+000 -4.120854e+001
      vertex  2.646297e+001  4.528398e+000 -3.944567e+001
    endloop
  endfacet
  facet normal  3.728863e-004  9.949294e-001 -1.005740e-001
    outer loop
      vertex -3.915052e+001  5.234732e+000 -2.689771e+001
      vertex  3.767264e+001  5.000368e+000 -2.893133e+001
      vertex -3.565168e+001  4.779511e+000 -3.138801e+001
    endloop
  endfacet
  facet normal -6.110141e-004  9.974452e-001 -7.143375e-002
    outer loop
      vertex -3.565168e+001  4.779511e+000 -3.138801e+001
      vertex  3.767264e+001  5.000368e+000 -2.893133e+001
      vertex  3.259359e+001  4.594653e+000 -3.455297e+001
    endloop
  endfacet
  facet normal  6.072182e-004  9.989753e-001 -4.525465e-002
    outer loop
      vertex -3.565168e+001  4.779511e+000 -3.138801e+001
      vertex  3.259359e+001  4.594653e+000 -3.455297e+001
      vertex -3.004367e+001  4.531311e+000 -3.679168e+001
    endloop
  endfacet
  facet normal -5.519455e-004  9.999173e-001 -1.284890e-002
    outer loop
      vertex -3.004367e+001  4.531311e+000 -3.679168e+001
      vertex  3.259359e+001  4.594653e+000 -3.455297e+001
      vertex  2.646297e+001  4.528398e+000 -3.944567e+001
    endloop
  endfacet
  facet normal  4.938620e-004  9.999555e-001  9.417546e-003
    outer loop
      vertex -3.004367e+001  4.531311e+000 -3.679168e+001
      vertex  2.646297e+001  4.528398e+000 -3.944567e+001
      vertex -2.362428e+001  4.569738e+000 -4.120854e+001
    endloop
  endfacet
  facet normal  0.000000e+000  8.195527e-001 -5.730038e-001
    outer loop
      vertex  4.514063e+001  2.178198e+001  1.478423e+001
      vertex  4.598473e+001  1.976674e+001  1.190190e+001
      vertex -4.514063e+001  2.178198e+001  1.478423e+001
    endloop
  endfacet
  facet normal  2.230144e-003  8.512915e-001 -5.246883e-001
    outer loop
      vertex -4.514063e+001  2.178198e+001  1.478423e+001
      vertex  4.598473e+001  1.976674e+001  1.190190e+001
      vertex  4.250000e+001  1.605579e+001  5.866175e+000
    endloop
  endfacet
  facet normal -1.362575e-003  8.353303e-001 -5.497466e-001
    outer loop
      vertex -4.514063e+001  2.178198e+001  1.478423e+001
      vertex  4.250000e+001  1.605579e+001  5.866175e+000
      vertex -4.687730e+001  1.709455e+001  7.666078e+000
    endloop
  endfacet
  facet normal  1.106187e-003  8.889111e-001 -4.580784e-001
    outer loop
      vertex -4.687730e+001  1.709455e+001  7.666078e+000
      vertex  4.250000e+001  1.605579e+001  5.866175e+000
      vertex  4.250000e+001  1.308410e+001  9.954142e-002
    endloop
  endfacet
  facet normal  5.814308e-005  8.838479e-001 -4.677745e-001
    outer loop
      vertex -4.687730e+001  1.709455e+001  7.666078e+000
      vertex  4.250000e+001  1.308410e+001  9.954142e-002
      vertex -4.750000e+001  1.303734e+001  0.000000e+000
    endloop
  endfacet
  facet normal -4.329304e-005  9.195998e-001 -3.928566e-001
    outer loop
      vertex -4.750000e+001  1.303734e+001  0.000000e+000
      vertex  4.250000e+001  1.308410e+001  9.954142e-002
      vertex  4.250000e+001  1.053552e+001 -5.866175e+000
    endloop
  endfacet
  facet normal -3.224325e-004  9.180450e-001 -3.964761e-001
    outer loop
      vertex -4.750000e+001  1.303734e+001  0.000000e+000
      vertex  4.250000e+001  1.053552e+001 -5.866175e+000
      vertex -4.722478e+001  1.083236e+001 -5.105882e+000
    endloop
  endfacet
  facet normal  3.656991e-004  9.453893e-001 -3.259432e-001
    outer loop
      vertex -4.722478e+001  1.083236e+001 -5.105882e+000
      vertex  4.250000e+001  1.053552e+001 -5.866175e+000
      vertex  4.598473e+001  8.453232e+000 -1.190190e+001
    endloop
  endfacet
  facet normal -3.902298e-004  9.421546e-001 -3.351786e-001
    outer loop
      vertex -4.722478e+001  1.083236e+001 -5.105882e+000
      vertex  4.598473e+001  8.453232e+000 -1.190190e+001
      vertex -4.619814e+001  8.720062e+000 -1.104454e+001
    endloop
  endfacet
  facet normal  3.526855e-004  9.649597e-001 -2.623980e-001
    outer loop
      vertex -4.619814e+001  8.720062e+000 -1.104454e+001
      vertex  4.598473e+001  8.453232e+000 -1.190190e+001
      vertex  4.422047e+001  6.974133e+000 -1.734360e+001
    endloop
  endfacet
  facet normal -1.708376e-004  9.630342e-001 -2.693792e-001
    outer loop
      vertex -4.619814e+001  8.720062e+000 -1.104454e+001
      vertex  4.422047e+001  6.974133e+000 -1.734360e+001
      vertex -4.437701e+001  7.071584e+000 -1.693902e+001
    endloop
  endfacet
  facet normal  1.508451e-004  9.792137e-001 -2.028314e-001
    outer loop
      vertex -4.437701e+001  7.071584e+000 -1.693902e+001
      vertex  4.422047e+001  6.974133e+000 -1.734360e+001
      vertex  4.177359e+001  5.883621e+000 -2.261011e+001
    endloop
  endfacet
  facet normal -2.193236e-004  9.780824e-001 -2.082178e-001
    outer loop
      vertex -4.437701e+001  7.071584e+000 -1.693902e+001
      vertex  4.177359e+001  5.883621e+000 -2.261011e+001
      vertex -4.207231e+001  5.984211e+000 -2.204928e+001
    endloop
  endfacet
  facet normal  2.613967e-004  9.903554e-001 -1.385502e-001
    outer loop
      vertex -4.207231e+001  5.984211e+000 -2.204928e+001
      vertex  4.177359e+001  5.883621e+000 -2.261011e+001
      vertex  3.767264e+001  5.000368e+000 -2.893133e+001
    endloop
  endfacet
  facet normal -1.045669e-003  9.881663e-001 -1.533827e-001
    outer loop
      vertex -4.207231e+001  5.984211e+000 -2.204928e+001
      vertex  3.767264e+001  5.000368e+000 -2.893133e+001
      vertex -3.915052e+001  5.234732e+000 -2.689771e+001
    endloop
  endfacet
  facet normal  0.000000e+000  7.154671e-001 -6.986465e-001
    outer loop
      vertex -3.865676e+001  3.313826e+001  2.760262e+001
      vertex  4.231433e+001  2.725840e+001  2.158119e+001
      vertex -4.231433e+001  2.725840e+001  2.158119e+001
    endloop
  endfacet
  facet normal  0.000000e+000  7.786926e-001 -6.274055e-001
    outer loop
      vertex -4.231433e+001  2.725840e+001  2.158119e+001
      vertex  4.231433e+001  2.725840e+001  2.158119e+001
      vertex  4.514063e+001  2.178198e+001  1.478423e+001
    endloop
  endfacet
  facet normal  0.000000e+000  7.786927e-001 -6.274056e-001
    outer loop
      vertex -4.231433e+001  2.725840e+001  2.158119e+001
      vertex  4.514063e+001  2.178198e+001  1.478423e+001
      vertex -4.514063e+001  2.178198e+001  1.478423e+001
    endloop
  endfacet
  facet normal  0.000000e+000  7.154670e-001 -6.986464e-001
    outer loop
      vertex  4.231433e+001  2.725840e+001  2.158119e+001
      vertex -3.865676e+001  3.313826e+001  2.760262e+001
      vertex  3.865676e+001  3.313826e+001  2.760262e+001
    endloop
  endfacet
  facet normal  0.000000e+000  6.560170e-001 -7.547462e-001
    outer loop
      vertex  3.865676e+001  3.313826e+001  2.760262e+001
      vertex -3.865676e+001  3.313826e+001  2.760262e+001
      vertex -3.534425e+001  3.789118e+001  3.173380e+001
    endloop
  endfacet
  facet normal  0.000000e+000  6.560169e-001 -7.547461e-001
    outer loop
      vertex  3.865676e+001  3.313826e+001  2.760262e+001
      vertex -3.534425e+001  3.789118e+001  3.173380e+001
      vertex  3.534425e+001  3.789118e+001  3.173380e+001
    endloop
  endfacet
  facet normal  0.000000e+000  6.025438e-001 -7.980858e-001
    outer loop
      vertex  3.534425e+001  3.789118e+001  3.173380e+001
      vertex -3.534425e+001  3.789118e+001  3.173380e+001
      vertex -3.166673e+001  4.275293e+001  3.540435e+001
    endloop
  endfacet
  facet normal  0.000000e+000  6.025438e-001 -7.980859e-001
    outer loop
      vertex  3.534425e+001  3.789118e+001  3.173380e+001
      vertex -3.166673e+001  4.275293e+001  3.540435e+001
      vertex  3.166673e+001  4.275293e+001  3.540435e+001
    endloop
  endfacet
  facet normal  0.000000e+000  5.355374e-001 -8.445115e-001
    outer loop
      vertex  3.166673e+001  4.275293e+001  3.540435e+001
      vertex -3.166673e+001  4.275293e+001  3.540435e+001
      vertex -2.561738e+001  5.000000e+001  4.000000e+001
    endloop
  endfacet
  facet normal  0.000000e+000  5.355374e-001 -8.445115e-001
    outer loop
      vertex  3.166673e+001  4.275293e+001  3.540435e+001
      vertex -2.561738e+001  5.000000e+001  4.000000e+001
      vertex  2.561738e+001  5.000000e+001  4.000000e+001
    endloop
  endfacet
  facet normal  8.660254e-001  0.000000e+000 -5.000002e-001
    outer loop
      vertex  4.598473e+001  0.000000e+000  1.190190e+001
      vertex  4.250000e+001  0.000000e+000  5.866175e+000
      vertex  4.598473e+001  1.976674e+001  1.190190e+001
    endloop
  endfacet
  facet normal  8.660253e-001  0.000000e+000 -5.000001e-001
    outer loop
      vertex  4.598473e+001  1.976674e+001  1.190190e+001
      vertex  4.250000e+001  0.000000e+000  5.866175e+000
      vertex  4.250000e+001  1.605579e+001  5.866175e+000
    endloop
  endfacet
  facet normal  1.000000e+000  0.000000e+000  0.000000e+000
    outer loop
      vertex  4.250000e+001  0.000000e+000 -5.866175e+000
      vertex  4.250000e+001  1.053552e+001 -5.866175e+000
      vertex  4.250000e+001  0.000000e+000  5.866175e+000
    endloop
  endfacet
  facet normal  9.999999e-001  0.000000e+000  0.000000e+000
    outer loop
      vertex  4.250000e+001  0.000000e+000  5.866175e+000
      vertex  4.250000e+001  1.053552e+001 -5.866175e+000
      vertex  4.250000e+001  1.308410e+001  9.954142e-002
    endloop
  endfacet
  facet normal  1.000000e+000  0.000000e+000  -0.000000e+000
    outer loop
      vertex  4.250000e+001  0.000000e+000  5.866175e+000
      vertex  4.250000e+001  1.308410e+001  9.954142e-002
      vertex  4.250000e+001  1.605579e+001  5.866175e+000
    endloop
  endfacet
  facet normal  8.660253e-001  0.000000e+000  5.000001e-001
    outer loop
      vertex  4.250000e+001  0.000000e+000 -5.866175e+000
      vertex  4.598473e+001  0.000000e+000 -1.190190e+001
      vertex  4.250000e+001  1.053552e+001 -5.866175e+000
    endloop
  endfacet
  facet normal  8.660253e-001  0.000000e+000  5.000001e-001
    outer loop
      vertex  4.250000e+001  1.053552e+001 -5.866175e+000
      vertex  4.598473e+001  0.000000e+000 -1.190190e+001
      vertex  4.598473e+001  8.453232e+000 -1.190190e+001
    endloop
  endfacet
  facet normal  0.000000e+000  1.000000e+000  0.000000e+000
    outer loop
      vertex -2.561738e+001  5.000000e+001  4.000000e+001
      vertex -1.879760e+001  5.000000e+001  4.362225e+001
      vertex  0.000000e+000  5.000000e+001  4.000000e+001
    endloop
  endfacet
  facet normal  0.000000e+000  1.000000e+000  0.000000e+000
    outer loop
      vertex -3.861023e+000  5.000000e+001  4.734282e+001
      vertex  3.861023e+000  5.000000e+001  4.734282e+001
      vertex -1.148103e+001  5.000000e+001  4.609161e+001
    endloop
  endfacet
  facet normal  0.000000e+000  1.000000e+000  0.000000e+000
    outer loop
      vertex -1.148103e+001  5.000000e+001  4.609161e+001
      vertex  3.861023e+000  5.000000e+001  4.734282e+001
      vertex  1.148103e+001  5.000000e+001  4.609161e+001
    endloop
  endfacet
  facet normal  0.000000e+000  9.999999e-001  0.000000e+000
    outer loop
      vertex -1.148103e+001  5.000000e+001  4.609161e+001
      vertex  1.148103e+001  5.000000e+001  4.609161e+001
      vertex -1.879760e+001  5.000000e+001  4.362225e+001
    endloop
  endfacet
  facet normal  0.000000e+000  1.000000e+000  0.000000e+000
    outer loop
      vertex -1.879760e+001  5.000000e+001  4.362225e+001
      vertex  1.148103e+001  5.000000e+001  4.609161e+001
      vertex  1.879760e+001  5.000000e+001  4.362225e+001
    endloop
  endfacet
  facet normal  0.000000e+000  1.000000e+000  0.000000e+000
    outer loop
      vertex -1.879760e+001  5.000000e+001  4.362225e+001
      vertex  1.879760e+001  5.000000e+001  4.362225e+001
      vertex  0.000000e+000  5.000000e+001  4.000000e+001
    endloop
  endfacet
  facet normal  0.000000e+000  1.000000e+000  0.000000e+000
    outer loop
      vertex  0.000000e+000  5.000000e+001  4.000000e+001
      vertex  1.879760e+001  5.000000e+001  4.362225e+001
      vertex  2.561738e+001  5.000000e+001  4.000000e+001
    endloop
  endfacet
endsolid CATIA STL
