solid CATIA STL
  facet normal  1.000000e+000  -0.000000e+000  0.000000e+000
    outer loop
      vertex  2.000000e+000  3.460000e+002  6.864700e+001
      vertex  2.000000e+000  1.730000e+002  6.864700e+001
      vertex  2.000000e+000  1.730000e+002  5.032350e+001
    endloop
  endfacet
  facet normal  1.000000e+000  0.000000e+000  0.000000e+000
    outer loop
      vertex  2.000000e+000  3.460000e+002  6.864700e+001
      vertex  2.000000e+000  1.730000e+002  5.032350e+001
      vertex  2.000000e+000  1.930000e+002  5.032350e+001
    endloop
  endfacet
  facet normal  1.000000e+000  -0.000000e+000  0.000000e+000
    outer loop
      vertex  2.000000e+000  3.460000e+002  6.864700e+001
      vertex  2.000000e+000  1.930000e+002  5.032350e+001
      vertex  2.000000e+000  3.260000e+002  3.814700e+001
    endloop
  endfacet
  facet normal  1.000000e+000  -0.000000e+000  0.000000e+000
    outer loop
      vertex  2.000000e+000  3.460000e+002  6.864700e+001
      vertex  2.000000e+000  3.260000e+002  3.814700e+001
      vertex  2.000000e+000  3.270816e+002  3.797570e+001
    endloop
  endfacet
  facet normal  1.000000e+000  -0.000000e+000  0.000000e+000
    outer loop
      vertex  2.000000e+000  3.460000e+002  6.864700e+001
      vertex  2.000000e+000  3.270816e+002  3.797570e+001
      vertex  2.000000e+000  3.280573e+002  3.747856e+001
    endloop
  endfacet
  facet normal  1.000000e+000  -0.000000e+000  0.000000e+000
    outer loop
      vertex  2.000000e+000  3.460000e+002  6.864700e+001
      vertex  2.000000e+000  3.280573e+002  3.747856e+001
      vertex  2.000000e+000  3.288316e+002  3.670425e+001
    endloop
  endfacet
  facet normal  1.000000e+000  -0.000000e+000  0.000000e+000
    outer loop
      vertex  2.000000e+000  3.460000e+002  6.864700e+001
      vertex  2.000000e+000  3.288316e+002  3.670425e+001
      vertex  2.000000e+000  3.293287e+002  3.572856e+001
    endloop
  endfacet
  facet normal  9.999999e-001  -0.000000e+000  0.000000e+000
    outer loop
      vertex  2.000000e+000  3.460000e+002  6.864700e+001
      vertex  2.000000e+000  3.293287e+002  3.572856e+001
      vertex  2.000000e+000  3.295000e+002  3.464700e+001
    endloop
  endfacet
  facet normal  1.000000e+000  -0.000000e+000  0.000000e+000
    outer loop
      vertex  2.000000e+000  3.460000e+002  6.864700e+001
      vertex  2.000000e+000  3.295000e+002  3.464700e+001
      vertex  2.000000e+000  3.460000e+002  2.000000e+000
    endloop
  endfacet
  facet normal  1.000000e+000  0.000000e+000  0.000000e+000
    outer loop
      vertex  2.000000e+000  1.930000e+002  5.032350e+001
      vertex  2.000000e+000  1.930000e+002  2.032350e+001
      vertex  2.000000e+000  3.225000e+002  3.464700e+001
    endloop
  endfacet
  facet normal  1.000000e+000  0.000000e+000  -0.000000e+000
    outer loop
      vertex  2.000000e+000  1.930000e+002  5.032350e+001
      vertex  2.000000e+000  3.225000e+002  3.464700e+001
      vertex  2.000000e+000  3.226713e+002  3.572856e+001
    endloop
  endfacet
  facet normal  1.000000e+000  0.000000e+000  -0.000000e+000
    outer loop
      vertex  2.000000e+000  1.930000e+002  5.032350e+001
      vertex  2.000000e+000  3.226713e+002  3.572856e+001
      vertex  2.000000e+000  3.231684e+002  3.670425e+001
    endloop
  endfacet
  facet normal  1.000000e+000  0.000000e+000  -0.000000e+000
    outer loop
      vertex  2.000000e+000  1.930000e+002  5.032350e+001
      vertex  2.000000e+000  3.231684e+002  3.670425e+001
      vertex  2.000000e+000  3.239427e+002  3.747856e+001
    endloop
  endfacet
  facet normal  1.000000e+000  0.000000e+000  -0.000000e+000
    outer loop
      vertex  2.000000e+000  1.930000e+002  5.032350e+001
      vertex  2.000000e+000  3.239427e+002  3.747856e+001
      vertex  2.000000e+000  3.249184e+002  3.797570e+001
    endloop
  endfacet
  facet normal  1.000000e+000  0.000000e+000  -0.000000e+000
    outer loop
      vertex  2.000000e+000  1.930000e+002  5.032350e+001
      vertex  2.000000e+000  3.249184e+002  3.797570e+001
      vertex  2.000000e+000  3.260000e+002  3.814700e+001
    endloop
  endfacet
  facet normal  1.000000e+000  0.000000e+000  0.000000e+000
    outer loop
      vertex  2.000000e+000  1.930000e+002  2.032350e+001
      vertex  2.000000e+000  3.260000e+002  3.114700e+001
      vertex  2.000000e+000  3.249184e+002  3.131830e+001
    endloop
  endfacet
  facet normal  1.000000e+000  0.000000e+000  0.000000e+000
    outer loop
      vertex  2.000000e+000  1.930000e+002  2.032350e+001
      vertex  2.000000e+000  3.249184e+002  3.131830e+001
      vertex  2.000000e+000  3.239427e+002  3.181544e+001
    endloop
  endfacet
  facet normal  1.000000e+000  0.000000e+000  0.000000e+000
    outer loop
      vertex  2.000000e+000  1.930000e+002  2.032350e+001
      vertex  2.000000e+000  3.239427e+002  3.181544e+001
      vertex  2.000000e+000  3.231684e+002  3.258975e+001
    endloop
  endfacet
  facet normal  1.000000e+000  0.000000e+000  0.000000e+000
    outer loop
      vertex  2.000000e+000  1.930000e+002  2.032350e+001
      vertex  2.000000e+000  3.231684e+002  3.258975e+001
      vertex  2.000000e+000  3.226713e+002  3.356544e+001
    endloop
  endfacet
  facet normal  1.000000e+000  0.000000e+000  0.000000e+000
    outer loop
      vertex  2.000000e+000  1.930000e+002  2.032350e+001
      vertex  2.000000e+000  3.226713e+002  3.356544e+001
      vertex  2.000000e+000  3.225000e+002  3.464700e+001
    endloop
  endfacet
  facet normal  9.999999e-001  0.000000e+000  0.000000e+000
    outer loop
      vertex  2.000000e+000  3.460000e+002  2.000000e+000
      vertex  2.000000e+000  3.295000e+002  3.464700e+001
      vertex  2.000000e+000  3.293287e+002  3.356544e+001
    endloop
  endfacet
  facet normal  9.999999e-001  0.000000e+000  0.000000e+000
    outer loop
      vertex  2.000000e+000  3.460000e+002  2.000000e+000
      vertex  2.000000e+000  3.293287e+002  3.356544e+001
      vertex  2.000000e+000  3.288316e+002  3.258975e+001
    endloop
  endfacet
  facet normal  1.000000e+000  0.000000e+000  0.000000e+000
    outer loop
      vertex  2.000000e+000  3.460000e+002  2.000000e+000
      vertex  2.000000e+000  3.288316e+002  3.258975e+001
      vertex  2.000000e+000  3.280573e+002  3.181544e+001
    endloop
  endfacet
  facet normal  1.000000e+000  0.000000e+000  0.000000e+000
    outer loop
      vertex  2.000000e+000  3.460000e+002  2.000000e+000
      vertex  2.000000e+000  3.280573e+002  3.181544e+001
      vertex  2.000000e+000  3.270816e+002  3.131830e+001
    endloop
  endfacet
  facet normal  1.000000e+000  0.000000e+000  0.000000e+000
    outer loop
      vertex  2.000000e+000  3.460000e+002  2.000000e+000
      vertex  2.000000e+000  3.270816e+002  3.131830e+001
      vertex  2.000000e+000  3.260000e+002  3.114700e+001
    endloop
  endfacet
  facet normal  9.999999e-001  0.000000e+000  0.000000e+000
    outer loop
      vertex  2.000000e+000  3.460000e+002  2.000000e+000
      vertex  2.000000e+000  3.260000e+002  3.114700e+001
      vertex  2.000000e+000  1.930000e+002  2.032350e+001
    endloop
  endfacet
  facet normal  1.000000e+000  0.000000e+000  0.000000e+000
    outer loop
      vertex  2.000000e+000  3.460000e+002  2.000000e+000
      vertex  2.000000e+000  1.930000e+002  2.032350e+001
      vertex  2.000000e+000  1.730000e+002  2.032350e+001
    endloop
  endfacet
  facet normal  1.000000e+000  0.000000e+000  0.000000e+000
    outer loop
      vertex  2.000000e+000  3.460000e+002  2.000000e+000
      vertex  2.000000e+000  1.730000e+002  2.032350e+001
      vertex  2.000000e+000  1.730000e+002  2.000000e+000
    endloop
  endfacet
  facet normal -1.000000e+000  0.000000e+000  0.000000e+000
    outer loop
      vertex  0.000000e+000  3.460000e+002  0.000000e+000
      vertex  0.000000e+000  1.730000e+002  0.000000e+000
      vertex  0.000000e+000  3.263338e+002  3.318461e+001
    endloop
  endfacet
  facet normal -1.000000e+000  0.000000e+000  0.000000e+000
    outer loop
      vertex  0.000000e+000  3.460000e+002  0.000000e+000
      vertex  0.000000e+000  3.263338e+002  3.318461e+001
      vertex  0.000000e+000  3.269352e+002  3.347425e+001
    endloop
  endfacet
  facet normal -9.999999e-001  0.000000e+000  0.000000e+000
    outer loop
      vertex  0.000000e+000  3.460000e+002  0.000000e+000
      vertex  0.000000e+000  3.269352e+002  3.347425e+001
      vertex  0.000000e+000  3.273514e+002  3.399617e+001
    endloop
  endfacet
  facet normal -1.000000e+000  0.000000e+000  0.000000e+000
    outer loop
      vertex  0.000000e+000  3.460000e+002  0.000000e+000
      vertex  0.000000e+000  3.273514e+002  3.399617e+001
      vertex  0.000000e+000  3.275000e+002  3.464700e+001
    endloop
  endfacet
  facet normal -1.000000e+000 -3.337517e-015 -1.782090e-015
    outer loop
      vertex  0.000000e+000  3.460000e+002  0.000000e+000
      vertex  0.000000e+000  3.275000e+002  3.464700e+001
      vertex -1.258993e-013  3.460000e+002  7.064700e+001
    endloop
  endfacet
  facet normal -1.000000e+000  4.075516e-016 -1.782090e-015
    outer loop
      vertex  0.000000e+000  1.730000e+002  0.000000e+000
      vertex -1.258993e-013  1.730000e+002  7.064700e+001
      vertex  0.000000e+000  3.245000e+002  3.464700e+001
    endloop
  endfacet
  facet normal -9.999999e-001  0.000000e+000  -0.000000e+000
    outer loop
      vertex  0.000000e+000  1.730000e+002  0.000000e+000
      vertex  0.000000e+000  3.245000e+002  3.464700e+001
      vertex  0.000000e+000  3.246486e+002  3.399617e+001
    endloop
  endfacet
  facet normal -1.000000e+000  0.000000e+000  -0.000000e+000
    outer loop
      vertex  0.000000e+000  1.730000e+002  0.000000e+000
      vertex  0.000000e+000  3.246486e+002  3.399617e+001
      vertex  0.000000e+000  3.250648e+002  3.347425e+001
    endloop
  endfacet
  facet normal -1.000000e+000  0.000000e+000  -0.000000e+000
    outer loop
      vertex  0.000000e+000  1.730000e+002  0.000000e+000
      vertex  0.000000e+000  3.250648e+002  3.347425e+001
      vertex  0.000000e+000  3.256662e+002  3.318461e+001
    endloop
  endfacet
  facet normal -9.999999e-001  0.000000e+000  -0.000000e+000
    outer loop
      vertex  0.000000e+000  1.730000e+002  0.000000e+000
      vertex  0.000000e+000  3.256662e+002  3.318461e+001
      vertex  0.000000e+000  3.263338e+002  3.318461e+001
    endloop
  endfacet
  facet normal -1.000000e+000  -0.000000e+000 -3.645281e-015
    outer loop
      vertex -1.258993e-013  1.730000e+002  7.064700e+001
      vertex  0.000000e+000  3.263338e+002  3.610939e+001
      vertex  0.000000e+000  3.256662e+002  3.610939e+001
    endloop
  endfacet
  facet normal -1.000000e+000  5.610810e-016 -1.165140e-015
    outer loop
      vertex -1.258993e-013  1.730000e+002  7.064700e+001
      vertex  0.000000e+000  3.256662e+002  3.610939e+001
      vertex  0.000000e+000  3.250648e+002  3.581975e+001
    endloop
  endfacet
  facet normal -1.000000e+000  7.000738e-016 -5.582620e-016
    outer loop
      vertex -1.258993e-013  1.730000e+002  7.064700e+001
      vertex  0.000000e+000  3.250648e+002  3.581975e+001
      vertex  0.000000e+000  3.246486e+002  3.529782e+001
    endloop
  endfacet
  facet normal -9.999999e-001  7.882624e-016 -1.799314e-016
    outer loop
      vertex -1.258993e-013  1.730000e+002  7.064700e+001
      vertex  0.000000e+000  3.246486e+002  3.529782e+001
      vertex  0.000000e+000  3.245000e+002  3.464700e+001
    endloop
  endfacet
  facet normal -1.000000e+000 -4.712245e-015 -1.075632e-015
    outer loop
      vertex -1.258993e-013  3.460000e+002  7.064700e+001
      vertex  0.000000e+000  3.275000e+002  3.464700e+001
      vertex  0.000000e+000  3.273514e+002  3.529782e+001
    endloop
  endfacet
  facet normal -1.000000e+000 -2.688021e-015 -2.143517e-015
    outer loop
      vertex -1.258993e-013  3.460000e+002  7.064700e+001
      vertex  0.000000e+000  3.273514e+002  3.529782e+001
      vertex  0.000000e+000  3.269352e+002  3.581975e+001
    endloop
  endfacet
  facet normal -1.000000e+000 -1.377650e-015 -2.860826e-015
    outer loop
      vertex -1.258993e-013  3.460000e+002  7.064700e+001
      vertex  0.000000e+000  3.269352e+002  3.581975e+001
      vertex  0.000000e+000  3.263338e+002  3.610939e+001
    endloop
  endfacet
  facet normal -9.999999e-001  0.000000e+000 -3.645280e-015
    outer loop
      vertex -1.258993e-013  3.460000e+002  7.064700e+001
      vertex  0.000000e+000  3.263338e+002  3.610939e+001
      vertex -1.258993e-013  1.730000e+002  7.064700e+001
    endloop
  endfacet
  facet normal  7.112311e-001 -6.853307e-001  1.564358e-001
    outer loop
      vertex  0.000000e+000  3.273514e+002  3.399617e+001
      vertex  2.000000e+000  3.293287e+002  3.356544e+001
      vertex  0.000000e+000  3.275000e+002  3.464700e+001
    endloop
  endfacet
  facet normal  7.027138e-001 -7.027138e-001  1.112945e-001
    outer loop
      vertex  2.000000e+000  3.293287e+002  3.356544e+001
      vertex  2.000000e+000  3.295000e+002  3.464700e+001
      vertex  0.000000e+000  3.275000e+002  3.464700e+001
    endloop
  endfacet
  facet normal  7.027138e-001  7.027138e-001  1.112945e-001
    outer loop
      vertex  2.000000e+000  3.225000e+002  3.464700e+001
      vertex  2.000000e+000  3.226713e+002  3.356544e+001
      vertex  0.000000e+000  3.245000e+002  3.464700e+001
    endloop
  endfacet
  facet normal  7.112311e-001  6.853307e-001  1.564358e-001
    outer loop
      vertex  2.000000e+000  3.226713e+002  3.356544e+001
      vertex  0.000000e+000  3.246486e+002  3.399617e+001
      vertex  0.000000e+000  3.245000e+002  3.464700e+001
    endloop
  endfacet
  facet normal  6.994375e-001  6.367986e-001  3.244605e-001
    outer loop
      vertex  2.000000e+000  3.226713e+002  3.356544e+001
      vertex  2.000000e+000  3.231684e+002  3.258975e+001
      vertex  0.000000e+000  3.246486e+002  3.399617e+001
    endloop
  endfacet
  facet normal  7.010810e-001  5.042211e-001  5.042286e-001
    outer loop
      vertex  2.000000e+000  3.231684e+002  3.258975e+001
      vertex  2.000000e+000  3.239427e+002  3.181544e+001
      vertex  0.000000e+000  3.250648e+002  3.347425e+001
    endloop
  endfacet
  facet normal  7.130585e-001  5.481548e-001  4.371200e-001
    outer loop
      vertex  0.000000e+000  3.246486e+002  3.399617e+001
      vertex  2.000000e+000  3.231684e+002  3.258975e+001
      vertex  0.000000e+000  3.250648e+002  3.347425e+001
    endloop
  endfacet
  facet normal  6.999851e-001  1.117178e-001  7.053651e-001
    outer loop
      vertex  2.000000e+000  3.249184e+002  3.131830e+001
      vertex  2.000000e+000  3.260000e+002  3.114700e+001
      vertex  0.000000e+000  3.256662e+002  3.318461e+001
    endloop
  endfacet
  facet normal  7.081553e-001  3.063405e-001  6.361380e-001
    outer loop
      vertex  0.000000e+000  3.250648e+002  3.347425e+001
      vertex  2.000000e+000  3.249184e+002  3.131830e+001
      vertex  0.000000e+000  3.256662e+002  3.318461e+001
    endloop
  endfacet
  facet normal  7.048682e-001  3.220362e-001  6.320234e-001
    outer loop
      vertex  2.000000e+000  3.239427e+002  3.181544e+001
      vertex  2.000000e+000  3.249184e+002  3.131830e+001
      vertex  0.000000e+000  3.250648e+002  3.347425e+001
    endloop
  endfacet
  facet normal  6.999851e-001 -1.117178e-001  7.053651e-001
    outer loop
      vertex  2.000000e+000  3.260000e+002  3.114700e+001
      vertex  2.000000e+000  3.270816e+002  3.131830e+001
      vertex  0.000000e+000  3.263338e+002  3.318461e+001
    endloop
  endfacet
  facet normal  7.136623e-001  0.000000e+000  7.004899e-001
    outer loop
      vertex  0.000000e+000  3.256662e+002  3.318461e+001
      vertex  2.000000e+000  3.260000e+002  3.114700e+001
      vertex  0.000000e+000  3.263338e+002  3.318461e+001
    endloop
  endfacet
  facet normal  7.010810e-001 -5.042211e-001  5.042286e-001
    outer loop
      vertex  2.000000e+000  3.280573e+002  3.181544e+001
      vertex  2.000000e+000  3.288316e+002  3.258975e+001
      vertex  0.000000e+000  3.269352e+002  3.347425e+001
    endloop
  endfacet
  facet normal  7.037882e-001 -3.082293e-001  6.400601e-001
    outer loop
      vertex  0.000000e+000  3.263338e+002  3.318461e+001
      vertex  2.000000e+000  3.280573e+002  3.181544e+001
      vertex  0.000000e+000  3.269352e+002  3.347425e+001
    endloop
  endfacet
  facet normal  7.075281e-001 -3.208317e-001  6.296594e-001
    outer loop
      vertex  2.000000e+000  3.270816e+002  3.131830e+001
      vertex  2.000000e+000  3.280573e+002  3.181544e+001
      vertex  0.000000e+000  3.263338e+002  3.318461e+001
    endloop
  endfacet
  facet normal  6.994375e-001 -6.367986e-001  3.244605e-001
    outer loop
      vertex  2.000000e+000  3.288316e+002  3.258975e+001
      vertex  2.000000e+000  3.293287e+002  3.356544e+001
      vertex  0.000000e+000  3.273514e+002  3.399617e+001
    endloop
  endfacet
  facet normal  7.130585e-001 -5.481548e-001  4.371200e-001
    outer loop
      vertex  0.000000e+000  3.269352e+002  3.347425e+001
      vertex  2.000000e+000  3.288316e+002  3.258975e+001
      vertex  0.000000e+000  3.273514e+002  3.399617e+001
    endloop
  endfacet
  facet normal  7.112312e-001  6.853306e-001 -1.564358e-001
    outer loop
      vertex  0.000000e+000  3.246486e+002  3.529782e+001
      vertex  2.000000e+000  3.226713e+002  3.572856e+001
      vertex  0.000000e+000  3.245000e+002  3.464700e+001
    endloop
  endfacet
  facet normal  7.027138e-001  7.027138e-001 -1.112941e-001
    outer loop
      vertex  2.000000e+000  3.226713e+002  3.572856e+001
      vertex  2.000000e+000  3.225000e+002  3.464700e+001
      vertex  0.000000e+000  3.245000e+002  3.464700e+001
    endloop
  endfacet
  facet normal  7.027138e-001 -7.027138e-001 -1.112945e-001
    outer loop
      vertex  2.000000e+000  3.295000e+002  3.464700e+001
      vertex  2.000000e+000  3.293287e+002  3.572856e+001
      vertex  0.000000e+000  3.275000e+002  3.464700e+001
    endloop
  endfacet
  facet normal  7.112311e-001 -6.853307e-001 -1.564358e-001
    outer loop
      vertex  2.000000e+000  3.293287e+002  3.572856e+001
      vertex  0.000000e+000  3.273514e+002  3.529782e+001
      vertex  0.000000e+000  3.275000e+002  3.464700e+001
    endloop
  endfacet
  facet normal  6.994375e-001 -6.367986e-001 -3.244605e-001
    outer loop
      vertex  2.000000e+000  3.293287e+002  3.572856e+001
      vertex  2.000000e+000  3.288316e+002  3.670425e+001
      vertex  0.000000e+000  3.273514e+002  3.529782e+001
    endloop
  endfacet
  facet normal  7.010805e-001 -5.042215e-001 -5.042289e-001
    outer loop
      vertex  2.000000e+000  3.288316e+002  3.670425e+001
      vertex  2.000000e+000  3.280573e+002  3.747856e+001
      vertex  0.000000e+000  3.269352e+002  3.581975e+001
    endloop
  endfacet
  facet normal  7.130584e-001 -5.481564e-001 -4.371181e-001
    outer loop
      vertex  0.000000e+000  3.273514e+002  3.529782e+001
      vertex  2.000000e+000  3.288316e+002  3.670425e+001
      vertex  0.000000e+000  3.269352e+002  3.581975e+001
    endloop
  endfacet
  facet normal  6.999851e-001 -1.117178e-001 -7.053651e-001
    outer loop
      vertex  2.000000e+000  3.270816e+002  3.797570e+001
      vertex  2.000000e+000  3.260000e+002  3.814700e+001
      vertex  0.000000e+000  3.263338e+002  3.610939e+001
    endloop
  endfacet
  facet normal  7.081555e-001 -3.063372e-001 -6.361395e-001
    outer loop
      vertex  0.000000e+000  3.269352e+002  3.581975e+001
      vertex  2.000000e+000  3.270816e+002  3.797570e+001
      vertex  0.000000e+000  3.263338e+002  3.610939e+001
    endloop
  endfacet
  facet normal  7.048676e-001 -3.220364e-001 -6.320239e-001
    outer loop
      vertex  2.000000e+000  3.280573e+002  3.747856e+001
      vertex  2.000000e+000  3.270816e+002  3.797570e+001
      vertex  0.000000e+000  3.269352e+002  3.581975e+001
    endloop
  endfacet
  facet normal  6.999851e-001  1.117178e-001 -7.053651e-001
    outer loop
      vertex  2.000000e+000  3.260000e+002  3.814700e+001
      vertex  2.000000e+000  3.249184e+002  3.797570e+001
      vertex  0.000000e+000  3.256662e+002  3.610939e+001
    endloop
  endfacet
  facet normal  7.136623e-001  0.000000e+000 -7.004899e-001
    outer loop
      vertex  0.000000e+000  3.263338e+002  3.610939e+001
      vertex  2.000000e+000  3.260000e+002  3.814700e+001
      vertex  0.000000e+000  3.256662e+002  3.610939e+001
    endloop
  endfacet
  facet normal  7.010810e-001  5.042211e-001 -5.042286e-001
    outer loop
      vertex  2.000000e+000  3.239427e+002  3.747856e+001
      vertex  2.000000e+000  3.231684e+002  3.670425e+001
      vertex  0.000000e+000  3.250648e+002  3.581975e+001
    endloop
  endfacet
  facet normal  7.037879e-001  3.082261e-001 -6.400620e-001
    outer loop
      vertex  0.000000e+000  3.256662e+002  3.610939e+001
      vertex  2.000000e+000  3.239427e+002  3.747856e+001
      vertex  0.000000e+000  3.250648e+002  3.581975e+001
    endloop
  endfacet
  facet normal  7.075282e-001  3.208297e-001 -6.296604e-001
    outer loop
      vertex  2.000000e+000  3.249184e+002  3.797570e+001
      vertex  2.000000e+000  3.239427e+002  3.747856e+001
      vertex  0.000000e+000  3.256662e+002  3.610939e+001
    endloop
  endfacet
  facet normal  6.994379e-001  6.367984e-001 -3.244604e-001
    outer loop
      vertex  2.000000e+000  3.231684e+002  3.670425e+001
      vertex  2.000000e+000  3.226713e+002  3.572856e+001
      vertex  0.000000e+000  3.246486e+002  3.529782e+001
    endloop
  endfacet
  facet normal  7.130588e-001  5.481561e-001 -4.371178e-001
    outer loop
      vertex  0.000000e+000  3.250648e+002  3.581975e+001
      vertex  2.000000e+000  3.231684e+002  3.670425e+001
      vertex  0.000000e+000  3.246486e+002  3.529782e+001
    endloop
  endfacet
  facet normal  -0.000000e+000 -1.000000e+000  -0.000000e+000
    outer loop
      vertex  8.238795e+000  1.730000e+002  4.300820e+001
      vertex  7.314696e+000  1.730000e+002  4.473707e+001
      vertex  6.071068e+000  1.730000e+002  4.625243e+001
    endloop
  endfacet
  facet normal  0.000000e+000 -1.000000e+000  0.000000e+000
    outer loop
      vertex -1.258993e-013  1.730000e+002  7.064700e+001
      vertex  0.000000e+000  1.730000e+002  0.000000e+000
      vertex  2.000000e+000  1.730000e+002  2.000000e+000
    endloop
  endfacet
  facet normal  0.000000e+000 -1.000000e+000  0.000000e+000
    outer loop
      vertex -1.258993e-013  1.730000e+002  7.064700e+001
      vertex  2.000000e+000  1.730000e+002  2.000000e+000
      vertex  2.000000e+000  1.730000e+002  2.032350e+001
    endloop
  endfacet
  facet normal  0.000000e+000 -9.999999e-001  0.000000e+000
    outer loop
      vertex -1.258993e-013  1.730000e+002  7.064700e+001
      vertex  2.000000e+000  1.730000e+002  2.032350e+001
      vertex  2.000000e+000  1.730000e+002  2.822350e+001
    endloop
  endfacet
  facet normal  0.000000e+000 -1.000000e+000  0.000000e+000
    outer loop
      vertex -1.258993e-013  1.730000e+002  7.064700e+001
      vertex  2.000000e+000  1.730000e+002  2.822350e+001
      vertex  2.000000e+000  1.730000e+002  4.242350e+001
    endloop
  endfacet
  facet normal  0.000000e+000 -9.999999e-001  0.000000e+000
    outer loop
      vertex -1.258993e-013  1.730000e+002  7.064700e+001
      vertex  2.000000e+000  1.730000e+002  4.242350e+001
      vertex  2.000000e+000  1.730000e+002  5.032350e+001
    endloop
  endfacet
  facet normal  0.000000e+000 -1.000000e+000  0.000000e+000
    outer loop
      vertex -1.258993e-013  1.730000e+002  7.064700e+001
      vertex  2.000000e+000  1.730000e+002  5.032350e+001
      vertex  2.000000e+000  1.730000e+002  6.864700e+001
    endloop
  endfacet
  facet normal  -0.000000e+000 -1.000000e+000  0.000000e+000
    outer loop
      vertex  2.000000e+000  1.730000e+002  2.032350e+001
      vertex  6.071068e+000  1.730000e+002  2.439457e+001
      vertex  2.000000e+000  1.730000e+002  2.822350e+001
    endloop
  endfacet
  facet normal  0.000000e+000 -1.000000e+000  0.000000e+000
    outer loop
      vertex  2.000000e+000  1.730000e+002  2.822350e+001
      vertex  6.071068e+000  1.730000e+002  2.439457e+001
      vertex  3.700000e+000  1.730000e+002  2.822350e+001
    endloop
  endfacet
  facet normal  -0.000000e+000 -1.000000e+000  0.000000e+000
    outer loop
      vertex  6.071068e+000  1.730000e+002  2.439457e+001
      vertex  7.314696e+000  1.730000e+002  2.590993e+001
      vertex  3.700000e+000  1.730000e+002  2.822350e+001
    endloop
  endfacet
  facet normal  0.000000e+000 -1.000000e+000  0.000000e+000
    outer loop
      vertex  3.700000e+000  1.730000e+002  2.822350e+001
      vertex  7.314696e+000  1.730000e+002  2.590993e+001
      vertex  8.238795e+000  1.730000e+002  2.763880e+001
    endloop
  endfacet
  facet normal  0.000000e+000 -1.000000e+000  0.000000e+000
    outer loop
      vertex  2.000000e+000  1.730000e+002  5.032350e+001
      vertex  2.000000e+000  1.730000e+002  4.242350e+001
      vertex  6.071068e+000  1.730000e+002  4.625243e+001
    endloop
  endfacet
  facet normal  0.000000e+000 -1.000000e+000  0.000000e+000
    outer loop
      vertex  6.071068e+000  1.730000e+002  4.625243e+001
      vertex  2.000000e+000  1.730000e+002  4.242350e+001
      vertex  3.700000e+000  1.730000e+002  4.242350e+001
    endloop
  endfacet
  facet normal  0.000000e+000 -9.999999e-001  0.000000e+000
    outer loop
      vertex  6.071068e+000  1.730000e+002  4.625243e+001
      vertex  3.700000e+000  1.730000e+002  4.242350e+001
      vertex  8.238795e+000  1.730000e+002  4.300820e+001
    endloop
  endfacet
  facet normal  0.000000e+000 -1.000000e+000  -0.000000e+000
    outer loop
      vertex  8.238795e+000  1.730000e+002  4.300820e+001
      vertex  3.700000e+000  1.730000e+002  4.242350e+001
      vertex  9.000000e+000  1.730000e+002  3.918137e+001
    endloop
  endfacet
  facet normal  0.000000e+000 -1.000000e+000  0.000000e+000
    outer loop
      vertex  8.238795e+000  1.730000e+002  4.300820e+001
      vertex  9.000000e+000  1.730000e+002  3.918137e+001
      vertex  8.807853e+000  1.730000e+002  4.113227e+001
    endloop
  endfacet
  facet normal  0.000000e+000 -1.000000e+000  0.000000e+000
    outer loop
      vertex  3.700000e+000  1.730000e+002  4.242350e+001
      vertex  3.700000e+000  1.730000e+002  2.822350e+001
      vertex  9.000000e+000  1.730000e+002  3.918137e+001
    endloop
  endfacet
  facet normal  0.000000e+000 -1.000000e+000  -0.000000e+000
    outer loop
      vertex  9.000000e+000  1.730000e+002  3.918137e+001
      vertex  3.700000e+000  1.730000e+002  2.822350e+001
      vertex  9.000000e+000  1.730000e+002  3.146564e+001
    endloop
  endfacet
  facet normal  0.000000e+000 -1.000000e+000  0.000000e+000
    outer loop
      vertex  3.700000e+000  1.730000e+002  2.822350e+001
      vertex  8.238795e+000  1.730000e+002  2.763880e+001
      vertex  9.000000e+000  1.730000e+002  3.146564e+001
    endloop
  endfacet
  facet normal  0.000000e+000 -1.000000e+000  0.000000e+000
    outer loop
      vertex  9.000000e+000  1.730000e+002  3.146564e+001
      vertex  8.238795e+000  1.730000e+002  2.763880e+001
      vertex  8.807853e+000  1.730000e+002  2.951473e+001
    endloop
  endfacet
  facet normal  0.000000e+000  0.000000e+000  1.000000e+000
    outer loop
      vertex  2.000000e+000  1.730000e+002  4.242350e+001
      vertex  2.000000e+000  1.530000e+002  4.242350e+001
      vertex  3.700000e+000  1.730000e+002  4.242350e+001
    endloop
  endfacet
  facet normal  0.000000e+000  0.000000e+000  1.000000e+000
    outer loop
      vertex  3.700000e+000  1.730000e+002  4.242350e+001
      vertex  2.000000e+000  1.530000e+002  4.242350e+001
      vertex  3.700000e+000  1.530000e+002  4.242350e+001
    endloop
  endfacet
  facet normal  1.000000e+000  0.000000e+000  0.000000e+000
    outer loop
      vertex  3.700000e+000  1.730000e+002  2.822350e+001
      vertex  3.700000e+000  1.730000e+002  4.242350e+001
      vertex  3.700000e+000  1.530000e+002  2.822350e+001
    endloop
  endfacet
  facet normal  1.000000e+000  0.000000e+000  0.000000e+000
    outer loop
      vertex  3.700000e+000  1.530000e+002  2.822350e+001
      vertex  3.700000e+000  1.730000e+002  4.242350e+001
      vertex  3.700000e+000  1.530000e+002  4.242350e+001
    endloop
  endfacet
  facet normal  0.000000e+000  0.000000e+000 -1.000000e+000
    outer loop
      vertex  3.700000e+000  1.730000e+002  2.822350e+001
      vertex  3.700000e+000  1.530000e+002  2.822350e+001
      vertex  2.000000e+000  1.730000e+002  2.822350e+001
    endloop
  endfacet
  facet normal  0.000000e+000  0.000000e+000 -1.000000e+000
    outer loop
      vertex  2.000000e+000  1.730000e+002  2.822350e+001
      vertex  3.700000e+000  1.530000e+002  2.822350e+001
      vertex  2.000000e+000  1.530000e+002  2.822350e+001
    endloop
  endfacet
  facet normal -1.000000e+000  -0.000000e+000  0.000000e+000
    outer loop
      vertex  2.000000e+000  1.530000e+002  4.242350e+001
      vertex  2.000000e+000  1.730000e+002  4.242350e+001
      vertex  2.000000e+000  1.530000e+002  2.822350e+001
    endloop
  endfacet
  facet normal -1.000000e+000  0.000000e+000  0.000000e+000
    outer loop
      vertex  2.000000e+000  1.530000e+002  2.822350e+001
      vertex  2.000000e+000  1.730000e+002  4.242350e+001
      vertex  2.000000e+000  1.730000e+002  2.822350e+001
    endloop
  endfacet
  facet normal  0.000000e+000 -1.000000e+000  0.000000e+000
    outer loop
      vertex  2.000000e+000  1.530000e+002  2.822350e+001
      vertex  3.700000e+000  1.530000e+002  2.822350e+001
      vertex  2.000000e+000  1.530000e+002  4.242350e+001
    endloop
  endfacet
  facet normal  0.000000e+000 -1.000000e+000  0.000000e+000
    outer loop
      vertex  2.000000e+000  1.530000e+002  4.242350e+001
      vertex  3.700000e+000  1.530000e+002  2.822350e+001
      vertex  3.700000e+000  1.530000e+002  4.242350e+001
    endloop
  endfacet
  facet normal  0.000000e+000  1.000000e+000  -0.000000e+000
    outer loop
      vertex  9.000000e+000  1.930000e+002  3.918137e+001
      vertex  9.000000e+000  1.930000e+002  3.146564e+001
      vertex  2.000000e+000  1.930000e+002  2.032350e+001
    endloop
  endfacet
  facet normal  0.000000e+000  1.000000e+000  0.000000e+000
    outer loop
      vertex  9.000000e+000  1.930000e+002  3.918137e+001
      vertex  2.000000e+000  1.930000e+002  2.032350e+001
      vertex  2.000000e+000  1.930000e+002  5.032350e+001
    endloop
  endfacet
  facet normal  0.000000e+000  1.000000e+000  0.000000e+000
    outer loop
      vertex  9.000000e+000  1.930000e+002  3.918137e+001
      vertex  2.000000e+000  1.930000e+002  5.032350e+001
      vertex  6.071068e+000  1.930000e+002  4.625243e+001
    endloop
  endfacet
  facet normal  0.000000e+000  1.000000e+000  0.000000e+000
    outer loop
      vertex  9.000000e+000  1.930000e+002  3.918137e+001
      vertex  6.071068e+000  1.930000e+002  4.625243e+001
      vertex  7.314696e+000  1.930000e+002  4.473707e+001
    endloop
  endfacet
  facet normal  0.000000e+000  1.000000e+000  0.000000e+000
    outer loop
      vertex  9.000000e+000  1.930000e+002  3.918137e+001
      vertex  7.314696e+000  1.930000e+002  4.473707e+001
      vertex  8.238795e+000  1.930000e+002  4.300820e+001
    endloop
  endfacet
  facet normal  0.000000e+000  1.000000e+000  0.000000e+000
    outer loop
      vertex  9.000000e+000  1.930000e+002  3.918137e+001
      vertex  8.238795e+000  1.930000e+002  4.300820e+001
      vertex  8.807853e+000  1.930000e+002  4.113227e+001
    endloop
  endfacet
  facet normal  0.000000e+000  1.000000e+000  0.000000e+000
    outer loop
      vertex  2.000000e+000  1.930000e+002  2.032350e+001
      vertex  9.000000e+000  1.930000e+002  3.146564e+001
      vertex  8.807853e+000  1.930000e+002  2.951473e+001
    endloop
  endfacet
  facet normal  0.000000e+000  1.000000e+000  0.000000e+000
    outer loop
      vertex  2.000000e+000  1.930000e+002  2.032350e+001
      vertex  8.807853e+000  1.930000e+002  2.951473e+001
      vertex  8.238795e+000  1.930000e+002  2.763880e+001
    endloop
  endfacet
  facet normal  0.000000e+000  1.000000e+000  0.000000e+000
    outer loop
      vertex  2.000000e+000  1.930000e+002  2.032350e+001
      vertex  8.238795e+000  1.930000e+002  2.763880e+001
      vertex  7.314696e+000  1.930000e+002  2.590993e+001
    endloop
  endfacet
  facet normal  0.000000e+000  1.000000e+000  0.000000e+000
    outer loop
      vertex  2.000000e+000  1.930000e+002  2.032350e+001
      vertex  7.314696e+000  1.930000e+002  2.590993e+001
      vertex  6.071068e+000  1.930000e+002  2.439457e+001
    endloop
  endfacet
  facet normal  1.000000e+000  0.000000e+000  0.000000e+000
    outer loop
      vertex  9.000000e+000  1.730000e+002  3.918137e+001
      vertex  9.000000e+000  1.730000e+002  3.146564e+001
      vertex  9.000000e+000  1.930000e+002  3.918137e+001
    endloop
  endfacet
  facet normal  1.000000e+000  0.000000e+000  0.000000e+000
    outer loop
      vertex  9.000000e+000  1.930000e+002  3.918137e+001
      vertex  9.000000e+000  1.730000e+002  3.146564e+001
      vertex  9.000000e+000  1.930000e+002  3.146564e+001
    endloop
  endfacet
  facet normal  7.071068e-001  0.000000e+000 -7.071068e-001
    outer loop
      vertex  2.000000e+000  1.930000e+002  2.032350e+001
      vertex  6.071068e+000  1.930000e+002  2.439457e+001
      vertex  2.000000e+000  1.730000e+002  2.032350e+001
    endloop
  endfacet
  facet normal  7.071068e-001  0.000000e+000 -7.071068e-001
    outer loop
      vertex  2.000000e+000  1.730000e+002  2.032350e+001
      vertex  6.071068e+000  1.930000e+002  2.439457e+001
      vertex  6.071068e+000  1.730000e+002  2.439457e+001
    endloop
  endfacet
  facet normal  9.951847e-001  0.000000e+000 -9.801718e-002
    outer loop
      vertex  9.000000e+000  1.930000e+002  3.146564e+001
      vertex  9.000000e+000  1.730000e+002  3.146564e+001
      vertex  8.807853e+000  1.930000e+002  2.951473e+001
    endloop
  endfacet
  facet normal  9.951847e-001  0.000000e+000 -9.801718e-002
    outer loop
      vertex  8.807853e+000  1.930000e+002  2.951473e+001
      vertex  9.000000e+000  1.730000e+002  3.146564e+001
      vertex  8.807853e+000  1.730000e+002  2.951473e+001
    endloop
  endfacet
  facet normal  9.569403e-001  0.000000e+000 -2.902847e-001
    outer loop
      vertex  8.807853e+000  1.930000e+002  2.951473e+001
      vertex  8.807853e+000  1.730000e+002  2.951473e+001
      vertex  8.238795e+000  1.930000e+002  2.763880e+001
    endloop
  endfacet
  facet normal  9.569403e-001  0.000000e+000 -2.902847e-001
    outer loop
      vertex  8.238795e+000  1.930000e+002  2.763880e+001
      vertex  8.807853e+000  1.730000e+002  2.951473e+001
      vertex  8.238795e+000  1.730000e+002  2.763880e+001
    endloop
  endfacet
  facet normal  8.819214e-001  0.000000e+000 -4.713965e-001
    outer loop
      vertex  8.238795e+000  1.930000e+002  2.763880e+001
      vertex  8.238795e+000  1.730000e+002  2.763880e+001
      vertex  7.314696e+000  1.930000e+002  2.590993e+001
    endloop
  endfacet
  facet normal  8.819214e-001  0.000000e+000 -4.713965e-001
    outer loop
      vertex  7.314696e+000  1.930000e+002  2.590993e+001
      vertex  8.238795e+000  1.730000e+002  2.763880e+001
      vertex  7.314696e+000  1.730000e+002  2.590993e+001
    endloop
  endfacet
  facet normal  7.730104e-001  0.000000e+000 -6.343933e-001
    outer loop
      vertex  7.314696e+000  1.930000e+002  2.590993e+001
      vertex  7.314696e+000  1.730000e+002  2.590993e+001
      vertex  6.071068e+000  1.930000e+002  2.439457e+001
    endloop
  endfacet
  facet normal  7.730104e-001  0.000000e+000 -6.343933e-001
    outer loop
      vertex  6.071068e+000  1.930000e+002  2.439457e+001
      vertex  7.314696e+000  1.730000e+002  2.590993e+001
      vertex  6.071068e+000  1.730000e+002  2.439457e+001
    endloop
  endfacet
  facet normal  7.071068e-001  0.000000e+000  7.071068e-001
    outer loop
      vertex  2.000000e+000  1.730000e+002  5.032350e+001
      vertex  6.071068e+000  1.730000e+002  4.625243e+001
      vertex  2.000000e+000  1.930000e+002  5.032350e+001
    endloop
  endfacet
  facet normal  7.071068e-001  0.000000e+000  7.071068e-001
    outer loop
      vertex  2.000000e+000  1.930000e+002  5.032350e+001
      vertex  6.071068e+000  1.730000e+002  4.625243e+001
      vertex  6.071068e+000  1.930000e+002  4.625243e+001
    endloop
  endfacet
  facet normal  7.730104e-001  -0.000000e+000  6.343933e-001
    outer loop
      vertex  6.071068e+000  1.930000e+002  4.625243e+001
      vertex  6.071068e+000  1.730000e+002  4.625243e+001
      vertex  7.314696e+000  1.930000e+002  4.473707e+001
    endloop
  endfacet
  facet normal  7.730104e-001  0.000000e+000  6.343933e-001
    outer loop
      vertex  7.314696e+000  1.930000e+002  4.473707e+001
      vertex  6.071068e+000  1.730000e+002  4.625243e+001
      vertex  7.314696e+000  1.730000e+002  4.473707e+001
    endloop
  endfacet
  facet normal  8.819216e-001  -0.000000e+000  4.713961e-001
    outer loop
      vertex  7.314696e+000  1.930000e+002  4.473707e+001
      vertex  7.314696e+000  1.730000e+002  4.473707e+001
      vertex  8.238795e+000  1.930000e+002  4.300820e+001
    endloop
  endfacet
  facet normal  8.819216e-001  0.000000e+000  4.713961e-001
    outer loop
      vertex  8.238795e+000  1.930000e+002  4.300820e+001
      vertex  7.314696e+000  1.730000e+002  4.473707e+001
      vertex  8.238795e+000  1.730000e+002  4.300820e+001
    endloop
  endfacet
  facet normal  9.569403e-001  -0.000000e+000  2.902847e-001
    outer loop
      vertex  8.238795e+000  1.930000e+002  4.300820e+001
      vertex  8.238795e+000  1.730000e+002  4.300820e+001
      vertex  8.807853e+000  1.930000e+002  4.113227e+001
    endloop
  endfacet
  facet normal  9.569403e-001  0.000000e+000  2.902847e-001
    outer loop
      vertex  8.807853e+000  1.930000e+002  4.113227e+001
      vertex  8.238795e+000  1.730000e+002  4.300820e+001
      vertex  8.807853e+000  1.730000e+002  4.113227e+001
    endloop
  endfacet
  facet normal  9.951847e-001  -0.000000e+000  9.801728e-002
    outer loop
      vertex  8.807853e+000  1.930000e+002  4.113227e+001
      vertex  8.807853e+000  1.730000e+002  4.113227e+001
      vertex  9.000000e+000  1.930000e+002  3.918137e+001
    endloop
  endfacet
  facet normal  9.951847e-001  0.000000e+000  9.801728e-002
    outer loop
      vertex  9.000000e+000  1.930000e+002  3.918137e+001
      vertex  8.807853e+000  1.730000e+002  4.113227e+001
      vertex  9.000000e+000  1.730000e+002  3.918137e+001
    endloop
  endfacet
  facet normal  0.000000e+000  1.000000e+000  0.000000e+000
    outer loop
      vertex  2.000000e+000  3.460000e+002  2.000000e+000
      vertex  0.000000e+000  3.460000e+002  0.000000e+000
      vertex  2.000000e+000  3.460000e+002  6.864700e+001
    endloop
  endfacet
  facet normal  0.000000e+000  1.000000e+000  0.000000e+000
    outer loop
      vertex  2.000000e+000  3.460000e+002  6.864700e+001
      vertex  0.000000e+000  3.460000e+002  0.000000e+000
      vertex -1.258993e-013  3.460000e+002  7.064700e+001
    endloop
  endfacet
  facet normal  7.071068e-001  0.000000e+000 -7.071068e-001
    outer loop
      vertex  0.000000e+000  1.730000e+002  0.000000e+000
      vertex  0.000000e+000  3.460000e+002  0.000000e+000
      vertex  2.000000e+000  1.730000e+002  2.000000e+000
    endloop
  endfacet
  facet normal  7.071068e-001  0.000000e+000 -7.071068e-001
    outer loop
      vertex  2.000000e+000  1.730000e+002  2.000000e+000
      vertex  0.000000e+000  3.460000e+002  0.000000e+000
      vertex  2.000000e+000  3.460000e+002  2.000000e+000
    endloop
  endfacet
  facet normal  7.071068e-001  -0.000000e+000  7.071068e-001
    outer loop
      vertex -1.258993e-013  3.460000e+002  7.064700e+001
      vertex -1.258993e-013  1.730000e+002  7.064700e+001
      vertex  2.000000e+000  3.460000e+002  6.864700e+001
    endloop
  endfacet
  facet normal  7.071068e-001  0.000000e+000  7.071068e-001
    outer loop
      vertex  2.000000e+000  3.460000e+002  6.864700e+001
      vertex -1.258993e-013  1.730000e+002  7.064700e+001
      vertex  2.000000e+000  1.730000e+002  6.864700e+001
    endloop
  endfacet
endsolid CATIA STL
