solid CATIA STL
  facet normal  1.000000e+000  0.000000e+000  -0.000000e+000
    outer loop
      vertex  2.000000e+000  1.530000e+002  3.766124e+001
      vertex  2.000000e+000  1.730000e+002  3.766124e+001
      vertex  2.000000e+000  1.730000e+002  4.028500e+001
    endloop
  endfacet
  facet normal  1.000000e+000  0.000000e+000  0.000000e+000
    outer loop
      vertex  2.000000e+000  1.530000e+002  3.766124e+001
      vertex  2.000000e+000  1.730000e+002  4.028500e+001
      vertex  2.000000e+000  2.500000e+001  2.471900e+001
    endloop
  endfacet
  facet normal  1.000000e+000  0.000000e+000  0.000000e+000
    outer loop
      vertex  2.000000e+000  1.530000e+002  3.766124e+001
      vertex  2.000000e+000  2.500000e+001  2.471900e+001
      vertex  2.000000e+000  1.530000e+002  2.864250e+001
    endloop
  endfacet
  facet normal  9.999999e-001  0.000000e+000  -0.000000e+000
    outer loop
      vertex  2.000000e+000  0.000000e+000  2.000000e+000
      vertex  2.000000e+000  1.730000e+002  2.000000e+000
      vertex  2.000000e+000  1.730000e+002  4.623873e+000
    endloop
  endfacet
  facet normal  9.999999e-001  0.000000e+000  0.000000e+000
    outer loop
      vertex  2.000000e+000  0.000000e+000  2.000000e+000
      vertex  2.000000e+000  1.730000e+002  4.623873e+000
      vertex  2.000000e+000  1.530000e+002  4.623873e+000
    endloop
  endfacet
  facet normal  1.000000e+000  0.000000e+000  -0.000000e+000
    outer loop
      vertex  2.000000e+000  0.000000e+000  2.000000e+000
      vertex  2.000000e+000  1.530000e+002  4.623873e+000
      vertex  2.000000e+000  1.530000e+002  1.364250e+001
    endloop
  endfacet
  facet normal  1.000000e+000  0.000000e+000  0.000000e+000
    outer loop
      vertex  2.000000e+000  0.000000e+000  2.000000e+000
      vertex  2.000000e+000  1.530000e+002  1.364250e+001
      vertex  2.000000e+000  2.500000e+001  1.751900e+001
    endloop
  endfacet
  facet normal  1.000000e+000  0.000000e+000  0.000000e+000
    outer loop
      vertex  2.000000e+000  0.000000e+000  2.000000e+000
      vertex  2.000000e+000  2.500000e+001  1.751900e+001
      vertex  2.000000e+000  1.000000e+001  1.751900e+001
    endloop
  endfacet
  facet normal  1.000000e+000  0.000000e+000  0.000000e+000
    outer loop
      vertex  2.000000e+000  0.000000e+000  2.000000e+000
      vertex  2.000000e+000  1.000000e+001  1.751900e+001
      vertex  2.000000e+000  8.887539e+000  1.769520e+001
    endloop
  endfacet
  facet normal  1.000000e+000  0.000000e+000  0.000000e+000
    outer loop
      vertex  2.000000e+000  0.000000e+000  2.000000e+000
      vertex  2.000000e+000  8.887539e+000  1.769520e+001
      vertex  2.000000e+000  7.883973e+000  1.820654e+001
    endloop
  endfacet
  facet normal  9.999999e-001  0.000000e+000  0.000000e+000
    outer loop
      vertex  2.000000e+000  0.000000e+000  2.000000e+000
      vertex  2.000000e+000  7.883973e+000  1.820654e+001
      vertex  2.000000e+000  7.087539e+000  1.900297e+001
    endloop
  endfacet
  facet normal  1.000000e+000  0.000000e+000  0.000000e+000
    outer loop
      vertex  2.000000e+000  0.000000e+000  2.000000e+000
      vertex  2.000000e+000  7.087539e+000  1.900297e+001
      vertex  2.000000e+000  6.576196e+000  2.000654e+001
    endloop
  endfacet
  facet normal  1.000000e+000  0.000000e+000  0.000000e+000
    outer loop
      vertex  2.000000e+000  0.000000e+000  2.000000e+000
      vertex  2.000000e+000  6.576196e+000  2.000654e+001
      vertex  2.000000e+000  6.400000e+000  2.111900e+001
    endloop
  endfacet
  facet normal  1.000000e+000  0.000000e+000  -0.000000e+000
    outer loop
      vertex  2.000000e+000  0.000000e+000  2.000000e+000
      vertex  2.000000e+000  6.400000e+000  2.111900e+001
      vertex  2.000000e+000  6.576197e+000  2.223146e+001
    endloop
  endfacet
  facet normal  1.000000e+000  0.000000e+000  0.000000e+000
    outer loop
      vertex  2.000000e+000  0.000000e+000  2.000000e+000
      vertex  2.000000e+000  6.576197e+000  2.223146e+001
      vertex  2.000000e+000  0.000000e+000  4.028500e+001
    endloop
  endfacet
  facet normal  9.999999e-001  0.000000e+000  -0.000000e+000
    outer loop
      vertex  2.000000e+000  0.000000e+000  4.028500e+001
      vertex  2.000000e+000  6.576197e+000  2.223146e+001
      vertex  2.000000e+000  7.087539e+000  2.323503e+001
    endloop
  endfacet
  facet normal  1.000000e+000  0.000000e+000  -0.000000e+000
    outer loop
      vertex  2.000000e+000  0.000000e+000  4.028500e+001
      vertex  2.000000e+000  7.087539e+000  2.323503e+001
      vertex  2.000000e+000  7.883973e+000  2.403146e+001
    endloop
  endfacet
  facet normal  9.999999e-001  0.000000e+000  -0.000000e+000
    outer loop
      vertex  2.000000e+000  0.000000e+000  4.028500e+001
      vertex  2.000000e+000  7.883973e+000  2.403146e+001
      vertex  2.000000e+000  8.887539e+000  2.454280e+001
    endloop
  endfacet
  facet normal  1.000000e+000  0.000000e+000  -0.000000e+000
    outer loop
      vertex  2.000000e+000  0.000000e+000  4.028500e+001
      vertex  2.000000e+000  8.887539e+000  2.454280e+001
      vertex  2.000000e+000  1.000000e+001  2.471900e+001
    endloop
  endfacet
  facet normal  1.000000e+000  0.000000e+000  -0.000000e+000
    outer loop
      vertex  2.000000e+000  0.000000e+000  4.028500e+001
      vertex  2.000000e+000  1.000000e+001  2.471900e+001
      vertex  2.000000e+000  2.500000e+001  2.471900e+001
    endloop
  endfacet
  facet normal  1.000000e+000  0.000000e+000  -0.000000e+000
    outer loop
      vertex  2.000000e+000  0.000000e+000  4.028500e+001
      vertex  2.000000e+000  2.500000e+001  2.471900e+001
      vertex  2.000000e+000  1.730000e+002  4.028500e+001
    endloop
  endfacet
  facet normal  1.000000e+000  0.000000e+000  0.000000e+000
    outer loop
      vertex  2.000000e+000  1.730000e+002  1.364250e+001
      vertex  2.000000e+000  1.730000e+002  2.864250e+001
      vertex  2.000000e+000  1.530000e+002  2.864250e+001
    endloop
  endfacet
  facet normal  1.000000e+000  0.000000e+000  0.000000e+000
    outer loop
      vertex  2.000000e+000  1.730000e+002  1.364250e+001
      vertex  2.000000e+000  1.530000e+002  2.864250e+001
      vertex  2.000000e+000  2.500000e+001  2.471900e+001
    endloop
  endfacet
  facet normal  1.000000e+000  0.000000e+000  0.000000e+000
    outer loop
      vertex  2.000000e+000  1.730000e+002  1.364250e+001
      vertex  2.000000e+000  2.500000e+001  2.471900e+001
      vertex  2.000000e+000  2.611246e+001  2.454280e+001
    endloop
  endfacet
  facet normal  1.000000e+000  0.000000e+000  0.000000e+000
    outer loop
      vertex  2.000000e+000  1.730000e+002  1.364250e+001
      vertex  2.000000e+000  2.611246e+001  2.454280e+001
      vertex  2.000000e+000  2.711603e+001  2.403146e+001
    endloop
  endfacet
  facet normal  1.000000e+000  0.000000e+000  0.000000e+000
    outer loop
      vertex  2.000000e+000  1.730000e+002  1.364250e+001
      vertex  2.000000e+000  2.711603e+001  2.403146e+001
      vertex  2.000000e+000  2.791246e+001  2.323503e+001
    endloop
  endfacet
  facet normal  1.000000e+000  0.000000e+000  0.000000e+000
    outer loop
      vertex  2.000000e+000  1.730000e+002  1.364250e+001
      vertex  2.000000e+000  2.791246e+001  2.323503e+001
      vertex  2.000000e+000  2.842380e+001  2.223146e+001
    endloop
  endfacet
  facet normal  1.000000e+000  0.000000e+000  0.000000e+000
    outer loop
      vertex  2.000000e+000  1.730000e+002  1.364250e+001
      vertex  2.000000e+000  2.842380e+001  2.223146e+001
      vertex  2.000000e+000  2.860000e+001  2.111900e+001
    endloop
  endfacet
  facet normal  1.000000e+000  0.000000e+000  0.000000e+000
    outer loop
      vertex  2.000000e+000  1.730000e+002  1.364250e+001
      vertex  2.000000e+000  2.860000e+001  2.111900e+001
      vertex  2.000000e+000  2.842380e+001  2.000654e+001
    endloop
  endfacet
  facet normal  1.000000e+000  0.000000e+000  0.000000e+000
    outer loop
      vertex  2.000000e+000  1.730000e+002  1.364250e+001
      vertex  2.000000e+000  2.842380e+001  2.000654e+001
      vertex  2.000000e+000  2.791246e+001  1.900297e+001
    endloop
  endfacet
  facet normal  1.000000e+000  0.000000e+000  0.000000e+000
    outer loop
      vertex  2.000000e+000  1.730000e+002  1.364250e+001
      vertex  2.000000e+000  2.791246e+001  1.900297e+001
      vertex  2.000000e+000  2.711603e+001  1.820654e+001
    endloop
  endfacet
  facet normal  1.000000e+000  0.000000e+000  0.000000e+000
    outer loop
      vertex  2.000000e+000  1.730000e+002  1.364250e+001
      vertex  2.000000e+000  2.711603e+001  1.820654e+001
      vertex  2.000000e+000  2.611246e+001  1.769520e+001
    endloop
  endfacet
  facet normal  9.999999e-001  0.000000e+000  0.000000e+000
    outer loop
      vertex  2.000000e+000  1.730000e+002  1.364250e+001
      vertex  2.000000e+000  2.611246e+001  1.769520e+001
      vertex  2.000000e+000  2.500000e+001  1.751900e+001
    endloop
  endfacet
  facet normal  1.000000e+000  0.000000e+000  0.000000e+000
    outer loop
      vertex  2.000000e+000  1.730000e+002  1.364250e+001
      vertex  2.000000e+000  2.500000e+001  1.751900e+001
      vertex  2.000000e+000  1.530000e+002  1.364250e+001
    endloop
  endfacet
  facet normal  1.000000e+000  -0.000000e+000  0.000000e+000
    outer loop
      vertex  2.000000e+000  2.500000e+001  2.471900e+001
      vertex  2.000000e+000  1.000000e+001  2.471900e+001
      vertex  2.000000e+000  2.388754e+001  2.454280e+001
    endloop
  endfacet
  facet normal  1.000000e+000  0.000000e+000  0.000000e+000
    outer loop
      vertex  2.000000e+000  2.388754e+001  2.454280e+001
      vertex  2.000000e+000  1.000000e+001  2.471900e+001
      vertex  2.000000e+000  1.111246e+001  2.454280e+001
    endloop
  endfacet
  facet normal  1.000000e+000  -0.000000e+000  0.000000e+000
    outer loop
      vertex  2.000000e+000  2.388754e+001  2.454280e+001
      vertex  2.000000e+000  1.111246e+001  2.454280e+001
      vertex  2.000000e+000  2.288397e+001  2.403146e+001
    endloop
  endfacet
  facet normal  1.000000e+000  0.000000e+000  0.000000e+000
    outer loop
      vertex  2.000000e+000  2.288397e+001  2.403146e+001
      vertex  2.000000e+000  1.111246e+001  2.454280e+001
      vertex  2.000000e+000  1.211603e+001  2.403146e+001
    endloop
  endfacet
  facet normal  1.000000e+000  -0.000000e+000  0.000000e+000
    outer loop
      vertex  2.000000e+000  2.288397e+001  2.403146e+001
      vertex  2.000000e+000  1.211603e+001  2.403146e+001
      vertex  2.000000e+000  2.208754e+001  2.323503e+001
    endloop
  endfacet
  facet normal  1.000000e+000  0.000000e+000  0.000000e+000
    outer loop
      vertex  2.000000e+000  2.208754e+001  2.323503e+001
      vertex  2.000000e+000  1.211603e+001  2.403146e+001
      vertex  2.000000e+000  1.291246e+001  2.323503e+001
    endloop
  endfacet
  facet normal  1.000000e+000  -0.000000e+000  0.000000e+000
    outer loop
      vertex  2.000000e+000  2.208754e+001  2.323503e+001
      vertex  2.000000e+000  1.291246e+001  2.323503e+001
      vertex  2.000000e+000  2.157620e+001  2.223146e+001
    endloop
  endfacet
  facet normal  1.000000e+000  0.000000e+000  0.000000e+000
    outer loop
      vertex  2.000000e+000  2.157620e+001  2.223146e+001
      vertex  2.000000e+000  1.291246e+001  2.323503e+001
      vertex  2.000000e+000  1.342380e+001  2.223146e+001
    endloop
  endfacet
  facet normal  1.000000e+000  -0.000000e+000  0.000000e+000
    outer loop
      vertex  2.000000e+000  2.157620e+001  2.223146e+001
      vertex  2.000000e+000  1.342380e+001  2.223146e+001
      vertex  2.000000e+000  2.140000e+001  2.111900e+001
    endloop
  endfacet
  facet normal  1.000000e+000  0.000000e+000  0.000000e+000
    outer loop
      vertex  2.000000e+000  2.140000e+001  2.111900e+001
      vertex  2.000000e+000  1.342380e+001  2.223146e+001
      vertex  2.000000e+000  1.360000e+001  2.111900e+001
    endloop
  endfacet
  facet normal  1.000000e+000  -0.000000e+000  0.000000e+000
    outer loop
      vertex  2.000000e+000  2.140000e+001  2.111900e+001
      vertex  2.000000e+000  1.360000e+001  2.111900e+001
      vertex  2.000000e+000  2.157620e+001  2.000654e+001
    endloop
  endfacet
  facet normal  1.000000e+000  0.000000e+000  0.000000e+000
    outer loop
      vertex  2.000000e+000  2.157620e+001  2.000654e+001
      vertex  2.000000e+000  1.360000e+001  2.111900e+001
      vertex  2.000000e+000  1.342380e+001  2.000654e+001
    endloop
  endfacet
  facet normal  1.000000e+000  -0.000000e+000  0.000000e+000
    outer loop
      vertex  2.000000e+000  2.157620e+001  2.000654e+001
      vertex  2.000000e+000  1.342380e+001  2.000654e+001
      vertex  2.000000e+000  2.208754e+001  1.900297e+001
    endloop
  endfacet
  facet normal  1.000000e+000  0.000000e+000  0.000000e+000
    outer loop
      vertex  2.000000e+000  2.208754e+001  1.900297e+001
      vertex  2.000000e+000  1.342380e+001  2.000654e+001
      vertex  2.000000e+000  1.291246e+001  1.900297e+001
    endloop
  endfacet
  facet normal  1.000000e+000  -0.000000e+000  0.000000e+000
    outer loop
      vertex  2.000000e+000  2.208754e+001  1.900297e+001
      vertex  2.000000e+000  1.291246e+001  1.900297e+001
      vertex  2.000000e+000  2.288397e+001  1.820654e+001
    endloop
  endfacet
  facet normal  1.000000e+000  0.000000e+000  0.000000e+000
    outer loop
      vertex  2.000000e+000  2.288397e+001  1.820654e+001
      vertex  2.000000e+000  1.291246e+001  1.900297e+001
      vertex  2.000000e+000  1.211603e+001  1.820654e+001
    endloop
  endfacet
  facet normal  1.000000e+000  -0.000000e+000  0.000000e+000
    outer loop
      vertex  2.000000e+000  2.288397e+001  1.820654e+001
      vertex  2.000000e+000  1.211603e+001  1.820654e+001
      vertex  2.000000e+000  2.388754e+001  1.769520e+001
    endloop
  endfacet
  facet normal  1.000000e+000  0.000000e+000  0.000000e+000
    outer loop
      vertex  2.000000e+000  2.388754e+001  1.769520e+001
      vertex  2.000000e+000  1.211603e+001  1.820654e+001
      vertex  2.000000e+000  1.111246e+001  1.769520e+001
    endloop
  endfacet
  facet normal  1.000000e+000  -0.000000e+000  0.000000e+000
    outer loop
      vertex  2.000000e+000  2.388754e+001  1.769520e+001
      vertex  2.000000e+000  1.111246e+001  1.769520e+001
      vertex  2.000000e+000  2.500000e+001  1.751900e+001
    endloop
  endfacet
  facet normal  1.000000e+000  0.000000e+000  0.000000e+000
    outer loop
      vertex  2.000000e+000  2.500000e+001  1.751900e+001
      vertex  2.000000e+000  1.111246e+001  1.769520e+001
      vertex  2.000000e+000  1.000000e+001  1.751900e+001
    endloop
  endfacet
  facet normal  7.115931e-001  6.849763e-001 -1.563417e-001
    outer loop
      vertex  0.000000e+000  8.558450e+000  2.181321e+001
      vertex  2.000000e+000  6.576197e+000  2.223146e+001
      vertex  0.000000e+000  8.400000e+000  2.111900e+001
    endloop
  endfacet
  facet normal  7.027134e-001  7.027135e-001 -1.112989e-001
    outer loop
      vertex  2.000000e+000  6.576197e+000  2.223146e+001
      vertex  2.000000e+000  6.400000e+000  2.111900e+001
      vertex  0.000000e+000  8.400000e+000  2.111900e+001
    endloop
  endfacet
  facet normal  7.027135e-001 -7.027135e-001 -1.112992e-001
    outer loop
      vertex  2.000000e+000  1.360000e+001  2.111900e+001
      vertex  2.000000e+000  1.342380e+001  2.223146e+001
      vertex  0.000000e+000  1.160000e+001  2.111900e+001
    endloop
  endfacet
  facet normal  7.115931e-001 -6.849765e-001 -1.563417e-001
    outer loop
      vertex  2.000000e+000  1.342380e+001  2.223146e+001
      vertex  0.000000e+000  1.144155e+001  2.181321e+001
      vertex  0.000000e+000  1.160000e+001  2.111900e+001
    endloop
  endfacet
  facet normal  6.992136e-001 -6.369922e-001 -3.245632e-001
    outer loop
      vertex  2.000000e+000  1.342380e+001  2.223146e+001
      vertex  2.000000e+000  1.291246e+001  2.323503e+001
      vertex  0.000000e+000  1.144155e+001  2.181321e+001
    endloop
  endfacet
  facet normal  7.009718e-001 -5.043008e-001 -5.043008e-001
    outer loop
      vertex  2.000000e+000  1.291246e+001  2.323503e+001
      vertex  2.000000e+000  1.211603e+001  2.403146e+001
      vertex  0.000000e+000  1.099758e+001  2.236993e+001
    endloop
  endfacet
  facet normal  7.134701e-001 -5.478182e-001 -4.368704e-001
    outer loop
      vertex  0.000000e+000  1.144155e+001  2.181321e+001
      vertex  2.000000e+000  1.291246e+001  2.323503e+001
      vertex  0.000000e+000  1.099758e+001  2.236993e+001
    endloop
  endfacet
  facet normal  6.998014e-001 -1.117473e-001 -7.055427e-001
    outer loop
      vertex  2.000000e+000  1.111246e+001  2.454280e+001
      vertex  2.000000e+000  1.000000e+001  2.471900e+001
      vertex  0.000000e+000  1.035603e+001  2.267888e+001
    endloop
  endfacet
  facet normal  7.084349e-001 -3.062249e-001 -6.358824e-001
    outer loop
      vertex  0.000000e+000  1.099758e+001  2.236993e+001
      vertex  2.000000e+000  1.111246e+001  2.454280e+001
      vertex  0.000000e+000  1.035603e+001  2.267888e+001
    endloop
  endfacet
  facet normal  7.050112e-001 -3.219678e-001 -6.318988e-001
    outer loop
      vertex  2.000000e+000  1.211603e+001  2.403146e+001
      vertex  2.000000e+000  1.111246e+001  2.454280e+001
      vertex  0.000000e+000  1.099758e+001  2.236993e+001
    endloop
  endfacet
  facet normal  6.998014e-001  1.117473e-001 -7.055427e-001
    outer loop
      vertex  2.000000e+000  1.000000e+001  2.471900e+001
      vertex  2.000000e+000  8.887539e+000  2.454280e+001
      vertex  0.000000e+000  9.643967e+000  2.267888e+001
    endloop
  endfacet
  facet normal  7.140926e-001  0.000000e+000 -7.000512e-001
    outer loop
      vertex  0.000000e+000  1.035603e+001  2.267888e+001
      vertex  2.000000e+000  1.000000e+001  2.471900e+001
      vertex  0.000000e+000  9.643967e+000  2.267888e+001
    endloop
  endfacet
  facet normal  7.009717e-001  5.043010e-001 -5.043007e-001
    outer loop
      vertex  2.000000e+000  7.883973e+000  2.403146e+001
      vertex  2.000000e+000  7.087539e+000  2.323503e+001
      vertex  0.000000e+000  9.002417e+000  2.236993e+001
    endloop
  endfacet
  facet normal  7.039503e-001  3.081656e-001 -6.399125e-001
    outer loop
      vertex  0.000000e+000  9.643967e+000  2.267888e+001
      vertex  2.000000e+000  7.883973e+000  2.403146e+001
      vertex  0.000000e+000  9.002417e+000  2.236993e+001
    endloop
  endfacet
  facet normal  7.078435e-001  3.206843e-001 -6.293798e-001
    outer loop
      vertex  2.000000e+000  8.887539e+000  2.454280e+001
      vertex  2.000000e+000  7.883973e+000  2.403146e+001
      vertex  0.000000e+000  9.643967e+000  2.267888e+001
    endloop
  endfacet
  facet normal  6.992137e-001  6.369917e-001 -3.245640e-001
    outer loop
      vertex  2.000000e+000  7.087539e+000  2.323503e+001
      vertex  2.000000e+000  6.576197e+000  2.223146e+001
      vertex  0.000000e+000  8.558450e+000  2.181321e+001
    endloop
  endfacet
  facet normal  7.134700e-001  5.478182e-001 -4.368704e-001
    outer loop
      vertex  0.000000e+000  9.002417e+000  2.236993e+001
      vertex  2.000000e+000  7.087539e+000  2.323503e+001
      vertex  0.000000e+000  8.558450e+000  2.181321e+001
    endloop
  endfacet
  facet normal  7.115931e-001 -6.849765e-001  1.563417e-001
    outer loop
      vertex  0.000000e+000  1.144155e+001  2.042479e+001
      vertex  2.000000e+000  1.342380e+001  2.000654e+001
      vertex  0.000000e+000  1.160000e+001  2.111900e+001
    endloop
  endfacet
  facet normal  7.027135e-001 -7.027135e-001  1.112992e-001
    outer loop
      vertex  2.000000e+000  1.342380e+001  2.000654e+001
      vertex  2.000000e+000  1.360000e+001  2.111900e+001
      vertex  0.000000e+000  1.160000e+001  2.111900e+001
    endloop
  endfacet
  facet normal  7.027134e-001  7.027137e-001  1.112984e-001
    outer loop
      vertex  2.000000e+000  6.400000e+000  2.111900e+001
      vertex  2.000000e+000  6.576196e+000  2.000654e+001
      vertex  0.000000e+000  8.400000e+000  2.111900e+001
    endloop
  endfacet
  facet normal  7.115931e-001  6.849763e-001  1.563417e-001
    outer loop
      vertex  2.000000e+000  6.576196e+000  2.000654e+001
      vertex  0.000000e+000  8.558450e+000  2.042479e+001
      vertex  0.000000e+000  8.400000e+000  2.111900e+001
    endloop
  endfacet
  facet normal  6.992136e-001  6.369918e-001  3.245640e-001
    outer loop
      vertex  2.000000e+000  6.576196e+000  2.000654e+001
      vertex  2.000000e+000  7.087539e+000  1.900297e+001
      vertex  0.000000e+000  8.558450e+000  2.042479e+001
    endloop
  endfacet
  facet normal  7.009715e-001  5.043011e-001  5.043008e-001
    outer loop
      vertex  2.000000e+000  7.087539e+000  1.900297e+001
      vertex  2.000000e+000  7.883973e+000  1.820654e+001
      vertex  0.000000e+000  9.002417e+000  1.986807e+001
    endloop
  endfacet
  facet normal  7.134699e-001  5.478183e-001  4.368705e-001
    outer loop
      vertex  0.000000e+000  8.558450e+000  2.042479e+001
      vertex  2.000000e+000  7.087539e+000  1.900297e+001
      vertex  0.000000e+000  9.002417e+000  1.986807e+001
    endloop
  endfacet
  facet normal  6.998014e-001  1.117473e-001  7.055427e-001
    outer loop
      vertex  2.000000e+000  8.887539e+000  1.769520e+001
      vertex  2.000000e+000  1.000000e+001  1.751900e+001
      vertex  0.000000e+000  9.643967e+000  1.955911e+001
    endloop
  endfacet
  facet normal  7.084349e-001  3.062249e-001  6.358824e-001
    outer loop
      vertex  0.000000e+000  9.002417e+000  1.986807e+001
      vertex  2.000000e+000  8.887539e+000  1.769520e+001
      vertex  0.000000e+000  9.643967e+000  1.955911e+001
    endloop
  endfacet
  facet normal  7.050110e-001  3.219686e-001  6.318985e-001
    outer loop
      vertex  2.000000e+000  7.883973e+000  1.820654e+001
      vertex  2.000000e+000  8.887539e+000  1.769520e+001
      vertex  0.000000e+000  9.002417e+000  1.986807e+001
    endloop
  endfacet
  facet normal  6.998014e-001 -1.117473e-001  7.055427e-001
    outer loop
      vertex  2.000000e+000  1.000000e+001  1.751900e+001
      vertex  2.000000e+000  1.111246e+001  1.769520e+001
      vertex  0.000000e+000  1.035603e+001  1.955911e+001
    endloop
  endfacet
  facet normal  7.140926e-001  0.000000e+000  7.000512e-001
    outer loop
      vertex  0.000000e+000  9.643967e+000  1.955911e+001
      vertex  2.000000e+000  1.000000e+001  1.751900e+001
      vertex  0.000000e+000  1.035603e+001  1.955911e+001
    endloop
  endfacet
  facet normal  7.009716e-001 -5.043010e-001  5.043010e-001
    outer loop
      vertex  2.000000e+000  1.211603e+001  1.820654e+001
      vertex  2.000000e+000  1.291246e+001  1.900297e+001
      vertex  0.000000e+000  1.099758e+001  1.986807e+001
    endloop
  endfacet
  facet normal  7.039499e-001 -3.081657e-001  6.399127e-001
    outer loop
      vertex  0.000000e+000  1.035603e+001  1.955911e+001
      vertex  2.000000e+000  1.211603e+001  1.820654e+001
      vertex  0.000000e+000  1.099758e+001  1.986807e+001
    endloop
  endfacet
  facet normal  7.078435e-001 -3.206853e-001  6.293794e-001
    outer loop
      vertex  2.000000e+000  1.111246e+001  1.769520e+001
      vertex  2.000000e+000  1.211603e+001  1.820654e+001
      vertex  0.000000e+000  1.035603e+001  1.955911e+001
    endloop
  endfacet
  facet normal  6.992136e-001 -6.369919e-001  3.245637e-001
    outer loop
      vertex  2.000000e+000  1.291246e+001  1.900297e+001
      vertex  2.000000e+000  1.342380e+001  2.000654e+001
      vertex  0.000000e+000  1.144155e+001  2.042479e+001
    endloop
  endfacet
  facet normal  7.134699e-001 -5.478183e-001  4.368705e-001
    outer loop
      vertex  0.000000e+000  1.099758e+001  1.986807e+001
      vertex  2.000000e+000  1.291246e+001  1.900297e+001
      vertex  0.000000e+000  1.144155e+001  2.042479e+001
    endloop
  endfacet
  facet normal -1.000000e+000  0.000000e+000  0.000000e+000
    outer loop
      vertex  0.000000e+000  0.000000e+000  0.000000e+000
      vertex  0.000000e+000  0.000000e+000  4.228500e+001
      vertex  0.000000e+000  8.558450e+000  2.181321e+001
    endloop
  endfacet
  facet normal -1.000000e+000  0.000000e+000  0.000000e+000
    outer loop
      vertex  0.000000e+000  0.000000e+000  0.000000e+000
      vertex  0.000000e+000  8.558450e+000  2.181321e+001
      vertex  0.000000e+000  8.400000e+000  2.111900e+001
    endloop
  endfacet
  facet normal -1.000000e+000  0.000000e+000  -0.000000e+000
    outer loop
      vertex  0.000000e+000  0.000000e+000  0.000000e+000
      vertex  0.000000e+000  8.400000e+000  2.111900e+001
      vertex  0.000000e+000  8.558450e+000  2.042479e+001
    endloop
  endfacet
  facet normal -1.000000e+000  0.000000e+000  -0.000000e+000
    outer loop
      vertex  0.000000e+000  0.000000e+000  0.000000e+000
      vertex  0.000000e+000  8.558450e+000  2.042479e+001
      vertex  0.000000e+000  9.002417e+000  1.986807e+001
    endloop
  endfacet
  facet normal -9.999999e-001  0.000000e+000  -0.000000e+000
    outer loop
      vertex  0.000000e+000  0.000000e+000  0.000000e+000
      vertex  0.000000e+000  9.002417e+000  1.986807e+001
      vertex  0.000000e+000  9.643967e+000  1.955911e+001
    endloop
  endfacet
  facet normal -1.000000e+000  0.000000e+000  -0.000000e+000
    outer loop
      vertex  0.000000e+000  0.000000e+000  0.000000e+000
      vertex  0.000000e+000  9.643967e+000  1.955911e+001
      vertex  0.000000e+000  1.035603e+001  1.955911e+001
    endloop
  endfacet
  facet normal -1.000000e+000  0.000000e+000  -0.000000e+000
    outer loop
      vertex  0.000000e+000  0.000000e+000  0.000000e+000
      vertex  0.000000e+000  1.035603e+001  1.955911e+001
      vertex  0.000000e+000  2.464397e+001  1.955911e+001
    endloop
  endfacet
  facet normal -1.000000e+000  0.000000e+000  -0.000000e+000
    outer loop
      vertex  0.000000e+000  0.000000e+000  0.000000e+000
      vertex  0.000000e+000  2.464397e+001  1.955911e+001
      vertex  0.000000e+000  2.535603e+001  1.955911e+001
    endloop
  endfacet
  facet normal -1.000000e+000  0.000000e+000  -0.000000e+000
    outer loop
      vertex  0.000000e+000  0.000000e+000  0.000000e+000
      vertex  0.000000e+000  2.535603e+001  1.955911e+001
      vertex  0.000000e+000  1.730000e+002  0.000000e+000
    endloop
  endfacet
  facet normal -1.000000e+000  -0.000000e+000  0.000000e+000
    outer loop
      vertex  0.000000e+000  0.000000e+000  4.228500e+001
      vertex  0.000000e+000  1.730000e+002  4.228500e+001
      vertex  0.000000e+000  2.535603e+001  2.267888e+001
    endloop
  endfacet
  facet normal -9.999999e-001  0.000000e+000  0.000000e+000
    outer loop
      vertex  0.000000e+000  0.000000e+000  4.228500e+001
      vertex  0.000000e+000  2.535603e+001  2.267888e+001
      vertex  0.000000e+000  2.464397e+001  2.267888e+001
    endloop
  endfacet
  facet normal -1.000000e+000  0.000000e+000  0.000000e+000
    outer loop
      vertex  0.000000e+000  0.000000e+000  4.228500e+001
      vertex  0.000000e+000  2.464397e+001  2.267888e+001
      vertex  0.000000e+000  1.035603e+001  2.267888e+001
    endloop
  endfacet
  facet normal -9.999999e-001  0.000000e+000  0.000000e+000
    outer loop
      vertex  0.000000e+000  0.000000e+000  4.228500e+001
      vertex  0.000000e+000  1.035603e+001  2.267888e+001
      vertex  0.000000e+000  9.643967e+000  2.267888e+001
    endloop
  endfacet
  facet normal -1.000000e+000  -0.000000e+000  0.000000e+000
    outer loop
      vertex  0.000000e+000  0.000000e+000  4.228500e+001
      vertex  0.000000e+000  9.643967e+000  2.267888e+001
      vertex  0.000000e+000  9.002417e+000  2.236993e+001
    endloop
  endfacet
  facet normal -1.000000e+000  -0.000000e+000  0.000000e+000
    outer loop
      vertex  0.000000e+000  0.000000e+000  4.228500e+001
      vertex  0.000000e+000  9.002417e+000  2.236993e+001
      vertex  0.000000e+000  8.558450e+000  2.181321e+001
    endloop
  endfacet
  facet normal -1.000000e+000  0.000000e+000  0.000000e+000
    outer loop
      vertex  0.000000e+000  1.730000e+002  0.000000e+000
      vertex  0.000000e+000  2.535603e+001  1.955911e+001
      vertex  0.000000e+000  2.599758e+001  1.986807e+001
    endloop
  endfacet
  facet normal -1.000000e+000  0.000000e+000  0.000000e+000
    outer loop
      vertex  0.000000e+000  1.730000e+002  0.000000e+000
      vertex  0.000000e+000  2.599758e+001  1.986807e+001
      vertex  0.000000e+000  2.644155e+001  2.042479e+001
    endloop
  endfacet
  facet normal -1.000000e+000  0.000000e+000  0.000000e+000
    outer loop
      vertex  0.000000e+000  1.730000e+002  0.000000e+000
      vertex  0.000000e+000  2.644155e+001  2.042479e+001
      vertex  0.000000e+000  2.660000e+001  2.111900e+001
    endloop
  endfacet
  facet normal -1.000000e+000  0.000000e+000  0.000000e+000
    outer loop
      vertex  0.000000e+000  1.730000e+002  0.000000e+000
      vertex  0.000000e+000  2.660000e+001  2.111900e+001
      vertex  0.000000e+000  2.644155e+001  2.181321e+001
    endloop
  endfacet
  facet normal -1.000000e+000  0.000000e+000  0.000000e+000
    outer loop
      vertex  0.000000e+000  1.730000e+002  0.000000e+000
      vertex  0.000000e+000  2.644155e+001  2.181321e+001
      vertex  0.000000e+000  2.599758e+001  2.236993e+001
    endloop
  endfacet
  facet normal -9.999999e-001  0.000000e+000  0.000000e+000
    outer loop
      vertex  0.000000e+000  1.730000e+002  0.000000e+000
      vertex  0.000000e+000  2.599758e+001  2.236993e+001
      vertex  0.000000e+000  2.535603e+001  2.267888e+001
    endloop
  endfacet
  facet normal -1.000000e+000  0.000000e+000  0.000000e+000
    outer loop
      vertex  0.000000e+000  1.730000e+002  0.000000e+000
      vertex  0.000000e+000  2.535603e+001  2.267888e+001
      vertex  0.000000e+000  1.730000e+002  4.228500e+001
    endloop
  endfacet
  facet normal -1.000000e+000  0.000000e+000  0.000000e+000
    outer loop
      vertex  0.000000e+000  2.340000e+001  2.111900e+001
      vertex  0.000000e+000  1.144155e+001  2.181321e+001
      vertex  0.000000e+000  2.355845e+001  2.181321e+001
    endloop
  endfacet
  facet normal -1.000000e+000  0.000000e+000  0.000000e+000
    outer loop
      vertex  0.000000e+000  2.355845e+001  2.181321e+001
      vertex  0.000000e+000  1.144155e+001  2.181321e+001
      vertex  0.000000e+000  1.099758e+001  2.236993e+001
    endloop
  endfacet
  facet normal -9.999999e-001  0.000000e+000  0.000000e+000
    outer loop
      vertex  0.000000e+000  2.355845e+001  2.181321e+001
      vertex  0.000000e+000  1.099758e+001  2.236993e+001
      vertex  0.000000e+000  2.400242e+001  2.236993e+001
    endloop
  endfacet
  facet normal -1.000000e+000  0.000000e+000  0.000000e+000
    outer loop
      vertex  0.000000e+000  2.400242e+001  2.236993e+001
      vertex  0.000000e+000  1.099758e+001  2.236993e+001
      vertex  0.000000e+000  1.035603e+001  2.267888e+001
    endloop
  endfacet
  facet normal -1.000000e+000  0.000000e+000  0.000000e+000
    outer loop
      vertex  0.000000e+000  2.400242e+001  2.236993e+001
      vertex  0.000000e+000  1.035603e+001  2.267888e+001
      vertex  0.000000e+000  2.464397e+001  2.267888e+001
    endloop
  endfacet
  facet normal -1.000000e+000  0.000000e+000  0.000000e+000
    outer loop
      vertex  0.000000e+000  1.144155e+001  2.181321e+001
      vertex  0.000000e+000  2.340000e+001  2.111900e+001
      vertex  0.000000e+000  1.160000e+001  2.111900e+001
    endloop
  endfacet
  facet normal -1.000000e+000  0.000000e+000  0.000000e+000
    outer loop
      vertex  0.000000e+000  1.160000e+001  2.111900e+001
      vertex  0.000000e+000  2.340000e+001  2.111900e+001
      vertex  0.000000e+000  2.355845e+001  2.042479e+001
    endloop
  endfacet
  facet normal -1.000000e+000  0.000000e+000  0.000000e+000
    outer loop
      vertex  0.000000e+000  1.160000e+001  2.111900e+001
      vertex  0.000000e+000  2.355845e+001  2.042479e+001
      vertex  0.000000e+000  1.144155e+001  2.042479e+001
    endloop
  endfacet
  facet normal -1.000000e+000  0.000000e+000  0.000000e+000
    outer loop
      vertex  0.000000e+000  1.144155e+001  2.042479e+001
      vertex  0.000000e+000  2.355845e+001  2.042479e+001
      vertex  0.000000e+000  2.400242e+001  1.986807e+001
    endloop
  endfacet
  facet normal -9.999999e-001  0.000000e+000  0.000000e+000
    outer loop
      vertex  0.000000e+000  1.144155e+001  2.042479e+001
      vertex  0.000000e+000  2.400242e+001  1.986807e+001
      vertex  0.000000e+000  1.099758e+001  1.986807e+001
    endloop
  endfacet
  facet normal -1.000000e+000  0.000000e+000  0.000000e+000
    outer loop
      vertex  0.000000e+000  1.099758e+001  1.986807e+001
      vertex  0.000000e+000  2.400242e+001  1.986807e+001
      vertex  0.000000e+000  2.464397e+001  1.955911e+001
    endloop
  endfacet
  facet normal -1.000000e+000  0.000000e+000  0.000000e+000
    outer loop
      vertex  0.000000e+000  1.099758e+001  1.986807e+001
      vertex  0.000000e+000  2.464397e+001  1.955911e+001
      vertex  0.000000e+000  1.035603e+001  1.955911e+001
    endloop
  endfacet
  facet normal  7.115933e-001  6.849759e-001 -1.563426e-001
    outer loop
      vertex  0.000000e+000  2.355845e+001  2.181321e+001
      vertex  2.000000e+000  2.157620e+001  2.223146e+001
      vertex  0.000000e+000  2.340000e+001  2.111900e+001
    endloop
  endfacet
  facet normal  7.027135e-001  7.027135e-001 -1.112992e-001
    outer loop
      vertex  2.000000e+000  2.157620e+001  2.223146e+001
      vertex  2.000000e+000  2.140000e+001  2.111900e+001
      vertex  0.000000e+000  2.340000e+001  2.111900e+001
    endloop
  endfacet
  facet normal  7.027135e-001 -7.027135e-001 -1.112992e-001
    outer loop
      vertex  2.000000e+000  2.860000e+001  2.111900e+001
      vertex  2.000000e+000  2.842380e+001  2.223146e+001
      vertex  0.000000e+000  2.660000e+001  2.111900e+001
    endloop
  endfacet
  facet normal  7.115932e-001 -6.849760e-001 -1.563426e-001
    outer loop
      vertex  2.000000e+000  2.842380e+001  2.223146e+001
      vertex  0.000000e+000  2.644155e+001  2.181321e+001
      vertex  0.000000e+000  2.660000e+001  2.111900e+001
    endloop
  endfacet
  facet normal  6.992137e-001 -6.369918e-001 -3.245637e-001
    outer loop
      vertex  2.000000e+000  2.842380e+001  2.223146e+001
      vertex  2.000000e+000  2.791246e+001  2.323503e+001
      vertex  0.000000e+000  2.644155e+001  2.181321e+001
    endloop
  endfacet
  facet normal  7.009718e-001 -5.043014e-001 -5.043001e-001
    outer loop
      vertex  2.000000e+000  2.791246e+001  2.323503e+001
      vertex  2.000000e+000  2.711603e+001  2.403146e+001
      vertex  0.000000e+000  2.599758e+001  2.236993e+001
    endloop
  endfacet
  facet normal  7.134700e-001 -5.478187e-001 -4.368698e-001
    outer loop
      vertex  0.000000e+000  2.644155e+001  2.181321e+001
      vertex  2.000000e+000  2.791246e+001  2.323503e+001
      vertex  0.000000e+000  2.599758e+001  2.236993e+001
    endloop
  endfacet
  facet normal  6.998014e-001 -1.117473e-001 -7.055427e-001
    outer loop
      vertex  2.000000e+000  2.611246e+001  2.454280e+001
      vertex  2.000000e+000  2.500000e+001  2.471900e+001
      vertex  0.000000e+000  2.535603e+001  2.267888e+001
    endloop
  endfacet
  facet normal  7.084349e-001 -3.062249e-001 -6.358824e-001
    outer loop
      vertex  0.000000e+000  2.599758e+001  2.236993e+001
      vertex  2.000000e+000  2.611246e+001  2.454280e+001
      vertex  0.000000e+000  2.535603e+001  2.267888e+001
    endloop
  endfacet
  facet normal  7.050112e-001 -3.219675e-001 -6.318988e-001
    outer loop
      vertex  2.000000e+000  2.711603e+001  2.403146e+001
      vertex  2.000000e+000  2.611246e+001  2.454280e+001
      vertex  0.000000e+000  2.599758e+001  2.236993e+001
    endloop
  endfacet
  facet normal  6.998014e-001  1.117473e-001 -7.055427e-001
    outer loop
      vertex  2.000000e+000  2.500000e+001  2.471900e+001
      vertex  2.000000e+000  2.388754e+001  2.454280e+001
      vertex  0.000000e+000  2.464397e+001  2.267888e+001
    endloop
  endfacet
  facet normal  7.140926e-001  0.000000e+000 -7.000512e-001
    outer loop
      vertex  0.000000e+000  2.535603e+001  2.267888e+001
      vertex  2.000000e+000  2.500000e+001  2.471900e+001
      vertex  0.000000e+000  2.464397e+001  2.267888e+001
    endloop
  endfacet
  facet normal  7.009717e-001  5.043009e-001 -5.043009e-001
    outer loop
      vertex  2.000000e+000  2.288397e+001  2.403146e+001
      vertex  2.000000e+000  2.208754e+001  2.323503e+001
      vertex  0.000000e+000  2.400242e+001  2.236993e+001
    endloop
  endfacet
  facet normal  7.039502e-001  3.081656e-001 -6.399125e-001
    outer loop
      vertex  0.000000e+000  2.464397e+001  2.267888e+001
      vertex  2.000000e+000  2.288397e+001  2.403146e+001
      vertex  0.000000e+000  2.400242e+001  2.236993e+001
    endloop
  endfacet
  facet normal  7.078436e-001  3.206846e-001 -6.293797e-001
    outer loop
      vertex  2.000000e+000  2.388754e+001  2.454280e+001
      vertex  2.000000e+000  2.288397e+001  2.403146e+001
      vertex  0.000000e+000  2.464397e+001  2.267888e+001
    endloop
  endfacet
  facet normal  6.992139e-001  6.369916e-001 -3.245642e-001
    outer loop
      vertex  2.000000e+000  2.208754e+001  2.323503e+001
      vertex  2.000000e+000  2.157620e+001  2.223146e+001
      vertex  0.000000e+000  2.355845e+001  2.181321e+001
    endloop
  endfacet
  facet normal  7.134700e-001  5.478187e-001 -4.368698e-001
    outer loop
      vertex  0.000000e+000  2.400242e+001  2.236993e+001
      vertex  2.000000e+000  2.208754e+001  2.323503e+001
      vertex  0.000000e+000  2.355845e+001  2.181321e+001
    endloop
  endfacet
  facet normal  7.115932e-001 -6.849760e-001  1.563426e-001
    outer loop
      vertex  0.000000e+000  2.644155e+001  2.042479e+001
      vertex  2.000000e+000  2.842380e+001  2.000654e+001
      vertex  0.000000e+000  2.660000e+001  2.111900e+001
    endloop
  endfacet
  facet normal  7.027135e-001 -7.027135e-001  1.112992e-001
    outer loop
      vertex  2.000000e+000  2.842380e+001  2.000654e+001
      vertex  2.000000e+000  2.860000e+001  2.111900e+001
      vertex  0.000000e+000  2.660000e+001  2.111900e+001
    endloop
  endfacet
  facet normal  7.027135e-001  7.027135e-001  1.112990e-001
    outer loop
      vertex  2.000000e+000  2.140000e+001  2.111900e+001
      vertex  2.000000e+000  2.157620e+001  2.000654e+001
      vertex  0.000000e+000  2.340000e+001  2.111900e+001
    endloop
  endfacet
  facet normal  7.115932e-001  6.849760e-001  1.563426e-001
    outer loop
      vertex  2.000000e+000  2.157620e+001  2.000654e+001
      vertex  0.000000e+000  2.355845e+001  2.042479e+001
      vertex  0.000000e+000  2.340000e+001  2.111900e+001
    endloop
  endfacet
  facet normal  6.992139e-001  6.369920e-001  3.245632e-001
    outer loop
      vertex  2.000000e+000  2.157620e+001  2.000654e+001
      vertex  2.000000e+000  2.208754e+001  1.900297e+001
      vertex  0.000000e+000  2.355845e+001  2.042479e+001
    endloop
  endfacet
  facet normal  7.009717e-001  5.043009e-001  5.043009e-001
    outer loop
      vertex  2.000000e+000  2.208754e+001  1.900297e+001
      vertex  2.000000e+000  2.288397e+001  1.820654e+001
      vertex  0.000000e+000  2.400242e+001  1.986807e+001
    endloop
  endfacet
  facet normal  7.134702e-001  5.478187e-001  4.368698e-001
    outer loop
      vertex  0.000000e+000  2.355845e+001  2.042479e+001
      vertex  2.000000e+000  2.208754e+001  1.900297e+001
      vertex  0.000000e+000  2.400242e+001  1.986807e+001
    endloop
  endfacet
  facet normal  6.998014e-001  1.117473e-001  7.055427e-001
    outer loop
      vertex  2.000000e+000  2.388754e+001  1.769520e+001
      vertex  2.000000e+000  2.500000e+001  1.751900e+001
      vertex  0.000000e+000  2.464397e+001  1.955911e+001
    endloop
  endfacet
  facet normal  7.084349e-001  3.062249e-001  6.358824e-001
    outer loop
      vertex  0.000000e+000  2.400242e+001  1.986807e+001
      vertex  2.000000e+000  2.388754e+001  1.769520e+001
      vertex  0.000000e+000  2.464397e+001  1.955911e+001
    endloop
  endfacet
  facet normal  7.050110e-001  3.219685e-001  6.318985e-001
    outer loop
      vertex  2.000000e+000  2.288397e+001  1.820654e+001
      vertex  2.000000e+000  2.388754e+001  1.769520e+001
      vertex  0.000000e+000  2.400242e+001  1.986807e+001
    endloop
  endfacet
  facet normal  6.998014e-001 -1.117473e-001  7.055427e-001
    outer loop
      vertex  2.000000e+000  2.500000e+001  1.751900e+001
      vertex  2.000000e+000  2.611246e+001  1.769520e+001
      vertex  0.000000e+000  2.535603e+001  1.955911e+001
    endloop
  endfacet
  facet normal  7.140926e-001  0.000000e+000  7.000512e-001
    outer loop
      vertex  0.000000e+000  2.464397e+001  1.955911e+001
      vertex  2.000000e+000  2.500000e+001  1.751900e+001
      vertex  0.000000e+000  2.535603e+001  1.955911e+001
    endloop
  endfacet
  facet normal  7.009714e-001 -5.043011e-001  5.043011e-001
    outer loop
      vertex  2.000000e+000  2.711603e+001  1.820654e+001
      vertex  2.000000e+000  2.791246e+001  1.900297e+001
      vertex  0.000000e+000  2.599758e+001  1.986807e+001
    endloop
  endfacet
  facet normal  7.039499e-001 -3.081658e-001  6.399128e-001
    outer loop
      vertex  0.000000e+000  2.535603e+001  1.955911e+001
      vertex  2.000000e+000  2.711603e+001  1.820654e+001
      vertex  0.000000e+000  2.599758e+001  1.986807e+001
    endloop
  endfacet
  facet normal  7.078435e-001 -3.206855e-001  6.293793e-001
    outer loop
      vertex  2.000000e+000  2.611246e+001  1.769520e+001
      vertex  2.000000e+000  2.711603e+001  1.820654e+001
      vertex  0.000000e+000  2.535603e+001  1.955911e+001
    endloop
  endfacet
  facet normal  6.992136e-001 -6.369916e-001  3.245642e-001
    outer loop
      vertex  2.000000e+000  2.791246e+001  1.900297e+001
      vertex  2.000000e+000  2.842380e+001  2.000654e+001
      vertex  0.000000e+000  2.644155e+001  2.042479e+001
    endloop
  endfacet
  facet normal  7.134699e-001 -5.478188e-001  4.368699e-001
    outer loop
      vertex  0.000000e+000  2.599758e+001  1.986807e+001
      vertex  2.000000e+000  2.791246e+001  1.900297e+001
      vertex  0.000000e+000  2.644155e+001  2.042479e+001
    endloop
  endfacet
  facet normal  0.000000e+000  1.000000e+000  0.000000e+000
    outer loop
      vertex  2.000000e+000  1.730000e+002  1.364250e+001
      vertex  3.289403e+000  1.730000e+002  8.638291e+000
      vertex  2.000000e+000  1.730000e+002  4.623873e+000
    endloop
  endfacet
  facet normal  -0.000000e+000  1.000000e+000  0.000000e+000
    outer loop
      vertex  4.000000e+000  1.730000e+002  1.364250e+001
      vertex  4.000000e+000  1.730000e+002  2.864250e+001
      vertex  4.217732e+000  1.730000e+002  2.953387e+001
    endloop
  endfacet
  facet normal  0.000000e+000  1.000000e+000  0.000000e+000
    outer loop
      vertex  4.000000e+000  1.730000e+002  1.364250e+001
      vertex  4.217732e+000  1.730000e+002  2.953387e+001
      vertex  4.777672e+000  1.730000e+002  2.535481e+001
    endloop
  endfacet
  facet normal  0.000000e+000  1.000000e+000  0.000000e+000
    outer loop
      vertex  4.000000e+000  1.730000e+002  1.364250e+001
      vertex  4.777672e+000  1.730000e+002  2.535481e+001
      vertex  4.964810e+000  1.730000e+002  2.114256e+001
    endloop
  endfacet
  facet normal  0.000000e+000  1.000000e+000  0.000000e+000
    outer loop
      vertex  4.000000e+000  1.730000e+002  1.364250e+001
      vertex  4.964810e+000  1.730000e+002  2.114256e+001
      vertex  4.777672e+000  1.730000e+002  1.693030e+001
    endloop
  endfacet
  facet normal  0.000000e+000  1.000000e+000  0.000000e+000
    outer loop
      vertex  4.000000e+000  1.730000e+002  1.364250e+001
      vertex  4.777672e+000  1.730000e+002  1.693030e+001
      vertex  4.217732e+000  1.730000e+002  1.275124e+001
    endloop
  endfacet
  facet normal  0.000000e+000  9.999999e-001  0.000000e+000
    outer loop
      vertex  4.000000e+000  1.730000e+002  1.364250e+001
      vertex  4.217732e+000  1.730000e+002  1.275124e+001
      vertex  3.289403e+000  1.730000e+002  8.638291e+000
    endloop
  endfacet
  facet normal  0.000000e+000  1.000000e+000  -0.000000e+000
    outer loop
      vertex  4.000000e+000  1.730000e+002  1.364250e+001
      vertex  3.289403e+000  1.730000e+002  8.638291e+000
      vertex  2.000000e+000  1.730000e+002  1.364250e+001
    endloop
  endfacet
  facet normal  0.000000e+000  1.000000e+000  0.000000e+000
    outer loop
      vertex  0.000000e+000  1.730000e+002  4.228500e+001
      vertex  2.000000e+000  1.730000e+002  4.028500e+001
      vertex  2.000000e+000  1.730000e+002  3.766124e+001
    endloop
  endfacet
  facet normal  0.000000e+000  1.000000e+000  0.000000e+000
    outer loop
      vertex  0.000000e+000  1.730000e+002  4.228500e+001
      vertex  2.000000e+000  1.730000e+002  3.766124e+001
      vertex  2.000000e+000  1.730000e+002  2.864250e+001
    endloop
  endfacet
  facet normal  0.000000e+000  1.000000e+000  0.000000e+000
    outer loop
      vertex  0.000000e+000  1.730000e+002  4.228500e+001
      vertex  2.000000e+000  1.730000e+002  2.864250e+001
      vertex  2.000000e+000  1.730000e+002  1.364250e+001
    endloop
  endfacet
  facet normal  0.000000e+000  1.000000e+000  0.000000e+000
    outer loop
      vertex  0.000000e+000  1.730000e+002  4.228500e+001
      vertex  2.000000e+000  1.730000e+002  1.364250e+001
      vertex  2.000000e+000  1.730000e+002  4.623873e+000
    endloop
  endfacet
  facet normal  0.000000e+000  1.000000e+000  0.000000e+000
    outer loop
      vertex  0.000000e+000  1.730000e+002  4.228500e+001
      vertex  2.000000e+000  1.730000e+002  4.623873e+000
      vertex  2.000000e+000  1.730000e+002  2.000000e+000
    endloop
  endfacet
  facet normal  0.000000e+000  1.000000e+000  0.000000e+000
    outer loop
      vertex  0.000000e+000  1.730000e+002  4.228500e+001
      vertex  2.000000e+000  1.730000e+002  2.000000e+000
      vertex  0.000000e+000  1.730000e+002  0.000000e+000
    endloop
  endfacet
  facet normal  0.000000e+000  1.000000e+000  -0.000000e+000
    outer loop
      vertex  4.217732e+000  1.730000e+002  2.953387e+001
      vertex  4.000000e+000  1.730000e+002  2.864250e+001
      vertex  3.289403e+000  1.730000e+002  3.364682e+001
    endloop
  endfacet
  facet normal  0.000000e+000  1.000000e+000  0.000000e+000
    outer loop
      vertex  3.289403e+000  1.730000e+002  3.364682e+001
      vertex  4.000000e+000  1.730000e+002  2.864250e+001
      vertex  2.000000e+000  1.730000e+002  2.864250e+001
    endloop
  endfacet
  facet normal  0.000000e+000  1.000000e+000  0.000000e+000
    outer loop
      vertex  3.289403e+000  1.730000e+002  3.364682e+001
      vertex  2.000000e+000  1.730000e+002  2.864250e+001
      vertex  2.000000e+000  1.730000e+002  3.766124e+001
    endloop
  endfacet
  facet normal  0.000000e+000 -1.000000e+000  0.000000e+000
    outer loop
      vertex  2.000000e+000  0.000000e+000  4.028500e+001
      vertex  0.000000e+000  0.000000e+000  4.228500e+001
      vertex  2.000000e+000  0.000000e+000  2.000000e+000
    endloop
  endfacet
  facet normal  -0.000000e+000 -1.000000e+000  0.000000e+000
    outer loop
      vertex  2.000000e+000  0.000000e+000  2.000000e+000
      vertex  0.000000e+000  0.000000e+000  4.228500e+001
      vertex  0.000000e+000  0.000000e+000  0.000000e+000
    endloop
  endfacet
  facet normal  7.071068e-001  0.000000e+000 -7.071068e-001
    outer loop
      vertex  2.000000e+000  1.730000e+002  2.000000e+000
      vertex  2.000000e+000  0.000000e+000  2.000000e+000
      vertex  0.000000e+000  1.730000e+002  0.000000e+000
    endloop
  endfacet
  facet normal  7.071068e-001  0.000000e+000 -7.071068e-001
    outer loop
      vertex  0.000000e+000  1.730000e+002  0.000000e+000
      vertex  2.000000e+000  0.000000e+000  2.000000e+000
      vertex  0.000000e+000  0.000000e+000  0.000000e+000
    endloop
  endfacet
  facet normal  7.071068e-001  0.000000e+000  7.071068e-001
    outer loop
      vertex  2.000000e+000  0.000000e+000  4.028500e+001
      vertex  2.000000e+000  1.730000e+002  4.028500e+001
      vertex  0.000000e+000  0.000000e+000  4.228500e+001
    endloop
  endfacet
  facet normal  7.071068e-001  -0.000000e+000  7.071068e-001
    outer loop
      vertex  0.000000e+000  0.000000e+000  4.228500e+001
      vertex  2.000000e+000  1.730000e+002  4.028500e+001
      vertex  0.000000e+000  1.730000e+002  4.228500e+001
    endloop
  endfacet
  facet normal  -0.000000e+000  0.000000e+000 -1.000000e+000
    outer loop
      vertex  2.000000e+000  1.730000e+002  2.864250e+001
      vertex  4.000000e+000  1.730000e+002  2.864250e+001
      vertex  2.000000e+000  1.530000e+002  2.864250e+001
    endloop
  endfacet
  facet normal  0.000000e+000  0.000000e+000 -1.000000e+000
    outer loop
      vertex  2.000000e+000  1.530000e+002  2.864250e+001
      vertex  4.000000e+000  1.730000e+002  2.864250e+001
      vertex  4.000000e+000  1.530000e+002  2.864250e+001
    endloop
  endfacet
  facet normal  -0.000000e+000  0.000000e+000  1.000000e+000
    outer loop
      vertex  4.000000e+000  1.730000e+002  1.364250e+001
      vertex  2.000000e+000  1.730000e+002  1.364250e+001
      vertex  4.000000e+000  1.530000e+002  1.364250e+001
    endloop
  endfacet
  facet normal  0.000000e+000  0.000000e+000  1.000000e+000
    outer loop
      vertex  4.000000e+000  1.530000e+002  1.364250e+001
      vertex  2.000000e+000  1.730000e+002  1.364250e+001
      vertex  2.000000e+000  1.530000e+002  1.364250e+001
    endloop
  endfacet
  facet normal  9.520938e-001  0.000000e+000 -3.058060e-001
    outer loop
      vertex  2.000000e+000  1.530000e+002  4.623873e+000
      vertex  2.000000e+000  1.730000e+002  4.623873e+000
      vertex  3.289403e+000  1.530000e+002  8.638291e+000
    endloop
  endfacet
  facet normal  9.520938e-001  0.000000e+000 -3.058060e-001
    outer loop
      vertex  3.289403e+000  1.530000e+002  8.638291e+000
      vertex  2.000000e+000  1.730000e+002  4.623873e+000
      vertex  3.289403e+000  1.730000e+002  8.638291e+000
    endloop
  endfacet
  facet normal  9.754614e-001  0.000000e+000 -2.201705e-001
    outer loop
      vertex  3.289403e+000  1.530000e+002  8.638291e+000
      vertex  3.289403e+000  1.730000e+002  8.638291e+000
      vertex  4.217732e+000  1.530000e+002  1.275124e+001
    endloop
  endfacet
  facet normal  9.754614e-001  0.000000e+000 -2.201705e-001
    outer loop
      vertex  4.217732e+000  1.530000e+002  1.275124e+001
      vertex  3.289403e+000  1.730000e+002  8.638291e+000
      vertex  4.217732e+000  1.730000e+002  1.275124e+001
    endloop
  endfacet
  facet normal  9.911429e-001  0.000000e+000 -1.328001e-001
    outer loop
      vertex  4.217732e+000  1.530000e+002  1.275124e+001
      vertex  4.217732e+000  1.730000e+002  1.275124e+001
      vertex  4.777672e+000  1.530000e+002  1.693030e+001
    endloop
  endfacet
  facet normal  9.911429e-001  0.000000e+000 -1.328001e-001
    outer loop
      vertex  4.777672e+000  1.530000e+002  1.693030e+001
      vertex  4.217732e+000  1.730000e+002  1.275124e+001
      vertex  4.777672e+000  1.730000e+002  1.693030e+001
    endloop
  endfacet
  facet normal  9.990146e-001  0.000000e+000 -4.438327e-002
    outer loop
      vertex  4.777672e+000  1.530000e+002  1.693030e+001
      vertex  4.777672e+000  1.730000e+002  1.693030e+001
      vertex  4.964810e+000  1.530000e+002  2.114256e+001
    endloop
  endfacet
  facet normal  9.990146e-001  0.000000e+000 -4.438327e-002
    outer loop
      vertex  4.964810e+000  1.530000e+002  2.114256e+001
      vertex  4.777672e+000  1.730000e+002  1.693030e+001
      vertex  4.964810e+000  1.730000e+002  2.114256e+001
    endloop
  endfacet
  facet normal  9.990146e-001  0.000000e+000  4.438329e-002
    outer loop
      vertex  4.964810e+000  1.530000e+002  2.114256e+001
      vertex  4.964810e+000  1.730000e+002  2.114256e+001
      vertex  4.777672e+000  1.530000e+002  2.535481e+001
    endloop
  endfacet
  facet normal  9.990146e-001  -0.000000e+000  4.438329e-002
    outer loop
      vertex  4.777672e+000  1.530000e+002  2.535481e+001
      vertex  4.964810e+000  1.730000e+002  2.114256e+001
      vertex  4.777672e+000  1.730000e+002  2.535481e+001
    endloop
  endfacet
  facet normal  9.911429e-001  0.000000e+000  1.328001e-001
    outer loop
      vertex  4.777672e+000  1.530000e+002  2.535481e+001
      vertex  4.777672e+000  1.730000e+002  2.535481e+001
      vertex  4.217732e+000  1.530000e+002  2.953387e+001
    endloop
  endfacet
  facet normal  9.911429e-001  -0.000000e+000  1.328001e-001
    outer loop
      vertex  4.217732e+000  1.530000e+002  2.953387e+001
      vertex  4.777672e+000  1.730000e+002  2.535481e+001
      vertex  4.217732e+000  1.730000e+002  2.953387e+001
    endloop
  endfacet
  facet normal  9.754614e-001  0.000000e+000  2.201706e-001
    outer loop
      vertex  4.217732e+000  1.530000e+002  2.953387e+001
      vertex  4.217732e+000  1.730000e+002  2.953387e+001
      vertex  3.289403e+000  1.530000e+002  3.364682e+001
    endloop
  endfacet
  facet normal  9.754614e-001  -0.000000e+000  2.201706e-001
    outer loop
      vertex  3.289403e+000  1.530000e+002  3.364682e+001
      vertex  4.217732e+000  1.730000e+002  2.953387e+001
      vertex  3.289403e+000  1.730000e+002  3.364682e+001
    endloop
  endfacet
  facet normal  9.520940e-001  0.000000e+000  3.058059e-001
    outer loop
      vertex  3.289403e+000  1.530000e+002  3.364682e+001
      vertex  3.289403e+000  1.730000e+002  3.364682e+001
      vertex  2.000000e+000  1.530000e+002  3.766124e+001
    endloop
  endfacet
  facet normal  9.520940e-001  -0.000000e+000  3.058059e-001
    outer loop
      vertex  2.000000e+000  1.530000e+002  3.766124e+001
      vertex  3.289403e+000  1.730000e+002  3.364682e+001
      vertex  2.000000e+000  1.730000e+002  3.766124e+001
    endloop
  endfacet
  facet normal  0.000000e+000 -9.999999e-001  0.000000e+000
    outer loop
      vertex  4.000000e+000  1.530000e+002  1.364250e+001
      vertex  2.000000e+000  1.530000e+002  1.364250e+001
      vertex  4.217732e+000  1.530000e+002  1.275124e+001
    endloop
  endfacet
  facet normal  0.000000e+000 -1.000000e+000  0.000000e+000
    outer loop
      vertex  4.000000e+000  1.530000e+002  1.364250e+001
      vertex  4.217732e+000  1.530000e+002  1.275124e+001
      vertex  4.777672e+000  1.530000e+002  1.693030e+001
    endloop
  endfacet
  facet normal  -0.000000e+000 -1.000000e+000  0.000000e+000
    outer loop
      vertex  4.000000e+000  1.530000e+002  1.364250e+001
      vertex  4.777672e+000  1.530000e+002  1.693030e+001
      vertex  4.964810e+000  1.530000e+002  2.114256e+001
    endloop
  endfacet
  facet normal  -0.000000e+000 -1.000000e+000  0.000000e+000
    outer loop
      vertex  4.000000e+000  1.530000e+002  1.364250e+001
      vertex  4.964810e+000  1.530000e+002  2.114256e+001
      vertex  4.777672e+000  1.530000e+002  2.535481e+001
    endloop
  endfacet
  facet normal  -0.000000e+000 -1.000000e+000  0.000000e+000
    outer loop
      vertex  4.000000e+000  1.530000e+002  1.364250e+001
      vertex  4.777672e+000  1.530000e+002  2.535481e+001
      vertex  4.217732e+000  1.530000e+002  2.953387e+001
    endloop
  endfacet
  facet normal  0.000000e+000 -1.000000e+000  0.000000e+000
    outer loop
      vertex  4.000000e+000  1.530000e+002  1.364250e+001
      vertex  4.217732e+000  1.530000e+002  2.953387e+001
      vertex  4.000000e+000  1.530000e+002  2.864250e+001
    endloop
  endfacet
  facet normal  0.000000e+000 -9.999999e-001  0.000000e+000
    outer loop
      vertex  4.000000e+000  1.530000e+002  2.864250e+001
      vertex  4.217732e+000  1.530000e+002  2.953387e+001
      vertex  2.000000e+000  1.530000e+002  2.864250e+001
    endloop
  endfacet
  facet normal  0.000000e+000 -9.999999e-001  0.000000e+000
    outer loop
      vertex  2.000000e+000  1.530000e+002  2.864250e+001
      vertex  4.217732e+000  1.530000e+002  2.953387e+001
      vertex  3.289403e+000  1.530000e+002  3.364682e+001
    endloop
  endfacet
  facet normal  -0.000000e+000 -1.000000e+000  0.000000e+000
    outer loop
      vertex  2.000000e+000  1.530000e+002  2.864250e+001
      vertex  3.289403e+000  1.530000e+002  3.364682e+001
      vertex  2.000000e+000  1.530000e+002  3.766124e+001
    endloop
  endfacet
  facet normal  0.000000e+000 -1.000000e+000  0.000000e+000
    outer loop
      vertex  4.217732e+000  1.530000e+002  1.275124e+001
      vertex  2.000000e+000  1.530000e+002  1.364250e+001
      vertex  3.289403e+000  1.530000e+002  8.638291e+000
    endloop
  endfacet
  facet normal  -0.000000e+000 -1.000000e+000  0.000000e+000
    outer loop
      vertex  3.289403e+000  1.530000e+002  8.638291e+000
      vertex  2.000000e+000  1.530000e+002  1.364250e+001
      vertex  2.000000e+000  1.530000e+002  4.623873e+000
    endloop
  endfacet
  facet normal -1.000000e+000  0.000000e+000  0.000000e+000
    outer loop
      vertex  4.000000e+000  1.730000e+002  2.864250e+001
      vertex  4.000000e+000  1.730000e+002  1.364250e+001
      vertex  4.000000e+000  1.530000e+002  2.864250e+001
    endloop
  endfacet
  facet normal -1.000000e+000  0.000000e+000  0.000000e+000
    outer loop
      vertex  4.000000e+000  1.530000e+002  2.864250e+001
      vertex  4.000000e+000  1.730000e+002  1.364250e+001
      vertex  4.000000e+000  1.530000e+002  1.364250e+001
    endloop
  endfacet
endsolid CATIA STL
