solid CATIA STL
  facet normal  0.000000e+000  1.000000e+000  0.000000e+000
    outer loop
      vertex -6.085858e+001  1.730000e+002  4.263256e-014
      vertex -6.285858e+001  1.730000e+002  4.263256e-014
      vertex -6.285858e+001  1.730000e+002  4.624054e+000
    endloop
  endfacet
  facet normal  -0.000000e+000  1.000000e+000  0.000000e+000
    outer loop
      vertex -6.085858e+001  1.730000e+002  4.263256e-014
      vertex -6.285858e+001  1.730000e+002  4.624054e+000
      vertex -6.285858e+001  1.730000e+002  1.364255e+001
    endloop
  endfacet
  facet normal  -0.000000e+000  1.000000e+000  0.000000e+000
    outer loop
      vertex -6.085858e+001  1.730000e+002  4.263256e-014
      vertex -6.285858e+001  1.730000e+002  1.364255e+001
      vertex -6.285858e+001  1.730000e+002  2.864256e+001
    endloop
  endfacet
  facet normal  -0.000000e+000  1.000000e+000  0.000000e+000
    outer loop
      vertex -6.085858e+001  1.730000e+002  4.263256e-014
      vertex -6.285858e+001  1.730000e+002  2.864256e+001
      vertex -6.285858e+001  1.730000e+002  3.766105e+001
    endloop
  endfacet
  facet normal  -0.000000e+000  1.000000e+000  0.000000e+000
    outer loop
      vertex -6.085858e+001  1.730000e+002  4.263256e-014
      vertex -6.285858e+001  1.730000e+002  3.766105e+001
      vertex -6.285858e+001  1.730000e+002  4.228500e+001
    endloop
  endfacet
  facet normal  -0.000000e+000  1.000000e+000  0.000000e+000
    outer loop
      vertex -6.085858e+001  1.730000e+002  4.263256e-014
      vertex -6.285858e+001  1.730000e+002  4.228500e+001
      vertex -6.085858e+001  1.730000e+002  4.228500e+001
    endloop
  endfacet
  facet normal  0.000000e+000  1.000000e+000  -0.000000e+000
    outer loop
      vertex -6.285858e+001  1.730000e+002  1.364255e+001
      vertex -6.285858e+001  1.730000e+002  4.624054e+000
      vertex -6.485858e+001  1.730000e+002  1.364255e+001
    endloop
  endfacet
  facet normal  0.000000e+000  1.000000e+000  0.000000e+000
    outer loop
      vertex -6.485858e+001  1.730000e+002  1.364255e+001
      vertex -6.285858e+001  1.730000e+002  4.624054e+000
      vertex -6.512747e+001  1.730000e+002  1.274518e+001
    endloop
  endfacet
  facet normal  0.000000e+000  1.000000e+000  0.000000e+000
    outer loop
      vertex -6.485858e+001  1.730000e+002  1.364255e+001
      vertex -6.512747e+001  1.730000e+002  1.274518e+001
      vertex -6.485858e+001  1.730000e+002  2.864256e+001
    endloop
  endfacet
  facet normal  0.000000e+000  1.000000e+000  0.000000e+000
    outer loop
      vertex -6.485858e+001  1.730000e+002  2.864256e+001
      vertex -6.512747e+001  1.730000e+002  1.274518e+001
      vertex -6.589215e+001  1.730000e+002  2.114256e+001
    endloop
  endfacet
  facet normal  0.000000e+000  1.000000e+000  0.000000e+000
    outer loop
      vertex -6.485858e+001  1.730000e+002  2.864256e+001
      vertex -6.589215e+001  1.730000e+002  2.114256e+001
      vertex -6.512747e+001  1.730000e+002  2.953993e+001
    endloop
  endfacet
  facet normal  0.000000e+000  1.000000e+000  -0.000000e+000
    outer loop
      vertex -6.285858e+001  1.730000e+002  3.766105e+001
      vertex -6.285858e+001  1.730000e+002  2.864256e+001
      vertex -6.512747e+001  1.730000e+002  2.953993e+001
    endloop
  endfacet
  facet normal  0.000000e+000  1.000000e+000  0.000000e+000
    outer loop
      vertex -6.512747e+001  1.730000e+002  2.953993e+001
      vertex -6.285858e+001  1.730000e+002  2.864256e+001
      vertex -6.485858e+001  1.730000e+002  2.864256e+001
    endloop
  endfacet
  facet normal -9.631186e-001  0.000000e+000  2.690773e-001
    outer loop
      vertex -6.285858e+001  1.530000e+002  3.766105e+001
      vertex -6.285858e+001  1.730000e+002  3.766105e+001
      vertex -6.512747e+001  1.530000e+002  2.953993e+001
    endloop
  endfacet
  facet normal -9.631186e-001  0.000000e+000  2.690773e-001
    outer loop
      vertex -6.512747e+001  1.530000e+002  2.953993e+001
      vertex -6.285858e+001  1.730000e+002  3.766105e+001
      vertex -6.512747e+001  1.730000e+002  2.953993e+001
    endloop
  endfacet
  facet normal -9.958795e-001  0.000000e+000  9.068649e-002
    outer loop
      vertex -6.512747e+001  1.530000e+002  2.953993e+001
      vertex -6.512747e+001  1.730000e+002  2.953993e+001
      vertex -6.589215e+001  1.530000e+002  2.114256e+001
    endloop
  endfacet
  facet normal -9.958795e-001  0.000000e+000  9.068649e-002
    outer loop
      vertex -6.589215e+001  1.530000e+002  2.114256e+001
      vertex -6.512747e+001  1.730000e+002  2.953993e+001
      vertex -6.589215e+001  1.730000e+002  2.114256e+001
    endloop
  endfacet
  facet normal -9.958796e-001  -0.000000e+000 -9.068648e-002
    outer loop
      vertex -6.589215e+001  1.530000e+002  2.114256e+001
      vertex -6.589215e+001  1.730000e+002  2.114256e+001
      vertex -6.512747e+001  1.530000e+002  1.274518e+001
    endloop
  endfacet
  facet normal -9.958796e-001  0.000000e+000 -9.068648e-002
    outer loop
      vertex -6.512747e+001  1.530000e+002  1.274518e+001
      vertex -6.589215e+001  1.730000e+002  2.114256e+001
      vertex -6.512747e+001  1.730000e+002  1.274518e+001
    endloop
  endfacet
  facet normal -9.631186e-001  -0.000000e+000 -2.690772e-001
    outer loop
      vertex -6.512747e+001  1.530000e+002  1.274518e+001
      vertex -6.512747e+001  1.730000e+002  1.274518e+001
      vertex -6.285858e+001  1.530000e+002  4.624054e+000
    endloop
  endfacet
  facet normal -9.631186e-001  0.000000e+000 -2.690772e-001
    outer loop
      vertex -6.285858e+001  1.530000e+002  4.624054e+000
      vertex -6.512747e+001  1.730000e+002  1.274518e+001
      vertex -6.285858e+001  1.730000e+002  4.624054e+000
    endloop
  endfacet
  facet normal  0.000000e+000  0.000000e+000  1.000000e+000
    outer loop
      vertex -6.485858e+001  1.730000e+002  1.364255e+001
      vertex -6.485858e+001  1.530000e+002  1.364255e+001
      vertex -6.285858e+001  1.730000e+002  1.364255e+001
    endloop
  endfacet
  facet normal  0.000000e+000  0.000000e+000  1.000000e+000
    outer loop
      vertex -6.285858e+001  1.730000e+002  1.364255e+001
      vertex -6.485858e+001  1.530000e+002  1.364255e+001
      vertex -6.285858e+001  1.530000e+002  1.364255e+001
    endloop
  endfacet
  facet normal  0.000000e+000  0.000000e+000 -1.000000e+000
    outer loop
      vertex -6.285858e+001  1.730000e+002  2.864256e+001
      vertex -6.285858e+001  1.530000e+002  2.864256e+001
      vertex -6.485858e+001  1.730000e+002  2.864256e+001
    endloop
  endfacet
  facet normal  0.000000e+000  0.000000e+000 -1.000000e+000
    outer loop
      vertex -6.485858e+001  1.730000e+002  2.864256e+001
      vertex -6.285858e+001  1.530000e+002  2.864256e+001
      vertex -6.485858e+001  1.530000e+002  2.864256e+001
    endloop
  endfacet
  facet normal -1.000000e+000  -0.000000e+000  -0.000000e+000
    outer loop
      vertex -6.285858e+001 -1.989520e-013  4.228500e+001
      vertex -6.285858e+001  1.730000e+002  4.228500e+001
      vertex -6.285858e+001  1.730000e+002  3.766105e+001
    endloop
  endfacet
  facet normal -1.000000e+000  0.000000e+000  0.000000e+000
    outer loop
      vertex -6.285858e+001 -1.989520e-013  4.228500e+001
      vertex -6.285858e+001  1.730000e+002  3.766105e+001
      vertex -6.285858e+001  1.530000e+002  3.766105e+001
    endloop
  endfacet
  facet normal -1.000000e+000  -0.000000e+000  -0.000000e+000
    outer loop
      vertex -6.285858e+001 -1.989520e-013  4.228500e+001
      vertex -6.285858e+001  1.530000e+002  3.766105e+001
      vertex -6.285858e+001  1.530000e+002  2.864256e+001
    endloop
  endfacet
  facet normal -1.000000e+000  -0.000000e+000  -0.000000e+000
    outer loop
      vertex -6.285858e+001 -1.989520e-013  4.228500e+001
      vertex -6.285858e+001  1.530000e+002  2.864256e+001
      vertex -6.285858e+001  1.530000e+002  1.364255e+001
    endloop
  endfacet
  facet normal -1.000000e+000  -0.000000e+000  -0.000000e+000
    outer loop
      vertex -6.285858e+001 -1.989520e-013  4.228500e+001
      vertex -6.285858e+001  1.530000e+002  1.364255e+001
      vertex -6.285858e+001  1.530000e+002  4.624054e+000
    endloop
  endfacet
  facet normal -1.000000e+000  -0.000000e+000  0.000000e+000
    outer loop
      vertex -6.285858e+001 -1.989520e-013  4.228500e+001
      vertex -6.285858e+001  1.530000e+002  4.624054e+000
      vertex -6.285858e+001 -1.989520e-013  0.000000e+000
    endloop
  endfacet
  facet normal -1.000000e+000  0.000000e+000  0.000000e+000
    outer loop
      vertex -6.285858e+001  1.730000e+002  2.864256e+001
      vertex -6.285858e+001  1.730000e+002  1.364255e+001
      vertex -6.285858e+001  1.530000e+002  2.864256e+001
    endloop
  endfacet
  facet normal -1.000000e+000  0.000000e+000  0.000000e+000
    outer loop
      vertex -6.285858e+001  1.530000e+002  2.864256e+001
      vertex -6.285858e+001  1.730000e+002  1.364255e+001
      vertex -6.285858e+001  1.530000e+002  1.364255e+001
    endloop
  endfacet
  facet normal -1.000000e+000  0.000000e+000  0.000000e+000
    outer loop
      vertex -6.285858e+001  1.730000e+002  4.263256e-014
      vertex -6.285858e+001 -1.989520e-013  0.000000e+000
      vertex -6.285858e+001  1.730000e+002  4.624054e+000
    endloop
  endfacet
  facet normal -1.000000e+000  -0.000000e+000  0.000000e+000
    outer loop
      vertex -6.285858e+001  1.730000e+002  4.624054e+000
      vertex -6.285858e+001 -1.989520e-013  0.000000e+000
      vertex -6.285858e+001  1.530000e+002  4.624054e+000
    endloop
  endfacet
  facet normal  0.000000e+000 -1.000000e+000  0.000000e+000
    outer loop
      vertex -6.285858e+001  1.530000e+002  1.364255e+001
      vertex -6.512747e+001  1.530000e+002  1.274518e+001
      vertex -6.285858e+001  1.530000e+002  4.624054e+000
    endloop
  endfacet
  facet normal  -0.000000e+000 -1.000000e+000  -0.000000e+000
    outer loop
      vertex -6.485858e+001  1.530000e+002  1.364255e+001
      vertex -6.485858e+001  1.530000e+002  2.864256e+001
      vertex -6.512747e+001  1.530000e+002  2.953993e+001
    endloop
  endfacet
  facet normal  0.000000e+000 -1.000000e+000  -0.000000e+000
    outer loop
      vertex -6.485858e+001  1.530000e+002  1.364255e+001
      vertex -6.512747e+001  1.530000e+002  2.953993e+001
      vertex -6.589215e+001  1.530000e+002  2.114256e+001
    endloop
  endfacet
  facet normal  0.000000e+000 -1.000000e+000  0.000000e+000
    outer loop
      vertex -6.485858e+001  1.530000e+002  1.364255e+001
      vertex -6.589215e+001  1.530000e+002  2.114256e+001
      vertex -6.512747e+001  1.530000e+002  1.274518e+001
    endloop
  endfacet
  facet normal  0.000000e+000 -1.000000e+000  0.000000e+000
    outer loop
      vertex -6.485858e+001  1.530000e+002  1.364255e+001
      vertex -6.512747e+001  1.530000e+002  1.274518e+001
      vertex -6.285858e+001  1.530000e+002  1.364255e+001
    endloop
  endfacet
  facet normal  0.000000e+000 -1.000000e+000  -0.000000e+000
    outer loop
      vertex -6.285858e+001  1.530000e+002  2.864256e+001
      vertex -6.285858e+001  1.530000e+002  3.766105e+001
      vertex -6.485858e+001  1.530000e+002  2.864256e+001
    endloop
  endfacet
  facet normal  0.000000e+000 -1.000000e+000  0.000000e+000
    outer loop
      vertex -6.485858e+001  1.530000e+002  2.864256e+001
      vertex -6.285858e+001  1.530000e+002  3.766105e+001
      vertex -6.512747e+001  1.530000e+002  2.953993e+001
    endloop
  endfacet
  facet normal  1.000000e+000  -0.000000e+000  0.000000e+000
    outer loop
      vertex -6.485858e+001  1.730000e+002  2.864256e+001
      vertex -6.485858e+001  1.530000e+002  2.864256e+001
      vertex -6.485858e+001  1.730000e+002  1.364255e+001
    endloop
  endfacet
  facet normal  1.000000e+000  0.000000e+000  0.000000e+000
    outer loop
      vertex -6.485858e+001  1.730000e+002  1.364255e+001
      vertex -6.485858e+001  1.530000e+002  2.864256e+001
      vertex -6.485858e+001  1.530000e+002  1.364255e+001
    endloop
  endfacet
  facet normal  1.000000e+000  0.000000e+000  0.000000e+000
    outer loop
      vertex -6.085858e+001  1.730000e+002  4.263256e-014
      vertex -6.085858e+001  1.730000e+002  4.228500e+001
      vertex -6.085858e+001 -1.989520e-013  0.000000e+000
    endloop
  endfacet
  facet normal  1.000000e+000  0.000000e+000  0.000000e+000
    outer loop
      vertex -6.085858e+001 -1.989520e-013  0.000000e+000
      vertex -6.085858e+001  1.730000e+002  4.228500e+001
      vertex -6.085858e+001 -1.989520e-013  4.228500e+001
    endloop
  endfacet
  facet normal  0.000000e+000  0.000000e+000  1.000000e+000
    outer loop
      vertex -6.285858e+001  1.730000e+002  4.228500e+001
      vertex -6.285858e+001 -1.989520e-013  4.228500e+001
      vertex -6.085858e+001  1.730000e+002  4.228500e+001
    endloop
  endfacet
  facet normal  0.000000e+000  0.000000e+000  1.000000e+000
    outer loop
      vertex -6.085858e+001  1.730000e+002  4.228500e+001
      vertex -6.285858e+001 -1.989520e-013  4.228500e+001
      vertex -6.085858e+001 -1.989520e-013  4.228500e+001
    endloop
  endfacet
  facet normal  0.000000e+000 -1.000000e+000  0.000000e+000
    outer loop
      vertex -6.285858e+001 -1.989520e-013  0.000000e+000
      vertex -6.085858e+001 -1.989520e-013  0.000000e+000
      vertex -6.285858e+001 -1.989520e-013  4.228500e+001
    endloop
  endfacet
  facet normal  0.000000e+000 -1.000000e+000  0.000000e+000
    outer loop
      vertex -6.285858e+001 -1.989520e-013  4.228500e+001
      vertex -6.085858e+001 -1.989520e-013  0.000000e+000
      vertex -6.085858e+001 -1.989520e-013  4.228500e+001
    endloop
  endfacet
  facet normal  0.000000e+000  2.464310e-016 -1.000000e+000
    outer loop
      vertex -6.285858e+001 -1.989520e-013  0.000000e+000
      vertex -6.285858e+001  1.730000e+002  4.263256e-014
      vertex -6.085858e+001 -1.989520e-013  0.000000e+000
    endloop
  endfacet
  facet normal  0.000000e+000  2.464310e-016 -1.000000e+000
    outer loop
      vertex -6.085858e+001 -1.989520e-013  0.000000e+000
      vertex -6.285858e+001  1.730000e+002  4.263256e-014
      vertex -6.085858e+001  1.730000e+002  4.263256e-014
    endloop
  endfacet
endsolid CATIA STL
