solid CATIA STL
  facet normal -9.998860e-001  8.054188e-009  1.510014e-002
    outer loop
      vertex -6.395921e+001  3.603814e+003 -3.669945e+001
      vertex -6.365826e+001  3.467415e+003 -1.677092e+001
      vertex -6.346035e+001  3.603814e+003 -3.666216e+000
    endloop
  endfacet
  facet normal -9.998857e-001 -1.081317e-006  1.511147e-002
    outer loop
      vertex -6.365826e+001  3.467415e+003 -1.677092e+001
      vertex -6.365708e+001  3.466898e+003 -1.669296e+001
      vertex -6.346035e+001  3.603814e+003 -3.666216e+000
    endloop
  endfacet
  facet normal -9.998860e-001  0.000000e+000  1.510002e-002
    outer loop
      vertex -6.346035e+001  3.623814e+003 -3.666216e+000
      vertex -6.346035e+001  3.603814e+003 -3.666216e+000
      vertex -6.342073e+001  3.623814e+003 -1.042461e+000
    endloop
  endfacet
  facet normal -9.998860e-001  0.000000e+000  1.510002e-002
    outer loop
      vertex -6.342073e+001  3.450814e+003 -1.042461e+000
      vertex -6.342073e+001  3.623814e+003 -1.042461e+000
      vertex -6.346035e+001  3.603814e+003 -3.666216e+000
    endloop
  endfacet
  facet normal -9.998860e-001  1.397371e-009  1.510010e-002
    outer loop
      vertex -6.342073e+001  3.450814e+003 -1.042461e+000
      vertex -6.346035e+001  3.603814e+003 -3.666216e+000
      vertex -6.365708e+001  3.466898e+003 -1.669296e+001
    endloop
  endfacet
  facet normal -9.998859e-001  0.000000e+000  1.510009e-002
    outer loop
      vertex -6.342073e+001  3.450814e+003 -1.042461e+000
      vertex -6.365708e+001  3.466898e+003 -1.669296e+001
      vertex -6.365708e+001  3.466375e+003 -1.669296e+001
    endloop
  endfacet
  facet normal -9.998860e-001  2.431991e-006  1.510251e-002
    outer loop
      vertex -6.342073e+001  3.450814e+003 -1.042461e+000
      vertex -6.365708e+001  3.466375e+003 -1.669296e+001
      vertex -6.365826e+001  3.465858e+003 -1.677092e+001
    endloop
  endfacet
  facet normal -9.998860e-001 -2.024381e-006  1.509825e-002
    outer loop
      vertex -6.342073e+001  3.450814e+003 -1.042461e+000
      vertex -6.365826e+001  3.465858e+003 -1.677092e+001
      vertex -6.366058e+001  3.465358e+003 -1.692509e+001
    endloop
  endfacet
  facet normal -9.998860e-001 -2.459485e-006  1.509785e-002
    outer loop
      vertex -6.342073e+001  3.450814e+003 -1.042461e+000
      vertex -6.366058e+001  3.465358e+003 -1.692509e+001
      vertex -6.366401e+001  3.464886e+003 -1.715203e+001
    endloop
  endfacet
  facet normal -9.998859e-001  3.044954e-006  1.510266e-002
    outer loop
      vertex -6.342073e+001  3.450814e+003 -1.042461e+000
      vertex -6.366401e+001  3.464886e+003 -1.715203e+001
      vertex -6.366846e+001  3.464454e+003 -1.744668e+001
    endloop
  endfacet
  facet normal -9.998860e-001 -2.365324e-006  1.509816e-002
    outer loop
      vertex -6.342073e+001  3.450814e+003 -1.042461e+000
      vertex -6.366846e+001  3.464454e+003 -1.744668e+001
      vertex -6.367383e+001  3.464071e+003 -1.780244e+001
    endloop
  endfacet
  facet normal -9.998860e-001  4.948232e-007  1.510042e-002
    outer loop
      vertex -6.342073e+001  3.450814e+003 -1.042461e+000
      vertex -6.367383e+001  3.464071e+003 -1.780244e+001
      vertex -6.368001e+001  3.463745e+003 -1.821138e+001
    endloop
  endfacet
  facet normal -9.998860e-001  1.433692e-008  1.510006e-002
    outer loop
      vertex -6.342073e+001  3.450814e+003 -1.042461e+000
      vertex -6.368001e+001  3.463745e+003 -1.821138e+001
      vertex -6.399883e+001  3.450814e+003 -3.932310e+001
    endloop
  endfacet
  facet normal -9.998865e-001  6.268029e-005  1.506169e-002
    outer loop
      vertex -6.399883e+001  3.450814e+003 -3.932310e+001
      vertex -6.368001e+001  3.463745e+003 -1.821138e+001
      vertex -6.368685e+001  3.463483e+003 -1.866436e+001
    endloop
  endfacet
  facet normal -9.998858e-001 -1.610848e-005  1.511000e-002
    outer loop
      vertex -6.399883e+001  3.450814e+003 -3.932310e+001
      vertex -6.368685e+001  3.463483e+003 -1.866436e+001
      vertex -6.369420e+001  3.463292e+003 -1.915125e+001
    endloop
  endfacet
  facet normal -9.998860e-001 -4.648672e-006  1.510291e-002
    outer loop
      vertex -6.399883e+001  3.450814e+003 -3.932310e+001
      vertex -6.369420e+001  3.463292e+003 -1.915125e+001
      vertex -6.370190e+001  3.463176e+003 -1.966119e+001
    endloop
  endfacet
  facet normal -9.998860e-001 -1.692669e-006  1.510105e-002
    outer loop
      vertex -6.399883e+001  3.450814e+003 -3.932310e+001
      vertex -6.370190e+001  3.463176e+003 -1.966119e+001
      vertex -6.370978e+001  3.463136e+003 -2.018278e+001
    endloop
  endfacet
  facet normal -9.998862e-001  8.911891e-006  1.509423e-002
    outer loop
      vertex -6.399883e+001  3.450814e+003 -3.932310e+001
      vertex -6.370978e+001  3.463136e+003 -2.018278e+001
      vertex -6.371766e+001  3.463176e+003 -2.070437e+001
    endloop
  endfacet
  facet normal -9.998860e-001 -1.913223e-006  1.510141e-002
    outer loop
      vertex -6.399883e+001  3.450814e+003 -3.932310e+001
      vertex -6.371766e+001  3.463176e+003 -2.070437e+001
      vertex -6.372536e+001  3.463292e+003 -2.121430e+001
    endloop
  endfacet
  facet normal -9.998859e-001 -3.311018e-006  1.510237e-002
    outer loop
      vertex -6.399883e+001  3.450814e+003 -3.932310e+001
      vertex -6.372536e+001  3.463292e+003 -2.121430e+001
      vertex -6.373271e+001  3.463483e+003 -2.170120e+001
    endloop
  endfacet
  facet normal -9.998860e-001  1.596320e-006  1.509885e-002
    outer loop
      vertex -6.399883e+001  3.450814e+003 -3.932310e+001
      vertex -6.373271e+001  3.463483e+003 -2.170120e+001
      vertex -6.373955e+001  3.463745e+003 -2.215417e+001
    endloop
  endfacet
  facet normal -9.998860e-001 -4.515700e-007  1.510039e-002
    outer loop
      vertex -6.399883e+001  3.450814e+003 -3.932310e+001
      vertex -6.373955e+001  3.463745e+003 -2.215417e+001
      vertex -6.374573e+001  3.464071e+003 -2.256311e+001
    endloop
  endfacet
  facet normal -9.998860e-001  2.364405e-006  1.509816e-002
    outer loop
      vertex -6.399883e+001  3.450814e+003 -3.932310e+001
      vertex -6.374573e+001  3.464071e+003 -2.256311e+001
      vertex -6.375110e+001  3.464454e+003 -2.291888e+001
    endloop
  endfacet
  facet normal -9.998859e-001 -3.045718e-006  1.510266e-002
    outer loop
      vertex -6.399883e+001  3.450814e+003 -3.932310e+001
      vertex -6.375110e+001  3.464454e+003 -2.291888e+001
      vertex -6.375555e+001  3.464886e+003 -2.321352e+001
    endloop
  endfacet
  facet normal -9.998860e-001  2.416166e-006  1.509789e-002
    outer loop
      vertex -6.399883e+001  3.450814e+003 -3.932310e+001
      vertex -6.375555e+001  3.464886e+003 -2.321352e+001
      vertex -6.375898e+001  3.465358e+003 -2.344046e+001
    endloop
  endfacet
  facet normal -9.998860e-001 -3.880193e-006  1.510365e-002
    outer loop
      vertex -6.399883e+001  3.450814e+003 -3.932310e+001
      vertex -6.375898e+001  3.465358e+003 -2.344046e+001
      vertex -6.376131e+001  3.465858e+003 -2.359464e+001
    endloop
  endfacet
  facet normal -9.998861e-001  3.980065e-006  1.509614e-002
    outer loop
      vertex -6.399883e+001  3.450814e+003 -3.932310e+001
      vertex -6.376131e+001  3.465858e+003 -2.359464e+001
      vertex -6.376248e+001  3.466375e+003 -2.367259e+001
    endloop
  endfacet
  facet normal -9.998863e-001 -1.782058e-006  1.508156e-002
    outer loop
      vertex -6.395921e+001  3.603814e+003 -3.669945e+001
      vertex -6.376248e+001  3.466898e+003 -2.367259e+001
      vertex -6.376131e+001  3.467415e+003 -2.359464e+001
    endloop
  endfacet
  facet normal -9.998858e-001  1.182313e-006  1.511240e-002
    outer loop
      vertex -6.395921e+001  3.603814e+003 -3.669945e+001
      vertex -6.376131e+001  3.467415e+003 -2.359464e+001
      vertex -6.375898e+001  3.467915e+003 -2.344046e+001
    endloop
  endfacet
  facet normal -9.998860e-001 -6.014723e-007  1.509412e-002
    outer loop
      vertex -6.395921e+001  3.603814e+003 -3.669945e+001
      vertex -6.375898e+001  3.467915e+003 -2.344046e+001
      vertex -6.375555e+001  3.468386e+003 -2.321352e+001
    endloop
  endfacet
  facet normal -9.998859e-001  6.052717e-007  1.510624e-002
    outer loop
      vertex -6.395921e+001  3.603814e+003 -3.669945e+001
      vertex -6.375555e+001  3.468386e+003 -2.321352e+001
      vertex -6.375110e+001  3.468819e+003 -2.291888e+001
    endloop
  endfacet
  facet normal -9.998860e-001 -4.320001e-007  1.509608e-002
    outer loop
      vertex -6.395921e+001  3.603814e+003 -3.669945e+001
      vertex -6.375110e+001  3.468819e+003 -2.291888e+001
      vertex -6.374573e+001  3.469202e+003 -2.256311e+001
    endloop
  endfacet
  facet normal -9.998860e-001  5.399515e-008  1.510071e-002
    outer loop
      vertex -6.395921e+001  3.603814e+003 -3.669945e+001
      vertex -6.374573e+001  3.469202e+003 -2.256311e+001
      vertex -6.373955e+001  3.469528e+003 -2.215417e+001
    endloop
  endfacet
  facet normal -9.998860e-001 -2.326785e-007  1.509806e-002
    outer loop
      vertex -6.395921e+001  3.603814e+003 -3.669945e+001
      vertex -6.373955e+001  3.469528e+003 -2.215417e+001
      vertex -6.373271e+001  3.469790e+003 -2.170120e+001
    endloop
  endfacet
  facet normal -9.998860e-001  3.790576e-007  1.510352e-002
    outer loop
      vertex -6.395921e+001  3.603814e+003 -3.669945e+001
      vertex -6.373271e+001  3.469790e+003 -2.170120e+001
      vertex -6.372536e+001  3.469981e+003 -2.121430e+001
    endloop
  endfacet
  facet normal -9.998860e-001  1.802132e-007  1.510181e-002
    outer loop
      vertex -6.395921e+001  3.603814e+003 -3.669945e+001
      vertex -6.372536e+001  3.469981e+003 -2.121430e+001
      vertex -6.371766e+001  3.470097e+003 -2.070437e+001
    endloop
  endfacet
  facet normal -9.998861e-001 -7.995420e-007  1.509362e-002
    outer loop
      vertex -6.395921e+001  3.603814e+003 -3.669945e+001
      vertex -6.371766e+001  3.470097e+003 -2.070437e+001
      vertex -6.370978e+001  3.470136e+003 -2.018278e+001
    endloop
  endfacet
  facet normal -9.998859e-001  1.043875e-007  1.510093e-002
    outer loop
      vertex -6.395921e+001  3.603814e+003 -3.669945e+001
      vertex -6.370978e+001  3.470136e+003 -2.018278e+001
      vertex -6.370190e+001  3.470097e+003 -1.966119e+001
    endloop
  endfacet
  facet normal -9.998859e-001  2.277084e-007  1.510190e-002
    outer loop
      vertex -6.395921e+001  3.603814e+003 -3.669945e+001
      vertex -6.370190e+001  3.470097e+003 -1.966119e+001
      vertex -6.369420e+001  3.469981e+003 -1.915125e+001
    endloop
  endfacet
  facet normal -9.998860e-001  4.853280e-007  1.510387e-002
    outer loop
      vertex -6.395921e+001  3.603814e+003 -3.669945e+001
      vertex -6.369420e+001  3.469981e+003 -1.915125e+001
      vertex -6.368685e+001  3.469790e+003 -1.866436e+001
    endloop
  endfacet
  facet normal -9.998860e-001 -3.497347e-007  1.509766e-002
    outer loop
      vertex -6.395921e+001  3.603814e+003 -3.669945e+001
      vertex -6.368685e+001  3.469790e+003 -1.866436e+001
      vertex -6.368001e+001  3.469528e+003 -1.821138e+001
    endloop
  endfacet
  facet normal -9.998860e-001  9.583638e-008  1.510090e-002
    outer loop
      vertex -6.395921e+001  3.603814e+003 -3.669945e+001
      vertex -6.368001e+001  3.469528e+003 -1.821138e+001
      vertex -6.367383e+001  3.469202e+003 -1.780244e+001
    endloop
  endfacet
  facet normal -9.998861e-001 -7.610514e-007  1.509479e-002
    outer loop
      vertex -6.395921e+001  3.603814e+003 -3.669945e+001
      vertex -6.367383e+001  3.469202e+003 -1.780244e+001
      vertex -6.366846e+001  3.468819e+003 -1.744668e+001
    endloop
  endfacet
  facet normal -9.998859e-001  1.262153e-006  1.510898e-002
    outer loop
      vertex -6.395921e+001  3.603814e+003 -3.669945e+001
      vertex -6.366846e+001  3.468819e+003 -1.744668e+001
      vertex -6.366401e+001  3.468386e+003 -1.715203e+001
    endloop
  endfacet
  facet normal -9.998862e-001 -1.543382e-006  1.508954e-002
    outer loop
      vertex -6.395921e+001  3.603814e+003 -3.669945e+001
      vertex -6.366401e+001  3.468386e+003 -1.715203e+001
      vertex -6.366058e+001  3.467915e+003 -1.692509e+001
    endloop
  endfacet
  facet normal -9.998862e-001 -2.331807e-006  1.508413e-002
    outer loop
      vertex -6.395921e+001  3.603814e+003 -3.669945e+001
      vertex -6.366058e+001  3.467915e+003 -1.692509e+001
      vertex -6.365826e+001  3.467415e+003 -1.677092e+001
    endloop
  endfacet
  facet normal -9.998860e-001  0.000000e+000  1.509917e-002
    outer loop
      vertex -6.399883e+001  3.623814e+003 -3.932310e+001
      vertex -6.399883e+001  3.450814e+003 -3.932310e+001
      vertex -6.395921e+001  3.623814e+003 -3.669945e+001
    endloop
  endfacet
  facet normal -9.998860e-001  0.000000e+000  1.509917e-002
    outer loop
      vertex -6.395921e+001  3.623814e+003 -3.669945e+001
      vertex -6.399883e+001  3.450814e+003 -3.932310e+001
      vertex -6.395921e+001  3.603814e+003 -3.669945e+001
    endloop
  endfacet
  facet normal -9.998860e-001 -1.613398e-008  1.510011e-002
    outer loop
      vertex -6.399883e+001  3.450814e+003 -3.932310e+001
      vertex -6.376248e+001  3.466375e+003 -2.367259e+001
      vertex -6.395921e+001  3.603814e+003 -3.669945e+001
    endloop
  endfacet
  facet normal -9.998860e-001  0.000000e+000  1.510028e-002
    outer loop
      vertex -6.395921e+001  3.603814e+003 -3.669945e+001
      vertex -6.376248e+001  3.466375e+003 -2.367259e+001
      vertex -6.376248e+001  3.466898e+003 -2.367259e+001
    endloop
  endfacet
  facet normal  9.998859e-001  8.027366e-007 -1.510654e-002
    outer loop
      vertex -6.139075e+001  3.623814e+003  9.271111e-001
      vertex -6.168736e+001  3.466636e+003 -1.871315e+001
      vertex -6.168793e+001  3.466970e+003 -1.875075e+001
    endloop
  endfacet
  facet normal  9.998860e-001 -7.179387e-008 -1.510010e-002
    outer loop
      vertex -6.139075e+001  3.450814e+003  9.271111e-001
      vertex -6.202926e+001  3.450814e+003 -4.135307e+001
      vertex -6.170018e+001  3.465285e+003 -1.956223e+001
    endloop
  endfacet
  facet normal  9.998860e-001 -2.014765e-006 -1.510148e-002
    outer loop
      vertex -6.139075e+001  3.450814e+003  9.271111e-001
      vertex -6.170018e+001  3.465285e+003 -1.956223e+001
      vertex -6.169588e+001  3.465464e+003 -1.927785e+001
    endloop
  endfacet
  facet normal  9.998861e-001  1.546633e-006 -1.509889e-002
    outer loop
      vertex -6.139075e+001  3.450814e+003  9.271111e-001
      vertex -6.169588e+001  3.465464e+003 -1.927785e+001
      vertex -6.169230e+001  3.465701e+003 -1.904037e+001
    endloop
  endfacet
  facet normal  9.998860e-001  3.556890e-006 -1.509739e-002
    outer loop
      vertex -6.139075e+001  3.450814e+003  9.271111e-001
      vertex -6.169230e+001  3.465701e+003 -1.904037e+001
      vertex -6.168960e+001  3.465986e+003 -1.886168e+001
    endloop
  endfacet
  facet normal  9.998860e-001  1.317740e-006 -1.509911e-002
    outer loop
      vertex -6.139075e+001  3.450814e+003  9.271111e-001
      vertex -6.168960e+001  3.465986e+003 -1.886168e+001
      vertex -6.168793e+001  3.466303e+003 -1.875075e+001
    endloop
  endfacet
  facet normal  9.998860e-001 -1.399524e-006 -1.510125e-002
    outer loop
      vertex -6.139075e+001  3.450814e+003  9.271111e-001
      vertex -6.168793e+001  3.466303e+003 -1.875075e+001
      vertex -6.168736e+001  3.466636e+003 -1.871315e+001
    endloop
  endfacet
  facet normal  9.998859e-001  0.000000e+000 -1.510012e-002
    outer loop
      vertex -6.139075e+001  3.450814e+003  9.271111e-001
      vertex -6.168736e+001  3.466636e+003 -1.871315e+001
      vertex -6.139075e+001  3.623814e+003  9.271111e-001
    endloop
  endfacet
  facet normal  9.998860e-001  0.000000e+000 -1.510012e-002
    outer loop
      vertex -6.202926e+001  3.450814e+003 -4.135307e+001
      vertex -6.202926e+001  3.623814e+003 -4.135307e+001
      vertex -6.173266e+001  3.466636e+003 -2.171281e+001
    endloop
  endfacet
  facet normal  9.998860e-001  1.399676e-006 -1.510125e-002
    outer loop
      vertex -6.202926e+001  3.450814e+003 -4.135307e+001
      vertex -6.173266e+001  3.466636e+003 -2.171281e+001
      vertex -6.173209e+001  3.466303e+003 -2.167520e+001
    endloop
  endfacet
  facet normal  9.998859e-001 -1.317338e-006 -1.509911e-002
    outer loop
      vertex -6.202926e+001  3.450814e+003 -4.135307e+001
      vertex -6.173209e+001  3.466303e+003 -2.167520e+001
      vertex -6.173042e+001  3.465986e+003 -2.156428e+001
    endloop
  endfacet
  facet normal  9.998860e-001 -3.556273e-006 -1.509739e-002
    outer loop
      vertex -6.202926e+001  3.450814e+003 -4.135307e+001
      vertex -6.173042e+001  3.465986e+003 -2.156428e+001
      vertex -6.172772e+001  3.465701e+003 -2.138559e+001
    endloop
  endfacet
  facet normal  9.998860e-001  7.653727e-006 -1.510575e-002
    outer loop
      vertex -6.202926e+001  3.450814e+003 -4.135307e+001
      vertex -6.172772e+001  3.465701e+003 -2.138559e+001
      vertex -6.172413e+001  3.465464e+003 -2.114811e+001
    endloop
  endfacet
  facet normal  9.998860e-001 -8.033354e-006 -1.509438e-002
    outer loop
      vertex -6.202926e+001  3.450814e+003 -4.135307e+001
      vertex -6.172413e+001  3.465464e+003 -2.114811e+001
      vertex -6.171984e+001  3.465285e+003 -2.086373e+001
    endloop
  endfacet
  facet normal  9.998860e-001  2.282544e-007 -1.510021e-002
    outer loop
      vertex -6.202926e+001  3.450814e+003 -4.135307e+001
      vertex -6.171984e+001  3.465285e+003 -2.086373e+001
      vertex -6.171505e+001  3.465174e+003 -2.054672e+001
    endloop
  endfacet
  facet normal  9.998859e-001  1.082850e-005 -1.510753e-002
    outer loop
      vertex -6.202926e+001  3.450814e+003 -4.135307e+001
      vertex -6.171505e+001  3.465174e+003 -2.054672e+001
      vertex -6.171001e+001  3.465136e+003 -2.021298e+001
    endloop
  endfacet
  facet normal  9.998861e-001 -5.085034e-006 -1.509675e-002
    outer loop
      vertex -6.202926e+001  3.450814e+003 -4.135307e+001
      vertex -6.171001e+001  3.465136e+003 -2.021298e+001
      vertex -6.170497e+001  3.465174e+003 -1.987923e+001
    endloop
  endfacet
  facet normal  9.998860e-001  4.536002e-007 -1.510045e-002
    outer loop
      vertex -6.202926e+001  3.450814e+003 -4.135307e+001
      vertex -6.170497e+001  3.465174e+003 -1.987923e+001
      vertex -6.170018e+001  3.465285e+003 -1.956223e+001
    endloop
  endfacet
  facet normal  9.998860e-001 -5.845312e-009 -1.510010e-002
    outer loop
      vertex -6.202926e+001  3.623814e+003 -4.135307e+001
      vertex -6.139075e+001  3.623814e+003  9.271111e-001
      vertex -6.168793e+001  3.466970e+003 -1.875075e+001
    endloop
  endfacet
  facet normal  9.998861e-001  1.156498e-006 -1.509204e-002
    outer loop
      vertex -6.202926e+001  3.623814e+003 -4.135307e+001
      vertex -6.168793e+001  3.466970e+003 -1.875075e+001
      vertex -6.168960e+001  3.467287e+003 -1.886168e+001
    endloop
  endfacet
  facet normal  9.998862e-001  1.556186e-006 -1.508926e-002
    outer loop
      vertex -6.202926e+001  3.623814e+003 -4.135307e+001
      vertex -6.168960e+001  3.467287e+003 -1.886168e+001
      vertex -6.169230e+001  3.467572e+003 -1.904037e+001
    endloop
  endfacet
  facet normal  9.998860e-001  4.675821e-007 -1.509688e-002
    outer loop
      vertex -6.202926e+001  3.623814e+003 -4.135307e+001
      vertex -6.169230e+001  3.467572e+003 -1.904037e+001
      vertex -6.169588e+001  3.467809e+003 -1.927785e+001
    endloop
  endfacet
  facet normal  9.998859e-001 -3.974142e-007 -1.510299e-002
    outer loop
      vertex -6.202926e+001  3.623814e+003 -4.135307e+001
      vertex -6.169588e+001  3.467809e+003 -1.927785e+001
      vertex -6.170018e+001  3.467988e+003 -1.956223e+001
    endloop
  endfacet
  facet normal  9.998859e-001 -2.097161e-008 -1.510030e-002
    outer loop
      vertex -6.202926e+001  3.623814e+003 -4.135307e+001
      vertex -6.170018e+001  3.467988e+003 -1.956223e+001
      vertex -6.170497e+001  3.468099e+003 -1.987923e+001
    endloop
  endfacet
  facet normal  9.998860e-001  3.961075e-007 -1.509728e-002
    outer loop
      vertex -6.202926e+001  3.623814e+003 -4.135307e+001
      vertex -6.170497e+001  3.468099e+003 -1.987923e+001
      vertex -6.171001e+001  3.468136e+003 -2.021298e+001
    endloop
  endfacet
  facet normal  9.998859e-001 -1.144399e-006 -1.510862e-002
    outer loop
      vertex -6.202926e+001  3.623814e+003 -4.135307e+001
      vertex -6.171001e+001  3.468136e+003 -2.021298e+001
      vertex -6.171505e+001  3.468099e+003 -2.054672e+001
    endloop
  endfacet
  facet normal  9.998859e-001 -3.029839e-008 -1.510028e-002
    outer loop
      vertex -6.202926e+001  3.623814e+003 -4.135307e+001
      vertex -6.171505e+001  3.468099e+003 -2.054672e+001
      vertex -6.171984e+001  3.467988e+003 -2.086373e+001
    endloop
  endfacet
  facet normal  9.998862e-001  1.302244e-006 -1.509015e-002
    outer loop
      vertex -6.202926e+001  3.623814e+003 -4.135307e+001
      vertex -6.171984e+001  3.467988e+003 -2.086373e+001
      vertex -6.172413e+001  3.467809e+003 -2.114811e+001
    endloop
  endfacet
  facet normal  9.998858e-001 -1.514122e-006 -1.511189e-002
    outer loop
      vertex -6.202926e+001  3.623814e+003 -4.135307e+001
      vertex -6.172413e+001  3.467809e+003 -2.114811e+001
      vertex -6.172772e+001  3.467572e+003 -2.138559e+001
    endloop
  endfacet
  facet normal  9.998861e-001  8.827211e-007 -1.509314e-002
    outer loop
      vertex -6.202926e+001  3.623814e+003 -4.135307e+001
      vertex -6.172772e+001  3.467572e+003 -2.138559e+001
      vertex -6.173042e+001  3.467287e+003 -2.156428e+001
    endloop
  endfacet
  facet normal  9.998860e-001  4.435272e-007 -1.509661e-002
    outer loop
      vertex -6.202926e+001  3.623814e+003 -4.135307e+001
      vertex -6.173042e+001  3.467287e+003 -2.156428e+001
      vertex -6.173209e+001  3.466970e+003 -2.167520e+001
    endloop
  endfacet
  facet normal  9.998859e-001 -8.028235e-007 -1.510654e-002
    outer loop
      vertex -6.202926e+001  3.623814e+003 -4.135307e+001
      vertex -6.173209e+001  3.466970e+003 -2.167520e+001
      vertex -6.173266e+001  3.466636e+003 -2.171281e+001
    endloop
  endfacet
  facet normal -7.068350e-001 -7.061182e-001 -4.220722e-002
    outer loop
      vertex -6.171001e+001  3.468136e+003 -2.021298e+001
      vertex -6.370190e+001  3.470097e+003 -1.966119e+001
      vertex -6.370978e+001  3.470136e+003 -2.018278e+001
    endloop
  endfacet
  facet normal -7.094538e-001 -7.014340e-001 -6.830738e-002
    outer loop
      vertex -6.171001e+001  3.468136e+003 -2.021298e+001
      vertex -6.170497e+001  3.468099e+003 -1.987923e+001
      vertex -6.370190e+001  3.470097e+003 -1.966119e+001
    endloop
  endfacet
  facet normal -7.094538e-001  7.014340e-001 -6.830738e-002
    outer loop
      vertex -6.171001e+001  3.465136e+003 -2.021298e+001
      vertex -6.370190e+001  3.463176e+003 -1.966119e+001
      vertex -6.170497e+001  3.465174e+003 -1.987923e+001
    endloop
  endfacet
  facet normal -7.068350e-001  7.061182e-001 -4.220722e-002
    outer loop
      vertex -6.171001e+001  3.465136e+003 -2.021298e+001
      vertex -6.370978e+001  3.463136e+003 -2.018278e+001
      vertex -6.370190e+001  3.463176e+003 -1.966119e+001
    endloop
  endfacet
  facet normal -7.076712e-001 -6.910533e-001 -1.471284e-001
    outer loop
      vertex -6.170497e+001  3.468099e+003 -1.987923e+001
      vertex -6.369420e+001  3.469981e+003 -1.915125e+001
      vertex -6.370190e+001  3.470097e+003 -1.966119e+001
    endloop
  endfacet
  facet normal -7.099155e-001 -6.591520e-001 -2.480694e-001
    outer loop
      vertex -6.170018e+001  3.467988e+003 -1.956223e+001
      vertex -6.368685e+001  3.469790e+003 -1.866436e+001
      vertex -6.369420e+001  3.469981e+003 -1.915125e+001
    endloop
  endfacet
  facet normal -7.117676e-001 -6.663335e-001 -2.222309e-001
    outer loop
      vertex -6.170018e+001  3.467988e+003 -1.956223e+001
      vertex -6.369420e+001  3.469981e+003 -1.915125e+001
      vertex -6.170497e+001  3.468099e+003 -1.987923e+001
    endloop
  endfacet
  facet normal -7.119495e-001 -5.541921e-001 -4.312760e-001
    outer loop
      vertex -6.169588e+001  3.467809e+003 -1.927785e+001
      vertex -6.367383e+001  3.469202e+003 -1.780244e+001
      vertex -6.368001e+001  3.469528e+003 -1.821138e+001
    endloop
  endfacet
  facet normal -7.139144e-001 -5.976878e-001 -3.648226e-001
    outer loop
      vertex -6.169588e+001  3.467809e+003 -1.927785e+001
      vertex -6.368001e+001  3.469528e+003 -1.821138e+001
      vertex -6.170018e+001  3.467988e+003 -1.956223e+001
    endloop
  endfacet
  facet normal -7.138585e-001 -4.815840e-001 -5.084121e-001
    outer loop
      vertex -6.169230e+001  3.467572e+003 -1.904037e+001
      vertex -6.366846e+001  3.468819e+003 -1.744668e+001
      vertex -6.367383e+001  3.469202e+003 -1.780244e+001
    endloop
  endfacet
  facet normal -7.157817e-001 -4.990985e-001 -4.884232e-001
    outer loop
      vertex -6.169230e+001  3.467572e+003 -1.904037e+001
      vertex -6.367383e+001  3.469202e+003 -1.780244e+001
      vertex -6.169588e+001  3.467809e+003 -1.927785e+001
    endloop
  endfacet
  facet normal -7.149336e-001 -3.076130e-001 -6.278886e-001
    outer loop
      vertex -6.168960e+001  3.467287e+003 -1.886168e+001
      vertex -6.366058e+001  3.467915e+003 -1.692509e+001
      vertex -6.366401e+001  3.468386e+003 -1.715203e+001
    endloop
  endfacet
  facet normal -7.172779e-001 -3.755338e-001 -5.869300e-001
    outer loop
      vertex -6.168960e+001  3.467287e+003 -1.886168e+001
      vertex -6.366401e+001  3.468386e+003 -1.715203e+001
      vertex -6.169230e+001  3.467572e+003 -1.904037e+001
    endloop
  endfacet
  facet normal -7.162564e-001 -2.086616e-001 -6.659107e-001
    outer loop
      vertex -6.168793e+001  3.466970e+003 -1.875075e+001
      vertex -6.365826e+001  3.467415e+003 -1.677092e+001
      vertex -6.366058e+001  3.467915e+003 -1.692509e+001
    endloop
  endfacet
  facet normal -7.183227e-001 -2.330703e-001 -6.555080e-001
    outer loop
      vertex -6.168793e+001  3.466970e+003 -1.875075e+001
      vertex -6.366058e+001  3.467915e+003 -1.692509e+001
      vertex -6.168960e+001  3.467287e+003 -1.886168e+001
    endloop
  endfacet
  facet normal -7.159936e-001  0.000000e+000 -6.981067e-001
    outer loop
      vertex -6.168736e+001  3.466636e+003 -1.871315e+001
      vertex -6.365708e+001  3.466375e+003 -1.669296e+001
      vertex -6.365708e+001  3.466898e+003 -1.669296e+001
    endloop
  endfacet
  facet normal -7.188480e-001 -7.904261e-002 -6.906591e-001
    outer loop
      vertex -6.168736e+001  3.466636e+003 -1.871315e+001
      vertex -6.365708e+001  3.466898e+003 -1.669296e+001
      vertex -6.168793e+001  3.466970e+003 -1.875075e+001
    endloop
  endfacet
  facet normal -7.166088e-001  1.055256e-001 -6.894464e-001
    outer loop
      vertex -6.168793e+001  3.466303e+003 -1.875075e+001
      vertex -6.365826e+001  3.465858e+003 -1.677092e+001
      vertex -6.365708e+001  3.466375e+003 -1.669296e+001
    endloop
  endfacet
  facet normal -7.188480e-001  7.904261e-002 -6.906591e-001
    outer loop
      vertex -6.168793e+001  3.466303e+003 -1.875075e+001
      vertex -6.365708e+001  3.466375e+003 -1.669296e+001
      vertex -6.168736e+001  3.466636e+003 -1.871315e+001
    endloop
  endfacet
  facet normal -7.149336e-001  3.076130e-001 -6.278886e-001
    outer loop
      vertex -6.168960e+001  3.465986e+003 -1.886168e+001
      vertex -6.366401e+001  3.464886e+003 -1.715203e+001
      vertex -6.366058e+001  3.465358e+003 -1.692509e+001
    endloop
  endfacet
  facet normal -7.183227e-001  2.330703e-001 -6.555080e-001
    outer loop
      vertex -6.168960e+001  3.465986e+003 -1.886168e+001
      vertex -6.366058e+001  3.465358e+003 -1.692509e+001
      vertex -6.168793e+001  3.466303e+003 -1.875075e+001
    endloop
  endfacet
  facet normal -7.148566e-001  3.989484e-001 -5.742999e-001
    outer loop
      vertex -6.169230e+001  3.465701e+003 -1.904037e+001
      vertex -6.366846e+001  3.464454e+003 -1.744668e+001
      vertex -6.366401e+001  3.464886e+003 -1.715203e+001
    endloop
  endfacet
  facet normal -7.172779e-001  3.755338e-001 -5.869300e-001
    outer loop
      vertex -6.169230e+001  3.465701e+003 -1.904037e+001
      vertex -6.366401e+001  3.464886e+003 -1.715203e+001
      vertex -6.168960e+001  3.465986e+003 -1.886168e+001
    endloop
  endfacet
  facet normal -7.119495e-001  5.541921e-001 -4.312760e-001
    outer loop
      vertex -6.169588e+001  3.465464e+003 -1.927785e+001
      vertex -6.368001e+001  3.463745e+003 -1.821138e+001
      vertex -6.367383e+001  3.464071e+003 -1.780244e+001
    endloop
  endfacet
  facet normal -7.157817e-001  4.990985e-001 -4.884232e-001
    outer loop
      vertex -6.169588e+001  3.465464e+003 -1.927785e+001
      vertex -6.367383e+001  3.464071e+003 -1.780244e+001
      vertex -6.169230e+001  3.465701e+003 -1.904037e+001
    endloop
  endfacet
  facet normal -7.113568e-001  6.132967e-001 -3.432764e-001
    outer loop
      vertex -6.170018e+001  3.465285e+003 -1.956223e+001
      vertex -6.368685e+001  3.463483e+003 -1.866436e+001
      vertex -6.368001e+001  3.463745e+003 -1.821138e+001
    endloop
  endfacet
  facet normal -7.139144e-001  5.976878e-001 -3.648226e-001
    outer loop
      vertex -6.170018e+001  3.465285e+003 -1.956223e+001
      vertex -6.368001e+001  3.463745e+003 -1.821138e+001
      vertex -6.169588e+001  3.465464e+003 -1.927785e+001
    endloop
  endfacet
  facet normal -7.076712e-001  6.910533e-001 -1.471284e-001
    outer loop
      vertex -6.170497e+001  3.465174e+003 -1.987923e+001
      vertex -6.370190e+001  3.463176e+003 -1.966119e+001
      vertex -6.369420e+001  3.463292e+003 -1.915125e+001
    endloop
  endfacet
  facet normal -7.117676e-001  6.663335e-001 -2.222309e-001
    outer loop
      vertex -6.170497e+001  3.465174e+003 -1.987923e+001
      vertex -6.369420e+001  3.463292e+003 -1.915125e+001
      vertex -6.170018e+001  3.465285e+003 -1.956223e+001
    endloop
  endfacet
  facet normal -7.113568e-001 -6.132967e-001 -3.432764e-001
    outer loop
      vertex -6.170018e+001  3.467988e+003 -1.956223e+001
      vertex -6.368001e+001  3.469528e+003 -1.821138e+001
      vertex -6.368685e+001  3.469790e+003 -1.866436e+001
    endloop
  endfacet
  facet normal -7.148566e-001 -3.989484e-001 -5.742999e-001
    outer loop
      vertex -6.169230e+001  3.467572e+003 -1.904037e+001
      vertex -6.366401e+001  3.468386e+003 -1.715203e+001
      vertex -6.366846e+001  3.468819e+003 -1.744668e+001
    endloop
  endfacet
  facet normal -7.166088e-001 -1.055256e-001 -6.894464e-001
    outer loop
      vertex -6.168793e+001  3.466970e+003 -1.875075e+001
      vertex -6.365708e+001  3.466898e+003 -1.669296e+001
      vertex -6.365826e+001  3.467415e+003 -1.677092e+001
    endloop
  endfacet
  facet normal -7.162564e-001  2.086616e-001 -6.659107e-001
    outer loop
      vertex -6.168793e+001  3.466303e+003 -1.875075e+001
      vertex -6.366058e+001  3.465358e+003 -1.692509e+001
      vertex -6.365826e+001  3.465858e+003 -1.677092e+001
    endloop
  endfacet
  facet normal -7.138585e-001  4.815840e-001 -5.084121e-001
    outer loop
      vertex -6.169230e+001  3.465701e+003 -1.904037e+001
      vertex -6.367383e+001  3.464071e+003 -1.780244e+001
      vertex -6.366846e+001  3.464454e+003 -1.744668e+001
    endloop
  endfacet
  facet normal -7.099155e-001  6.591520e-001 -2.480694e-001
    outer loop
      vertex -6.170018e+001  3.465285e+003 -1.956223e+001
      vertex -6.369420e+001  3.463292e+003 -1.915125e+001
      vertex -6.368685e+001  3.463483e+003 -1.866436e+001
    endloop
  endfacet
  facet normal -7.052384e-001  7.061183e-001  6.352789e-002
    outer loop
      vertex -6.171001e+001  3.465136e+003 -2.021298e+001
      vertex -6.371766e+001  3.463176e+003 -2.070437e+001
      vertex -6.370978e+001  3.463136e+003 -2.018278e+001
    endloop
  endfacet
  facet normal -7.070683e-001  7.014326e-001  8.970343e-002
    outer loop
      vertex -6.171001e+001  3.465136e+003 -2.021298e+001
      vertex -6.171505e+001  3.465174e+003 -2.054672e+001
      vertex -6.371766e+001  3.463176e+003 -2.070437e+001
    endloop
  endfacet
  facet normal -7.070683e-001 -7.014326e-001  8.970343e-002
    outer loop
      vertex -6.171001e+001  3.468136e+003 -2.021298e+001
      vertex -6.371766e+001  3.470097e+003 -2.070437e+001
      vertex -6.171505e+001  3.468099e+003 -2.054672e+001
    endloop
  endfacet
  facet normal -7.052384e-001 -7.061183e-001  6.352789e-002
    outer loop
      vertex -6.171001e+001  3.468136e+003 -2.021298e+001
      vertex -6.370978e+001  3.470136e+003 -2.018278e+001
      vertex -6.371766e+001  3.470097e+003 -2.070437e+001
    endloop
  endfacet
  facet normal -7.029064e-001  6.910520e-001  1.684329e-001
    outer loop
      vertex -6.171505e+001  3.465174e+003 -2.054672e+001
      vertex -6.372536e+001  3.463292e+003 -2.121430e+001
      vertex -6.371766e+001  3.463176e+003 -2.070437e+001
    endloop
  endfacet
  facet normal -7.021010e-001  6.591502e-001  2.693977e-001
    outer loop
      vertex -6.171984e+001  3.465285e+003 -2.086373e+001
      vertex -6.373271e+001  3.463483e+003 -2.170120e+001
      vertex -6.372536e+001  3.463292e+003 -2.121430e+001
    endloop
  endfacet
  facet normal -7.047330e-001  6.663329e-001  2.436227e-001
    outer loop
      vertex -6.171984e+001  3.465285e+003 -2.086373e+001
      vertex -6.372536e+001  3.463292e+003 -2.121430e+001
      vertex -6.171505e+001  3.465174e+003 -2.054672e+001
    endloop
  endfacet
  facet normal -6.986015e-001  5.541929e-001  4.525774e-001
    outer loop
      vertex -6.172413e+001  3.465464e+003 -2.114811e+001
      vertex -6.374573e+001  3.464071e+003 -2.256311e+001
      vertex -6.373955e+001  3.463745e+003 -2.215417e+001
    endloop
  endfacet
  facet normal -7.025722e-001  5.976906e-001  3.862102e-001
    outer loop
      vertex -6.172413e+001  3.465464e+003 -2.114811e+001
      vertex -6.373955e+001  3.463745e+003 -2.215417e+001
      vertex -6.171984e+001  3.465285e+003 -2.086373e+001
    endloop
  endfacet
  facet normal -6.981815e-001  4.815867e-001  5.297329e-001
    outer loop
      vertex -6.172772e+001  3.465701e+003 -2.138559e+001
      vertex -6.375110e+001  3.464454e+003 -2.291888e+001
      vertex -6.374573e+001  3.464071e+003 -2.256311e+001
    endloop
  endfacet
  facet normal -7.007064e-001  4.990949e-001  5.098185e-001
    outer loop
      vertex -6.172772e+001  3.465701e+003 -2.138559e+001
      vertex -6.374573e+001  3.464071e+003 -2.256311e+001
      vertex -6.172413e+001  3.465464e+003 -2.114811e+001
    endloop
  endfacet
  facet normal -6.956472e-001  3.076150e-001  6.491902e-001
    outer loop
      vertex -6.173042e+001  3.465986e+003 -2.156428e+001
      vertex -6.375898e+001  3.465358e+003 -2.344046e+001
      vertex -6.375555e+001  3.464886e+003 -2.321352e+001
    endloop
  endfacet
  facet normal -6.992272e-001  3.755393e-001  6.083187e-001
    outer loop
      vertex -6.173042e+001  3.465986e+003 -2.156428e+001
      vertex -6.375555e+001  3.464886e+003 -2.321352e+001
      vertex -6.172772e+001  3.465701e+003 -2.138559e+001
    endloop
  endfacet
  facet normal -6.958213e-001  2.086626e-001  6.872356e-001
    outer loop
      vertex -6.173209e+001  3.466303e+003 -2.167520e+001
      vertex -6.376131e+001  3.465858e+003 -2.359464e+001
      vertex -6.375898e+001  3.465358e+003 -2.344046e+001
    endloop
  endfacet
  facet normal -6.982008e-001  2.330725e-001  6.768995e-001
    outer loop
      vertex -6.173209e+001  3.466303e+003 -2.167520e+001
      vertex -6.375898e+001  3.465358e+003 -2.344046e+001
      vertex -6.173042e+001  3.465986e+003 -2.156428e+001
    endloop
  endfacet
  facet normal -6.945869e-001  0.000000e+000  7.194089e-001
    outer loop
      vertex -6.173266e+001  3.466636e+003 -2.171281e+001
      vertex -6.376248e+001  3.466898e+003 -2.367259e+001
      vertex -6.376248e+001  3.466375e+003 -2.367259e+001
    endloop
  endfacet
  facet normal -6.976646e-001  7.904046e-002  7.120512e-001
    outer loop
      vertex -6.173266e+001  3.466636e+003 -2.171281e+001
      vertex -6.376248e+001  3.466375e+003 -2.367259e+001
      vertex -6.173209e+001  3.466303e+003 -2.167520e+001
    endloop
  endfacet
  facet normal -6.954627e-001 -1.055268e-001  7.107712e-001
    outer loop
      vertex -6.173209e+001  3.466970e+003 -2.167520e+001
      vertex -6.376131e+001  3.467415e+003 -2.359464e+001
      vertex -6.376248e+001  3.466898e+003 -2.367259e+001
    endloop
  endfacet
  facet normal -6.976646e-001 -7.904046e-002  7.120512e-001
    outer loop
      vertex -6.173209e+001  3.466970e+003 -2.167520e+001
      vertex -6.376248e+001  3.466898e+003 -2.367259e+001
      vertex -6.173266e+001  3.466636e+003 -2.171281e+001
    endloop
  endfacet
  facet normal -6.956472e-001 -3.076150e-001  6.491902e-001
    outer loop
      vertex -6.173042e+001  3.467287e+003 -2.156428e+001
      vertex -6.375555e+001  3.468386e+003 -2.321352e+001
      vertex -6.375898e+001  3.467915e+003 -2.344046e+001
    endloop
  endfacet
  facet normal -6.982008e-001 -2.330725e-001  6.768995e-001
    outer loop
      vertex -6.173042e+001  3.467287e+003 -2.156428e+001
      vertex -6.375898e+001  3.467915e+003 -2.344046e+001
      vertex -6.173209e+001  3.466970e+003 -2.167520e+001
    endloop
  endfacet
  facet normal -6.971892e-001 -3.989433e-001  5.956269e-001
    outer loop
      vertex -6.172772e+001  3.467572e+003 -2.138559e+001
      vertex -6.375110e+001  3.468819e+003 -2.291888e+001
      vertex -6.375555e+001  3.468386e+003 -2.321352e+001
    endloop
  endfacet
  facet normal -6.992272e-001 -3.755393e-001  6.083187e-001
    outer loop
      vertex -6.172772e+001  3.467572e+003 -2.138559e+001
      vertex -6.375555e+001  3.468386e+003 -2.321352e+001
      vertex -6.173042e+001  3.467287e+003 -2.156428e+001
    endloop
  endfacet
  facet normal -6.986015e-001 -5.541929e-001  4.525774e-001
    outer loop
      vertex -6.172413e+001  3.467809e+003 -2.114811e+001
      vertex -6.373955e+001  3.469528e+003 -2.215417e+001
      vertex -6.374573e+001  3.469202e+003 -2.256311e+001
    endloop
  endfacet
  facet normal -7.007064e-001 -4.990949e-001  5.098185e-001
    outer loop
      vertex -6.172413e+001  3.467809e+003 -2.114811e+001
      vertex -6.374573e+001  3.469202e+003 -2.256311e+001
      vertex -6.172772e+001  3.467572e+003 -2.138559e+001
    endloop
  endfacet
  facet normal -7.006666e-001 -6.132974e-001  3.645992e-001
    outer loop
      vertex -6.171984e+001  3.467988e+003 -2.086373e+001
      vertex -6.373271e+001  3.469790e+003 -2.170120e+001
      vertex -6.373955e+001  3.469528e+003 -2.215417e+001
    endloop
  endfacet
  facet normal -7.025722e-001 -5.976906e-001  3.862102e-001
    outer loop
      vertex -6.171984e+001  3.467988e+003 -2.086373e+001
      vertex -6.373955e+001  3.469528e+003 -2.215417e+001
      vertex -6.172413e+001  3.467809e+003 -2.114811e+001
    endloop
  endfacet
  facet normal -7.029064e-001 -6.910520e-001  1.684329e-001
    outer loop
      vertex -6.171505e+001  3.468099e+003 -2.054672e+001
      vertex -6.371766e+001  3.470097e+003 -2.070437e+001
      vertex -6.372536e+001  3.469981e+003 -2.121430e+001
    endloop
  endfacet
  facet normal -7.047330e-001 -6.663329e-001  2.436227e-001
    outer loop
      vertex -6.171505e+001  3.468099e+003 -2.054672e+001
      vertex -6.372536e+001  3.469981e+003 -2.121430e+001
      vertex -6.171984e+001  3.467988e+003 -2.086373e+001
    endloop
  endfacet
  facet normal -7.006666e-001  6.132974e-001  3.645992e-001
    outer loop
      vertex -6.171984e+001  3.465285e+003 -2.086373e+001
      vertex -6.373955e+001  3.463745e+003 -2.215417e+001
      vertex -6.373271e+001  3.463483e+003 -2.170120e+001
    endloop
  endfacet
  facet normal -6.971892e-001  3.989433e-001  5.956269e-001
    outer loop
      vertex -6.172772e+001  3.465701e+003 -2.138559e+001
      vertex -6.375555e+001  3.464886e+003 -2.321352e+001
      vertex -6.375110e+001  3.464454e+003 -2.291888e+001
    endloop
  endfacet
  facet normal -6.954627e-001  1.055268e-001  7.107712e-001
    outer loop
      vertex -6.173209e+001  3.466303e+003 -2.167520e+001
      vertex -6.376248e+001  3.466375e+003 -2.367259e+001
      vertex -6.376131e+001  3.465858e+003 -2.359464e+001
    endloop
  endfacet
  facet normal -6.958213e-001 -2.086626e-001  6.872356e-001
    outer loop
      vertex -6.173209e+001  3.466970e+003 -2.167520e+001
      vertex -6.375898e+001  3.467915e+003 -2.344046e+001
      vertex -6.376131e+001  3.467415e+003 -2.359464e+001
    endloop
  endfacet
  facet normal -6.981815e-001 -4.815867e-001  5.297329e-001
    outer loop
      vertex -6.172772e+001  3.467572e+003 -2.138559e+001
      vertex -6.374573e+001  3.469202e+003 -2.256311e+001
      vertex -6.375110e+001  3.468819e+003 -2.291888e+001
    endloop
  endfacet
  facet normal -7.021010e-001 -6.591502e-001  2.693977e-001
    outer loop
      vertex -6.171984e+001  3.467988e+003 -2.086373e+001
      vertex -6.372536e+001  3.469981e+003 -2.121430e+001
      vertex -6.373271e+001  3.469790e+003 -2.170120e+001
    endloop
  endfacet
  facet normal  0.000000e+000 -1.000000e+000  0.000000e+000
    outer loop
      vertex -6.399883e+001  3.450814e+003 -3.932310e+001
      vertex -6.202926e+001  3.450814e+003 -4.135307e+001
      vertex -6.342073e+001  3.450814e+003 -1.042461e+000
    endloop
  endfacet
  facet normal  0.000000e+000 -1.000000e+000  0.000000e+000
    outer loop
      vertex -6.342073e+001  3.450814e+003 -1.042461e+000
      vertex -6.202926e+001  3.450814e+003 -4.135307e+001
      vertex -6.139075e+001  3.450814e+003  9.271111e-001
    endloop
  endfacet
  facet normal  -0.000000e+000  1.000000e+000  0.000000e+000
    outer loop
      vertex -6.202926e+001  3.623814e+003 -4.135307e+001
      vertex -6.399883e+001  3.623814e+003 -3.932310e+001
      vertex -6.395921e+001  3.623814e+003 -3.669945e+001
    endloop
  endfacet
  facet normal  -0.000000e+000  1.000000e+000  0.000000e+000
    outer loop
      vertex -6.202926e+001  3.623814e+003 -4.135307e+001
      vertex -6.395921e+001  3.623814e+003 -3.669945e+001
      vertex -6.382001e+001  3.623814e+003 -2.748200e+001
    endloop
  endfacet
  facet normal  -0.000000e+000  1.000000e+000  0.000000e+000
    outer loop
      vertex -6.202926e+001  3.623814e+003 -4.135307e+001
      vertex -6.382001e+001  3.623814e+003 -2.748200e+001
      vertex -6.359955e+001  3.623814e+003 -1.288367e+001
    endloop
  endfacet
  facet normal  -0.000000e+000  1.000000e+000  0.000000e+000
    outer loop
      vertex -6.202926e+001  3.623814e+003 -4.135307e+001
      vertex -6.359955e+001  3.623814e+003 -1.288367e+001
      vertex -6.346035e+001  3.623814e+003 -3.666216e+000
    endloop
  endfacet
  facet normal  -0.000000e+000  1.000000e+000  0.000000e+000
    outer loop
      vertex -6.202926e+001  3.623814e+003 -4.135307e+001
      vertex -6.346035e+001  3.623814e+003 -3.666216e+000
      vertex -6.342073e+001  3.623814e+003 -1.042461e+000
    endloop
  endfacet
  facet normal  -0.000000e+000  1.000000e+000  0.000000e+000
    outer loop
      vertex -6.202926e+001  3.623814e+003 -4.135307e+001
      vertex -6.342073e+001  3.623814e+003 -1.042461e+000
      vertex -6.139075e+001  3.623814e+003  9.271111e-001
    endloop
  endfacet
  facet normal  0.000000e+000  1.000000e+000  -0.000000e+000
    outer loop
      vertex -6.509938e+001  3.623814e+003 -1.286101e+001
      vertex -6.531984e+001  3.623814e+003 -2.745935e+001
      vertex -6.625137e+001  3.623814e+003 -2.761827e+001
    endloop
  endfacet
  facet normal  0.000000e+000  1.000000e+000  -0.000000e+000
    outer loop
      vertex -6.509938e+001  3.623814e+003 -1.286101e+001
      vertex -6.625137e+001  3.623814e+003 -2.761827e+001
      vertex -6.648746e+001  3.623814e+003 -2.575693e+001
    endloop
  endfacet
  facet normal  0.000000e+000  1.000000e+000  -0.000000e+000
    outer loop
      vertex -6.509938e+001  3.623814e+003 -1.286101e+001
      vertex -6.648746e+001  3.623814e+003 -2.575693e+001
      vertex -6.664824e+001  3.623814e+003 -2.388757e+001
    endloop
  endfacet
  facet normal  0.000000e+000  1.000000e+000  -0.000000e+000
    outer loop
      vertex -6.509938e+001  3.623814e+003 -1.286101e+001
      vertex -6.664824e+001  3.623814e+003 -2.388757e+001
      vertex -6.673347e+001  3.623814e+003 -2.201326e+001
    endloop
  endfacet
  facet normal  0.000000e+000  1.000000e+000  -0.000000e+000
    outer loop
      vertex -6.509938e+001  3.623814e+003 -1.286101e+001
      vertex -6.673347e+001  3.623814e+003 -2.201326e+001
      vertex -6.674300e+001  3.623814e+003 -2.013703e+001
    endloop
  endfacet
  facet normal  0.000000e+000  1.000000e+000  0.000000e+000
    outer loop
      vertex -6.509938e+001  3.623814e+003 -1.286101e+001
      vertex -6.674300e+001  3.623814e+003 -2.013703e+001
      vertex -6.667682e+001  3.623814e+003 -1.826194e+001
    endloop
  endfacet
  facet normal  0.000000e+000  1.000000e+000  0.000000e+000
    outer loop
      vertex -6.509938e+001  3.623814e+003 -1.286101e+001
      vertex -6.667682e+001  3.623814e+003 -1.826194e+001
      vertex -6.653503e+001  3.623814e+003 -1.639105e+001
    endloop
  endfacet
  facet normal  0.000000e+000  9.999999e-001  0.000000e+000
    outer loop
      vertex -6.509938e+001  3.623814e+003 -1.286101e+001
      vertex -6.653503e+001  3.623814e+003 -1.639105e+001
      vertex -6.631787e+001  3.623814e+003 -1.452741e+001
    endloop
  endfacet
  facet normal  0.000000e+000  1.000000e+000  0.000000e+000
    outer loop
      vertex -6.509938e+001  3.623814e+003 -1.286101e+001
      vertex -6.631787e+001  3.623814e+003 -1.452741e+001
      vertex -6.602569e+001  3.623814e+003 -1.267404e+001
    endloop
  endfacet
  facet normal  -0.000000e+000  1.000000e+000  0.000000e+000
    outer loop
      vertex -6.395921e+001  3.623814e+003 -3.669945e+001
      vertex -6.456358e+001  3.623814e+003 -3.492320e+001
      vertex -6.382001e+001  3.623814e+003 -2.748200e+001
    endloop
  endfacet
  facet normal  0.000000e+000  1.000000e+000  0.000000e+000
    outer loop
      vertex -6.382001e+001  3.623814e+003 -2.748200e+001
      vertex -6.456358e+001  3.623814e+003 -3.492320e+001
      vertex -6.509579e+001  3.623814e+003 -3.312401e+001
    endloop
  endfacet
  facet normal  0.000000e+000  9.999999e-001  -0.000000e+000
    outer loop
      vertex -6.382001e+001  3.623814e+003 -2.748200e+001
      vertex -6.509579e+001  3.623814e+003 -3.312401e+001
      vertex -6.531984e+001  3.623814e+003 -2.745935e+001
    endloop
  endfacet
  facet normal  0.000000e+000  1.000000e+000  0.000000e+000
    outer loop
      vertex -6.531984e+001  3.623814e+003 -2.745935e+001
      vertex -6.509579e+001  3.623814e+003 -3.312401e+001
      vertex -6.555498e+001  3.623814e+003 -3.130481e+001
    endloop
  endfacet
  facet normal  0.000000e+000  1.000000e+000  -0.000000e+000
    outer loop
      vertex -6.531984e+001  3.623814e+003 -2.745935e+001
      vertex -6.555498e+001  3.623814e+003 -3.130481e+001
      vertex -6.625137e+001  3.623814e+003 -2.761827e+001
    endloop
  endfacet
  facet normal  0.000000e+000  1.000000e+000  0.000000e+000
    outer loop
      vertex -6.625137e+001  3.623814e+003 -2.761827e+001
      vertex -6.555498e+001  3.623814e+003 -3.130481e+001
      vertex -6.594038e+001  3.623814e+003 -2.946857e+001
    endloop
  endfacet
  facet normal  0.000000e+000  1.000000e+000  0.000000e+000
    outer loop
      vertex -6.602569e+001  3.623814e+003 -1.267404e+001
      vertex -6.565896e+001  3.623814e+003 -1.083398e+001
      vertex -6.509938e+001  3.623814e+003 -1.286101e+001
    endloop
  endfacet
  facet normal  0.000000e+000  1.000000e+000  0.000000e+000
    outer loop
      vertex -6.509938e+001  3.623814e+003 -1.286101e+001
      vertex -6.565896e+001  3.623814e+003 -1.083398e+001
      vertex -6.521828e+001  3.623814e+003 -9.010206e+000
    endloop
  endfacet
  facet normal  0.000000e+000  1.000000e+000  0.000000e+000
    outer loop
      vertex -6.509938e+001  3.623814e+003 -1.286101e+001
      vertex -6.521828e+001  3.623814e+003 -9.010206e+000
      vertex -6.359955e+001  3.623814e+003 -1.288367e+001
    endloop
  endfacet
  facet normal  0.000000e+000  1.000000e+000  0.000000e+000
    outer loop
      vertex -6.359955e+001  3.623814e+003 -1.288367e+001
      vertex -6.521828e+001  3.623814e+003 -9.010206e+000
      vertex -6.470438e+001  3.623814e+003 -7.205703e+000
    endloop
  endfacet
  facet normal  -0.000000e+000  1.000000e+000  0.000000e+000
    outer loop
      vertex -6.359955e+001  3.623814e+003 -1.288367e+001
      vertex -6.470438e+001  3.623814e+003 -7.205703e+000
      vertex -6.346035e+001  3.623814e+003 -3.666216e+000
    endloop
  endfacet
  facet normal  0.000000e+000  1.000000e+000  0.000000e+000
    outer loop
      vertex -6.346035e+001  3.623814e+003 -3.666216e+000
      vertex -6.470438e+001  3.623814e+003 -7.205703e+000
      vertex -6.411809e+001  3.623814e+003 -5.423406e+000
    endloop
  endfacet
  facet normal -7.177039e-001  0.000000e+000 -6.963485e-001
    outer loop
      vertex -6.202926e+001  3.450814e+003 -4.135307e+001
      vertex -6.399883e+001  3.450814e+003 -3.932310e+001
      vertex -6.202926e+001  3.623814e+003 -4.135307e+001
    endloop
  endfacet
  facet normal -7.177039e-001  0.000000e+000 -6.963485e-001
    outer loop
      vertex -6.202926e+001  3.623814e+003 -4.135307e+001
      vertex -6.399883e+001  3.450814e+003 -3.932310e+001
      vertex -6.399883e+001  3.623814e+003 -3.932310e+001
    endloop
  endfacet
  facet normal -6.963488e-001  0.000000e+000  7.177035e-001
    outer loop
      vertex -6.139075e+001  3.623814e+003  9.271111e-001
      vertex -6.342073e+001  3.623814e+003 -1.042461e+000
      vertex -6.139075e+001  3.450814e+003  9.271111e-001
    endloop
  endfacet
  facet normal -6.963488e-001  0.000000e+000  7.177035e-001
    outer loop
      vertex -6.139075e+001  3.450814e+003  9.271111e-001
      vertex -6.342073e+001  3.623814e+003 -1.042461e+000
      vertex -6.342073e+001  3.450814e+003 -1.042461e+000
    endloop
  endfacet
  facet normal  1.510045e-002  0.000000e+000  9.998859e-001
    outer loop
      vertex -6.359955e+001  3.623814e+003 -1.288367e+001
      vertex -6.359955e+001  3.643814e+003 -1.288367e+001
      vertex -6.509938e+001  3.623814e+003 -1.286101e+001
    endloop
  endfacet
  facet normal  1.510045e-002  -0.000000e+000  9.998859e-001
    outer loop
      vertex -6.509938e+001  3.623814e+003 -1.286101e+001
      vertex -6.359955e+001  3.643814e+003 -1.288367e+001
      vertex -6.509938e+001  3.643814e+003 -1.286101e+001
    endloop
  endfacet
  facet normal -9.998860e-001  0.000000e+000  1.509993e-002
    outer loop
      vertex -6.531984e+001  3.623814e+003 -2.745935e+001
      vertex -6.509938e+001  3.623814e+003 -1.286101e+001
      vertex -6.531984e+001  3.643814e+003 -2.745935e+001
    endloop
  endfacet
  facet normal -9.998860e-001  0.000000e+000  1.509993e-002
    outer loop
      vertex -6.531984e+001  3.643814e+003 -2.745935e+001
      vertex -6.509938e+001  3.623814e+003 -1.286101e+001
      vertex -6.509938e+001  3.643814e+003 -1.286101e+001
    endloop
  endfacet
  facet normal -1.509985e-002  -0.000000e+000 -9.998860e-001
    outer loop
      vertex -6.531984e+001  3.623814e+003 -2.745935e+001
      vertex -6.531984e+001  3.643814e+003 -2.745935e+001
      vertex -6.382001e+001  3.623814e+003 -2.748200e+001
    endloop
  endfacet
  facet normal -1.509985e-002  0.000000e+000 -9.998860e-001
    outer loop
      vertex -6.382001e+001  3.623814e+003 -2.748200e+001
      vertex -6.531984e+001  3.643814e+003 -2.745935e+001
      vertex -6.382001e+001  3.643814e+003 -2.748200e+001
    endloop
  endfacet
  facet normal  9.998860e-001  0.000000e+000 -1.510019e-002
    outer loop
      vertex -6.382001e+001  3.623814e+003 -2.748200e+001
      vertex -6.382001e+001  3.643814e+003 -2.748200e+001
      vertex -6.359955e+001  3.623814e+003 -1.288367e+001
    endloop
  endfacet
  facet normal  9.998860e-001  0.000000e+000 -1.510019e-002
    outer loop
      vertex -6.359955e+001  3.623814e+003 -1.288367e+001
      vertex -6.382001e+001  3.643814e+003 -2.748200e+001
      vertex -6.359955e+001  3.643814e+003 -1.288367e+001
    endloop
  endfacet
  facet normal  0.000000e+000  1.000000e+000  -0.000000e+000
    outer loop
      vertex -6.359955e+001  3.643814e+003 -1.288367e+001
      vertex -6.382001e+001  3.643814e+003 -2.748200e+001
      vertex -6.509938e+001  3.643814e+003 -1.286101e+001
    endloop
  endfacet
  facet normal  0.000000e+000  1.000000e+000  0.000000e+000
    outer loop
      vertex -6.509938e+001  3.643814e+003 -1.286101e+001
      vertex -6.382001e+001  3.643814e+003 -2.748200e+001
      vertex -6.531984e+001  3.643814e+003 -2.745935e+001
    endloop
  endfacet
  facet normal -9.467003e-001  0.000000e+000 -3.221155e-001
    outer loop
      vertex -6.395921e+001  3.623814e+003 -3.669945e+001
      vertex -6.395921e+001  3.603814e+003 -3.669945e+001
      vertex -6.456358e+001  3.623814e+003 -3.492320e+001
    endloop
  endfacet
  facet normal -9.467003e-001  -0.000000e+000 -3.221155e-001
    outer loop
      vertex -6.456358e+001  3.623814e+003 -3.492320e+001
      vertex -6.395921e+001  3.603814e+003 -3.669945e+001
      vertex -6.456358e+001  3.603814e+003 -3.492320e+001
    endloop
  endfacet
  facet normal -9.589260e-001  0.000000e+000 -2.836566e-001
    outer loop
      vertex -6.456358e+001  3.623814e+003 -3.492320e+001
      vertex -6.456358e+001  3.603814e+003 -3.492320e+001
      vertex -6.509579e+001  3.623814e+003 -3.312401e+001
    endloop
  endfacet
  facet normal -9.589260e-001  -0.000000e+000 -2.836566e-001
    outer loop
      vertex -6.509579e+001  3.623814e+003 -3.312401e+001
      vertex -6.456358e+001  3.603814e+003 -3.492320e+001
      vertex -6.509579e+001  3.603814e+003 -3.312401e+001
    endloop
  endfacet
  facet normal -9.695904e-001  0.000000e+000 -2.447334e-001
    outer loop
      vertex -6.509579e+001  3.623814e+003 -3.312401e+001
      vertex -6.509579e+001  3.603814e+003 -3.312401e+001
      vertex -6.555498e+001  3.623814e+003 -3.130481e+001
    endloop
  endfacet
  facet normal -9.695904e-001  -0.000000e+000 -2.447334e-001
    outer loop
      vertex -6.555498e+001  3.623814e+003 -3.130481e+001
      vertex -6.509579e+001  3.603814e+003 -3.312401e+001
      vertex -6.555498e+001  3.603814e+003 -3.130481e+001
    endloop
  endfacet
  facet normal -9.786763e-001  0.000000e+000 -2.054088e-001
    outer loop
      vertex -6.555498e+001  3.623814e+003 -3.130481e+001
      vertex -6.555498e+001  3.603814e+003 -3.130481e+001
      vertex -6.594038e+001  3.623814e+003 -2.946857e+001
    endloop
  endfacet
  facet normal -9.786763e-001  -0.000000e+000 -2.054088e-001
    outer loop
      vertex -6.594038e+001  3.623814e+003 -2.946857e+001
      vertex -6.555498e+001  3.603814e+003 -3.130481e+001
      vertex -6.594038e+001  3.603814e+003 -2.946857e+001
    endloop
  endfacet
  facet normal -9.861671e-001  0.000000e+000 -1.657542e-001
    outer loop
      vertex -6.594038e+001  3.623814e+003 -2.946857e+001
      vertex -6.594038e+001  3.603814e+003 -2.946857e+001
      vertex -6.625137e+001  3.623814e+003 -2.761827e+001
    endloop
  endfacet
  facet normal -9.861671e-001  -0.000000e+000 -1.657542e-001
    outer loop
      vertex -6.625137e+001  3.623814e+003 -2.761827e+001
      vertex -6.594038e+001  3.603814e+003 -2.946857e+001
      vertex -6.625137e+001  3.603814e+003 -2.761827e+001
    endloop
  endfacet
  facet normal -9.920521e-001  0.000000e+000 -1.258273e-001
    outer loop
      vertex -6.625137e+001  3.623814e+003 -2.761827e+001
      vertex -6.625137e+001  3.603814e+003 -2.761827e+001
      vertex -6.648746e+001  3.623814e+003 -2.575693e+001
    endloop
  endfacet
  facet normal -9.920521e-001  -0.000000e+000 -1.258273e-001
    outer loop
      vertex -6.648746e+001  3.623814e+003 -2.575693e+001
      vertex -6.625137e+001  3.603814e+003 -2.761827e+001
      vertex -6.648746e+001  3.603814e+003 -2.575693e+001
    endloop
  endfacet
  facet normal -9.963216e-001  0.000000e+000 -8.569302e-002
    outer loop
      vertex -6.648746e+001  3.623814e+003 -2.575693e+001
      vertex -6.648746e+001  3.603814e+003 -2.575693e+001
      vertex -6.664824e+001  3.623814e+003 -2.388757e+001
    endloop
  endfacet
  facet normal -9.963216e-001  -0.000000e+000 -8.569302e-002
    outer loop
      vertex -6.664824e+001  3.623814e+003 -2.388757e+001
      vertex -6.648746e+001  3.603814e+003 -2.575693e+001
      vertex -6.664824e+001  3.603814e+003 -2.388757e+001
    endloop
  endfacet
  facet normal -9.989678e-001  0.000000e+000 -4.542454e-002
    outer loop
      vertex -6.664824e+001  3.623814e+003 -2.388757e+001
      vertex -6.664824e+001  3.603814e+003 -2.388757e+001
      vertex -6.673347e+001  3.623814e+003 -2.201326e+001
    endloop
  endfacet
  facet normal -9.989678e-001  -0.000000e+000 -4.542454e-002
    outer loop
      vertex -6.673347e+001  3.623814e+003 -2.201326e+001
      vertex -6.664824e+001  3.603814e+003 -2.388757e+001
      vertex -6.673347e+001  3.603814e+003 -2.201326e+001
    endloop
  endfacet
  facet normal -9.999871e-001  0.000000e+000 -5.082862e-003
    outer loop
      vertex -6.673347e+001  3.623814e+003 -2.201326e+001
      vertex -6.673347e+001  3.603814e+003 -2.201326e+001
      vertex -6.674300e+001  3.623814e+003 -2.013703e+001
    endloop
  endfacet
  facet normal -9.999871e-001  -0.000000e+000 -5.082862e-003
    outer loop
      vertex -6.674300e+001  3.623814e+003 -2.013703e+001
      vertex -6.673347e+001  3.603814e+003 -2.201326e+001
      vertex -6.674300e+001  3.603814e+003 -2.013703e+001
    endloop
  endfacet
  facet normal -9.993777e-001  0.000000e+000  3.527508e-002
    outer loop
      vertex -6.674300e+001  3.623814e+003 -2.013703e+001
      vertex -6.674300e+001  3.603814e+003 -2.013703e+001
      vertex -6.667682e+001  3.623814e+003 -1.826194e+001
    endloop
  endfacet
  facet normal -9.993777e-001  0.000000e+000  3.527508e-002
    outer loop
      vertex -6.667682e+001  3.623814e+003 -1.826194e+001
      vertex -6.674300e+001  3.603814e+003 -2.013703e+001
      vertex -6.667682e+001  3.603814e+003 -1.826194e+001
    endloop
  endfacet
  facet normal -9.971407e-001  0.000000e+000  7.556793e-002
    outer loop
      vertex -6.667682e+001  3.623814e+003 -1.826194e+001
      vertex -6.667682e+001  3.603814e+003 -1.826194e+001
      vertex -6.653503e+001  3.623814e+003 -1.639105e+001
    endloop
  endfacet
  facet normal -9.971407e-001  0.000000e+000  7.556793e-002
    outer loop
      vertex -6.653503e+001  3.623814e+003 -1.639105e+001
      vertex -6.667682e+001  3.603814e+003 -1.826194e+001
      vertex -6.653503e+001  3.603814e+003 -1.639105e+001
    endloop
  endfacet
  facet normal -9.932793e-001  0.000000e+000  1.157429e-001
    outer loop
      vertex -6.653503e+001  3.623814e+003 -1.639105e+001
      vertex -6.653503e+001  3.603814e+003 -1.639105e+001
      vertex -6.631787e+001  3.623814e+003 -1.452741e+001
    endloop
  endfacet
  facet normal -9.932793e-001  0.000000e+000  1.157429e-001
    outer loop
      vertex -6.631787e+001  3.623814e+003 -1.452741e+001
      vertex -6.653503e+001  3.603814e+003 -1.639105e+001
      vertex -6.631787e+001  3.603814e+003 -1.452741e+001
    endloop
  endfacet
  facet normal -9.878002e-001  0.000000e+000  1.557267e-001
    outer loop
      vertex -6.631787e+001  3.623814e+003 -1.452741e+001
      vertex -6.631787e+001  3.603814e+003 -1.452741e+001
      vertex -6.602569e+001  3.623814e+003 -1.267404e+001
    endloop
  endfacet
  facet normal -9.878002e-001  0.000000e+000  1.557267e-001
    outer loop
      vertex -6.602569e+001  3.623814e+003 -1.267404e+001
      vertex -6.631787e+001  3.603814e+003 -1.452741e+001
      vertex -6.602569e+001  3.603814e+003 -1.267404e+001
    endloop
  endfacet
  facet normal -9.807120e-001  0.000000e+000  1.954584e-001
    outer loop
      vertex -6.602569e+001  3.623814e+003 -1.267404e+001
      vertex -6.602569e+001  3.603814e+003 -1.267404e+001
      vertex -6.565896e+001  3.623814e+003 -1.083398e+001
    endloop
  endfacet
  facet normal -9.807120e-001  0.000000e+000  1.954584e-001
    outer loop
      vertex -6.565896e+001  3.623814e+003 -1.083398e+001
      vertex -6.602569e+001  3.603814e+003 -1.267404e+001
      vertex -6.565896e+001  3.603814e+003 -1.083398e+001
    endloop
  endfacet
  facet normal -9.720271e-001  0.000000e+000  2.348690e-001
    outer loop
      vertex -6.565896e+001  3.623814e+003 -1.083398e+001
      vertex -6.565896e+001  3.603814e+003 -1.083398e+001
      vertex -6.521828e+001  3.623814e+003 -9.010206e+000
    endloop
  endfacet
  facet normal -9.720271e-001  0.000000e+000  2.348690e-001
    outer loop
      vertex -6.521828e+001  3.623814e+003 -9.010206e+000
      vertex -6.565896e+001  3.603814e+003 -1.083398e+001
      vertex -6.521828e+001  3.603814e+003 -9.010206e+000
    endloop
  endfacet
  facet normal -9.617590e-001  0.000000e+000  2.738974e-001
    outer loop
      vertex -6.521828e+001  3.623814e+003 -9.010206e+000
      vertex -6.521828e+001  3.603814e+003 -9.010206e+000
      vertex -6.470438e+001  3.623814e+003 -7.205703e+000
    endloop
  endfacet
  facet normal -9.617590e-001  0.000000e+000  2.738974e-001
    outer loop
      vertex -6.470438e+001  3.623814e+003 -7.205703e+000
      vertex -6.521828e+001  3.603814e+003 -9.010206e+000
      vertex -6.470438e+001  3.603814e+003 -7.205703e+000
    endloop
  endfacet
  facet normal -9.499236e-001  0.000000e+000  3.124823e-001
    outer loop
      vertex -6.470438e+001  3.623814e+003 -7.205703e+000
      vertex -6.470438e+001  3.603814e+003 -7.205703e+000
      vertex -6.411809e+001  3.623814e+003 -5.423406e+000
    endloop
  endfacet
  facet normal -9.499236e-001  0.000000e+000  3.124823e-001
    outer loop
      vertex -6.411809e+001  3.623814e+003 -5.423406e+000
      vertex -6.470438e+001  3.603814e+003 -7.205703e+000
      vertex -6.411809e+001  3.603814e+003 -5.423406e+000
    endloop
  endfacet
  facet normal -9.365407e-001  0.000000e+000  3.505587e-001
    outer loop
      vertex -6.411809e+001  3.623814e+003 -5.423406e+000
      vertex -6.411809e+001  3.603814e+003 -5.423406e+000
      vertex -6.346035e+001  3.623814e+003 -3.666216e+000
    endloop
  endfacet
  facet normal -9.365407e-001  0.000000e+000  3.505587e-001
    outer loop
      vertex -6.346035e+001  3.623814e+003 -3.666216e+000
      vertex -6.411809e+001  3.603814e+003 -5.423406e+000
      vertex -6.346035e+001  3.603814e+003 -3.666216e+000
    endloop
  endfacet
  facet normal  0.000000e+000 -9.999999e-001  0.000000e+000
    outer loop
      vertex -6.370978e+001  3.603814e+003 -2.018283e+001
      vertex -6.346035e+001  3.603814e+003 -3.666216e+000
      vertex -6.411809e+001  3.603814e+003 -5.423406e+000
    endloop
  endfacet
  facet normal  0.000000e+000 -1.000000e+000  -0.000000e+000
    outer loop
      vertex -6.370978e+001  3.603814e+003 -2.018283e+001
      vertex -6.411809e+001  3.603814e+003 -5.423406e+000
      vertex -6.470438e+001  3.603814e+003 -7.205703e+000
    endloop
  endfacet
  facet normal  0.000000e+000 -1.000000e+000  -0.000000e+000
    outer loop
      vertex -6.370978e+001  3.603814e+003 -2.018283e+001
      vertex -6.470438e+001  3.603814e+003 -7.205703e+000
      vertex -6.521828e+001  3.603814e+003 -9.010206e+000
    endloop
  endfacet
  facet normal  0.000000e+000 -9.999999e-001  -0.000000e+000
    outer loop
      vertex -6.370978e+001  3.603814e+003 -2.018283e+001
      vertex -6.521828e+001  3.603814e+003 -9.010206e+000
      vertex -6.565896e+001  3.603814e+003 -1.083398e+001
    endloop
  endfacet
  facet normal  0.000000e+000 -1.000000e+000  -0.000000e+000
    outer loop
      vertex -6.370978e+001  3.603814e+003 -2.018283e+001
      vertex -6.565896e+001  3.603814e+003 -1.083398e+001
      vertex -6.602569e+001  3.603814e+003 -1.267404e+001
    endloop
  endfacet
  facet normal  0.000000e+000 -1.000000e+000  -0.000000e+000
    outer loop
      vertex -6.370978e+001  3.603814e+003 -2.018283e+001
      vertex -6.602569e+001  3.603814e+003 -1.267404e+001
      vertex -6.631787e+001  3.603814e+003 -1.452741e+001
    endloop
  endfacet
  facet normal  0.000000e+000 -1.000000e+000  -0.000000e+000
    outer loop
      vertex -6.370978e+001  3.603814e+003 -2.018283e+001
      vertex -6.631787e+001  3.603814e+003 -1.452741e+001
      vertex -6.653503e+001  3.603814e+003 -1.639105e+001
    endloop
  endfacet
  facet normal  0.000000e+000 -1.000000e+000  -0.000000e+000
    outer loop
      vertex -6.370978e+001  3.603814e+003 -2.018283e+001
      vertex -6.653503e+001  3.603814e+003 -1.639105e+001
      vertex -6.667682e+001  3.603814e+003 -1.826194e+001
    endloop
  endfacet
  facet normal  0.000000e+000 -1.000000e+000  -0.000000e+000
    outer loop
      vertex -6.370978e+001  3.603814e+003 -2.018283e+001
      vertex -6.667682e+001  3.603814e+003 -1.826194e+001
      vertex -6.674300e+001  3.603814e+003 -2.013703e+001
    endloop
  endfacet
  facet normal  0.000000e+000 -1.000000e+000  0.000000e+000
    outer loop
      vertex -6.370978e+001  3.603814e+003 -2.018283e+001
      vertex -6.674300e+001  3.603814e+003 -2.013703e+001
      vertex -6.673347e+001  3.603814e+003 -2.201326e+001
    endloop
  endfacet
  facet normal  0.000000e+000 -1.000000e+000  0.000000e+000
    outer loop
      vertex -6.370978e+001  3.603814e+003 -2.018283e+001
      vertex -6.673347e+001  3.603814e+003 -2.201326e+001
      vertex -6.395921e+001  3.603814e+003 -3.669945e+001
    endloop
  endfacet
  facet normal  0.000000e+000 -1.000000e+000  0.000000e+000
    outer loop
      vertex -6.395921e+001  3.603814e+003 -3.669945e+001
      vertex -6.673347e+001  3.603814e+003 -2.201326e+001
      vertex -6.664824e+001  3.603814e+003 -2.388757e+001
    endloop
  endfacet
  facet normal  0.000000e+000 -1.000000e+000  0.000000e+000
    outer loop
      vertex -6.395921e+001  3.603814e+003 -3.669945e+001
      vertex -6.664824e+001  3.603814e+003 -2.388757e+001
      vertex -6.648746e+001  3.603814e+003 -2.575693e+001
    endloop
  endfacet
  facet normal  0.000000e+000 -1.000000e+000  0.000000e+000
    outer loop
      vertex -6.395921e+001  3.603814e+003 -3.669945e+001
      vertex -6.648746e+001  3.603814e+003 -2.575693e+001
      vertex -6.625137e+001  3.603814e+003 -2.761827e+001
    endloop
  endfacet
  facet normal  0.000000e+000 -1.000000e+000  0.000000e+000
    outer loop
      vertex -6.395921e+001  3.603814e+003 -3.669945e+001
      vertex -6.625137e+001  3.603814e+003 -2.761827e+001
      vertex -6.594038e+001  3.603814e+003 -2.946857e+001
    endloop
  endfacet
  facet normal  0.000000e+000 -1.000000e+000  0.000000e+000
    outer loop
      vertex -6.395921e+001  3.603814e+003 -3.669945e+001
      vertex -6.594038e+001  3.603814e+003 -2.946857e+001
      vertex -6.555498e+001  3.603814e+003 -3.130481e+001
    endloop
  endfacet
  facet normal  0.000000e+000 -9.999999e-001  0.000000e+000
    outer loop
      vertex -6.395921e+001  3.603814e+003 -3.669945e+001
      vertex -6.555498e+001  3.603814e+003 -3.130481e+001
      vertex -6.509579e+001  3.603814e+003 -3.312401e+001
    endloop
  endfacet
  facet normal  0.000000e+000 -1.000000e+000  0.000000e+000
    outer loop
      vertex -6.395921e+001  3.603814e+003 -3.669945e+001
      vertex -6.509579e+001  3.603814e+003 -3.312401e+001
      vertex -6.456358e+001  3.603814e+003 -3.492320e+001
    endloop
  endfacet
endsolid CATIA STL
