solid CATIA STL
  facet normal  6.877200e-001  7.259759e-001  0.000000e+000
    outer loop
      vertex  6.078782e+001  3.532302e+001  1.250000e+002
      vertex  6.078782e+001  3.532302e+001  2.500000e+002
      vertex  6.180202e+001  3.436227e+001  1.250000e+002
    endloop
  endfacet
  facet normal  6.877200e-001  7.259759e-001  -0.000000e+000
    outer loop
      vertex  6.180202e+001  3.436227e+001  1.250000e+002
      vertex  6.078782e+001  3.532302e+001  2.500000e+002
      vertex  6.180202e+001  3.436227e+001  2.500000e+002
    endloop
  endfacet
  facet normal  7.085565e-001  7.056539e-001  0.000000e+000
    outer loop
      vertex  6.180202e+001  3.436227e+001  1.250000e+002
      vertex  6.180202e+001  3.436227e+001  2.500000e+002
      vertex  6.278782e+001  3.337241e+001  1.250000e+002
    endloop
  endfacet
  facet normal  7.085565e-001  7.056539e-001  -0.000000e+000
    outer loop
      vertex  6.278782e+001  3.337241e+001  1.250000e+002
      vertex  6.180202e+001  3.436227e+001  2.500000e+002
      vertex  6.278782e+001  3.337241e+001  2.500000e+002
    endloop
  endfacet
  facet normal  7.085552e-001 -7.056553e-001  0.000000e+000
    outer loop
      vertex  6.278782e+001 -3.337337e+001  1.250000e+002
      vertex  6.278782e+001 -3.337337e+001  2.500000e+002
      vertex  6.180202e+001 -3.436323e+001  1.250000e+002
    endloop
  endfacet
  facet normal  7.085552e-001 -7.056553e-001  0.000000e+000
    outer loop
      vertex  6.180202e+001 -3.436323e+001  1.250000e+002
      vertex  6.278782e+001 -3.337337e+001  2.500000e+002
      vertex  6.180202e+001 -3.436323e+001  2.500000e+002
    endloop
  endfacet
  facet normal  6.877215e-001 -7.259747e-001  0.000000e+000
    outer loop
      vertex  6.180202e+001 -3.436323e+001  1.250000e+002
      vertex  6.180202e+001 -3.436323e+001  2.500000e+002
      vertex  6.078782e+001 -3.532399e+001  1.250000e+002
    endloop
  endfacet
  facet normal  6.877215e-001 -7.259747e-001  0.000000e+000
    outer loop
      vertex  6.078782e+001 -3.532399e+001  1.250000e+002
      vertex  6.180202e+001 -3.436323e+001  2.500000e+002
      vertex  6.078782e+001 -3.532399e+001  2.500000e+002
    endloop
  endfacet
  facet normal  9.999999e-001  -0.000000e+000  0.000000e+000
    outer loop
      vertex  6.278782e+001  3.337241e+001  2.500000e+002
      vertex  6.278782e+001 -3.337337e+001  2.500000e+002
      vertex  6.278782e+001  0.000000e+000  2.320000e+002
    endloop
  endfacet
  facet normal  1.000000e+000  -0.000000e+000  0.000000e+000
    outer loop
      vertex  6.278782e+001  3.337241e+001  2.500000e+002
      vertex  6.278782e+001  0.000000e+000  2.320000e+002
      vertex  6.278782e+001  3.901806e-001  2.319616e+002
    endloop
  endfacet
  facet normal  1.000000e+000  -0.000000e+000  0.000000e+000
    outer loop
      vertex  6.278782e+001  3.337241e+001  2.500000e+002
      vertex  6.278782e+001  3.901806e-001  2.319616e+002
      vertex  6.278782e+001  7.653669e-001  2.318478e+002
    endloop
  endfacet
  facet normal  1.000000e+000  -0.000000e+000  0.000000e+000
    outer loop
      vertex  6.278782e+001  3.337241e+001  2.500000e+002
      vertex  6.278782e+001  7.653669e-001  2.318478e+002
      vertex  6.278782e+001  1.111140e+000  2.316629e+002
    endloop
  endfacet
  facet normal  1.000000e+000  -0.000000e+000  0.000000e+000
    outer loop
      vertex  6.278782e+001  3.337241e+001  2.500000e+002
      vertex  6.278782e+001  1.111140e+000  2.316629e+002
      vertex  6.278782e+001  1.414214e+000  2.314142e+002
    endloop
  endfacet
  facet normal  9.999999e-001  -0.000000e+000  0.000000e+000
    outer loop
      vertex  6.278782e+001  3.337241e+001  2.500000e+002
      vertex  6.278782e+001  1.414214e+000  2.314142e+002
      vertex  6.278782e+001  1.662939e+000  2.311111e+002
    endloop
  endfacet
  facet normal  1.000000e+000  -0.000000e+000  0.000000e+000
    outer loop
      vertex  6.278782e+001  3.337241e+001  2.500000e+002
      vertex  6.278782e+001  1.662939e+000  2.311111e+002
      vertex  6.278782e+001  1.847759e+000  2.307654e+002
    endloop
  endfacet
  facet normal  1.000000e+000  -0.000000e+000  0.000000e+000
    outer loop
      vertex  6.278782e+001  3.337241e+001  2.500000e+002
      vertex  6.278782e+001  1.847759e+000  2.307654e+002
      vertex  6.278782e+001  1.961571e+000  2.303902e+002
    endloop
  endfacet
  facet normal  9.999999e-001  -0.000000e+000  0.000000e+000
    outer loop
      vertex  6.278782e+001  3.337241e+001  2.500000e+002
      vertex  6.278782e+001  1.961571e+000  2.303902e+002
      vertex  6.278782e+001  3.337241e+001  1.250000e+002
    endloop
  endfacet
  facet normal  1.000000e+000  0.000000e+000  0.000000e+000
    outer loop
      vertex  6.278782e+001  3.337241e+001  1.250000e+002
      vertex  6.278782e+001  1.961571e+000  2.303902e+002
      vertex  6.278782e+001  2.000000e+000  2.300000e+002
    endloop
  endfacet
  facet normal  1.000000e+000  0.000000e+000  0.000000e+000
    outer loop
      vertex  6.278782e+001  3.337241e+001  1.250000e+002
      vertex  6.278782e+001  2.000000e+000  2.300000e+002
      vertex  6.278782e+001  1.961571e+000  2.296098e+002
    endloop
  endfacet
  facet normal  1.000000e+000  0.000000e+000  0.000000e+000
    outer loop
      vertex  6.278782e+001  3.337241e+001  1.250000e+002
      vertex  6.278782e+001  1.961571e+000  2.296098e+002
      vertex  6.278782e+001  1.847759e+000  2.292346e+002
    endloop
  endfacet
  facet normal  1.000000e+000  0.000000e+000  0.000000e+000
    outer loop
      vertex  6.278782e+001  3.337241e+001  1.250000e+002
      vertex  6.278782e+001  1.847759e+000  2.292346e+002
      vertex  6.278782e+001  1.662939e+000  2.288889e+002
    endloop
  endfacet
  facet normal  1.000000e+000  0.000000e+000  0.000000e+000
    outer loop
      vertex  6.278782e+001  3.337241e+001  1.250000e+002
      vertex  6.278782e+001  1.662939e+000  2.288889e+002
      vertex  6.278782e+001  1.414214e+000  2.285858e+002
    endloop
  endfacet
  facet normal  1.000000e+000  0.000000e+000  0.000000e+000
    outer loop
      vertex  6.278782e+001  3.337241e+001  1.250000e+002
      vertex  6.278782e+001  1.414214e+000  2.285858e+002
      vertex  6.278782e+001  1.111140e+000  2.283371e+002
    endloop
  endfacet
  facet normal  1.000000e+000  0.000000e+000  0.000000e+000
    outer loop
      vertex  6.278782e+001  3.337241e+001  1.250000e+002
      vertex  6.278782e+001  1.111140e+000  2.283371e+002
      vertex  6.278782e+001  7.653669e-001  2.281522e+002
    endloop
  endfacet
  facet normal  1.000000e+000  0.000000e+000  0.000000e+000
    outer loop
      vertex  6.278782e+001  3.337241e+001  1.250000e+002
      vertex  6.278782e+001  7.653669e-001  2.281522e+002
      vertex  6.278782e+001  3.901806e-001  2.280384e+002
    endloop
  endfacet
  facet normal  1.000000e+000  0.000000e+000  0.000000e+000
    outer loop
      vertex  6.278782e+001  3.337241e+001  1.250000e+002
      vertex  6.278782e+001  3.901806e-001  2.280384e+002
      vertex  6.278782e+001  0.000000e+000  2.280000e+002
    endloop
  endfacet
  facet normal  1.000000e+000  0.000000e+000  0.000000e+000
    outer loop
      vertex  6.278782e+001  3.337241e+001  1.250000e+002
      vertex  6.278782e+001  0.000000e+000  2.280000e+002
      vertex  6.278782e+001 -3.337337e+001  1.250000e+002
    endloop
  endfacet
  facet normal  1.000000e+000  0.000000e+000  0.000000e+000
    outer loop
      vertex  6.278782e+001 -3.337337e+001  1.250000e+002
      vertex  6.278782e+001  0.000000e+000  2.280000e+002
      vertex  6.278782e+001 -3.901806e-001  2.280384e+002
    endloop
  endfacet
  facet normal  1.000000e+000  0.000000e+000  0.000000e+000
    outer loop
      vertex  6.278782e+001 -3.337337e+001  1.250000e+002
      vertex  6.278782e+001 -3.901806e-001  2.280384e+002
      vertex  6.278782e+001 -7.653669e-001  2.281522e+002
    endloop
  endfacet
  facet normal  1.000000e+000  0.000000e+000  0.000000e+000
    outer loop
      vertex  6.278782e+001 -3.337337e+001  1.250000e+002
      vertex  6.278782e+001 -7.653669e-001  2.281522e+002
      vertex  6.278782e+001 -1.111140e+000  2.283371e+002
    endloop
  endfacet
  facet normal  1.000000e+000  0.000000e+000  0.000000e+000
    outer loop
      vertex  6.278782e+001 -3.337337e+001  1.250000e+002
      vertex  6.278782e+001 -1.111140e+000  2.283371e+002
      vertex  6.278782e+001 -1.414214e+000  2.285858e+002
    endloop
  endfacet
  facet normal  1.000000e+000  0.000000e+000  0.000000e+000
    outer loop
      vertex  6.278782e+001 -3.337337e+001  1.250000e+002
      vertex  6.278782e+001 -1.414214e+000  2.285858e+002
      vertex  6.278782e+001 -1.662939e+000  2.288889e+002
    endloop
  endfacet
  facet normal  1.000000e+000  0.000000e+000  0.000000e+000
    outer loop
      vertex  6.278782e+001 -3.337337e+001  1.250000e+002
      vertex  6.278782e+001 -1.662939e+000  2.288889e+002
      vertex  6.278782e+001 -1.847759e+000  2.292346e+002
    endloop
  endfacet
  facet normal  1.000000e+000  0.000000e+000  0.000000e+000
    outer loop
      vertex  6.278782e+001 -3.337337e+001  1.250000e+002
      vertex  6.278782e+001 -1.847759e+000  2.292346e+002
      vertex  6.278782e+001 -1.961571e+000  2.296098e+002
    endloop
  endfacet
  facet normal  1.000000e+000  0.000000e+000  0.000000e+000
    outer loop
      vertex  6.278782e+001 -3.337337e+001  1.250000e+002
      vertex  6.278782e+001 -1.961571e+000  2.296098e+002
      vertex  6.278782e+001 -2.000000e+000  2.300000e+002
    endloop
  endfacet
  facet normal  1.000000e+000  0.000000e+000  -0.000000e+000
    outer loop
      vertex  6.278782e+001 -3.337337e+001  1.250000e+002
      vertex  6.278782e+001 -2.000000e+000  2.300000e+002
      vertex  6.278782e+001 -1.961571e+000  2.303902e+002
    endloop
  endfacet
  facet normal  1.000000e+000  0.000000e+000  0.000000e+000
    outer loop
      vertex  6.278782e+001 -3.337337e+001  2.500000e+002
      vertex  6.278782e+001 -3.337337e+001  1.250000e+002
      vertex  6.278782e+001 -1.961571e+000  2.303902e+002
    endloop
  endfacet
  facet normal  1.000000e+000  0.000000e+000  -0.000000e+000
    outer loop
      vertex  6.278782e+001 -3.337337e+001  2.500000e+002
      vertex  6.278782e+001 -1.961571e+000  2.303902e+002
      vertex  6.278782e+001 -1.847759e+000  2.307654e+002
    endloop
  endfacet
  facet normal  1.000000e+000  0.000000e+000  -0.000000e+000
    outer loop
      vertex  6.278782e+001 -3.337337e+001  2.500000e+002
      vertex  6.278782e+001 -1.847759e+000  2.307654e+002
      vertex  6.278782e+001 -1.662939e+000  2.311111e+002
    endloop
  endfacet
  facet normal  1.000000e+000  0.000000e+000  -0.000000e+000
    outer loop
      vertex  6.278782e+001 -3.337337e+001  2.500000e+002
      vertex  6.278782e+001 -1.662939e+000  2.311111e+002
      vertex  6.278782e+001 -1.414214e+000  2.314142e+002
    endloop
  endfacet
  facet normal  9.999999e-001  0.000000e+000  -0.000000e+000
    outer loop
      vertex  6.278782e+001 -3.337337e+001  2.500000e+002
      vertex  6.278782e+001 -1.414214e+000  2.314142e+002
      vertex  6.278782e+001 -1.111140e+000  2.316629e+002
    endloop
  endfacet
  facet normal  1.000000e+000  0.000000e+000  -0.000000e+000
    outer loop
      vertex  6.278782e+001 -3.337337e+001  2.500000e+002
      vertex  6.278782e+001 -1.111140e+000  2.316629e+002
      vertex  6.278782e+001 -7.653669e-001  2.318478e+002
    endloop
  endfacet
  facet normal  1.000000e+000  0.000000e+000  -0.000000e+000
    outer loop
      vertex  6.278782e+001 -3.337337e+001  2.500000e+002
      vertex  6.278782e+001 -7.653669e-001  2.318478e+002
      vertex  6.278782e+001 -3.901806e-001  2.319616e+002
    endloop
  endfacet
  facet normal  1.000000e+000  0.000000e+000  -0.000000e+000
    outer loop
      vertex  6.278782e+001 -3.337337e+001  2.500000e+002
      vertex  6.278782e+001 -3.901806e-001  2.319616e+002
      vertex  6.278782e+001  0.000000e+000  2.320000e+002
    endloop
  endfacet
  facet normal -1.000000e+000  -0.000000e+000  0.000000e+000
    outer loop
      vertex  6.078782e+001 -3.532399e+001  2.500000e+002
      vertex  6.078782e+001  3.532302e+001  2.500000e+002
      vertex  6.078782e+001  0.000000e+000  2.320000e+002
    endloop
  endfacet
  facet normal -1.000000e+000  -0.000000e+000  0.000000e+000
    outer loop
      vertex  6.078782e+001 -3.532399e+001  2.500000e+002
      vertex  6.078782e+001  0.000000e+000  2.320000e+002
      vertex  6.078782e+001 -3.901806e-001  2.319616e+002
    endloop
  endfacet
  facet normal -1.000000e+000  -0.000000e+000  0.000000e+000
    outer loop
      vertex  6.078782e+001 -3.532399e+001  2.500000e+002
      vertex  6.078782e+001 -3.901806e-001  2.319616e+002
      vertex  6.078782e+001 -7.653669e-001  2.318478e+002
    endloop
  endfacet
  facet normal -9.999999e-001  -0.000000e+000  0.000000e+000
    outer loop
      vertex  6.078782e+001 -3.532399e+001  2.500000e+002
      vertex  6.078782e+001 -7.653669e-001  2.318478e+002
      vertex  6.078782e+001 -1.111140e+000  2.316629e+002
    endloop
  endfacet
  facet normal -1.000000e+000  -0.000000e+000  0.000000e+000
    outer loop
      vertex  6.078782e+001 -3.532399e+001  2.500000e+002
      vertex  6.078782e+001 -1.111140e+000  2.316629e+002
      vertex  6.078782e+001 -1.414214e+000  2.314142e+002
    endloop
  endfacet
  facet normal -1.000000e+000  -0.000000e+000  0.000000e+000
    outer loop
      vertex  6.078782e+001 -3.532399e+001  2.500000e+002
      vertex  6.078782e+001 -1.414214e+000  2.314142e+002
      vertex  6.078782e+001 -1.662939e+000  2.311111e+002
    endloop
  endfacet
  facet normal -1.000000e+000  -0.000000e+000  0.000000e+000
    outer loop
      vertex  6.078782e+001 -3.532399e+001  2.500000e+002
      vertex  6.078782e+001 -1.662939e+000  2.311111e+002
      vertex  6.078782e+001 -1.847759e+000  2.307654e+002
    endloop
  endfacet
  facet normal -1.000000e+000  -0.000000e+000  0.000000e+000
    outer loop
      vertex  6.078782e+001 -3.532399e+001  2.500000e+002
      vertex  6.078782e+001 -1.847759e+000  2.307654e+002
      vertex  6.078782e+001 -1.961571e+000  2.303902e+002
    endloop
  endfacet
  facet normal -1.000000e+000  -0.000000e+000  0.000000e+000
    outer loop
      vertex  6.078782e+001 -3.532399e+001  2.500000e+002
      vertex  6.078782e+001 -1.961571e+000  2.303902e+002
      vertex  6.078782e+001 -3.532399e+001  1.250000e+002
    endloop
  endfacet
  facet normal -1.000000e+000  0.000000e+000  0.000000e+000
    outer loop
      vertex  6.078782e+001 -3.532399e+001  1.250000e+002
      vertex  6.078782e+001 -1.961571e+000  2.303902e+002
      vertex  6.078782e+001 -2.000000e+000  2.300000e+002
    endloop
  endfacet
  facet normal -1.000000e+000  0.000000e+000  -0.000000e+000
    outer loop
      vertex  6.078782e+001 -3.532399e+001  1.250000e+002
      vertex  6.078782e+001 -2.000000e+000  2.300000e+002
      vertex  6.078782e+001 -1.961571e+000  2.296098e+002
    endloop
  endfacet
  facet normal -1.000000e+000  0.000000e+000  -0.000000e+000
    outer loop
      vertex  6.078782e+001 -3.532399e+001  1.250000e+002
      vertex  6.078782e+001 -1.961571e+000  2.296098e+002
      vertex  6.078782e+001 -1.847759e+000  2.292346e+002
    endloop
  endfacet
  facet normal -9.999999e-001  0.000000e+000  -0.000000e+000
    outer loop
      vertex  6.078782e+001 -3.532399e+001  1.250000e+002
      vertex  6.078782e+001 -1.847759e+000  2.292346e+002
      vertex  6.078782e+001 -1.662939e+000  2.288889e+002
    endloop
  endfacet
  facet normal -1.000000e+000  0.000000e+000  -0.000000e+000
    outer loop
      vertex  6.078782e+001 -3.532399e+001  1.250000e+002
      vertex  6.078782e+001 -1.662939e+000  2.288889e+002
      vertex  6.078782e+001 -1.414214e+000  2.285858e+002
    endloop
  endfacet
  facet normal -1.000000e+000  0.000000e+000  -0.000000e+000
    outer loop
      vertex  6.078782e+001 -3.532399e+001  1.250000e+002
      vertex  6.078782e+001 -1.414214e+000  2.285858e+002
      vertex  6.078782e+001 -1.111140e+000  2.283371e+002
    endloop
  endfacet
  facet normal -9.999999e-001  0.000000e+000  -0.000000e+000
    outer loop
      vertex  6.078782e+001 -3.532399e+001  1.250000e+002
      vertex  6.078782e+001 -1.111140e+000  2.283371e+002
      vertex  6.078782e+001 -7.653669e-001  2.281522e+002
    endloop
  endfacet
  facet normal -1.000000e+000  0.000000e+000  -0.000000e+000
    outer loop
      vertex  6.078782e+001 -3.532399e+001  1.250000e+002
      vertex  6.078782e+001 -7.653669e-001  2.281522e+002
      vertex  6.078782e+001 -3.901806e-001  2.280384e+002
    endloop
  endfacet
  facet normal -1.000000e+000  0.000000e+000  -0.000000e+000
    outer loop
      vertex  6.078782e+001 -3.532399e+001  1.250000e+002
      vertex  6.078782e+001 -3.901806e-001  2.280384e+002
      vertex  6.078782e+001  0.000000e+000  2.280000e+002
    endloop
  endfacet
  facet normal -1.000000e+000  0.000000e+000  -0.000000e+000
    outer loop
      vertex  6.078782e+001 -3.532399e+001  1.250000e+002
      vertex  6.078782e+001  0.000000e+000  2.280000e+002
      vertex  6.078782e+001  3.532302e+001  1.250000e+002
    endloop
  endfacet
  facet normal -1.000000e+000  0.000000e+000  0.000000e+000
    outer loop
      vertex  6.078782e+001  3.532302e+001  1.250000e+002
      vertex  6.078782e+001  0.000000e+000  2.280000e+002
      vertex  6.078782e+001  3.901806e-001  2.280384e+002
    endloop
  endfacet
  facet normal -1.000000e+000  0.000000e+000  0.000000e+000
    outer loop
      vertex  6.078782e+001  3.532302e+001  1.250000e+002
      vertex  6.078782e+001  3.901806e-001  2.280384e+002
      vertex  6.078782e+001  7.653669e-001  2.281522e+002
    endloop
  endfacet
  facet normal -1.000000e+000  0.000000e+000  0.000000e+000
    outer loop
      vertex  6.078782e+001  3.532302e+001  1.250000e+002
      vertex  6.078782e+001  7.653669e-001  2.281522e+002
      vertex  6.078782e+001  1.111140e+000  2.283371e+002
    endloop
  endfacet
  facet normal -1.000000e+000  0.000000e+000  0.000000e+000
    outer loop
      vertex  6.078782e+001  3.532302e+001  1.250000e+002
      vertex  6.078782e+001  1.111140e+000  2.283371e+002
      vertex  6.078782e+001  1.414214e+000  2.285858e+002
    endloop
  endfacet
  facet normal -9.999999e-001  0.000000e+000  0.000000e+000
    outer loop
      vertex  6.078782e+001  3.532302e+001  1.250000e+002
      vertex  6.078782e+001  1.414214e+000  2.285858e+002
      vertex  6.078782e+001  1.662939e+000  2.288889e+002
    endloop
  endfacet
  facet normal -1.000000e+000  0.000000e+000  0.000000e+000
    outer loop
      vertex  6.078782e+001  3.532302e+001  1.250000e+002
      vertex  6.078782e+001  1.662939e+000  2.288889e+002
      vertex  6.078782e+001  1.847759e+000  2.292346e+002
    endloop
  endfacet
  facet normal -1.000000e+000  0.000000e+000  0.000000e+000
    outer loop
      vertex  6.078782e+001  3.532302e+001  1.250000e+002
      vertex  6.078782e+001  1.847759e+000  2.292346e+002
      vertex  6.078782e+001  1.961571e+000  2.296098e+002
    endloop
  endfacet
  facet normal -1.000000e+000  0.000000e+000  0.000000e+000
    outer loop
      vertex  6.078782e+001  3.532302e+001  1.250000e+002
      vertex  6.078782e+001  1.961571e+000  2.296098e+002
      vertex  6.078782e+001  2.000000e+000  2.300000e+002
    endloop
  endfacet
  facet normal -1.000000e+000  0.000000e+000  0.000000e+000
    outer loop
      vertex  6.078782e+001  3.532302e+001  1.250000e+002
      vertex  6.078782e+001  2.000000e+000  2.300000e+002
      vertex  6.078782e+001  1.961571e+000  2.303902e+002
    endloop
  endfacet
  facet normal -1.000000e+000  0.000000e+000  0.000000e+000
    outer loop
      vertex  6.078782e+001  3.532302e+001  2.500000e+002
      vertex  6.078782e+001  3.532302e+001  1.250000e+002
      vertex  6.078782e+001  1.961571e+000  2.303902e+002
    endloop
  endfacet
  facet normal -1.000000e+000  0.000000e+000  0.000000e+000
    outer loop
      vertex  6.078782e+001  3.532302e+001  2.500000e+002
      vertex  6.078782e+001  1.961571e+000  2.303902e+002
      vertex  6.078782e+001  1.847759e+000  2.307654e+002
    endloop
  endfacet
  facet normal -9.999999e-001  0.000000e+000  0.000000e+000
    outer loop
      vertex  6.078782e+001  3.532302e+001  2.500000e+002
      vertex  6.078782e+001  1.847759e+000  2.307654e+002
      vertex  6.078782e+001  1.662939e+000  2.311111e+002
    endloop
  endfacet
  facet normal -1.000000e+000  0.000000e+000  0.000000e+000
    outer loop
      vertex  6.078782e+001  3.532302e+001  2.500000e+002
      vertex  6.078782e+001  1.662939e+000  2.311111e+002
      vertex  6.078782e+001  1.414214e+000  2.314142e+002
    endloop
  endfacet
  facet normal -9.999999e-001  0.000000e+000  0.000000e+000
    outer loop
      vertex  6.078782e+001  3.532302e+001  2.500000e+002
      vertex  6.078782e+001  1.414214e+000  2.314142e+002
      vertex  6.078782e+001  1.111140e+000  2.316629e+002
    endloop
  endfacet
  facet normal -1.000000e+000  0.000000e+000  0.000000e+000
    outer loop
      vertex  6.078782e+001  3.532302e+001  2.500000e+002
      vertex  6.078782e+001  1.111140e+000  2.316629e+002
      vertex  6.078782e+001  7.653669e-001  2.318478e+002
    endloop
  endfacet
  facet normal -1.000000e+000  0.000000e+000  0.000000e+000
    outer loop
      vertex  6.078782e+001  3.532302e+001  2.500000e+002
      vertex  6.078782e+001  7.653669e-001  2.318478e+002
      vertex  6.078782e+001  3.901806e-001  2.319616e+002
    endloop
  endfacet
  facet normal -1.000000e+000  0.000000e+000  0.000000e+000
    outer loop
      vertex  6.078782e+001  3.532302e+001  2.500000e+002
      vertex  6.078782e+001  3.901806e-001  2.319616e+002
      vertex  6.078782e+001  0.000000e+000  2.320000e+002
    endloop
  endfacet
  facet normal  0.000000e+000  0.000000e+000 -1.000000e+000
    outer loop
      vertex  6.278782e+001  3.337241e+001  1.250000e+002
      vertex  6.278782e+001 -3.337337e+001  1.250000e+002
      vertex  6.180202e+001  3.436227e+001  1.250000e+002
    endloop
  endfacet
  facet normal  0.000000e+000  0.000000e+000 -1.000000e+000
    outer loop
      vertex  6.180202e+001  3.436227e+001  1.250000e+002
      vertex  6.278782e+001 -3.337337e+001  1.250000e+002
      vertex  6.180202e+001 -3.436323e+001  1.250000e+002
    endloop
  endfacet
  facet normal  0.000000e+000  0.000000e+000 -1.000000e+000
    outer loop
      vertex  6.180202e+001  3.436227e+001  1.250000e+002
      vertex  6.180202e+001 -3.436323e+001  1.250000e+002
      vertex  6.078782e+001  3.532302e+001  1.250000e+002
    endloop
  endfacet
  facet normal  0.000000e+000  0.000000e+000 -1.000000e+000
    outer loop
      vertex  6.078782e+001  3.532302e+001  1.250000e+002
      vertex  6.180202e+001 -3.436323e+001  1.250000e+002
      vertex  6.078782e+001 -3.532399e+001  1.250000e+002
    endloop
  endfacet
  facet normal  0.000000e+000 -9.803596e-002 -9.951829e-001
    outer loop
      vertex  6.278782e+001  0.000000e+000  2.320000e+002
      vertex  6.078782e+001  3.901806e-001  2.319616e+002
      vertex  6.278782e+001  3.901806e-001  2.319616e+002
    endloop
  endfacet
  facet normal  -0.000000e+000 -2.902580e-001 -9.569485e-001
    outer loop
      vertex  6.278782e+001  3.901806e-001  2.319616e+002
      vertex  6.078782e+001  3.901806e-001  2.319616e+002
      vertex  6.078782e+001  7.653669e-001  2.318478e+002
    endloop
  endfacet
  facet normal  0.000000e+000 -2.902580e-001 -9.569485e-001
    outer loop
      vertex  6.278782e+001  3.901806e-001  2.319616e+002
      vertex  6.078782e+001  7.653669e-001  2.318478e+002
      vertex  6.278782e+001  7.653669e-001  2.318478e+002
    endloop
  endfacet
  facet normal  -0.000000e+000 -4.714163e-001 -8.819108e-001
    outer loop
      vertex  6.278782e+001  7.653669e-001  2.318478e+002
      vertex  6.078782e+001  7.653669e-001  2.318478e+002
      vertex  6.078782e+001  1.111140e+000  2.316629e+002
    endloop
  endfacet
  facet normal  0.000000e+000 -4.714163e-001 -8.819108e-001
    outer loop
      vertex  6.278782e+001  7.653669e-001  2.318478e+002
      vertex  6.078782e+001  1.111140e+000  2.316629e+002
      vertex  6.278782e+001  1.111140e+000  2.316629e+002
    endloop
  endfacet
  facet normal  -0.000000e+000 -6.343821e-001 -7.730197e-001
    outer loop
      vertex  6.278782e+001  1.111140e+000  2.316629e+002
      vertex  6.078782e+001  1.111140e+000  2.316629e+002
      vertex  6.078782e+001  1.414214e+000  2.314142e+002
    endloop
  endfacet
  facet normal  0.000000e+000 -6.343821e-001 -7.730197e-001
    outer loop
      vertex  6.278782e+001  1.111140e+000  2.316629e+002
      vertex  6.078782e+001  1.414214e+000  2.314142e+002
      vertex  6.278782e+001  1.414214e+000  2.314142e+002
    endloop
  endfacet
  facet normal  -0.000000e+000 -7.730073e-001 -6.343970e-001
    outer loop
      vertex  6.278782e+001  1.414214e+000  2.314142e+002
      vertex  6.078782e+001  1.414214e+000  2.314142e+002
      vertex  6.078782e+001  1.662939e+000  2.311111e+002
    endloop
  endfacet
  facet normal  0.000000e+000 -7.730073e-001 -6.343970e-001
    outer loop
      vertex  6.278782e+001  1.414214e+000  2.314142e+002
      vertex  6.078782e+001  1.662939e+000  2.311111e+002
      vertex  6.278782e+001  1.662939e+000  2.311111e+002
    endloop
  endfacet
  facet normal  -0.000000e+000 -8.819246e-001 -4.713905e-001
    outer loop
      vertex  6.278782e+001  1.662939e+000  2.311111e+002
      vertex  6.078782e+001  1.662939e+000  2.311111e+002
      vertex  6.078782e+001  1.847759e+000  2.307654e+002
    endloop
  endfacet
  facet normal  0.000000e+000 -8.819246e-001 -4.713905e-001
    outer loop
      vertex  6.278782e+001  1.662939e+000  2.311111e+002
      vertex  6.078782e+001  1.847759e+000  2.307654e+002
      vertex  6.278782e+001  1.847759e+000  2.307654e+002
    endloop
  endfacet
  facet normal  -0.000000e+000 -9.569396e-001 -2.902869e-001
    outer loop
      vertex  6.278782e+001  1.847759e+000  2.307654e+002
      vertex  6.078782e+001  1.847759e+000  2.307654e+002
      vertex  6.078782e+001  1.961571e+000  2.303902e+002
    endloop
  endfacet
  facet normal  0.000000e+000 -9.569396e-001 -2.902869e-001
    outer loop
      vertex  6.278782e+001  1.847759e+000  2.307654e+002
      vertex  6.078782e+001  1.961571e+000  2.303902e+002
      vertex  6.278782e+001  1.961571e+000  2.303902e+002
    endloop
  endfacet
  facet normal  -0.000000e+000 -9.951848e-001 -9.801684e-002
    outer loop
      vertex  6.278782e+001  1.961571e+000  2.303902e+002
      vertex  6.078782e+001  1.961571e+000  2.303902e+002
      vertex  6.078782e+001  2.000000e+000  2.300000e+002
    endloop
  endfacet
  facet normal  0.000000e+000 -9.951848e-001 -9.801684e-002
    outer loop
      vertex  6.278782e+001  1.961571e+000  2.303902e+002
      vertex  6.078782e+001  2.000000e+000  2.300000e+002
      vertex  6.278782e+001  2.000000e+000  2.300000e+002
    endloop
  endfacet
  facet normal  -0.000000e+000 -9.803596e-002 -9.951829e-001
    outer loop
      vertex  6.078782e+001  3.901806e-001  2.319616e+002
      vertex  6.278782e+001  0.000000e+000  2.320000e+002
      vertex  6.078782e+001  0.000000e+000  2.320000e+002
    endloop
  endfacet
  facet normal  0.000000e+000  9.803596e-002 -9.951829e-001
    outer loop
      vertex  6.078782e+001  0.000000e+000  2.320000e+002
      vertex  6.278782e+001  0.000000e+000  2.320000e+002
      vertex  6.278782e+001 -3.901806e-001  2.319616e+002
    endloop
  endfacet
  facet normal  0.000000e+000  9.803596e-002 -9.951829e-001
    outer loop
      vertex  6.078782e+001  0.000000e+000  2.320000e+002
      vertex  6.278782e+001 -3.901806e-001  2.319616e+002
      vertex  6.078782e+001 -3.901806e-001  2.319616e+002
    endloop
  endfacet
  facet normal  0.000000e+000  2.902580e-001 -9.569485e-001
    outer loop
      vertex  6.078782e+001 -3.901806e-001  2.319616e+002
      vertex  6.278782e+001 -3.901806e-001  2.319616e+002
      vertex  6.278782e+001 -7.653669e-001  2.318478e+002
    endloop
  endfacet
  facet normal  0.000000e+000  2.902580e-001 -9.569485e-001
    outer loop
      vertex  6.078782e+001 -3.901806e-001  2.319616e+002
      vertex  6.278782e+001 -7.653669e-001  2.318478e+002
      vertex  6.078782e+001 -7.653669e-001  2.318478e+002
    endloop
  endfacet
  facet normal  0.000000e+000  4.714163e-001 -8.819108e-001
    outer loop
      vertex  6.078782e+001 -7.653669e-001  2.318478e+002
      vertex  6.278782e+001 -7.653669e-001  2.318478e+002
      vertex  6.278782e+001 -1.111140e+000  2.316629e+002
    endloop
  endfacet
  facet normal  0.000000e+000  4.714163e-001 -8.819108e-001
    outer loop
      vertex  6.078782e+001 -7.653669e-001  2.318478e+002
      vertex  6.278782e+001 -1.111140e+000  2.316629e+002
      vertex  6.078782e+001 -1.111140e+000  2.316629e+002
    endloop
  endfacet
  facet normal  0.000000e+000  6.343821e-001 -7.730197e-001
    outer loop
      vertex  6.078782e+001 -1.111140e+000  2.316629e+002
      vertex  6.278782e+001 -1.111140e+000  2.316629e+002
      vertex  6.278782e+001 -1.414214e+000  2.314142e+002
    endloop
  endfacet
  facet normal  0.000000e+000  6.343821e-001 -7.730197e-001
    outer loop
      vertex  6.078782e+001 -1.111140e+000  2.316629e+002
      vertex  6.278782e+001 -1.414214e+000  2.314142e+002
      vertex  6.078782e+001 -1.414214e+000  2.314142e+002
    endloop
  endfacet
  facet normal  0.000000e+000  7.730073e-001 -6.343970e-001
    outer loop
      vertex  6.078782e+001 -1.414214e+000  2.314142e+002
      vertex  6.278782e+001 -1.414214e+000  2.314142e+002
      vertex  6.278782e+001 -1.662939e+000  2.311111e+002
    endloop
  endfacet
  facet normal  0.000000e+000  7.730073e-001 -6.343970e-001
    outer loop
      vertex  6.078782e+001 -1.414214e+000  2.314142e+002
      vertex  6.278782e+001 -1.662939e+000  2.311111e+002
      vertex  6.078782e+001 -1.662939e+000  2.311111e+002
    endloop
  endfacet
  facet normal  0.000000e+000  8.819246e-001 -4.713905e-001
    outer loop
      vertex  6.078782e+001 -1.662939e+000  2.311111e+002
      vertex  6.278782e+001 -1.662939e+000  2.311111e+002
      vertex  6.278782e+001 -1.847759e+000  2.307654e+002
    endloop
  endfacet
  facet normal  0.000000e+000  8.819246e-001 -4.713905e-001
    outer loop
      vertex  6.078782e+001 -1.662939e+000  2.311111e+002
      vertex  6.278782e+001 -1.847759e+000  2.307654e+002
      vertex  6.078782e+001 -1.847759e+000  2.307654e+002
    endloop
  endfacet
  facet normal  0.000000e+000  9.569396e-001 -2.902869e-001
    outer loop
      vertex  6.078782e+001 -1.847759e+000  2.307654e+002
      vertex  6.278782e+001 -1.847759e+000  2.307654e+002
      vertex  6.278782e+001 -1.961571e+000  2.303902e+002
    endloop
  endfacet
  facet normal  0.000000e+000  9.569396e-001 -2.902869e-001
    outer loop
      vertex  6.078782e+001 -1.847759e+000  2.307654e+002
      vertex  6.278782e+001 -1.961571e+000  2.303902e+002
      vertex  6.078782e+001 -1.961571e+000  2.303902e+002
    endloop
  endfacet
  facet normal  0.000000e+000  9.951848e-001 -9.801684e-002
    outer loop
      vertex  6.078782e+001 -1.961571e+000  2.303902e+002
      vertex  6.278782e+001 -1.961571e+000  2.303902e+002
      vertex  6.278782e+001 -2.000000e+000  2.300000e+002
    endloop
  endfacet
  facet normal  0.000000e+000  9.951848e-001 -9.801684e-002
    outer loop
      vertex  6.078782e+001 -1.961571e+000  2.303902e+002
      vertex  6.278782e+001 -2.000000e+000  2.300000e+002
      vertex  6.078782e+001 -2.000000e+000  2.300000e+002
    endloop
  endfacet
  facet normal  -0.000000e+000  9.803596e-002  9.951829e-001
    outer loop
      vertex  6.278782e+001  0.000000e+000  2.280000e+002
      vertex  6.078782e+001 -3.901806e-001  2.280384e+002
      vertex  6.278782e+001 -3.901806e-001  2.280384e+002
    endloop
  endfacet
  facet normal  0.000000e+000  2.902580e-001  9.569485e-001
    outer loop
      vertex  6.278782e+001 -3.901806e-001  2.280384e+002
      vertex  6.078782e+001 -3.901806e-001  2.280384e+002
      vertex  6.078782e+001 -7.653669e-001  2.281522e+002
    endloop
  endfacet
  facet normal  -0.000000e+000  2.902580e-001  9.569485e-001
    outer loop
      vertex  6.278782e+001 -3.901806e-001  2.280384e+002
      vertex  6.078782e+001 -7.653669e-001  2.281522e+002
      vertex  6.278782e+001 -7.653669e-001  2.281522e+002
    endloop
  endfacet
  facet normal  0.000000e+000  4.714163e-001  8.819108e-001
    outer loop
      vertex  6.278782e+001 -7.653669e-001  2.281522e+002
      vertex  6.078782e+001 -7.653669e-001  2.281522e+002
      vertex  6.078782e+001 -1.111140e+000  2.283371e+002
    endloop
  endfacet
  facet normal  -0.000000e+000  4.714163e-001  8.819108e-001
    outer loop
      vertex  6.278782e+001 -7.653669e-001  2.281522e+002
      vertex  6.078782e+001 -1.111140e+000  2.283371e+002
      vertex  6.278782e+001 -1.111140e+000  2.283371e+002
    endloop
  endfacet
  facet normal  0.000000e+000  6.343821e-001  7.730197e-001
    outer loop
      vertex  6.278782e+001 -1.111140e+000  2.283371e+002
      vertex  6.078782e+001 -1.111140e+000  2.283371e+002
      vertex  6.078782e+001 -1.414214e+000  2.285858e+002
    endloop
  endfacet
  facet normal  -0.000000e+000  6.343821e-001  7.730197e-001
    outer loop
      vertex  6.278782e+001 -1.111140e+000  2.283371e+002
      vertex  6.078782e+001 -1.414214e+000  2.285858e+002
      vertex  6.278782e+001 -1.414214e+000  2.285858e+002
    endloop
  endfacet
  facet normal  0.000000e+000  7.730073e-001  6.343970e-001
    outer loop
      vertex  6.278782e+001 -1.414214e+000  2.285858e+002
      vertex  6.078782e+001 -1.414214e+000  2.285858e+002
      vertex  6.078782e+001 -1.662939e+000  2.288889e+002
    endloop
  endfacet
  facet normal  -0.000000e+000  7.730073e-001  6.343970e-001
    outer loop
      vertex  6.278782e+001 -1.414214e+000  2.285858e+002
      vertex  6.078782e+001 -1.662939e+000  2.288889e+002
      vertex  6.278782e+001 -1.662939e+000  2.288889e+002
    endloop
  endfacet
  facet normal  0.000000e+000  8.819246e-001  4.713905e-001
    outer loop
      vertex  6.278782e+001 -1.662939e+000  2.288889e+002
      vertex  6.078782e+001 -1.662939e+000  2.288889e+002
      vertex  6.078782e+001 -1.847759e+000  2.292346e+002
    endloop
  endfacet
  facet normal  -0.000000e+000  8.819246e-001  4.713905e-001
    outer loop
      vertex  6.278782e+001 -1.662939e+000  2.288889e+002
      vertex  6.078782e+001 -1.847759e+000  2.292346e+002
      vertex  6.278782e+001 -1.847759e+000  2.292346e+002
    endloop
  endfacet
  facet normal  0.000000e+000  9.569396e-001  2.902869e-001
    outer loop
      vertex  6.278782e+001 -1.847759e+000  2.292346e+002
      vertex  6.078782e+001 -1.847759e+000  2.292346e+002
      vertex  6.078782e+001 -1.961571e+000  2.296098e+002
    endloop
  endfacet
  facet normal  -0.000000e+000  9.569396e-001  2.902869e-001
    outer loop
      vertex  6.278782e+001 -1.847759e+000  2.292346e+002
      vertex  6.078782e+001 -1.961571e+000  2.296098e+002
      vertex  6.278782e+001 -1.961571e+000  2.296098e+002
    endloop
  endfacet
  facet normal  0.000000e+000  9.951848e-001  9.801684e-002
    outer loop
      vertex  6.278782e+001 -1.961571e+000  2.296098e+002
      vertex  6.078782e+001 -1.961571e+000  2.296098e+002
      vertex  6.078782e+001 -2.000000e+000  2.300000e+002
    endloop
  endfacet
  facet normal  -0.000000e+000  9.951848e-001  9.801684e-002
    outer loop
      vertex  6.278782e+001 -1.961571e+000  2.296098e+002
      vertex  6.078782e+001 -2.000000e+000  2.300000e+002
      vertex  6.278782e+001 -2.000000e+000  2.300000e+002
    endloop
  endfacet
  facet normal  0.000000e+000  9.803596e-002  9.951829e-001
    outer loop
      vertex  6.078782e+001 -3.901806e-001  2.280384e+002
      vertex  6.278782e+001  0.000000e+000  2.280000e+002
      vertex  6.078782e+001  0.000000e+000  2.280000e+002
    endloop
  endfacet
  facet normal  0.000000e+000 -9.803596e-002  9.951829e-001
    outer loop
      vertex  6.078782e+001  0.000000e+000  2.280000e+002
      vertex  6.278782e+001  0.000000e+000  2.280000e+002
      vertex  6.278782e+001  3.901806e-001  2.280384e+002
    endloop
  endfacet
  facet normal  0.000000e+000 -9.803596e-002  9.951829e-001
    outer loop
      vertex  6.078782e+001  0.000000e+000  2.280000e+002
      vertex  6.278782e+001  3.901806e-001  2.280384e+002
      vertex  6.078782e+001  3.901806e-001  2.280384e+002
    endloop
  endfacet
  facet normal  0.000000e+000 -2.902580e-001  9.569485e-001
    outer loop
      vertex  6.078782e+001  3.901806e-001  2.280384e+002
      vertex  6.278782e+001  3.901806e-001  2.280384e+002
      vertex  6.278782e+001  7.653669e-001  2.281522e+002
    endloop
  endfacet
  facet normal  0.000000e+000 -2.902580e-001  9.569485e-001
    outer loop
      vertex  6.078782e+001  3.901806e-001  2.280384e+002
      vertex  6.278782e+001  7.653669e-001  2.281522e+002
      vertex  6.078782e+001  7.653669e-001  2.281522e+002
    endloop
  endfacet
  facet normal  0.000000e+000 -4.714163e-001  8.819108e-001
    outer loop
      vertex  6.078782e+001  7.653669e-001  2.281522e+002
      vertex  6.278782e+001  7.653669e-001  2.281522e+002
      vertex  6.278782e+001  1.111140e+000  2.283371e+002
    endloop
  endfacet
  facet normal  0.000000e+000 -4.714163e-001  8.819108e-001
    outer loop
      vertex  6.078782e+001  7.653669e-001  2.281522e+002
      vertex  6.278782e+001  1.111140e+000  2.283371e+002
      vertex  6.078782e+001  1.111140e+000  2.283371e+002
    endloop
  endfacet
  facet normal  0.000000e+000 -6.343821e-001  7.730197e-001
    outer loop
      vertex  6.078782e+001  1.111140e+000  2.283371e+002
      vertex  6.278782e+001  1.111140e+000  2.283371e+002
      vertex  6.278782e+001  1.414214e+000  2.285858e+002
    endloop
  endfacet
  facet normal  0.000000e+000 -6.343821e-001  7.730197e-001
    outer loop
      vertex  6.078782e+001  1.111140e+000  2.283371e+002
      vertex  6.278782e+001  1.414214e+000  2.285858e+002
      vertex  6.078782e+001  1.414214e+000  2.285858e+002
    endloop
  endfacet
  facet normal  0.000000e+000 -7.730073e-001  6.343970e-001
    outer loop
      vertex  6.078782e+001  1.414214e+000  2.285858e+002
      vertex  6.278782e+001  1.414214e+000  2.285858e+002
      vertex  6.278782e+001  1.662939e+000  2.288889e+002
    endloop
  endfacet
  facet normal  0.000000e+000 -7.730073e-001  6.343970e-001
    outer loop
      vertex  6.078782e+001  1.414214e+000  2.285858e+002
      vertex  6.278782e+001  1.662939e+000  2.288889e+002
      vertex  6.078782e+001  1.662939e+000  2.288889e+002
    endloop
  endfacet
  facet normal  0.000000e+000 -8.819246e-001  4.713905e-001
    outer loop
      vertex  6.078782e+001  1.662939e+000  2.288889e+002
      vertex  6.278782e+001  1.662939e+000  2.288889e+002
      vertex  6.278782e+001  1.847759e+000  2.292346e+002
    endloop
  endfacet
  facet normal  0.000000e+000 -8.819246e-001  4.713905e-001
    outer loop
      vertex  6.078782e+001  1.662939e+000  2.288889e+002
      vertex  6.278782e+001  1.847759e+000  2.292346e+002
      vertex  6.078782e+001  1.847759e+000  2.292346e+002
    endloop
  endfacet
  facet normal  0.000000e+000 -9.569396e-001  2.902869e-001
    outer loop
      vertex  6.078782e+001  1.847759e+000  2.292346e+002
      vertex  6.278782e+001  1.847759e+000  2.292346e+002
      vertex  6.278782e+001  1.961571e+000  2.296098e+002
    endloop
  endfacet
  facet normal  0.000000e+000 -9.569396e-001  2.902869e-001
    outer loop
      vertex  6.078782e+001  1.847759e+000  2.292346e+002
      vertex  6.278782e+001  1.961571e+000  2.296098e+002
      vertex  6.078782e+001  1.961571e+000  2.296098e+002
    endloop
  endfacet
  facet normal  0.000000e+000 -9.951848e-001  9.801684e-002
    outer loop
      vertex  6.078782e+001  1.961571e+000  2.296098e+002
      vertex  6.278782e+001  1.961571e+000  2.296098e+002
      vertex  6.278782e+001  2.000000e+000  2.300000e+002
    endloop
  endfacet
  facet normal  0.000000e+000 -9.951848e-001  9.801684e-002
    outer loop
      vertex  6.078782e+001  1.961571e+000  2.296098e+002
      vertex  6.278782e+001  2.000000e+000  2.300000e+002
      vertex  6.078782e+001  2.000000e+000  2.300000e+002
    endloop
  endfacet
  facet normal  0.000000e+000  0.000000e+000  1.000000e+000
    outer loop
      vertex  6.278782e+001 -3.337337e+001  2.500000e+002
      vertex  6.078782e+001 -3.532399e+001  2.500000e+002
      vertex  6.180202e+001 -3.436323e+001  2.500000e+002
    endloop
  endfacet
  facet normal  0.000000e+000  0.000000e+000  1.000000e+000
    outer loop
      vertex  6.078782e+001 -3.532399e+001  2.500000e+002
      vertex  6.278782e+001 -3.337337e+001  2.500000e+002
      vertex  6.078782e+001  3.532302e+001  2.500000e+002
    endloop
  endfacet
  facet normal  0.000000e+000  0.000000e+000  1.000000e+000
    outer loop
      vertex  6.078782e+001  3.532302e+001  2.500000e+002
      vertex  6.278782e+001 -3.337337e+001  2.500000e+002
      vertex  6.278782e+001  3.337241e+001  2.500000e+002
    endloop
  endfacet
  facet normal  0.000000e+000  0.000000e+000  1.000000e+000
    outer loop
      vertex  6.078782e+001  3.532302e+001  2.500000e+002
      vertex  6.278782e+001  3.337241e+001  2.500000e+002
      vertex  6.180202e+001  3.436227e+001  2.500000e+002
    endloop
  endfacet
endsolid CATIA STL
