solid CATIA STL
  facet normal  -0.000000e+000  1.000000e+000  0.000000e+000
    outer loop
      vertex -6.202926e+001  3.623814e+003 -4.135307e+001
      vertex -6.402903e+001  3.623814e+003 -4.132287e+001
      vertex -6.395921e+001  3.623814e+003 -3.669945e+001
    endloop
  endfacet
  facet normal  -0.000000e+000  1.000000e+000  0.000000e+000
    outer loop
      vertex -6.202926e+001  3.623814e+003 -4.135307e+001
      vertex -6.395921e+001  3.623814e+003 -3.669945e+001
      vertex -6.382001e+001  3.623814e+003 -2.748200e+001
    endloop
  endfacet
  facet normal  -0.000000e+000  1.000000e+000  0.000000e+000
    outer loop
      vertex -6.202926e+001  3.623814e+003 -4.135307e+001
      vertex -6.382001e+001  3.623814e+003 -2.748200e+001
      vertex -6.359955e+001  3.623814e+003 -1.288367e+001
    endloop
  endfacet
  facet normal  -0.000000e+000  1.000000e+000  0.000000e+000
    outer loop
      vertex -6.202926e+001  3.623814e+003 -4.135307e+001
      vertex -6.359955e+001  3.623814e+003 -1.288367e+001
      vertex -6.346035e+001  3.623814e+003 -3.666216e+000
    endloop
  endfacet
  facet normal  -0.000000e+000  1.000000e+000  0.000000e+000
    outer loop
      vertex -6.202926e+001  3.623814e+003 -4.135307e+001
      vertex -6.346035e+001  3.623814e+003 -3.666216e+000
      vertex -6.339053e+001  3.623814e+003  9.573113e-001
    endloop
  endfacet
  facet normal  0.000000e+000  1.000000e+000  0.000000e+000
    outer loop
      vertex -6.202926e+001  3.623814e+003 -4.135307e+001
      vertex -6.339053e+001  3.623814e+003  9.573113e-001
      vertex -6.139075e+001  3.623814e+003  9.271111e-001
    endloop
  endfacet
  facet normal  0.000000e+000  1.000000e+000  -0.000000e+000
    outer loop
      vertex -6.382001e+001  3.623814e+003 -2.748200e+001
      vertex -6.395921e+001  3.623814e+003 -3.669945e+001
      vertex -6.531984e+001  3.623814e+003 -2.745935e+001
    endloop
  endfacet
  facet normal  0.000000e+000  1.000000e+000  0.000000e+000
    outer loop
      vertex -6.531984e+001  3.623814e+003 -2.745935e+001
      vertex -6.395921e+001  3.623814e+003 -3.669945e+001
      vertex -6.610521e+001  3.623814e+003 -2.854499e+001
    endloop
  endfacet
  facet normal  0.000000e+000  1.000000e+000  0.000000e+000
    outer loop
      vertex -6.531984e+001  3.623814e+003 -2.745935e+001
      vertex -6.610521e+001  3.623814e+003 -2.854499e+001
      vertex -6.509938e+001  3.623814e+003 -1.286101e+001
    endloop
  endfacet
  facet normal  0.000000e+000  1.000000e+000  0.000000e+000
    outer loop
      vertex -6.509938e+001  3.623814e+003 -1.286101e+001
      vertex -6.610521e+001  3.623814e+003 -2.854499e+001
      vertex -6.674300e+001  3.623814e+003 -2.013703e+001
    endloop
  endfacet
  facet normal  0.000000e+000  9.999999e-001  0.000000e+000
    outer loop
      vertex -6.509938e+001  3.623814e+003 -1.286101e+001
      vertex -6.674300e+001  3.623814e+003 -2.013703e+001
      vertex -6.585161e+001  3.623814e+003 -1.175216e+001
    endloop
  endfacet
  facet normal  0.000000e+000  1.000000e+000  -0.000000e+000
    outer loop
      vertex -6.346035e+001  3.623814e+003 -3.666216e+000
      vertex -6.359955e+001  3.623814e+003 -1.288367e+001
      vertex -6.585161e+001  3.623814e+003 -1.175216e+001
    endloop
  endfacet
  facet normal  0.000000e+000  1.000000e+000  0.000000e+000
    outer loop
      vertex -6.585161e+001  3.623814e+003 -1.175216e+001
      vertex -6.359955e+001  3.623814e+003 -1.288367e+001
      vertex -6.509938e+001  3.623814e+003 -1.286101e+001
    endloop
  endfacet
  facet normal  1.510045e-002  0.000000e+000  9.998859e-001
    outer loop
      vertex -6.359955e+001  3.623814e+003 -1.288367e+001
      vertex -6.359955e+001  3.643814e+003 -1.288367e+001
      vertex -6.509938e+001  3.623814e+003 -1.286101e+001
    endloop
  endfacet
  facet normal  1.510045e-002  -0.000000e+000  9.998859e-001
    outer loop
      vertex -6.509938e+001  3.623814e+003 -1.286101e+001
      vertex -6.359955e+001  3.643814e+003 -1.288367e+001
      vertex -6.509938e+001  3.643814e+003 -1.286101e+001
    endloop
  endfacet
  facet normal -9.998860e-001  0.000000e+000  1.509993e-002
    outer loop
      vertex -6.531984e+001  3.623814e+003 -2.745935e+001
      vertex -6.509938e+001  3.623814e+003 -1.286101e+001
      vertex -6.531984e+001  3.643814e+003 -2.745935e+001
    endloop
  endfacet
  facet normal -9.998860e-001  0.000000e+000  1.509993e-002
    outer loop
      vertex -6.531984e+001  3.643814e+003 -2.745935e+001
      vertex -6.509938e+001  3.623814e+003 -1.286101e+001
      vertex -6.509938e+001  3.643814e+003 -1.286101e+001
    endloop
  endfacet
  facet normal -1.509985e-002  -0.000000e+000 -9.998860e-001
    outer loop
      vertex -6.531984e+001  3.623814e+003 -2.745935e+001
      vertex -6.531984e+001  3.643814e+003 -2.745935e+001
      vertex -6.382001e+001  3.623814e+003 -2.748200e+001
    endloop
  endfacet
  facet normal -1.509985e-002  0.000000e+000 -9.998860e-001
    outer loop
      vertex -6.382001e+001  3.623814e+003 -2.748200e+001
      vertex -6.531984e+001  3.643814e+003 -2.745935e+001
      vertex -6.382001e+001  3.643814e+003 -2.748200e+001
    endloop
  endfacet
  facet normal  9.998860e-001  0.000000e+000 -1.510019e-002
    outer loop
      vertex -6.382001e+001  3.623814e+003 -2.748200e+001
      vertex -6.382001e+001  3.643814e+003 -2.748200e+001
      vertex -6.359955e+001  3.623814e+003 -1.288367e+001
    endloop
  endfacet
  facet normal  9.998860e-001  0.000000e+000 -1.510019e-002
    outer loop
      vertex -6.359955e+001  3.623814e+003 -1.288367e+001
      vertex -6.382001e+001  3.643814e+003 -2.748200e+001
      vertex -6.359955e+001  3.643814e+003 -1.288367e+001
    endloop
  endfacet
  facet normal  0.000000e+000  1.000000e+000  -0.000000e+000
    outer loop
      vertex -6.359955e+001  3.643814e+003 -1.288367e+001
      vertex -6.382001e+001  3.643814e+003 -2.748200e+001
      vertex -6.509938e+001  3.643814e+003 -1.286101e+001
    endloop
  endfacet
  facet normal  0.000000e+000  1.000000e+000  0.000000e+000
    outer loop
      vertex -6.509938e+001  3.643814e+003 -1.286101e+001
      vertex -6.382001e+001  3.643814e+003 -2.748200e+001
      vertex -6.531984e+001  3.643814e+003 -2.745935e+001
    endloop
  endfacet
  facet normal -9.670721e-001  0.000000e+000 -2.545028e-001
    outer loop
      vertex -6.395921e+001  3.623814e+003 -3.669945e+001
      vertex -6.395921e+001  3.603814e+003 -3.669945e+001
      vertex -6.610521e+001  3.623814e+003 -2.854499e+001
    endloop
  endfacet
  facet normal -9.670721e-001  -0.000000e+000 -2.545028e-001
    outer loop
      vertex -6.610521e+001  3.623814e+003 -2.854499e+001
      vertex -6.395921e+001  3.603814e+003 -3.669945e+001
      vertex -6.610521e+001  3.603814e+003 -2.854499e+001
    endloop
  endfacet
  facet normal -9.971353e-001  0.000000e+000 -7.563873e-002
    outer loop
      vertex -6.610521e+001  3.623814e+003 -2.854499e+001
      vertex -6.610521e+001  3.603814e+003 -2.854499e+001
      vertex -6.674300e+001  3.623814e+003 -2.013703e+001
    endloop
  endfacet
  facet normal -9.971353e-001  -0.000000e+000 -7.563873e-002
    outer loop
      vertex -6.674300e+001  3.623814e+003 -2.013703e+001
      vertex -6.610521e+001  3.603814e+003 -2.854499e+001
      vertex -6.674300e+001  3.603814e+003 -2.013703e+001
    endloop
  endfacet
  facet normal -9.943966e-001  0.000000e+000  1.057143e-001
    outer loop
      vertex -6.674300e+001  3.623814e+003 -2.013703e+001
      vertex -6.674300e+001  3.603814e+003 -2.013703e+001
      vertex -6.585161e+001  3.623814e+003 -1.175216e+001
    endloop
  endfacet
  facet normal -9.943966e-001  0.000000e+000  1.057143e-001
    outer loop
      vertex -6.585161e+001  3.623814e+003 -1.175216e+001
      vertex -6.674300e+001  3.603814e+003 -2.013703e+001
      vertex -6.585161e+001  3.603814e+003 -1.175216e+001
    endloop
  endfacet
  facet normal -9.589458e-001  0.000000e+000  2.835894e-001
    outer loop
      vertex -6.585161e+001  3.623814e+003 -1.175216e+001
      vertex -6.585161e+001  3.603814e+003 -1.175216e+001
      vertex -6.346035e+001  3.623814e+003 -3.666216e+000
    endloop
  endfacet
  facet normal -9.589458e-001  0.000000e+000  2.835894e-001
    outer loop
      vertex -6.346035e+001  3.623814e+003 -3.666216e+000
      vertex -6.585161e+001  3.603814e+003 -1.175216e+001
      vertex -6.346035e+001  3.603814e+003 -3.666216e+000
    endloop
  endfacet
  facet normal -9.998860e-001  0.000000e+000  1.509891e-002
    outer loop
      vertex -6.402903e+001  3.450814e+003 -4.132287e+001
      vertex -6.395921e+001  3.623814e+003 -3.669945e+001
      vertex -6.402903e+001  3.623814e+003 -4.132287e+001
    endloop
  endfacet
  facet normal -9.998860e-001  0.000000e+000  1.509891e-002
    outer loop
      vertex -6.395921e+001  3.623814e+003 -3.669945e+001
      vertex -6.402903e+001  3.450814e+003 -4.132287e+001
      vertex -6.395921e+001  3.603814e+003 -3.669945e+001
    endloop
  endfacet
  facet normal -9.998860e-001 -3.322014e-008  1.510001e-002
    outer loop
      vertex -6.395921e+001  3.603814e+003 -3.669945e+001
      vertex -6.402903e+001  3.450814e+003 -4.132287e+001
      vertex -6.339053e+001  3.450814e+003  9.573113e-001
    endloop
  endfacet
  facet normal -9.998860e-001 -2.355429e-009  1.510014e-002
    outer loop
      vertex -6.395921e+001  3.603814e+003 -3.669945e+001
      vertex -6.339053e+001  3.450814e+003  9.573113e-001
      vertex -6.346035e+001  3.603814e+003 -3.666216e+000
    endloop
  endfacet
  facet normal -9.998860e-001  0.000000e+000  1.510022e-002
    outer loop
      vertex -6.346035e+001  3.603814e+003 -3.666216e+000
      vertex -6.339053e+001  3.450814e+003  9.573113e-001
      vertex -6.339053e+001  3.623814e+003  9.573113e-001
    endloop
  endfacet
  facet normal -9.998860e-001  0.000000e+000  1.510022e-002
    outer loop
      vertex -6.346035e+001  3.603814e+003 -3.666216e+000
      vertex -6.339053e+001  3.623814e+003  9.573113e-001
      vertex -6.346035e+001  3.623814e+003 -3.666216e+000
    endloop
  endfacet
  facet normal  0.000000e+000 -1.000000e+000  0.000000e+000
    outer loop
      vertex -6.346035e+001  3.603814e+003 -3.666216e+000
      vertex -6.585161e+001  3.603814e+003 -1.175216e+001
      vertex -6.370978e+001  3.603814e+003 -2.018283e+001
    endloop
  endfacet
  facet normal  0.000000e+000 -1.000000e+000  0.000000e+000
    outer loop
      vertex -6.370978e+001  3.603814e+003 -2.018283e+001
      vertex -6.585161e+001  3.603814e+003 -1.175216e+001
      vertex -6.674300e+001  3.603814e+003 -2.013703e+001
    endloop
  endfacet
  facet normal  0.000000e+000 -1.000000e+000  0.000000e+000
    outer loop
      vertex -6.370978e+001  3.603814e+003 -2.018283e+001
      vertex -6.674300e+001  3.603814e+003 -2.013703e+001
      vertex -6.395921e+001  3.603814e+003 -3.669945e+001
    endloop
  endfacet
  facet normal  0.000000e+000 -9.999999e-001  0.000000e+000
    outer loop
      vertex -6.395921e+001  3.603814e+003 -3.669945e+001
      vertex -6.674300e+001  3.603814e+003 -2.013703e+001
      vertex -6.610521e+001  3.603814e+003 -2.854499e+001
    endloop
  endfacet
  facet normal  9.998860e-001  0.000000e+000 -1.510010e-002
    outer loop
      vertex -6.202926e+001  3.450814e+003 -4.135307e+001
      vertex -6.202926e+001  3.623814e+003 -4.135307e+001
      vertex -6.139075e+001  3.450814e+003  9.271111e-001
    endloop
  endfacet
  facet normal  9.998860e-001  0.000000e+000 -1.510010e-002
    outer loop
      vertex -6.139075e+001  3.450814e+003  9.271111e-001
      vertex -6.202926e+001  3.623814e+003 -4.135307e+001
      vertex -6.139075e+001  3.623814e+003  9.271111e-001
    endloop
  endfacet
  facet normal -1.510051e-002  0.000000e+000 -9.998860e-001
    outer loop
      vertex -6.402903e+001  3.623814e+003 -4.132287e+001
      vertex -6.202926e+001  3.623814e+003 -4.135307e+001
      vertex -6.402903e+001  3.450814e+003 -4.132287e+001
    endloop
  endfacet
  facet normal -1.510051e-002  0.000000e+000 -9.998860e-001
    outer loop
      vertex -6.402903e+001  3.450814e+003 -4.132287e+001
      vertex -6.202926e+001  3.623814e+003 -4.135307e+001
      vertex -6.202926e+001  3.450814e+003 -4.135307e+001
    endloop
  endfacet
  facet normal  0.000000e+000 -1.000000e+000  0.000000e+000
    outer loop
      vertex -6.402903e+001  3.450814e+003 -4.132287e+001
      vertex -6.202926e+001  3.450814e+003 -4.135307e+001
      vertex -6.339053e+001  3.450814e+003  9.573113e-001
    endloop
  endfacet
  facet normal  0.000000e+000 -1.000000e+000  0.000000e+000
    outer loop
      vertex -6.339053e+001  3.450814e+003  9.573113e-001
      vertex -6.202926e+001  3.450814e+003 -4.135307e+001
      vertex -6.139075e+001  3.450814e+003  9.271111e-001
    endloop
  endfacet
  facet normal  1.510007e-002  0.000000e+000  9.998860e-001
    outer loop
      vertex -6.339053e+001  3.450814e+003  9.573113e-001
      vertex -6.139075e+001  3.450814e+003  9.271111e-001
      vertex -6.339053e+001  3.623814e+003  9.573113e-001
    endloop
  endfacet
  facet normal  1.510007e-002  0.000000e+000  9.998860e-001
    outer loop
      vertex -6.339053e+001  3.623814e+003  9.573113e-001
      vertex -6.139075e+001  3.450814e+003  9.271111e-001
      vertex -6.139075e+001  3.623814e+003  9.271111e-001
    endloop
  endfacet
endsolid CATIA STL
