solid CATIA STL
  facet normal  0.000000e+000 -9.999999e-001  0.000000e+000
    outer loop
      vertex  3.500000e+000  1.730000e+002  1.384250e+001
      vertex  2.000000e+000  1.730000e+002  1.384250e+001
      vertex  2.000000e+000  1.730000e+002  4.623873e+000
    endloop
  endfacet
  facet normal  0.000000e+000 -1.000000e+000  0.000000e+000
    outer loop
      vertex  3.500000e+000  1.730000e+002  1.384250e+001
      vertex  2.000000e+000  1.730000e+002  4.623873e+000
      vertex  3.289403e+000  1.730000e+002  8.638291e+000
    endloop
  endfacet
  facet normal  0.000000e+000 -1.000000e+000  0.000000e+000
    outer loop
      vertex  3.500000e+000  1.730000e+002  1.384250e+001
      vertex  3.289403e+000  1.730000e+002  8.638291e+000
      vertex  4.217732e+000  1.730000e+002  1.275124e+001
    endloop
  endfacet
  facet normal  0.000000e+000 -1.000000e+000  0.000000e+000
    outer loop
      vertex  3.500000e+000  1.730000e+002  1.384250e+001
      vertex  4.217732e+000  1.730000e+002  1.275124e+001
      vertex  4.777672e+000  1.730000e+002  1.693030e+001
    endloop
  endfacet
  facet normal  -0.000000e+000 -1.000000e+000  0.000000e+000
    outer loop
      vertex  3.500000e+000  1.730000e+002  1.384250e+001
      vertex  4.777672e+000  1.730000e+002  1.693030e+001
      vertex  4.964810e+000  1.730000e+002  2.114256e+001
    endloop
  endfacet
  facet normal  -0.000000e+000 -1.000000e+000  0.000000e+000
    outer loop
      vertex  3.500000e+000  1.730000e+002  1.384250e+001
      vertex  4.964810e+000  1.730000e+002  2.114256e+001
      vertex  4.777672e+000  1.730000e+002  2.535481e+001
    endloop
  endfacet
  facet normal  -0.000000e+000 -1.000000e+000  0.000000e+000
    outer loop
      vertex  3.500000e+000  1.730000e+002  1.384250e+001
      vertex  4.777672e+000  1.730000e+002  2.535481e+001
      vertex  4.217732e+000  1.730000e+002  2.953387e+001
    endloop
  endfacet
  facet normal  0.000000e+000 -1.000000e+000  0.000000e+000
    outer loop
      vertex  3.500000e+000  1.730000e+002  1.384250e+001
      vertex  4.217732e+000  1.730000e+002  2.953387e+001
      vertex  3.500000e+000  1.730000e+002  2.844250e+001
    endloop
  endfacet
  facet normal  0.000000e+000 -1.000000e+000  0.000000e+000
    outer loop
      vertex -4.440892e-015  1.730000e+002  4.228500e+001
      vertex  0.000000e+000  1.730000e+002  0.000000e+000
      vertex  2.000000e+000  1.730000e+002  2.000000e+000
    endloop
  endfacet
  facet normal  0.000000e+000 -1.000000e+000  0.000000e+000
    outer loop
      vertex -4.440892e-015  1.730000e+002  4.228500e+001
      vertex  2.000000e+000  1.730000e+002  2.000000e+000
      vertex  2.000000e+000  1.730000e+002  4.623873e+000
    endloop
  endfacet
  facet normal  0.000000e+000 -1.000000e+000  0.000000e+000
    outer loop
      vertex -4.440892e-015  1.730000e+002  4.228500e+001
      vertex  2.000000e+000  1.730000e+002  4.623873e+000
      vertex  2.000000e+000  1.730000e+002  1.384250e+001
    endloop
  endfacet
  facet normal  0.000000e+000 -9.999999e-001  0.000000e+000
    outer loop
      vertex -4.440892e-015  1.730000e+002  4.228500e+001
      vertex  2.000000e+000  1.730000e+002  1.384250e+001
      vertex  2.000000e+000  1.730000e+002  2.844250e+001
    endloop
  endfacet
  facet normal  0.000000e+000 -1.000000e+000  0.000000e+000
    outer loop
      vertex -4.440892e-015  1.730000e+002  4.228500e+001
      vertex  2.000000e+000  1.730000e+002  2.844250e+001
      vertex  2.000000e+000  1.730000e+002  3.766124e+001
    endloop
  endfacet
  facet normal  0.000000e+000 -1.000000e+000  0.000000e+000
    outer loop
      vertex -4.440892e-015  1.730000e+002  4.228500e+001
      vertex  2.000000e+000  1.730000e+002  3.766124e+001
      vertex  2.000000e+000  1.730000e+002  4.028500e+001
    endloop
  endfacet
  facet normal  0.000000e+000 -1.000000e+000  0.000000e+000
    outer loop
      vertex  2.000000e+000  1.730000e+002  3.766124e+001
      vertex  2.000000e+000  1.730000e+002  2.844250e+001
      vertex  3.289403e+000  1.730000e+002  3.364682e+001
    endloop
  endfacet
  facet normal  0.000000e+000 -1.000000e+000  -0.000000e+000
    outer loop
      vertex  3.289403e+000  1.730000e+002  3.364682e+001
      vertex  2.000000e+000  1.730000e+002  2.844250e+001
      vertex  3.500000e+000  1.730000e+002  2.844250e+001
    endloop
  endfacet
  facet normal  0.000000e+000 -9.999999e-001  0.000000e+000
    outer loop
      vertex  3.289403e+000  1.730000e+002  3.364682e+001
      vertex  3.500000e+000  1.730000e+002  2.844250e+001
      vertex  4.217732e+000  1.730000e+002  2.953387e+001
    endloop
  endfacet
  facet normal  0.000000e+000  0.000000e+000  1.000000e+000
    outer loop
      vertex  2.000000e+000  1.730000e+002  2.844250e+001
      vertex  2.000000e+000  1.530000e+002  2.844250e+001
      vertex  3.500000e+000  1.730000e+002  2.844250e+001
    endloop
  endfacet
  facet normal  0.000000e+000  0.000000e+000  1.000000e+000
    outer loop
      vertex  3.500000e+000  1.730000e+002  2.844250e+001
      vertex  2.000000e+000  1.530000e+002  2.844250e+001
      vertex  3.500000e+000  1.530000e+002  2.844250e+001
    endloop
  endfacet
  facet normal  1.000000e+000  0.000000e+000  0.000000e+000
    outer loop
      vertex  3.500000e+000  1.730000e+002  1.384250e+001
      vertex  3.500000e+000  1.730000e+002  2.844250e+001
      vertex  3.500000e+000  1.530000e+002  1.384250e+001
    endloop
  endfacet
  facet normal  1.000000e+000  0.000000e+000  0.000000e+000
    outer loop
      vertex  3.500000e+000  1.530000e+002  1.384250e+001
      vertex  3.500000e+000  1.730000e+002  2.844250e+001
      vertex  3.500000e+000  1.530000e+002  2.844250e+001
    endloop
  endfacet
  facet normal  0.000000e+000  0.000000e+000 -1.000000e+000
    outer loop
      vertex  3.500000e+000  1.730000e+002  1.384250e+001
      vertex  3.500000e+000  1.530000e+002  1.384250e+001
      vertex  2.000000e+000  1.730000e+002  1.384250e+001
    endloop
  endfacet
  facet normal  0.000000e+000  0.000000e+000 -1.000000e+000
    outer loop
      vertex  2.000000e+000  1.730000e+002  1.384250e+001
      vertex  3.500000e+000  1.530000e+002  1.384250e+001
      vertex  2.000000e+000  1.530000e+002  1.384250e+001
    endloop
  endfacet
  facet normal -1.000000e+000  -0.000000e+000  0.000000e+000
    outer loop
      vertex  2.000000e+000  1.530000e+002  2.844250e+001
      vertex  2.000000e+000  1.730000e+002  2.844250e+001
      vertex  2.000000e+000  1.530000e+002  1.384250e+001
    endloop
  endfacet
  facet normal -1.000000e+000  0.000000e+000  0.000000e+000
    outer loop
      vertex  2.000000e+000  1.530000e+002  1.384250e+001
      vertex  2.000000e+000  1.730000e+002  2.844250e+001
      vertex  2.000000e+000  1.730000e+002  1.384250e+001
    endloop
  endfacet
  facet normal  0.000000e+000 -1.000000e+000  0.000000e+000
    outer loop
      vertex  2.000000e+000  1.530000e+002  1.384250e+001
      vertex  3.500000e+000  1.530000e+002  1.384250e+001
      vertex  2.000000e+000  1.530000e+002  2.844250e+001
    endloop
  endfacet
  facet normal  0.000000e+000 -1.000000e+000  0.000000e+000
    outer loop
      vertex  2.000000e+000  1.530000e+002  2.844250e+001
      vertex  3.500000e+000  1.530000e+002  1.384250e+001
      vertex  3.500000e+000  1.530000e+002  2.844250e+001
    endloop
  endfacet
  facet normal  1.000000e+000  -0.000000e+000  0.000000e+000
    outer loop
      vertex  2.000000e+000  3.460000e+002  4.028500e+001
      vertex  2.000000e+000  1.730000e+002  4.028500e+001
      vertex  2.000000e+000  1.730000e+002  3.766124e+001
    endloop
  endfacet
  facet normal  1.000000e+000  0.000000e+000  0.000000e+000
    outer loop
      vertex  2.000000e+000  3.460000e+002  4.028500e+001
      vertex  2.000000e+000  1.730000e+002  3.766124e+001
      vertex  2.000000e+000  1.930000e+002  3.766124e+001
    endloop
  endfacet
  facet normal  1.000000e+000  -0.000000e+000  0.000000e+000
    outer loop
      vertex  2.000000e+000  3.460000e+002  4.028500e+001
      vertex  2.000000e+000  1.930000e+002  3.766124e+001
      vertex  2.000000e+000  3.301772e+002  2.464250e+001
    endloop
  endfacet
  facet normal  1.000000e+000  -0.000000e+000  0.000000e+000
    outer loop
      vertex  2.000000e+000  3.460000e+002  4.028500e+001
      vertex  2.000000e+000  3.301772e+002  2.464250e+001
      vertex  2.000000e+000  3.312587e+002  2.447120e+001
    endloop
  endfacet
  facet normal  1.000000e+000  -0.000000e+000  0.000000e+000
    outer loop
      vertex  2.000000e+000  3.460000e+002  4.028500e+001
      vertex  2.000000e+000  3.312587e+002  2.447120e+001
      vertex  2.000000e+000  3.322344e+002  2.397406e+001
    endloop
  endfacet
  facet normal  1.000000e+000  -0.000000e+000  0.000000e+000
    outer loop
      vertex  2.000000e+000  3.460000e+002  4.028500e+001
      vertex  2.000000e+000  3.322344e+002  2.397406e+001
      vertex  2.000000e+000  3.330087e+002  2.319975e+001
    endloop
  endfacet
  facet normal  1.000000e+000  -0.000000e+000  0.000000e+000
    outer loop
      vertex  2.000000e+000  3.460000e+002  4.028500e+001
      vertex  2.000000e+000  3.330087e+002  2.319975e+001
      vertex  2.000000e+000  3.335058e+002  2.222406e+001
    endloop
  endfacet
  facet normal  1.000000e+000  -0.000000e+000  0.000000e+000
    outer loop
      vertex  2.000000e+000  3.460000e+002  4.028500e+001
      vertex  2.000000e+000  3.335058e+002  2.222406e+001
      vertex  2.000000e+000  3.336772e+002  2.114250e+001
    endloop
  endfacet
  facet normal  9.999999e-001  -0.000000e+000  0.000000e+000
    outer loop
      vertex  2.000000e+000  3.460000e+002  4.028500e+001
      vertex  2.000000e+000  3.336772e+002  2.114250e+001
      vertex  2.000000e+000  3.460000e+002  2.000000e+000
    endloop
  endfacet
  facet normal  1.000000e+000  0.000000e+000  0.000000e+000
    outer loop
      vertex  2.000000e+000  1.930000e+002  3.766124e+001
      vertex  2.000000e+000  1.930000e+002  4.623873e+000
      vertex  2.000000e+000  3.266772e+002  2.114250e+001
    endloop
  endfacet
  facet normal  1.000000e+000  0.000000e+000  -0.000000e+000
    outer loop
      vertex  2.000000e+000  1.930000e+002  3.766124e+001
      vertex  2.000000e+000  3.266772e+002  2.114250e+001
      vertex  2.000000e+000  3.268484e+002  2.222406e+001
    endloop
  endfacet
  facet normal  1.000000e+000  0.000000e+000  -0.000000e+000
    outer loop
      vertex  2.000000e+000  1.930000e+002  3.766124e+001
      vertex  2.000000e+000  3.268484e+002  2.222406e+001
      vertex  2.000000e+000  3.273456e+002  2.319975e+001
    endloop
  endfacet
  facet normal  1.000000e+000  0.000000e+000  -0.000000e+000
    outer loop
      vertex  2.000000e+000  1.930000e+002  3.766124e+001
      vertex  2.000000e+000  3.273456e+002  2.319975e+001
      vertex  2.000000e+000  3.281199e+002  2.397406e+001
    endloop
  endfacet
  facet normal  1.000000e+000  0.000000e+000  -0.000000e+000
    outer loop
      vertex  2.000000e+000  1.930000e+002  3.766124e+001
      vertex  2.000000e+000  3.281199e+002  2.397406e+001
      vertex  2.000000e+000  3.290956e+002  2.447120e+001
    endloop
  endfacet
  facet normal  1.000000e+000  0.000000e+000  -0.000000e+000
    outer loop
      vertex  2.000000e+000  1.930000e+002  3.766124e+001
      vertex  2.000000e+000  3.290956e+002  2.447120e+001
      vertex  2.000000e+000  3.301772e+002  2.464250e+001
    endloop
  endfacet
  facet normal  1.000000e+000  0.000000e+000  0.000000e+000
    outer loop
      vertex  2.000000e+000  1.930000e+002  4.623873e+000
      vertex  2.000000e+000  3.301772e+002  1.764250e+001
      vertex  2.000000e+000  3.290956e+002  1.781380e+001
    endloop
  endfacet
  facet normal  1.000000e+000  0.000000e+000  0.000000e+000
    outer loop
      vertex  2.000000e+000  1.930000e+002  4.623873e+000
      vertex  2.000000e+000  3.290956e+002  1.781380e+001
      vertex  2.000000e+000  3.281199e+002  1.831094e+001
    endloop
  endfacet
  facet normal  1.000000e+000  0.000000e+000  0.000000e+000
    outer loop
      vertex  2.000000e+000  1.930000e+002  4.623873e+000
      vertex  2.000000e+000  3.281199e+002  1.831094e+001
      vertex  2.000000e+000  3.273456e+002  1.908525e+001
    endloop
  endfacet
  facet normal  1.000000e+000  0.000000e+000  0.000000e+000
    outer loop
      vertex  2.000000e+000  1.930000e+002  4.623873e+000
      vertex  2.000000e+000  3.273456e+002  1.908525e+001
      vertex  2.000000e+000  3.268484e+002  2.006094e+001
    endloop
  endfacet
  facet normal  1.000000e+000  0.000000e+000  0.000000e+000
    outer loop
      vertex  2.000000e+000  1.930000e+002  4.623873e+000
      vertex  2.000000e+000  3.268484e+002  2.006094e+001
      vertex  2.000000e+000  3.266772e+002  2.114250e+001
    endloop
  endfacet
  facet normal  1.000000e+000  0.000000e+000  0.000000e+000
    outer loop
      vertex  2.000000e+000  3.460000e+002  2.000000e+000
      vertex  2.000000e+000  3.336772e+002  2.114250e+001
      vertex  2.000000e+000  3.335058e+002  2.006094e+001
    endloop
  endfacet
  facet normal  1.000000e+000  0.000000e+000  0.000000e+000
    outer loop
      vertex  2.000000e+000  3.460000e+002  2.000000e+000
      vertex  2.000000e+000  3.335058e+002  2.006094e+001
      vertex  2.000000e+000  3.330087e+002  1.908525e+001
    endloop
  endfacet
  facet normal  1.000000e+000  0.000000e+000  0.000000e+000
    outer loop
      vertex  2.000000e+000  3.460000e+002  2.000000e+000
      vertex  2.000000e+000  3.330087e+002  1.908525e+001
      vertex  2.000000e+000  3.322344e+002  1.831094e+001
    endloop
  endfacet
  facet normal  1.000000e+000  0.000000e+000  0.000000e+000
    outer loop
      vertex  2.000000e+000  3.460000e+002  2.000000e+000
      vertex  2.000000e+000  3.322344e+002  1.831094e+001
      vertex  2.000000e+000  3.312587e+002  1.781380e+001
    endloop
  endfacet
  facet normal  1.000000e+000  0.000000e+000  0.000000e+000
    outer loop
      vertex  2.000000e+000  3.460000e+002  2.000000e+000
      vertex  2.000000e+000  3.312587e+002  1.781380e+001
      vertex  2.000000e+000  3.301772e+002  1.764250e+001
    endloop
  endfacet
  facet normal  1.000000e+000  0.000000e+000  0.000000e+000
    outer loop
      vertex  2.000000e+000  3.460000e+002  2.000000e+000
      vertex  2.000000e+000  3.301772e+002  1.764250e+001
      vertex  2.000000e+000  1.930000e+002  4.623873e+000
    endloop
  endfacet
  facet normal  9.999999e-001  0.000000e+000  0.000000e+000
    outer loop
      vertex  2.000000e+000  3.460000e+002  2.000000e+000
      vertex  2.000000e+000  1.930000e+002  4.623873e+000
      vertex  2.000000e+000  1.730000e+002  4.623873e+000
    endloop
  endfacet
  facet normal  9.999999e-001  0.000000e+000  0.000000e+000
    outer loop
      vertex  2.000000e+000  3.460000e+002  2.000000e+000
      vertex  2.000000e+000  1.730000e+002  4.623873e+000
      vertex  2.000000e+000  1.730000e+002  2.000000e+000
    endloop
  endfacet
  facet normal -1.000000e+000  0.000000e+000  0.000000e+000
    outer loop
      vertex  0.000000e+000  3.460000e+002  0.000000e+000
      vertex  0.000000e+000  1.730000e+002  0.000000e+000
      vertex  0.000000e+000  3.305109e+002  1.968011e+001
    endloop
  endfacet
  facet normal -1.000000e+000  0.000000e+000  0.000000e+000
    outer loop
      vertex  0.000000e+000  3.460000e+002  0.000000e+000
      vertex  0.000000e+000  3.305109e+002  1.968011e+001
      vertex  0.000000e+000  3.311124e+002  1.996975e+001
    endloop
  endfacet
  facet normal -1.000000e+000  0.000000e+000  0.000000e+000
    outer loop
      vertex  0.000000e+000  3.460000e+002  0.000000e+000
      vertex  0.000000e+000  3.311124e+002  1.996975e+001
      vertex  0.000000e+000  3.315286e+002  2.049167e+001
    endloop
  endfacet
  facet normal -1.000000e+000  0.000000e+000  0.000000e+000
    outer loop
      vertex  0.000000e+000  3.460000e+002  0.000000e+000
      vertex  0.000000e+000  3.315286e+002  2.049167e+001
      vertex  0.000000e+000  3.316772e+002  2.114250e+001
    endloop
  endfacet
  facet normal -1.000000e+000 -1.550283e-016 -1.050229e-016
    outer loop
      vertex  0.000000e+000  3.460000e+002  0.000000e+000
      vertex  0.000000e+000  3.316772e+002  2.114250e+001
      vertex -4.440892e-015  3.460000e+002  4.228500e+001
    endloop
  endfacet
  facet normal -1.000000e+000  1.426315e-017 -1.050229e-016
    outer loop
      vertex  0.000000e+000  1.730000e+002  0.000000e+000
      vertex -4.440892e-015  1.730000e+002  4.228500e+001
      vertex  0.000000e+000  3.286772e+002  2.114250e+001
    endloop
  endfacet
  facet normal -9.999999e-001  0.000000e+000  -0.000000e+000
    outer loop
      vertex  0.000000e+000  1.730000e+002  0.000000e+000
      vertex  0.000000e+000  3.286772e+002  2.114250e+001
      vertex  0.000000e+000  3.288257e+002  2.049167e+001
    endloop
  endfacet
  facet normal -1.000000e+000  0.000000e+000  -0.000000e+000
    outer loop
      vertex  0.000000e+000  1.730000e+002  0.000000e+000
      vertex  0.000000e+000  3.288257e+002  2.049167e+001
      vertex  0.000000e+000  3.292419e+002  1.996975e+001
    endloop
  endfacet
  facet normal -1.000000e+000  0.000000e+000  -0.000000e+000
    outer loop
      vertex  0.000000e+000  1.730000e+002  0.000000e+000
      vertex  0.000000e+000  3.292419e+002  1.996975e+001
      vertex  0.000000e+000  3.298434e+002  1.968011e+001
    endloop
  endfacet
  facet normal -1.000000e+000  0.000000e+000  -0.000000e+000
    outer loop
      vertex  0.000000e+000  1.730000e+002  0.000000e+000
      vertex  0.000000e+000  3.298434e+002  1.968011e+001
      vertex  0.000000e+000  3.305109e+002  1.968011e+001
    endloop
  endfacet
  facet normal -1.000000e+000  -0.000000e+000 -2.256538e-016
    outer loop
      vertex -4.440892e-015  1.730000e+002  4.228500e+001
      vertex  0.000000e+000  3.305109e+002  2.260489e+001
      vertex  0.000000e+000  3.298434e+002  2.260489e+001
    endloop
  endfacet
  facet normal -1.000000e+000  2.246182e-017 -4.664122e-017
    outer loop
      vertex -4.440892e-015  1.730000e+002  4.228500e+001
      vertex  0.000000e+000  3.298434e+002  2.260489e+001
      vertex  0.000000e+000  3.292419e+002  2.231525e+001
    endloop
  endfacet
  facet normal -1.000000e+000  2.579399e-017 -2.057057e-017
    outer loop
      vertex -4.440892e-015  1.730000e+002  4.228500e+001
      vertex  0.000000e+000  3.292419e+002  2.231525e+001
      vertex  0.000000e+000  3.288257e+002  2.179333e+001
    endloop
  endfacet
  facet normal -9.999999e-001  2.766872e-017 -6.314457e-018
    outer loop
      vertex -4.440892e-015  1.730000e+002  4.228500e+001
      vertex  0.000000e+000  3.288257e+002  2.179333e+001
      vertex  0.000000e+000  3.286772e+002  2.114250e+001
    endloop
  endfacet
  facet normal -1.000000e+000 -2.319137e-016 -5.293738e-017
    outer loop
      vertex -4.440892e-015  3.460000e+002  4.228500e+001
      vertex  0.000000e+000  3.316772e+002  2.114250e+001
      vertex  0.000000e+000  3.315286e+002  2.179333e+001
    endloop
  endfacet
  facet normal -1.000000e+000 -1.441221e-016 -1.149366e-016
    outer loop
      vertex -4.440892e-015  3.460000e+002  4.228500e+001
      vertex  0.000000e+000  3.315286e+002  2.179333e+001
      vertex  0.000000e+000  3.311124e+002  2.231525e+001
    endloop
  endfacet
  facet normal -1.000000e+000 -7.880328e-017 -1.636323e-016
    outer loop
      vertex -4.440892e-015  3.460000e+002  4.228500e+001
      vertex  0.000000e+000  3.311124e+002  2.231525e+001
      vertex  0.000000e+000  3.305109e+002  2.260489e+001
    endloop
  endfacet
  facet normal -1.000000e+000  0.000000e+000 -2.256539e-016
    outer loop
      vertex -4.440892e-015  3.460000e+002  4.228500e+001
      vertex  0.000000e+000  3.305109e+002  2.260489e+001
      vertex -4.440892e-015  1.730000e+002  4.228500e+001
    endloop
  endfacet
  facet normal  7.112260e-001 -6.853358e-001  1.564370e-001
    outer loop
      vertex  0.000000e+000  3.315286e+002  2.049167e+001
      vertex  2.000000e+000  3.335058e+002  2.006094e+001
      vertex  0.000000e+000  3.316772e+002  2.114250e+001
    endloop
  endfacet
  facet normal  7.027123e-001 -7.027123e-001  1.113139e-001
    outer loop
      vertex  2.000000e+000  3.335058e+002  2.006094e+001
      vertex  2.000000e+000  3.336772e+002  2.114250e+001
      vertex  0.000000e+000  3.316772e+002  2.114250e+001
    endloop
  endfacet
  facet normal  7.027139e-001  7.027139e-001  1.112943e-001
    outer loop
      vertex  2.000000e+000  3.266772e+002  2.114250e+001
      vertex  2.000000e+000  3.268484e+002  2.006094e+001
      vertex  0.000000e+000  3.286772e+002  2.114250e+001
    endloop
  endfacet
  facet normal  7.112262e-001  6.853426e-001  1.564064e-001
    outer loop
      vertex  2.000000e+000  3.268484e+002  2.006094e+001
      vertex  0.000000e+000  3.288257e+002  2.049167e+001
      vertex  0.000000e+000  3.286772e+002  2.114250e+001
    endloop
  endfacet
  facet normal  6.994327e-001  6.368028e-001  3.244627e-001
    outer loop
      vertex  2.000000e+000  3.268484e+002  2.006094e+001
      vertex  2.000000e+000  3.273456e+002  1.908525e+001
      vertex  0.000000e+000  3.288257e+002  2.049167e+001
    endloop
  endfacet
  facet normal  7.010810e-001  5.042211e-001  5.042286e-001
    outer loop
      vertex  2.000000e+000  3.273456e+002  1.908525e+001
      vertex  2.000000e+000  3.281199e+002  1.831094e+001
      vertex  0.000000e+000  3.292419e+002  1.996975e+001
    endloop
  endfacet
  facet normal  7.130557e-001  5.481423e-001  4.371404e-001
    outer loop
      vertex  0.000000e+000  3.288257e+002  2.049167e+001
      vertex  2.000000e+000  3.273456e+002  1.908525e+001
      vertex  0.000000e+000  3.292419e+002  1.996975e+001
    endloop
  endfacet
  facet normal  6.999843e-001  1.117179e-001  7.053660e-001
    outer loop
      vertex  2.000000e+000  3.290956e+002  1.781380e+001
      vertex  2.000000e+000  3.301772e+002  1.764250e+001
      vertex  0.000000e+000  3.298434e+002  1.968011e+001
    endloop
  endfacet
  facet normal  7.081525e-001  3.063527e-001  6.361352e-001
    outer loop
      vertex  0.000000e+000  3.292419e+002  1.996975e+001
      vertex  2.000000e+000  3.290956e+002  1.781380e+001
      vertex  0.000000e+000  3.298434e+002  1.968011e+001
    endloop
  endfacet
  facet normal  7.048681e-001  3.220353e-001  6.320239e-001
    outer loop
      vertex  2.000000e+000  3.281199e+002  1.831094e+001
      vertex  2.000000e+000  3.290956e+002  1.781380e+001
      vertex  0.000000e+000  3.292419e+002  1.996975e+001
    endloop
  endfacet
  facet normal  6.999846e-001 -1.117210e-001  7.053651e-001
    outer loop
      vertex  2.000000e+000  3.301772e+002  1.764250e+001
      vertex  2.000000e+000  3.312587e+002  1.781380e+001
      vertex  0.000000e+000  3.305109e+002  1.968011e+001
    endloop
  endfacet
  facet normal  7.136623e-001  0.000000e+000  7.004899e-001
    outer loop
      vertex  0.000000e+000  3.298434e+002  1.968011e+001
      vertex  2.000000e+000  3.301772e+002  1.764250e+001
      vertex  0.000000e+000  3.305109e+002  1.968011e+001
    endloop
  endfacet
  facet normal  7.010835e-001 -5.042293e-001  5.042168e-001
    outer loop
      vertex  2.000000e+000  3.322344e+002  1.831094e+001
      vertex  2.000000e+000  3.330087e+002  1.908525e+001
      vertex  0.000000e+000  3.311124e+002  1.996975e+001
    endloop
  endfacet
  facet normal  7.037915e-001 -3.082389e-001  6.400518e-001
    outer loop
      vertex  0.000000e+000  3.305109e+002  1.968011e+001
      vertex  2.000000e+000  3.322344e+002  1.831094e+001
      vertex  0.000000e+000  3.311124e+002  1.996975e+001
    endloop
  endfacet
  facet normal  7.075261e-001 -3.208236e-001  6.296657e-001
    outer loop
      vertex  2.000000e+000  3.312587e+002  1.781380e+001
      vertex  2.000000e+000  3.322344e+002  1.831094e+001
      vertex  0.000000e+000  3.305109e+002  1.968011e+001
    endloop
  endfacet
  facet normal  6.994327e-001 -6.368028e-001  3.244627e-001
    outer loop
      vertex  2.000000e+000  3.330087e+002  1.908525e+001
      vertex  2.000000e+000  3.335058e+002  2.006094e+001
      vertex  0.000000e+000  3.315286e+002  2.049167e+001
    endloop
  endfacet
  facet normal  7.130557e-001 -5.481423e-001  4.371404e-001
    outer loop
      vertex  0.000000e+000  3.311124e+002  1.996975e+001
      vertex  2.000000e+000  3.330087e+002  1.908525e+001
      vertex  0.000000e+000  3.315286e+002  2.049167e+001
    endloop
  endfacet
  facet normal  7.112262e-001  6.853426e-001 -1.564064e-001
    outer loop
      vertex  0.000000e+000  3.288257e+002  2.179333e+001
      vertex  2.000000e+000  3.268484e+002  2.222406e+001
      vertex  0.000000e+000  3.286772e+002  2.114250e+001
    endloop
  endfacet
  facet normal  7.027139e-001  7.027139e-001 -1.112943e-001
    outer loop
      vertex  2.000000e+000  3.268484e+002  2.222406e+001
      vertex  2.000000e+000  3.266772e+002  2.114250e+001
      vertex  0.000000e+000  3.286772e+002  2.114250e+001
    endloop
  endfacet
  facet normal  7.027123e-001 -7.027123e-001 -1.113139e-001
    outer loop
      vertex  2.000000e+000  3.336772e+002  2.114250e+001
      vertex  2.000000e+000  3.335058e+002  2.222406e+001
      vertex  0.000000e+000  3.316772e+002  2.114250e+001
    endloop
  endfacet
  facet normal  7.112260e-001 -6.853358e-001 -1.564370e-001
    outer loop
      vertex  2.000000e+000  3.335058e+002  2.222406e+001
      vertex  0.000000e+000  3.315286e+002  2.179333e+001
      vertex  0.000000e+000  3.316772e+002  2.114250e+001
    endloop
  endfacet
  facet normal  6.994327e-001 -6.368028e-001 -3.244627e-001
    outer loop
      vertex  2.000000e+000  3.335058e+002  2.222406e+001
      vertex  2.000000e+000  3.330087e+002  2.319975e+001
      vertex  0.000000e+000  3.315286e+002  2.179333e+001
    endloop
  endfacet
  facet normal  7.010835e-001 -5.042293e-001 -5.042168e-001
    outer loop
      vertex  2.000000e+000  3.330087e+002  2.319975e+001
      vertex  2.000000e+000  3.322344e+002  2.397406e+001
      vertex  0.000000e+000  3.311124e+002  2.231525e+001
    endloop
  endfacet
  facet normal  7.130557e-001 -5.481423e-001 -4.371404e-001
    outer loop
      vertex  0.000000e+000  3.315286e+002  2.179333e+001
      vertex  2.000000e+000  3.330087e+002  2.319975e+001
      vertex  0.000000e+000  3.311124e+002  2.231525e+001
    endloop
  endfacet
  facet normal  6.999843e-001 -1.117210e-001 -7.053655e-001
    outer loop
      vertex  2.000000e+000  3.312587e+002  2.447120e+001
      vertex  2.000000e+000  3.301772e+002  2.464250e+001
      vertex  0.000000e+000  3.305109e+002  2.260489e+001
    endloop
  endfacet
  facet normal  7.081522e-001 -3.063545e-001 -6.361347e-001
    outer loop
      vertex  0.000000e+000  3.311124e+002  2.231525e+001
      vertex  2.000000e+000  3.312587e+002  2.447120e+001
      vertex  0.000000e+000  3.305109e+002  2.260489e+001
    endloop
  endfacet
  facet normal  7.048701e-001 -3.220264e-001 -6.320263e-001
    outer loop
      vertex  2.000000e+000  3.322344e+002  2.397406e+001
      vertex  2.000000e+000  3.312587e+002  2.447120e+001
      vertex  0.000000e+000  3.311124e+002  2.231525e+001
    endloop
  endfacet
  facet normal  6.999839e-001  1.117180e-001 -7.053663e-001
    outer loop
      vertex  2.000000e+000  3.301772e+002  2.464250e+001
      vertex  2.000000e+000  3.290956e+002  2.447120e+001
      vertex  0.000000e+000  3.298434e+002  2.260489e+001
    endloop
  endfacet
  facet normal  7.136619e-001  0.000000e+000 -7.004902e-001
    outer loop
      vertex  0.000000e+000  3.305109e+002  2.260489e+001
      vertex  2.000000e+000  3.301772e+002  2.464250e+001
      vertex  0.000000e+000  3.298434e+002  2.260489e+001
    endloop
  endfacet
  facet normal  7.010810e-001  5.042211e-001 -5.042286e-001
    outer loop
      vertex  2.000000e+000  3.281199e+002  2.397406e+001
      vertex  2.000000e+000  3.273456e+002  2.319975e+001
      vertex  0.000000e+000  3.292419e+002  2.231525e+001
    endloop
  endfacet
  facet normal  7.037893e-001  3.082415e-001 -6.400531e-001
    outer loop
      vertex  0.000000e+000  3.298434e+002  2.260489e+001
      vertex  2.000000e+000  3.281199e+002  2.397406e+001
      vertex  0.000000e+000  3.292419e+002  2.231525e+001
    endloop
  endfacet
  facet normal  7.075254e-001  3.208319e-001 -6.296623e-001
    outer loop
      vertex  2.000000e+000  3.290956e+002  2.447120e+001
      vertex  2.000000e+000  3.281199e+002  2.397406e+001
      vertex  0.000000e+000  3.298434e+002  2.260489e+001
    endloop
  endfacet
  facet normal  6.994327e-001  6.368028e-001 -3.244627e-001
    outer loop
      vertex  2.000000e+000  3.273456e+002  2.319975e+001
      vertex  2.000000e+000  3.268484e+002  2.222406e+001
      vertex  0.000000e+000  3.288257e+002  2.179333e+001
    endloop
  endfacet
  facet normal  7.130557e-001  5.481423e-001 -4.371404e-001
    outer loop
      vertex  0.000000e+000  3.292419e+002  2.231525e+001
      vertex  2.000000e+000  3.273456e+002  2.319975e+001
      vertex  0.000000e+000  3.288257e+002  2.179333e+001
    endloop
  endfacet
  facet normal  9.520938e-001  0.000000e+000 -3.058060e-001
    outer loop
      vertex  2.000000e+000  1.730000e+002  4.623873e+000
      vertex  2.000000e+000  1.930000e+002  4.623873e+000
      vertex  3.289403e+000  1.730000e+002  8.638291e+000
    endloop
  endfacet
  facet normal  9.520938e-001  0.000000e+000 -3.058060e-001
    outer loop
      vertex  3.289403e+000  1.730000e+002  8.638291e+000
      vertex  2.000000e+000  1.930000e+002  4.623873e+000
      vertex  3.289403e+000  1.930000e+002  8.638291e+000
    endloop
  endfacet
  facet normal  9.754614e-001  0.000000e+000 -2.201705e-001
    outer loop
      vertex  3.289403e+000  1.730000e+002  8.638291e+000
      vertex  3.289403e+000  1.930000e+002  8.638291e+000
      vertex  4.217732e+000  1.730000e+002  1.275124e+001
    endloop
  endfacet
  facet normal  9.754614e-001  0.000000e+000 -2.201705e-001
    outer loop
      vertex  4.217732e+000  1.730000e+002  1.275124e+001
      vertex  3.289403e+000  1.930000e+002  8.638291e+000
      vertex  4.217732e+000  1.930000e+002  1.275124e+001
    endloop
  endfacet
  facet normal  9.911429e-001  0.000000e+000 -1.328001e-001
    outer loop
      vertex  4.217732e+000  1.730000e+002  1.275124e+001
      vertex  4.217732e+000  1.930000e+002  1.275124e+001
      vertex  4.777672e+000  1.730000e+002  1.693030e+001
    endloop
  endfacet
  facet normal  9.911429e-001  0.000000e+000 -1.328001e-001
    outer loop
      vertex  4.777672e+000  1.730000e+002  1.693030e+001
      vertex  4.217732e+000  1.930000e+002  1.275124e+001
      vertex  4.777672e+000  1.930000e+002  1.693030e+001
    endloop
  endfacet
  facet normal  9.990146e-001  0.000000e+000 -4.438327e-002
    outer loop
      vertex  4.777672e+000  1.730000e+002  1.693030e+001
      vertex  4.777672e+000  1.930000e+002  1.693030e+001
      vertex  4.964810e+000  1.730000e+002  2.114256e+001
    endloop
  endfacet
  facet normal  9.990146e-001  0.000000e+000 -4.438327e-002
    outer loop
      vertex  4.964810e+000  1.730000e+002  2.114256e+001
      vertex  4.777672e+000  1.930000e+002  1.693030e+001
      vertex  4.964810e+000  1.930000e+002  2.114256e+001
    endloop
  endfacet
  facet normal  9.990146e-001  0.000000e+000  4.438329e-002
    outer loop
      vertex  4.964810e+000  1.730000e+002  2.114256e+001
      vertex  4.964810e+000  1.930000e+002  2.114256e+001
      vertex  4.777672e+000  1.730000e+002  2.535481e+001
    endloop
  endfacet
  facet normal  9.990146e-001  -0.000000e+000  4.438329e-002
    outer loop
      vertex  4.777672e+000  1.730000e+002  2.535481e+001
      vertex  4.964810e+000  1.930000e+002  2.114256e+001
      vertex  4.777672e+000  1.930000e+002  2.535481e+001
    endloop
  endfacet
  facet normal  9.911429e-001  0.000000e+000  1.328001e-001
    outer loop
      vertex  4.777672e+000  1.730000e+002  2.535481e+001
      vertex  4.777672e+000  1.930000e+002  2.535481e+001
      vertex  4.217732e+000  1.730000e+002  2.953387e+001
    endloop
  endfacet
  facet normal  9.911429e-001  -0.000000e+000  1.328001e-001
    outer loop
      vertex  4.217732e+000  1.730000e+002  2.953387e+001
      vertex  4.777672e+000  1.930000e+002  2.535481e+001
      vertex  4.217732e+000  1.930000e+002  2.953387e+001
    endloop
  endfacet
  facet normal  9.754614e-001  0.000000e+000  2.201706e-001
    outer loop
      vertex  4.217732e+000  1.730000e+002  2.953387e+001
      vertex  4.217732e+000  1.930000e+002  2.953387e+001
      vertex  3.289403e+000  1.730000e+002  3.364682e+001
    endloop
  endfacet
  facet normal  9.754614e-001  -0.000000e+000  2.201706e-001
    outer loop
      vertex  3.289403e+000  1.730000e+002  3.364682e+001
      vertex  4.217732e+000  1.930000e+002  2.953387e+001
      vertex  3.289403e+000  1.930000e+002  3.364682e+001
    endloop
  endfacet
  facet normal  9.520940e-001  0.000000e+000  3.058059e-001
    outer loop
      vertex  3.289403e+000  1.730000e+002  3.364682e+001
      vertex  3.289403e+000  1.930000e+002  3.364682e+001
      vertex  2.000000e+000  1.730000e+002  3.766124e+001
    endloop
  endfacet
  facet normal  9.520940e-001  -0.000000e+000  3.058059e-001
    outer loop
      vertex  2.000000e+000  1.730000e+002  3.766124e+001
      vertex  3.289403e+000  1.930000e+002  3.364682e+001
      vertex  2.000000e+000  1.930000e+002  3.766124e+001
    endloop
  endfacet
  facet normal  0.000000e+000  1.000000e+000  0.000000e+000
    outer loop
      vertex  2.000000e+000  1.930000e+002  2.114256e+001
      vertex  2.000000e+000  1.930000e+002  3.766124e+001
      vertex  3.289403e+000  1.930000e+002  3.364682e+001
    endloop
  endfacet
  facet normal  0.000000e+000  1.000000e+000  0.000000e+000
    outer loop
      vertex  2.000000e+000  1.930000e+002  2.114256e+001
      vertex  3.289403e+000  1.930000e+002  3.364682e+001
      vertex  4.217732e+000  1.930000e+002  2.953387e+001
    endloop
  endfacet
  facet normal  0.000000e+000  1.000000e+000  0.000000e+000
    outer loop
      vertex  2.000000e+000  1.930000e+002  2.114256e+001
      vertex  4.217732e+000  1.930000e+002  2.953387e+001
      vertex  4.777672e+000  1.930000e+002  2.535481e+001
    endloop
  endfacet
  facet normal  0.000000e+000  1.000000e+000  0.000000e+000
    outer loop
      vertex  2.000000e+000  1.930000e+002  2.114256e+001
      vertex  4.777672e+000  1.930000e+002  2.535481e+001
      vertex  4.964810e+000  1.930000e+002  2.114256e+001
    endloop
  endfacet
  facet normal  0.000000e+000  1.000000e+000  0.000000e+000
    outer loop
      vertex  2.000000e+000  1.930000e+002  2.114256e+001
      vertex  4.964810e+000  1.930000e+002  2.114256e+001
      vertex  2.000000e+000  1.930000e+002  4.623873e+000
    endloop
  endfacet
  facet normal  0.000000e+000  1.000000e+000  0.000000e+000
    outer loop
      vertex  2.000000e+000  1.930000e+002  4.623873e+000
      vertex  4.964810e+000  1.930000e+002  2.114256e+001
      vertex  4.777672e+000  1.930000e+002  1.693030e+001
    endloop
  endfacet
  facet normal  0.000000e+000  1.000000e+000  0.000000e+000
    outer loop
      vertex  2.000000e+000  1.930000e+002  4.623873e+000
      vertex  4.777672e+000  1.930000e+002  1.693030e+001
      vertex  3.289403e+000  1.930000e+002  8.638291e+000
    endloop
  endfacet
  facet normal  0.000000e+000  1.000000e+000  0.000000e+000
    outer loop
      vertex  3.289403e+000  1.930000e+002  8.638291e+000
      vertex  4.777672e+000  1.930000e+002  1.693030e+001
      vertex  4.217732e+000  1.930000e+002  1.275124e+001
    endloop
  endfacet
  facet normal  0.000000e+000  1.000000e+000  0.000000e+000
    outer loop
      vertex  2.000000e+000  3.460000e+002  2.000000e+000
      vertex  0.000000e+000  3.460000e+002  0.000000e+000
      vertex  2.000000e+000  3.460000e+002  4.028500e+001
    endloop
  endfacet
  facet normal  0.000000e+000  1.000000e+000  0.000000e+000
    outer loop
      vertex  2.000000e+000  3.460000e+002  4.028500e+001
      vertex  0.000000e+000  3.460000e+002  0.000000e+000
      vertex -4.440892e-015  3.460000e+002  4.228500e+001
    endloop
  endfacet
  facet normal  7.071068e-001  0.000000e+000 -7.071068e-001
    outer loop
      vertex  0.000000e+000  1.730000e+002  0.000000e+000
      vertex  0.000000e+000  3.460000e+002  0.000000e+000
      vertex  2.000000e+000  1.730000e+002  2.000000e+000
    endloop
  endfacet
  facet normal  7.071068e-001  0.000000e+000 -7.071068e-001
    outer loop
      vertex  2.000000e+000  1.730000e+002  2.000000e+000
      vertex  0.000000e+000  3.460000e+002  0.000000e+000
      vertex  2.000000e+000  3.460000e+002  2.000000e+000
    endloop
  endfacet
  facet normal  7.071068e-001  -0.000000e+000  7.071068e-001
    outer loop
      vertex -4.440892e-015  3.460000e+002  4.228500e+001
      vertex -4.440892e-015  1.730000e+002  4.228500e+001
      vertex  2.000000e+000  3.460000e+002  4.028500e+001
    endloop
  endfacet
  facet normal  7.071068e-001  0.000000e+000  7.071068e-001
    outer loop
      vertex  2.000000e+000  3.460000e+002  4.028500e+001
      vertex -4.440892e-015  1.730000e+002  4.228500e+001
      vertex  2.000000e+000  1.730000e+002  4.028500e+001
    endloop
  endfacet
endsolid CATIA STL
