  0
SECTION
  2
HEADER
  9
$ACADVER
  1
AC1024
  9
$ACADMAINTVER
 70
6
  9
$DWGCODEPAGE
  3
ANSI_1252
  9
$LASTSAVEDBY
  1
ezdxf
  9
$INSBASE
 10
0.0
 20
0.0
 30
0.0
  9
$EXTMIN
 10
1e+20
 20
1e+20
 30
1e+20
  9
$EXTMAX
 10
-1e+20
 20
-1e+20
 30
-1e+20
  9
$LIMMIN
 10
0.0
 20
0.0
  9
$LIMMAX
 10
420.0
 20
297.0
  9
$ORTHOMODE
 70
0
  9
$REGENMODE
 70
1
  9
$FILLMODE
 70
1
  9
$QTEXTMODE
 70
0
  9
$MIRRTEXT
 70
1
  9
$LTSCALE
 40
1.0
  9
$ATTMODE
 70
1
  9
$TEXTSIZE
 40
2.5
  9
$TRACEWID
 40
1.0
  9
$TEXTSTYLE
  7
Standard
  9
$CLAYER
  8
0
  9
$CELTYPE
  6
ByLayer
  9
$CECOLOR
 62
256
  9
$CELTSCALE
 40
1.0
  9
$DISPSILH
 70
0
  9
$DIMSCALE
 40
1.0
  9
$DIMASZ
 40
2.5
  9
$DIMEXO
 40
0.625
  9
$DIMDLI
 40
3.75
  9
$DIMRND
 40
0.0
  9
$DIMDLE
 40
0.0
  9
$DIMEXE
 40
1.25
  9
$DIMTP
 40
0.0
  9
$DIMTM
 40
0.0
  9
$DIMTXT
 40
2.5
  9
$DIMCEN
 40
2.5
  9
$DIMTSZ
 40
0.0
  9
$DIMTOL
 70
0
  9
$DIMLIM
 70
0
  9
$DIMTIH
 70
0
  9
$DIMTOH
 70
0
  9
$DIMSE1
 70
0
  9
$DIMSE2
 70
0
  9
$DIMTAD
 70
1
  9
$DIMZIN
 70
8
  9
$DIMBLK
  1

  9
$DIMASO
 70
1
  9
$DIMSHO
 70
1
  9
$DIMPOST
  1

  9
$DIMAPOST
  1

  9
$DIMALT
 70
0
  9
$DIMALTD
 70
3
  9
$DIMALTF
 40
0.03937007874
  9
$DIMLFAC
 40
1.0
  9
$DIMTOFL
 70
1
  9
$DIMTVP
 40
0.0
  9
$DIMTIX
 70
0
  9
$DIMSOXD
 70
0
  9
$DIMSAH
 70
0
  9
$DIMBLK1
  1

  9
$DIMBLK2
  1

  9
$DIMSTYLE
  2
ISO-25
  9
$DIMCLRD
 70
0
  9
$DIMCLRE
 70
0
  9
$DIMCLRT
 70
0
  9
$DIMTFAC
 40
1.0
  9
$DIMGAP
 40
0.625
  9
$DIMJUST
 70
0
  9
$DIMSD1
 70
0
  9
$DIMSD2
 70
0
  9
$DIMTOLJ
 70
0
  9
$DIMTZIN
 70
8
  9
$DIMALTZ
 70
0
  9
$DIMALTTZ
 70
0
  9
$DIMUPT
 70
0
  9
$DIMDEC
 70
2
  9
$DIMTDEC
 70
2
  9
$DIMALTU
 70
2
  9
$DIMALTTD
 70
3
  9
$DIMTXSTY
  7
Standard
  9
$DIMAUNIT
 70
0
  9
$DIMADEC
 70
0
  9
$DIMALTRND
 40
0.0
  9
$DIMAZIN
 70
0
  9
$DIMDSEP
 70
44
  9
$DIMATFIT
 70
3
  9
$DIMFRAC
 70
0
  9
$DIMLDRBLK
  1

  9
$DIMLUNIT
 70
2
  9
$DIMLWD
 70
-2
  9
$DIMLWE
 70
-2
  9
$DIMTMOVE
 70
0
  9
$DIMFXL
 40
1.0
  9
$DIMFXLON
 70
0
  9
$DIMJOGANG
 40
0.785398163397
  9
$DIMTFILL
 70
0
  9
$DIMTFILLCLR
 70
0
  9
$DIMARCSYM
 70
0
  9
$DIMLTYPE
  6

  9
$DIMLTEX1
  6

  9
$DIMLTEX2
  6

  9
$DIMTXTDIRECTION
 70
0
  9
$LUNITS
 70
2
  9
$LUPREC
 70
4
  9
$SKETCHINC
 40
1.0
  9
$FILLETRAD
 40
10.0
  9
$AUNITS
 70
0
  9
$AUPREC
 70
2
  9
$MENU
  1
.
  9
$ELEVATION
 40
0.0
  9
$PELEVATION
 40
0.0
  9
$THICKNESS
 40
0.0
  9
$LIMCHECK
 70
0
  9
$CHAMFERA
 40
0.0
  9
$CHAMFERB
 40
0.0
  9
$CHAMFERC
 40
0.0
  9
$CHAMFERD
 40
0.0
  9
$SKPOLY
 70
0
  9
$TDCREATE
 40
2459739.4680324076
  9
$TDUCREATE
 40
2458532.153996898
  9
$TDUPDATE
 40
2459739.4680324076
  9
$TDUUPDATE
 40
2458532.1544311
  9
$TDINDWG
 40
0.0
  9
$TDUSRTIMER
 40
0.0
  9
$USRTIMER
 70
1
  9
$ANGBASE
 50
0.0
  9
$ANGDIR
 70
0
  9
$PDMODE
 70
0
  9
$PDSIZE
 40
0.0
  9
$PLINEWID
 40
0.0
  9
$SPLFRAME
 70
0
  9
$SPLINETYPE
 70
6
  9
$SPLINESEGS
 70
8
  9
$HANDSEED
  5
3BC
  9
$SURFTAB1
 70
6
  9
$SURFTAB2
 70
6
  9
$SURFTYPE
 70
6
  9
$SURFU
 70
6
  9
$SURFV
 70
6
  9
$UCSBASE
  2

  9
$UCSNAME
  2

  9
$UCSORG
 10
0.0
 20
0.0
 30
0.0
  9
$UCSXDIR
 10
1.0
 20
0.0
 30
0.0
  9
$UCSYDIR
 10
0.0
 20
1.0
 30
0.0
  9
$UCSORTHOREF
  2

  9
$UCSORTHOVIEW
 70
0
  9
$UCSORGTOP
 10
0.0
 20
0.0
 30
0.0
  9
$UCSORGBOTTOM
 10
0.0
 20
0.0
 30
0.0
  9
$UCSORGLEFT
 10
0.0
 20
0.0
 30
0.0
  9
$UCSORGRIGHT
 10
0.0
 20
0.0
 30
0.0
  9
$UCSORGFRONT
 10
0.0
 20
0.0
 30
0.0
  9
$UCSORGBACK
 10
0.0
 20
0.0
 30
0.0
  9
$PUCSBASE
  2

  9
$PUCSNAME
  2

  9
$PUCSORG
 10
0.0
 20
0.0
 30
0.0
  9
$PUCSXDIR
 10
1.0
 20
0.0
 30
0.0
  9
$PUCSYDIR
 10
0.0
 20
1.0
 30
0.0
  9
$PUCSORTHOREF
  2

  9
$PUCSORTHOVIEW
 70
0
  9
$PUCSORGTOP
 10
0.0
 20
0.0
 30
0.0
  9
$PUCSORGBOTTOM
 10
0.0
 20
0.0
 30
0.0
  9
$PUCSORGLEFT
 10
0.0
 20
0.0
 30
0.0
  9
$PUCSORGRIGHT
 10
0.0
 20
0.0
 30
0.0
  9
$PUCSORGFRONT
 10
0.0
 20
0.0
 30
0.0
  9
$PUCSORGBACK
 10
0.0
 20
0.0
 30
0.0
  9
$USERI1
 70
0
  9
$USERI2
 70
0
  9
$USERI3
 70
0
  9
$USERI4
 70
0
  9
$USERI5
 70
0
  9
$USERR1
 40
0.0
  9
$USERR2
 40
0.0
  9
$USERR3
 40
0.0
  9
$USERR4
 40
0.0
  9
$USERR5
 40
0.0
  9
$WORLDVIEW
 70
1
  9
$SHADEDGE
 70
3
  9
$SHADEDIF
 70
70
  9
$TILEMODE
 70
1
  9
$MAXACTVP
 70
64
  9
$PINSBASE
 10
0.0
 20
0.0
 30
0.0
  9
$PLIMCHECK
 70
0
  9
$PEXTMIN
 10
1e+20
 20
1e+20
 30
1e+20
  9
$PEXTMAX
 10
-1e+20
 20
-1e+20
 30
-1e+20
  9
$PLIMMIN
 10
0.0
 20
0.0
  9
$PLIMMAX
 10
420.0
 20
297.0
  9
$UNITMODE
 70
0
  9
$VISRETAIN
 70
1
  9
$PLINEGEN
 70
0
  9
$PSLTSCALE
 70
1
  9
$TREEDEPTH
 70
3020
  9
$CMLSTYLE
  2
Standard
  9
$CMLJUST
 70
0
  9
$CMLSCALE
 40
20.0
  9
$PROXYGRAPHICS
 70
1
  9
$MEASUREMENT
 70
1
  9
$CELWEIGHT
370
-1
  9
$ENDCAPS
280
0
  9
$JOINSTYLE
280
0
  9
$LWDISPLAY
290
0
  9
$INSUNITS
 70
6
  9
$HYPERLINKBASE
  1

  9
$STYLESHEET
  1

  9
$XEDIT
290
1
  9
$CEPSNTYPE
380
0
  9
$PSTYLEMODE
290
1
  9
$FINGERPRINTGUID
  2
{31CA07ED-187C-4448-9615-AC20934C0208}
  9
$VERSIONGUID
  2
{FC619450-C2F8-4624-8AAA-80D3AAA298A6}
  9
$EXTNAMES
290
1
  9
$PSVPSCALE
 40
0.0
  9
$OLESTARTUP
290
0
  9
$SORTENTS
280
127
  9
$INDEXCTL
280
0
  9
$HIDETEXT
280
1
  9
$XCLIPFRAME
280
0
  9
$HALOGAP
280
0
  9
$OBSCOLOR
 70
257
  9
$OBSLTYPE
280
0
  9
$INTERSECTIONDISPLAY
280
0
  9
$INTERSECTIONCOLOR
 70
257
  9
$DIMASSOC
280
2
  9
$PROJECTNAME
  1

  9
$CAMERADISPLAY
290
0
  9
$LENSLENGTH
 40
50.0
  9
$CAMERAHEIGHT
 40
0.0
  9
$STEPSPERSEC
 40
24.0
  9
$STEPSIZE
 40
100.0
  9
$3DDWFPREC
 40
2.0
  9
$PSOLWIDTH
 40
0.005
  9
$PSOLHEIGHT
 40
0.08
  9
$LOFTANG1
 40
1.570796326795
  9
$LOFTANG2
 40
1.570796326795
  9
$LOFTMAG1
 40
0.0
  9
$LOFTMAG2
 40
0.0
  9
$LOFTPARAM
 70
7
  9
$LOFTNORMALS
280
1
  9
$LATITUDE
 40
37.795
  9
$LONGITUDE
 40
-122.394
  9
$NORTHDIRECTION
 40
0.0
  9
$TIMEZONE
 70
-8000
  9
$LIGHTGLYPHDISPLAY
280
1
  9
$TILEMODELIGHTSYNCH
280
1
  9
$CMATERIAL
347
20
  9
$SOLIDHIST
280
0
  9
$SHOWHIST
280
1
  9
$DWFFRAME
280
2
  9
$DGNFRAME
280
2
  9
$REALWORLDSCALE
290
1
  9
$INTERFERECOLOR
 62
256
  9
$CSHADOW
280
0
  9
$SHADOWPLANELOCATION
 40
0.0
  0
ENDSEC
  0
SECTION
  2
CLASSES
  0
CLASS
  1
ACDBDICTIONARYWDFLT
  2
AcDbDictionaryWithDefault
  3
ObjectDBX Classes
 90
0
 91
0
280
0
281
0
  0
CLASS
  1
SUN
  2
AcDbSun
  3
SCENEOE
 90
1153
 91
0
280
0
281
0
  0
CLASS
  1
VISUALSTYLE
  2
AcDbVisualStyle
  3
ObjectDBX Classes
 90
4095
 91
0
280
0
281
0
  0
CLASS
  1
MATERIAL
  2
AcDbMaterial
  3
ObjectDBX Classes
 90
1153
 91
0
280
0
281
0
  0
CLASS
  1
SCALE
  2
AcDbScale
  3
ObjectDBX Classes
 90
1153
 91
0
280
0
281
0
  0
CLASS
  1
TABLESTYLE
  2
AcDbTableStyle
  3
ObjectDBX Classes
 90
4095
 91
0
280
0
281
0
  0
CLASS
  1
MLEADERSTYLE
  2
AcDbMLeaderStyle
  3
ACDB_MLEADERSTYLE_CLASS
 90
4095
 91
0
280
0
281
0
  0
CLASS
  1
DICTIONARYVAR
  2
AcDbDictionaryVar
  3
ObjectDBX Classes
 90
0
 91
0
280
0
281
0
  0
CLASS
  1
CELLSTYLEMAP
  2
AcDbCellStyleMap
  3
ObjectDBX Classes
 90
1152
 91
0
280
0
281
0
  0
CLASS
  1
MENTALRAYRENDERSETTINGS
  2
AcDbMentalRayRenderSettings
  3
SCENEOE
 90
1024
 91
0
280
0
281
0
  0
CLASS
  1
ACDBDETAILVIEWSTYLE
  2
AcDbDetailViewStyle
  3
ObjectDBX Classes
 90
1025
 91
0
280
0
281
0
  0
CLASS
  1
ACDBSECTIONVIEWSTYLE
  2
AcDbSectionViewStyle
  3
ObjectDBX Classes
 90
1025
 91
0
280
0
281
0
  0
CLASS
  1
RASTERVARIABLES
  2
AcDbRasterVariables
  3
ISM
 90
0
 91
0
280
0
281
0
  0
CLASS
  1
ACDBPLACEHOLDER
  2
AcDbPlaceHolder
  3
ObjectDBX Classes
 90
0
 91
0
280
0
281
0
  0
CLASS
  1
LAYOUT
  2
AcDbLayout
  3
ObjectDBX Classes
 90
0
 91
0
280
0
281
0
  0
ENDSEC
  0
SECTION
  2
TABLES
  0
TABLE
  2
VPORT
  5
8
330
0
100
AcDbSymbolTable
 70
1
  0
VPORT
  5
23
330
8
100
AcDbSymbolTableRecord
100
AcDbViewportTableRecord
  2
*Active
 70
0
 10
0.0
 20
0.0
 11
1.0
 21
1.0
 12
0.0
 22
0.0
 13
0.0
 23
0.0
 14
0.5
 24
0.5
 15
0.5
 25
0.5
 16
0.0
 26
0.0
 36
1.0
 17
0.0
 27
0.0
 37
0.0
 40
1000.0
 41
1.34
 42
50.0
 43
0.0
 44
0.0
 50
0.0
 51
0.0
 71
0
 72
1000
 73
1
 74
3
 75
0
 76
0
 77
0
 78
0
281
0
 65
0
146
0.0
  0
ENDTAB
  0
TABLE
  2
LTYPE
  5
2
330
0
100
AcDbSymbolTable
 70
3
  0
LTYPE
  5
24
330
2
100
AcDbSymbolTableRecord
100
AcDbLinetypeTableRecord
  2
ByBlock
 70
0
  3

 72
65
 73
0
 40
0.0
  0
LTYPE
  5
25
330
2
100
AcDbSymbolTableRecord
100
AcDbLinetypeTableRecord
  2
ByLayer
 70
0
  3

 72
65
 73
0
 40
0.0
  0
LTYPE
  5
26
330
2
100
AcDbSymbolTableRecord
100
AcDbLinetypeTableRecord
  2
Continuous
 70
0
  3

 72
65
 73
0
 40
0.0
  0
ENDTAB
  0
TABLE
  2
LAYER
  5
1
330
0
100
AcDbSymbolTable
 70
2
  0
LAYER
  5
27
330
1
100
AcDbSymbolTableRecord
100
AcDbLayerTableRecord
  2
0
 70
0
 62
7
  6
Continuous
370
-3
390
13
347
21
  0
LAYER
  5
28
330
1
100
AcDbSymbolTableRecord
100
AcDbLayerTableRecord
  2
Defpoints
 70
0
 62
7
  6
Continuous
290
0
370
-3
390
13
347
21
  0
ENDTAB
  0
TABLE
  2
STYLE
  5
5
330
0
100
AcDbSymbolTable
 70
1
  0
STYLE
  5
29
330
5
100
AcDbSymbolTableRecord
100
AcDbTextStyleTableRecord
  2
Standard
 70
0
 40
0.0
 41
1.0
 50
0.0
 71
0
 42
2.5
  3
txt
  4

  0
ENDTAB
  0
TABLE
  2
VIEW
  5
7
330
0
100
AcDbSymbolTable
 70
0
  0
ENDTAB
  0
TABLE
  2
UCS
  5
6
330
0
100
AcDbSymbolTable
 70
0
  0
ENDTAB
  0
TABLE
  2
APPID
  5
3
330
0
100
AcDbSymbolTable
 70
3
  0
APPID
  5
2A
330
3
100
AcDbSymbolTableRecord
100
AcDbRegAppTableRecord
  2
ACAD
 70
0
  0
APPID
  5
3B9
330
3
100
AcDbSymbolTableRecord
100
AcDbRegAppTableRecord
  2
HATCHBACKGROUNDCOLOR
 70
0
  0
APPID
  5
3BA
330
3
100
AcDbSymbolTableRecord
100
AcDbRegAppTableRecord
  2
EZDXF
 70
0
  0
ENDTAB
  0
TABLE
  2
DIMSTYLE
  5
4
330
0
100
AcDbSymbolTable
 70
1
100
AcDbDimStyleTable
  0
DIMSTYLE
105
2B
330
4
100
AcDbSymbolTableRecord
100
AcDbDimStyleTableRecord
  2
Standard
 70
0
 40
1.0
 41
2.5
 42
0.625
 43
3.75
 44
1.25
 45
0.0
 46
0.0
 47
0.0
 48
0.0
 49
2.5
140
2.5
141
2.5
142
0.0
143
0.03937007874
144
1.0
145
0.0
146
1.0
147
0.625
148
0.0
 69
0
 70
0
 71
0
 72
0
 73
0
 74
0
 75
0
 76
0
 77
1
 78
8
 79
3
170
0
171
3
172
1
173
0
174
0
175
0
176
0
177
0
178
0
179
2
271
2
272
2
273
2
274
3
275
0
276
0
277
2
278
44
279
0
280
0
281
0
282
0
283
0
284
8
285
0
286
0
288
0
289
3
290
0
371
-2
372
-2
  0
ENDTAB
  0
TABLE
  2
BLOCK_RECORD
  5
9
330
0
100
AcDbSymbolTable
 70
2
  0
BLOCK_RECORD
  5
17
330
9
100
AcDbSymbolTableRecord
100
AcDbBlockTableRecord
  2
*Model_Space
340
1A
 70
0
280
1
281
0
  0
BLOCK_RECORD
  5
1B
330
9
100
AcDbSymbolTableRecord
100
AcDbBlockTableRecord
  2
*Paper_Space
340
1E
 70
0
280
1
281
0
  0
ENDTAB
  0
ENDSEC
  0
SECTION
  2
BLOCKS
  0
BLOCK
  5
18
330
17
100
AcDbEntity
  8
0
100
AcDbBlockBegin
  2
*Model_Space
 70
0
 10
0.0
 20
0.0
 30
0.0
  3
*Model_Space
  1

  0
ENDBLK
  5
19
330
17
100
AcDbEntity
  8
0
100
AcDbBlockEnd
  0
BLOCK
  5
1C
330
1B
100
AcDbEntity
  8
0
100
AcDbBlockBegin
  2
*Paper_Space
 70
0
 10
0.0
 20
0.0
 30
0.0
  3
*Paper_Space
  1

  0
ENDBLK
  5
1D
330
1B
100
AcDbEntity
  8
0
100
AcDbBlockEnd
  0
ENDSEC
  0
SECTION
  2
ENTITIES
  0
LINE
  5
2F
330
17
100
AcDbEntity
  8
0
100
AcDbLine
 10
0.0
 20
0.0
 30
0.0
 11
5e-05
 21
0.0005270462766947299
 31
0.0
  0
LINE
  5
30
330
17
100
AcDbEntity
  8
0
100
AcDbLine
 10
5e-05
 20
0.0005270462766947299
 30
0.0
 11
0.00019
 21
0.0010274023338281628
 31
0.0
  0
LINE
  5
31
330
17
100
AcDbEntity
  8
0
100
AcDbLine
 10
0.00019
 20
0.0010274023338281628
 30
0.0
 11
0.0004
 21
0.00149071198499986
 31
0.0
  0
LINE
  5
32
330
17
100
AcDbEntity
  8
0
100
AcDbLine
 10
0.0004
 20
0.00149071198499986
 30
0.0
 11
0.00067
 21
0.0019293061504650378
 31
0.0
  0
LINE
  5
33
330
17
100
AcDbEntity
  8
0
100
AcDbLine
 10
0.00067
 20
0.0019293061504650378
 30
0.0
 11
0.0009800000000000002
 21
0.0023333333333333335
 31
0.0
  0
LINE
  5
34
330
17
100
AcDbEntity
  8
0
100
AcDbLine
 10
0.0009800000000000002
 20
0.0023333333333333335
 30
0.0
 11
0.0013200000000000002
 21
0.0027080128015453207
 31
0.0
  0
LINE
  5
35
330
17
100
AcDbEntity
  8
0
100
AcDbLine
 10
0.0013200000000000002
 20
0.0027080128015453207
 30
0.0
 11
0.00168
 21
0.0030550504633038936
 31
0.0
  0
LINE
  5
36
330
17
100
AcDbEntity
  8
0
100
AcDbLine
 10
0.00168
 20
0.0030550504633038936
 30
0.0
 11
0.00206
 21
0.00338296385503074
 31
0.0
  0
LINE
  5
37
330
17
100
AcDbEntity
  8
0
100
AcDbLine
 10
0.00206
 20
0.00338296385503074
 30
0.0
 11
0.0024600000000000004
 21
0.003696845502136473
 31
0.0
  0
LINE
  5
38
330
17
100
AcDbEntity
  8
0
100
AcDbLine
 10
0.0024600000000000004
 20
0.003696845502136473
 30
0.0
 11
0.00287
 21
0.003993049516903647
 31
0.0
  0
LINE
  5
39
330
17
100
AcDbEntity
  8
0
100
AcDbLine
 10
0.00287
 20
0.003993049516903647
 30
0.0
 11
0.0032900000000000004
 21
0.00427525177946022
 31
0.0
  0
LINE
  5
3A
330
17
100
AcDbEntity
  8
0
100
AcDbLine
 10
0.0032900000000000004
 20
0.00427525177946022
 30
0.0
 11
0.00372
 21
0.004546060565661952
 31
0.0
  0
LINE
  5
3B
330
17
100
AcDbEntity
  8
0
100
AcDbLine
 10
0.00372
 20
0.004546060565661952
 30
0.0
 11
0.00415
 21
0.004801620096962645
 31
0.0
  0
LINE
  5
3C
330
17
100
AcDbEntity
  8
0
100
AcDbLine
 10
0.00415
 20
0.004801620096962645
 30
0.0
 11
0.00459
 21
0.005049752469181039
 31
0.0
  0
LINE
  5
3D
330
17
100
AcDbEntity
  8
0
100
AcDbLine
 10
0.00459
 20
0.005049752469181039
 30
0.0
 11
0.00504
 21
0.0052915026221291815
 31
0.0
  0
LINE
  5
3E
330
17
100
AcDbEntity
  8
0
100
AcDbLine
 10
0.00504
 20
0.0052915026221291815
 30
0.0
 11
0.00549
 21
0.005522680508593631
 31
0.0
  0
LINE
  5
3F
330
17
100
AcDbEntity
  8
0
100
AcDbLine
 10
0.00549
 20
0.005522680508593631
 30
0.0
 11
0.005940000000000001
 21
0.00574456264653803
 31
0.0
  0
LINE
  5
40
330
17
100
AcDbEntity
  8
0
100
AcDbLine
 10
0.005940000000000001
 20
0.00574456264653803
 30
0.0
 11
0.0064
 21
0.00596284793999944
 31
0.0
  0
LINE
  5
41
330
17
100
AcDbEntity
  8
0
100
AcDbLine
 10
0.0064
 20
0.00596284793999944
 30
0.0
 11
0.006860000000000001
 21
0.006173419725817379
 31
0.0
  0
LINE
  5
42
330
17
100
AcDbEntity
  8
0
100
AcDbLine
 10
0.006860000000000001
 20
0.006173419725817379
 30
0.0
 11
0.007320000000000001
 21
0.006377042156569664
 31
0.0
  0
LINE
  5
43
330
17
100
AcDbEntity
  8
0
100
AcDbLine
 10
0.007320000000000001
 20
0.006377042156569664
 30
0.0
 11
0.0077800000000000005
 21
0.006574360974438673
 31
0.0
  0
LINE
  5
44
330
17
100
AcDbEntity
  8
0
100
AcDbLine
 10
0.0077800000000000005
 20
0.006574360974438673
 30
0.0
 11
0.00825
 21
0.006770032003863301
 31
0.0
  0
LINE
  5
45
330
17
100
AcDbEntity
  8
0
100
AcDbLine
 10
0.00825
 20
0.006770032003863301
 30
0.0
 11
0.00872
 21
0.0069602043392737005
 31
0.0
  0
LINE
  5
46
330
17
100
AcDbEntity
  8
0
100
AcDbLine
 10
0.00872
 20
0.0069602043392737005
 30
0.0
 11
0.00919
 21
0.007145317036742007
 31
0.0
  0
LINE
  5
47
330
17
100
AcDbEntity
  8
0
100
AcDbLine
 10
0.00919
 20
0.007145317036742007
 30
0.0
 11
0.00966
 21
0.00732575365861197
 31
0.0
  0
LINE
  5
48
330
17
100
AcDbEntity
  8
0
100
AcDbLine
 10
0.00966
 20
0.00732575365861197
 30
0.0
 11
0.01013
 21
0.007501851623284599
 31
0.0
  0
LINE
  5
49
330
17
100
AcDbEntity
  8
0
100
AcDbLine
 10
0.01013
 20
0.007501851623284599
 30
0.0
 11
0.0106
 21
0.00767390962214756
 31
0.0
  0
LINE
  5
4A
330
17
100
AcDbEntity
  8
0
100
AcDbLine
 10
0.0106
 20
0.00767390962214756
 30
0.0
 11
0.011080000000000001
 21
0.007845734863959881
 31
0.0
  0
LINE
  5
4B
330
17
100
AcDbEntity
  8
0
100
AcDbLine
 10
0.011080000000000001
 20
0.007845734863959881
 30
0.0
 11
0.01156
 21
0.00801387685344754
 31
0.0
  0
LINE
  5
4C
330
17
100
AcDbEntity
  8
0
100
AcDbLine
 10
0.01156
 20
0.00801387685344754
 30
0.0
 11
0.01204
 21
0.008178562764256865
 31
0.0
  0
LINE
  5
4D
330
17
100
AcDbEntity
  8
0
100
AcDbLine
 10
0.01204
 20
0.008178562764256865
 30
0.0
 11
0.012520000000000002
 21
0.008339997335464536
 31
0.0
  0
LINE
  5
4E
330
17
100
AcDbEntity
  8
0
100
AcDbLine
 10
0.012520000000000002
 20
0.008339997335464536
 30
0.0
 11
0.013000000000000001
 21
0.008498365855987976
 31
0.0
  0
LINE
  5
4F
330
17
100
AcDbEntity
  8
0
100
AcDbLine
 10
0.013000000000000001
 20
0.008498365855987976
 30
0.0
 11
0.01348
 21
0.008653836657164779
 31
0.0
  0
LINE
  5
50
330
17
100
AcDbEntity
  8
0
100
AcDbLine
 10
0.01348
 20
0.008653836657164779
 30
0.0
 11
0.013960000000000002
 21
0.00880656320908194
 31
0.0
  0
LINE
  5
51
330
17
100
AcDbEntity
  8
0
100
AcDbLine
 10
0.013960000000000002
 20
0.00880656320908194
 30
0.0
 11
0.014440000000000001
 21
0.008956685895029603
 31
0.0
  0
LINE
  5
52
330
17
100
AcDbEntity
  8
0
100
AcDbLine
 10
0.014440000000000001
 20
0.008956685895029603
 30
0.0
 11
0.014920000000000001
 21
0.009104333522498443
 31
0.0
  0
LINE
  5
53
330
17
100
AcDbEntity
  8
0
100
AcDbLine
 10
0.014920000000000001
 20
0.009104333522498443
 30
0.0
 11
0.0154
 21
0.00924962461700774
 31
0.0
  0
LINE
  5
54
330
17
100
AcDbEntity
  8
0
100
AcDbLine
 10
0.0154
 20
0.00924962461700774
 30
0.0
 11
0.015880000000000002
 21
0.009392668535736915
 31
0.0
  0
LINE
  5
55
330
17
100
AcDbEntity
  8
0
100
AcDbLine
 10
0.015880000000000002
 20
0.009392668535736915
 30
0.0
 11
0.016360000000000003
 21
0.00953356643071673
 31
0.0
  0
LINE
  5
56
330
17
100
AcDbEntity
  8
0
100
AcDbLine
 10
0.016360000000000003
 20
0.00953356643071673
 30
0.0
 11
0.01685
 21
0.009675283515799996
 31
0.0
  0
LINE
  5
57
330
17
100
AcDbEntity
  8
0
100
AcDbLine
 10
0.01685
 20
0.009675283515799996
 30
0.0
 11
0.01734
 21
0.009814954576223639
 31
0.0
  0
LINE
  5
58
330
17
100
AcDbEntity
  8
0
100
AcDbLine
 10
0.01734
 20
0.009814954576223639
 30
0.0
 11
0.017830000000000002
 21
0.009952665751222412
 31
0.0
  0
LINE
  5
59
330
17
100
AcDbEntity
  8
0
100
AcDbLine
 10
0.017830000000000002
 20
0.009952665751222412
 30
0.0
 11
0.018320000000000003
 21
0.010088497300281038
 31
0.0
  0
LINE
  5
5A
330
17
100
AcDbEntity
  8
0
100
AcDbLine
 10
0.018320000000000003
 20
0.010088497300281038
 30
0.0
 11
0.01881
 21
0.010222524150130436
 31
0.0
  0
LINE
  5
5B
330
17
100
AcDbEntity
  8
0
100
AcDbLine
 10
0.01881
 20
0.010222524150130436
 30
0.0
 11
0.0193
 21
0.010354816378006046
 31
0.0
  0
LINE
  5
5C
330
17
100
AcDbEntity
  8
0
100
AcDbLine
 10
0.0193
 20
0.010354816378006046
 30
0.0
 11
0.019790000000000002
 21
0.01048543964001722
 31
0.0
  0
LINE
  5
5D
330
17
100
AcDbEntity
  8
0
100
AcDbLine
 10
0.019790000000000002
 20
0.01048543964001722
 30
0.0
 11
0.020280000000000003
 21
0.01061445555206044
 31
0.0
  0
LINE
  5
5E
330
17
100
AcDbEntity
  8
0
100
AcDbLine
 10
0.020280000000000003
 20
0.01061445555206044
 30
0.0
 11
0.02077
 21
0.010741922029548013
 31
0.0
  0
LINE
  5
5F
330
17
100
AcDbEntity
  8
0
100
AcDbLine
 10
0.02077
 20
0.010741922029548013
 30
0.0
 11
0.02126
 21
0.010867893591267405
 31
0.0
  0
LINE
  5
60
330
17
100
AcDbEntity
  8
0
100
AcDbLine
 10
0.02126
 20
0.010867893591267405
 30
0.0
 11
0.021750000000000002
 21
0.010992421631894102
 31
0.0
  0
LINE
  5
61
330
17
100
AcDbEntity
  8
0
100
AcDbLine
 10
0.021750000000000002
 20
0.010992421631894102
 30
0.0
 11
0.022240000000000003
 21
0.011115554667022047
 31
0.0
  0
LINE
  5
62
330
17
100
AcDbEntity
  8
0
100
AcDbLine
 10
0.022240000000000003
 20
0.011115554667022047
 30
0.0
 11
0.02273
 21
0.01123733855402505
 31
0.0
  0
LINE
  5
63
330
17
100
AcDbEntity
  8
0
100
AcDbLine
 10
0.02273
 20
0.01123733855402505
 30
0.0
 11
0.02322
 21
0.011357816691600547
 31
0.0
  0
LINE
  5
64
330
17
100
AcDbEntity
  8
0
100
AcDbLine
 10
0.02322
 20
0.011357816691600547
 30
0.0
 11
0.023710000000000002
 21
0.011477030200457879
 31
0.0
  0
LINE
  5
65
330
17
100
AcDbEntity
  8
0
100
AcDbLine
 10
0.023710000000000002
 20
0.011477030200457879
 30
0.0
 11
0.024200000000000003
 21
0.011595018087284059
 31
0.0
  0
LINE
  5
66
330
17
100
AcDbEntity
  8
0
100
AcDbLine
 10
0.024200000000000003
 20
0.011595018087284059
 30
0.0
 11
0.024690000000000004
 21
0.011711817393840578
 31
0.0
  0
LINE
  5
67
330
17
100
AcDbEntity
  8
0
100
AcDbLine
 10
0.024690000000000004
 20
0.011711817393840578
 30
0.0
 11
0.02518
 21
0.011827463332806782
 31
0.0
  0
LINE
  5
68
330
17
100
AcDbEntity
  8
0
100
AcDbLine
 10
0.02518
 20
0.011827463332806782
 30
0.0
 11
0.025670000000000002
 21
0.011941989411781906
 31
0.0
  0
LINE
  5
69
330
17
100
AcDbEntity
  8
0
100
AcDbLine
 10
0.025670000000000002
 20
0.011941989411781906
 30
0.0
 11
0.026160000000000003
 21
0.012055427546683418
 31
0.0
  0
LINE
  5
6A
330
17
100
AcDbEntity
  8
0
100
AcDbLine
 10
0.026160000000000003
 20
0.012055427546683418
 30
0.0
 11
0.026650000000000004
 21
0.012167808165629321
 31
0.0
  0
LINE
  5
6B
330
17
100
AcDbEntity
  8
0
100
AcDbLine
 10
0.026650000000000004
 20
0.012167808165629321
 30
0.0
 11
0.02714
 21
0.012279160304262576
 31
0.0
  0
LINE
  5
6C
330
17
100
AcDbEntity
  8
0
100
AcDbLine
 10
0.02714
 20
0.012279160304262576
 30
0.0
 11
0.027630000000000002
 21
0.012389511693363869
 31
0.0
  0
LINE
  5
6D
330
17
100
AcDbEntity
  8
0
100
AcDbLine
 10
0.027630000000000002
 20
0.012389511693363869
 30
0.0
 11
0.028120000000000003
 21
0.012498888839501784
 31
0.0
  0
LINE
  5
6E
330
17
100
AcDbEntity
  8
0
100
AcDbLine
 10
0.028120000000000003
 20
0.012498888839501784
 30
0.0
 11
0.028610000000000003
 21
0.012607317099384964
 31
0.0
  0
LINE
  5
6F
330
17
100
AcDbEntity
  8
0
100
AcDbLine
 10
0.028610000000000003
 20
0.012607317099384964
 30
0.0
 11
0.0291
 21
0.0127148207485071
 31
0.0
  0
LINE
  5
70
330
17
100
AcDbEntity
  8
0
100
AcDbLine
 10
0.0291
 20
0.0127148207485071
 30
0.0
 11
0.02959
 21
0.01282142304461127
 31
0.0
  0
LINE
  5
71
330
17
100
AcDbEntity
  8
0
100
AcDbLine
 10
0.02959
 20
0.01282142304461127
 30
0.0
 11
0.030080000000000003
 21
0.012927146286443545
 31
0.0
  0
LINE
  5
72
330
17
100
AcDbEntity
  8
0
100
AcDbLine
 10
0.030080000000000003
 20
0.012927146286443545
 30
0.0
 11
0.030570000000000003
 21
0.01303201186821641
 31
0.0
  0
LINE
  5
73
330
17
100
AcDbEntity
  8
0
100
AcDbLine
 10
0.030570000000000003
 20
0.01303201186821641
 30
0.0
 11
0.031060000000000004
 21
0.013136040330158688
 31
0.0
  0
LINE
  5
74
330
17
100
AcDbEntity
  8
0
100
AcDbLine
 10
0.031060000000000004
 20
0.013136040330158688
 30
0.0
 11
0.03155
 21
0.013239251405490336
 31
0.0
  0
LINE
  5
75
330
17
100
AcDbEntity
  8
0
100
AcDbLine
 10
0.03155
 20
0.013239251405490336
 30
0.0
 11
0.032040000000000006
 21
0.013341664064126336
 31
0.0
  0
LINE
  5
76
330
17
100
AcDbEntity
  8
0
100
AcDbLine
 10
0.032040000000000006
 20
0.013341664064126336
 30
0.0
 11
0.03253
 21
0.013443296553383855
 31
0.0
  0
LINE
  5
77
330
17
100
AcDbEntity
  8
0
100
AcDbLine
 10
0.03253
 20
0.013443296553383855
 30
0.0
 11
0.03302
 21
0.01354416643594003
 31
0.0
  0
LINE
  5
78
330
17
100
AcDbEntity
  8
0
100
AcDbLine
 10
0.03302
 20
0.01354416643594003
 30
0.0
 11
0.033510000000000005
 21
0.013644290625263986
 31
0.0
  0
LINE
  5
79
330
17
100
AcDbEntity
  8
0
100
AcDbLine
 10
0.033510000000000005
 20
0.013644290625263986
 30
0.0
 11
0.034010000000000006
 21
0.013745706400343508
 31
0.0
  0
LINE
  5
7A
330
17
100
AcDbEntity
  8
0
100
AcDbLine
 10
0.034010000000000006
 20
0.013745706400343508
 30
0.0
 11
0.034510000000000006
 21
0.01384637939037575
 31
0.0
  0
LINE
  5
7B
330
17
100
AcDbEntity
  8
0
100
AcDbLine
 10
0.034510000000000006
 20
0.01384637939037575
 30
0.0
 11
0.03501
 21
0.013946325680981354
 31
0.0
  0
LINE
  5
7C
330
17
100
AcDbEntity
  8
0
100
AcDbLine
 10
0.03501
 20
0.013946325680981354
 30
0.0
 11
0.03551
 21
0.014045560785450249
 31
0.0
  0
LINE
  5
7D
330
17
100
AcDbEntity
  8
0
100
AcDbLine
 10
0.03551
 20
0.014045560785450249
 30
0.0
 11
0.03601
 21
0.014144099672851415
 31
0.0
  0
LINE
  5
7E
330
17
100
AcDbEntity
  8
0
100
AcDbLine
 10
0.03601
 20
0.014144099672851415
 30
0.0
 11
0.03651
 21
0.014241956794392172
 31
0.0
  0
LINE
  5
7F
330
17
100
AcDbEntity
  8
0
100
AcDbLine
 10
0.03651
 20
0.014241956794392172
 30
0.0
 11
0.03701
 21
0.014339146108158294
 31
0.0
  0
LINE
  5
80
330
17
100
AcDbEntity
  8
0
100
AcDbLine
 10
0.03701
 20
0.014339146108158294
 30
0.0
 11
0.03751
 21
0.014435681102354986
 31
0.0
  0
LINE
  5
81
330
17
100
AcDbEntity
  8
0
100
AcDbLine
 10
0.03751
 20
0.014435681102354986
 30
0.0
 11
0.03801
 21
0.014531574817158211
 31
0.0
  0
LINE
  5
82
330
17
100
AcDbEntity
  8
0
100
AcDbLine
 10
0.03801
 20
0.014531574817158211
 30
0.0
 11
0.03851
 21
0.014626839865276589
 31
0.0
  0
LINE
  5
83
330
17
100
AcDbEntity
  8
0
100
AcDbLine
 10
0.03851
 20
0.014626839865276589
 30
0.0
 11
0.03901
 21
0.014721488451315726
 31
0.0
  0
LINE
  5
84
330
17
100
AcDbEntity
  8
0
100
AcDbLine
 10
0.03901
 20
0.014721488451315726
 30
0.0
 11
0.03951
 21
0.014815532390029055
 31
0.0
  0
LINE
  5
85
330
17
100
AcDbEntity
  8
0
100
AcDbLine
 10
0.03951
 20
0.014815532390029055
 30
0.0
 11
0.040010000000000004
 21
0.01490898312353253
 31
0.0
  0
LINE
  5
86
330
17
100
AcDbEntity
  8
0
100
AcDbLine
 10
0.040010000000000004
 20
0.01490898312353253
 30
0.0
 11
0.040510000000000004
 21
0.01500185173755412
 31
0.0
  0
LINE
  5
87
330
17
100
AcDbEntity
  8
0
100
AcDbLine
 10
0.040510000000000004
 20
0.01500185173755412
 30
0.0
 11
0.041010000000000005
 21
0.015094148976783468
 31
0.0
  0
LINE
  5
88
330
17
100
AcDbEntity
  8
0
100
AcDbLine
 10
0.041010000000000005
 20
0.015094148976783468
 30
0.0
 11
0.041510000000000005
 21
0.015185885259381858
 31
0.0
  0
LINE
  5
89
330
17
100
AcDbEntity
  8
0
100
AcDbLine
 10
0.041510000000000005
 20
0.015185885259381858
 30
0.0
 11
0.042010000000000006
 21
0.015277070690707984
 31
0.0
  0
LINE
  5
8A
330
17
100
AcDbEntity
  8
0
100
AcDbLine
 10
0.042010000000000006
 20
0.015277070690707984
 30
0.0
 11
0.042510000000000006
 21
0.015367715076310684
 31
0.0
  0
LINE
  5
8B
330
17
100
AcDbEntity
  8
0
100
AcDbLine
 10
0.042510000000000006
 20
0.015367715076310684
 30
0.0
 11
0.04301000000000001
 21
0.015457827934235925
 31
0.0
  0
LINE
  5
8C
330
17
100
AcDbEntity
  8
0
100
AcDbLine
 10
0.04301000000000001
 20
0.015457827934235925
 30
0.0
 11
0.04351000000000001
 21
0.015547418506691788
 31
0.0
  0
LINE
  5
8D
330
17
100
AcDbEntity
  8
0
100
AcDbLine
 10
0.04351000000000001
 20
0.015547418506691788
 30
0.0
 11
0.04401
 21
0.01563649577111189
 31
0.0
  0
LINE
  5
8E
330
17
100
AcDbEntity
  8
0
100
AcDbLine
 10
0.04401
 20
0.01563649577111189
 30
0.0
 11
0.04451
 21
0.015725068450654765
 31
0.0
  0
LINE
  5
8F
330
17
100
AcDbEntity
  8
0
100
AcDbLine
 10
0.04451
 20
0.015725068450654765
 30
0.0
 11
0.04501
 21
0.015813145024173896
 31
0.0
  0
LINE
  5
90
330
17
100
AcDbEntity
  8
0
100
AcDbLine
 10
0.04501
 20
0.015813145024173896
 30
0.0
 11
0.04551
 21
0.015900733735690734
 31
0.0
  0
LINE
  5
91
330
17
100
AcDbEntity
  8
0
100
AcDbLine
 10
0.04551
 20
0.015900733735690734
 30
0.0
 11
0.04601
 21
0.015987842603400595
 31
0.0
  0
LINE
  5
92
330
17
100
AcDbEntity
  8
0
100
AcDbLine
 10
0.04601
 20
0.015987842603400595
 30
0.0
 11
0.04651
 21
0.016074479428239315
 31
0.0
  0
LINE
  5
93
330
17
100
AcDbEntity
  8
0
100
AcDbLine
 10
0.04651
 20
0.016074479428239315
 30
0.0
 11
0.04701
 21
0.016160651802036533
 31
0.0
  0
LINE
  5
94
330
17
100
AcDbEntity
  8
0
100
AcDbLine
 10
0.04701
 20
0.016160651802036533
 30
0.0
 11
0.047510000000000004
 21
0.016246367115279787
 31
0.0
  0
LINE
  5
95
330
17
100
AcDbEntity
  8
0
100
AcDbLine
 10
0.047510000000000004
 20
0.016246367115279787
 30
0.0
 11
0.048010000000000004
 21
0.016331632564511797
 31
0.0
  0
LINE
  5
96
330
17
100
AcDbEntity
  8
0
100
AcDbLine
 10
0.048010000000000004
 20
0.016331632564511797
 30
0.0
 11
0.048510000000000005
 21
0.016416455159382004
 31
0.0
  0
LINE
  5
97
330
17
100
AcDbEntity
  8
0
100
AcDbLine
 10
0.048510000000000005
 20
0.016416455159382004
 30
0.0
 11
0.049010000000000005
 21
0.0165008417293718
 31
0.0
  0
LINE
  5
98
330
17
100
AcDbEntity
  8
0
100
AcDbLine
 10
0.049010000000000005
 20
0.0165008417293718
 30
0.0
 11
0.049510000000000005
 21
0.016584798930211832
 31
0.0
  0
LINE
  5
99
330
17
100
AcDbEntity
  8
0
100
AcDbLine
 10
0.049510000000000005
 20
0.016584798930211832
 30
0.0
 11
0.050010000000000006
 21
0.016668333250008334
 31
0.0
  0
LINE
  5
9A
330
17
100
AcDbEntity
  8
0
100
AcDbLine
 10
0.050010000000000006
 20
0.016668333250008334
 30
0.0
 11
0.050510000000000006
 21
0.01675145101509452
 31
0.0
  0
LINE
  5
9B
330
17
100
AcDbEntity
  8
0
100
AcDbLine
 10
0.050510000000000006
 20
0.01675145101509452
 30
0.0
 11
0.05101000000000001
 21
0.01683415839562195
 31
0.0
  0
LINE
  5
9C
330
17
100
AcDbEntity
  8
0
100
AcDbLine
 10
0.05101000000000001
 20
0.01683415839562195
 30
0.0
 11
0.05151000000000001
 21
0.016916461410905848
 31
0.0
  0
LINE
  5
9D
330
17
100
AcDbEntity
  8
0
100
AcDbLine
 10
0.05151000000000001
 20
0.016916461410905848
 30
0.0
 11
0.05201000000000001
 21
0.016998365934537487
 31
0.0
  0
LINE
  5
9E
330
17
100
AcDbEntity
  8
0
100
AcDbLine
 10
0.05201000000000001
 20
0.016998365934537487
 30
0.0
 11
0.05251
 21
0.0170798776992759
 31
0.0
  0
LINE
  5
9F
330
17
100
AcDbEntity
  8
0
100
AcDbLine
 10
0.05251
 20
0.0170798776992759
 30
0.0
 11
0.05301
 21
0.017161002301730514
 31
0.0
  0
LINE
  5
A0
330
17
100
AcDbEntity
  8
0
100
AcDbLine
 10
0.05301
 20
0.017161002301730514
 30
0.0
 11
0.05351
 21
0.017241745206845443
 31
0.0
  0
LINE
  5
A1
330
17
100
AcDbEntity
  8
0
100
AcDbLine
 10
0.05351
 20
0.017241745206845443
 30
0.0
 11
0.05401
 21
0.01732211175219568
 31
0.0
  0
LINE
  5
A2
330
17
100
AcDbEntity
  8
0
100
AcDbLine
 10
0.05401
 20
0.01732211175219568
 30
0.0
 11
0.05451
 21
0.017402107152104697
 31
0.0
  0
LINE
  5
A3
330
17
100
AcDbEntity
  8
0
100
AcDbLine
 10
0.05451
 20
0.017402107152104697
 30
0.0
 11
0.05501
 21
0.017481736501592487
 31
0.0
  0
LINE
  5
A4
330
17
100
AcDbEntity
  8
0
100
AcDbLine
 10
0.05501
 20
0.017481736501592487
 30
0.0
 11
0.055510000000000004
 21
0.017561004780162464
 31
0.0
  0
LINE
  5
A5
330
17
100
AcDbEntity
  8
0
100
AcDbLine
 10
0.055510000000000004
 20
0.017561004780162464
 30
0.0
 11
0.056010000000000004
 21
0.017639916855435197
 31
0.0
  0
LINE
  5
A6
330
17
100
AcDbEntity
  8
0
100
AcDbLine
 10
0.056010000000000004
 20
0.017639916855435197
 30
0.0
 11
0.056510000000000005
 21
0.017718477486636502
 31
0.0
  0
LINE
  5
A7
330
17
100
AcDbEntity
  8
0
100
AcDbLine
 10
0.056510000000000005
 20
0.017718477486636502
 30
0.0
 11
0.057010000000000005
 21
0.017796691327946954
 31
0.0
  0
LINE
  5
A8
330
17
100
AcDbEntity
  8
0
100
AcDbLine
 10
0.057010000000000005
 20
0.017796691327946954
 30
0.0
 11
0.057510000000000006
 21
0.017874562931719476
 31
0.0
  0
LINE
  5
A9
330
17
100
AcDbEntity
  8
0
100
AcDbLine
 10
0.057510000000000006
 20
0.017874562931719476
 30
0.0
 11
0.058010000000000006
 21
0.01795209675157133
 31
0.0
  0
LINE
  5
AA
330
17
100
AcDbEntity
  8
0
100
AcDbLine
 10
0.058010000000000006
 20
0.01795209675157133
 30
0.0
 11
0.058510000000000006
 21
0.018029297145356376
 31
0.0
  0
LINE
  5
AB
330
17
100
AcDbEntity
  8
0
100
AcDbLine
 10
0.058510000000000006
 20
0.018029297145356376
 30
0.0
 11
0.05901000000000001
 21
0.01810616837802337
 31
0.0
  0
LINE
  5
AC
330
17
100
AcDbEntity
  8
0
100
AcDbLine
 10
0.05901000000000001
 20
0.01810616837802337
 30
0.0
 11
0.05951000000000001
 21
0.018182714624365395
 31
0.0
  0
LINE
  5
AD
330
17
100
AcDbEntity
  8
0
100
AcDbLine
 10
0.05951000000000001
 20
0.018182714624365395
 30
0.0
 11
0.06001000000000001
 21
0.01825893997166563
 31
0.0
  0
LINE
  5
AE
330
17
100
AcDbEntity
  8
0
100
AcDbLine
 10
0.06001000000000001
 20
0.01825893997166563
 30
0.0
 11
0.06051000000000001
 21
0.018334848422244095
 31
0.0
  0
LINE
  5
AF
330
17
100
AcDbEntity
  8
0
100
AcDbLine
 10
0.06051000000000001
 20
0.018334848422244095
 30
0.0
 11
0.06101
 21
0.018410443895909855
 31
0.0
  0
LINE
  5
B0
330
17
100
AcDbEntity
  8
0
100
AcDbLine
 10
0.06101
 20
0.018410443895909855
 30
0.0
 11
0.06151
 21
0.018485730232323045
 31
0.0
  0
LINE
  5
B1
330
17
100
AcDbEntity
  8
0
100
AcDbLine
 10
0.06151
 20
0.018485730232323045
 30
0.0
 11
0.06201
 21
0.018560711193270584
 31
0.0
  0
LINE
  5
B2
330
17
100
AcDbEntity
  8
0
100
AcDbLine
 10
0.06201
 20
0.018560711193270584
 30
0.0
 11
0.06251000000000001
 21
0.018635390464859538
 31
0.0
  0
LINE
  5
B3
330
17
100
AcDbEntity
  8
0
100
AcDbLine
 10
0.06251000000000001
 20
0.018635390464859538
 30
0.0
 11
0.06301000000000001
 21
0.01870977165963165
 31
0.0
  0
LINE
  5
B4
330
17
100
AcDbEntity
  8
0
100
AcDbLine
 10
0.06301000000000001
 20
0.01870977165963165
 30
0.0
 11
0.06351000000000001
 21
0.01878385831860253
 31
0.0
  0
LINE
  5
B5
330
17
100
AcDbEntity
  8
0
100
AcDbLine
 10
0.06351000000000001
 20
0.01878385831860253
 30
0.0
 11
0.06401000000000001
 21
0.01885765391322874
 31
0.0
  0
LINE
  5
B6
330
17
100
AcDbEntity
  8
0
100
AcDbLine
 10
0.06401000000000001
 20
0.01885765391322874
 30
0.0
 11
0.06451000000000001
 21
0.01893116184730586
 31
0.0
  0
LINE
  5
B7
330
17
100
AcDbEntity
  8
0
100
AcDbLine
 10
0.06451000000000001
 20
0.01893116184730586
 30
0.0
 11
0.06501000000000001
 21
0.01900438545880047
 31
0.0
  0
LINE
  5
B8
330
17
100
AcDbEntity
  8
0
100
AcDbLine
 10
0.06501000000000001
 20
0.01900438545880047
 30
0.0
 11
0.06551
 21
0.019077328021618867
 31
0.0
  0
LINE
  5
B9
330
17
100
AcDbEntity
  8
0
100
AcDbLine
 10
0.06551
 20
0.019077328021618867
 30
0.0
 11
0.06601
 21
0.019149992747315134
 31
0.0
  0
LINE
  5
BA
330
17
100
AcDbEntity
  8
0
100
AcDbLine
 10
0.06601
 20
0.019149992747315134
 30
0.0
 11
0.06651
 21
0.019222382786741085
 31
0.0
  0
LINE
  5
BB
330
17
100
AcDbEntity
  8
0
100
AcDbLine
 10
0.06651
 20
0.019222382786741085
 30
0.0
 11
0.06701
 21
0.01929450123164053
 31
0.0
  0
LINE
  5
BC
330
17
100
AcDbEntity
  8
0
100
AcDbLine
 10
0.06701
 20
0.01929450123164053
 30
0.0
 11
0.06751
 21
0.01936635111619005
 31
0.0
  0
LINE
  5
BD
330
17
100
AcDbEntity
  8
0
100
AcDbLine
 10
0.06751
 20
0.01936635111619005
 30
0.0
 11
0.06801
 21
0.019437935418488594
 31
0.0
  0
LINE
  5
BE
330
17
100
AcDbEntity
  8
0
100
AcDbLine
 10
0.06801
 20
0.019437935418488594
 30
0.0
 11
0.06851
 21
0.0195092570619978
 31
0.0
  0
LINE
  5
BF
330
17
100
AcDbEntity
  8
0
100
AcDbLine
 10
0.06851
 20
0.0195092570619978
 30
0.0
 11
0.06901
 21
0.019580318916935163
 31
0.0
  0
LINE
  5
C0
330
17
100
AcDbEntity
  8
0
100
AcDbLine
 10
0.06901
 20
0.019580318916935163
 30
0.0
 11
0.06951
 21
0.019651123801621796
 31
0.0
  0
LINE
  5
C1
330
17
100
AcDbEntity
  8
0
100
AcDbLine
 10
0.06951
 20
0.019651123801621796
 30
0.0
 11
0.07001
 21
0.019721674483786727
 31
0.0
  0
LINE
  5
C2
330
17
100
AcDbEntity
  8
0
100
AcDbLine
 10
0.07001
 20
0.019721674483786727
 30
0.0
 11
0.07051
 21
0.019791973681829264
 31
0.0
  0
LINE
  5
C3
330
17
100
AcDbEntity
  8
0
100
AcDbLine
 10
0.07051
 20
0.019791973681829264
 30
0.0
 11
0.07101
 21
0.019862024066041206
 31
0.0
  0
LINE
  5
C4
330
17
100
AcDbEntity
  8
0
100
AcDbLine
 10
0.07101
 20
0.019862024066041206
 30
0.0
 11
0.07151
 21
0.01993182825979037
 31
0.0
  0
LINE
  5
C5
330
17
100
AcDbEntity
  8
0
100
AcDbLine
 10
0.07151
 20
0.01993182825979037
 30
0.0
 11
0.07201
 21
0.02000138884066693
 31
0.0
  0
LINE
  5
C6
330
17
100
AcDbEntity
  8
0
100
AcDbLine
 10
0.07201
 20
0.02000138884066693
 30
0.0
 11
0.07251
 21
0.02007070834159406
 31
0.0
  0
LINE
  5
C7
330
17
100
AcDbEntity
  8
0
100
AcDbLine
 10
0.07251
 20
0.02007070834159406
 30
0.0
 11
0.07301
 21
0.020139789251904083
 31
0.0
  0
LINE
  5
C8
330
17
100
AcDbEntity
  8
0
100
AcDbLine
 10
0.07301
 20
0.020139789251904083
 30
0.0
 11
0.07351
 21
0.020208634018381574
 31
0.0
  0
LINE
  5
C9
330
17
100
AcDbEntity
  8
0
100
AcDbLine
 10
0.07351
 20
0.020208634018381574
 30
0.0
 11
0.07401
 21
0.020277245046274574
 31
0.0
  0
LINE
  5
CA
330
17
100
AcDbEntity
  8
0
100
AcDbLine
 10
0.07401
 20
0.020277245046274574
 30
0.0
 11
0.07451
 21
0.02034562470027511
 31
0.0
  0
LINE
  5
CB
330
17
100
AcDbEntity
  8
0
100
AcDbLine
 10
0.07451
 20
0.02034562470027511
 30
0.0
 11
0.07501000000000001
 21
0.020413775305470134
 31
0.0
  0
LINE
  5
CC
330
17
100
AcDbEntity
  8
0
100
AcDbLine
 10
0.07501000000000001
 20
0.020413775305470134
 30
0.0
 11
0.07551000000000001
 21
0.020481699148264046
 31
0.0
  0
LINE
  5
CD
330
17
100
AcDbEntity
  8
0
100
AcDbLine
 10
0.07551000000000001
 20
0.020481699148264046
 30
0.0
 11
0.07601000000000001
 21
0.02054939847727368
 31
0.0
  0
LINE
  5
CE
330
17
100
AcDbEntity
  8
0
100
AcDbLine
 10
0.07601000000000001
 20
0.02054939847727368
 30
0.0
 11
0.07651000000000001
 21
0.020616875504196937
 31
0.0
  0
LINE
  5
CF
330
17
100
AcDbEntity
  8
0
100
AcDbLine
 10
0.07651000000000001
 20
0.020616875504196937
 30
0.0
 11
0.07701000000000001
 21
0.02068413240465583
 31
0.0
  0
LINE
  5
D0
330
17
100
AcDbEntity
  8
0
100
AcDbLine
 10
0.07701000000000001
 20
0.02068413240465583
 30
0.0
 11
0.07751000000000001
 21
0.02075117131901501
 31
0.0
  0
LINE
  5
D1
330
17
100
AcDbEntity
  8
0
100
AcDbLine
 10
0.07751000000000001
 20
0.02075117131901501
 30
0.0
 11
0.07801000000000001
 21
0.020817994353176508
 31
0.0
  0
LINE
  5
D2
330
17
100
AcDbEntity
  8
0
100
AcDbLine
 10
0.07801000000000001
 20
0.020817994353176508
 30
0.0
 11
0.07851000000000001
 21
0.020884603579351627
 31
0.0
  0
LINE
  5
D3
330
17
100
AcDbEntity
  8
0
100
AcDbLine
 10
0.07851000000000001
 20
0.020884603579351627
 30
0.0
 11
0.07901000000000001
 21
0.020951001036810735
 31
0.0
  0
LINE
  5
D4
330
17
100
AcDbEntity
  8
0
100
AcDbLine
 10
0.07901000000000001
 20
0.020951001036810735
 30
0.0
 11
0.07951000000000001
 21
0.02101718873261175
 31
0.0
  0
LINE
  5
D5
330
17
100
AcDbEntity
  8
0
100
AcDbLine
 10
0.07951000000000001
 20
0.02101718873261175
 30
0.0
 11
0.08001000000000001
 21
0.02108316864230802
 31
0.0
  0
LINE
  5
D6
330
17
100
AcDbEntity
  8
0
100
AcDbLine
 10
0.08001000000000001
 20
0.02108316864230802
 30
0.0
 11
0.08051000000000001
 21
0.02114894271063634
 31
0.0
  0
LINE
  5
D7
330
17
100
AcDbEntity
  8
0
100
AcDbLine
 10
0.08051000000000001
 20
0.02114894271063634
 30
0.0
 11
0.08101000000000001
 21
0.02121451285218578
 31
0.0
  0
LINE
  5
D8
330
17
100
AcDbEntity
  8
0
100
AcDbLine
 10
0.08101000000000001
 20
0.02121451285218578
 30
0.0
 11
0.08151000000000001
 21
0.021279880952047955
 31
0.0
  0
LINE
  5
D9
330
17
100
AcDbEntity
  8
0
100
AcDbLine
 10
0.08151000000000001
 20
0.021279880952047955
 30
0.0
 11
0.08201000000000001
 21
0.021345048866449362
 31
0.0
  0
LINE
  5
DA
330
17
100
AcDbEntity
  8
0
100
AcDbLine
 10
0.08201000000000001
 20
0.021345048866449362
 30
0.0
 11
0.08251
 21
0.021410018423366407
 31
0.0
  0
LINE
  5
DB
330
17
100
AcDbEntity
  8
0
100
AcDbLine
 10
0.08251
 20
0.021410018423366407
 30
0.0
 11
0.08301
 21
0.02147479142312369
 31
0.0
  0
LINE
  5
DC
330
17
100
AcDbEntity
  8
0
100
AcDbLine
 10
0.08301
 20
0.02147479142312369
 30
0.0
 11
0.08351
 21
0.02153936963897608
 31
0.0
  0
LINE
  5
DD
330
17
100
AcDbEntity
  8
0
100
AcDbLine
 10
0.08351
 20
0.02153936963897608
 30
0.0
 11
0.08401
 21
0.021603754817675153
 31
0.0
  0
LINE
  5
DE
330
17
100
AcDbEntity
  8
0
100
AcDbLine
 10
0.08401
 20
0.021603754817675153
 30
0.0
 11
0.08451
 21
0.021667948680020453
 31
0.0
  0
LINE
  5
DF
330
17
100
AcDbEntity
  8
0
100
AcDbLine
 10
0.08451
 20
0.021667948680020453
 30
0.0
 11
0.08501
 21
0.021731952921396132
 31
0.0
  0
LINE
  5
E0
330
17
100
AcDbEntity
  8
0
100
AcDbLine
 10
0.08501
 20
0.021731952921396132
 30
0.0
 11
0.08551
 21
0.02179576921229337
 31
0.0
  0
LINE
  5
E1
330
17
100
AcDbEntity
  8
0
100
AcDbLine
 10
0.08551
 20
0.02179576921229337
 30
0.0
 11
0.08601
 21
0.021859399198819105
 31
0.0
  0
LINE
  5
E2
330
17
100
AcDbEntity
  8
0
100
AcDbLine
 10
0.08601
 20
0.021859399198819105
 30
0.0
 11
0.08651
 21
0.02192284450319144
 31
0.0
  0
LINE
  5
E3
330
17
100
AcDbEntity
  8
0
100
AcDbLine
 10
0.08651
 20
0.02192284450319144
 30
0.0
 11
0.08701
 21
0.02198610672422221
 31
0.0
  0
LINE
  5
E4
330
17
100
AcDbEntity
  8
0
100
AcDbLine
 10
0.08701
 20
0.02198610672422221
 30
0.0
 11
0.08751
 21
0.02204918743778706
 31
0.0
  0
LINE
  5
E5
330
17
100
AcDbEntity
  8
0
100
AcDbLine
 10
0.08751
 20
0.02204918743778706
 30
0.0
 11
0.08801
 21
0.022112088197283507
 31
0.0
  0
LINE
  5
E6
330
17
100
AcDbEntity
  8
0
100
AcDbLine
 10
0.08801
 20
0.022112088197283507
 30
0.0
 11
0.08851
 21
0.022174810534077227
 31
0.0
  0
LINE
  5
E7
330
17
100
AcDbEntity
  8
0
100
AcDbLine
 10
0.08851
 20
0.022174810534077227
 30
0.0
 11
0.08901
 21
0.022237355957937088
 31
0.0
  0
LINE
  5
E8
330
17
100
AcDbEntity
  8
0
100
AcDbLine
 10
0.08901
 20
0.022237355957937088
 30
0.0
 11
0.08951
 21
0.02229972595745916
 31
0.0
  0
LINE
  5
E9
330
17
100
AcDbEntity
  8
0
100
AcDbLine
 10
0.08951
 20
0.02229972595745916
 30
0.0
 11
0.09001
 21
0.022361922000480094
 31
0.0
  0
LINE
  5
EA
330
17
100
AcDbEntity
  8
0
100
AcDbLine
 10
0.09001
 20
0.022361922000480094
 30
0.0
 11
0.09051000000000001
 21
0.022423945534480176
 31
0.0
  0
LINE
  5
EB
330
17
100
AcDbEntity
  8
0
100
AcDbLine
 10
0.09051000000000001
 20
0.022423945534480176
 30
0.0
 11
0.09101000000000001
 21
0.022485797986976384
 31
0.0
  0
LINE
  5
EC
330
17
100
AcDbEntity
  8
0
100
AcDbLine
 10
0.09101000000000001
 20
0.022485797986976384
 30
0.0
 11
0.09151000000000001
 21
0.022547480765905733
 31
0.0
  0
LINE
  5
ED
330
17
100
AcDbEntity
  8
0
100
AcDbLine
 10
0.09151000000000001
 20
0.022547480765905733
 30
0.0
 11
0.09201000000000001
 21
0.02260899525999921
 31
0.0
  0
LINE
  5
EE
330
17
100
AcDbEntity
  8
0
100
AcDbLine
 10
0.09201000000000001
 20
0.02260899525999921
 30
0.0
 11
0.09251000000000001
 21
0.02267034283914658
 31
0.0
  0
LINE
  5
EF
330
17
100
AcDbEntity
  8
0
100
AcDbLine
 10
0.09251000000000001
 20
0.02267034283914658
 30
0.0
 11
0.09301000000000001
 21
0.022731524854752314
 31
0.0
  0
LINE
  5
F0
330
17
100
AcDbEntity
  8
0
100
AcDbLine
 10
0.09301000000000001
 20
0.022731524854752314
 30
0.0
 11
0.09351000000000001
 21
0.022792542640082965
 31
0.0
  0
LINE
  5
F1
330
17
100
AcDbEntity
  8
0
100
AcDbLine
 10
0.09351000000000001
 20
0.022792542640082965
 30
0.0
 11
0.09401000000000001
 21
0.022853397510606117
 31
0.0
  0
LINE
  5
F2
330
17
100
AcDbEntity
  8
0
100
AcDbLine
 10
0.09401000000000001
 20
0.022853397510606117
 30
0.0
 11
0.09451000000000001
 21
0.022914090764321323
 31
0.0
  0
LINE
  5
F3
330
17
100
AcDbEntity
  8
0
100
AcDbLine
 10
0.09451000000000001
 20
0.022914090764321323
 30
0.0
 11
0.09501000000000001
 21
0.022974623682083098
 31
0.0
  0
LINE
  5
F4
330
17
100
AcDbEntity
  8
0
100
AcDbLine
 10
0.09501000000000001
 20
0.022974623682083098
 30
0.0
 11
0.09551000000000001
 21
0.023034997527916323
 31
0.0
  0
LINE
  5
F5
330
17
100
AcDbEntity
  8
0
100
AcDbLine
 10
0.09551000000000001
 20
0.023034997527916323
 30
0.0
 11
0.09601000000000001
 21
0.023095213549324218
 31
0.0
  0
LINE
  5
F6
330
17
100
AcDbEntity
  8
0
100
AcDbLine
 10
0.09601000000000001
 20
0.023095213549324218
 30
0.0
 11
0.09651000000000001
 21
0.023155272977589073
 31
0.0
  0
LINE
  5
F7
330
17
100
AcDbEntity
  8
0
100
AcDbLine
 10
0.09651000000000001
 20
0.023155272977589073
 30
0.0
 11
0.09701000000000001
 21
0.023215177028066025
 31
0.0
  0
LINE
  5
F8
330
17
100
AcDbEntity
  8
0
100
AcDbLine
 10
0.09701000000000001
 20
0.023215177028066025
 30
0.0
 11
0.09751000000000001
 21
0.023274926900470005
 31
0.0
  0
LINE
  5
F9
330
17
100
AcDbEntity
  8
0
100
AcDbLine
 10
0.09751000000000001
 20
0.023274926900470005
 30
0.0
 11
0.09801000000000001
 21
0.02333452377915607
 31
0.0
  0
LINE
  5
FA
330
17
100
AcDbEntity
  8
0
100
AcDbLine
 10
0.09801000000000001
 20
0.02333452377915607
 30
0.0
 11
0.09851000000000001
 21
0.023393968833393317
 31
0.0
  0
LINE
  5
FB
330
17
100
AcDbEntity
  8
0
100
AcDbLine
 10
0.09851000000000001
 20
0.023393968833393317
 30
0.0
 11
0.09901000000000001
 21
0.023453263217632546
 31
0.0
  0
LINE
  5
FC
330
17
100
AcDbEntity
  8
0
100
AcDbLine
 10
0.09901000000000001
 20
0.023453263217632546
 30
0.0
 11
0.09951
 21
0.02351240807176784
 31
0.0
  0
LINE
  5
FD
330
17
100
AcDbEntity
  8
0
100
AcDbLine
 10
0.09951
 20
0.02351240807176784
 30
0.0
 11
0.10001
 21
0.023571404521392253
 31
0.0
  0
LINE
  5
FE
330
17
100
AcDbEntity
  8
0
100
AcDbLine
 10
0.10001
 20
0.023571404521392253
 30
0.0
 11
0.10051
 21
0.023630253678047747
 31
0.0
  0
LINE
  5
FF
330
17
100
AcDbEntity
  8
0
100
AcDbLine
 10
0.10051
 20
0.023630253678047747
 30
0.0
 11
0.10101
 21
0.023688956639469516
 31
0.0
  0
LINE
  5
100
330
17
100
AcDbEntity
  8
0
100
AcDbLine
 10
0.10101
 20
0.023688956639469516
 30
0.0
 11
0.10151
 21
0.023747514489824918
 31
0.0
  0
LINE
  5
101
330
17
100
AcDbEntity
  8
0
100
AcDbLine
 10
0.10151
 20
0.023747514489824918
 30
0.0
 11
0.10201
 21
0.0238059282999471
 31
0.0
  0
LINE
  5
102
330
17
100
AcDbEntity
  8
0
100
AcDbLine
 10
0.10201
 20
0.0238059282999471
 30
0.0
 11
0.10251
 21
0.02386419912756345
 31
0.0
  0
LINE
  5
103
330
17
100
AcDbEntity
  8
0
100
AcDbLine
 10
0.10251
 20
0.02386419912756345
 30
0.0
 11
0.10301
 21
0.02392232801751907
 31
0.0
  0
LINE
  5
104
330
17
100
AcDbEntity
  8
0
100
AcDbLine
 10
0.10301
 20
0.02392232801751907
 30
0.0
 11
0.10351
 21
0.023980316001995378
 31
0.0
  0
LINE
  5
105
330
17
100
AcDbEntity
  8
0
100
AcDbLine
 10
0.10351
 20
0.023980316001995378
 30
0.0
 11
0.10401
 21
0.024038164100723944
 31
0.0
  0
LINE
  5
106
330
17
100
AcDbEntity
  8
0
100
AcDbLine
 10
0.10401
 20
0.024038164100723944
 30
0.0
 11
0.10451
 21
0.024095873321195713
 31
0.0
  0
LINE
  5
107
330
17
100
AcDbEntity
  8
0
100
AcDbLine
 10
0.10451
 20
0.024095873321195713
 30
0.0
 11
0.10501
 21
0.024153444658865722
 31
0.0
  0
LINE
  5
108
330
17
100
AcDbEntity
  8
0
100
AcDbLine
 10
0.10501
 20
0.024153444658865722
 30
0.0
 11
0.10551
 21
0.024210879097353463
 31
0.0
  0
LINE
  5
109
330
17
100
AcDbEntity
  8
0
100
AcDbLine
 10
0.10551
 20
0.024210879097353463
 30
0.0
 11
0.10601000000000001
 21
0.024268177608638943
 31
0.0
  0
LINE
  5
10A
330
17
100
AcDbEntity
  8
0
100
AcDbLine
 10
0.10601000000000001
 20
0.024268177608638943
 30
0.0
 11
0.10651000000000001
 21
0.02432534115325461
 31
0.0
  0
LINE
  5
10B
330
17
100
AcDbEntity
  8
0
100
AcDbLine
 10
0.10651000000000001
 20
0.02432534115325461
 30
0.0
 11
0.10701000000000001
 21
0.02438237068047322
 31
0.0
  0
LINE
  5
10C
330
17
100
AcDbEntity
  8
0
100
AcDbLine
 10
0.10701000000000001
 20
0.02438237068047322
 30
0.0
 11
0.10751000000000001
 21
0.02443926712849176
 31
0.0
  0
LINE
  5
10D
330
17
100
AcDbEntity
  8
0
100
AcDbLine
 10
0.10751000000000001
 20
0.02443926712849176
 30
0.0
 11
0.10801000000000001
 21
0.02449603142461153
 31
0.0
  0
LINE
  5
10E
330
17
100
AcDbEntity
  8
0
100
AcDbLine
 10
0.10801000000000001
 20
0.02449603142461153
 30
0.0
 11
0.10851000000000001
 21
0.024552664485414478
 31
0.0
  0
LINE
  5
10F
330
17
100
AcDbEntity
  8
0
100
AcDbLine
 10
0.10851000000000001
 20
0.024552664485414478
 30
0.0
 11
0.10901000000000001
 21
0.024609167216935873
 31
0.0
  0
LINE
  5
110
330
17
100
AcDbEntity
  8
0
100
AcDbLine
 10
0.10901000000000001
 20
0.024609167216935873
 30
0.0
 11
0.10951000000000001
 21
0.024665540514833422
 31
0.0
  0
LINE
  5
111
330
17
100
AcDbEntity
  8
0
100
AcDbLine
 10
0.10951000000000001
 20
0.024665540514833422
 30
0.0
 11
0.11001000000000001
 21
0.024721785264552938
 31
0.0
  0
LINE
  5
112
330
17
100
AcDbEntity
  8
0
100
AcDbLine
 10
0.11001000000000001
 20
0.024721785264552938
 30
0.0
 11
0.11051000000000001
 21
0.024777902341490583
 31
0.0
  0
LINE
  5
113
330
17
100
AcDbEntity
  8
0
100
AcDbLine
 10
0.11051000000000001
 20
0.024777902341490583
 30
0.0
 11
0.11101000000000001
 21
0.024833892611151848
 31
0.0
  0
LINE
  5
114
330
17
100
AcDbEntity
  8
0
100
AcDbLine
 10
0.11101000000000001
 20
0.024833892611151848
 30
0.0
 11
0.11151000000000001
 21
0.024889756929307286
 31
0.0
  0
LINE
  5
115
330
17
100
AcDbEntity
  8
0
100
AcDbLine
 10
0.11151000000000001
 20
0.024889756929307286
 30
0.0
 11
0.11201000000000001
 21
0.024945496142145137
 31
0.0
  0
LINE
  5
116
330
17
100
AcDbEntity
  8
0
100
AcDbLine
 10
0.11201000000000001
 20
0.024945496142145137
 30
0.0
 11
0.11251000000000001
 21
0.025001111086420853
 31
0.0
  0
LINE
  5
117
330
17
100
AcDbEntity
  8
0
100
AcDbLine
 10
0.11251000000000001
 20
0.025001111086420853
 30
0.0
 11
0.11301000000000001
 21
0.025056602589603672
 31
0.0
  0
LINE
  5
118
330
17
100
AcDbEntity
  8
0
100
AcDbLine
 10
0.11301000000000001
 20
0.025056602589603672
 30
0.0
 11
0.11351000000000001
 21
0.025111971470020256
 31
0.0
  0
LINE
  5
119
330
17
100
AcDbEntity
  8
0
100
AcDbLine
 10
0.11351000000000001
 20
0.025111971470020256
 30
0.0
 11
0.11401000000000001
 21
0.02516721853699548
 31
0.0
  0
LINE
  5
11A
330
17
100
AcDbEntity
  8
0
100
AcDbLine
 10
0.11401000000000001
 20
0.02516721853699548
 30
0.0
 11
0.11451000000000001
 21
0.025222344590990483
 31
0.0
  0
LINE
  5
11B
330
17
100
AcDbEntity
  8
0
100
AcDbLine
 10
0.11451000000000001
 20
0.025222344590990483
 30
0.0
 11
0.11501000000000001
 21
0.025277350423737938
 31
0.0
  0
LINE
  5
11C
330
17
100
AcDbEntity
  8
0
100
AcDbLine
 10
0.11501000000000001
 20
0.025277350423737938
 30
0.0
 11
0.11551000000000002
 21
0.025332236818374772
 31
0.0
  0
LINE
  5
11D
330
17
100
AcDbEntity
  8
0
100
AcDbLine
 10
0.11551000000000002
 20
0.025332236818374772
 30
0.0
 11
0.11601000000000002
 21
0.025387004549572212
 31
0.0
  0
LINE
  5
11E
330
17
100
AcDbEntity
  8
0
100
AcDbLine
 10
0.11601000000000002
 20
0.025387004549572212
 30
0.0
 11
0.11651000000000002
 21
0.025441654383663376
 31
0.0
  0
LINE
  5
11F
330
17
100
AcDbEntity
  8
0
100
AcDbLine
 10
0.11651000000000002
 20
0.025441654383663376
 30
0.0
 11
0.11701
 21
0.02549618707876838
 31
0.0
  0
LINE
  5
120
330
17
100
AcDbEntity
  8
0
100
AcDbLine
 10
0.11701
 20
0.02549618707876838
 30
0.0
 11
0.11751
 21
0.025550603384917027
 31
0.0
  0
LINE
  5
121
330
17
100
AcDbEntity
  8
0
100
AcDbLine
 10
0.11751
 20
0.025550603384917027
 30
0.0
 11
0.11801
 21
0.02560490404416918
 31
0.0
  0
LINE
  5
122
330
17
100
AcDbEntity
  8
0
100
AcDbLine
 10
0.11801
 20
0.02560490404416918
 30
0.0
 11
0.11851
 21
0.025659089790732816
 31
0.0
  0
LINE
  5
123
330
17
100
AcDbEntity
  8
0
100
AcDbLine
 10
0.11851
 20
0.025659089790732816
 30
0.0
 11
0.11901
 21
0.025713161351079858
 31
0.0
  0
LINE
  5
124
330
17
100
AcDbEntity
  8
0
100
AcDbLine
 10
0.11901
 20
0.025713161351079858
 30
0.0
 11
0.11951
 21
0.0257671194440598
 31
0.0
  0
LINE
  5
125
330
17
100
AcDbEntity
  8
0
100
AcDbLine
 10
0.11951
 20
0.0257671194440598
 30
0.0
 11
0.12001
 21
0.02582096478101123
 31
0.0
  0
LINE
  5
126
330
17
100
AcDbEntity
  8
0
100
AcDbLine
 10
0.12001
 20
0.02582096478101123
 30
0.0
 11
0.12051
 21
0.025874698065871223
 31
0.0
  0
LINE
  5
127
330
17
100
AcDbEntity
  8
0
100
AcDbLine
 10
0.12051
 20
0.025874698065871223
 30
0.0
 11
0.12101
 21
0.025928319995282723
 31
0.0
  0
LINE
  5
128
330
17
100
AcDbEntity
  8
0
100
AcDbLine
 10
0.12101
 20
0.025928319995282723
 30
0.0
 11
0.12151
 21
0.025981831258699906
 31
0.0
  0
LINE
  5
129
330
17
100
AcDbEntity
  8
0
100
AcDbLine
 10
0.12151
 20
0.025981831258699906
 30
0.0
 11
0.12201000000000001
 21
0.02603523253849163
 31
0.0
  0
LINE
  5
12A
330
17
100
AcDbEntity
  8
0
100
AcDbLine
 10
0.12201000000000001
 20
0.02603523253849163
 30
0.0
 11
0.12251000000000001
 21
0.02608852451004294
 31
0.0
  0
LINE
  5
12B
330
17
100
AcDbEntity
  8
0
100
AcDbLine
 10
0.12251000000000001
 20
0.02608852451004294
 30
0.0
 11
0.12301000000000001
 21
0.02614170784185473
 31
0.0
  0
LINE
  5
12C
330
17
100
AcDbEntity
  8
0
100
AcDbLine
 10
0.12301000000000001
 20
0.02614170784185473
 30
0.0
 11
0.12351000000000001
 21
0.026194783195641586
 31
0.0
  0
LINE
  5
12D
330
17
100
AcDbEntity
  8
0
100
AcDbLine
 10
0.12351000000000001
 20
0.026194783195641586
 30
0.0
 11
0.12401000000000001
 21
0.02624775122642785
 31
0.0
  0
LINE
  5
12E
330
17
100
AcDbEntity
  8
0
100
AcDbLine
 10
0.12401000000000001
 20
0.02624775122642785
 30
0.0
 11
0.12451000000000001
 21
0.026300612582641922
 31
0.0
  0
LINE
  5
12F
330
17
100
AcDbEntity
  8
0
100
AcDbLine
 10
0.12451000000000001
 20
0.026300612582641922
 30
0.0
 11
0.12501
 21
0.026353367906208874
 31
0.0
  0
LINE
  5
130
330
17
100
AcDbEntity
  8
0
100
AcDbLine
 10
0.12501
 20
0.026353367906208874
 30
0.0
 11
0.12551
 21
0.026406017832641446
 31
0.0
  0
LINE
  5
131
330
17
100
AcDbEntity
  8
0
100
AcDbLine
 10
0.12551
 20
0.026406017832641446
 30
0.0
 11
0.12601
 21
0.02645856299112927
 31
0.0
  0
LINE
  5
132
330
17
100
AcDbEntity
  8
0
100
AcDbLine
 10
0.12601
 20
0.02645856299112927
 30
0.0
 11
0.12651
 21
0.02651100400462671
 31
0.0
  0
LINE
  5
133
330
17
100
AcDbEntity
  8
0
100
AcDbLine
 10
0.12651
 20
0.02651100400462671
 30
0.0
 11
0.12701
 21
0.026563341489938937
 31
0.0
  0
LINE
  5
134
330
17
100
AcDbEntity
  8
0
100
AcDbLine
 10
0.12701
 20
0.026563341489938937
 30
0.0
 11
0.12751
 21
0.02661557605780662
 31
0.0
  0
LINE
  5
135
330
17
100
AcDbEntity
  8
0
100
AcDbLine
 10
0.12751
 20
0.02661557605780662
 30
0.0
 11
0.12801
 21
0.02666770831298908
 31
0.0
  0
LINE
  5
136
330
17
100
AcDbEntity
  8
0
100
AcDbLine
 10
0.12801
 20
0.02666770831298908
 30
0.0
 11
0.12851
 21
0.026719738854345948
 31
0.0
  0
LINE
  5
137
330
17
100
AcDbEntity
  8
0
100
AcDbLine
 10
0.12851
 20
0.026719738854345948
 30
0.0
 11
0.12901
 21
0.026771668274917466
 31
0.0
  0
LINE
  5
138
330
17
100
AcDbEntity
  8
0
100
AcDbLine
 10
0.12901
 20
0.026771668274917466
 30
0.0
 11
0.12951000000000001
 21
0.02682349716200332
 31
0.0
  0
LINE
  5
139
330
17
100
AcDbEntity
  8
0
100
AcDbLine
 10
0.12951000000000001
 20
0.02682349716200332
 30
0.0
 11
0.13001000000000001
 21
0.02687522609724015
 31
0.0
  0
LINE
  5
13A
330
17
100
AcDbEntity
  8
0
100
AcDbLine
 10
0.13001000000000001
 20
0.02687522609724015
 30
0.0
 11
0.13051000000000001
 21
0.026926855656677698
 31
0.0
  0
LINE
  5
13B
330
17
100
AcDbEntity
  8
0
100
AcDbLine
 10
0.13051000000000001
 20
0.026926855656677698
 30
0.0
 11
0.13101000000000002
 21
0.026978386410853664
 31
0.0
  0
LINE
  5
13C
330
17
100
AcDbEntity
  8
0
100
AcDbLine
 10
0.13101000000000002
 20
0.026978386410853664
 30
0.0
 11
0.13151000000000002
 21
0.02702981892486724
 31
0.0
  0
LINE
  5
13D
330
17
100
AcDbEntity
  8
0
100
AcDbLine
 10
0.13151000000000002
 20
0.02702981892486724
 30
0.0
 11
0.13201000000000002
 21
0.02708115375845145
 31
0.0
  0
LINE
  5
13E
330
17
100
AcDbEntity
  8
0
100
AcDbLine
 10
0.13201000000000002
 20
0.02708115375845145
 30
0.0
 11
0.13251000000000002
 21
0.027132391466044178
 31
0.0
  0
LINE
  5
13F
330
17
100
AcDbEntity
  8
0
100
AcDbLine
 10
0.13251000000000002
 20
0.027132391466044178
 30
0.0
 11
0.13301000000000002
 21
0.02718353259685806
 31
0.0
  0
LINE
  5
140
330
17
100
AcDbEntity
  8
0
100
AcDbLine
 10
0.13301000000000002
 20
0.02718353259685806
 30
0.0
 11
0.13351000000000002
 21
0.027234577694949164
 31
0.0
  0
LINE
  5
141
330
17
100
AcDbEntity
  8
0
100
AcDbLine
 10
0.13351000000000002
 20
0.027234577694949164
 30
0.0
 11
0.13401000000000002
 21
0.027285527299284507
 31
0.0
  0
LINE
  5
142
330
17
100
AcDbEntity
  8
0
100
AcDbLine
 10
0.13401000000000002
 20
0.027285527299284507
 30
0.0
 11
0.13451000000000002
 21
0.02733638194380847
 31
0.0
  0
LINE
  5
143
330
17
100
AcDbEntity
  8
0
100
AcDbLine
 10
0.13451000000000002
 20
0.02733638194380847
 30
0.0
 11
0.13501000000000002
 21
0.027387142157508065
 31
0.0
  0
LINE
  5
144
330
17
100
AcDbEntity
  8
0
100
AcDbLine
 10
0.13501000000000002
 20
0.027387142157508065
 30
0.0
 11
0.13551000000000002
 21
0.027437808464477145
 31
0.0
  0
LINE
  5
145
330
17
100
AcDbEntity
  8
0
100
AcDbLine
 10
0.13551000000000002
 20
0.027437808464477145
 30
0.0
 11
0.13601000000000002
 21
0.02748838138397951
 31
0.0
  0
LINE
  5
146
330
17
100
AcDbEntity
  8
0
100
AcDbLine
 10
0.13601000000000002
 20
0.02748838138397951
 30
0.0
 11
0.13651000000000002
 21
0.027538861430511048
 31
0.0
  0
LINE
  5
147
330
17
100
AcDbEntity
  8
0
100
AcDbLine
 10
0.13651000000000002
 20
0.027538861430511048
 30
0.0
 11
0.13701000000000002
 21
0.02758924911386076
 31
0.0
  0
LINE
  5
148
330
17
100
AcDbEntity
  8
0
100
AcDbLine
 10
0.13701000000000002
 20
0.02758924911386076
 30
0.0
 11
0.13751000000000002
 21
0.027639544939170847
 31
0.0
  0
LINE
  5
149
330
17
100
AcDbEntity
  8
0
100
AcDbLine
 10
0.13751000000000002
 20
0.027639544939170847
 30
0.0
 11
0.13801000000000002
 21
0.02768974940699577
 31
0.0
  0
LINE
  5
14A
330
17
100
AcDbEntity
  8
0
100
AcDbLine
 10
0.13801000000000002
 20
0.02768974940699577
 30
0.0
 11
0.13851000000000002
 21
0.027739863013360396
 31
0.0
  0
LINE
  5
14B
330
17
100
AcDbEntity
  8
0
100
AcDbLine
 10
0.13851000000000002
 20
0.027739863013360396
 30
0.0
 11
0.13901000000000002
 21
0.027789886249817177
 31
0.0
  0
LINE
  5
14C
330
17
100
AcDbEntity
  8
0
100
AcDbLine
 10
0.13901000000000002
 20
0.027789886249817177
 30
0.0
 11
0.13951000000000002
 21
0.02783981960350239
 31
0.0
  0
LINE
  5
14D
330
17
100
AcDbEntity
  8
0
100
AcDbLine
 10
0.13951000000000002
 20
0.02783981960350239
 30
0.0
 11
0.14001000000000002
 21
0.027889663557191465
 31
0.0
  0
LINE
  5
14E
330
17
100
AcDbEntity
  8
0
100
AcDbLine
 10
0.14001000000000002
 20
0.027889663557191465
 30
0.0
 11
0.14051000000000002
 21
0.02793941858935349
 31
0.0
  0
LINE
  5
14F
330
17
100
AcDbEntity
  8
0
100
AcDbLine
 10
0.14051000000000002
 20
0.02793941858935349
 30
0.0
 11
0.14101000000000002
 21
0.027989085174204766
 31
0.0
  0
LINE
  5
150
330
17
100
AcDbEntity
  8
0
100
AcDbLine
 10
0.14101000000000002
 20
0.027989085174204766
 30
0.0
 11
0.14151000000000002
 21
0.02803866378176155
 31
0.0
  0
LINE
  5
151
330
17
100
AcDbEntity
  8
0
100
AcDbLine
 10
0.14151000000000002
 20
0.02803866378176155
 30
0.0
 11
0.14201000000000003
 21
0.028088154877891937
 31
0.0
  0
LINE
  5
152
330
17
100
AcDbEntity
  8
0
100
AcDbLine
 10
0.14201000000000003
 20
0.028088154877891937
 30
0.0
 11
0.14251
 21
0.02813755892436695
 31
0.0
  0
LINE
  5
153
330
17
100
AcDbEntity
  8
0
100
AcDbLine
 10
0.14251
 20
0.02813755892436695
 30
0.0
 11
0.14301
 21
0.02818687637891081
 31
0.0
  0
LINE
  5
154
330
17
100
AcDbEntity
  8
0
100
AcDbLine
 10
0.14301
 20
0.02818687637891081
 30
0.0
 11
0.14351
 21
0.02823610769525038
 31
0.0
  0
LINE
  5
155
330
17
100
AcDbEntity
  8
0
100
AcDbLine
 10
0.14351
 20
0.02823610769525038
 30
0.0
 11
0.14401
 21
0.02828525332316392
 31
0.0
  0
LINE
  5
156
330
17
100
AcDbEntity
  8
0
100
AcDbLine
 10
0.14401
 20
0.02828525332316392
 30
0.0
 11
0.14451
 21
0.028334313708528982
 31
0.0
  0
LINE
  5
157
330
17
100
AcDbEntity
  8
0
100
AcDbLine
 10
0.14451
 20
0.028334313708528982
 30
0.0
 11
0.14501
 21
0.02838328929336963
 31
0.0
  0
LINE
  5
158
330
17
100
AcDbEntity
  8
0
100
AcDbLine
 10
0.14501
 20
0.02838328929336963
 30
0.0
 11
0.14551
 21
0.028432180515902905
 31
0.0
  0
LINE
  5
159
330
17
100
AcDbEntity
  8
0
100
AcDbLine
 10
0.14551
 20
0.028432180515902905
 30
0.0
 11
0.14601
 21
0.02848098781058457
 31
0.0
  0
LINE
  5
15A
330
17
100
AcDbEntity
  8
0
100
AcDbLine
 10
0.14601
 20
0.02848098781058457
 30
0.0
 11
0.14651
 21
0.02852971160815413
 31
0.0
  0
LINE
  5
15B
330
17
100
AcDbEntity
  8
0
100
AcDbLine
 10
0.14651
 20
0.02852971160815413
 30
0.0
 11
0.14701
 21
0.028578352335679225
 31
0.0
  0
LINE
  5
15C
330
17
100
AcDbEntity
  8
0
100
AcDbLine
 10
0.14701
 20
0.028578352335679225
 30
0.0
 11
0.14751
 21
0.028626910416599274
 31
0.0
  0
LINE
  5
15D
330
17
100
AcDbEntity
  8
0
100
AcDbLine
 10
0.14751
 20
0.028626910416599274
 30
0.0
 11
0.14801
 21
0.028675386270768488
 31
0.0
  0
LINE
  5
15E
330
17
100
AcDbEntity
  8
0
100
AcDbLine
 10
0.14801
 20
0.028675386270768488
 30
0.0
 11
0.14851
 21
0.028723780314498223
 31
0.0
  0
LINE
  5
15F
330
17
100
AcDbEntity
  8
0
100
AcDbLine
 10
0.14851
 20
0.028723780314498223
 30
0.0
 11
0.14901
 21
0.0287720929605987
 31
0.0
  0
LINE
  5
160
330
17
100
AcDbEntity
  8
0
100
AcDbLine
 10
0.14901
 20
0.0287720929605987
 30
0.0
 11
0.14951
 21
0.02882032461842009
 31
0.0
  0
LINE
  5
161
330
17
100
AcDbEntity
  8
0
100
AcDbLine
 10
0.14951
 20
0.02882032461842009
 30
0.0
 11
0.15001
 21
0.028868475693892965
 31
0.0
  0
LINE
  5
162
330
17
100
AcDbEntity
  8
0
100
AcDbLine
 10
0.15001
 20
0.028868475693892965
 30
0.0
 11
0.15051
 21
0.028916546589568173
 31
0.0
  0
LINE
  5
163
330
17
100
AcDbEntity
  8
0
100
AcDbLine
 10
0.15051
 20
0.028916546589568173
 30
0.0
 11
0.15101
 21
0.028964537704656096
 31
0.0
  0
LINE
  5
164
330
17
100
AcDbEntity
  8
0
100
AcDbLine
 10
0.15101
 20
0.028964537704656096
 30
0.0
 11
0.15151
 21
0.029012449435065327
 31
0.0
  0
LINE
  5
165
330
17
100
AcDbEntity
  8
0
100
AcDbLine
 10
0.15151
 20
0.029012449435065327
 30
0.0
 11
0.15201
 21
0.029060282173440782
 31
0.0
  0
LINE
  5
166
330
17
100
AcDbEntity
  8
0
100
AcDbLine
 10
0.15201
 20
0.029060282173440782
 30
0.0
 11
0.15251
 21
0.02910803630920124
 31
0.0
  0
LINE
  5
167
330
17
100
AcDbEntity
  8
0
100
AcDbLine
 10
0.15251
 20
0.02910803630920124
 30
0.0
 11
0.15301
 21
0.02915571222857634
 31
0.0
  0
LINE
  5
168
330
17
100
AcDbEntity
  8
0
100
AcDbLine
 10
0.15301
 20
0.02915571222857634
 30
0.0
 11
0.15351
 21
0.029203310314642985
 31
0.0
  0
LINE
  5
169
330
17
100
AcDbEntity
  8
0
100
AcDbLine
 10
0.15351
 20
0.029203310314642985
 30
0.0
 11
0.15401
 21
0.02925083094736133
 31
0.0
  0
LINE
  5
16A
330
17
100
AcDbEntity
  8
0
100
AcDbLine
 10
0.15401
 20
0.02925083094736133
 30
0.0
 11
0.15451
 21
0.02929827450361009
 31
0.0
  0
LINE
  5
16B
330
17
100
AcDbEntity
  8
0
100
AcDbLine
 10
0.15451
 20
0.02929827450361009
 30
0.0
 11
0.15501
 21
0.029345641357221466
 31
0.0
  0
LINE
  5
16C
330
17
100
AcDbEntity
  8
0
100
AcDbLine
 10
0.15501
 20
0.029345641357221466
 30
0.0
 11
0.15551
 21
0.029392931879015483
 31
0.0
  0
LINE
  5
16D
330
17
100
AcDbEntity
  8
0
100
AcDbLine
 10
0.15551
 20
0.029392931879015483
 30
0.0
 11
0.15601
 21
0.029440146436833875
 31
0.0
  0
LINE
  5
16E
330
17
100
AcDbEntity
  8
0
100
AcDbLine
 10
0.15601
 20
0.029440146436833875
 30
0.0
 11
0.15651
 21
0.029487285395573465
 31
0.0
  0
LINE
  5
16F
330
17
100
AcDbEntity
  8
0
100
AcDbLine
 10
0.15651
 20
0.029487285395573465
 30
0.0
 11
0.15701
 21
0.029534349117219052
 31
0.0
  0
LINE
  5
170
330
17
100
AcDbEntity
  8
0
100
AcDbLine
 10
0.15701
 20
0.029534349117219052
 30
0.0
 11
0.15751
 21
0.029581337960875864
 31
0.0
  0
LINE
  5
171
330
17
100
AcDbEntity
  8
0
100
AcDbLine
 10
0.15751
 20
0.029581337960875864
 30
0.0
 11
0.15801
 21
0.029628252282801523
 31
0.0
  0
LINE
  5
172
330
17
100
AcDbEntity
  8
0
100
AcDbLine
 10
0.15801
 20
0.029628252282801523
 30
0.0
 11
0.15851
 21
0.029675092436437518
 31
0.0
  0
LINE
  5
173
330
17
100
AcDbEntity
  8
0
100
AcDbLine
 10
0.15851
 20
0.029675092436437518
 30
0.0
 11
0.15901
 21
0.02972185877244034
 31
0.0
  0
LINE
  5
174
330
17
100
AcDbEntity
  8
0
100
AcDbLine
 10
0.15901
 20
0.02972185877244034
 30
0.0
 11
0.15951
 21
0.029768551638712067
 31
0.0
  0
LINE
  5
175
330
17
100
AcDbEntity
  8
0
100
AcDbLine
 10
0.15951
 20
0.029768551638712067
 30
0.0
 11
0.16001
 21
0.029815171380430546
 31
0.0
  0
LINE
  5
176
330
17
100
AcDbEntity
  8
0
100
AcDbLine
 10
0.16001
 20
0.029815171380430546
 30
0.0
 11
0.16051
 21
0.029861718340079196
 31
0.0
  0
LINE
  5
177
330
17
100
AcDbEntity
  8
0
100
AcDbLine
 10
0.16051
 20
0.029861718340079196
 30
0.0
 11
0.16101000000000001
 21
0.029908192857476364
 31
0.0
  0
LINE
  5
178
330
17
100
AcDbEntity
  8
0
100
AcDbLine
 10
0.16101000000000001
 20
0.029908192857476364
 30
0.0
 11
0.16151000000000001
 21
0.02995459526980423
 31
0.0
  0
LINE
  5
179
330
17
100
AcDbEntity
  8
0
100
AcDbLine
 10
0.16151000000000001
 20
0.02995459526980423
 30
0.0
 11
0.16201000000000002
 21
0.03000092591163739
 31
0.0
  0
LINE
  5
17A
330
17
100
AcDbEntity
  8
0
100
AcDbLine
 10
0.16201000000000002
 20
0.03000092591163739
 30
0.0
 11
0.16251000000000002
 21
0.030047185114970978
 31
0.0
  0
LINE
  5
17B
330
17
100
AcDbEntity
  8
0
100
AcDbLine
 10
0.16251000000000002
 20
0.030047185114970978
 30
0.0
 11
0.16301000000000002
 21
0.03009337320924843
 31
0.0
  0
LINE
  5
17C
330
17
100
AcDbEntity
  8
0
100
AcDbLine
 10
0.16301000000000002
 20
0.03009337320924843
 30
0.0
 11
0.16351000000000002
 21
0.030139490521388864
 31
0.0
  0
LINE
  5
17D
330
17
100
AcDbEntity
  8
0
100
AcDbLine
 10
0.16351000000000002
 20
0.030139490521388864
 30
0.0
 11
0.16401000000000002
 21
0.03018553737581405
 31
0.0
  0
LINE
  5
17E
330
17
100
AcDbEntity
  8
0
100
AcDbLine
 10
0.16401000000000002
 20
0.03018553737581405
 30
0.0
 11
0.16451000000000002
 21
0.030231514094475068
 31
0.0
  0
LINE
  5
17F
330
17
100
AcDbEntity
  8
0
100
AcDbLine
 10
0.16451000000000002
 20
0.030231514094475068
 30
0.0
 11
0.16501000000000002
 21
0.03027742099687855
 31
0.0
  0
LINE
  5
180
330
17
100
AcDbEntity
  8
0
100
AcDbLine
 10
0.16501000000000002
 20
0.03027742099687855
 30
0.0
 11
0.16551000000000002
 21
0.030323258400112615
 31
0.0
  0
LINE
  5
181
330
17
100
AcDbEntity
  8
0
100
AcDbLine
 10
0.16551000000000002
 20
0.030323258400112615
 30
0.0
 11
0.16601000000000002
 21
0.03036902661887236
 31
0.0
  0
LINE
  5
182
330
17
100
AcDbEntity
  8
0
100
AcDbLine
 10
0.16601000000000002
 20
0.03036902661887236
 30
0.0
 11
0.16651000000000002
 21
0.030414725965485136
 31
0.0
  0
LINE
  5
183
330
17
100
AcDbEntity
  8
0
100
AcDbLine
 10
0.16651000000000002
 20
0.030414725965485136
 30
0.0
 11
0.16701000000000002
 21
0.030460356749935375
 31
0.0
  0
LINE
  5
184
330
17
100
AcDbEntity
  8
0
100
AcDbLine
 10
0.16701000000000002
 20
0.030460356749935375
 30
0.0
 11
0.16751000000000002
 21
0.03050591927988913
 31
0.0
  0
LINE
  5
185
330
17
100
AcDbEntity
  8
0
100
AcDbLine
 10
0.16751000000000002
 20
0.03050591927988913
 30
0.0
 11
0.16801000000000002
 21
0.03055141386071828
 31
0.0
  0
LINE
  5
186
330
17
100
AcDbEntity
  8
0
100
AcDbLine
 10
0.16801000000000002
 20
0.03055141386071828
 30
0.0
 11
0.16851000000000002
 21
0.03059684079552441
 31
0.0
  0
LINE
  5
187
330
17
100
AcDbEntity
  8
0
100
AcDbLine
 10
0.16851000000000002
 20
0.03059684079552441
 30
0.0
 11
0.16901000000000002
 21
0.03064220038516236
 31
0.0
  0
LINE
  5
188
330
17
100
AcDbEntity
  8
0
100
AcDbLine
 10
0.16901000000000002
 20
0.03064220038516236
 30
0.0
 11
0.16951000000000002
 21
0.0306874929282635
 31
0.0
  0
LINE
  5
189
330
17
100
AcDbEntity
  8
0
100
AcDbLine
 10
0.16951000000000002
 20
0.0306874929282635
 30
0.0
 11
0.17001000000000002
 21
0.030732718721258618
 31
0.0
  0
LINE
  5
18A
330
17
100
AcDbEntity
  8
0
100
AcDbLine
 10
0.17001000000000002
 20
0.030732718721258618
 30
0.0
 11
0.17051000000000002
 21
0.030777878058400616
 31
0.0
  0
LINE
  5
18B
330
17
100
AcDbEntity
  8
0
100
AcDbLine
 10
0.17051000000000002
 20
0.030777878058400616
 30
0.0
 11
0.17101000000000002
 21
0.030822971231786785
 31
0.0
  0
LINE
  5
18C
330
17
100
AcDbEntity
  8
0
100
AcDbLine
 10
0.17101000000000002
 20
0.030822971231786785
 30
0.0
 11
0.17151000000000002
 21
0.030867998531380905
 31
0.0
  0
LINE
  5
18D
330
17
100
AcDbEntity
  8
0
100
AcDbLine
 10
0.17151000000000002
 20
0.030867998531380905
 30
0.0
 11
0.17201000000000002
 21
0.03091296024503495
 31
0.0
  0
LINE
  5
18E
330
17
100
AcDbEntity
  8
0
100
AcDbLine
 10
0.17201000000000002
 20
0.03091296024503495
 30
0.0
 11
0.17251000000000002
 21
0.030957856658510603
 31
0.0
  0
LINE
  5
18F
330
17
100
AcDbEntity
  8
0
100
AcDbLine
 10
0.17251000000000002
 20
0.030957856658510603
 30
0.0
 11
0.17301000000000002
 21
0.031002688055500396
 31
0.0
  0
LINE
  5
190
330
17
100
AcDbEntity
  8
0
100
AcDbLine
 10
0.17301000000000002
 20
0.031002688055500396
 30
0.0
 11
0.17351000000000003
 21
0.031047454717648665
 31
0.0
  0
LINE
  5
191
330
17
100
AcDbEntity
  8
0
100
AcDbLine
 10
0.17351000000000003
 20
0.031047454717648665
 30
0.0
 11
0.17401000000000003
 21
0.031092156924572192
 31
0.0
  0
LINE
  5
192
330
17
100
AcDbEntity
  8
0
100
AcDbLine
 10
0.17401000000000003
 20
0.031092156924572192
 30
0.0
 11
0.17451000000000003
 21
0.031136794953880532
 31
0.0
  0
LINE
  5
193
330
17
100
AcDbEntity
  8
0
100
AcDbLine
 10
0.17451000000000003
 20
0.031136794953880532
 30
0.0
 11
0.17501000000000003
 21
0.031181369081196193
 31
0.0
  0
LINE
  5
194
330
17
100
AcDbEntity
  8
0
100
AcDbLine
 10
0.17501000000000003
 20
0.031181369081196193
 30
0.0
 11
0.17551000000000003
 21
0.031225879580174448
 31
0.0
  0
LINE
  5
195
330
17
100
AcDbEntity
  8
0
100
AcDbLine
 10
0.17551000000000003
 20
0.031225879580174448
 30
0.0
 11
0.17601000000000003
 21
0.03127032672252296
 31
0.0
  0
LINE
  5
196
330
17
100
AcDbEntity
  8
0
100
AcDbLine
 10
0.17601000000000003
 20
0.03127032672252296
 30
0.0
 11
0.17651000000000003
 21
0.03131471077802111
 31
0.0
  0
LINE
  5
197
330
17
100
AcDbEntity
  8
0
100
AcDbLine
 10
0.17651000000000003
 20
0.03131471077802111
 30
0.0
 11
0.17701
 21
0.031359032014539115
 31
0.0
  0
LINE
  5
198
330
17
100
AcDbEntity
  8
0
100
AcDbLine
 10
0.17701
 20
0.031359032014539115
 30
0.0
 11
0.17751
 21
0.03140329069805689
 31
0.0
  0
LINE
  5
199
330
17
100
AcDbEntity
  8
0
100
AcDbLine
 10
0.17751
 20
0.03140329069805689
 30
0.0
 11
0.17801
 21
0.03144748709268269
 31
0.0
  0
LINE
  5
19A
330
17
100
AcDbEntity
  8
0
100
AcDbLine
 10
0.17801
 20
0.03144748709268269
 30
0.0
 11
0.17851
 21
0.03149162146067144
 31
0.0
  0
LINE
  5
19B
330
17
100
AcDbEntity
  8
0
100
AcDbLine
 10
0.17851
 20
0.03149162146067144
 30
0.0
 11
0.17901
 21
0.031535694062442964
 31
0.0
  0
LINE
  5
19C
330
17
100
AcDbEntity
  8
0
100
AcDbLine
 10
0.17901
 20
0.031535694062442964
 30
0.0
 11
0.17951
 21
0.03157970515659983
 31
0.0
  0
LINE
  5
19D
330
17
100
AcDbEntity
  8
0
100
AcDbLine
 10
0.17951
 20
0.03157970515659983
 30
0.0
 11
0.18001
 21
0.03162365499994515
 31
0.0
  0
LINE
  5
19E
330
17
100
AcDbEntity
  8
0
100
AcDbLine
 10
0.18001
 20
0.03162365499994515
 30
0.0
 11
0.18051
 21
0.03166754384749997
 31
0.0
  0
LINE
  5
19F
330
17
100
AcDbEntity
  8
0
100
AcDbLine
 10
0.18051
 20
0.03166754384749997
 30
0.0
 11
0.18101
 21
0.03171137195252062
 31
0.0
  0
LINE
  5
1A0
330
17
100
AcDbEntity
  8
0
100
AcDbLine
 10
0.18101
 20
0.03171137195252062
 30
0.0
 11
0.18151
 21
0.03175513956651567
 31
0.0
  0
LINE
  5
1A1
330
17
100
AcDbEntity
  8
0
100
AcDbLine
 10
0.18151
 20
0.03175513956651567
 30
0.0
 11
0.18201
 21
0.031798846939262854
 31
0.0
  0
LINE
  5
1A2
330
17
100
AcDbEntity
  8
0
100
AcDbLine
 10
0.18201
 20
0.031798846939262854
 30
0.0
 11
0.18251
 21
0.03184249431882566
 31
0.0
  0
LINE
  5
1A3
330
17
100
AcDbEntity
  8
0
100
AcDbLine
 10
0.18251
 20
0.03184249431882566
 30
0.0
 11
0.18301
 21
0.03188608195156975
 31
0.0
  0
LINE
  5
1A4
330
17
100
AcDbEntity
  8
0
100
AcDbLine
 10
0.18301
 20
0.03188608195156975
 30
0.0
 11
0.18351
 21
0.031929610082179205
 31
0.0
  0
LINE
  5
1A5
330
17
100
AcDbEntity
  8
0
100
AcDbLine
 10
0.18351
 20
0.031929610082179205
 30
0.0
 11
0.18401
 21
0.03197307895367254
 31
0.0
  0
LINE
  5
1A6
330
17
100
AcDbEntity
  8
0
100
AcDbLine
 10
0.18401
 20
0.03197307895367254
 30
0.0
 11
0.18451
 21
0.032016488807418524
 31
0.0
  0
LINE
  5
1A7
330
17
100
AcDbEntity
  8
0
100
AcDbLine
 10
0.18451
 20
0.032016488807418524
 30
0.0
 11
0.18501
 21
0.03205983988315184
 31
0.0
  0
LINE
  5
1A8
330
17
100
AcDbEntity
  8
0
100
AcDbLine
 10
0.18501
 20
0.03205983988315184
 30
0.0
 11
0.18551
 21
0.03210313241898851
 31
0.0
  0
LINE
  5
1A9
330
17
100
AcDbEntity
  8
0
100
AcDbLine
 10
0.18551
 20
0.03210313241898851
 30
0.0
 11
0.18601
 21
0.032146366651441174
 31
0.0
  0
LINE
  5
1AA
330
17
100
AcDbEntity
  8
0
100
AcDbLine
 10
0.18601
 20
0.032146366651441174
 30
0.0
 11
0.18651
 21
0.032189542815434125
 31
0.0
  0
LINE
  5
1AB
330
17
100
AcDbEntity
  8
0
100
AcDbLine
 10
0.18651
 20
0.032189542815434125
 30
0.0
 11
0.18701
 21
0.03223266114431827
 31
0.0
  0
LINE
  5
1AC
330
17
100
AcDbEntity
  8
0
100
AcDbLine
 10
0.18701
 20
0.03223266114431827
 30
0.0
 11
0.18751
 21
0.03227572186988577
 31
0.0
  0
LINE
  5
1AD
330
17
100
AcDbEntity
  8
0
100
AcDbLine
 10
0.18751
 20
0.03227572186988577
 30
0.0
 11
0.18801
 21
0.032318725222384624
 31
0.0
  0
LINE
  5
1AE
330
17
100
AcDbEntity
  8
0
100
AcDbLine
 10
0.18801
 20
0.032318725222384624
 30
0.0
 11
0.18851
 21
0.03236167143053303
 31
0.0
  0
LINE
  5
1AF
330
17
100
AcDbEntity
  8
0
100
AcDbLine
 10
0.18851
 20
0.03236167143053303
 30
0.0
 11
0.18901
 21
0.03240456072153356
 31
0.0
  0
LINE
  5
1B0
330
17
100
AcDbEntity
  8
0
100
AcDbLine
 10
0.18901
 20
0.03240456072153356
 30
0.0
 11
0.18951
 21
0.03244739332108719
 31
0.0
  0
LINE
  5
1B1
330
17
100
AcDbEntity
  8
0
100
AcDbLine
 10
0.18951
 20
0.03244739332108719
 30
0.0
 11
0.19001
 21
0.03249016945340715
 31
0.0
  0
LINE
  5
1B2
330
17
100
AcDbEntity
  8
0
100
AcDbLine
 10
0.19001
 20
0.03249016945340715
 30
0.0
 11
0.19051
 21
0.032532889341232656
 31
0.0
  0
LINE
  5
1B3
330
17
100
AcDbEntity
  8
0
100
AcDbLine
 10
0.19051
 20
0.032532889341232656
 30
0.0
 11
0.19101
 21
0.032575553205842364
 31
0.0
  0
LINE
  5
1B4
330
17
100
AcDbEntity
  8
0
100
AcDbLine
 10
0.19101
 20
0.032575553205842364
 30
0.0
 11
0.19151
 21
0.03261816126706784
 31
0.0
  0
LINE
  5
1B5
330
17
100
AcDbEntity
  8
0
100
AcDbLine
 10
0.19151
 20
0.03261816126706784
 30
0.0
 11
0.19201000000000001
 21
0.03266071374330669
 31
0.0
  0
LINE
  5
1B6
330
17
100
AcDbEntity
  8
0
100
AcDbLine
 10
0.19201000000000001
 20
0.03266071374330669
 30
0.0
 11
0.19251000000000001
 21
0.032703210851535665
 31
0.0
  0
LINE
  5
1B7
330
17
100
AcDbEntity
  8
0
100
AcDbLine
 10
0.19251000000000001
 20
0.032703210851535665
 30
0.0
 11
0.19301000000000001
 21
0.03274565280732357
 31
0.0
  0
LINE
  5
1B8
330
17
100
AcDbEntity
  8
0
100
AcDbLine
 10
0.19301000000000001
 20
0.03274565280732357
 30
0.0
 11
0.19351000000000002
 21
0.03278803982484399
 31
0.0
  0
LINE
  5
1B9
330
17
100
AcDbEntity
  8
0
100
AcDbLine
 10
0.19351000000000002
 20
0.03278803982484399
 30
0.0
 11
0.19401000000000002
 21
0.03283037211688795
 31
0.0
  0
LINE
  5
1BA
330
17
100
AcDbEntity
  8
0
100
AcDbLine
 10
0.19401000000000002
 20
0.03283037211688795
 30
0.0
 11
0.19451000000000002
 21
0.03287264989487631
 31
0.0
  0
LINE
  5
1BB
330
17
100
AcDbEntity
  8
0
100
AcDbLine
 10
0.19451000000000002
 20
0.03287264989487631
 30
0.0
 11
0.19501000000000002
 21
0.03291487336887215
 31
0.0
  0
LINE
  5
1BC
330
17
100
AcDbEntity
  8
0
100
AcDbLine
 10
0.19501000000000002
 20
0.03291487336887215
 30
0.0
 11
0.19551000000000002
 21
0.03295704274759292
 31
0.0
  0
LINE
  5
1BD
330
17
100
AcDbEntity
  8
0
100
AcDbLine
 10
0.19551000000000002
 20
0.03295704274759292
 30
0.0
 11
0.19601000000000002
 21
0.032999158238422456
 31
0.0
  0
LINE
  5
1BE
330
17
100
AcDbEntity
  8
0
100
AcDbLine
 10
0.19601000000000002
 20
0.032999158238422456
 30
0.0
 11
0.19651000000000002
 21
0.03304122004742292
 31
0.0
  0
LINE
  5
1BF
330
17
100
AcDbEntity
  8
0
100
AcDbLine
 10
0.19651000000000002
 20
0.03304122004742292
 30
0.0
 11
0.19701000000000002
 21
0.03308322837934654
 31
0.0
  0
LINE
  5
1C0
330
17
100
AcDbEntity
  8
0
100
AcDbLine
 10
0.19701000000000002
 20
0.03308322837934654
 30
0.0
 11
0.19751000000000002
 21
0.03312518343764722
 31
0.0
  0
LINE
  5
1C1
330
17
100
AcDbEntity
  8
0
100
AcDbLine
 10
0.19751000000000002
 20
0.03312518343764722
 30
0.0
 11
0.19801000000000002
 21
0.033167085424492086
 31
0.0
  0
LINE
  5
1C2
330
17
100
AcDbEntity
  8
0
100
AcDbLine
 10
0.19801000000000002
 20
0.033167085424492086
 30
0.0
 11
0.19851000000000002
 21
0.03320893454077281
 31
0.0
  0
LINE
  5
1C3
330
17
100
AcDbEntity
  8
0
100
AcDbLine
 10
0.19851000000000002
 20
0.03320893454077281
 30
0.0
 11
0.19901000000000002
 21
0.033250730986116854
 31
0.0
  0
LINE
  5
1C4
330
17
100
AcDbEntity
  8
0
100
AcDbLine
 10
0.19901000000000002
 20
0.033250730986116854
 30
0.0
 11
0.19951000000000002
 21
0.03329247495889858
 31
0.0
  0
LINE
  5
1C5
330
17
100
AcDbEntity
  8
0
100
AcDbLine
 10
0.19951000000000002
 20
0.03329247495889858
 30
0.0
 11
0.20001000000000002
 21
0.03333416665625026
 31
0.0
  0
LINE
  5
1C6
330
17
100
AcDbEntity
  8
0
100
AcDbLine
 10
0.20001000000000002
 20
0.03333416665625026
 30
0.0
 11
0.20051000000000002
 21
0.033375806274072904
 31
0.0
  0
LINE
  5
1C7
330
17
100
AcDbEntity
  8
0
100
AcDbLine
 10
0.20051000000000002
 20
0.033375806274072904
 30
0.0
 11
0.20101000000000002
 21
0.033417394007047026
 31
0.0
  0
LINE
  5
1C8
330
17
100
AcDbEntity
  8
0
100
AcDbLine
 10
0.20101000000000002
 20
0.033417394007047026
 30
0.0
 11
0.20151000000000002
 21
0.03345893004864322
 31
0.0
  0
LINE
  5
1C9
330
17
100
AcDbEntity
  8
0
100
AcDbLine
 10
0.20151000000000002
 20
0.03345893004864322
 30
0.0
 11
0.20201000000000002
 21
0.03350041459113272
 31
0.0
  0
LINE
  5
1CA
330
17
100
AcDbEntity
  8
0
100
AcDbLine
 10
0.20201000000000002
 20
0.03350041459113272
 30
0.0
 11
0.20251000000000002
 21
0.033541847825597736
 31
0.0
  0
LINE
  5
1CB
330
17
100
AcDbEntity
  8
0
100
AcDbLine
 10
0.20251000000000002
 20
0.033541847825597736
 30
0.0
 11
0.20301000000000002
 21
0.03358322994194176
 31
0.0
  0
LINE
  5
1CC
330
17
100
AcDbEntity
  8
0
100
AcDbLine
 10
0.20301000000000002
 20
0.03358322994194176
 30
0.0
 11
0.20351000000000002
 21
0.03362456112889968
 31
0.0
  0
LINE
  5
1CD
330
17
100
AcDbEntity
  8
0
100
AcDbLine
 10
0.20351000000000002
 20
0.03362456112889968
 30
0.0
 11
0.20401000000000002
 21
0.03366584157404786
 31
0.0
  0
LINE
  5
1CE
330
17
100
AcDbEntity
  8
0
100
AcDbLine
 10
0.20401000000000002
 20
0.03366584157404786
 30
0.0
 11
0.20451000000000003
 21
0.03370707146381404
 31
0.0
  0
LINE
  5
1CF
330
17
100
AcDbEntity
  8
0
100
AcDbLine
 10
0.20451000000000003
 20
0.03370707146381404
 30
0.0
 11
0.20501000000000003
 21
0.033748250983487195
 31
0.0
  0
LINE
  5
1D0
330
17
100
AcDbEntity
  8
0
100
AcDbLine
 10
0.20501000000000003
 20
0.033748250983487195
 30
0.0
 11
0.20551000000000003
 21
0.03378938031722722
 31
0.0
  0
LINE
  5
1D1
330
17
100
AcDbEntity
  8
0
100
AcDbLine
 10
0.20551000000000003
 20
0.03378938031722722
 30
0.0
 11
0.20601000000000003
 21
0.033830459648074546
 31
0.0
  0
LINE
  5
1D2
330
17
100
AcDbEntity
  8
0
100
AcDbLine
 10
0.20601000000000003
 20
0.033830459648074546
 30
0.0
 11
0.20651000000000003
 21
0.03387148915795964
 31
0.0
  0
LINE
  5
1D3
330
17
100
AcDbEntity
  8
0
100
AcDbLine
 10
0.20651000000000003
 20
0.03387148915795964
 30
0.0
 11
0.20701000000000003
 21
0.033912469027712444
 31
0.0
  0
LINE
  5
1D4
330
17
100
AcDbEntity
  8
0
100
AcDbLine
 10
0.20701000000000003
 20
0.033912469027712444
 30
0.0
 11
0.20751000000000003
 21
0.03395339943707159
 31
0.0
  0
LINE
  5
1D5
330
17
100
AcDbEntity
  8
0
100
AcDbLine
 10
0.20751000000000003
 20
0.03395339943707159
 30
0.0
 11
0.20801000000000003
 21
0.03399428056469369
 31
0.0
  0
LINE
  5
1D6
330
17
100
AcDbEntity
  8
0
100
AcDbLine
 10
0.20801000000000003
 20
0.03399428056469369
 30
0.0
 11
0.20851000000000003
 21
0.03403511258816238
 31
0.0
  0
LINE
  5
1D7
330
17
100
AcDbEntity
  8
0
100
AcDbLine
 10
0.20851000000000003
 20
0.03403511258816238
 30
0.0
 11
0.20901000000000003
 21
0.03407589568399732
 31
0.0
  0
LINE
  5
1D8
330
17
100
AcDbEntity
  8
0
100
AcDbLine
 10
0.20901000000000003
 20
0.03407589568399732
 30
0.0
 11
0.20951000000000003
 21
0.03411663002766312
 31
0.0
  0
LINE
  5
1D9
330
17
100
AcDbEntity
  8
0
100
AcDbLine
 10
0.20951000000000003
 20
0.03411663002766312
 30
0.0
 11
0.21001000000000003
 21
0.034157315793578134
 31
0.0
  0
LINE
  5
1DA
330
17
100
AcDbEntity
  8
0
100
AcDbLine
 10
0.21001000000000003
 20
0.034157315793578134
 30
0.0
 11
0.21051000000000003
 21
0.03419795315512319
 31
0.0
  0
LINE
  5
1DB
330
17
100
AcDbEntity
  8
0
100
AcDbLine
 10
0.21051000000000003
 20
0.03419795315512319
 30
0.0
 11
0.21101000000000003
 21
0.034238542284650175
 31
0.0
  0
LINE
  5
1DC
330
17
100
AcDbEntity
  8
0
100
AcDbLine
 10
0.21101000000000003
 20
0.034238542284650175
 30
0.0
 11
0.21151
 21
0.034279083353490586
 31
0.0
  0
LINE
  5
1DD
330
17
100
AcDbEntity
  8
0
100
AcDbLine
 10
0.21151
 20
0.034279083353490586
 30
0.0
 11
0.21201
 21
0.03431957653196399
 31
0.0
  0
LINE
  5
1DE
330
17
100
AcDbEntity
  8
0
100
AcDbLine
 10
0.21201
 20
0.03431957653196399
 30
0.0
 11
0.21251
 21
0.03436002198938631
 31
0.0
  0
LINE
  5
1DF
330
17
100
AcDbEntity
  8
0
100
AcDbLine
 10
0.21251
 20
0.03436002198938631
 30
0.0
 11
0.21301
 21
0.03440041989407817
 31
0.0
  0
LINE
  5
1E0
330
17
100
AcDbEntity
  8
0
100
AcDbLine
 10
0.21301
 20
0.03440041989407817
 30
0.0
 11
0.21351
 21
0.03444077041337297
 31
0.0
  0
LINE
  5
1E1
330
17
100
AcDbEntity
  8
0
100
AcDbLine
 10
0.21351
 20
0.03444077041337297
 30
0.0
 11
0.21401
 21
0.03448107371362505
 31
0.0
  0
LINE
  5
1E2
330
17
100
AcDbEntity
  8
0
100
AcDbLine
 10
0.21401
 20
0.03448107371362505
 30
0.0
 11
0.21451
 21
0.03452132996021767
 31
0.0
  0
LINE
  5
1E3
330
17
100
AcDbEntity
  8
0
100
AcDbLine
 10
0.21451
 20
0.03452132996021767
 30
0.0
 11
0.21501
 21
0.03456153931757091
 31
0.0
  0
LINE
  5
1E4
330
17
100
AcDbEntity
  8
0
100
AcDbLine
 10
0.21501
 20
0.03456153931757091
 30
0.0
 11
0.21551
 21
0.03460170194914952
 31
0.0
  0
LINE
  5
1E5
330
17
100
AcDbEntity
  8
0
100
AcDbLine
 10
0.21551
 20
0.03460170194914952
 30
0.0
 11
0.21601
 21
0.034641818017470676
 31
0.0
  0
LINE
  5
1E6
330
17
100
AcDbEntity
  8
0
100
AcDbLine
 10
0.21601
 20
0.034641818017470676
 30
0.0
 11
0.21651
 21
0.03468188768411162
 31
0.0
  0
LINE
  5
1E7
330
17
100
AcDbEntity
  8
0
100
AcDbLine
 10
0.21651
 20
0.03468188768411162
 30
0.0
 11
0.21701
 21
0.03472191110971733
 31
0.0
  0
LINE
  5
1E8
330
17
100
AcDbEntity
  8
0
100
AcDbLine
 10
0.21701
 20
0.03472191110971733
 30
0.0
 11
0.21751
 21
0.03476188845400792
 31
0.0
  0
LINE
  5
1E9
330
17
100
AcDbEntity
  8
0
100
AcDbLine
 10
0.21751
 20
0.03476188845400792
 30
0.0
 11
0.21801
 21
0.03480181987578619
 31
0.0
  0
LINE
  5
1EA
330
17
100
AcDbEntity
  8
0
100
AcDbLine
 10
0.21801
 20
0.03480181987578619
 30
0.0
 11
0.21851
 21
0.03484170553294492
 31
0.0
  0
LINE
  5
1EB
330
17
100
AcDbEntity
  8
0
100
AcDbLine
 10
0.21851
 20
0.03484170553294492
 30
0.0
 11
0.21901
 21
0.03488154558247416
 31
0.0
  0
LINE
  5
1EC
330
17
100
AcDbEntity
  8
0
100
AcDbLine
 10
0.21901
 20
0.03488154558247416
 30
0.0
 11
0.21951
 21
0.03492134018046845
 31
0.0
  0
LINE
  5
1ED
330
17
100
AcDbEntity
  8
0
100
AcDbLine
 10
0.21951
 20
0.03492134018046845
 30
0.0
 11
0.22001
 21
0.034961089482133965
 31
0.0
  0
LINE
  5
1EE
330
17
100
AcDbEntity
  8
0
100
AcDbLine
 10
0.22001
 20
0.034961089482133965
 30
0.0
 11
0.22051
 21
0.03500079364179555
 31
0.0
  0
LINE
  5
1EF
330
17
100
AcDbEntity
  8
0
100
AcDbLine
 10
0.22051
 20
0.03500079364179555
 30
0.0
 11
0.22101
 21
0.03504045281290374
 31
0.0
  0
LINE
  5
1F0
330
17
100
AcDbEntity
  8
0
100
AcDbLine
 10
0.22101
 20
0.03504045281290374
 30
0.0
 11
0.22151
 21
0.035080067148041655
 31
0.0
  0
LINE
  5
1F1
330
17
100
AcDbEntity
  8
0
100
AcDbLine
 10
0.22151
 20
0.035080067148041655
 30
0.0
 11
0.22201
 21
0.03511963679893186
 31
0.0
  0
LINE
  5
1F2
330
17
100
AcDbEntity
  8
0
100
AcDbLine
 10
0.22201
 20
0.03511963679893186
 30
0.0
 11
0.22251
 21
0.03515916191644316
 31
0.0
  0
LINE
  5
1F3
330
17
100
AcDbEntity
  8
0
100
AcDbLine
 10
0.22251
 20
0.03515916191644316
 30
0.0
 11
0.22301
 21
0.035198642650597266
 31
0.0
  0
LINE
  5
1F4
330
17
100
AcDbEntity
  8
0
100
AcDbLine
 10
0.22301
 20
0.035198642650597266
 30
0.0
 11
0.22351000000000001
 21
0.03523807915057548
 31
0.0
  0
LINE
  5
1F5
330
17
100
AcDbEntity
  8
0
100
AcDbLine
 10
0.22351000000000001
 20
0.03523807915057548
 30
0.0
 11
0.22401000000000001
 21
0.03527747156472527
 31
0.0
  0
LINE
  5
1F6
330
17
100
AcDbEntity
  8
0
100
AcDbLine
 10
0.22401000000000001
 20
0.03527747156472527
 30
0.0
 11
0.22451000000000002
 21
0.035316820040566764
 31
0.0
  0
LINE
  5
1F7
330
17
100
AcDbEntity
  8
0
100
AcDbLine
 10
0.22451000000000002
 20
0.035316820040566764
 30
0.0
 11
0.22501000000000002
 21
0.035356124724799175
 31
0.0
  0
LINE
  5
1F8
330
17
100
AcDbEntity
  8
0
100
AcDbLine
 10
0.22501000000000002
 20
0.035356124724799175
 30
0.0
 11
0.22551000000000002
 21
0.035395385763307245
 31
0.0
  0
LINE
  5
1F9
330
17
100
AcDbEntity
  8
0
100
AcDbLine
 10
0.22551000000000002
 20
0.035395385763307245
 30
0.0
 11
0.22601000000000002
 21
0.03543460330116751
 31
0.0
  0
LINE
  5
1FA
330
17
100
AcDbEntity
  8
0
100
AcDbLine
 10
0.22601000000000002
 20
0.03543460330116751
 30
0.0
 11
0.22651000000000002
 21
0.03547377748265455
 31
0.0
  0
LINE
  5
1FB
330
17
100
AcDbEntity
  8
0
100
AcDbLine
 10
0.22651000000000002
 20
0.03547377748265455
 30
0.0
 11
0.22701000000000002
 21
0.03551290845124723
 31
0.0
  0
LINE
  5
1FC
330
17
100
AcDbEntity
  8
0
100
AcDbLine
 10
0.22701000000000002
 20
0.03551290845124723
 30
0.0
 11
0.22751000000000002
 21
0.03555199634963478
 31
0.0
  0
LINE
  5
1FD
330
17
100
AcDbEntity
  8
0
100
AcDbLine
 10
0.22751000000000002
 20
0.03555199634963478
 30
0.0
 11
0.22801000000000002
 21
0.0355910413197229
 31
0.0
  0
LINE
  5
1FE
330
17
100
AcDbEntity
  8
0
100
AcDbLine
 10
0.22801000000000002
 20
0.0355910413197229
 30
0.0
 11
0.22851000000000002
 21
0.035630043502639736
 31
0.0
  0
LINE
  5
1FF
330
17
100
AcDbEntity
  8
0
100
AcDbLine
 10
0.22851000000000002
 20
0.035630043502639736
 30
0.0
 11
0.22901000000000002
 21
0.03566900303874188
 31
0.0
  0
LINE
  5
200
330
17
100
AcDbEntity
  8
0
100
AcDbLine
 10
0.22901000000000002
 20
0.03566900303874188
 30
0.0
 11
0.22951000000000002
 21
0.03570792006762023
 31
0.0
  0
LINE
  5
201
330
17
100
AcDbEntity
  8
0
100
AcDbLine
 10
0.22951000000000002
 20
0.03570792006762023
 30
0.0
 11
0.23001000000000002
 21
0.03574679472810581
 31
0.0
  0
LINE
  5
202
330
17
100
AcDbEntity
  8
0
100
AcDbLine
 10
0.23001000000000002
 20
0.03574679472810581
 30
0.0
 11
0.23051000000000002
 21
0.03578562715827559
 31
0.0
  0
LINE
  5
203
330
17
100
AcDbEntity
  8
0
100
AcDbLine
 10
0.23051000000000002
 20
0.03578562715827559
 30
0.0
 11
0.23101000000000002
 21
0.035824417495458165
 31
0.0
  0
LINE
  5
204
330
17
100
AcDbEntity
  8
0
100
AcDbLine
 10
0.23101000000000002
 20
0.035824417495458165
 30
0.0
 11
0.23151000000000002
 21
0.035863165876239465
 31
0.0
  0
LINE
  5
205
330
17
100
AcDbEntity
  8
0
100
AcDbLine
 10
0.23151000000000002
 20
0.035863165876239465
 30
0.0
 11
0.23201000000000002
 21
0.03590187243646833
 31
0.0
  0
LINE
  5
206
330
17
100
AcDbEntity
  8
0
100
AcDbLine
 10
0.23201000000000002
 20
0.03590187243646833
 30
0.0
 11
0.23251000000000002
 21
0.03594053731126209
 31
0.0
  0
LINE
  5
207
330
17
100
AcDbEntity
  8
0
100
AcDbLine
 10
0.23251000000000002
 20
0.03594053731126209
 30
0.0
 11
0.23301000000000002
 21
0.035979160635012046
 31
0.0
  0
LINE
  5
208
330
17
100
AcDbEntity
  8
0
100
AcDbLine
 10
0.23301000000000002
 20
0.035979160635012046
 30
0.0
 11
0.23351000000000002
 21
0.03601774254138893
 31
0.0
  0
LINE
  5
209
330
17
100
AcDbEntity
  8
0
100
AcDbLine
 10
0.23351000000000002
 20
0.03601774254138893
 30
0.0
 11
0.23401000000000002
 21
0.03605628316334832
 31
0.0
  0
LINE
  5
20A
330
17
100
AcDbEntity
  8
0
100
AcDbLine
 10
0.23401000000000002
 20
0.03605628316334832
 30
0.0
 11
0.23451000000000002
 21
0.03609478263313596
 31
0.0
  0
LINE
  5
20B
330
17
100
AcDbEntity
  8
0
100
AcDbLine
 10
0.23451000000000002
 20
0.03609478263313596
 30
0.0
 11
0.23501000000000002
 21
0.036133241082293065
 31
0.0
  0
LINE
  5
20C
330
17
100
AcDbEntity
  8
0
100
AcDbLine
 10
0.23501000000000002
 20
0.036133241082293065
 30
0.0
 11
0.23551000000000002
 21
0.03617165864166155
 31
0.0
  0
LINE
  5
20D
330
17
100
AcDbEntity
  8
0
100
AcDbLine
 10
0.23551000000000002
 20
0.03617165864166155
 30
0.0
 11
0.23601000000000003
 21
0.03621003544138927
 31
0.0
  0
LINE
  5
20E
330
17
100
AcDbEntity
  8
0
100
AcDbLine
 10
0.23601000000000003
 20
0.03621003544138927
 30
0.0
 11
0.23651000000000003
 21
0.03624837161093508
 31
0.0
  0
LINE
  5
20F
330
17
100
AcDbEntity
  8
0
100
AcDbLine
 10
0.23651000000000003
 20
0.03624837161093508
 30
0.0
 11
0.23701000000000003
 21
0.036286667279074036
 31
0.0
  0
LINE
  5
210
330
17
100
AcDbEntity
  8
0
100
AcDbLine
 10
0.23701000000000003
 20
0.036286667279074036
 30
0.0
 11
0.23751000000000003
 21
0.036324922573902345
 31
0.0
  0
LINE
  5
211
330
17
100
AcDbEntity
  8
0
100
AcDbLine
 10
0.23751000000000003
 20
0.036324922573902345
 30
0.0
 11
0.23801000000000003
 21
0.03636313762284242
 31
0.0
  0
LINE
  5
212
330
17
100
AcDbEntity
  8
0
100
AcDbLine
 10
0.23801000000000003
 20
0.03636313762284242
 30
0.0
 11
0.23851000000000003
 21
0.03640131255264782
 31
0.0
  0
LINE
  5
213
330
17
100
AcDbEntity
  8
0
100
AcDbLine
 10
0.23851000000000003
 20
0.03640131255264782
 30
0.0
 11
0.23901000000000003
 21
0.036439447489408146
 31
0.0
  0
LINE
  5
214
330
17
100
AcDbEntity
  8
0
100
AcDbLine
 10
0.23901000000000003
 20
0.036439447489408146
 30
0.0
 11
0.23951000000000003
 21
0.036477542558553906
 31
0.0
  0
LINE
  5
215
330
17
100
AcDbEntity
  8
0
100
AcDbLine
 10
0.23951000000000003
 20
0.036477542558553906
 30
0.0
 11
0.24001000000000003
 21
0.03651559788486133
 31
0.0
  0
LINE
  5
216
330
17
100
AcDbEntity
  8
0
100
AcDbLine
 10
0.24001000000000003
 20
0.03651559788486133
 30
0.0
 11
0.24051000000000003
 21
0.03655361359245714
 31
0.0
  0
LINE
  5
217
330
17
100
AcDbEntity
  8
0
100
AcDbLine
 10
0.24051000000000003
 20
0.03655361359245714
 30
0.0
 11
0.24101000000000003
 21
0.03659158980482325
 31
0.0
  0
LINE
  5
218
330
17
100
AcDbEntity
  8
0
100
AcDbLine
 10
0.24101000000000003
 20
0.03659158980482325
 30
0.0
 11
0.24151000000000003
 21
0.03662952664480149
 31
0.0
  0
LINE
  5
219
330
17
100
AcDbEntity
  8
0
100
AcDbLine
 10
0.24151000000000003
 20
0.03662952664480149
 30
0.0
 11
0.24201000000000003
 21
0.03666742423459821
 31
0.0
  0
LINE
  5
21A
330
17
100
AcDbEntity
  8
0
100
AcDbLine
 10
0.24201000000000003
 20
0.03666742423459821
 30
0.0
 11
0.24251000000000003
 21
0.03670528269578887
 31
0.0
  0
LINE
  5
21B
330
17
100
AcDbEntity
  8
0
100
AcDbLine
 10
0.24251000000000003
 20
0.03670528269578887
 30
0.0
 11
0.24301000000000003
 21
0.03674310214932261
 31
0.0
  0
LINE
  5
21C
330
17
100
AcDbEntity
  8
0
100
AcDbLine
 10
0.24301000000000003
 20
0.03674310214932261
 30
0.0
 11
0.24351000000000003
 21
0.036780882715526736
 31
0.0
  0
LINE
  5
21D
330
17
100
AcDbEntity
  8
0
100
AcDbLine
 10
0.24351000000000003
 20
0.036780882715526736
 30
0.0
 11
0.24401000000000003
 21
0.03681862451411121
 31
0.0
  0
LINE
  5
21E
330
17
100
AcDbEntity
  8
0
100
AcDbLine
 10
0.24401000000000003
 20
0.03681862451411121
 30
0.0
 11
0.24451000000000003
 21
0.036856327664173065
 31
0.0
  0
LINE
  5
21F
330
17
100
AcDbEntity
  8
0
100
AcDbLine
 10
0.24451000000000003
 20
0.036856327664173065
 30
0.0
 11
0.24501000000000003
 21
0.03689399228420078
 31
0.0
  0
LINE
  5
220
330
17
100
AcDbEntity
  8
0
100
AcDbLine
 10
0.24501000000000003
 20
0.03689399228420078
 30
0.0
 11
0.24551000000000003
 21
0.036931618492078634
 31
0.0
  0
LINE
  5
221
330
17
100
AcDbEntity
  8
0
100
AcDbLine
 10
0.24551000000000003
 20
0.036931618492078634
 30
0.0
 11
0.24601
 21
0.036969206405091014
 31
0.0
  0
LINE
  5
222
330
17
100
AcDbEntity
  8
0
100
AcDbLine
 10
0.24601
 20
0.036969206405091014
 30
0.0
 11
0.24651
 21
0.03700675613992667
 31
0.0
  0
LINE
  5
223
330
17
100
AcDbEntity
  8
0
100
AcDbLine
 10
0.24651
 20
0.03700675613992667
 30
0.0
 11
0.24701
 21
0.03704426781268295
 31
0.0
  0
LINE
  5
224
330
17
100
AcDbEntity
  8
0
100
AcDbLine
 10
0.24701
 20
0.03704426781268295
 30
0.0
 11
0.24751
 21
0.037081741538869985
 31
0.0
  0
LINE
  5
225
330
17
100
AcDbEntity
  8
0
100
AcDbLine
 10
0.24751
 20
0.037081741538869985
 30
0.0
 11
0.24801
 21
0.03711917743341484
 31
0.0
  0
LINE
  5
226
330
17
100
AcDbEntity
  8
0
100
AcDbLine
 10
0.24801
 20
0.03711917743341484
 30
0.0
 11
0.24851
 21
0.03715657561066562
 31
0.0
  0
LINE
  5
227
330
17
100
AcDbEntity
  8
0
100
AcDbLine
 10
0.24851
 20
0.03715657561066562
 30
0.0
 11
0.24901
 21
0.03719393618439556
 31
0.0
  0
LINE
  5
228
330
17
100
AcDbEntity
  8
0
100
AcDbLine
 10
0.24901
 20
0.03719393618439556
 30
0.0
 11
0.24951
 21
0.03723125926780703
 31
0.0
  0
LINE
  5
229
330
17
100
AcDbEntity
  8
0
100
AcDbLine
 10
0.24951
 20
0.03723125926780703
 30
0.0
 11
0.25001
 21
0.037268544973535586
 31
0.0
  0
LINE
  5
22A
330
17
100
AcDbEntity
  8
0
100
AcDbLine
 10
0.25001
 20
0.037268544973535586
 30
0.0
 11
0.25051
 21
0.03730579341365389
 31
0.0
  0
LINE
  5
22B
330
17
100
AcDbEntity
  8
0
100
AcDbLine
 10
0.25051
 20
0.03730579341365389
 30
0.0
 11
0.25101
 21
0.037343004699675685
 31
0.0
  0
LINE
  5
22C
330
17
100
AcDbEntity
  8
0
100
AcDbLine
 10
0.25101
 20
0.037343004699675685
 30
0.0
 11
0.25151
 21
0.03738017894255962
 31
0.0
  0
LINE
  5
22D
330
17
100
AcDbEntity
  8
0
100
AcDbLine
 10
0.25151
 20
0.03738017894255962
 30
0.0
 11
0.25201
 21
0.037417316252713204
 31
0.0
  0
LINE
  5
22E
330
17
100
AcDbEntity
  8
0
100
AcDbLine
 10
0.25201
 20
0.037417316252713204
 30
0.0
 11
0.25251
 21
0.03745441673999655
 31
0.0
  0
LINE
  5
22F
330
17
100
AcDbEntity
  8
0
100
AcDbLine
 10
0.25251
 20
0.03745441673999655
 30
0.0
 11
0.25301
 21
0.037491480513726194
 31
0.0
  0
LINE
  5
230
330
17
100
AcDbEntity
  8
0
100
AcDbLine
 10
0.25301
 20
0.037491480513726194
 30
0.0
 11
0.25351
 21
0.0375285076826789
 31
0.0
  0
LINE
  5
231
330
17
100
AcDbEntity
  8
0
100
AcDbLine
 10
0.25351
 20
0.0375285076826789
 30
0.0
 11
0.25401
 21
0.03756549835509529
 31
0.0
  0
LINE
  5
232
330
17
100
AcDbEntity
  8
0
100
AcDbLine
 10
0.25401
 20
0.03756549835509529
 30
0.0
 11
0.25451
 21
0.03760245263868362
 31
0.0
  0
LINE
  5
233
330
17
100
AcDbEntity
  8
0
100
AcDbLine
 10
0.25451
 20
0.03760245263868362
 30
0.0
 11
0.25501
 21
0.03763937064062339
 31
0.0
  0
LINE
  5
234
330
17
100
AcDbEntity
  8
0
100
AcDbLine
 10
0.25501
 20
0.03763937064062339
 30
0.0
 11
0.25551
 21
0.03767625246756901
 31
0.0
  0
LINE
  5
235
330
17
100
AcDbEntity
  8
0
100
AcDbLine
 10
0.25551
 20
0.03767625246756901
 30
0.0
 11
0.25601
 21
0.03771309822565336
 31
0.0
  0
LINE
  5
236
330
17
100
AcDbEntity
  8
0
100
AcDbLine
 10
0.25601
 20
0.03771309822565336
 30
0.0
 11
0.25651
 21
0.03774990802049133
 31
0.0
  0
LINE
  5
237
330
17
100
AcDbEntity
  8
0
100
AcDbLine
 10
0.25651
 20
0.03774990802049133
 30
0.0
 11
0.25701
 21
0.03778668195718346
 31
0.0
  0
LINE
  5
238
330
17
100
AcDbEntity
  8
0
100
AcDbLine
 10
0.25701
 20
0.03778668195718346
 30
0.0
 11
0.25751
 21
0.037823420140319294
 31
0.0
  0
LINE
  5
239
330
17
100
AcDbEntity
  8
0
100
AcDbLine
 10
0.25751
 20
0.037823420140319294
 30
0.0
 11
0.25801
 21
0.037860122673980985
 31
0.0
  0
LINE
  5
23A
330
17
100
AcDbEntity
  8
0
100
AcDbLine
 10
0.25801
 20
0.037860122673980985
 30
0.0
 11
0.25851
 21
0.037896789661746644
 31
0.0
  0
LINE
  5
23B
330
17
100
AcDbEntity
  8
0
100
AcDbLine
 10
0.25851
 20
0.037896789661746644
 30
0.0
 11
0.25901
 21
0.03793342120669377
 31
0.0
  0
LINE
  5
23C
330
17
100
AcDbEntity
  8
0
100
AcDbLine
 10
0.25901
 20
0.03793342120669377
 30
0.0
 11
0.25951
 21
0.03797001741140268
 31
0.0
  0
LINE
  5
23D
330
17
100
AcDbEntity
  8
0
100
AcDbLine
 10
0.25951
 20
0.03797001741140268
 30
0.0
 11
0.26001
 21
0.03800657837795979
 31
0.0
  0
LINE
  5
23E
330
17
100
AcDbEntity
  8
0
100
AcDbLine
 10
0.26001
 20
0.03800657837795979
 30
0.0
 11
0.26051
 21
0.038043104207960976
 31
0.0
  0
LINE
  5
23F
330
17
100
AcDbEntity
  8
0
100
AcDbLine
 10
0.26051
 20
0.038043104207960976
 30
0.0
 11
0.26101
 21
0.03807959500251487
 31
0.0
  0
LINE
  5
240
330
17
100
AcDbEntity
  8
0
100
AcDbLine
 10
0.26101
 20
0.03807959500251487
 30
0.0
 11
0.26151
 21
0.03811605086224613
 31
0.0
  0
LINE
  5
241
330
17
100
AcDbEntity
  8
0
100
AcDbLine
 10
0.26151
 20
0.03811605086224613
 30
0.0
 11
0.26201
 21
0.03815247188729862
 31
0.0
  0
LINE
  5
242
330
17
100
AcDbEntity
  8
0
100
AcDbLine
 10
0.26201
 20
0.03815247188729862
 30
0.0
 11
0.26251
 21
0.038188858177338705
 31
0.0
  0
LINE
  5
243
330
17
100
AcDbEntity
  8
0
100
AcDbLine
 10
0.26251
 20
0.038188858177338705
 30
0.0
 11
0.26301
 21
0.038225209831558374
 31
0.0
  0
LINE
  5
244
330
17
100
AcDbEntity
  8
0
100
AcDbLine
 10
0.26301
 20
0.038225209831558374
 30
0.0
 11
0.26351
 21
0.03826152694867842
 31
0.0
  0
LINE
  5
245
330
17
100
AcDbEntity
  8
0
100
AcDbLine
 10
0.26351
 20
0.03826152694867842
 30
0.0
 11
0.26401
 21
0.03829780962695155
 31
0.0
  0
LINE
  5
246
330
17
100
AcDbEntity
  8
0
100
AcDbLine
 10
0.26401
 20
0.03829780962695155
 30
0.0
 11
0.26451
 21
0.0383340579641655
 31
0.0
  0
LINE
  5
247
330
17
100
AcDbEntity
  8
0
100
AcDbLine
 10
0.26451
 20
0.0383340579641655
 30
0.0
 11
0.26501
 21
0.038370272057646114
 31
0.0
  0
LINE
  5
248
330
17
100
AcDbEntity
  8
0
100
AcDbLine
 10
0.26501
 20
0.038370272057646114
 30
0.0
 11
0.26551
 21
0.03840645200426038
 31
0.0
  0
LINE
  5
249
330
17
100
AcDbEntity
  8
0
100
AcDbLine
 10
0.26551
 20
0.03840645200426038
 30
0.0
 11
0.26601
 21
0.03844259790041945
 31
0.0
  0
LINE
  5
24A
330
17
100
AcDbEntity
  8
0
100
AcDbLine
 10
0.26601
 20
0.03844259790041945
 30
0.0
 11
0.26651
 21
0.038478709842081654
 31
0.0
  0
LINE
  5
24B
330
17
100
AcDbEntity
  8
0
100
AcDbLine
 10
0.26651
 20
0.038478709842081654
 30
0.0
 11
0.26701
 21
0.03851478792475546
 31
0.0
  0
LINE
  5
24C
330
17
100
AcDbEntity
  8
0
100
AcDbLine
 10
0.26701
 20
0.03851478792475546
 30
0.0
 11
0.26751
 21
0.038550832243502434
 31
0.0
  0
LINE
  5
24D
330
17
100
AcDbEntity
  8
0
100
AcDbLine
 10
0.26751
 20
0.038550832243502434
 30
0.0
 11
0.26801
 21
0.03858684289294014
 31
0.0
  0
LINE
  5
24E
330
17
100
AcDbEntity
  8
0
100
AcDbLine
 10
0.26801
 20
0.03858684289294014
 30
0.0
 11
0.26851
 21
0.038622819967245044
 31
0.0
  0
LINE
  5
24F
330
17
100
AcDbEntity
  8
0
100
AcDbLine
 10
0.26851
 20
0.038622819967245044
 30
0.0
 11
0.26901
 21
0.038658763560155414
 31
0.0
  0
LINE
  5
250
330
17
100
AcDbEntity
  8
0
100
AcDbLine
 10
0.26901
 20
0.038658763560155414
 30
0.0
 11
0.26951
 21
0.038694673764974145
 31
0.0
  0
LINE
  5
251
330
17
100
AcDbEntity
  8
0
100
AcDbLine
 10
0.26951
 20
0.038694673764974145
 30
0.0
 11
0.27001000000000003
 21
0.03873055067457157
 31
0.0
  0
LINE
  5
252
330
17
100
AcDbEntity
  8
0
100
AcDbLine
 10
0.27001000000000003
 20
0.03873055067457157
 30
0.0
 11
0.27051000000000003
 21
0.03876639438138829
 31
0.0
  0
LINE
  5
253
330
17
100
AcDbEntity
  8
0
100
AcDbLine
 10
0.27051000000000003
 20
0.03876639438138829
 30
0.0
 11
0.27101000000000003
 21
0.038802204977437964
 31
0.0
  0
LINE
  5
254
330
17
100
AcDbEntity
  8
0
100
AcDbLine
 10
0.27101000000000003
 20
0.038802204977437964
 30
0.0
 11
0.27151000000000003
 21
0.038837982554310015
 31
0.0
  0
LINE
  5
255
330
17
100
AcDbEntity
  8
0
100
AcDbLine
 10
0.27151000000000003
 20
0.038837982554310015
 30
0.0
 11
0.27201000000000003
 21
0.03887372720317241
 31
0.0
  0
LINE
  5
256
330
17
100
AcDbEntity
  8
0
100
AcDbLine
 10
0.27201000000000003
 20
0.03887372720317241
 30
0.0
 11
0.27251000000000003
 21
0.03890943901477436
 31
0.0
  0
LINE
  5
257
330
17
100
AcDbEntity
  8
0
100
AcDbLine
 10
0.27251000000000003
 20
0.03890943901477436
 30
0.0
 11
0.27301000000000003
 21
0.03894511807944896
 31
0.0
  0
LINE
  5
258
330
17
100
AcDbEntity
  8
0
100
AcDbLine
 10
0.27301000000000003
 20
0.03894511807944896
 30
0.0
 11
0.27351000000000003
 21
0.03898076448711595
 31
0.0
  0
LINE
  5
259
330
17
100
AcDbEntity
  8
0
100
AcDbLine
 10
0.27351000000000003
 20
0.03898076448711595
 30
0.0
 11
0.27401000000000003
 21
0.03901637832728427
 31
0.0
  0
LINE
  5
25A
330
17
100
AcDbEntity
  8
0
100
AcDbLine
 10
0.27401000000000003
 20
0.03901637832728427
 30
0.0
 11
0.27451000000000003
 21
0.039051959689054734
 31
0.0
  0
LINE
  5
25B
330
17
100
AcDbEntity
  8
0
100
AcDbLine
 10
0.27451000000000003
 20
0.039051959689054734
 30
0.0
 11
0.27501000000000003
 21
0.039087508661122594
 31
0.0
  0
LINE
  5
25C
330
17
100
AcDbEntity
  8
0
100
AcDbLine
 10
0.27501000000000003
 20
0.039087508661122594
 30
0.0
 11
0.27551000000000003
 21
0.03912302533178015
 31
0.0
  0
LINE
  5
25D
330
17
100
AcDbEntity
  8
0
100
AcDbLine
 10
0.27551000000000003
 20
0.03912302533178015
 30
0.0
 11
0.27601000000000003
 21
0.039158509788919306
 31
0.0
  0
LINE
  5
25E
330
17
100
AcDbEntity
  8
0
100
AcDbLine
 10
0.27601000000000003
 20
0.039158509788919306
 30
0.0
 11
0.27651000000000003
 21
0.03919396212003409
 31
0.0
  0
LINE
  5
25F
330
17
100
AcDbEntity
  8
0
100
AcDbLine
 10
0.27651000000000003
 20
0.03919396212003409
 30
0.0
 11
0.27701000000000003
 21
0.03922938241222318
 31
0.0
  0
LINE
  5
260
330
17
100
AcDbEntity
  8
0
100
AcDbLine
 10
0.27701000000000003
 20
0.03922938241222318
 30
0.0
 11
0.27751000000000003
 21
0.03926477075219239
 31
0.0
  0
LINE
  5
261
330
17
100
AcDbEntity
  8
0
100
AcDbLine
 10
0.27751000000000003
 20
0.03926477075219239
 30
0.0
 11
0.27801000000000003
 21
0.03930012722625717
 31
0.0
  0
LINE
  5
262
330
17
100
AcDbEntity
  8
0
100
AcDbLine
 10
0.27801000000000003
 20
0.03930012722625717
 30
0.0
 11
0.27851000000000004
 21
0.039335451920345064
 31
0.0
  0
LINE
  5
263
330
17
100
AcDbEntity
  8
0
100
AcDbLine
 10
0.27851000000000004
 20
0.039335451920345064
 30
0.0
 11
0.27901000000000004
 21
0.03937074491999809
 31
0.0
  0
LINE
  5
264
330
17
100
AcDbEntity
  8
0
100
AcDbLine
 10
0.27901000000000004
 20
0.03937074491999809
 30
0.0
 11
0.27951000000000004
 21
0.03940600631037525
 31
0.0
  0
LINE
  5
265
330
17
100
AcDbEntity
  8
0
100
AcDbLine
 10
0.27951000000000004
 20
0.03940600631037525
 30
0.0
 11
0.28001000000000004
 21
0.039441236176254814
 31
0.0
  0
LINE
  5
266
330
17
100
AcDbEntity
  8
0
100
AcDbLine
 10
0.28001000000000004
 20
0.039441236176254814
 30
0.0
 11
0.28051000000000004
 21
0.039476434602036814
 31
0.0
  0
LINE
  5
267
330
17
100
AcDbEntity
  8
0
100
AcDbLine
 10
0.28051000000000004
 20
0.039476434602036814
 30
0.0
 11
0.28101000000000004
 21
0.03951160167174531
 31
0.0
  0
LINE
  5
268
330
17
100
AcDbEntity
  8
0
100
AcDbLine
 10
0.28101000000000004
 20
0.03951160167174531
 30
0.0
 11
0.28151000000000004
 21
0.039546737469030806
 31
0.0
  0
LINE
  5
269
330
17
100
AcDbEntity
  8
0
100
AcDbLine
 10
0.28151000000000004
 20
0.039546737469030806
 30
0.0
 11
0.28201000000000004
 21
0.03958184207717249
 31
0.0
  0
LINE
  5
26A
330
17
100
AcDbEntity
  8
0
100
AcDbLine
 10
0.28201000000000004
 20
0.03958184207717249
 30
0.0
 11
0.28251000000000004
 21
0.03961691557908062
 31
0.0
  0
LINE
  5
26B
330
17
100
AcDbEntity
  8
0
100
AcDbLine
 10
0.28251000000000004
 20
0.03961691557908062
 30
0.0
 11
0.28301000000000004
 21
0.039651958057298736
 31
0.0
  0
LINE
  5
26C
330
17
100
AcDbEntity
  8
0
100
AcDbLine
 10
0.28301000000000004
 20
0.039651958057298736
 30
0.0
 11
0.28351000000000004
 21
0.03968696959400599
 31
0.0
  0
LINE
  5
26D
330
17
100
AcDbEntity
  8
0
100
AcDbLine
 10
0.28351000000000004
 20
0.03968696959400599
 30
0.0
 11
0.28401000000000004
 21
0.039721950271019345
 31
0.0
  0
LINE
  5
26E
330
17
100
AcDbEntity
  8
0
100
AcDbLine
 10
0.28401000000000004
 20
0.039721950271019345
 30
0.0
 11
0.28451000000000004
 21
0.03975690016979583
 31
0.0
  0
LINE
  5
26F
330
17
100
AcDbEntity
  8
0
100
AcDbLine
 10
0.28451000000000004
 20
0.03975690016979583
 30
0.0
 11
0.28501000000000004
 21
0.03979181937143475
 31
0.0
  0
LINE
  5
270
330
17
100
AcDbEntity
  8
0
100
AcDbLine
 10
0.28501000000000004
 20
0.03979181937143475
 30
0.0
 11
0.28551000000000004
 21
0.03982670795667986
 31
0.0
  0
LINE
  5
271
330
17
100
AcDbEntity
  8
0
100
AcDbLine
 10
0.28551000000000004
 20
0.03982670795667986
 30
0.0
 11
0.28601000000000004
 21
0.03986156600592161
 31
0.0
  0
LINE
  5
272
330
17
100
AcDbEntity
  8
0
100
AcDbLine
 10
0.28601000000000004
 20
0.03986156600592161
 30
0.0
 11
0.28651000000000004
 21
0.03989639359919919
 31
0.0
  0
LINE
  5
273
330
17
100
AcDbEntity
  8
0
100
AcDbLine
 10
0.28651000000000004
 20
0.03989639359919919
 30
0.0
 11
0.28701000000000004
 21
0.03993119081620282
 31
0.0
  0
LINE
  5
274
330
17
100
AcDbEntity
  8
0
100
AcDbLine
 10
0.28701000000000004
 20
0.03993119081620282
 30
0.0
 11
0.28751000000000004
 21
0.03996595773627573
 31
0.0
  0
LINE
  5
275
330
17
100
AcDbEntity
  8
0
100
AcDbLine
 10
0.28751000000000004
 20
0.03996595773627573
 30
0.0
 11
0.28801000000000004
 21
0.04000069443841639
 31
0.0
  0
LINE
  5
276
330
17
100
AcDbEntity
  8
0
100
AcDbLine
 10
0.28801000000000004
 20
0.04000069443841639
 30
0.0
 11
0.28851000000000004
 21
0.04003540100128053
 31
0.0
  0
LINE
  5
277
330
17
100
AcDbEntity
  8
0
100
AcDbLine
 10
0.28851000000000004
 20
0.04003540100128053
 30
0.0
 11
0.28901000000000004
 21
0.04007007750318324
 31
0.0
  0
LINE
  5
278
330
17
100
AcDbEntity
  8
0
100
AcDbLine
 10
0.28901000000000004
 20
0.04007007750318324
 30
0.0
 11
0.28951000000000005
 21
0.04010472402210105
 31
0.0
  0
LINE
  5
279
330
17
100
AcDbEntity
  8
0
100
AcDbLine
 10
0.28951000000000005
 20
0.04010472402210105
 30
0.0
 11
0.29001000000000005
 21
0.04013934063567396
 31
0.0
  0
LINE
  5
27A
330
17
100
AcDbEntity
  8
0
100
AcDbLine
 10
0.29001000000000005
 20
0.04013934063567396
 30
0.0
 11
0.29051000000000005
 21
0.04017392742120746
 31
0.0
  0
LINE
  5
27B
330
17
100
AcDbEntity
  8
0
100
AcDbLine
 10
0.29051000000000005
 20
0.04017392742120746
 30
0.0
 11
0.29101000000000005
 21
0.04020848445567456
 31
0.0
  0
LINE
  5
27C
330
17
100
AcDbEntity
  8
0
100
AcDbLine
 10
0.29101000000000005
 20
0.04020848445567456
 30
0.0
 11
0.29151000000000005
 21
0.04024301181571777
 31
0.0
  0
LINE
  5
27D
330
17
100
AcDbEntity
  8
0
100
AcDbLine
 10
0.29151000000000005
 20
0.04024301181571777
 30
0.0
 11
0.29201000000000005
 21
0.040277509577651124
 31
0.0
  0
LINE
  5
27E
330
17
100
AcDbEntity
  8
0
100
AcDbLine
 10
0.29201000000000005
 20
0.040277509577651124
 30
0.0
 11
0.29251000000000005
 21
0.0403119778174621
 31
0.0
  0
LINE
  5
27F
330
17
100
AcDbEntity
  8
0
100
AcDbLine
 10
0.29251000000000005
 20
0.0403119778174621
 30
0.0
 11
0.29301000000000005
 21
0.040346416610813576
 31
0.0
  0
LINE
  5
280
330
17
100
AcDbEntity
  8
0
100
AcDbLine
 10
0.29301000000000005
 20
0.040346416610813576
 30
0.0
 11
0.29351000000000005
 21
0.040380826033045825
 31
0.0
  0
LINE
  5
281
330
17
100
AcDbEntity
  8
0
100
AcDbLine
 10
0.29351000000000005
 20
0.040380826033045825
 30
0.0
 11
0.29401000000000005
 21
0.040415206159178374
 31
0.0
  0
LINE
  5
282
330
17
100
AcDbEntity
  8
0
100
AcDbLine
 10
0.29401000000000005
 20
0.040415206159178374
 30
0.0
 11
0.29451000000000005
 21
0.04044955706391193
 31
0.0
  0
LINE
  5
283
330
17
100
AcDbEntity
  8
0
100
AcDbLine
 10
0.29451000000000005
 20
0.04044955706391193
 30
0.0
 11
0.29501000000000005
 21
0.040483878821630286
 31
0.0
  0
LINE
  5
284
330
17
100
AcDbEntity
  8
0
100
AcDbLine
 10
0.29501000000000005
 20
0.040483878821630286
 30
0.0
 11
0.29551000000000005
 21
0.04051817150640219
 31
0.0
  0
LINE
  5
285
330
17
100
AcDbEntity
  8
0
100
AcDbLine
 10
0.29551000000000005
 20
0.04051817150640219
 30
0.0
 11
0.29601000000000005
 21
0.04055243519198323
 31
0.0
  0
LINE
  5
286
330
17
100
AcDbEntity
  8
0
100
AcDbLine
 10
0.29601000000000005
 20
0.04055243519198323
 30
0.0
 11
0.29651000000000005
 21
0.04058666995181766
 31
0.0
  0
LINE
  5
287
330
17
100
AcDbEntity
  8
0
100
AcDbLine
 10
0.29651000000000005
 20
0.04058666995181766
 30
0.0
 11
0.29701000000000005
 21
0.040620875859040215
 31
0.0
  0
LINE
  5
288
330
17
100
AcDbEntity
  8
0
100
AcDbLine
 10
0.29701000000000005
 20
0.040620875859040215
 30
0.0
 11
0.29751
 21
0.040655052986478
 31
0.0
  0
LINE
  5
289
330
17
100
AcDbEntity
  8
0
100
AcDbLine
 10
0.29751
 20
0.040655052986478
 30
0.0
 11
0.29801
 21
0.04068920140665225
 31
0.0
  0
LINE
  5
28A
330
17
100
AcDbEntity
  8
0
100
AcDbLine
 10
0.29801
 20
0.04068920140665225
 30
0.0
 11
0.29851
 21
0.04072332119178013
 31
0.0
  0
LINE
  5
28B
330
17
100
AcDbEntity
  8
0
100
AcDbLine
 10
0.29851
 20
0.04072332119178013
 30
0.0
 11
0.29901
 21
0.040757412413776554
 31
0.0
  0
LINE
  5
28C
330
17
100
AcDbEntity
  8
0
100
AcDbLine
 10
0.29901
 20
0.040757412413776554
 30
0.0
 11
0.29951
 21
0.04079147514425587
 31
0.0
  0
LINE
  5
28D
330
17
100
AcDbEntity
  8
0
100
AcDbLine
 10
0.29951
 20
0.04079147514425587
 30
0.0
 11
0.30001
 21
0.040825509454533726
 31
0.0
  0
LINE
  5
28E
330
17
100
AcDbEntity
  8
0
100
AcDbLine
 10
0.30001
 20
0.040825509454533726
 30
0.0
 11
0.30051
 21
0.04085951541562871
 31
0.0
  0
LINE
  5
28F
330
17
100
AcDbEntity
  8
0
100
AcDbLine
 10
0.30051
 20
0.04085951541562871
 30
0.0
 11
0.30101
 21
0.04089349309826415
 31
0.0
  0
LINE
  5
290
330
17
100
AcDbEntity
  8
0
100
AcDbLine
 10
0.30101
 20
0.04089349309826415
 30
0.0
 11
0.30151
 21
0.0409274425728698
 31
0.0
  0
LINE
  5
291
330
17
100
AcDbEntity
  8
0
100
AcDbLine
 10
0.30151
 20
0.0409274425728698
 30
0.0
 11
0.30201
 21
0.04096136390958355
 31
0.0
  0
LINE
  5
292
330
17
100
AcDbEntity
  8
0
100
AcDbLine
 10
0.30201
 20
0.04096136390958355
 30
0.0
 11
0.30251
 21
0.040995257178253086
 31
0.0
  0
LINE
  5
293
330
17
100
AcDbEntity
  8
0
100
AcDbLine
 10
0.30251
 20
0.040995257178253086
 30
0.0
 11
0.30301
 21
0.041029122448437635
 31
0.0
  0
LINE
  5
294
330
17
100
AcDbEntity
  8
0
100
AcDbLine
 10
0.30301
 20
0.041029122448437635
 30
0.0
 11
0.30351
 21
0.04106295978940957
 31
0.0
  0
LINE
  5
295
330
17
100
AcDbEntity
  8
0
100
AcDbLine
 10
0.30351
 20
0.04106295978940957
 30
0.0
 11
0.30401
 21
0.04109676927015607
 31
0.0
  0
LINE
  5
296
330
17
100
AcDbEntity
  8
0
100
AcDbLine
 10
0.30401
 20
0.04109676927015607
 30
0.0
 11
0.30451
 21
0.04113055095938082
 31
0.0
  0
LINE
  5
297
330
17
100
AcDbEntity
  8
0
100
AcDbLine
 10
0.30451
 20
0.04113055095938082
 30
0.0
 11
0.30501
 21
0.041164304925505546
 31
0.0
  0
LINE
  5
298
330
17
100
AcDbEntity
  8
0
100
AcDbLine
 10
0.30501
 20
0.041164304925505546
 30
0.0
 11
0.30551
 21
0.041198031236671706
 31
0.0
  0
LINE
  5
299
330
17
100
AcDbEntity
  8
0
100
AcDbLine
 10
0.30551
 20
0.041198031236671706
 30
0.0
 11
0.30601
 21
0.04123172996074208
 31
0.0
  0
LINE
  5
29A
330
17
100
AcDbEntity
  8
0
100
AcDbLine
 10
0.30601
 20
0.04123172996074208
 30
0.0
 11
0.30651
 21
0.041265401165302314
 31
0.0
  0
LINE
  5
29B
330
17
100
AcDbEntity
  8
0
100
AcDbLine
 10
0.30651
 20
0.041265401165302314
 30
0.0
 11
0.30701
 21
0.04129904491766258
 31
0.0
  0
LINE
  5
29C
330
17
100
AcDbEntity
  8
0
100
AcDbLine
 10
0.30701
 20
0.04129904491766258
 30
0.0
 11
0.30751
 21
0.04133266128485909
 31
0.0
  0
LINE
  5
29D
330
17
100
AcDbEntity
  8
0
100
AcDbLine
 10
0.30751
 20
0.04133266128485909
 30
0.0
 11
0.30801
 21
0.04136625033365566
 31
0.0
  0
LINE
  5
29E
330
17
100
AcDbEntity
  8
0
100
AcDbLine
 10
0.30801
 20
0.04136625033365566
 30
0.0
 11
0.30851
 21
0.041399812130545284
 31
0.0
  0
LINE
  5
29F
330
17
100
AcDbEntity
  8
0
100
AcDbLine
 10
0.30851
 20
0.041399812130545284
 30
0.0
 11
0.30901
 21
0.041433346741751656
 31
0.0
  0
LINE
  5
2A0
330
17
100
AcDbEntity
  8
0
100
AcDbLine
 10
0.30901
 20
0.041433346741751656
 30
0.0
 11
0.30951
 21
0.04146685423323067
 31
0.0
  0
LINE
  5
2A1
330
17
100
AcDbEntity
  8
0
100
AcDbLine
 10
0.30951
 20
0.04146685423323067
 30
0.0
 11
0.31001
 21
0.04150033467067197
 31
0.0
  0
LINE
  5
2A2
330
17
100
AcDbEntity
  8
0
100
AcDbLine
 10
0.31001
 20
0.04150033467067197
 30
0.0
 11
0.31051
 21
0.04153378811950044
 31
0.0
  0
LINE
  5
2A3
330
17
100
AcDbEntity
  8
0
100
AcDbLine
 10
0.31051
 20
0.04153378811950044
 30
0.0
 11
0.31101
 21
0.041567214644877684
 31
0.0
  0
LINE
  5
2A4
330
17
100
AcDbEntity
  8
0
100
AcDbLine
 10
0.31101
 20
0.041567214644877684
 30
0.0
 11
0.31151
 21
0.04160061431170351
 31
0.0
  0
LINE
  5
2A5
330
17
100
AcDbEntity
  8
0
100
AcDbLine
 10
0.31151
 20
0.04160061431170351
 30
0.0
 11
0.31201
 21
0.041633987184617444
 31
0.0
  0
LINE
  5
2A6
330
17
100
AcDbEntity
  8
0
100
AcDbLine
 10
0.31201
 20
0.041633987184617444
 30
0.0
 11
0.31251
 21
0.041667333328000086
 31
0.0
  0
LINE
  5
2A7
330
17
100
AcDbEntity
  8
0
100
AcDbLine
 10
0.31251
 20
0.041667333328000086
 30
0.0
 11
0.31301
 21
0.04170065280597469
 31
0.0
  0
LINE
  5
2A8
330
17
100
AcDbEntity
  8
0
100
AcDbLine
 10
0.31301
 20
0.04170065280597469
 30
0.0
 11
0.31351
 21
0.04173394568240849
 31
0.0
  0
LINE
  5
2A9
330
17
100
AcDbEntity
  8
0
100
AcDbLine
 10
0.31351
 20
0.04173394568240849
 30
0.0
 11
0.31401
 21
0.041767212020914206
 31
0.0
  0
LINE
  5
2AA
330
17
100
AcDbEntity
  8
0
100
AcDbLine
 10
0.31401
 20
0.041767212020914206
 30
0.0
 11
0.31451
 21
0.04180045188485141
 31
0.0
  0
LINE
  5
2AB
330
17
100
AcDbEntity
  8
0
100
AcDbLine
 10
0.31451
 20
0.04180045188485141
 30
0.0
 11
0.31501
 21
0.04183366533732797
 31
0.0
  0
LINE
  5
2AC
330
17
100
AcDbEntity
  8
0
100
AcDbLine
 10
0.31501
 20
0.04183366533732797
 30
0.0
 11
0.31551
 21
0.041866852441201426
 31
0.0
  0
LINE
  5
2AD
330
17
100
AcDbEntity
  8
0
100
AcDbLine
 10
0.31551
 20
0.041866852441201426
 30
0.0
 11
0.31601
 21
0.04190001325908038
 31
0.0
  0
LINE
  5
2AE
330
17
100
AcDbEntity
  8
0
100
AcDbLine
 10
0.31601
 20
0.04190001325908038
 30
0.0
 11
0.31651
 21
0.041933147853325886
 31
0.0
  0
LINE
  5
2AF
330
17
100
AcDbEntity
  8
0
100
AcDbLine
 10
0.31651
 20
0.041933147853325886
 30
0.0
 11
0.31701
 21
0.04196625628605281
 31
0.0
  0
LINE
  5
2B0
330
17
100
AcDbEntity
  8
0
100
AcDbLine
 10
0.31701
 20
0.04196625628605281
 30
0.0
 11
0.31751
 21
0.04199933861913119
 31
0.0
  0
LINE
  5
2B1
330
17
100
AcDbEntity
  8
0
100
AcDbLine
 10
0.31751
 20
0.04199933861913119
 30
0.0
 11
0.31801
 21
0.04203239491418759
 31
0.0
  0
LINE
  5
2B2
330
17
100
AcDbEntity
  8
0
100
AcDbLine
 10
0.31801
 20
0.04203239491418759
 30
0.0
 11
0.31851
 21
0.04206542523260641
 31
0.0
  0
LINE
  5
2B3
330
17
100
AcDbEntity
  8
0
100
AcDbLine
 10
0.31851
 20
0.04206542523260641
 30
0.0
 11
0.31901
 21
0.04209842963553128
 31
0.0
  0
LINE
  5
2B4
330
17
100
AcDbEntity
  8
0
100
AcDbLine
 10
0.31901
 20
0.04209842963553128
 30
0.0
 11
0.31951
 21
0.04213140818386629
 31
0.0
  0
LINE
  5
2B5
330
17
100
AcDbEntity
  8
0
100
AcDbLine
 10
0.31951
 20
0.04213140818386629
 30
0.0
 11
0.32001
 21
0.04216436093827741
 31
0.0
  0
LINE
  5
2B6
330
17
100
AcDbEntity
  8
0
100
AcDbLine
 10
0.32001
 20
0.04216436093827741
 30
0.0
 11
0.32051
 21
0.04219728795919367
 31
0.0
  0
LINE
  5
2B7
330
17
100
AcDbEntity
  8
0
100
AcDbLine
 10
0.32051
 20
0.04219728795919367
 30
0.0
 11
0.32101
 21
0.04223018930680858
 31
0.0
  0
LINE
  5
2B8
330
17
100
AcDbEntity
  8
0
100
AcDbLine
 10
0.32101
 20
0.04223018930680858
 30
0.0
 11
0.32151
 21
0.04226306504108129
 31
0.0
  0
LINE
  5
2B9
330
17
100
AcDbEntity
  8
0
100
AcDbLine
 10
0.32151
 20
0.04226306504108129
 30
0.0
 11
0.32201
 21
0.04229591522173796
 31
0.0
  0
LINE
  5
2BA
330
17
100
AcDbEntity
  8
0
100
AcDbLine
 10
0.32201
 20
0.04229591522173796
 30
0.0
 11
0.32251
 21
0.04232873990827299
 31
0.0
  0
LINE
  5
2BB
330
17
100
AcDbEntity
  8
0
100
AcDbLine
 10
0.32251
 20
0.04232873990827299
 30
0.0
 11
0.32301
 21
0.04236153915995027
 31
0.0
  0
LINE
  5
2BC
330
17
100
AcDbEntity
  8
0
100
AcDbLine
 10
0.32301
 20
0.04236153915995027
 30
0.0
 11
0.32351
 21
0.04239431303580444
 31
0.0
  0
LINE
  5
2BD
330
17
100
AcDbEntity
  8
0
100
AcDbLine
 10
0.32351
 20
0.04239431303580444
 30
0.0
 11
0.32401
 21
0.042427061594642115
 31
0.0
  0
LINE
  5
2BE
330
17
100
AcDbEntity
  8
0
100
AcDbLine
 10
0.32401
 20
0.042427061594642115
 30
0.0
 11
0.32451
 21
0.042459784895043144
 31
0.0
  0
LINE
  5
2BF
330
17
100
AcDbEntity
  8
0
100
AcDbLine
 10
0.32451
 20
0.042459784895043144
 30
0.0
 11
0.32501
 21
0.04249248299536179
 31
0.0
  0
LINE
  5
2C0
330
17
100
AcDbEntity
  8
0
100
AcDbLine
 10
0.32501
 20
0.04249248299536179
 30
0.0
 11
0.32551
 21
0.042525155953728015
 31
0.0
  0
LINE
  5
2C1
330
17
100
AcDbEntity
  8
0
100
AcDbLine
 10
0.32551
 20
0.042525155953728015
 30
0.0
 11
0.32601
 21
0.042557803828048586
 31
0.0
  0
LINE
  5
2C2
330
17
100
AcDbEntity
  8
0
100
AcDbLine
 10
0.32601
 20
0.042557803828048586
 30
0.0
 11
0.32651
 21
0.04259042667600836
 31
0.0
  0
LINE
  5
2C3
330
17
100
AcDbEntity
  8
0
100
AcDbLine
 10
0.32651
 20
0.04259042667600836
 30
0.0
 11
0.32701
 21
0.042623024555071436
 31
0.0
  0
LINE
  5
2C4
330
17
100
AcDbEntity
  8
0
100
AcDbLine
 10
0.32701
 20
0.042623024555071436
 30
0.0
 11
0.32751
 21
0.042655597522482325
 31
0.0
  0
LINE
  5
2C5
330
17
100
AcDbEntity
  8
0
100
AcDbLine
 10
0.32751
 20
0.042655597522482325
 30
0.0
 11
0.32801
 21
0.042688145635267155
 31
0.0
  0
LINE
  5
2C6
330
17
100
AcDbEntity
  8
0
100
AcDbLine
 10
0.32801
 20
0.042688145635267155
 30
0.0
 11
0.32851
 21
0.0427206689502348
 31
0.0
  0
LINE
  5
2C7
330
17
100
AcDbEntity
  8
0
100
AcDbLine
 10
0.32851
 20
0.0427206689502348
 30
0.0
 11
0.32901
 21
0.04275316752397808
 31
0.0
  0
LINE
  5
2C8
330
17
100
AcDbEntity
  8
0
100
AcDbLine
 10
0.32901
 20
0.04275316752397808
 30
0.0
 11
0.32951
 21
0.04278564141287485
 31
0.0
  0
LINE
  5
2C9
330
17
100
AcDbEntity
  8
0
100
AcDbLine
 10
0.32951
 20
0.04278564141287485
 30
0.0
 11
0.33001
 21
0.04281809067308921
 31
0.0
  0
LINE
  5
2CA
330
17
100
AcDbEntity
  8
0
100
AcDbLine
 10
0.33001
 20
0.04281809067308921
 30
0.0
 11
0.33051
 21
0.042850515360572584
 31
0.0
  0
LINE
  5
2CB
330
17
100
AcDbEntity
  8
0
100
AcDbLine
 10
0.33051
 20
0.042850515360572584
 30
0.0
 11
0.33101
 21
0.04288291553106487
 31
0.0
  0
LINE
  5
2CC
330
17
100
AcDbEntity
  8
0
100
AcDbLine
 10
0.33101
 20
0.04288291553106487
 30
0.0
 11
0.33151
 21
0.042915291240095556
 31
0.0
  0
LINE
  5
2CD
330
17
100
AcDbEntity
  8
0
100
AcDbLine
 10
0.33151
 20
0.042915291240095556
 30
0.0
 11
0.33201
 21
0.04294764254298483
 31
0.0
  0
LINE
  5
2CE
330
17
100
AcDbEntity
  8
0
100
AcDbLine
 10
0.33201
 20
0.04294764254298483
 30
0.0
 11
0.33251000000000003
 21
0.04297996949484467
 31
0.0
  0
LINE
  5
2CF
330
17
100
AcDbEntity
  8
0
100
AcDbLine
 10
0.33251000000000003
 20
0.04297996949484467
 30
0.0
 11
0.33301000000000003
 21
0.043012272150579955
 31
0.0
  0
LINE
  5
2D0
330
17
100
AcDbEntity
  8
0
100
AcDbLine
 10
0.33301000000000003
 20
0.043012272150579955
 30
0.0
 11
0.33351000000000003
 21
0.04304455056488956
 31
0.0
  0
LINE
  5
2D1
330
17
100
AcDbEntity
  8
0
100
AcDbLine
 10
0.33351000000000003
 20
0.04304455056488956
 30
0.0
 11
0.33401000000000003
 21
0.043076804792267394
 31
0.0
  0
LINE
  5
2D2
330
17
100
AcDbEntity
  8
0
100
AcDbLine
 10
0.33401000000000003
 20
0.043076804792267394
 30
0.0
 11
0.33451000000000003
 21
0.04310903488700355
 31
0.0
  0
LINE
  5
2D3
330
17
100
AcDbEntity
  8
0
100
AcDbLine
 10
0.33451000000000003
 20
0.04310903488700355
 30
0.0
 11
0.33501000000000003
 21
0.04314124090318528
 31
0.0
  0
LINE
  5
2D4
330
17
100
AcDbEntity
  8
0
100
AcDbLine
 10
0.33501000000000003
 20
0.04314124090318528
 30
0.0
 11
0.33551000000000003
 21
0.04317342289469813
 31
0.0
  0
LINE
  5
2D5
330
17
100
AcDbEntity
  8
0
100
AcDbLine
 10
0.33551000000000003
 20
0.04317342289469813
 30
0.0
 11
0.33601000000000003
 21
0.04320558091522694
 31
0.0
  0
LINE
  5
2D6
330
17
100
AcDbEntity
  8
0
100
AcDbLine
 10
0.33601000000000003
 20
0.04320558091522694
 30
0.0
 11
0.33651000000000003
 21
0.04323771501825693
 31
0.0
  0
LINE
  5
2D7
330
17
100
AcDbEntity
  8
0
100
AcDbLine
 10
0.33651000000000003
 20
0.04323771501825693
 30
0.0
 11
0.33701000000000003
 21
0.04326982525707468
 31
0.0
  0
LINE
  5
2D8
330
17
100
AcDbEntity
  8
0
100
AcDbLine
 10
0.33701000000000003
 20
0.04326982525707468
 30
0.0
 11
0.33751000000000003
 21
0.043301911684769254
 31
0.0
  0
LINE
  5
2D9
330
17
100
AcDbEntity
  8
0
100
AcDbLine
 10
0.33751000000000003
 20
0.043301911684769254
 30
0.0
 11
0.33801000000000003
 21
0.04333397435423312
 31
0.0
  0
LINE
  5
2DA
330
17
100
AcDbEntity
  8
0
100
AcDbLine
 10
0.33801000000000003
 20
0.04333397435423312
 30
0.0
 11
0.33851000000000003
 21
0.04336601331816324
 31
0.0
  0
LINE
  5
2DB
330
17
100
AcDbEntity
  8
0
100
AcDbLine
 10
0.33851000000000003
 20
0.04336601331816324
 30
0.0
 11
0.33901000000000003
 21
0.04339802862906205
 31
0.0
  0
LINE
  5
2DC
330
17
100
AcDbEntity
  8
0
100
AcDbLine
 10
0.33901000000000003
 20
0.04339802862906205
 30
0.0
 11
0.33951000000000003
 21
0.04343002033923847
 31
0.0
  0
LINE
  5
2DD
330
17
100
AcDbEntity
  8
0
100
AcDbLine
 10
0.33951000000000003
 20
0.04343002033923847
 30
0.0
 11
0.34001000000000003
 21
0.0434619885008089
 31
0.0
  0
LINE
  5
2DE
330
17
100
AcDbEntity
  8
0
100
AcDbLine
 10
0.34001000000000003
 20
0.0434619885008089
 30
0.0
 11
0.34051000000000003
 21
0.04349393316569821
 31
0.0
  0
LINE
  5
2DF
330
17
100
AcDbEntity
  8
0
100
AcDbLine
 10
0.34051000000000003
 20
0.04349393316569821
 30
0.0
 11
0.34101000000000004
 21
0.04352585438564073
 31
0.0
  0
LINE
  5
2E0
330
17
100
AcDbEntity
  8
0
100
AcDbLine
 10
0.34101000000000004
 20
0.04352585438564073
 30
0.0
 11
0.34151000000000004
 21
0.04355775221218122
 31
0.0
  0
LINE
  5
2E1
330
17
100
AcDbEntity
  8
0
100
AcDbLine
 10
0.34151000000000004
 20
0.04355775221218122
 30
0.0
 11
0.34201000000000004
 21
0.04358962669667585
 31
0.0
  0
LINE
  5
2E2
330
17
100
AcDbEntity
  8
0
100
AcDbLine
 10
0.34201000000000004
 20
0.04358962669667585
 30
0.0
 11
0.34251000000000004
 21
0.043621477890293144
 31
0.0
  0
LINE
  5
2E3
330
17
100
AcDbEntity
  8
0
100
AcDbLine
 10
0.34251000000000004
 20
0.043621477890293144
 30
0.0
 11
0.34301000000000004
 21
0.04365330584401497
 31
0.0
  0
LINE
  5
2E4
330
17
100
AcDbEntity
  8
0
100
AcDbLine
 10
0.34301000000000004
 20
0.04365330584401497
 30
0.0
 11
0.34351000000000004
 21
0.04368511060863746
 31
0.0
  0
LINE
  5
2E5
330
17
100
AcDbEntity
  8
0
100
AcDbLine
 10
0.34351000000000004
 20
0.04368511060863746
 30
0.0
 11
0.34401000000000004
 21
0.04371689223477199
 31
0.0
  0
LINE
  5
2E6
330
17
100
AcDbEntity
  8
0
100
AcDbLine
 10
0.34401000000000004
 20
0.04371689223477199
 30
0.0
 11
0.34451000000000004
 21
0.043748650772846065
 31
0.0
  0
LINE
  5
2E7
330
17
100
AcDbEntity
  8
0
100
AcDbLine
 10
0.34451000000000004
 20
0.043748650772846065
 30
0.0
 11
0.34501000000000004
 21
0.043780386273104335
 31
0.0
  0
LINE
  5
2E8
330
17
100
AcDbEntity
  8
0
100
AcDbLine
 10
0.34501000000000004
 20
0.043780386273104335
 30
0.0
 11
0.34551000000000004
 21
0.04381209878560944
 31
0.0
  0
LINE
  5
2E9
330
17
100
AcDbEntity
  8
0
100
AcDbLine
 10
0.34551000000000004
 20
0.04381209878560944
 30
0.0
 11
0.34601000000000004
 21
0.04384378836024298
 31
0.0
  0
LINE
  5
2EA
330
17
100
AcDbEntity
  8
0
100
AcDbLine
 10
0.34601000000000004
 20
0.04384378836024298
 30
0.0
 11
0.34651000000000004
 21
0.043875455046706424
 31
0.0
  0
LINE
  5
2EB
330
17
100
AcDbEntity
  8
0
100
AcDbLine
 10
0.34651000000000004
 20
0.043875455046706424
 30
0.0
 11
0.34701000000000004
 21
0.04390709889452199
 31
0.0
  0
LINE
  5
2EC
330
17
100
AcDbEntity
  8
0
100
AcDbLine
 10
0.34701000000000004
 20
0.04390709889452199
 30
0.0
 11
0.34751000000000004
 21
0.043938719953033584
 31
0.0
  0
LINE
  5
2ED
330
17
100
AcDbEntity
  8
0
100
AcDbLine
 10
0.34751000000000004
 20
0.043938719953033584
 30
0.0
 11
0.34801000000000004
 21
0.04397031827140769
 31
0.0
  0
LINE
  5
2EE
330
17
100
AcDbEntity
  8
0
100
AcDbLine
 10
0.34801000000000004
 20
0.04397031827140769
 30
0.0
 11
0.34851000000000004
 21
0.044001893898634264
 31
0.0
  0
LINE
  5
2EF
330
17
100
AcDbEntity
  8
0
100
AcDbLine
 10
0.34851000000000004
 20
0.044001893898634264
 30
0.0
 11
0.34901000000000004
 21
0.04403344688352758
 31
0.0
  0
LINE
  5
2F0
330
17
100
AcDbEntity
  8
0
100
AcDbLine
 10
0.34901000000000004
 20
0.04403344688352758
 30
0.0
 11
0.34951000000000004
 21
0.04406497727472718
 31
0.0
  0
LINE
  5
2F1
330
17
100
AcDbEntity
  8
0
100
AcDbLine
 10
0.34951000000000004
 20
0.04406497727472718
 30
0.0
 11
0.35001000000000004
 21
0.044096485120698685
 31
0.0
  0
LINE
  5
2F2
330
17
100
AcDbEntity
  8
0
100
AcDbLine
 10
0.35001000000000004
 20
0.044096485120698685
 30
0.0
 11
0.35051000000000004
 21
0.04412797046973471
 31
0.0
  0
LINE
  5
2F3
330
17
100
AcDbEntity
  8
0
100
AcDbLine
 10
0.35051000000000004
 20
0.04412797046973471
 30
0.0
 11
0.35101000000000004
 21
0.04415943336995569
 31
0.0
  0
LINE
  5
2F4
330
17
100
AcDbEntity
  8
0
100
AcDbLine
 10
0.35101000000000004
 20
0.04415943336995569
 30
0.0
 11
0.35151000000000004
 21
0.044190873869310775
 31
0.0
  0
LINE
  5
2F5
330
17
100
AcDbEntity
  8
0
100
AcDbLine
 10
0.35151000000000004
 20
0.044190873869310775
 30
0.0
 11
0.35201000000000005
 21
0.04422229201557865
 31
0.0
  0
LINE
  5
2F6
330
17
100
AcDbEntity
  8
0
100
AcDbLine
 10
0.35201000000000005
 20
0.04422229201557865
 30
0.0
 11
0.35251000000000005
 21
0.044253687856368414
 31
0.0
  0
LINE
  5
2F7
330
17
100
AcDbEntity
  8
0
100
AcDbLine
 10
0.35251000000000005
 20
0.044253687856368414
 30
0.0
 11
0.35301000000000005
 21
0.044285061439120386
 31
0.0
  0
LINE
  5
2F8
330
17
100
AcDbEntity
  8
0
100
AcDbLine
 10
0.35301000000000005
 20
0.044285061439120386
 30
0.0
 11
0.35351000000000005
 21
0.04431641281110696
 31
0.0
  0
LINE
  5
2F9
330
17
100
AcDbEntity
  8
0
100
AcDbLine
 10
0.35351000000000005
 20
0.04431641281110696
 30
0.0
 11
0.35401000000000005
 21
0.04434774201943344
 31
0.0
  0
LINE
  5
2FA
330
17
100
AcDbEntity
  8
0
100
AcDbLine
 10
0.35401000000000005
 20
0.04434774201943344
 30
0.0
 11
0.35451000000000005
 21
0.044379049111038876
 31
0.0
  0
LINE
  5
2FB
330
17
100
AcDbEntity
  8
0
100
AcDbLine
 10
0.35451000000000005
 20
0.044379049111038876
 30
0.0
 11
0.35501000000000005
 21
0.04441033413269685
 31
0.0
  0
LINE
  5
2FC
330
17
100
AcDbEntity
  8
0
100
AcDbLine
 10
0.35501000000000005
 20
0.04441033413269685
 30
0.0
 11
0.35551000000000005
 21
0.0444415971310163
 31
0.0
  0
LINE
  5
2FD
330
17
100
AcDbEntity
  8
0
100
AcDbLine
 10
0.35551000000000005
 20
0.0444415971310163
 30
0.0
 11
0.35601000000000005
 21
0.04447283815244237
 31
0.0
  0
LINE
  5
2FE
330
17
100
AcDbEntity
  8
0
100
AcDbLine
 10
0.35601000000000005
 20
0.04447283815244237
 30
0.0
 11
0.35651000000000005
 21
0.04450405724325718
 31
0.0
  0
LINE
  5
2FF
330
17
100
AcDbEntity
  8
0
100
AcDbLine
 10
0.35651000000000005
 20
0.04450405724325718
 30
0.0
 11
0.35701000000000005
 21
0.044535254449580605
 31
0.0
  0
LINE
  5
300
330
17
100
AcDbEntity
  8
0
100
AcDbLine
 10
0.35701000000000005
 20
0.044535254449580605
 30
0.0
 11
0.35751000000000005
 21
0.044566429817371134
 31
0.0
  0
LINE
  5
301
330
17
100
AcDbEntity
  8
0
100
AcDbLine
 10
0.35751000000000005
 20
0.044566429817371134
 30
0.0
 11
0.35801000000000005
 21
0.0445975833924266
 31
0.0
  0
LINE
  5
302
330
17
100
AcDbEntity
  8
0
100
AcDbLine
 10
0.35801000000000005
 20
0.0445975833924266
 30
0.0
 11
0.35851000000000005
 21
0.04462871522038499
 31
0.0
  0
LINE
  5
303
330
17
100
AcDbEntity
  8
0
100
AcDbLine
 10
0.35851000000000005
 20
0.04462871522038499
 30
0.0
 11
0.35901000000000005
 21
0.04465982534672522
 31
0.0
  0
LINE
  5
304
330
17
100
AcDbEntity
  8
0
100
AcDbLine
 10
0.35901000000000005
 20
0.04465982534672522
 30
0.0
 11
0.35951000000000005
 21
0.04469091381676793
 31
0.0
  0
LINE
  5
305
330
17
100
AcDbEntity
  8
0
100
AcDbLine
 10
0.35951000000000005
 20
0.04469091381676793
 30
0.0
 11
0.36001000000000005
 21
0.044721980675676204
 31
0.0
  0
LINE
  5
306
330
17
100
AcDbEntity
  8
0
100
AcDbLine
 10
0.36001000000000005
 20
0.044721980675676204
 30
0.0
 11
0.36051000000000005
 21
0.044753025968456414
 31
0.0
  0
LINE
  5
307
330
17
100
AcDbEntity
  8
0
100
AcDbLine
 10
0.36051000000000005
 20
0.044753025968456414
 30
0.0
 11
0.36101000000000005
 21
0.044784049739958885
 31
0.0
  0
LINE
  5
308
330
17
100
AcDbEntity
  8
0
100
AcDbLine
 10
0.36101000000000005
 20
0.044784049739958885
 30
0.0
 11
0.36151000000000005
 21
0.04481505203487874
 31
0.0
  0
LINE
  5
309
330
17
100
AcDbEntity
  8
0
100
AcDbLine
 10
0.36151000000000005
 20
0.04481505203487874
 30
0.0
 11
0.36201000000000005
 21
0.0448460328977566
 31
0.0
  0
LINE
  5
30A
330
17
100
AcDbEntity
  8
0
100
AcDbLine
 10
0.36201000000000005
 20
0.0448460328977566
 30
0.0
 11
0.36251000000000005
 21
0.044876992372979325
 31
0.0
  0
LINE
  5
30B
330
17
100
AcDbEntity
  8
0
100
AcDbLine
 10
0.36251000000000005
 20
0.044876992372979325
 30
0.0
 11
0.36301000000000005
 21
0.04490793050478081
 31
0.0
  0
LINE
  5
30C
330
17
100
AcDbEntity
  8
0
100
AcDbLine
 10
0.36301000000000005
 20
0.04490793050478081
 30
0.0
 11
0.36351000000000006
 21
0.04493884733724265
 31
0.0
  0
LINE
  5
30D
330
17
100
AcDbEntity
  8
0
100
AcDbLine
 10
0.36351000000000006
 20
0.04493884733724265
 30
0.0
 11
0.36401000000000006
 21
0.044969742914294925
 31
0.0
  0
LINE
  5
30E
330
17
100
AcDbEntity
  8
0
100
AcDbLine
 10
0.36401000000000006
 20
0.044969742914294925
 30
0.0
 11
0.36451000000000006
 21
0.04500061727971691
 31
0.0
  0
LINE
  5
30F
330
17
100
AcDbEntity
  8
0
100
AcDbLine
 10
0.36451000000000006
 20
0.04500061727971691
 30
0.0
 11
0.36501000000000006
 21
0.045031470477137805
 31
0.0
  0
LINE
  5
310
330
17
100
AcDbEntity
  8
0
100
AcDbLine
 10
0.36501000000000006
 20
0.045031470477137805
 30
0.0
 11
0.36551000000000006
 21
0.04506230255003745
 31
0.0
  0
LINE
  5
311
330
17
100
AcDbEntity
  8
0
100
AcDbLine
 10
0.36551000000000006
 20
0.04506230255003745
 30
0.0
 11
0.36601000000000006
 21
0.045093113541747026
 31
0.0
  0
LINE
  5
312
330
17
100
AcDbEntity
  8
0
100
AcDbLine
 10
0.36601000000000006
 20
0.045093113541747026
 30
0.0
 11
0.36651
 21
0.045123903495449806
 31
0.0
  0
LINE
  5
313
330
17
100
AcDbEntity
  8
0
100
AcDbLine
 10
0.36651
 20
0.045123903495449806
 30
0.0
 11
0.36701
 21
0.0451546724541818
 31
0.0
  0
LINE
  5
314
330
17
100
AcDbEntity
  8
0
100
AcDbLine
 10
0.36701
 20
0.0451546724541818
 30
0.0
 11
0.36751
 21
0.04518542046083252
 31
0.0
  0
LINE
  5
315
330
17
100
AcDbEntity
  8
0
100
AcDbLine
 10
0.36751
 20
0.04518542046083252
 30
0.0
 11
0.36801
 21
0.045216147558145646
 31
0.0
  0
LINE
  5
316
330
17
100
AcDbEntity
  8
0
100
AcDbLine
 10
0.36801
 20
0.045216147558145646
 30
0.0
 11
0.36851
 21
0.0452468537887197
 31
0.0
  0
LINE
  5
317
330
17
100
AcDbEntity
  8
0
100
AcDbLine
 10
0.36851
 20
0.0452468537887197
 30
0.0
 11
0.36901
 21
0.04527753919500877
 31
0.0
  0
LINE
  5
318
330
17
100
AcDbEntity
  8
0
100
AcDbLine
 10
0.36901
 20
0.04527753919500877
 30
0.0
 11
0.36951
 21
0.0453082038193232
 31
0.0
  0
LINE
  5
319
330
17
100
AcDbEntity
  8
0
100
AcDbLine
 10
0.36951
 20
0.0453082038193232
 30
0.0
 11
0.37001
 21
0.045338847703830225
 31
0.0
  0
LINE
  5
31A
330
17
100
AcDbEntity
  8
0
100
AcDbLine
 10
0.37001
 20
0.045338847703830225
 30
0.0
 11
0.37051
 21
0.04536947089055468
 31
0.0
  0
LINE
  5
31B
330
17
100
AcDbEntity
  8
0
100
AcDbLine
 10
0.37051
 20
0.04536947089055468
 30
0.0
 11
0.37101
 21
0.045400073421379694
 31
0.0
  0
LINE
  5
31C
330
17
100
AcDbEntity
  8
0
100
AcDbLine
 10
0.37101
 20
0.045400073421379694
 30
0.0
 11
0.37151
 21
0.04543065533804729
 31
0.0
  0
LINE
  5
31D
330
17
100
AcDbEntity
  8
0
100
AcDbLine
 10
0.37151
 20
0.04543065533804729
 30
0.0
 11
0.37201
 21
0.04546121668215912
 31
0.0
  0
LINE
  5
31E
330
17
100
AcDbEntity
  8
0
100
AcDbLine
 10
0.37201
 20
0.04546121668215912
 30
0.0
 11
0.37251
 21
0.04549175749517708
 31
0.0
  0
LINE
  5
31F
330
17
100
AcDbEntity
  8
0
100
AcDbLine
 10
0.37251
 20
0.04549175749517708
 30
0.0
 11
0.37301
 21
0.045522277818424
 31
0.0
  0
LINE
  5
320
330
17
100
AcDbEntity
  8
0
100
AcDbLine
 10
0.37301
 20
0.045522277818424
 30
0.0
 11
0.37351
 21
0.04555277769308427
 31
0.0
  0
LINE
  5
321
330
17
100
AcDbEntity
  8
0
100
AcDbLine
 10
0.37351
 20
0.04555277769308427
 30
0.0
 11
0.37401
 21
0.045583257160204484
 31
0.0
  0
LINE
  5
322
330
17
100
AcDbEntity
  8
0
100
AcDbLine
 10
0.37401
 20
0.045583257160204484
 30
0.0
 11
0.37451
 21
0.045613716260694125
 31
0.0
  0
LINE
  5
323
330
17
100
AcDbEntity
  8
0
100
AcDbLine
 10
0.37451
 20
0.045613716260694125
 30
0.0
 11
0.37501
 21
0.045644155035326144
 31
0.0
  0
LINE
  5
324
330
17
100
AcDbEntity
  8
0
100
AcDbLine
 10
0.37501
 20
0.045644155035326144
 30
0.0
 11
0.37551
 21
0.045674573524737666
 31
0.0
  0
LINE
  5
325
330
17
100
AcDbEntity
  8
0
100
AcDbLine
 10
0.37551
 20
0.045674573524737666
 30
0.0
 11
0.37601
 21
0.04570497176943056
 31
0.0
  0
LINE
  5
326
330
17
100
AcDbEntity
  8
0
100
AcDbLine
 10
0.37601
 20
0.04570497176943056
 30
0.0
 11
0.37651
 21
0.04573534980977212
 31
0.0
  0
LINE
  5
327
330
17
100
AcDbEntity
  8
0
100
AcDbLine
 10
0.37651
 20
0.04573534980977212
 30
0.0
 11
0.37701
 21
0.04576570768599564
 31
0.0
  0
LINE
  5
328
330
17
100
AcDbEntity
  8
0
100
AcDbLine
 10
0.37701
 20
0.04576570768599564
 30
0.0
 11
0.37751
 21
0.04579604543820108
 31
0.0
  0
LINE
  5
329
330
17
100
AcDbEntity
  8
0
100
AcDbLine
 10
0.37751
 20
0.04579604543820108
 30
0.0
 11
0.37801
 21
0.04582636310635567
 31
0.0
  0
LINE
  5
32A
330
17
100
AcDbEntity
  8
0
100
AcDbLine
 10
0.37801
 20
0.04582636310635567
 30
0.0
 11
0.37851
 21
0.0458566607302945
 31
0.0
  0
LINE
  5
32B
330
17
100
AcDbEntity
  8
0
100
AcDbLine
 10
0.37851
 20
0.0458566607302945
 30
0.0
 11
0.37901
 21
0.04588693834972117
 31
0.0
  0
LINE
  5
32C
330
17
100
AcDbEntity
  8
0
100
AcDbLine
 10
0.37901
 20
0.04588693834972117
 30
0.0
 11
0.37951
 21
0.04591719600420837
 31
0.0
  0
LINE
  5
32D
330
17
100
AcDbEntity
  8
0
100
AcDbLine
 10
0.37951
 20
0.04591719600420837
 30
0.0
 11
0.38001
 21
0.0459474337331985
 31
0.0
  0
LINE
  5
32E
330
17
100
AcDbEntity
  8
0
100
AcDbLine
 10
0.38001
 20
0.0459474337331985
 30
0.0
 11
0.38051
 21
0.04597765157600423
 31
0.0
  0
LINE
  5
32F
330
17
100
AcDbEntity
  8
0
100
AcDbLine
 10
0.38051
 20
0.04597765157600423
 30
0.0
 11
0.38101
 21
0.04600784957180919
 31
0.0
  0
LINE
  5
330
330
17
100
AcDbEntity
  8
0
100
AcDbLine
 10
0.38101
 20
0.04600784957180919
 30
0.0
 11
0.38151
 21
0.04603802775966842
 31
0.0
  0
LINE
  5
331
330
17
100
AcDbEntity
  8
0
100
AcDbLine
 10
0.38151
 20
0.04603802775966842
 30
0.0
 11
0.38201
 21
0.046068186178509114
 31
0.0
  0
LINE
  5
332
330
17
100
AcDbEntity
  8
0
100
AcDbLine
 10
0.38201
 20
0.046068186178509114
 30
0.0
 11
0.38251
 21
0.046098324867131085
 31
0.0
  0
LINE
  5
333
330
17
100
AcDbEntity
  8
0
100
AcDbLine
 10
0.38251
 20
0.046098324867131085
 30
0.0
 11
0.38301
 21
0.0461284438642074
 31
0.0
  0
LINE
  5
334
330
17
100
AcDbEntity
  8
0
100
AcDbLine
 10
0.38301
 20
0.0461284438642074
 30
0.0
 11
0.38351
 21
0.046158543208284976
 31
0.0
  0
LINE
  5
335
330
17
100
AcDbEntity
  8
0
100
AcDbLine
 10
0.38351
 20
0.046158543208284976
 30
0.0
 11
0.38401
 21
0.04618862293778511
 31
0.0
  0
LINE
  5
336
330
17
100
AcDbEntity
  8
0
100
AcDbLine
 10
0.38401
 20
0.04618862293778511
 30
0.0
 11
0.38451
 21
0.04621868309100408
 31
0.0
  0
LINE
  5
337
330
17
100
AcDbEntity
  8
0
100
AcDbLine
 10
0.38451
 20
0.04621868309100408
 30
0.0
 11
0.38501
 21
0.046248723706113715
 31
0.0
  0
LINE
  5
338
330
17
100
AcDbEntity
  8
0
100
AcDbLine
 10
0.38501
 20
0.046248723706113715
 30
0.0
 11
0.38551
 21
0.046278744821161934
 31
0.0
  0
LINE
  5
339
330
17
100
AcDbEntity
  8
0
100
AcDbLine
 10
0.38551
 20
0.046278744821161934
 30
0.0
 11
0.38601
 21
0.04630874647407335
 31
0.0
  0
LINE
  5
33A
330
17
100
AcDbEntity
  8
0
100
AcDbLine
 10
0.38601
 20
0.04630874647407335
 30
0.0
 11
0.38651
 21
0.046338728702649774
 31
0.0
  0
LINE
  5
33B
330
17
100
AcDbEntity
  8
0
100
AcDbLine
 10
0.38651
 20
0.046338728702649774
 30
0.0
 11
0.38701
 21
0.04636869154457085
 31
0.0
  0
LINE
  5
33C
330
17
100
AcDbEntity
  8
0
100
AcDbLine
 10
0.38701
 20
0.04636869154457085
 30
0.0
 11
0.38751
 21
0.04639863503739451
 31
0.0
  0
LINE
  5
33D
330
17
100
AcDbEntity
  8
0
100
AcDbLine
 10
0.38751
 20
0.04639863503739451
 30
0.0
 11
0.38801
 21
0.04642855921855762
 31
0.0
  0
LINE
  5
33E
330
17
100
AcDbEntity
  8
0
100
AcDbLine
 10
0.38801
 20
0.04642855921855762
 30
0.0
 11
0.38851
 21
0.046458464125376436
 31
0.0
  0
LINE
  5
33F
330
17
100
AcDbEntity
  8
0
100
AcDbLine
 10
0.38851
 20
0.046458464125376436
 30
0.0
 11
0.38901
 21
0.04648834979504722
 31
0.0
  0
LINE
  5
340
330
17
100
AcDbEntity
  8
0
100
AcDbLine
 10
0.38901
 20
0.04648834979504722
 30
0.0
 11
0.38951
 21
0.04651821626464674
 31
0.0
  0
LINE
  5
341
330
17
100
AcDbEntity
  8
0
100
AcDbLine
 10
0.38951
 20
0.04651821626464674
 30
0.0
 11
0.39001
 21
0.04654806357113282
 31
0.0
  0
LINE
  5
342
330
17
100
AcDbEntity
  8
0
100
AcDbLine
 10
0.39001
 20
0.04654806357113282
 30
0.0
 11
0.39051
 21
0.046577891751344865
 31
0.0
  0
LINE
  5
343
330
17
100
AcDbEntity
  8
0
100
AcDbLine
 10
0.39051
 20
0.046577891751344865
 30
0.0
 11
0.39101
 21
0.046607700842004406
 31
0.0
  0
LINE
  5
344
330
17
100
AcDbEntity
  8
0
100
AcDbLine
 10
0.39101
 20
0.046607700842004406
 30
0.0
 11
0.39151
 21
0.0466374908797156
 31
0.0
  0
LINE
  5
345
330
17
100
AcDbEntity
  8
0
100
AcDbLine
 10
0.39151
 20
0.0466374908797156
 30
0.0
 11
0.39201
 21
0.04666726190096579
 31
0.0
  0
LINE
  5
346
330
17
100
AcDbEntity
  8
0
100
AcDbLine
 10
0.39201
 20
0.04666726190096579
 30
0.0
 11
0.39251
 21
0.04669701394212602
 31
0.0
  0
LINE
  5
347
330
17
100
AcDbEntity
  8
0
100
AcDbLine
 10
0.39251
 20
0.04669701394212602
 30
0.0
 11
0.39301
 21
0.0467267470394515
 31
0.0
  0
LINE
  5
348
330
17
100
AcDbEntity
  8
0
100
AcDbLine
 10
0.39301
 20
0.0467267470394515
 30
0.0
 11
0.39351
 21
0.0467564612290822
 31
0.0
  0
LINE
  5
349
330
17
100
AcDbEntity
  8
0
100
AcDbLine
 10
0.39351
 20
0.0467564612290822
 30
0.0
 11
0.39401
 21
0.04678615654704332
 31
0.0
  0
LINE
  5
34A
330
17
100
AcDbEntity
  8
0
100
AcDbLine
 10
0.39401
 20
0.04678615654704332
 30
0.0
 11
0.39451
 21
0.04681583302924581
 31
0.0
  0
LINE
  5
34B
330
17
100
AcDbEntity
  8
0
100
AcDbLine
 10
0.39451
 20
0.04681583302924581
 30
0.0
 11
0.39501000000000003
 21
0.046845490711486845
 31
0.0
  0
LINE
  5
34C
330
17
100
AcDbEntity
  8
0
100
AcDbLine
 10
0.39501000000000003
 20
0.046845490711486845
 30
0.0
 11
0.39551000000000003
 21
0.046875129629450396
 31
0.0
  0
LINE
  5
34D
330
17
100
AcDbEntity
  8
0
100
AcDbLine
 10
0.39551000000000003
 20
0.046875129629450396
 30
0.0
 11
0.39601000000000003
 21
0.04690474981870765
 31
0.0
  0
LINE
  5
34E
330
17
100
AcDbEntity
  8
0
100
AcDbLine
 10
0.39601000000000003
 20
0.04690474981870765
 30
0.0
 11
0.39651000000000003
 21
0.0469343513147176
 31
0.0
  0
LINE
  5
34F
330
17
100
AcDbEntity
  8
0
100
AcDbLine
 10
0.39651000000000003
 20
0.0469343513147176
 30
0.0
 11
0.39701000000000003
 21
0.04696393415282744
 31
0.0
  0
LINE
  5
350
330
17
100
AcDbEntity
  8
0
100
AcDbLine
 10
0.39701000000000003
 20
0.04696393415282744
 30
0.0
 11
0.39751000000000003
 21
0.04699349836827313
 31
0.0
  0
LINE
  5
351
330
17
100
AcDbEntity
  8
0
100
AcDbLine
 10
0.39751000000000003
 20
0.04699349836827313
 30
0.0
 11
0.39801000000000003
 21
0.04702304399617986
 31
0.0
  0
LINE
  5
352
330
17
100
AcDbEntity
  8
0
100
AcDbLine
 10
0.39801000000000003
 20
0.04702304399617986
 30
0.0
 11
0.39851000000000003
 21
0.04705257107156255
 31
0.0
  0
LINE
  5
353
330
17
100
AcDbEntity
  8
0
100
AcDbLine
 10
0.39851000000000003
 20
0.04705257107156255
 30
0.0
 11
0.39901000000000003
 21
0.047082079629326305
 31
0.0
  0
LINE
  5
354
330
17
100
AcDbEntity
  8
0
100
AcDbLine
 10
0.39901000000000003
 20
0.047082079629326305
 30
0.0
 11
0.39951000000000003
 21
0.047111569704266915
 31
0.0
  0
LINE
  5
355
330
17
100
AcDbEntity
  8
0
100
AcDbLine
 10
0.39951000000000003
 20
0.047111569704266915
 30
0.0
 11
0.40001000000000003
 21
0.04714104133107136
 31
0.0
  0
LINE
  5
356
330
17
100
AcDbEntity
  8
0
100
AcDbLine
 10
0.40001000000000003
 20
0.04714104133107136
 30
0.0
 11
0.40051000000000003
 21
0.04717049454431823
 31
0.0
  0
LINE
  5
357
330
17
100
AcDbEntity
  8
0
100
AcDbLine
 10
0.40051000000000003
 20
0.04717049454431823
 30
0.0
 11
0.40101000000000003
 21
0.04719992937847824
 31
0.0
  0
LINE
  5
358
330
17
100
AcDbEntity
  8
0
100
AcDbLine
 10
0.40101000000000003
 20
0.04719992937847824
 30
0.0
 11
0.40151000000000003
 21
0.047229345867914704
 31
0.0
  0
LINE
  5
359
330
17
100
AcDbEntity
  8
0
100
AcDbLine
 10
0.40151000000000003
 20
0.047229345867914704
 30
0.0
 11
0.40201000000000003
 21
0.04725874404688395
 31
0.0
  0
LINE
  5
35A
330
17
100
AcDbEntity
  8
0
100
AcDbLine
 10
0.40201000000000003
 20
0.04725874404688395
 30
0.0
 11
0.40251000000000003
 21
0.04728812394953586
 31
0.0
  0
LINE
  5
35B
330
17
100
AcDbEntity
  8
0
100
AcDbLine
 10
0.40251000000000003
 20
0.04728812394953586
 30
0.0
 11
0.40301000000000003
 21
0.04731748560991428
 31
0.0
  0
LINE
  5
35C
330
17
100
AcDbEntity
  8
0
100
AcDbLine
 10
0.40301000000000003
 20
0.04731748560991428
 30
0.0
 11
0.40351000000000004
 21
0.047346829061957495
 31
0.0
  0
LINE
  5
35D
330
17
100
AcDbEntity
  8
0
100
AcDbLine
 10
0.40351000000000004
 20
0.047346829061957495
 30
0.0
 11
0.40401000000000004
 21
0.04737615433949868
 31
0.0
  0
LINE
  5
35E
330
17
100
AcDbEntity
  8
0
100
AcDbLine
 10
0.40401000000000004
 20
0.04737615433949868
 30
0.0
 11
0.40451000000000004
 21
0.047405461476266404
 31
0.0
  0
LINE
  5
35F
330
17
100
AcDbEntity
  8
0
100
AcDbLine
 10
0.40451000000000004
 20
0.047405461476266404
 30
0.0
 11
0.40501000000000004
 21
0.047434750505884984
 31
0.0
  0
LINE
  5
360
330
17
100
AcDbEntity
  8
0
100
AcDbLine
 10
0.40501000000000004
 20
0.047434750505884984
 30
0.0
 11
0.40551000000000004
 21
0.04746402146187503
 31
0.0
  0
LINE
  5
361
330
17
100
AcDbEntity
  8
0
100
AcDbLine
 10
0.40551000000000004
 20
0.04746402146187503
 30
0.0
 11
0.40601000000000004
 21
0.04749327437765385
 31
0.0
  0
LINE
  5
362
330
17
100
AcDbEntity
  8
0
100
AcDbLine
 10
0.40601000000000004
 20
0.04749327437765385
 30
0.0
 11
0.40651000000000004
 21
0.04752250928653588
 31
0.0
  0
LINE
  5
363
330
17
100
AcDbEntity
  8
0
100
AcDbLine
 10
0.40651000000000004
 20
0.04752250928653588
 30
0.0
 11
0.40701000000000004
 21
0.04755172622173318
 31
0.0
  0
LINE
  5
364
330
17
100
AcDbEntity
  8
0
100
AcDbLine
 10
0.40701000000000004
 20
0.04755172622173318
 30
0.0
 11
0.40751000000000004
 21
0.04758092521635582
 31
0.0
  0
LINE
  5
365
330
17
100
AcDbEntity
  8
0
100
AcDbLine
 10
0.40751000000000004
 20
0.04758092521635582
 30
0.0
 11
0.40801000000000004
 21
0.047610106303412336
 31
0.0
  0
LINE
  5
366
330
17
100
AcDbEntity
  8
0
100
AcDbLine
 10
0.40801000000000004
 20
0.047610106303412336
 30
0.0
 11
0.40851000000000004
 21
0.04763926951581017
 31
0.0
  0
LINE
  5
367
330
17
100
AcDbEntity
  8
0
100
AcDbLine
 10
0.40851000000000004
 20
0.04763926951581017
 30
0.0
 11
0.40901000000000004
 21
0.04766841488635613
 31
0.0
  0
LINE
  5
368
330
17
100
AcDbEntity
  8
0
100
AcDbLine
 10
0.40901000000000004
 20
0.04766841488635613
 30
0.0
 11
0.40951000000000004
 21
0.04769754244775674
 31
0.0
  0
LINE
  5
369
330
17
100
AcDbEntity
  8
0
100
AcDbLine
 10
0.40951000000000004
 20
0.04769754244775674
 30
0.0
 11
0.41001000000000004
 21
0.047726652232618766
 31
0.0
  0
LINE
  5
36A
330
17
100
AcDbEntity
  8
0
100
AcDbLine
 10
0.41001000000000004
 20
0.047726652232618766
 30
0.0
 11
0.41051000000000004
 21
0.04775574427344957
 31
0.0
  0
LINE
  5
36B
330
17
100
AcDbEntity
  8
0
100
AcDbLine
 10
0.41051000000000004
 20
0.04775574427344957
 30
0.0
 11
0.41101000000000004
 21
0.04778481860265757
 31
0.0
  0
LINE
  5
36C
330
17
100
AcDbEntity
  8
0
100
AcDbLine
 10
0.41101000000000004
 20
0.04778481860265757
 30
0.0
 11
0.41151000000000004
 21
0.04781387525255265
 31
0.0
  0
LINE
  5
36D
330
17
100
AcDbEntity
  8
0
100
AcDbLine
 10
0.41151000000000004
 20
0.04781387525255265
 30
0.0
 11
0.41201000000000004
 21
0.04784291425534658
 31
0.0
  0
LINE
  5
36E
330
17
100
AcDbEntity
  8
0
100
AcDbLine
 10
0.41201000000000004
 20
0.04784291425534658
 30
0.0
 11
0.41251000000000004
 21
0.047871935643153424
 31
0.0
  0
LINE
  5
36F
330
17
100
AcDbEntity
  8
0
100
AcDbLine
 10
0.41251000000000004
 20
0.047871935643153424
 30
0.0
 11
0.41301000000000004
 21
0.047900939447989954
 31
0.0
  0
LINE
  5
370
330
17
100
AcDbEntity
  8
0
100
AcDbLine
 10
0.41301000000000004
 20
0.047900939447989954
 30
0.0
 11
0.41351000000000004
 21
0.047929925701776115
 31
0.0
  0
LINE
  5
371
330
17
100
AcDbEntity
  8
0
100
AcDbLine
 10
0.41351000000000004
 20
0.047929925701776115
 30
0.0
 11
0.41401000000000004
 21
0.04795889443633533
 31
0.0
  0
LINE
  5
372
330
17
100
AcDbEntity
  8
0
100
AcDbLine
 10
0.41401000000000004
 20
0.04795889443633533
 30
0.0
 11
0.41451000000000005
 21
0.047987845683395015
 31
0.0
  0
LINE
  5
373
330
17
100
AcDbEntity
  8
0
100
AcDbLine
 10
0.41451000000000005
 20
0.047987845683395015
 30
0.0
 11
0.41501000000000005
 21
0.04801677947458692
 31
0.0
  0
LINE
  5
374
330
17
100
AcDbEntity
  8
0
100
AcDbLine
 10
0.41501000000000005
 20
0.04801677947458692
 30
0.0
 11
0.41551000000000005
 21
0.048045695841447536
 31
0.0
  0
LINE
  5
375
330
17
100
AcDbEntity
  8
0
100
AcDbLine
 10
0.41551000000000005
 20
0.048045695841447536
 30
0.0
 11
0.41601000000000005
 21
0.048074594815418537
 31
0.0
  0
LINE
  5
376
330
17
100
AcDbEntity
  8
0
100
AcDbLine
 10
0.41601000000000005
 20
0.048074594815418537
 30
0.0
 11
0.41651000000000005
 21
0.04810347642784713
 31
0.0
  0
LINE
  5
377
330
17
100
AcDbEntity
  8
0
100
AcDbLine
 10
0.41651000000000005
 20
0.04810347642784713
 30
0.0
 11
0.41701000000000005
 21
0.04813234070998649
 31
0.0
  0
LINE
  5
378
330
17
100
AcDbEntity
  8
0
100
AcDbLine
 10
0.41701000000000005
 20
0.04813234070998649
 30
0.0
 11
0.41751000000000005
 21
0.04816118769299611
 31
0.0
  0
LINE
  5
379
330
17
100
AcDbEntity
  8
0
100
AcDbLine
 10
0.41751000000000005
 20
0.04816118769299611
 30
0.0
 11
0.41801000000000005
 21
0.048190017407942265
 31
0.0
  0
LINE
  5
37A
330
17
100
AcDbEntity
  8
0
100
AcDbLine
 10
0.41801000000000005
 20
0.048190017407942265
 30
0.0
 11
0.41851000000000005
 21
0.04821882988579831
 31
0.0
  0
LINE
  5
37B
330
17
100
AcDbEntity
  8
0
100
AcDbLine
 10
0.41851000000000005
 20
0.04821882988579831
 30
0.0
 11
0.41901000000000005
 21
0.04824762515744515
 31
0.0
  0
LINE
  5
37C
330
17
100
AcDbEntity
  8
0
100
AcDbLine
 10
0.41901000000000005
 20
0.04824762515744515
 30
0.0
 11
0.41951000000000005
 21
0.04827640325367158
 31
0.0
  0
LINE
  5
37D
330
17
100
AcDbEntity
  8
0
100
AcDbLine
 10
0.41951000000000005
 20
0.04827640325367158
 30
0.0
 11
0.42001000000000005
 21
0.04830516420517468
 31
0.0
  0
LINE
  5
37E
330
17
100
AcDbEntity
  8
0
100
AcDbLine
 10
0.42001000000000005
 20
0.04830516420517468
 30
0.0
 11
0.42051000000000005
 21
0.048333908042560214
 31
0.0
  0
LINE
  5
37F
330
17
100
AcDbEntity
  8
0
100
AcDbLine
 10
0.42051000000000005
 20
0.048333908042560214
 30
0.0
 11
0.42101000000000005
 21
0.04836263479634298
 31
0.0
  0
LINE
  5
380
330
17
100
AcDbEntity
  8
0
100
AcDbLine
 10
0.42101000000000005
 20
0.04836263479634298
 30
0.0
 11
0.42151000000000005
 21
0.04839134449694721
 31
0.0
  0
LINE
  5
381
330
17
100
AcDbEntity
  8
0
100
AcDbLine
 10
0.42151000000000005
 20
0.04839134449694721
 30
0.0
 11
0.42201000000000005
 21
0.04842003717470692
 31
0.0
  0
LINE
  5
382
330
17
100
AcDbEntity
  8
0
100
AcDbLine
 10
0.42201000000000005
 20
0.04842003717470692
 30
0.0
 11
0.42251000000000005
 21
0.04844871285986634
 31
0.0
  0
LINE
  5
383
330
17
100
AcDbEntity
  8
0
100
AcDbLine
 10
0.42251000000000005
 20
0.04844871285986634
 30
0.0
 11
0.42301000000000005
 21
0.04847737158258022
 31
0.0
  0
LINE
  5
384
330
17
100
AcDbEntity
  8
0
100
AcDbLine
 10
0.42301000000000005
 20
0.04847737158258022
 30
0.0
 11
0.42351000000000005
 21
0.04850601337291423
 31
0.0
  0
LINE
  5
385
330
17
100
AcDbEntity
  8
0
100
AcDbLine
 10
0.42351000000000005
 20
0.04850601337291423
 30
0.0
 11
0.42401000000000005
 21
0.048534638260845336
 31
0.0
  0
LINE
  5
386
330
17
100
AcDbEntity
  8
0
100
AcDbLine
 10
0.42401000000000005
 20
0.048534638260845336
 30
0.0
 11
0.42451000000000005
 21
0.04856324627626215
 31
0.0
  0
LINE
  5
387
330
17
100
AcDbEntity
  8
0
100
AcDbLine
 10
0.42451000000000005
 20
0.04856324627626215
 30
0.0
 11
0.42501000000000005
 21
0.04859183744896531
 31
0.0
  0
LINE
  5
388
330
17
100
AcDbEntity
  8
0
100
AcDbLine
 10
0.42501000000000005
 20
0.04859183744896531
 30
0.0
 11
0.42551000000000005
 21
0.048620411808667816
 31
0.0
  0
LINE
  5
389
330
17
100
AcDbEntity
  8
0
100
AcDbLine
 10
0.42551000000000005
 20
0.048620411808667816
 30
0.0
 11
0.42601000000000006
 21
0.04864896938499543
 31
0.0
  0
LINE
  5
38A
330
17
100
AcDbEntity
  8
0
100
AcDbLine
 10
0.42601000000000006
 20
0.04864896938499543
 30
0.0
 11
0.42651000000000006
 21
0.04867751020748699
 31
0.0
  0
LINE
  5
38B
330
17
100
AcDbEntity
  8
0
100
AcDbLine
 10
0.42651000000000006
 20
0.04867751020748699
 30
0.0
 11
0.42701000000000006
 21
0.04870603430559481
 31
0.0
  0
LINE
  5
38C
330
17
100
AcDbEntity
  8
0
100
AcDbLine
 10
0.42701000000000006
 20
0.04870603430559481
 30
0.0
 11
0.42751000000000006
 21
0.048734541708684985
 31
0.0
  0
LINE
  5
38D
330
17
100
AcDbEntity
  8
0
100
AcDbLine
 10
0.42751000000000006
 20
0.048734541708684985
 30
0.0
 11
0.42801000000000006
 21
0.04876303244603778
 31
0.0
  0
LINE
  5
38E
330
17
100
AcDbEntity
  8
0
100
AcDbLine
 10
0.42801000000000006
 20
0.04876303244603778
 30
0.0
 11
0.42851000000000006
 21
0.048791506546848
 31
0.0
  0
LINE
  5
38F
330
17
100
AcDbEntity
  8
0
100
AcDbLine
 10
0.42851000000000006
 20
0.048791506546848
 30
0.0
 11
0.42901000000000006
 21
0.04881996404022528
 31
0.0
  0
LINE
  5
390
330
17
100
AcDbEntity
  8
0
100
AcDbLine
 10
0.42901000000000006
 20
0.04881996404022528
 30
0.0
 11
0.42951000000000006
 21
0.04884840495519446
 31
0.0
  0
LINE
  5
391
330
17
100
AcDbEntity
  8
0
100
AcDbLine
 10
0.42951000000000006
 20
0.04884840495519446
 30
0.0
 11
0.43001000000000006
 21
0.048876829320695966
 31
0.0
  0
LINE
  5
392
330
17
100
AcDbEntity
  8
0
100
AcDbLine
 10
0.43001000000000006
 20
0.048876829320695966
 30
0.0
 11
0.43051000000000006
 21
0.04890523716558609
 31
0.0
  0
LINE
  5
393
330
17
100
AcDbEntity
  8
0
100
AcDbLine
 10
0.43051000000000006
 20
0.04890523716558609
 30
0.0
 11
0.43101000000000006
 21
0.04893362851863737
 31
0.0
  0
LINE
  5
394
330
17
100
AcDbEntity
  8
0
100
AcDbLine
 10
0.43101000000000006
 20
0.04893362851863737
 30
0.0
 11
0.43151000000000006
 21
0.048962003408538936
 31
0.0
  0
LINE
  5
395
330
17
100
AcDbEntity
  8
0
100
AcDbLine
 10
0.43151000000000006
 20
0.048962003408538936
 30
0.0
 11
0.43201000000000006
 21
0.048990361863896825
 31
0.0
  0
LINE
  5
396
330
17
100
AcDbEntity
  8
0
100
AcDbLine
 10
0.43201000000000006
 20
0.048990361863896825
 30
0.0
 11
0.43251000000000006
 21
0.04901870391323432
 31
0.0
  0
LINE
  5
397
330
17
100
AcDbEntity
  8
0
100
AcDbLine
 10
0.43251000000000006
 20
0.04901870391323432
 30
0.0
 11
0.43301000000000006
 21
0.04904702958499232
 31
0.0
  0
LINE
  5
398
330
17
100
AcDbEntity
  8
0
100
AcDbLine
 10
0.43301000000000006
 20
0.04904702958499232
 30
0.0
 11
0.43351000000000006
 21
0.0490753389075296
 31
0.0
  0
LINE
  5
399
330
17
100
AcDbEntity
  8
0
100
AcDbLine
 10
0.43351000000000006
 20
0.0490753389075296
 30
0.0
 11
0.43401000000000006
 21
0.04910363190912326
 31
0.0
  0
LINE
  5
39A
330
17
100
AcDbEntity
  8
0
100
AcDbLine
 10
0.43401000000000006
 20
0.04910363190912326
 30
0.0
 11
0.43451000000000006
 21
0.04913190861796888
 31
0.0
  0
LINE
  5
39B
330
17
100
AcDbEntity
  8
0
100
AcDbLine
 10
0.43451000000000006
 20
0.04913190861796888
 30
0.0
 11
0.43501000000000006
 21
0.04916016906218105
 31
0.0
  0
LINE
  5
39C
330
17
100
AcDbEntity
  8
0
100
AcDbLine
 10
0.43501000000000006
 20
0.04916016906218105
 30
0.0
 11
0.43551
 21
0.049188413269793535
 31
0.0
  0
LINE
  5
39D
330
17
100
AcDbEntity
  8
0
100
AcDbLine
 10
0.43551
 20
0.049188413269793535
 30
0.0
 11
0.43601
 21
0.04921664126875967
 31
0.0
  0
LINE
  5
39E
330
17
100
AcDbEntity
  8
0
100
AcDbLine
 10
0.43601
 20
0.04921664126875967
 30
0.0
 11
0.43651
 21
0.04924485308695271
 31
0.0
  0
LINE
  5
39F
330
17
100
AcDbEntity
  8
0
100
AcDbLine
 10
0.43651
 20
0.04924485308695271
 30
0.0
 11
0.43701
 21
0.049273048752166065
 31
0.0
  0
LINE
  5
3A0
330
17
100
AcDbEntity
  8
0
100
AcDbLine
 10
0.43701
 20
0.049273048752166065
 30
0.0
 11
0.43751
 21
0.04930122829211369
 31
0.0
  0
LINE
  5
3A1
330
17
100
AcDbEntity
  8
0
100
AcDbLine
 10
0.43751
 20
0.04930122829211369
 30
0.0
 11
0.43801
 21
0.049329391734430385
 31
0.0
  0
LINE
  5
3A2
330
17
100
AcDbEntity
  8
0
100
AcDbLine
 10
0.43801
 20
0.049329391734430385
 30
0.0
 11
0.43851
 21
0.049357539106672114
 31
0.0
  0
LINE
  5
3A3
330
17
100
AcDbEntity
  8
0
100
AcDbLine
 10
0.43851
 20
0.049357539106672114
 30
0.0
 11
0.43901
 21
0.04938567043631629
 31
0.0
  0
LINE
  5
3A4
330
17
100
AcDbEntity
  8
0
100
AcDbLine
 10
0.43901
 20
0.04938567043631629
 30
0.0
 11
0.43951
 21
0.049413785750762135
 31
0.0
  0
LINE
  5
3A5
330
17
100
AcDbEntity
  8
0
100
AcDbLine
 10
0.43951
 20
0.049413785750762135
 30
0.0
 11
0.44001
 21
0.049441885077330945
 31
0.0
  0
LINE
  5
3A6
330
17
100
AcDbEntity
  8
0
100
AcDbLine
 10
0.44001
 20
0.049441885077330945
 30
0.0
 11
0.44051
 21
0.04946996844326645
 31
0.0
  0
LINE
  5
3A7
330
17
100
AcDbEntity
  8
0
100
AcDbLine
 10
0.44051
 20
0.04946996844326645
 30
0.0
 11
0.44101
 21
0.049498035875735064
 31
0.0
  0
LINE
  5
3A8
330
17
100
AcDbEntity
  8
0
100
AcDbLine
 10
0.44101
 20
0.049498035875735064
 30
0.0
 11
0.44151
 21
0.049526087401826256
 31
0.0
  0
LINE
  5
3A9
330
17
100
AcDbEntity
  8
0
100
AcDbLine
 10
0.44151
 20
0.049526087401826256
 30
0.0
 11
0.44201
 21
0.0495541230485528
 31
0.0
  0
LINE
  5
3AA
330
17
100
AcDbEntity
  8
0
100
AcDbLine
 10
0.44201
 20
0.0495541230485528
 30
0.0
 11
0.44251
 21
0.04958214284285109
 31
0.0
  0
LINE
  5
3AB
330
17
100
AcDbEntity
  8
0
100
AcDbLine
 10
0.44251
 20
0.04958214284285109
 30
0.0
 11
0.44301
 21
0.04961014681158147
 31
0.0
  0
LINE
  5
3AC
330
17
100
AcDbEntity
  8
0
100
AcDbLine
 10
0.44301
 20
0.04961014681158147
 30
0.0
 11
0.44351
 21
0.04963813498152851
 31
0.0
  0
LINE
  5
3AD
330
17
100
AcDbEntity
  8
0
100
AcDbLine
 10
0.44351
 20
0.04963813498152851
 30
0.0
 11
0.44401
 21
0.049666107379401324
 31
0.0
  0
LINE
  5
3AE
330
17
100
AcDbEntity
  8
0
100
AcDbLine
 10
0.44401
 20
0.049666107379401324
 30
0.0
 11
0.44451
 21
0.04969406403183382
 31
0.0
  0
LINE
  5
3AF
330
17
100
AcDbEntity
  8
0
100
AcDbLine
 10
0.44451
 20
0.04969406403183382
 30
0.0
 11
0.44501
 21
0.04972200496538507
 31
0.0
  0
LINE
  5
3B0
330
17
100
AcDbEntity
  8
0
100
AcDbLine
 10
0.44501
 20
0.04972200496538507
 30
0.0
 11
0.44551
 21
0.04974993020653955
 31
0.0
  0
LINE
  5
3B1
330
17
100
AcDbEntity
  8
0
100
AcDbLine
 10
0.44551
 20
0.04974993020653955
 30
0.0
 11
0.44601
 21
0.04977783978170742
 31
0.0
  0
LINE
  5
3B2
330
17
100
AcDbEntity
  8
0
100
AcDbLine
 10
0.44601
 20
0.04977783978170742
 30
0.0
 11
0.44651
 21
0.04980573371722488
 31
0.0
  0
LINE
  5
3B3
330
17
100
AcDbEntity
  8
0
100
AcDbLine
 10
0.44651
 20
0.04980573371722488
 30
0.0
 11
0.44701
 21
0.04983361203935441
 31
0.0
  0
LINE
  5
3B4
330
17
100
AcDbEntity
  8
0
100
AcDbLine
 10
0.44701
 20
0.04983361203935441
 30
0.0
 11
0.44751
 21
0.049861474774285076
 31
0.0
  0
LINE
  5
3B5
330
17
100
AcDbEntity
  8
0
100
AcDbLine
 10
0.44751
 20
0.049861474774285076
 30
0.0
 11
0.44801
 21
0.049889321948132795
 31
0.0
  0
LINE
  5
3B6
330
17
100
AcDbEntity
  8
0
100
AcDbLine
 10
0.44801
 20
0.049889321948132795
 30
0.0
 11
0.44851
 21
0.049917153586940655
 31
0.0
  0
LINE
  5
3B7
330
17
100
AcDbEntity
  8
0
100
AcDbLine
 10
0.44851
 20
0.049917153586940655
 30
0.0
 11
0.44901
 21
0.04994496971667918
 31
0.0
  0
LINE
  5
3B8
330
17
100
AcDbEntity
  8
0
100
AcDbLine
 10
0.44901
 20
0.04994496971667918
 30
0.0
 11
0.44951
 21
0.0499727703632466
 31
0.0
  0
ENDSEC
  0
SECTION
  2
OBJECTS
  0
DICTIONARY
  5
A
330
0
100
AcDbDictionary
281
1
  3
ACAD_COLOR
350
B
  3
ACAD_GROUP
350
C
  3
ACAD_LAYOUT
350
D
  3
ACAD_MATERIAL
350
E
  3
ACAD_MLEADERSTYLE
350
F
  3
ACAD_MLINESTYLE
350
10
  3
ACAD_PLOTSETTINGS
350
11
  3
ACAD_PLOTSTYLENAME
350
12
  3
ACAD_SCALELIST
350
14
  3
ACAD_TABLESTYLE
350
15
  3
ACAD_VISUALSTYLE
350
16
  3
EZDXF_META
350
2D
  0
DICTIONARY
  5
B
330
A
100
AcDbDictionary
281
1
  0
DICTIONARY
  5
C
330
A
100
AcDbDictionary
281
1
  0
DICTIONARY
  5
D
330
A
100
AcDbDictionary
281
1
  3
Model
350
1A
  3
Layout1
350
1E
  0
DICTIONARY
  5
E
330
A
100
AcDbDictionary
281
1
  3
ByBlock
350
1F
  3
ByLayer
350
20
  3
Global
350
21
  0
DICTIONARY
  5
F
330
A
100
AcDbDictionary
281
1
  3
Standard
350
2C
  0
DICTIONARY
  5
10
330
A
100
AcDbDictionary
281
1
  3
Standard
350
22
  0
DICTIONARY
  5
11
330
A
100
AcDbDictionary
281
1
  0
ACDBDICTIONARYWDFLT
  5
12
330
A
100
AcDbDictionary
281
1
  3
Normal
350
13
100
AcDbDictionaryWithDefault
340
13
  0
ACDBPLACEHOLDER
  5
13
330
12
  0
DICTIONARY
  5
14
330
A
100
AcDbDictionary
281
1
  0
DICTIONARY
  5
15
330
A
100
AcDbDictionary
281
1
  0
DICTIONARY
  5
16
330
A
100
AcDbDictionary
281
1
  0
LAYOUT
  5
1A
330
D
100
AcDbPlotSettings
  1

  2
Adobe PDF
  4
A3
  6

 40
7.5
 41
20.0
 42
7.5
 43
20.0
 44
420.0
 45
297.0
 46
0.0
 47
0.0
 48
0.0
 49
0.0
140
0.0
141
0.0
142
1.0
143
1.0
 70
1024
 72
1
 73
1
 74
5
  7

 75
16
 76
0
 77
2
 78
300
147
1.0
148
0.0
149
0.0
100
AcDbLayout
  1
Model
 70
1
 71
0
 10
0.0
 20
0.0
 11
420.0
 21
297.0
 12
0.0
 22
0.0
 32
0.0
 14
1e+20
 24
1e+20
 34
1e+20
 15
-1e+20
 25
-1e+20
 35
-1e+20
146
0.0
 13
0.0
 23
0.0
 33
0.0
 16
1.0
 26
0.0
 36
0.0
 17
0.0
 27
1.0
 37
0.0
 76
1
330
17
  0
LAYOUT
  5
1E
330
D
100
AcDbPlotSettings
  1

  2
Adobe PDF
  4
A3
  6

 40
7.5
 41
20.0
 42
7.5
 43
20.0
 44
420.0
 45
297.0
 46
0.0
 47
0.0
 48
0.0
 49
0.0
140
0.0
141
0.0
142
1.0
143
1.0
 70
0
 72
1
 73
1
 74
5
  7

 75
16
 76
0
 77
2
 78
300
147
1.0
148
0.0
149
0.0
100
AcDbLayout
  1
Layout1
 70
1
 71
1
 10
0.0
 20
0.0
 11
420.0
 21
297.0
 12
0.0
 22
0.0
 32
0.0
 14
1e+20
 24
1e+20
 34
1e+20
 15
-1e+20
 25
-1e+20
 35
-1e+20
146
0.0
 13
0.0
 23
0.0
 33
0.0
 16
1.0
 26
0.0
 36
0.0
 17
0.0
 27
1.0
 37
0.0
 76
1
330
1B
  0
MATERIAL
  5
1F
102
{ACAD_REACTORS
330
E
102
}
330
E
100
AcDbMaterial
  1
ByBlock
  2

 70
0
 40
1.0
 71
1
 41
1.0
 91
-1023410177
 42
1.0
 72
1
  3

 73
1
 74
1
 75
1
 44
0.5
 73
0
 45
1.0
 46
1.0
 77
1
  4

 78
1
 79
1
170
1
 48
1.0
171
1
  6

172
1
173
1
174
1
140
1.0
141
1.0
175
1
  7

176
1
177
1
178
1
143
1.0
179
1
  8

270
1
271
1
272
1
145
1.0
146
1.0
273
1
  9

274
1
275
1
276
1
 42
1.0
 72
1
  3

 73
1
 74
1
 75
1
 94
63
  0
MATERIAL
  5
20
102
{ACAD_REACTORS
330
E
102
}
330
E
100
AcDbMaterial
  1
ByLayer
  2

 70
0
 40
1.0
 71
1
 41
1.0
 91
-1023410177
 42
1.0
 72
1
  3

 73
1
 74
1
 75
1
 44
0.5
 73
0
 45
1.0
 46
1.0
 77
1
  4

 78
1
 79
1
170
1
 48
1.0
171
1
  6

172
1
173
1
174
1
140
1.0
141
1.0
175
1
  7

176
1
177
1
178
1
143
1.0
179
1
  8

270
1
271
1
272
1
145
1.0
146
1.0
273
1
  9

274
1
275
1
276
1
 42
1.0
 72
1
  3

 73
1
 74
1
 75
1
 94
63
  0
MATERIAL
  5
21
102
{ACAD_REACTORS
330
E
102
}
330
E
100
AcDbMaterial
  1
Global
  2

 70
0
 40
1.0
 71
1
 41
1.0
 91
-1023410177
 42
1.0
 72
1
  3

 73
1
 74
1
 75
1
 44
0.5
 73
0
 45
1.0
 46
1.0
 77
1
  4

 78
1
 79
1
170
1
 48
1.0
171
1
  6

172
1
173
1
174
1
140
1.0
141
1.0
175
1
  7

176
1
177
1
178
1
143
1.0
179
1
  8

270
1
271
1
272
1
145
1.0
146
1.0
273
1
  9

274
1
275
1
276
1
 42
1.0
 72
1
  3

 73
1
 74
1
 75
1
 94
63
  0
MLINESTYLE
  5
22
102
{ACAD_REACTORS
330
10
102
}
330
10
100
AcDbMlineStyle
  2
Standard
 70
0
  3

 62
256
 51
90.0
 52
90.0
 71
2
 49
0.5
 62
256
  6
BYLAYER
 49
-0.5
 62
256
  6
BYLAYER
  0
MLEADERSTYLE
  5
2C
102
{ACAD_REACTORS
330
F
102
}
330
F
100
AcDbMLeaderStyle
179
2
170
2
171
1
172
0
 90
2
 40
0.0
 41
0.0
173
1
 91
-1056964608
 92
-2
290
1
 42
2.0
291
1
 43
8.0
  3
Standard
 44
4.0
300

342
29
174
1
175
1
176
0
178
1
 93
-1056964608
 45
4.0
292
0
297
0
 46
4.0
 94
-1056964608
 47
1.0
 49
1.0
140
1.0
294
1
141
0.0
177
0
142
1.0
295
0
296
0
143
3.75
271
0
272
9
273
9
  0
DICTIONARY
  5
2D
330
A
100
AcDbDictionary
280
1
281
1
  3
CREATED_BY_EZDXF
350
2E
  3
WRITTEN_BY_EZDXF
350
3BB
  0
DICTIONARYVAR
  5
2E
330
2D
100
DictionaryVariables
280
0
  1
0.17.2 @ 2022-06-08T09:13:58.511047+00:00
  0
DICTIONARYVAR
  5
3BB
330
2D
100
DictionaryVariables
280
0
  1
0.17.2 @ 2022-06-08T09:13:58.684583+00:00
  0
ENDSEC
  0
EOF
