solid CATIA STL
  facet normal  0.000000e+000 -1.000000e+000  0.000000e+000
    outer loop
      vertex  1.686955e+001  0.000000e+000  3.449910e+001
      vertex  1.600127e+001  0.000000e+000  3.444736e+001
      vertex  1.773893e+001  0.000000e+000  3.447122e+001
    endloop
  endfacet
  facet normal  0.000000e+000 -1.000000e+000  -0.000000e+000
    outer loop
      vertex  4.505333e+001  0.000000e+000  2.220348e+001
      vertex  4.505333e+001  0.000000e+000  2.782776e+001
      vertex  7.856383e+000  0.000000e+000  2.757765e+001
    endloop
  endfacet
  facet normal  0.000000e+000 -1.000000e+000  -0.000000e+000
    outer loop
      vertex  4.505333e+001  0.000000e+000  2.220348e+001
      vertex  7.856383e+000  0.000000e+000  2.757765e+001
      vertex  7.658947e+000  0.000000e+000  2.673053e+001
    endloop
  endfacet
  facet normal  0.000000e+000 -1.000000e+000  -0.000000e+000
    outer loop
      vertex  4.505333e+001  0.000000e+000  2.220348e+001
      vertex  7.658947e+000  0.000000e+000  2.673053e+001
      vertex  7.539820e+000  0.000000e+000  2.586891e+001
    endloop
  endfacet
  facet normal  0.000000e+000 -1.000000e+000  -0.000000e+000
    outer loop
      vertex  4.505333e+001  0.000000e+000  2.220348e+001
      vertex  7.539820e+000  0.000000e+000  2.586891e+001
      vertex  7.500000e+000  0.000000e+000  2.500000e+001
    endloop
  endfacet
  facet normal  0.000000e+000 -1.000000e+000  0.000000e+000
    outer loop
      vertex  4.505333e+001  0.000000e+000  2.220348e+001
      vertex  7.500000e+000  0.000000e+000  2.500000e+001
      vertex  7.539917e+000  0.000000e+000  2.413004e+001
    endloop
  endfacet
  facet normal  0.000000e+000 -1.000000e+000  0.000000e+000
    outer loop
      vertex  4.505333e+001  0.000000e+000  2.220348e+001
      vertex  7.539917e+000  0.000000e+000  2.413004e+001
      vertex  7.659332e+000  0.000000e+000  2.326739e+001
    endloop
  endfacet
  facet normal  0.000000e+000 -1.000000e+000  0.000000e+000
    outer loop
      vertex  4.505333e+001  0.000000e+000  2.220348e+001
      vertex  7.659332e+000  0.000000e+000  2.326739e+001
      vertex  7.857243e+000  0.000000e+000  2.241931e+001
    endloop
  endfacet
  facet normal  0.000000e+000 -1.000000e+000  0.000000e+000
    outer loop
      vertex  4.505333e+001  0.000000e+000  2.220348e+001
      vertex  7.857243e+000  0.000000e+000  2.241931e+001
      vertex  2.607907e+001  0.000000e+000  2.220348e+001
    endloop
  endfacet
  facet normal  0.000000e+000 -1.000000e+000  -0.000000e+000
    outer loop
      vertex  4.505333e+001  0.000000e+000  2.782776e+001
      vertex  2.606939e+001  0.000000e+000  2.782776e+001
      vertex  7.856383e+000  0.000000e+000  2.757765e+001
    endloop
  endfacet
  facet normal  0.000000e+000 -9.999999e-001  0.000000e+000
    outer loop
      vertex  7.856383e+000  0.000000e+000  2.757765e+001
      vertex  2.606939e+001  0.000000e+000  2.782776e+001
      vertex  2.577273e+001  0.000000e+000  2.864543e+001
    endloop
  endfacet
  facet normal  0.000000e+000 -1.000000e+000  0.000000e+000
    outer loop
      vertex  7.856383e+000  0.000000e+000  2.757765e+001
      vertex  2.577273e+001  0.000000e+000  2.864543e+001
      vertex  8.130472e+000  0.000000e+000  2.840316e+001
    endloop
  endfacet
  facet normal  0.000000e+000 -1.000000e+000  0.000000e+000
    outer loop
      vertex  8.130472e+000  0.000000e+000  2.840316e+001
      vertex  2.577273e+001  0.000000e+000  2.864543e+001
      vertex  2.540253e+001  0.000000e+000  2.943254e+001
    endloop
  endfacet
  facet normal  0.000000e+000 -1.000000e+000  0.000000e+000
    outer loop
      vertex  8.130472e+000  0.000000e+000  2.840316e+001
      vertex  2.540253e+001  0.000000e+000  2.943254e+001
      vertex  8.478916e+000  0.000000e+000  2.920013e+001
    endloop
  endfacet
  facet normal  0.000000e+000 -1.000000e+000  0.000000e+000
    outer loop
      vertex  8.478916e+000  0.000000e+000  2.920013e+001
      vertex  2.540253e+001  0.000000e+000  2.943254e+001
      vertex  2.496190e+001  0.000000e+000  3.018249e+001
    endloop
  endfacet
  facet normal  0.000000e+000 -1.000000e+000  0.000000e+000
    outer loop
      vertex  8.478916e+000  0.000000e+000  2.920013e+001
      vertex  2.496190e+001  0.000000e+000  3.018249e+001
      vertex  8.898794e+000  0.000000e+000  2.996190e+001
    endloop
  endfacet
  facet normal  0.000000e+000 -1.000000e+000  0.000000e+000
    outer loop
      vertex  8.898794e+000  0.000000e+000  2.996190e+001
      vertex  2.496190e+001  0.000000e+000  3.018249e+001
      vertex  2.445451e+001  0.000000e+000  3.088899e+001
    endloop
  endfacet
  facet normal  0.000000e+000 -9.999999e-001  0.000000e+000
    outer loop
      vertex  8.898794e+000  0.000000e+000  2.996190e+001
      vertex  2.445451e+001  0.000000e+000  3.088899e+001
      vertex  9.386587e+000  0.000000e+000  3.068207e+001
    endloop
  endfacet
  facet normal  0.000000e+000 -1.000000e+000  0.000000e+000
    outer loop
      vertex  9.386587e+000  0.000000e+000  3.068207e+001
      vertex  2.445451e+001  0.000000e+000  3.088899e+001
      vertex  2.388463e+001  0.000000e+000  3.154613e+001
    endloop
  endfacet
  facet normal  0.000000e+000 -1.000000e+000  0.000000e+000
    outer loop
      vertex  9.386587e+000  0.000000e+000  3.068207e+001
      vertex  2.388463e+001  0.000000e+000  3.154613e+001
      vertex  9.938205e+000  0.000000e+000  3.135461e+001
    endloop
  endfacet
  facet normal  0.000000e+000 -1.000000e+000  0.000000e+000
    outer loop
      vertex  9.938205e+000  0.000000e+000  3.135461e+001
      vertex  2.388463e+001  0.000000e+000  3.154613e+001
      vertex  2.325704e+001  0.000000e+000  3.214839e+001
    endloop
  endfacet
  facet normal  0.000000e+000 -1.000000e+000  0.000000e+000
    outer loop
      vertex  9.938205e+000  0.000000e+000  3.135461e+001
      vertex  2.325704e+001  0.000000e+000  3.214839e+001
      vertex  1.054902e+001  0.000000e+000  3.197387e+001
    endloop
  endfacet
  facet normal  0.000000e+000 -1.000000e+000  0.000000e+000
    outer loop
      vertex  1.054902e+001  0.000000e+000  3.197387e+001
      vertex  2.325704e+001  0.000000e+000  3.214839e+001
      vertex  2.257699e+001  0.000000e+000  3.269072e+001
    endloop
  endfacet
  facet normal  0.000000e+000 -1.000000e+000  0.000000e+000
    outer loop
      vertex  1.054902e+001  0.000000e+000  3.197387e+001
      vertex  2.257699e+001  0.000000e+000  3.269072e+001
      vertex  1.121392e+001  0.000000e+000  3.253467e+001
    endloop
  endfacet
  facet normal  0.000000e+000 -1.000000e+000  0.000000e+000
    outer loop
      vertex  1.121392e+001  0.000000e+000  3.253467e+001
      vertex  2.257699e+001  0.000000e+000  3.269072e+001
      vertex  2.185019e+001  0.000000e+000  3.316858e+001
    endloop
  endfacet
  facet normal  0.000000e+000 -1.000000e+000  0.000000e+000
    outer loop
      vertex  1.121392e+001  0.000000e+000  3.253467e+001
      vertex  2.185019e+001  0.000000e+000  3.316858e+001
      vertex  1.192733e+001  0.000000e+000  3.303231e+001
    endloop
  endfacet
  facet normal  0.000000e+000 -1.000000e+000  0.000000e+000
    outer loop
      vertex  1.192733e+001  0.000000e+000  3.303231e+001
      vertex  2.185019e+001  0.000000e+000  3.316858e+001
      vertex  2.108273e+001  0.000000e+000  3.357795e+001
    endloop
  endfacet
  facet normal  0.000000e+000 -9.999999e-001  0.000000e+000
    outer loop
      vertex  1.192733e+001  0.000000e+000  3.303231e+001
      vertex  2.108273e+001  0.000000e+000  3.357795e+001
      vertex  1.268326e+001  0.000000e+000  3.346261e+001
    endloop
  endfacet
  facet normal  0.000000e+000 -1.000000e+000  0.000000e+000
    outer loop
      vertex  1.268326e+001  0.000000e+000  3.346261e+001
      vertex  2.108273e+001  0.000000e+000  3.357795e+001
      vertex  2.028105e+001  0.000000e+000  3.391542e+001
    endloop
  endfacet
  facet normal  0.000000e+000 -1.000000e+000  0.000000e+000
    outer loop
      vertex  1.268326e+001  0.000000e+000  3.346261e+001
      vertex  2.028105e+001  0.000000e+000  3.391542e+001
      vertex  1.347537e+001  0.000000e+000  3.382196e+001
    endloop
  endfacet
  facet normal  0.000000e+000 -1.000000e+000  0.000000e+000
    outer loop
      vertex  1.347537e+001  0.000000e+000  3.382196e+001
      vertex  2.028105e+001  0.000000e+000  3.391542e+001
      vertex  1.945185e+001  0.000000e+000  3.417815e+001
    endloop
  endfacet
  facet normal  0.000000e+000 -1.000000e+000  0.000000e+000
    outer loop
      vertex  1.347537e+001  0.000000e+000  3.382196e+001
      vertex  1.945185e+001  0.000000e+000  3.417815e+001
      vertex  1.429704e+001  0.000000e+000  3.410736e+001
    endloop
  endfacet
  facet normal  0.000000e+000 -1.000000e+000  0.000000e+000
    outer loop
      vertex  1.429704e+001  0.000000e+000  3.410736e+001
      vertex  1.945185e+001  0.000000e+000  3.417815e+001
      vertex  1.860210e+001  0.000000e+000  3.436393e+001
    endloop
  endfacet
  facet normal  0.000000e+000 -1.000000e+000  0.000000e+000
    outer loop
      vertex  1.429704e+001  0.000000e+000  3.410736e+001
      vertex  1.860210e+001  0.000000e+000  3.436393e+001
      vertex  1.514137e+001  0.000000e+000  3.431641e+001
    endloop
  endfacet
  facet normal  0.000000e+000 -9.999999e-001  0.000000e+000
    outer loop
      vertex  1.514137e+001  0.000000e+000  3.431641e+001
      vertex  1.860210e+001  0.000000e+000  3.436393e+001
      vertex  1.773893e+001  0.000000e+000  3.447122e+001
    endloop
  endfacet
  facet normal  0.000000e+000 -1.000000e+000  0.000000e+000
    outer loop
      vertex  1.514137e+001  0.000000e+000  3.431641e+001
      vertex  1.773893e+001  0.000000e+000  3.447122e+001
      vertex  1.600127e+001  0.000000e+000  3.444736e+001
    endloop
  endfacet
  facet normal  -0.000000e+000 -1.000000e+000  0.000000e+000
    outer loop
      vertex  1.688749e+001  0.000000e+000  1.550067e+001
      vertex  1.775786e+001  0.000000e+000  1.553028e+001
      vertex  1.601806e+001  0.000000e+000  1.555088e+001
    endloop
  endfacet
  facet normal  0.000000e+000 -1.000000e+000  0.000000e+000
    outer loop
      vertex  1.601806e+001  0.000000e+000  1.555088e+001
      vertex  1.775786e+001  0.000000e+000  1.553028e+001
      vertex  1.862186e+001  0.000000e+000  1.563947e+001
    endloop
  endfacet
  facet normal  -0.000000e+000 -1.000000e+000  0.000000e+000
    outer loop
      vertex  1.601806e+001  0.000000e+000  1.555088e+001
      vertex  1.862186e+001  0.000000e+000  1.563947e+001
      vertex  1.515689e+001  0.000000e+000  1.568051e+001
    endloop
  endfacet
  facet normal  0.000000e+000 -1.000000e+000  0.000000e+000
    outer loop
      vertex  1.515689e+001  0.000000e+000  1.568051e+001
      vertex  1.862186e+001  0.000000e+000  1.563947e+001
      vertex  1.947223e+001  0.000000e+000  1.582732e+001
    endloop
  endfacet
  facet normal  -0.000000e+000 -1.000000e+000  0.000000e+000
    outer loop
      vertex  1.515689e+001  0.000000e+000  1.568051e+001
      vertex  1.947223e+001  0.000000e+000  1.582732e+001
      vertex  1.431120e+001  0.000000e+000  1.588845e+001
    endloop
  endfacet
  facet normal  0.000000e+000 -1.000000e+000  0.000000e+000
    outer loop
      vertex  1.431120e+001  0.000000e+000  1.588845e+001
      vertex  1.947223e+001  0.000000e+000  1.582732e+001
      vertex  2.030183e+001  0.000000e+000  1.609225e+001
    endloop
  endfacet
  facet normal  -0.000000e+000 -9.999999e-001  0.000000e+000
    outer loop
      vertex  1.431120e+001  0.000000e+000  1.588845e+001
      vertex  2.030183e+001  0.000000e+000  1.609225e+001
      vertex  1.348811e+001  0.000000e+000  1.617296e+001
    endloop
  endfacet
  facet normal  0.000000e+000 -1.000000e+000  0.000000e+000
    outer loop
      vertex  1.348811e+001  0.000000e+000  1.617296e+001
      vertex  2.030183e+001  0.000000e+000  1.609225e+001
      vertex  2.110368e+001  0.000000e+000  1.643205e+001
    endloop
  endfacet
  facet normal  -0.000000e+000 -9.999999e-001  0.000000e+000
    outer loop
      vertex  1.348811e+001  0.000000e+000  1.617296e+001
      vertex  2.110368e+001  0.000000e+000  1.643205e+001
      vertex  1.269454e+001  0.000000e+000  1.653165e+001
    endloop
  endfacet
  facet normal  0.000000e+000 -1.000000e+000  0.000000e+000
    outer loop
      vertex  1.269454e+001  0.000000e+000  1.653165e+001
      vertex  2.110368e+001  0.000000e+000  1.643205e+001
      vertex  2.187104e+001  0.000000e+000  1.684384e+001
    endloop
  endfacet
  facet normal  -0.000000e+000 -1.000000e+000  0.000000e+000
    outer loop
      vertex  1.269454e+001  0.000000e+000  1.653165e+001
      vertex  2.187104e+001  0.000000e+000  1.684384e+001
      vertex  1.193714e+001  0.000000e+000  1.696150e+001
    endloop
  endfacet
  facet normal  0.000000e+000 -1.000000e+000  0.000000e+000
    outer loop
      vertex  1.193714e+001  0.000000e+000  1.696150e+001
      vertex  2.187104e+001  0.000000e+000  1.684384e+001
      vertex  2.259747e+001  0.000000e+000  1.732417e+001
    endloop
  endfacet
  facet normal  -0.000000e+000 -1.000000e+000  0.000000e+000
    outer loop
      vertex  1.193714e+001  0.000000e+000  1.696150e+001
      vertex  2.259747e+001  0.000000e+000  1.732417e+001
      vertex  1.122229e+001  0.000000e+000  1.745891e+001
    endloop
  endfacet
  facet normal  0.000000e+000 -9.999999e-001  0.000000e+000
    outer loop
      vertex  1.122229e+001  0.000000e+000  1.745891e+001
      vertex  2.259747e+001  0.000000e+000  1.732417e+001
      vertex  2.327686e+001  0.000000e+000  1.786901e+001
    endloop
  endfacet
  facet normal  -0.000000e+000 -9.999999e-001  0.000000e+000
    outer loop
      vertex  1.122229e+001  0.000000e+000  1.745891e+001
      vertex  2.327686e+001  0.000000e+000  1.786901e+001
      vertex  1.055600e+001  0.000000e+000  1.801968e+001
    endloop
  endfacet
  facet normal  0.000000e+000 -1.000000e+000  0.000000e+000
    outer loop
      vertex  1.055600e+001  0.000000e+000  1.801968e+001
      vertex  2.327686e+001  0.000000e+000  1.786901e+001
      vertex  2.390351e+001  0.000000e+000  1.847378e+001
    endloop
  endfacet
  facet normal  -0.000000e+000 -1.000000e+000  0.000000e+000
    outer loop
      vertex  1.055600e+001  0.000000e+000  1.801968e+001
      vertex  2.390351e+001  0.000000e+000  1.847378e+001
      vertex  9.943853e+000  0.000000e+000  1.863912e+001
    endloop
  endfacet
  facet normal  0.000000e+000 -1.000000e+000  0.000000e+000
    outer loop
      vertex  9.943853e+000  0.000000e+000  1.863912e+001
      vertex  2.390351e+001  0.000000e+000  1.847378e+001
      vertex  2.447214e+001  0.000000e+000  1.913338e+001
    endloop
  endfacet
  facet normal  -0.000000e+000 -1.000000e+000  0.000000e+000
    outer loop
      vertex  9.943853e+000  0.000000e+000  1.863912e+001
      vertex  2.447214e+001  0.000000e+000  1.913338e+001
      vertex  9.391006e+000  0.000000e+000  1.931201e+001
    endloop
  endfacet
  facet normal  0.000000e+000 -1.000000e+000  0.000000e+000
    outer loop
      vertex  9.391006e+000  0.000000e+000  1.931201e+001
      vertex  2.447214e+001  0.000000e+000  1.913338e+001
      vertex  2.497797e+001  0.000000e+000  1.984229e+001
    endloop
  endfacet
  facet normal  -0.000000e+000 -1.000000e+000  0.000000e+000
    outer loop
      vertex  9.391006e+000  0.000000e+000  1.931201e+001
      vertex  2.497797e+001  0.000000e+000  1.984229e+001
      vertex  8.902102e+000  0.000000e+000  2.003270e+001
    endloop
  endfacet
  facet normal  0.000000e+000 -1.000000e+000  0.000000e+000
    outer loop
      vertex  8.902102e+000  0.000000e+000  2.003270e+001
      vertex  2.497797e+001  0.000000e+000  1.984229e+001
      vertex  2.541677e+001  0.000000e+000  2.059454e+001
    endloop
  endfacet
  facet normal  -0.000000e+000 -9.999999e-001  0.000000e+000
    outer loop
      vertex  8.902102e+000  0.000000e+000  2.003270e+001
      vertex  2.541677e+001  0.000000e+000  2.059454e+001
      vertex  8.481250e+000  0.000000e+000  2.079514e+001
    endloop
  endfacet
  facet normal  0.000000e+000 -1.000000e+000  0.000000e+000
    outer loop
      vertex  8.481250e+000  0.000000e+000  2.079514e+001
      vertex  2.541677e+001  0.000000e+000  2.059454e+001
      vertex  2.578483e+001  0.000000e+000  2.138382e+001
    endloop
  endfacet
  facet normal  -0.000000e+000 -1.000000e+000  0.000000e+000
    outer loop
      vertex  8.481250e+000  0.000000e+000  2.079514e+001
      vertex  2.578483e+001  0.000000e+000  2.138382e+001
      vertex  8.131985e+000  0.000000e+000  2.159291e+001
    endloop
  endfacet
  facet normal  0.000000e+000 -1.000000e+000  0.000000e+000
    outer loop
      vertex  8.131985e+000  0.000000e+000  2.159291e+001
      vertex  2.578483e+001  0.000000e+000  2.138382e+001
      vertex  2.607907e+001  0.000000e+000  2.220348e+001
    endloop
  endfacet
  facet normal  -0.000000e+000 -1.000000e+000  0.000000e+000
    outer loop
      vertex  8.131985e+000  0.000000e+000  2.159291e+001
      vertex  2.607907e+001  0.000000e+000  2.220348e+001
      vertex  7.857243e+000  0.000000e+000  2.241931e+001
    endloop
  endfacet
  facet normal  0.000000e+000  0.000000e+000  9.999999e-001
    outer loop
      vertex  2.606939e+001  1.000000e+001  2.782776e+001
      vertex  2.606939e+001  0.000000e+000  2.782776e+001
      vertex  4.505333e+001  1.000000e+001  2.782776e+001
    endloop
  endfacet
  facet normal  0.000000e+000  0.000000e+000  9.999999e-001
    outer loop
      vertex  4.505333e+001  1.000000e+001  2.782776e+001
      vertex  2.606939e+001  0.000000e+000  2.782776e+001
      vertex  4.505333e+001  0.000000e+000  2.782776e+001
    endloop
  endfacet
  facet normal  0.000000e+000  0.000000e+000 -9.999999e-001
    outer loop
      vertex  4.505333e+001  1.000000e+001  2.220348e+001
      vertex  4.505333e+001  0.000000e+000  2.220348e+001
      vertex  2.607907e+001  1.000000e+001  2.220348e+001
    endloop
  endfacet
  facet normal  0.000000e+000  0.000000e+000 -9.999999e-001
    outer loop
      vertex  2.607907e+001  1.000000e+001  2.220348e+001
      vertex  4.505333e+001  0.000000e+000  2.220348e+001
      vertex  2.607907e+001  0.000000e+000  2.220348e+001
    endloop
  endfacet
  facet normal  9.909498e-001  2.068711e-004  1.342322e-001
    outer loop
      vertex  2.646176e+001  5.000000e+001  2.585157e+001
      vertex  2.634733e+001  5.000000e+001  2.669629e+001
      vertex  2.639173e+001  1.000000e+001  2.643018e+001
    endloop
  endfacet
  facet normal  9.822116e-001 -1.590495e-004  1.877769e-001
    outer loop
      vertex  2.625697e+001  1.000000e+001  2.713506e+001
      vertex  2.639173e+001  1.000000e+001  2.643018e+001
      vertex  2.634733e+001  5.000000e+001  2.669629e+001
    endloop
  endfacet
  facet normal  9.749278e-001  2.385252e-004  2.225212e-001
    outer loop
      vertex  2.634733e+001  5.000000e+001  2.669629e+001
      vertex  2.615765e+001  5.000000e+001  2.752735e+001
      vertex  2.625697e+001  1.000000e+001  2.713506e+001
    endloop
  endfacet
  facet normal  9.195274e-001  1.816288e-004  3.930258e-001
    outer loop
      vertex  2.577273e+001  0.000000e+000  2.864543e+001
      vertex  2.589423e+001  5.000000e+001  2.833806e+001
      vertex  2.555920e+001  5.000000e+001  2.912189e+001
    endloop
  endfacet
  facet normal  9.049103e-001 -1.912234e-004  4.256020e-001
    outer loop
      vertex  2.577273e+001  0.000000e+000  2.864543e+001
      vertex  2.555920e+001  5.000000e+001  2.912189e+001
      vertex  2.540253e+001  0.000000e+000  2.943254e+001
    endloop
  endfacet
  facet normal  8.805960e-001  1.848322e-004  4.738678e-001
    outer loop
      vertex  2.540253e+001  0.000000e+000  2.943254e+001
      vertex  2.555920e+001  5.000000e+001  2.912189e+001
      vertex  2.515526e+001  5.000000e+001  2.987254e+001
    endloop
  endfacet
  facet normal  8.621902e-001 -1.941040e-004  5.065847e-001
    outer loop
      vertex  2.540253e+001  0.000000e+000  2.943254e+001
      vertex  2.515526e+001  5.000000e+001  2.987254e+001
      vertex  2.496190e+001  0.000000e+000  3.018249e+001
    endloop
  endfacet
  facet normal  8.345728e-001  1.873943e-004  5.508977e-001
    outer loop
      vertex  2.496190e+001  0.000000e+000  3.018249e+001
      vertex  2.515526e+001  5.000000e+001  2.987254e+001
      vertex  2.468566e+001  5.000000e+001  3.058396e+001
    endloop
  endfacet
  facet normal  8.122415e-001 -1.963227e-004  5.833214e-001
    outer loop
      vertex  2.496190e+001  0.000000e+000  3.018249e+001
      vertex  2.468566e+001  5.000000e+001  3.058396e+001
      vertex  2.445451e+001  0.000000e+000  3.088899e+001
    endloop
  endfacet
  facet normal  7.818314e-001  1.893184e-004  6.234898e-001
    outer loop
      vertex  2.445451e+001  0.000000e+000  3.088899e+001
      vertex  2.468566e+001  5.000000e+001  3.058396e+001
      vertex  2.415418e+001  5.000000e+001  3.125042e+001
    endloop
  endfacet
  facet normal  7.554839e-001 -1.979218e-004  6.551672e-001
    outer loop
      vertex  2.445451e+001  0.000000e+000  3.088899e+001
      vertex  2.415418e+001  5.000000e+001  3.125042e+001
      vertex  2.388463e+001  0.000000e+000  3.154613e+001
    endloop
  endfacet
  facet normal  7.227952e-001  1.905913e-004  6.910623e-001
    outer loop
      vertex  2.388463e+001  0.000000e+000  3.154613e+001
      vertex  2.415418e+001  5.000000e+001  3.125042e+001
      vertex  2.356510e+001  5.000000e+001  3.186655e+001
    endloop
  endfacet
  facet normal  6.923943e-001 -1.988736e-004  7.215192e-001
    outer loop
      vertex  2.388463e+001  0.000000e+000  3.154613e+001
      vertex  2.356510e+001  5.000000e+001  3.186655e+001
      vertex  2.325704e+001  0.000000e+000  3.214839e+001
    endloop
  endfacet
  facet normal  6.579384e-001  1.912656e-004  7.530717e-001
    outer loop
      vertex  2.325704e+001  0.000000e+000  3.214839e+001
      vertex  2.356510e+001  5.000000e+001  3.186655e+001
      vertex  2.292315e+001  5.000000e+001  3.242740e+001
    endloop
  endfacet
  facet normal  6.234952e-001 -1.992000e-004  7.818272e-001
    outer loop
      vertex  2.325704e+001  0.000000e+000  3.214839e+001
      vertex  2.292315e+001  5.000000e+001  3.242740e+001
      vertex  2.257699e+001  0.000000e+000  3.269072e+001
    endloop
  endfacet
  facet normal  5.877866e-001  1.912029e-004  8.090160e-001
    outer loop
      vertex  2.292315e+001  5.000000e+001  3.242740e+001
      vertex  2.223352e+001  5.000000e+001  3.292845e+001
      vertex  2.257699e+001  0.000000e+000  3.269072e+001
    endloop
  endfacet
  facet normal  5.493765e-001 -1.989315e-004  8.355749e-001
    outer loop
      vertex  2.185019e+001  0.000000e+000  3.316858e+001
      vertex  2.257699e+001  0.000000e+000  3.269072e+001
      vertex  2.223352e+001  5.000000e+001  3.292845e+001
    endloop
  endfacet
  facet normal  5.128986e-001  1.905832e-004  8.584492e-001
    outer loop
      vertex  2.223352e+001  5.000000e+001  3.292845e+001
      vertex  2.150175e+001  5.000000e+001  3.336566e+001
      vertex  2.185019e+001  0.000000e+000  3.316858e+001
    endloop
  endfacet
  facet normal  4.706474e-001 -1.979531e-004  8.823214e-001
    outer loop
      vertex  2.108273e+001  0.000000e+000  3.357795e+001
      vertex  2.185019e+001  0.000000e+000  3.316858e+001
      vertex  2.150175e+001  5.000000e+001  3.336566e+001
    endloop
  endfacet
  facet normal  4.338850e-001  1.893037e-004  9.009683e-001
    outer loop
      vertex  2.150175e+001  5.000000e+001  3.336566e+001
      vertex  2.073374e+001  5.000000e+001  3.373552e+001
      vertex  2.108273e+001  0.000000e+000  3.357795e+001
    endloop
  endfacet
  facet normal  3.879737e-001 -1.963905e-004  9.216704e-001
    outer loop
      vertex  2.028105e+001  0.000000e+000  3.391542e+001
      vertex  2.108273e+001  0.000000e+000  3.357795e+001
      vertex  2.073374e+001  5.000000e+001  3.373552e+001
    endloop
  endfacet
  facet normal  3.513740e-001  1.873821e-004  9.362352e-001
    outer loop
      vertex  2.073374e+001  5.000000e+001  3.373552e+001
      vertex  1.993566e+001  5.000000e+001  3.403504e+001
      vertex  2.028105e+001  0.000000e+000  3.391542e+001
    endloop
  endfacet
  facet normal  3.020503e-001 -1.941366e-004  9.532919e-001
    outer loop
      vertex  1.945185e+001  0.000000e+000  3.417815e+001
      vertex  2.028105e+001  0.000000e+000  3.391542e+001
      vertex  1.993566e+001  5.000000e+001  3.403504e+001
    endloop
  endfacet
  facet normal  2.660345e-001  1.849029e-004  9.639634e-001
    outer loop
      vertex  1.993566e+001  5.000000e+001  3.403504e+001
      vertex  1.911395e+001  5.000000e+001  3.426181e+001
      vertex  1.945185e+001  0.000000e+000  3.417815e+001
    endloop
  endfacet
  facet normal  2.135881e-001 -1.912204e-004  9.769238e-001
    outer loop
      vertex  1.860210e+001  0.000000e+000  3.436393e+001
      vertex  1.945185e+001  0.000000e+000  3.417815e+001
      vertex  1.911395e+001  5.000000e+001  3.426181e+001
    endloop
  endfacet
  facet normal  1.785598e-001  1.816688e-004  9.839291e-001
    outer loop
      vertex  1.911395e+001  5.000000e+001  3.426181e+001
      vertex  1.827522e+001  5.000000e+001  3.441402e+001
      vertex  1.860210e+001  0.000000e+000  3.436393e+001
    endloop
  endfacet
  facet normal  1.233411e-001 -1.877892e-004  9.923643e-001
    outer loop
      vertex  1.773893e+001  0.000000e+000  3.447122e+001
      vertex  1.860210e+001  0.000000e+000  3.436393e+001
      vertex  1.827522e+001  5.000000e+001  3.441402e+001
    endloop
  endfacet
  facet normal  8.963592e-002  1.778550e-004  9.959745e-001
    outer loop
      vertex  1.827522e+001  5.000000e+001  3.441402e+001
      vertex  1.742622e+001  5.000000e+001  3.449043e+001
      vertex  1.773893e+001  0.000000e+000  3.447122e+001
    endloop
  endfacet
  facet normal  3.205884e-002 -1.835928e-004  9.994860e-001
    outer loop
      vertex  1.686955e+001  0.000000e+000  3.449910e+001
      vertex  1.773893e+001  0.000000e+000  3.447122e+001
      vertex  1.742622e+001  5.000000e+001  3.449043e+001
    endloop
  endfacet
  facet normal  -0.000000e+000  1.734161e-004  1.000000e+000
    outer loop
      vertex  1.742622e+001  5.000000e+001  3.449043e+001
      vertex  1.657378e+001  5.000000e+001  3.449043e+001
      vertex  1.686955e+001  0.000000e+000  3.449910e+001
    endloop
  endfacet
  facet normal -5.949083e-002 -1.788015e-004  9.982288e-001
    outer loop
      vertex  1.600127e+001  0.000000e+000  3.444736e+001
      vertex  1.686955e+001  0.000000e+000  3.449910e+001
      vertex  1.657378e+001  5.000000e+001  3.449043e+001
    endloop
  endfacet
  facet normal -8.963583e-002  1.683078e-004  9.959746e-001
    outer loop
      vertex  1.657378e+001  5.000000e+001  3.449043e+001
      vertex  1.572478e+001  5.000000e+001  3.441402e+001
      vertex  1.600127e+001  0.000000e+000  3.444736e+001
    endloop
  endfacet
  facet normal -1.505452e-001 -1.734209e-004  9.886031e-001
    outer loop
      vertex  1.514137e+001  0.000000e+000  3.431641e+001
      vertex  1.600127e+001  0.000000e+000  3.444736e+001
      vertex  1.572478e+001  5.000000e+001  3.441402e+001
    endloop
  endfacet
  facet normal -1.785599e-001  1.625907e-004  9.839290e-001
    outer loop
      vertex  1.572478e+001  5.000000e+001  3.441402e+001
      vertex  1.488605e+001  5.000000e+001  3.426181e+001
      vertex  1.514137e+001  0.000000e+000  3.431641e+001
    endloop
  endfacet
  facet normal -2.403360e-001 -1.673124e-004  9.706897e-001
    outer loop
      vertex  1.429704e+001  0.000000e+000  3.410736e+001
      vertex  1.514137e+001  0.000000e+000  3.431641e+001
      vertex  1.488605e+001  5.000000e+001  3.426181e+001
    endloop
  endfacet
  facet normal -2.660345e-001  1.562000e-004  9.639634e-001
    outer loop
      vertex  1.488605e+001  5.000000e+001  3.426181e+001
      vertex  1.406434e+001  5.000000e+001  3.403504e+001
      vertex  1.429704e+001  0.000000e+000  3.410736e+001
    endloop
  endfacet
  facet normal -3.281140e-001 -1.606730e-004  9.446381e-001
    outer loop
      vertex  1.347537e+001  0.000000e+000  3.382196e+001
      vertex  1.429704e+001  0.000000e+000  3.410736e+001
      vertex  1.406434e+001  5.000000e+001  3.403504e+001
    endloop
  endfacet
  facet normal -3.513740e-001  1.491226e-004  9.362352e-001
    outer loop
      vertex  1.406434e+001  5.000000e+001  3.403504e+001
      vertex  1.326626e+001  5.000000e+001  3.373552e+001
      vertex  1.347537e+001  0.000000e+000  3.382196e+001
    endloop
  endfacet
  facet normal -4.131344e-001 -1.533737e-004  9.106700e-001
    outer loop
      vertex  1.268326e+001  0.000000e+000  3.346261e+001
      vertex  1.347537e+001  0.000000e+000  3.382196e+001
      vertex  1.326626e+001  5.000000e+001  3.373552e+001
    endloop
  endfacet
  facet normal -4.338854e-001  1.415407e-004  9.009680e-001
    outer loop
      vertex  1.326626e+001  5.000000e+001  3.373552e+001
      vertex  1.249825e+001  5.000000e+001  3.336566e+001
      vertex  1.268326e+001  0.000000e+000  3.346261e+001
    endloop
  endfacet
  facet normal -4.947011e-001 -1.453508e-004  8.690632e-001
    outer loop
      vertex  1.192733e+001  0.000000e+000  3.303231e+001
      vertex  1.268326e+001  0.000000e+000  3.346261e+001
      vertex  1.249825e+001  5.000000e+001  3.336566e+001
    endloop
  endfacet
  facet normal -5.128977e-001  1.331860e-004  8.584498e-001
    outer loop
      vertex  1.249825e+001  5.000000e+001  3.336566e+001
      vertex  1.176648e+001  5.000000e+001  3.292845e+001
      vertex  1.192733e+001  0.000000e+000  3.303231e+001
    endloop
  endfacet
  facet normal -5.721126e-001 -1.368088e-004  8.201752e-001
    outer loop
      vertex  1.121392e+001  0.000000e+000  3.253467e+001
      vertex  1.192733e+001  0.000000e+000  3.303231e+001
      vertex  1.176648e+001  5.000000e+001  3.292845e+001
    endloop
  endfacet
  facet normal -5.877871e-001  1.243001e-004  8.090156e-001
    outer loop
      vertex  1.176648e+001  5.000000e+001  3.292845e+001
      vertex  1.107685e+001  5.000000e+001  3.242740e+001
      vertex  1.121392e+001  0.000000e+000  3.253467e+001
    endloop
  endfacet
  facet normal -6.447301e-001 -1.275073e-004  7.644104e-001
    outer loop
      vertex  1.054902e+001  0.000000e+000  3.197387e+001
      vertex  1.121392e+001  0.000000e+000  3.253467e+001
      vertex  1.107685e+001  5.000000e+001  3.242740e+001
    endloop
  endfacet
  facet normal -6.579390e-001  1.147841e-004  7.530712e-001
    outer loop
      vertex  1.107685e+001  5.000000e+001  3.242740e+001
      vertex  1.043491e+001  5.000000e+001  3.186655e+001
      vertex  1.054902e+001  0.000000e+000  3.197387e+001
    endloop
  endfacet
  facet normal -7.119456e-001 -1.175963e-004  7.022347e-001
    outer loop
      vertex  9.938205e+000  0.000000e+000  3.135461e+001
      vertex  1.054902e+001  0.000000e+000  3.197387e+001
      vertex  1.043491e+001  5.000000e+001  3.186655e+001
    endloop
  endfacet
  facet normal -7.227947e-001  1.045641e-004  6.910630e-001
    outer loop
      vertex  1.043491e+001  5.000000e+001  3.186655e+001
      vertex  9.845821e+000  5.000000e+001  3.125042e+001
      vertex  9.938205e+000  0.000000e+000  3.135461e+001
    endloop
  endfacet
  facet normal -7.731903e-001 -1.070964e-004  6.341740e-001
    outer loop
      vertex  9.386587e+000  0.000000e+000  3.068207e+001
      vertex  9.938205e+000  0.000000e+000  3.135461e+001
      vertex  9.845821e+000  5.000000e+001  3.125042e+001
    endloop
  endfacet
  facet normal -7.818315e-001  9.371573e-005  6.234899e-001
    outer loop
      vertex  9.845821e+000  5.000000e+001  3.125042e+001
      vertex  9.314339e+000  5.000000e+001  3.058396e+001
      vertex  9.386587e+000  0.000000e+000  3.068207e+001
    endloop
  endfacet
  facet normal -8.279533e-001 -9.594730e-005  5.607971e-001
    outer loop
      vertex  8.898794e+000  0.000000e+000  2.996190e+001
      vertex  9.386587e+000  0.000000e+000  3.068207e+001
      vertex  9.314339e+000  5.000000e+001  3.058396e+001
    endloop
  endfacet
  facet normal -8.345728e-001  8.222740e-005  5.508977e-001
    outer loop
      vertex  9.314339e+000  5.000000e+001  3.058396e+001
      vertex  8.844736e+000  5.000000e+001  2.987254e+001
      vertex  8.898794e+000  0.000000e+000  2.996190e+001
    endloop
  endfacet
  facet normal -8.757755e-001 -8.416529e-005  4.827186e-001
    outer loop
      vertex  8.478916e+000  0.000000e+000  2.920013e+001
      vertex  8.898794e+000  0.000000e+000  2.996190e+001
      vertex  8.844736e+000  5.000000e+001  2.987254e+001
    endloop
  endfacet
  facet normal -8.805960e-001  7.013183e-005  4.738678e-001
    outer loop
      vertex  8.844736e+000  5.000000e+001  2.987254e+001
      vertex  8.440796e+000  5.000000e+001  2.912189e+001
      vertex  8.478916e+000  0.000000e+000  2.920013e+001
    endloop
  endfacet
  facet normal -9.162561e-001 -7.171491e-005  4.005931e-001
    outer loop
      vertex  8.130472e+000  0.000000e+000  2.840316e+001
      vertex  8.478916e+000  0.000000e+000  2.920013e+001
      vertex  8.440796e+000  5.000000e+001  2.912189e+001
    endloop
  endfacet
  facet normal -9.195278e-001  5.738373e-005  3.930249e-001
    outer loop
      vertex  8.440796e+000  5.000000e+001  2.912189e+001
      vertex  8.105769e+000  5.000000e+001  2.833806e+001
      vertex  8.130472e+000  0.000000e+000  2.840316e+001
    endloop
  endfacet
  facet normal -9.490553e-001 -5.864396e-005  3.151096e-001
    outer loop
      vertex  7.856383e+000  0.000000e+000  2.757765e+001
      vertex  8.130472e+000  0.000000e+000  2.840316e+001
      vertex  8.105769e+000  5.000000e+001  2.833806e+001
    endloop
  endfacet
  facet normal -9.510564e-001  4.398826e-005  3.090174e-001
    outer loop
      vertex  8.105769e+000  5.000000e+001  2.833806e+001
      vertex  7.842353e+000  5.000000e+001  2.752735e+001
      vertex  7.856383e+000  0.000000e+000  2.757765e+001
    endloop
  endfacet
  facet normal -9.738983e-001 -4.494413e-005  2.269846e-001
    outer loop
      vertex  7.658947e+000  0.000000e+000  2.673053e+001
      vertex  7.856383e+000  0.000000e+000  2.757765e+001
      vertex  7.842353e+000  5.000000e+001  2.752735e+001
    endloop
  endfacet
  facet normal -9.749278e-001  2.996375e-005  2.225212e-001
    outer loop
      vertex  7.842353e+000  5.000000e+001  2.752735e+001
      vertex  7.652669e+000  5.000000e+001  2.669629e+001
      vertex  7.658947e+000  0.000000e+000  2.673053e+001
    endloop
  endfacet
  facet normal -9.905771e-001 -3.059745e-005  1.369562e-001
    outer loop
      vertex  7.539820e+000  0.000000e+000  2.586891e+001
      vertex  7.658947e+000  0.000000e+000  2.673053e+001
      vertex  7.652669e+000  5.000000e+001  2.669629e+001
    endloop
  endfacet
  facet normal  9.652333e-001 -1.667380e-004  2.613898e-001
    outer loop
      vertex  2.606939e+001  1.000000e+001  2.782776e+001
      vertex  2.625697e+001  1.000000e+001  2.713506e+001
      vertex  2.615765e+001  5.000000e+001  2.752735e+001
    endloop
  endfacet
  facet normal  9.510565e-001  2.222404e-004  3.090174e-001
    outer loop
      vertex  2.606939e+001  1.000000e+001  2.782776e+001
      vertex  2.615765e+001  5.000000e+001  2.752735e+001
      vertex  2.589423e+001  5.000000e+001  2.833806e+001
    endloop
  endfacet
  facet normal  9.408384e-001 -2.031625e-004  3.388555e-001
    outer loop
      vertex  2.606939e+001  1.000000e+001  2.782776e+001
      vertex  2.589423e+001  5.000000e+001  2.833806e+001
      vertex  2.577273e+001  0.000000e+000  2.864543e+001
    endloop
  endfacet
  facet normal  9.400444e-001  0.000000e+000  3.410521e-001
    outer loop
      vertex  2.606939e+001  1.000000e+001  2.782776e+001
      vertex  2.577273e+001  0.000000e+000  2.864543e+001
      vertex  2.606939e+001  0.000000e+000  2.782776e+001
    endloop
  endfacet
  facet normal  9.992865e-001  0.000000e+000  3.776965e-002
    outer loop
      vertex  2.650000e+001  1.000000e+001  2.500000e+001
      vertex  2.650000e+001  5.000000e+001  2.500000e+001
      vertex  2.647289e+001  1.000000e+001  2.571714e+001
    endloop
  endfacet
  facet normal  9.989930e-001  1.274045e-004  4.486485e-002
    outer loop
      vertex  2.647289e+001  1.000000e+001  2.571714e+001
      vertex  2.650000e+001  5.000000e+001  2.500000e+001
      vertex  2.646176e+001  5.000000e+001  2.585157e+001
    endloop
  endfacet
  facet normal  9.935837e-001 -1.034330e-004  1.130991e-001
    outer loop
      vertex  2.647289e+001  1.000000e+001  2.571714e+001
      vertex  2.646176e+001  5.000000e+001  2.585157e+001
      vertex  2.639173e+001  1.000000e+001  2.643018e+001
    endloop
  endfacet
  facet normal -9.989930e-001  0.000000e+000  4.486485e-002
    outer loop
      vertex  7.500000e+000  5.000000e+001  2.500000e+001
      vertex  7.500000e+000  0.000000e+000  2.500000e+001
      vertex  7.538244e+000  5.000000e+001  2.585157e+001
    endloop
  endfacet
  facet normal -9.989516e-001 -1.561496e-005  4.577982e-002
    outer loop
      vertex  7.538244e+000  5.000000e+001  2.585157e+001
      vertex  7.500000e+000  0.000000e+000  2.500000e+001
      vertex  7.539820e+000  0.000000e+000  2.586891e+001
    endloop
  endfacet
  facet normal -9.909498e-001  1.530227e-005  1.342333e-001
    outer loop
      vertex  7.538244e+000  5.000000e+001  2.585157e+001
      vertex  7.539820e+000  0.000000e+000  2.586891e+001
      vertex  7.652669e+000  5.000000e+001  2.669629e+001
    endloop
  endfacet
  facet normal -9.905543e-001 -3.241402e-005 -1.371212e-001
    outer loop
      vertex  7.539917e+000  0.000000e+000  2.413004e+001
      vertex  7.652669e+000  5.000000e+001  2.330371e+001
      vertex  7.659332e+000  0.000000e+000  2.326739e+001
    endloop
  endfacet
  facet normal -9.749278e-001  3.169605e-005 -2.225212e-001
    outer loop
      vertex  7.659332e+000  0.000000e+000  2.326739e+001
      vertex  7.652669e+000  5.000000e+001  2.330371e+001
      vertex  7.842353e+000  5.000000e+001  2.247265e+001
    endloop
  endfacet
  facet normal -9.738353e-001 -4.754557e-005 -2.272550e-001
    outer loop
      vertex  7.659332e+000  0.000000e+000  2.326739e+001
      vertex  7.842353e+000  5.000000e+001  2.247265e+001
      vertex  7.857243e+000  0.000000e+000  2.241931e+001
    endloop
  endfacet
  facet normal -9.510564e-001  4.646972e-005 -3.090174e-001
    outer loop
      vertex  7.857243e+000  0.000000e+000  2.241931e+001
      vertex  7.842353e+000  5.000000e+001  2.247265e+001
      vertex  8.105769e+000  5.000000e+001  2.166194e+001
    endloop
  endfacet
  facet normal -9.489327e-001 -6.195723e-005 -3.154787e-001
    outer loop
      vertex  7.857243e+000  0.000000e+000  2.241931e+001
      vertex  8.105769e+000  5.000000e+001  2.166194e+001
      vertex  8.131985e+000  0.000000e+000  2.159291e+001
    endloop
  endfacet
  facet normal -9.195278e-001  6.052745e-005 -3.930249e-001
    outer loop
      vertex  8.131985e+000  0.000000e+000  2.159291e+001
      vertex  8.105769e+000  5.000000e+001  2.166194e+001
      vertex  8.440796e+000  5.000000e+001  2.087811e+001
    endloop
  endfacet
  facet normal -9.160557e-001 -7.565934e-005 -4.010510e-001
    outer loop
      vertex  8.131985e+000  0.000000e+000  2.159291e+001
      vertex  8.440796e+000  5.000000e+001  2.087811e+001
      vertex  8.481250e+000  0.000000e+000  2.079514e+001
    endloop
  endfacet
  facet normal -8.805960e-001  7.386196e-005 -4.738678e-001
    outer loop
      vertex  8.481250e+000  0.000000e+000  2.079514e+001
      vertex  8.440796e+000  5.000000e+001  2.087811e+001
      vertex  8.844736e+000  5.000000e+001  2.012746e+001
    endloop
  endfacet
  facet normal -8.754808e-001 -8.864894e-005 -4.832529e-001
    outer loop
      vertex  8.481250e+000  0.000000e+000  2.079514e+001
      vertex  8.844736e+000  5.000000e+001  2.012746e+001
      vertex  8.902102e+000  0.000000e+000  2.003270e+001
    endloop
  endfacet
  facet normal -8.345728e-001  8.647979e-005 -5.508977e-001
    outer loop
      vertex  8.902102e+000  0.000000e+000  2.003270e+001
      vertex  8.844736e+000  5.000000e+001  2.012746e+001
      vertex  9.314339e+000  5.000000e+001  1.941604e+001
    endloop
  endfacet
  facet normal -8.275480e-001 -1.009019e-004 -5.613949e-001
    outer loop
      vertex  8.902102e+000  0.000000e+000  2.003270e+001
      vertex  9.314339e+000  5.000000e+001  1.941604e+001
      vertex  9.391006e+000  0.000000e+000  1.931201e+001
    endloop
  endfacet
  facet normal -7.818315e-001  9.839110e-005 -6.234899e-001
    outer loop
      vertex  9.391006e+000  0.000000e+000  1.931201e+001
      vertex  9.314339e+000  5.000000e+001  1.941604e+001
      vertex  9.845821e+000  5.000000e+001  1.874958e+001
    endloop
  endfacet
  facet normal -7.726617e-001 -1.124440e-004 -6.348179e-001
    outer loop
      vertex  9.391006e+000  0.000000e+000  1.931201e+001
      vertex  9.845821e+000  5.000000e+001  1.874958e+001
      vertex  9.943853e+000  0.000000e+000  1.863912e+001
    endloop
  endfacet
  facet normal -7.227947e-001  1.095865e-004 -6.910630e-001
    outer loop
      vertex  9.943853e+000  0.000000e+000  1.863912e+001
      vertex  9.845821e+000  5.000000e+001  1.874958e+001
      vertex  1.043491e+001  5.000000e+001  1.813345e+001
    endloop
  endfacet
  facet normal -7.112820e-001 -1.232614e-004 -7.029068e-001
    outer loop
      vertex  9.943853e+000  0.000000e+000  1.863912e+001
      vertex  1.043491e+001  5.000000e+001  1.813345e+001
      vertex  1.055600e+001  0.000000e+000  1.801968e+001
    endloop
  endfacet
  facet normal -6.579390e-001  1.200655e-004 -7.530712e-001
    outer loop
      vertex  1.055600e+001  0.000000e+000  1.801968e+001
      vertex  1.043491e+001  5.000000e+001  1.813345e+001
      vertex  1.107685e+001  5.000000e+001  1.757260e+001
    endloop
  endfacet
  facet normal -6.439250e-001 -1.333743e-004 -7.650886e-001
    outer loop
      vertex  1.055600e+001  0.000000e+000  1.801968e+001
      vertex  1.107685e+001  5.000000e+001  1.757260e+001
      vertex  1.122229e+001  0.000000e+000  1.745891e+001
    endloop
  endfacet
  facet normal -5.877857e-001  1.298172e-004 -8.090167e-001
    outer loop
      vertex  1.122229e+001  0.000000e+000  1.745891e+001
      vertex  1.107685e+001  5.000000e+001  1.757260e+001
      vertex  1.176648e+001  5.000000e+001  1.707155e+001
    endloop
  endfacet
  facet normal -5.711569e-001 -1.427688e-004 -8.208409e-001
    outer loop
      vertex  1.122229e+001  0.000000e+000  1.745891e+001
      vertex  1.176648e+001  5.000000e+001  1.707155e+001
      vertex  1.193714e+001  0.000000e+000  1.696150e+001
    endloop
  endfacet
  facet normal -5.128993e-001  1.388573e-004 -8.584488e-001
    outer loop
      vertex  1.193714e+001  0.000000e+000  1.696150e+001
      vertex  1.176648e+001  5.000000e+001  1.707155e+001
      vertex  1.249825e+001  5.000000e+001  1.663434e+001
    endloop
  endfacet
  facet normal -4.935866e-001 -1.514684e-004 -8.696966e-001
    outer loop
      vertex  1.193714e+001  0.000000e+000  1.696150e+001
      vertex  1.249825e+001  5.000000e+001  1.663434e+001
      vertex  1.269454e+001  0.000000e+000  1.653165e+001
    endloop
  endfacet
  facet normal -4.338836e-001  1.471420e-004 -9.009689e-001
    outer loop
      vertex  1.269454e+001  0.000000e+000  1.653165e+001
      vertex  1.249825e+001  5.000000e+001  1.663434e+001
      vertex  1.326626e+001  5.000000e+001  1.626449e+001
    endloop
  endfacet
  facet normal -4.118734e-001 -1.594207e-004 -9.112411e-001
    outer loop
      vertex  1.269454e+001  0.000000e+000  1.653165e+001
      vertex  1.326626e+001  5.000000e+001  1.626449e+001
      vertex  1.348811e+001  0.000000e+000  1.617296e+001
    endloop
  endfacet
  facet normal -3.513750e-001  1.547657e-004 -9.362348e-001
    outer loop
      vertex  1.348811e+001  0.000000e+000  1.617296e+001
      vertex  1.326626e+001  5.000000e+001  1.626449e+001
      vertex  1.406434e+001  5.000000e+001  1.596496e+001
    endloop
  endfacet
  facet normal -3.266945e-001 -1.666666e-004 -9.451299e-001
    outer loop
      vertex  1.348811e+001  0.000000e+000  1.617296e+001
      vertex  1.406434e+001  5.000000e+001  1.596496e+001
      vertex  1.431120e+001  0.000000e+000  1.588845e+001
    endloop
  endfacet
  facet normal -2.660366e-001  1.616389e-004 -9.639629e-001
    outer loop
      vertex  1.431120e+001  0.000000e+000  1.588845e+001
      vertex  1.406434e+001  5.000000e+001  1.596496e+001
      vertex  1.488605e+001  5.000000e+001  1.573818e+001
    endloop
  endfacet
  facet normal -2.387729e-001 -1.731859e-004 -9.710754e-001
    outer loop
      vertex  1.431120e+001  0.000000e+000  1.588845e+001
      vertex  1.488605e+001  5.000000e+001  1.573818e+001
      vertex  1.515689e+001  0.000000e+000  1.568051e+001
    endloop
  endfacet
  facet normal -1.785567e-001  1.678163e-004 -9.839296e-001
    outer loop
      vertex  1.515689e+001  0.000000e+000  1.568051e+001
      vertex  1.488605e+001  5.000000e+001  1.573818e+001
      vertex  1.572478e+001  5.000000e+001  1.558598e+001
    endloop
  endfacet
  facet normal -1.488428e-001 -1.789950e-004 -9.888608e-001
    outer loop
      vertex  1.515689e+001  0.000000e+000  1.568051e+001
      vertex  1.572478e+001  5.000000e+001  1.558598e+001
      vertex  1.601806e+001  0.000000e+000  1.555088e+001
    endloop
  endfacet
  facet normal -8.963916e-002  1.732590e-004 -9.959743e-001
    outer loop
      vertex  1.601806e+001  0.000000e+000  1.555088e+001
      vertex  1.572478e+001  5.000000e+001  1.558598e+001
      vertex  1.657378e+001  5.000000e+001  1.550957e+001
    endloop
  endfacet
  facet normal -5.766349e-002 -1.840850e-004 -9.983361e-001
    outer loop
      vertex  1.601806e+001  0.000000e+000  1.555088e+001
      vertex  1.657378e+001  5.000000e+001  1.550957e+001
      vertex  1.688749e+001  0.000000e+000  1.550067e+001
    endloop
  endfacet
  facet normal  0.000000e+000  1.779938e-004 -1.000000e+000
    outer loop
      vertex  1.688749e+001  0.000000e+000  1.550067e+001
      vertex  1.657378e+001  5.000000e+001  1.550957e+001
      vertex  1.742622e+001  5.000000e+001  1.550957e+001
    endloop
  endfacet
  facet normal  3.400104e-002 -1.884571e-004 -9.994218e-001
    outer loop
      vertex  1.688749e+001  0.000000e+000  1.550067e+001
      vertex  1.742622e+001  5.000000e+001  1.550957e+001
      vertex  1.775786e+001  0.000000e+000  1.553028e+001
    endloop
  endfacet
  facet normal  8.963925e-002  1.820083e-004 -9.959743e-001
    outer loop
      vertex  1.775786e+001  0.000000e+000  1.553028e+001
      vertex  1.742622e+001  5.000000e+001  1.550957e+001
      vertex  1.827522e+001  5.000000e+001  1.558598e+001
    endloop
  endfacet
  facet normal  1.253797e-001 -1.921107e-004 -9.921088e-001
    outer loop
      vertex  1.775786e+001  0.000000e+000  1.553028e+001
      vertex  1.827522e+001  5.000000e+001  1.558598e+001
      vertex  1.862186e+001  0.000000e+000  1.563947e+001
    endloop
  endfacet
  facet normal  1.785565e-001  1.853071e-004 -9.839297e-001
    outer loop
      vertex  1.862186e+001  0.000000e+000  1.563947e+001
      vertex  1.827522e+001  5.000000e+001  1.558598e+001
      vertex  1.911395e+001  5.000000e+001  1.573818e+001
    endloop
  endfacet
  facet normal  2.157051e-001 -1.950523e-004 -9.764586e-001
    outer loop
      vertex  1.862186e+001  0.000000e+000  1.563947e+001
      vertex  1.911395e+001  5.000000e+001  1.573818e+001
      vertex  1.947223e+001  0.000000e+000  1.582732e+001
    endloop
  endfacet
  facet normal  2.660366e-001  1.878815e-004 -9.639629e-001
    outer loop
      vertex  1.947223e+001  0.000000e+000  1.582732e+001
      vertex  1.911395e+001  5.000000e+001  1.573818e+001
      vertex  1.993566e+001  5.000000e+001  1.596496e+001
    endloop
  endfacet
  facet normal  3.042177e-001 -1.972776e-004 -9.526026e-001
    outer loop
      vertex  1.947223e+001  0.000000e+000  1.582732e+001
      vertex  1.993566e+001  5.000000e+001  1.596496e+001
      vertex  2.030183e+001  0.000000e+000  1.609225e+001
    endloop
  endfacet
  facet normal  3.513750e-001  1.897412e-004 -9.362348e-001
    outer loop
      vertex  2.030183e+001  0.000000e+000  1.609225e+001
      vertex  1.993566e+001  5.000000e+001  1.596496e+001
      vertex  2.073374e+001  5.000000e+001  1.626449e+001
    endloop
  endfacet
  facet normal  3.901739e-001 -1.987811e-004 -9.207412e-001
    outer loop
      vertex  2.030183e+001  0.000000e+000  1.609225e+001
      vertex  2.073374e+001  5.000000e+001  1.626449e+001
      vertex  2.110368e+001  0.000000e+000  1.643205e+001
    endloop
  endfacet
  facet normal  4.338832e-001  1.908748e-004 -9.009692e-001
    outer loop
      vertex  2.110368e+001  0.000000e+000  1.643205e+001
      vertex  2.073374e+001  5.000000e+001  1.626449e+001
      vertex  2.150175e+001  5.000000e+001  1.663434e+001
    endloop
  endfacet
  facet normal  4.728500e-001 -1.995744e-004 -8.811430e-001
    outer loop
      vertex  2.110368e+001  0.000000e+000  1.643205e+001
      vertex  2.150175e+001  5.000000e+001  1.663434e+001
      vertex  2.187104e+001  0.000000e+000  1.684384e+001
    endloop
  endfacet
  facet normal  5.129002e-001  1.913186e-004 -8.584481e-001
    outer loop
      vertex  2.187104e+001  0.000000e+000  1.684384e+001
      vertex  2.150175e+001  5.000000e+001  1.663434e+001
      vertex  2.223352e+001  5.000000e+001  1.707155e+001
    endloop
  endfacet
  facet normal  5.515540e-001 -1.996146e-004 -8.341392e-001
    outer loop
      vertex  2.187104e+001  0.000000e+000  1.684384e+001
      vertex  2.223352e+001  5.000000e+001  1.707155e+001
      vertex  2.259747e+001  0.000000e+000  1.732417e+001
    endloop
  endfacet
  facet normal  5.877851e-001  1.910383e-004 -8.090171e-001
    outer loop
      vertex  2.223352e+001  5.000000e+001  1.707155e+001
      vertex  2.292315e+001  5.000000e+001  1.757260e+001
      vertex  2.259747e+001  0.000000e+000  1.732417e+001
    endloop
  endfacet
  facet normal  6.256232e-001 -1.989761e-004 -7.801253e-001
    outer loop
      vertex  2.327686e+001  0.000000e+000  1.786901e+001
      vertex  2.259747e+001  0.000000e+000  1.732417e+001
      vertex  2.292315e+001  5.000000e+001  1.757260e+001
    endloop
  endfacet
  facet normal  6.579384e-001  1.900077e-004 -7.530717e-001
    outer loop
      vertex  2.292315e+001  5.000000e+001  1.757260e+001
      vertex  2.356510e+001  5.000000e+001  1.813345e+001
      vertex  2.327686e+001  0.000000e+000  1.786901e+001
    endloop
  endfacet
  facet normal  6.944324e-001 -1.976135e-004 -7.195579e-001
    outer loop
      vertex  2.390351e+001  0.000000e+000  1.847378e+001
      vertex  2.327686e+001  0.000000e+000  1.786901e+001
      vertex  2.356510e+001  5.000000e+001  1.813345e+001
    endloop
  endfacet
  facet normal  7.227952e-001  1.883075e-004 -6.910623e-001
    outer loop
      vertex  2.356510e+001  5.000000e+001  1.813345e+001
      vertex  2.415418e+001  5.000000e+001  1.874958e+001
      vertex  2.390351e+001  0.000000e+000  1.847378e+001
    endloop
  endfacet
  facet normal  7.574099e-001 -1.955212e-004 -6.529396e-001
    outer loop
      vertex  2.447214e+001  0.000000e+000  1.913338e+001
      vertex  2.390351e+001  0.000000e+000  1.847378e+001
      vertex  2.415418e+001  5.000000e+001  1.874958e+001
    endloop
  endfacet
  facet normal  7.818314e-001  1.858362e-004 -6.234898e-001
    outer loop
      vertex  2.415418e+001  5.000000e+001  1.874958e+001
      vertex  2.468566e+001  5.000000e+001  1.941604e+001
      vertex  2.447214e+001  0.000000e+000  1.913338e+001
    endloop
  endfacet
  facet normal  8.140193e-001 -1.927391e-004 -5.808378e-001
    outer loop
      vertex  2.497797e+001  0.000000e+000  1.984229e+001
      vertex  2.447214e+001  0.000000e+000  1.913338e+001
      vertex  2.468566e+001  5.000000e+001  1.941604e+001
    endloop
  endfacet
  facet normal  8.345728e-001  1.826628e-004 -5.508977e-001
    outer loop
      vertex  2.468566e+001  5.000000e+001  1.941604e+001
      vertex  2.515526e+001  5.000000e+001  2.012746e+001
      vertex  2.497797e+001  0.000000e+000  1.984229e+001
    endloop
  endfacet
  facet normal  8.637887e-001 -1.892344e-004 -5.038542e-001
    outer loop
      vertex  2.541677e+001  0.000000e+000  2.059454e+001
      vertex  2.497797e+001  0.000000e+000  1.984229e+001
      vertex  2.515526e+001  5.000000e+001  2.012746e+001
    endloop
  endfacet
  facet normal  8.805960e-001  1.787927e-004 -4.738678e-001
    outer loop
      vertex  2.515526e+001  5.000000e+001  2.012746e+001
      vertex  2.555920e+001  5.000000e+001  2.087811e+001
      vertex  2.541677e+001  0.000000e+000  2.059454e+001
    endloop
  endfacet
  facet normal  9.062993e-001 -1.849753e-004 -4.226364e-001
    outer loop
      vertex  2.578483e+001  0.000000e+000  2.138382e+001
      vertex  2.541677e+001  0.000000e+000  2.059454e+001
      vertex  2.555920e+001  5.000000e+001  2.087811e+001
    endloop
  endfacet
  facet normal  9.660166e-001 -1.583669e-004 -2.584800e-001
    outer loop
      vertex  2.607907e+001  1.000000e+001  2.220348e+001
      vertex  2.615765e+001  5.000000e+001  2.247265e+001
      vertex  2.626245e+001  1.000000e+001  2.288885e+001
    endloop
  endfacet
  facet normal  9.749278e-001  2.391279e-004 -2.225212e-001
    outer loop
      vertex  2.615765e+001  5.000000e+001  2.247265e+001
      vertex  2.634733e+001  5.000000e+001  2.330371e+001
      vertex  2.626245e+001  1.000000e+001  2.288885e+001
    endloop
  endfacet
  facet normal  9.826131e-001 -1.594341e-004 -1.856653e-001
    outer loop
      vertex  2.626245e+001  1.000000e+001  2.288885e+001
      vertex  2.634733e+001  5.000000e+001  2.330371e+001
      vertex  2.639418e+001  1.000000e+001  2.358599e+001
    endloop
  endfacet
  facet normal  9.909498e-001  2.132907e-004 -1.342322e-001
    outer loop
      vertex  2.639418e+001  1.000000e+001  2.358599e+001
      vertex  2.634733e+001  5.000000e+001  2.330371e+001
      vertex  2.646176e+001  5.000000e+001  2.414843e+001
    endloop
  endfacet
  facet normal  9.510565e-001  2.111051e-004 -3.090174e-001
    outer loop
      vertex  2.589423e+001  5.000000e+001  2.166194e+001
      vertex  2.615765e+001  5.000000e+001  2.247265e+001
      vertex  2.607907e+001  1.000000e+001  2.220348e+001
    endloop
  endfacet
  facet normal  9.463926e-001  0.000000e+000 -3.230186e-001
    outer loop
      vertex  2.589423e+001  5.000000e+001  2.166194e+001
      vertex  2.607907e+001  1.000000e+001  2.220348e+001
      vertex  2.607907e+001  0.000000e+000  2.220348e+001
    endloop
  endfacet
  facet normal  9.411941e-001 -1.800281e-004 -3.378661e-001
    outer loop
      vertex  2.589423e+001  5.000000e+001  2.166194e+001
      vertex  2.607907e+001  0.000000e+000  2.220348e+001
      vertex  2.578483e+001  0.000000e+000  2.138382e+001
    endloop
  endfacet
  facet normal  9.195274e-001  1.742045e-004 -3.930258e-001
    outer loop
      vertex  2.589423e+001  5.000000e+001  2.166194e+001
      vertex  2.578483e+001  0.000000e+000  2.138382e+001
      vertex  2.555920e+001  5.000000e+001  2.087811e+001
    endloop
  endfacet
  facet normal -9.989489e-001  -0.000000e+000 -4.583554e-002
    outer loop
      vertex  7.500000e+000  0.000000e+000  2.500000e+001
      vertex  7.500000e+000  5.000000e+001  2.500000e+001
      vertex  7.539917e+000  0.000000e+000  2.413004e+001
    endloop
  endfacet
  facet normal -9.989930e-001 -1.692446e-005 -4.486485e-002
    outer loop
      vertex  7.539917e+000  0.000000e+000  2.413004e+001
      vertex  7.500000e+000  5.000000e+001  2.500000e+001
      vertex  7.538244e+000  5.000000e+001  2.414843e+001
    endloop
  endfacet
  facet normal -9.909498e-001  1.620528e-005 -1.342333e-001
    outer loop
      vertex  7.539917e+000  0.000000e+000  2.413004e+001
      vertex  7.538244e+000  5.000000e+001  2.414843e+001
      vertex  7.652669e+000  5.000000e+001  2.330371e+001
    endloop
  endfacet
  facet normal  9.989931e-001  0.000000e+000 -4.486485e-002
    outer loop
      vertex  2.650000e+001  5.000000e+001  2.500000e+001
      vertex  2.650000e+001  1.000000e+001  2.500000e+001
      vertex  2.646176e+001  5.000000e+001  2.414843e+001
    endloop
  endfacet
  facet normal  9.993026e-001  1.604594e-004 -3.734168e-002
    outer loop
      vertex  2.646176e+001  5.000000e+001  2.414843e+001
      vertex  2.650000e+001  1.000000e+001  2.500000e+001
      vertex  2.647351e+001  1.000000e+001  2.429102e+001
    endloop
  endfacet
  facet normal  9.937294e-001 -1.066499e-004 -1.118123e-001
    outer loop
      vertex  2.646176e+001  5.000000e+001  2.414843e+001
      vertex  2.647351e+001  1.000000e+001  2.429102e+001
      vertex  2.639418e+001  1.000000e+001  2.358599e+001
    endloop
  endfacet
  facet normal  0.000000e+000  1.000000e+000  0.000000e+000
    outer loop
      vertex  4.505333e+001  1.000000e+001  2.220348e+001
      vertex  2.607907e+001  1.000000e+001  2.220348e+001
      vertex  2.626245e+001  1.000000e+001  2.288885e+001
    endloop
  endfacet
  facet normal  -0.000000e+000  1.000000e+000  0.000000e+000
    outer loop
      vertex  4.505333e+001  1.000000e+001  2.220348e+001
      vertex  2.626245e+001  1.000000e+001  2.288885e+001
      vertex  2.639418e+001  1.000000e+001  2.358599e+001
    endloop
  endfacet
  facet normal  -0.000000e+000  9.999999e-001  0.000000e+000
    outer loop
      vertex  4.505333e+001  1.000000e+001  2.220348e+001
      vertex  2.639418e+001  1.000000e+001  2.358599e+001
      vertex  2.647351e+001  1.000000e+001  2.429102e+001
    endloop
  endfacet
  facet normal  -0.000000e+000  1.000000e+000  0.000000e+000
    outer loop
      vertex  4.505333e+001  1.000000e+001  2.220348e+001
      vertex  2.647351e+001  1.000000e+001  2.429102e+001
      vertex  2.650000e+001  1.000000e+001  2.500000e+001
    endloop
  endfacet
  facet normal  -0.000000e+000  9.999999e-001  -0.000000e+000
    outer loop
      vertex  4.505333e+001  1.000000e+001  2.220348e+001
      vertex  2.650000e+001  1.000000e+001  2.500000e+001
      vertex  2.647289e+001  1.000000e+001  2.571714e+001
    endloop
  endfacet
  facet normal  -0.000000e+000  9.999999e-001  -0.000000e+000
    outer loop
      vertex  4.505333e+001  1.000000e+001  2.220348e+001
      vertex  2.647289e+001  1.000000e+001  2.571714e+001
      vertex  2.639173e+001  1.000000e+001  2.643018e+001
    endloop
  endfacet
  facet normal  -0.000000e+000  1.000000e+000  -0.000000e+000
    outer loop
      vertex  4.505333e+001  1.000000e+001  2.220348e+001
      vertex  2.639173e+001  1.000000e+001  2.643018e+001
      vertex  2.625697e+001  1.000000e+001  2.713506e+001
    endloop
  endfacet
  facet normal  -0.000000e+000  1.000000e+000  -0.000000e+000
    outer loop
      vertex  4.505333e+001  1.000000e+001  2.220348e+001
      vertex  2.625697e+001  1.000000e+001  2.713506e+001
      vertex  2.606939e+001  1.000000e+001  2.782776e+001
    endloop
  endfacet
  facet normal  -0.000000e+000  1.000000e+000  0.000000e+000
    outer loop
      vertex  4.505333e+001  1.000000e+001  2.220348e+001
      vertex  2.606939e+001  1.000000e+001  2.782776e+001
      vertex  4.505333e+001  1.000000e+001  2.782776e+001
    endloop
  endfacet
  facet normal  1.000000e+000  0.000000e+000  0.000000e+000
    outer loop
      vertex  4.505333e+001  0.000000e+000  2.220348e+001
      vertex  4.505333e+001  1.000000e+001  2.220348e+001
      vertex  4.505333e+001  0.000000e+000  2.782776e+001
    endloop
  endfacet
  facet normal  1.000000e+000  -0.000000e+000  0.000000e+000
    outer loop
      vertex  4.505333e+001  0.000000e+000  2.782776e+001
      vertex  4.505333e+001  1.000000e+001  2.220348e+001
      vertex  4.505333e+001  1.000000e+001  2.782776e+001
    endloop
  endfacet
  facet normal  0.000000e+000  1.000000e+000  0.000000e+000
    outer loop
      vertex  1.657378e+001  5.000000e+001  3.449043e+001
      vertex  1.742622e+001  5.000000e+001  3.449043e+001
      vertex  1.572478e+001  5.000000e+001  3.441402e+001
    endloop
  endfacet
  facet normal  0.000000e+000  1.000000e+000  0.000000e+000
    outer loop
      vertex  1.572478e+001  5.000000e+001  3.441402e+001
      vertex  1.742622e+001  5.000000e+001  3.449043e+001
      vertex  1.827522e+001  5.000000e+001  3.441402e+001
    endloop
  endfacet
  facet normal  0.000000e+000  1.000000e+000  0.000000e+000
    outer loop
      vertex  1.572478e+001  5.000000e+001  3.441402e+001
      vertex  1.827522e+001  5.000000e+001  3.441402e+001
      vertex  1.488605e+001  5.000000e+001  3.426181e+001
    endloop
  endfacet
  facet normal  0.000000e+000  9.999999e-001  0.000000e+000
    outer loop
      vertex  1.488605e+001  5.000000e+001  3.426181e+001
      vertex  1.827522e+001  5.000000e+001  3.441402e+001
      vertex  1.911395e+001  5.000000e+001  3.426181e+001
    endloop
  endfacet
  facet normal  0.000000e+000  1.000000e+000  0.000000e+000
    outer loop
      vertex  1.488605e+001  5.000000e+001  3.426181e+001
      vertex  1.911395e+001  5.000000e+001  3.426181e+001
      vertex  1.406434e+001  5.000000e+001  3.403504e+001
    endloop
  endfacet
  facet normal  0.000000e+000  1.000000e+000  0.000000e+000
    outer loop
      vertex  1.406434e+001  5.000000e+001  3.403504e+001
      vertex  1.911395e+001  5.000000e+001  3.426181e+001
      vertex  1.993566e+001  5.000000e+001  3.403504e+001
    endloop
  endfacet
  facet normal  0.000000e+000  1.000000e+000  0.000000e+000
    outer loop
      vertex  1.406434e+001  5.000000e+001  3.403504e+001
      vertex  1.993566e+001  5.000000e+001  3.403504e+001
      vertex  1.326626e+001  5.000000e+001  3.373552e+001
    endloop
  endfacet
  facet normal  0.000000e+000  9.999999e-001  0.000000e+000
    outer loop
      vertex  1.326626e+001  5.000000e+001  3.373552e+001
      vertex  1.993566e+001  5.000000e+001  3.403504e+001
      vertex  2.073374e+001  5.000000e+001  3.373552e+001
    endloop
  endfacet
  facet normal  0.000000e+000  1.000000e+000  0.000000e+000
    outer loop
      vertex  1.326626e+001  5.000000e+001  3.373552e+001
      vertex  2.073374e+001  5.000000e+001  3.373552e+001
      vertex  1.249825e+001  5.000000e+001  3.336566e+001
    endloop
  endfacet
  facet normal  0.000000e+000  9.999999e-001  0.000000e+000
    outer loop
      vertex  1.249825e+001  5.000000e+001  3.336566e+001
      vertex  2.073374e+001  5.000000e+001  3.373552e+001
      vertex  2.150175e+001  5.000000e+001  3.336566e+001
    endloop
  endfacet
  facet normal  0.000000e+000  1.000000e+000  0.000000e+000
    outer loop
      vertex  1.249825e+001  5.000000e+001  3.336566e+001
      vertex  2.150175e+001  5.000000e+001  3.336566e+001
      vertex  1.176648e+001  5.000000e+001  3.292845e+001
    endloop
  endfacet
  facet normal  0.000000e+000  1.000000e+000  0.000000e+000
    outer loop
      vertex  1.176648e+001  5.000000e+001  3.292845e+001
      vertex  2.150175e+001  5.000000e+001  3.336566e+001
      vertex  2.223352e+001  5.000000e+001  3.292845e+001
    endloop
  endfacet
  facet normal  0.000000e+000  9.999999e-001  0.000000e+000
    outer loop
      vertex  1.176648e+001  5.000000e+001  3.292845e+001
      vertex  2.223352e+001  5.000000e+001  3.292845e+001
      vertex  1.107685e+001  5.000000e+001  3.242740e+001
    endloop
  endfacet
  facet normal  0.000000e+000  1.000000e+000  0.000000e+000
    outer loop
      vertex  1.107685e+001  5.000000e+001  3.242740e+001
      vertex  2.223352e+001  5.000000e+001  3.292845e+001
      vertex  2.292315e+001  5.000000e+001  3.242740e+001
    endloop
  endfacet
  facet normal  0.000000e+000  1.000000e+000  0.000000e+000
    outer loop
      vertex  1.107685e+001  5.000000e+001  3.242740e+001
      vertex  2.292315e+001  5.000000e+001  3.242740e+001
      vertex  1.043491e+001  5.000000e+001  3.186655e+001
    endloop
  endfacet
  facet normal  0.000000e+000  1.000000e+000  0.000000e+000
    outer loop
      vertex  1.043491e+001  5.000000e+001  3.186655e+001
      vertex  2.292315e+001  5.000000e+001  3.242740e+001
      vertex  2.356510e+001  5.000000e+001  3.186655e+001
    endloop
  endfacet
  facet normal  0.000000e+000  1.000000e+000  0.000000e+000
    outer loop
      vertex  1.043491e+001  5.000000e+001  3.186655e+001
      vertex  2.356510e+001  5.000000e+001  3.186655e+001
      vertex  9.845821e+000  5.000000e+001  3.125042e+001
    endloop
  endfacet
  facet normal  0.000000e+000  9.999999e-001  0.000000e+000
    outer loop
      vertex  9.845821e+000  5.000000e+001  3.125042e+001
      vertex  2.356510e+001  5.000000e+001  3.186655e+001
      vertex  2.415418e+001  5.000000e+001  3.125042e+001
    endloop
  endfacet
  facet normal  0.000000e+000  1.000000e+000  0.000000e+000
    outer loop
      vertex  9.845821e+000  5.000000e+001  3.125042e+001
      vertex  2.415418e+001  5.000000e+001  3.125042e+001
      vertex  9.314339e+000  5.000000e+001  3.058396e+001
    endloop
  endfacet
  facet normal  0.000000e+000  1.000000e+000  0.000000e+000
    outer loop
      vertex  9.314339e+000  5.000000e+001  3.058396e+001
      vertex  2.415418e+001  5.000000e+001  3.125042e+001
      vertex  2.468566e+001  5.000000e+001  3.058396e+001
    endloop
  endfacet
  facet normal  0.000000e+000  1.000000e+000  0.000000e+000
    outer loop
      vertex  9.314339e+000  5.000000e+001  3.058396e+001
      vertex  2.468566e+001  5.000000e+001  3.058396e+001
      vertex  8.844736e+000  5.000000e+001  2.987254e+001
    endloop
  endfacet
  facet normal  0.000000e+000  1.000000e+000  0.000000e+000
    outer loop
      vertex  8.844736e+000  5.000000e+001  2.987254e+001
      vertex  2.468566e+001  5.000000e+001  3.058396e+001
      vertex  2.515526e+001  5.000000e+001  2.987254e+001
    endloop
  endfacet
  facet normal  0.000000e+000  1.000000e+000  0.000000e+000
    outer loop
      vertex  8.844736e+000  5.000000e+001  2.987254e+001
      vertex  2.515526e+001  5.000000e+001  2.987254e+001
      vertex  8.440796e+000  5.000000e+001  2.912189e+001
    endloop
  endfacet
  facet normal  0.000000e+000  1.000000e+000  0.000000e+000
    outer loop
      vertex  8.440796e+000  5.000000e+001  2.912189e+001
      vertex  2.515526e+001  5.000000e+001  2.987254e+001
      vertex  2.555920e+001  5.000000e+001  2.912189e+001
    endloop
  endfacet
  facet normal  0.000000e+000  1.000000e+000  0.000000e+000
    outer loop
      vertex  8.440796e+000  5.000000e+001  2.912189e+001
      vertex  2.555920e+001  5.000000e+001  2.912189e+001
      vertex  8.105769e+000  5.000000e+001  2.833806e+001
    endloop
  endfacet
  facet normal  0.000000e+000  9.999999e-001  0.000000e+000
    outer loop
      vertex  8.105769e+000  5.000000e+001  2.833806e+001
      vertex  2.555920e+001  5.000000e+001  2.912189e+001
      vertex  2.589423e+001  5.000000e+001  2.833806e+001
    endloop
  endfacet
  facet normal  0.000000e+000  1.000000e+000  0.000000e+000
    outer loop
      vertex  8.105769e+000  5.000000e+001  2.833806e+001
      vertex  2.589423e+001  5.000000e+001  2.833806e+001
      vertex  7.842353e+000  5.000000e+001  2.752735e+001
    endloop
  endfacet
  facet normal  0.000000e+000  9.999999e-001  0.000000e+000
    outer loop
      vertex  7.842353e+000  5.000000e+001  2.752735e+001
      vertex  2.589423e+001  5.000000e+001  2.833806e+001
      vertex  2.615765e+001  5.000000e+001  2.752735e+001
    endloop
  endfacet
  facet normal  0.000000e+000  1.000000e+000  0.000000e+000
    outer loop
      vertex  7.842353e+000  5.000000e+001  2.752735e+001
      vertex  2.615765e+001  5.000000e+001  2.752735e+001
      vertex  7.652669e+000  5.000000e+001  2.669629e+001
    endloop
  endfacet
  facet normal  0.000000e+000  1.000000e+000  0.000000e+000
    outer loop
      vertex  7.652669e+000  5.000000e+001  2.669629e+001
      vertex  2.615765e+001  5.000000e+001  2.752735e+001
      vertex  2.634733e+001  5.000000e+001  2.669629e+001
    endloop
  endfacet
  facet normal  0.000000e+000  1.000000e+000  0.000000e+000
    outer loop
      vertex  7.652669e+000  5.000000e+001  2.669629e+001
      vertex  2.634733e+001  5.000000e+001  2.669629e+001
      vertex  7.538244e+000  5.000000e+001  2.585157e+001
    endloop
  endfacet
  facet normal  0.000000e+000  9.999999e-001  0.000000e+000
    outer loop
      vertex  7.538244e+000  5.000000e+001  2.585157e+001
      vertex  2.634733e+001  5.000000e+001  2.669629e+001
      vertex  2.646176e+001  5.000000e+001  2.585157e+001
    endloop
  endfacet
  facet normal  0.000000e+000  1.000000e+000  0.000000e+000
    outer loop
      vertex  7.538244e+000  5.000000e+001  2.585157e+001
      vertex  2.646176e+001  5.000000e+001  2.585157e+001
      vertex  7.500000e+000  5.000000e+001  2.500000e+001
    endloop
  endfacet
  facet normal  0.000000e+000  1.000000e+000  0.000000e+000
    outer loop
      vertex  7.500000e+000  5.000000e+001  2.500000e+001
      vertex  2.646176e+001  5.000000e+001  2.585157e+001
      vertex  2.650000e+001  5.000000e+001  2.500000e+001
    endloop
  endfacet
  facet normal  0.000000e+000  1.000000e+000  0.000000e+000
    outer loop
      vertex  7.500000e+000  5.000000e+001  2.500000e+001
      vertex  2.650000e+001  5.000000e+001  2.500000e+001
      vertex  7.538244e+000  5.000000e+001  2.414843e+001
    endloop
  endfacet
  facet normal  0.000000e+000  1.000000e+000  0.000000e+000
    outer loop
      vertex  7.538244e+000  5.000000e+001  2.414843e+001
      vertex  2.650000e+001  5.000000e+001  2.500000e+001
      vertex  2.646176e+001  5.000000e+001  2.414843e+001
    endloop
  endfacet
  facet normal  0.000000e+000  9.999999e-001  0.000000e+000
    outer loop
      vertex  7.538244e+000  5.000000e+001  2.414843e+001
      vertex  2.646176e+001  5.000000e+001  2.414843e+001
      vertex  7.652669e+000  5.000000e+001  2.330371e+001
    endloop
  endfacet
  facet normal  0.000000e+000  1.000000e+000  0.000000e+000
    outer loop
      vertex  7.652669e+000  5.000000e+001  2.330371e+001
      vertex  2.646176e+001  5.000000e+001  2.414843e+001
      vertex  2.634733e+001  5.000000e+001  2.330371e+001
    endloop
  endfacet
  facet normal  0.000000e+000  1.000000e+000  0.000000e+000
    outer loop
      vertex  7.652669e+000  5.000000e+001  2.330371e+001
      vertex  2.634733e+001  5.000000e+001  2.330371e+001
      vertex  7.842353e+000  5.000000e+001  2.247265e+001
    endloop
  endfacet
  facet normal  0.000000e+000  1.000000e+000  0.000000e+000
    outer loop
      vertex  7.842353e+000  5.000000e+001  2.247265e+001
      vertex  2.634733e+001  5.000000e+001  2.330371e+001
      vertex  2.615765e+001  5.000000e+001  2.247265e+001
    endloop
  endfacet
  facet normal  0.000000e+000  9.999999e-001  0.000000e+000
    outer loop
      vertex  7.842353e+000  5.000000e+001  2.247265e+001
      vertex  2.615765e+001  5.000000e+001  2.247265e+001
      vertex  8.105769e+000  5.000000e+001  2.166194e+001
    endloop
  endfacet
  facet normal  0.000000e+000  1.000000e+000  0.000000e+000
    outer loop
      vertex  8.105769e+000  5.000000e+001  2.166194e+001
      vertex  2.615765e+001  5.000000e+001  2.247265e+001
      vertex  2.589423e+001  5.000000e+001  2.166194e+001
    endloop
  endfacet
  facet normal  0.000000e+000  9.999999e-001  0.000000e+000
    outer loop
      vertex  8.105769e+000  5.000000e+001  2.166194e+001
      vertex  2.589423e+001  5.000000e+001  2.166194e+001
      vertex  8.440796e+000  5.000000e+001  2.087811e+001
    endloop
  endfacet
  facet normal  0.000000e+000  1.000000e+000  0.000000e+000
    outer loop
      vertex  8.440796e+000  5.000000e+001  2.087811e+001
      vertex  2.589423e+001  5.000000e+001  2.166194e+001
      vertex  2.555920e+001  5.000000e+001  2.087811e+001
    endloop
  endfacet
  facet normal  0.000000e+000  1.000000e+000  0.000000e+000
    outer loop
      vertex  8.440796e+000  5.000000e+001  2.087811e+001
      vertex  2.555920e+001  5.000000e+001  2.087811e+001
      vertex  8.844736e+000  5.000000e+001  2.012746e+001
    endloop
  endfacet
  facet normal  0.000000e+000  1.000000e+000  0.000000e+000
    outer loop
      vertex  8.844736e+000  5.000000e+001  2.012746e+001
      vertex  2.555920e+001  5.000000e+001  2.087811e+001
      vertex  2.515526e+001  5.000000e+001  2.012746e+001
    endloop
  endfacet
  facet normal  0.000000e+000  1.000000e+000  0.000000e+000
    outer loop
      vertex  8.844736e+000  5.000000e+001  2.012746e+001
      vertex  2.515526e+001  5.000000e+001  2.012746e+001
      vertex  9.314339e+000  5.000000e+001  1.941604e+001
    endloop
  endfacet
  facet normal  0.000000e+000  1.000000e+000  0.000000e+000
    outer loop
      vertex  9.314339e+000  5.000000e+001  1.941604e+001
      vertex  2.515526e+001  5.000000e+001  2.012746e+001
      vertex  2.468566e+001  5.000000e+001  1.941604e+001
    endloop
  endfacet
  facet normal  0.000000e+000  1.000000e+000  0.000000e+000
    outer loop
      vertex  9.314339e+000  5.000000e+001  1.941604e+001
      vertex  2.468566e+001  5.000000e+001  1.941604e+001
      vertex  9.845821e+000  5.000000e+001  1.874958e+001
    endloop
  endfacet
  facet normal  0.000000e+000  1.000000e+000  0.000000e+000
    outer loop
      vertex  9.845821e+000  5.000000e+001  1.874958e+001
      vertex  2.468566e+001  5.000000e+001  1.941604e+001
      vertex  2.415418e+001  5.000000e+001  1.874958e+001
    endloop
  endfacet
  facet normal  0.000000e+000  9.999999e-001  0.000000e+000
    outer loop
      vertex  9.845821e+000  5.000000e+001  1.874958e+001
      vertex  2.415418e+001  5.000000e+001  1.874958e+001
      vertex  1.043491e+001  5.000000e+001  1.813345e+001
    endloop
  endfacet
  facet normal  0.000000e+000  1.000000e+000  0.000000e+000
    outer loop
      vertex  1.043491e+001  5.000000e+001  1.813345e+001
      vertex  2.415418e+001  5.000000e+001  1.874958e+001
      vertex  2.356510e+001  5.000000e+001  1.813345e+001
    endloop
  endfacet
  facet normal  0.000000e+000  1.000000e+000  0.000000e+000
    outer loop
      vertex  1.043491e+001  5.000000e+001  1.813345e+001
      vertex  2.356510e+001  5.000000e+001  1.813345e+001
      vertex  1.107685e+001  5.000000e+001  1.757260e+001
    endloop
  endfacet
  facet normal  0.000000e+000  1.000000e+000  0.000000e+000
    outer loop
      vertex  1.107685e+001  5.000000e+001  1.757260e+001
      vertex  2.356510e+001  5.000000e+001  1.813345e+001
      vertex  2.292315e+001  5.000000e+001  1.757260e+001
    endloop
  endfacet
  facet normal  0.000000e+000  1.000000e+000  0.000000e+000
    outer loop
      vertex  1.107685e+001  5.000000e+001  1.757260e+001
      vertex  2.292315e+001  5.000000e+001  1.757260e+001
      vertex  1.176648e+001  5.000000e+001  1.707155e+001
    endloop
  endfacet
  facet normal  0.000000e+000  1.000000e+000  0.000000e+000
    outer loop
      vertex  1.176648e+001  5.000000e+001  1.707155e+001
      vertex  2.292315e+001  5.000000e+001  1.757260e+001
      vertex  2.223352e+001  5.000000e+001  1.707155e+001
    endloop
  endfacet
  facet normal  0.000000e+000  1.000000e+000  0.000000e+000
    outer loop
      vertex  1.176648e+001  5.000000e+001  1.707155e+001
      vertex  2.223352e+001  5.000000e+001  1.707155e+001
      vertex  1.249825e+001  5.000000e+001  1.663434e+001
    endloop
  endfacet
  facet normal  0.000000e+000  1.000000e+000  0.000000e+000
    outer loop
      vertex  1.249825e+001  5.000000e+001  1.663434e+001
      vertex  2.223352e+001  5.000000e+001  1.707155e+001
      vertex  2.150175e+001  5.000000e+001  1.663434e+001
    endloop
  endfacet
  facet normal  0.000000e+000  9.999999e-001  0.000000e+000
    outer loop
      vertex  1.249825e+001  5.000000e+001  1.663434e+001
      vertex  2.150175e+001  5.000000e+001  1.663434e+001
      vertex  1.326626e+001  5.000000e+001  1.626449e+001
    endloop
  endfacet
  facet normal  0.000000e+000  1.000000e+000  0.000000e+000
    outer loop
      vertex  1.326626e+001  5.000000e+001  1.626449e+001
      vertex  2.150175e+001  5.000000e+001  1.663434e+001
      vertex  2.073374e+001  5.000000e+001  1.626449e+001
    endloop
  endfacet
  facet normal  0.000000e+000  9.999999e-001  0.000000e+000
    outer loop
      vertex  1.326626e+001  5.000000e+001  1.626449e+001
      vertex  2.073374e+001  5.000000e+001  1.626449e+001
      vertex  1.406434e+001  5.000000e+001  1.596496e+001
    endloop
  endfacet
  facet normal  0.000000e+000  1.000000e+000  0.000000e+000
    outer loop
      vertex  1.406434e+001  5.000000e+001  1.596496e+001
      vertex  2.073374e+001  5.000000e+001  1.626449e+001
      vertex  1.993566e+001  5.000000e+001  1.596496e+001
    endloop
  endfacet
  facet normal  0.000000e+000  1.000000e+000  0.000000e+000
    outer loop
      vertex  1.406434e+001  5.000000e+001  1.596496e+001
      vertex  1.993566e+001  5.000000e+001  1.596496e+001
      vertex  1.488605e+001  5.000000e+001  1.573818e+001
    endloop
  endfacet
  facet normal  0.000000e+000  1.000000e+000  0.000000e+000
    outer loop
      vertex  1.488605e+001  5.000000e+001  1.573818e+001
      vertex  1.993566e+001  5.000000e+001  1.596496e+001
      vertex  1.911395e+001  5.000000e+001  1.573818e+001
    endloop
  endfacet
  facet normal  0.000000e+000  1.000000e+000  0.000000e+000
    outer loop
      vertex  1.488605e+001  5.000000e+001  1.573818e+001
      vertex  1.911395e+001  5.000000e+001  1.573818e+001
      vertex  1.572478e+001  5.000000e+001  1.558598e+001
    endloop
  endfacet
  facet normal  0.000000e+000  1.000000e+000  0.000000e+000
    outer loop
      vertex  1.572478e+001  5.000000e+001  1.558598e+001
      vertex  1.911395e+001  5.000000e+001  1.573818e+001
      vertex  1.827522e+001  5.000000e+001  1.558598e+001
    endloop
  endfacet
  facet normal  0.000000e+000  1.000000e+000  0.000000e+000
    outer loop
      vertex  1.572478e+001  5.000000e+001  1.558598e+001
      vertex  1.827522e+001  5.000000e+001  1.558598e+001
      vertex  1.657378e+001  5.000000e+001  1.550957e+001
    endloop
  endfacet
  facet normal  0.000000e+000  1.000000e+000  0.000000e+000
    outer loop
      vertex  1.657378e+001  5.000000e+001  1.550957e+001
      vertex  1.827522e+001  5.000000e+001  1.558598e+001
      vertex  1.742622e+001  5.000000e+001  1.550957e+001
    endloop
  endfacet
endsolid CATIA STL
