G04*
G04 #@! TF.GenerationSoftware,Altium Limited,Altium Designer,22.2.1 (43)*
G04*
G04 Layer_Color=16711935*
%FSLAX23Y23*%
%MOIN*%
G70*
G04*
G04 #@! TF.SameCoordinates,341014A0-F451-4C88-BB74-CD236E81B47C*
G04*
G04*
G04 #@! TF.FilePolarity,Positive*
G04*
G01*
G75*
%ADD11C,0.008*%
%ADD12C,0.005*%
%ADD14C,0.004*%
D11*
X3934Y3290D02*
G03*
X3934Y3290I-4J0D01*
G01*
D12*
X4182Y3102D02*
Y3298D01*
X4008Y3102D02*
Y3298D01*
Y3102D02*
X4182D01*
X4008Y3298D02*
X4182D01*
D14*
X3618Y3507D02*
G03*
X3618Y3507I-20J0D01*
G01*
X3253Y3772D02*
G03*
X3253Y3772I-20J0D01*
G01*
X3503Y3171D02*
G03*
X3503Y3171I-20J0D01*
G01*
X3476Y3668D02*
X3634D01*
X3476Y3472D02*
X3634D01*
X3476D02*
Y3668D01*
X3634Y3472D02*
Y3668D01*
X3717Y3717D02*
Y3743D01*
X3703Y3717D02*
Y3743D01*
X3717D01*
X3703Y3717D02*
X3717D01*
X3742Y3617D02*
Y3643D01*
X3728Y3617D02*
Y3643D01*
X3742D01*
X3728Y3617D02*
X3742D01*
X3728Y3517D02*
Y3543D01*
X3742Y3517D02*
Y3543D01*
X3728Y3517D02*
X3742D01*
X3728Y3543D02*
X3742D01*
X3011Y3346D02*
X3098D01*
X3011Y3403D02*
X3098D01*
Y3346D02*
Y3403D01*
X3011Y3346D02*
Y3403D01*
X3148Y3346D02*
Y3403D01*
X3234Y3346D02*
Y3403D01*
X3148D02*
X3234D01*
X3148Y3346D02*
X3234D01*
X3269Y3737D02*
Y3933D01*
X3111Y3737D02*
Y3933D01*
Y3737D02*
X3269D01*
X3111Y3933D02*
X3269D01*
X3552Y3707D02*
X3578D01*
X3552Y3693D02*
X3578D01*
X3552D02*
Y3707D01*
X3578Y3693D02*
Y3707D01*
X3316Y3666D02*
X3384D01*
X3316Y3704D02*
X3384D01*
Y3666D02*
Y3704D01*
X3316Y3666D02*
Y3704D01*
X3182Y3968D02*
X3208D01*
X3182Y3982D02*
X3208D01*
Y3968D02*
Y3982D01*
X3182Y3968D02*
Y3982D01*
X3003Y3817D02*
Y3843D01*
X3017Y3817D02*
Y3843D01*
X3003Y3817D02*
X3017D01*
X3003Y3843D02*
X3017D01*
X3278Y3968D02*
Y3982D01*
X3252Y3968D02*
Y3982D01*
Y3968D02*
X3278D01*
X3252Y3982D02*
X3278D01*
X3382Y3848D02*
X3408D01*
X3382Y3862D02*
X3408D01*
Y3848D02*
Y3862D01*
X3382Y3848D02*
Y3862D01*
X3372Y3782D02*
Y3808D01*
X3358Y3782D02*
Y3808D01*
X3372D01*
X3358Y3782D02*
X3372D01*
X3371Y3891D02*
X3439D01*
X3371Y3929D02*
X3439D01*
Y3891D02*
Y3929D01*
X3371Y3891D02*
Y3929D01*
X3411Y3829D02*
X3479D01*
X3411Y3791D02*
X3479D01*
X3411D02*
Y3829D01*
X3479Y3791D02*
Y3829D01*
X3645Y3136D02*
Y3294D01*
X3448Y3136D02*
Y3294D01*
X3645D01*
X3448Y3136D02*
X3645D01*
X3514Y2987D02*
Y3013D01*
X3528Y2987D02*
Y3013D01*
X3514Y2987D02*
X3528D01*
X3514Y3013D02*
X3528D01*
X3448Y2977D02*
X3474D01*
X3448Y2963D02*
X3474D01*
X3448D02*
Y2977D01*
X3474Y2963D02*
Y2977D01*
X3444Y3007D02*
Y3033D01*
X3458Y3007D02*
Y3033D01*
X3444Y3007D02*
X3458D01*
X3444Y3033D02*
X3458D01*
X3493Y2952D02*
X3519D01*
X3493Y2938D02*
X3519D01*
X3493D02*
Y2952D01*
X3519Y2938D02*
Y2952D01*
X3617Y2488D02*
X3893D01*
Y2212D02*
Y2488D01*
X3617Y2212D02*
X3893D01*
X3617D02*
Y2488D01*
X4478Y3151D02*
Y3209D01*
X4392Y3151D02*
Y3209D01*
Y3151D02*
X4478D01*
X4392Y3209D02*
X4478D01*
X4297Y3180D02*
Y3193D01*
X4271Y3180D02*
Y3193D01*
Y3180D02*
X4297D01*
X4271Y3193D02*
X4297D01*
X4293Y3208D02*
Y3222D01*
X4267Y3208D02*
Y3222D01*
Y3208D02*
X4293D01*
X4267Y3222D02*
X4293D01*
X4620Y2725D02*
Y3925D01*
X4720Y2725D02*
Y3925D01*
X4620Y2725D02*
X4720D01*
X4620Y3925D02*
X4720D01*
X4397Y3419D02*
X4483D01*
X4397Y3361D02*
X4483D01*
X4397D02*
Y3419D01*
X4483Y3361D02*
Y3419D01*
X4478Y3256D02*
Y3314D01*
X4392Y3256D02*
Y3314D01*
Y3256D02*
X4478D01*
X4392Y3314D02*
X4478D01*
M02*
