M48
;Layer_Color=9474304
;FILE_FORMAT=2:4
INCH,LZ
;TYPE=PLATED
T1F00S00C0.0280
T2F00S00C0.0315
T3F00S00C0.0433
T4F00S00C0.0630
T5F00S00C0.1378
%
T01
X036211Y029798
X0434Y02995
X04305Y0311
X04125Y0313
Y03255
X0425Y034318
X0447Y03475
X03585Y03905
X0349Y0391
X0324Y03635
T02
X032424Y02415
X035376
T03
X0467Y02775
Y02875
Y02975
Y03075
Y03175
Y03275
Y03375
Y03475
Y03575
Y03675
Y03775
Y03875
T04
X03655Y0225
X03755Y0235
X03655Y0245
X03855
Y0225
T05
X04395Y0253
X0278Y03105
X03785Y0438
M30
