G04*
G04 #@! TF.GenerationSoftware,Altium Limited,Altium Designer,22.2.1 (43)*
G04*
G04 Layer_Physical_Order=2*
G04 Layer_Color=16711680*
%FSLAX23Y23*%
%MOIN*%
G70*
G04*
G04 #@! TF.SameCoordinates,341014A0-F451-4C88-BB74-CD236E81B47C*
G04*
G04*
G04 #@! TF.FilePolarity,Positive*
G04*
G01*
G75*
%ADD42C,0.051*%
%ADD43R,0.051X0.051*%
%ADD48C,0.015*%
%ADD49C,0.039*%
%ADD50C,0.020*%
%ADD52C,0.197*%
%ADD53C,0.094*%
%ADD54C,0.063*%
%ADD55R,0.063X0.063*%
%ADD56C,0.050*%
G36*
X3884Y4502D02*
X3950Y4495D01*
X4016Y4484D01*
X4080Y4469D01*
X4144Y4451D01*
X4206Y4429D01*
X4268Y4404D01*
X4327Y4375D01*
X4385Y4343D01*
X4441Y4307D01*
X4495Y4269D01*
X4547Y4228D01*
X4597Y4184D01*
X4644Y4137D01*
X4688Y4087D01*
X4729Y4035D01*
X4767Y3981D01*
X4803Y3925D01*
X4835Y3867D01*
X4864Y3808D01*
X4889Y3746D01*
X4911Y3684D01*
X4929Y3620D01*
X4944Y3556D01*
X4955Y3490D01*
X4962Y3424D01*
X4966Y3358D01*
Y3325D01*
X4966Y3292D01*
X4962Y3226D01*
X4955Y3160D01*
X4944Y3094D01*
X4929Y3030D01*
X4911Y2966D01*
X4889Y2904D01*
X4864Y2842D01*
X4835Y2783D01*
X4803Y2725D01*
X4767Y2669D01*
X4729Y2615D01*
X4688Y2563D01*
X4644Y2513D01*
X4597Y2466D01*
X4547Y2422D01*
X4495Y2381D01*
X4441Y2343D01*
X4385Y2307D01*
X4327Y2275D01*
X4268Y2246D01*
X4206Y2221D01*
X4144Y2199D01*
X4080Y2181D01*
X4016Y2166D01*
X3950Y2155D01*
X3884Y2148D01*
X3818Y2144D01*
X3752D01*
X3686Y2148D01*
X3620Y2155D01*
X3554Y2166D01*
X3490Y2181D01*
X3426Y2199D01*
X3364Y2221D01*
X3302Y2246D01*
X3243Y2275D01*
X3185Y2307D01*
X3129Y2343D01*
X3075Y2381D01*
X3023Y2422D01*
X2973Y2466D01*
X2926Y2513D01*
X2882Y2563D01*
X2841Y2615D01*
X2803Y2669D01*
X2767Y2725D01*
X2735Y2783D01*
X2706Y2842D01*
X2681Y2904D01*
X2659Y2966D01*
X2641Y3030D01*
X2626Y3094D01*
X2615Y3160D01*
X2608Y3226D01*
X2604Y3292D01*
Y3325D01*
Y3358D01*
X2608Y3424D01*
X2615Y3490D01*
X2626Y3556D01*
X2641Y3620D01*
X2659Y3684D01*
X2681Y3746D01*
X2706Y3808D01*
X2735Y3867D01*
X2767Y3925D01*
X2803Y3981D01*
X2841Y4035D01*
X2882Y4087D01*
X2926Y4137D01*
X2973Y4184D01*
X3023Y4228D01*
X3075Y4269D01*
X3129Y4307D01*
X3185Y4343D01*
X3243Y4375D01*
X3302Y4404D01*
X3364Y4429D01*
X3426Y4451D01*
X3490Y4469D01*
X3554Y4484D01*
X3620Y4495D01*
X3686Y4502D01*
X3752Y4506D01*
X3818D01*
X3884Y4502D01*
D02*
G37*
%LPC*%
G36*
X3790Y4488D02*
Y4385D01*
X3893D01*
X3892Y4397D01*
X3888Y4414D01*
X3882Y4429D01*
X3873Y4444D01*
X3862Y4457D01*
X3849Y4468D01*
X3834Y4477D01*
X3819Y4483D01*
X3802Y4487D01*
X3790Y4488D01*
D02*
G37*
G36*
X3780D02*
X3768Y4487D01*
X3751Y4483D01*
X3736Y4477D01*
X3721Y4468D01*
X3708Y4457D01*
X3697Y4444D01*
X3688Y4429D01*
X3682Y4414D01*
X3678Y4397D01*
X3677Y4385D01*
X3780D01*
Y4488D01*
D02*
G37*
G36*
X3893Y4375D02*
X3790D01*
Y4272D01*
X3802Y4273D01*
X3819Y4277D01*
X3834Y4283D01*
X3849Y4292D01*
X3862Y4303D01*
X3873Y4316D01*
X3882Y4331D01*
X3888Y4346D01*
X3892Y4363D01*
X3893Y4375D01*
D02*
G37*
G36*
X3780D02*
X3677D01*
X3678Y4363D01*
X3682Y4346D01*
X3688Y4331D01*
X3697Y4316D01*
X3708Y4303D01*
X3721Y4292D01*
X3736Y4283D01*
X3751Y4277D01*
X3768Y4273D01*
X3780Y4272D01*
Y4375D01*
D02*
G37*
G36*
X3490Y3943D02*
X3481Y3942D01*
X3473Y3939D01*
X3467Y3933D01*
X3461Y3927D01*
X3458Y3919D01*
X3457Y3910D01*
X3458Y3901D01*
X3461Y3893D01*
X3467Y3887D01*
X3473Y3881D01*
X3481Y3878D01*
X3490Y3877D01*
X3499Y3878D01*
X3507Y3881D01*
X3513Y3887D01*
X3519Y3893D01*
X3519Y3894D01*
X3554D01*
X3556Y3888D01*
X3562Y3882D01*
X3568Y3876D01*
X3576Y3873D01*
X3585Y3872D01*
X3594Y3873D01*
X3602Y3876D01*
X3608Y3882D01*
X3614Y3888D01*
X3617Y3896D01*
X3618Y3905D01*
X3617Y3914D01*
X3614Y3922D01*
X3608Y3928D01*
X3602Y3934D01*
X3594Y3937D01*
X3585Y3938D01*
X3576Y3937D01*
X3568Y3934D01*
X3562Y3928D01*
X3559Y3926D01*
X3519D01*
X3519Y3927D01*
X3513Y3933D01*
X3507Y3939D01*
X3499Y3942D01*
X3490Y3943D01*
D02*
G37*
G36*
X4670Y3915D02*
X4660Y3913D01*
X4650Y3909D01*
X4642Y3903D01*
X4636Y3895D01*
X4632Y3885D01*
X4630Y3875D01*
X4632Y3865D01*
X4636Y3855D01*
X4642Y3847D01*
X4650Y3841D01*
X4660Y3837D01*
X4670Y3835D01*
X4680Y3837D01*
X4690Y3841D01*
X4698Y3847D01*
X4704Y3855D01*
X4708Y3865D01*
X4710Y3875D01*
X4708Y3885D01*
X4704Y3895D01*
X4698Y3903D01*
X4690Y3909D01*
X4680Y3913D01*
X4670Y3915D01*
D02*
G37*
G36*
Y3815D02*
X4660Y3813D01*
X4650Y3809D01*
X4642Y3803D01*
X4636Y3795D01*
X4632Y3785D01*
X4630Y3775D01*
X4632Y3765D01*
X4636Y3755D01*
X4642Y3747D01*
X4650Y3741D01*
X4660Y3737D01*
X4670Y3735D01*
X4680Y3737D01*
X4690Y3741D01*
X4698Y3747D01*
X4704Y3755D01*
X4708Y3765D01*
X4710Y3775D01*
X4708Y3785D01*
X4704Y3795D01*
X4698Y3803D01*
X4690Y3809D01*
X4680Y3813D01*
X4670Y3815D01*
D02*
G37*
G36*
Y3715D02*
X4660Y3713D01*
X4650Y3709D01*
X4642Y3703D01*
X4636Y3695D01*
X4632Y3685D01*
X4630Y3675D01*
X4632Y3665D01*
X4636Y3655D01*
X4642Y3647D01*
X4650Y3641D01*
X4660Y3637D01*
X4670Y3635D01*
X4680Y3637D01*
X4690Y3641D01*
X4698Y3647D01*
X4704Y3655D01*
X4708Y3665D01*
X4710Y3675D01*
X4708Y3685D01*
X4704Y3695D01*
X4698Y3703D01*
X4690Y3709D01*
X4680Y3713D01*
X4670Y3715D01*
D02*
G37*
G36*
Y3615D02*
X4660Y3613D01*
X4650Y3609D01*
X4642Y3603D01*
X4636Y3595D01*
X4632Y3585D01*
X4630Y3575D01*
X4632Y3565D01*
X4636Y3555D01*
X4642Y3547D01*
X4650Y3541D01*
X4660Y3537D01*
X4670Y3535D01*
X4680Y3537D01*
X4690Y3541D01*
X4698Y3547D01*
X4704Y3555D01*
X4708Y3565D01*
X4710Y3575D01*
X4708Y3585D01*
X4704Y3595D01*
X4698Y3603D01*
X4690Y3609D01*
X4680Y3613D01*
X4670Y3615D01*
D02*
G37*
G36*
Y3515D02*
X4660Y3513D01*
X4650Y3509D01*
X4642Y3503D01*
X4636Y3495D01*
X4632Y3485D01*
X4630Y3475D01*
X4632Y3465D01*
X4636Y3455D01*
X4642Y3447D01*
X4650Y3441D01*
X4660Y3437D01*
X4670Y3435D01*
X4680Y3437D01*
X4690Y3441D01*
X4698Y3447D01*
X4704Y3455D01*
X4708Y3465D01*
X4710Y3475D01*
X4708Y3485D01*
X4704Y3495D01*
X4698Y3503D01*
X4690Y3509D01*
X4680Y3513D01*
X4670Y3515D01*
D02*
G37*
G36*
Y3415D02*
X4660Y3413D01*
X4650Y3409D01*
X4642Y3403D01*
X4636Y3395D01*
X4632Y3385D01*
X4630Y3375D01*
X4632Y3365D01*
X4636Y3355D01*
X4642Y3347D01*
X4650Y3341D01*
X4660Y3337D01*
X4670Y3335D01*
X4680Y3337D01*
X4690Y3341D01*
X4698Y3347D01*
X4704Y3355D01*
X4708Y3365D01*
X4710Y3375D01*
X4708Y3385D01*
X4704Y3395D01*
X4698Y3403D01*
X4690Y3409D01*
X4680Y3413D01*
X4670Y3415D01*
D02*
G37*
G36*
Y3315D02*
X4660Y3313D01*
X4650Y3309D01*
X4642Y3303D01*
X4636Y3295D01*
X4632Y3285D01*
X4630Y3275D01*
X4632Y3265D01*
X4636Y3255D01*
X4642Y3247D01*
X4650Y3241D01*
X4660Y3237D01*
X4670Y3235D01*
X4680Y3237D01*
X4690Y3241D01*
X4698Y3247D01*
X4704Y3255D01*
X4708Y3265D01*
X4710Y3275D01*
X4708Y3285D01*
X4704Y3295D01*
X4698Y3303D01*
X4690Y3309D01*
X4680Y3313D01*
X4670Y3315D01*
D02*
G37*
G36*
Y3215D02*
X4660Y3213D01*
X4650Y3209D01*
X4642Y3203D01*
X4636Y3195D01*
X4632Y3185D01*
X4630Y3175D01*
X4632Y3165D01*
X4636Y3155D01*
X4642Y3147D01*
X4650Y3141D01*
X4660Y3137D01*
X4670Y3135D01*
X4680Y3137D01*
X4690Y3141D01*
X4698Y3147D01*
X4704Y3155D01*
X4708Y3165D01*
X4710Y3175D01*
X4708Y3185D01*
X4704Y3195D01*
X4698Y3203D01*
X4690Y3209D01*
X4680Y3213D01*
X4670Y3215D01*
D02*
G37*
G36*
X2785Y3213D02*
Y3110D01*
X2888D01*
X2887Y3122D01*
X2883Y3139D01*
X2877Y3154D01*
X2868Y3169D01*
X2857Y3182D01*
X2844Y3193D01*
X2829Y3202D01*
X2814Y3208D01*
X2797Y3212D01*
X2785Y3213D01*
D02*
G37*
G36*
X2775D02*
X2763Y3212D01*
X2746Y3208D01*
X2731Y3202D01*
X2716Y3193D01*
X2703Y3182D01*
X2692Y3169D01*
X2683Y3154D01*
X2677Y3139D01*
X2673Y3122D01*
X2672Y3110D01*
X2775D01*
Y3213D01*
D02*
G37*
G36*
X4125Y3288D02*
X4116Y3287D01*
X4108Y3284D01*
X4102Y3278D01*
X4096Y3272D01*
X4093Y3264D01*
X4092Y3255D01*
X4093Y3246D01*
X4096Y3238D01*
X4102Y3232D01*
X4107Y3227D01*
Y3158D01*
X4102Y3153D01*
X4096Y3147D01*
X4093Y3139D01*
X4092Y3130D01*
X4093Y3121D01*
X4096Y3113D01*
X4102Y3107D01*
X4108Y3101D01*
X4116Y3098D01*
X4125Y3097D01*
X4134Y3098D01*
X4142Y3101D01*
X4148Y3107D01*
X4154Y3113D01*
X4157Y3121D01*
X4158Y3130D01*
X4157Y3139D01*
X4154Y3147D01*
X4148Y3153D01*
X4143Y3158D01*
Y3227D01*
X4148Y3232D01*
X4154Y3238D01*
X4157Y3246D01*
X4158Y3255D01*
X4157Y3264D01*
X4154Y3272D01*
X4148Y3278D01*
X4142Y3284D01*
X4134Y3287D01*
X4125Y3288D01*
D02*
G37*
G36*
X4250Y3465D02*
X4241Y3464D01*
X4233Y3461D01*
X4227Y3455D01*
X4221Y3448D01*
X4218Y3440D01*
X4217Y3432D01*
X4218Y3423D01*
X4221Y3415D01*
X4227Y3408D01*
X4233Y3403D01*
X4241Y3400D01*
X4250Y3399D01*
X4259Y3400D01*
X4259Y3400D01*
X4289Y3370D01*
Y3139D01*
X4288Y3139D01*
X4282Y3133D01*
X4276Y3127D01*
X4273Y3119D01*
X4272Y3110D01*
X4273Y3101D01*
X4276Y3093D01*
X4282Y3087D01*
X4288Y3081D01*
X4296Y3078D01*
X4305Y3077D01*
X4314Y3078D01*
X4322Y3081D01*
X4328Y3087D01*
X4334Y3093D01*
X4337Y3101D01*
X4338Y3110D01*
X4337Y3119D01*
X4334Y3127D01*
X4328Y3133D01*
X4322Y3139D01*
X4321Y3139D01*
Y3377D01*
X4319Y3383D01*
X4316Y3388D01*
X4282Y3422D01*
X4282Y3423D01*
X4283Y3432D01*
X4282Y3440D01*
X4279Y3448D01*
X4273Y3455D01*
X4267Y3461D01*
X4259Y3464D01*
X4250Y3465D01*
D02*
G37*
G36*
X4670Y3115D02*
X4660Y3113D01*
X4650Y3109D01*
X4642Y3103D01*
X4636Y3095D01*
X4632Y3085D01*
X4630Y3075D01*
X4632Y3065D01*
X4636Y3055D01*
X4642Y3047D01*
X4650Y3041D01*
X4660Y3037D01*
X4670Y3035D01*
X4680Y3037D01*
X4690Y3041D01*
X4698Y3047D01*
X4704Y3055D01*
X4708Y3065D01*
X4710Y3075D01*
X4708Y3085D01*
X4704Y3095D01*
X4698Y3103D01*
X4690Y3109D01*
X4680Y3113D01*
X4670Y3115D01*
D02*
G37*
G36*
X2888Y3100D02*
X2785D01*
Y2997D01*
X2797Y2998D01*
X2814Y3002D01*
X2829Y3008D01*
X2844Y3017D01*
X2857Y3028D01*
X2868Y3041D01*
X2877Y3056D01*
X2883Y3071D01*
X2887Y3088D01*
X2888Y3100D01*
D02*
G37*
G36*
X2775D02*
X2672D01*
X2673Y3088D01*
X2677Y3071D01*
X2683Y3056D01*
X2692Y3041D01*
X2703Y3028D01*
X2716Y3017D01*
X2731Y3008D01*
X2746Y3002D01*
X2763Y2998D01*
X2775Y2997D01*
Y3100D01*
D02*
G37*
G36*
X3240Y3668D02*
X3231Y3667D01*
X3223Y3664D01*
X3217Y3658D01*
X3211Y3652D01*
X3208Y3644D01*
X3207Y3635D01*
X3208Y3626D01*
X3211Y3618D01*
X3217Y3612D01*
X3223Y3606D01*
X3231Y3603D01*
X3240Y3602D01*
X3249Y3603D01*
X3257Y3606D01*
X3258Y3607D01*
X3493D01*
X3597Y3503D01*
Y3003D01*
X3592Y2996D01*
X3589Y2988D01*
X3588Y2980D01*
X3589Y2971D01*
X3592Y2963D01*
X3598Y2956D01*
X3605Y2951D01*
X3613Y2948D01*
X3617Y2947D01*
X3644Y2921D01*
X3650Y2916D01*
X3656Y2913D01*
X3663Y2913D01*
X4473D01*
X4480Y2913D01*
X4487Y2916D01*
X4493Y2921D01*
X4519Y2947D01*
X4642D01*
X4642Y2947D01*
X4650Y2941D01*
X4660Y2937D01*
X4670Y2935D01*
X4680Y2937D01*
X4690Y2941D01*
X4698Y2947D01*
X4704Y2955D01*
X4708Y2965D01*
X4710Y2975D01*
X4708Y2985D01*
X4704Y2995D01*
X4698Y3003D01*
X4690Y3009D01*
X4680Y3013D01*
X4670Y3015D01*
X4660Y3013D01*
X4650Y3009D01*
X4642Y3003D01*
X4642Y3003D01*
X4508D01*
X4501Y3002D01*
X4494Y2999D01*
X4488Y2995D01*
X4462Y2968D01*
X4367D01*
X4365Y2973D01*
X4369Y2978D01*
X4372Y2986D01*
X4373Y2995D01*
X4372Y3004D01*
X4372Y3004D01*
X4481Y3114D01*
X4484Y3119D01*
X4486Y3125D01*
Y3446D01*
X4487Y3446D01*
X4493Y3452D01*
X4499Y3458D01*
X4502Y3466D01*
X4503Y3475D01*
X4502Y3484D01*
X4499Y3492D01*
X4493Y3498D01*
X4487Y3504D01*
X4479Y3507D01*
X4470Y3508D01*
X4461Y3507D01*
X4453Y3504D01*
X4447Y3498D01*
X4441Y3492D01*
X4438Y3484D01*
X4437Y3475D01*
X4438Y3466D01*
X4441Y3458D01*
X4447Y3452D01*
X4453Y3446D01*
X4454Y3446D01*
Y3131D01*
X4349Y3027D01*
X4349Y3027D01*
X4340Y3028D01*
X4331Y3027D01*
X4323Y3024D01*
X4317Y3018D01*
X4311Y3012D01*
X4308Y3004D01*
X4307Y2995D01*
X4308Y2986D01*
X4311Y2978D01*
X4315Y2973D01*
X4313Y2968D01*
X3675D01*
X3653Y2990D01*
Y3515D01*
X3652Y3522D01*
X3649Y3529D01*
X3645Y3535D01*
X3525Y3655D01*
X3519Y3659D01*
X3512Y3662D01*
X3505Y3663D01*
X3258D01*
X3257Y3664D01*
X3249Y3667D01*
X3240Y3668D01*
D02*
G37*
G36*
X4670Y2915D02*
X4660Y2913D01*
X4650Y2909D01*
X4642Y2903D01*
X4636Y2895D01*
X4632Y2885D01*
X4630Y2875D01*
X4632Y2865D01*
X4636Y2855D01*
X4642Y2847D01*
X4650Y2841D01*
X4660Y2837D01*
X4670Y2835D01*
X4680Y2837D01*
X4690Y2841D01*
X4698Y2847D01*
X4704Y2855D01*
X4708Y2865D01*
X4710Y2875D01*
X4708Y2885D01*
X4704Y2895D01*
X4698Y2903D01*
X4690Y2909D01*
X4680Y2913D01*
X4670Y2915D01*
D02*
G37*
G36*
X4711Y2816D02*
X4675D01*
Y2780D01*
X4711D01*
Y2816D01*
D02*
G37*
G36*
X4665D02*
X4629D01*
Y2780D01*
X4665D01*
Y2816D01*
D02*
G37*
G36*
X4711Y2770D02*
X4675D01*
Y2734D01*
X4711D01*
Y2770D01*
D02*
G37*
G36*
X4665D02*
X4629D01*
Y2734D01*
X4665D01*
Y2770D01*
D02*
G37*
G36*
X4400Y2638D02*
Y2535D01*
X4503D01*
X4502Y2547D01*
X4498Y2564D01*
X4492Y2579D01*
X4483Y2594D01*
X4472Y2607D01*
X4459Y2618D01*
X4444Y2627D01*
X4429Y2633D01*
X4412Y2637D01*
X4400Y2638D01*
D02*
G37*
G36*
X4390D02*
X4378Y2637D01*
X4361Y2633D01*
X4346Y2627D01*
X4331Y2618D01*
X4318Y2607D01*
X4307Y2594D01*
X4298Y2579D01*
X4292Y2564D01*
X4288Y2547D01*
X4287Y2535D01*
X4390D01*
Y2638D01*
D02*
G37*
G36*
X4503Y2525D02*
X4400D01*
Y2422D01*
X4412Y2423D01*
X4429Y2427D01*
X4444Y2433D01*
X4459Y2442D01*
X4472Y2453D01*
X4483Y2466D01*
X4492Y2481D01*
X4498Y2496D01*
X4502Y2513D01*
X4503Y2525D01*
D02*
G37*
G36*
X4390D02*
X4287D01*
X4288Y2513D01*
X4292Y2496D01*
X4298Y2481D01*
X4307Y2466D01*
X4318Y2453D01*
X4331Y2442D01*
X4346Y2433D01*
X4361Y2427D01*
X4378Y2423D01*
X4390Y2422D01*
Y2525D01*
D02*
G37*
G36*
X3855Y2506D02*
X3841Y2504D01*
X3827Y2498D01*
X3816Y2489D01*
X3807Y2478D01*
X3801Y2464D01*
X3799Y2450D01*
X3801Y2436D01*
X3807Y2422D01*
X3816Y2411D01*
X3827Y2402D01*
X3841Y2396D01*
X3855Y2394D01*
X3869Y2396D01*
X3883Y2402D01*
X3894Y2411D01*
X3903Y2422D01*
X3909Y2436D01*
X3911Y2450D01*
X3909Y2464D01*
X3903Y2478D01*
X3894Y2489D01*
X3883Y2498D01*
X3869Y2504D01*
X3855Y2506D01*
D02*
G37*
G36*
X3655D02*
X3641Y2504D01*
X3627Y2498D01*
X3616Y2489D01*
X3607Y2478D01*
X3601Y2464D01*
X3599Y2450D01*
X3601Y2436D01*
X3607Y2422D01*
X3616Y2411D01*
X3627Y2402D01*
X3641Y2396D01*
X3655Y2394D01*
X3669Y2396D01*
X3683Y2402D01*
X3694Y2411D01*
X3703Y2422D01*
X3709Y2436D01*
X3711Y2450D01*
X3709Y2464D01*
X3703Y2478D01*
X3694Y2489D01*
X3683Y2498D01*
X3669Y2504D01*
X3655Y2506D01*
D02*
G37*
G36*
X3276Y2448D02*
X3209D01*
Y2382D01*
X3276D01*
Y2448D01*
D02*
G37*
G36*
X3538Y2449D02*
X3529Y2448D01*
X3521Y2444D01*
X3514Y2439D01*
X3508Y2432D01*
X3505Y2424D01*
X3504Y2415D01*
X3505Y2406D01*
X3508Y2398D01*
X3514Y2391D01*
X3521Y2386D01*
X3529Y2382D01*
X3538Y2381D01*
X3546Y2382D01*
X3555Y2386D01*
X3562Y2391D01*
X3567Y2398D01*
X3570Y2406D01*
X3571Y2415D01*
X3570Y2424D01*
X3567Y2432D01*
X3562Y2439D01*
X3555Y2444D01*
X3546Y2448D01*
X3538Y2449D01*
D02*
G37*
G36*
X3755Y2406D02*
X3741Y2404D01*
X3727Y2398D01*
X3716Y2389D01*
X3707Y2378D01*
X3701Y2364D01*
X3699Y2350D01*
X3701Y2336D01*
X3707Y2322D01*
X3716Y2311D01*
X3727Y2302D01*
X3741Y2296D01*
X3755Y2294D01*
X3769Y2296D01*
X3783Y2302D01*
X3794Y2311D01*
X3803Y2322D01*
X3809Y2336D01*
X3811Y2350D01*
X3809Y2364D01*
X3803Y2378D01*
X3794Y2389D01*
X3783Y2398D01*
X3769Y2404D01*
X3755Y2406D01*
D02*
G37*
G36*
X3855Y2306D02*
X3841Y2304D01*
X3827Y2298D01*
X3816Y2289D01*
X3807Y2278D01*
X3801Y2264D01*
X3799Y2250D01*
X3801Y2236D01*
X3807Y2222D01*
X3816Y2211D01*
X3827Y2202D01*
X3841Y2196D01*
X3855Y2194D01*
X3869Y2196D01*
X3883Y2202D01*
X3894Y2211D01*
X3903Y2222D01*
X3909Y2236D01*
X3911Y2250D01*
X3909Y2264D01*
X3903Y2278D01*
X3894Y2289D01*
X3883Y2298D01*
X3869Y2304D01*
X3855Y2306D01*
D02*
G37*
G36*
X3655D02*
X3641Y2304D01*
X3627Y2298D01*
X3616Y2289D01*
X3607Y2278D01*
X3601Y2264D01*
X3599Y2250D01*
X3601Y2236D01*
X3607Y2222D01*
X3616Y2211D01*
X3627Y2202D01*
X3641Y2196D01*
X3655Y2194D01*
X3669Y2196D01*
X3683Y2202D01*
X3694Y2211D01*
X3703Y2222D01*
X3709Y2236D01*
X3711Y2250D01*
X3709Y2264D01*
X3703Y2278D01*
X3694Y2289D01*
X3683Y2298D01*
X3669Y2304D01*
X3655Y2306D01*
D02*
G37*
%LPD*%
D42*
X3538Y2415D02*
D03*
D43*
X3242D02*
D03*
D48*
X4340Y2995D02*
X4470Y3125D01*
X4305Y3110D02*
Y3377D01*
X4470Y3125D02*
Y3475D01*
X3490Y3910D02*
X3565D01*
X4250Y3432D02*
X4305Y3377D01*
D49*
X3663Y2940D02*
X4473D01*
X3624Y2980D02*
X3663Y2940D01*
X3621Y2980D02*
X3624D01*
X4508Y2975D02*
X4670D01*
X4473Y2940D02*
X4508Y2975D01*
X3240Y3635D02*
X3505D01*
X3625Y3515D01*
X3621Y2980D02*
Y2983D01*
X3625D02*
Y3515D01*
D50*
X4125Y3130D02*
Y3255D01*
D52*
X4395Y2530D02*
D03*
X2780Y3105D02*
D03*
X3785Y4380D02*
D03*
D53*
X3755Y2350D02*
D03*
X3655Y2450D02*
D03*
X3855D02*
D03*
Y2250D02*
D03*
X3655D02*
D03*
D54*
X4670Y3575D02*
D03*
Y2875D02*
D03*
Y3875D02*
D03*
Y3775D02*
D03*
Y3675D02*
D03*
Y3475D02*
D03*
Y3375D02*
D03*
Y3175D02*
D03*
Y2975D02*
D03*
Y3075D02*
D03*
Y3275D02*
D03*
D55*
Y2775D02*
D03*
D56*
X4340Y2995D02*
D03*
X4305Y3110D02*
D03*
X3585Y3905D02*
D03*
X4470Y3475D02*
D03*
X4250Y3432D02*
D03*
X3621Y2980D02*
D03*
X3490Y3910D02*
D03*
X3240Y3635D02*
D03*
X4125Y3255D02*
D03*
Y3130D02*
D03*
M02*
