G04*
G04 #@! TF.GenerationSoftware,Altium Limited,Altium Designer,22.2.1 (43)*
G04*
G04 Layer_Color=32768*
%FSLAX23Y23*%
%MOIN*%
G70*
G04*
G04 #@! TF.SameCoordinates,341014A0-F451-4C88-BB74-CD236E81B47C*
G04*
G04*
G04 #@! TF.FilePolarity,Positive*
G04*
G01*
G75*
%ADD14C,0.004*%
%ADD57C,0.002*%
D14*
X3555Y3550D02*
Y3590D01*
X3535Y3570D02*
X3575D01*
X3703Y3730D02*
X3717D01*
X3710Y3723D02*
Y3737D01*
X3720Y3702D02*
Y3758D01*
X3700Y3702D02*
Y3758D01*
X3720D01*
X3700Y3702D02*
X3720D01*
X3728Y3630D02*
X3742D01*
X3735Y3623D02*
Y3637D01*
X3745Y3602D02*
Y3658D01*
X3725Y3602D02*
Y3658D01*
X3745D01*
X3725Y3602D02*
X3745D01*
X3728Y3530D02*
X3742D01*
X3735Y3523D02*
Y3537D01*
X3725Y3502D02*
Y3558D01*
X3745Y3502D02*
Y3558D01*
X3725Y3502D02*
X3745D01*
X3725Y3558D02*
X3745D01*
X3054Y3355D02*
Y3394D01*
X3035Y3375D02*
X3074D01*
X3171Y3375D02*
X3211D01*
X3191Y3355D02*
Y3394D01*
X3170Y3835D02*
X3210D01*
X3190Y3815D02*
Y3855D01*
X3565Y3693D02*
Y3707D01*
X3558Y3700D02*
X3572D01*
X3537Y3710D02*
X3593D01*
X3537Y3690D02*
X3593D01*
X3537D02*
Y3710D01*
X3593Y3690D02*
Y3710D01*
X3350Y3666D02*
Y3704D01*
X3331Y3685D02*
X3369D01*
X3303Y3663D02*
X3397D01*
X3303Y3707D02*
X3397D01*
Y3663D02*
Y3707D01*
X3303Y3663D02*
Y3707D01*
X3195Y3968D02*
Y3982D01*
X3188Y3975D02*
X3202D01*
X3167Y3965D02*
X3223D01*
X3167Y3985D02*
X3223D01*
Y3965D02*
Y3985D01*
X3167Y3965D02*
Y3985D01*
X3003Y3830D02*
X3017D01*
X3010Y3823D02*
Y3837D01*
X3000Y3802D02*
Y3858D01*
X3020Y3802D02*
Y3858D01*
X3000Y3802D02*
X3020D01*
X3000Y3858D02*
X3020D01*
X3293Y3965D02*
Y3985D01*
X3237Y3965D02*
Y3985D01*
Y3965D02*
X3293D01*
X3237Y3985D02*
X3293D01*
X3258Y3975D02*
X3272D01*
X3265Y3968D02*
Y3982D01*
X3395Y3848D02*
Y3862D01*
X3388Y3855D02*
X3402D01*
X3367Y3845D02*
X3423D01*
X3367Y3865D02*
X3423D01*
Y3845D02*
Y3865D01*
X3367Y3845D02*
Y3865D01*
X3358Y3795D02*
X3372D01*
X3365Y3788D02*
Y3802D01*
X3375Y3767D02*
Y3823D01*
X3355Y3767D02*
Y3823D01*
X3375D01*
X3355Y3767D02*
X3375D01*
X3405Y3891D02*
Y3929D01*
X3386Y3910D02*
X3424D01*
X3358Y3888D02*
X3452D01*
X3358Y3932D02*
X3452D01*
Y3888D02*
Y3932D01*
X3358Y3888D02*
Y3932D01*
X3445Y3791D02*
Y3829D01*
X3426Y3810D02*
X3464D01*
X3398Y3832D02*
X3492D01*
X3398Y3788D02*
X3492D01*
X3398D02*
Y3832D01*
X3492Y3788D02*
Y3832D01*
X3526Y3215D02*
X3566D01*
X3546Y3195D02*
Y3234D01*
X3514Y3000D02*
X3528D01*
X3521Y2993D02*
Y3007D01*
X3511Y2972D02*
Y3027D01*
X3531Y2972D02*
Y3027D01*
X3511Y2972D02*
X3531D01*
X3511Y3027D02*
X3531D01*
X3461Y2963D02*
Y2977D01*
X3454Y2970D02*
X3468D01*
X3434Y2980D02*
X3489D01*
X3434Y2960D02*
X3489D01*
X3434D02*
Y2980D01*
X3489Y2960D02*
Y2980D01*
X3444Y3020D02*
X3458D01*
X3451Y3013D02*
Y3027D01*
X3441Y2992D02*
Y3047D01*
X3461Y2992D02*
Y3047D01*
X3441Y2992D02*
X3461D01*
X3441Y3047D02*
X3461D01*
X3506Y2938D02*
Y2952D01*
X3499Y2945D02*
X3513D01*
X3479Y2955D02*
X3534D01*
X3479Y2935D02*
X3534D01*
X3479D02*
Y2955D01*
X3534Y2935D02*
Y2955D01*
X4415Y3180D02*
X4455D01*
X4435Y3160D02*
Y3200D01*
X4311Y3177D02*
Y3196D01*
X4256Y3177D02*
Y3196D01*
Y3177D02*
X4311D01*
X4256Y3196D02*
X4311D01*
X4277Y3187D02*
X4291D01*
X4284Y3180D02*
Y3193D01*
X4308Y3205D02*
Y3225D01*
X4252Y3205D02*
Y3225D01*
Y3205D02*
X4308D01*
X4252Y3225D02*
X4308D01*
X4273Y3215D02*
X4287D01*
X4280Y3208D02*
Y3222D01*
X4440Y3370D02*
Y3410D01*
X4420Y3390D02*
X4460D01*
X4415Y3285D02*
X4455D01*
X4435Y3265D02*
Y3305D01*
D57*
X3390Y3688D02*
X3720D01*
X3390Y3452D02*
X3720D01*
X3390D02*
Y3688D01*
X3720Y3452D02*
Y3688D01*
X3001Y3341D02*
X3108D01*
X3001Y3408D02*
X3108D01*
Y3341D02*
Y3408D01*
X3001Y3341D02*
Y3408D01*
X3124Y3335D02*
Y3414D01*
X3258Y3335D02*
Y3414D01*
X3124D02*
X3258D01*
X3124Y3335D02*
X3258D01*
X3355Y3717D02*
Y3953D01*
X3025Y3717D02*
Y3953D01*
Y3717D02*
X3355D01*
X3025Y3953D02*
X3355D01*
X3664Y3049D02*
Y3380D01*
X3428Y3049D02*
Y3380D01*
X3664D01*
X3428Y3049D02*
X3664D01*
X4249Y3092D02*
Y3308D01*
X3941Y3092D02*
Y3308D01*
Y3092D02*
X4249D01*
X3941Y3308D02*
X4249D01*
X3598Y2507D02*
X3912D01*
Y2193D02*
Y2507D01*
X3598Y2193D02*
X3912D01*
X3598D02*
Y2507D01*
X4520Y3129D02*
Y3231D01*
X4350Y3129D02*
Y3231D01*
Y3129D02*
X4520D01*
X4350Y3231D02*
X4520D01*
X4670Y3305D02*
Y3345D01*
X4650Y3325D02*
X4690D01*
X4609Y2711D02*
Y3939D01*
X4731D01*
Y2711D02*
Y3939D01*
X4609Y2711D02*
X4731D01*
X4355Y3441D02*
X4525D01*
X4355Y3339D02*
X4525D01*
X4355D02*
Y3441D01*
X4525Y3339D02*
Y3441D01*
X4520Y3234D02*
Y3336D01*
X4350Y3234D02*
Y3336D01*
Y3234D02*
X4520D01*
X4350Y3336D02*
X4520D01*
M02*
