G04*
G04 #@! TF.GenerationSoftware,Altium Limited,Altium Designer,22.2.1 (43)*
G04*
G04 Layer_Color=32896*
%FSLAX23Y23*%
%MOIN*%
G70*
G04*
G04 #@! TF.SameCoordinates,341014A0-F451-4C88-BB74-CD236E81B47C*
G04*
G04*
G04 #@! TF.FilePolarity,Positive*
G04*
G01*
G75*
G36*
X3823Y4259D02*
X3877D01*
Y4254D01*
X3920D01*
Y4248D01*
X3953D01*
Y4243D01*
X3980D01*
Y4238D01*
X4002D01*
Y4232D01*
X4023D01*
Y4227D01*
X4040D01*
Y4221D01*
X4061D01*
Y4216D01*
X4072D01*
Y4210D01*
X4088D01*
Y4205D01*
X4105D01*
Y4200D01*
X4121D01*
Y4194D01*
X4132D01*
Y4189D01*
X4142D01*
Y4183D01*
X4159D01*
Y4178D01*
X4170D01*
Y4173D01*
X4180D01*
Y4167D01*
X4191D01*
Y4162D01*
X4202D01*
Y4156D01*
X4213D01*
Y4151D01*
X4224D01*
Y4145D01*
X4235D01*
Y4140D01*
X4240D01*
Y4135D01*
X4251D01*
Y4129D01*
X4262D01*
Y4124D01*
X4267D01*
Y4118D01*
X4278D01*
Y4113D01*
X4283D01*
Y4108D01*
X4294D01*
Y4102D01*
X4300D01*
Y4097D01*
X4310D01*
Y4091D01*
X4316D01*
Y4086D01*
X4327D01*
Y4080D01*
X4332D01*
Y4075D01*
X4337D01*
Y4070D01*
X4343D01*
Y4064D01*
X4354D01*
Y4059D01*
X4359D01*
Y4053D01*
X4365D01*
Y4048D01*
X4370D01*
Y4043D01*
X4375D01*
Y4037D01*
X4386D01*
Y4032D01*
X4392D01*
Y4026D01*
X4397D01*
Y4021D01*
X4402D01*
Y4015D01*
X4408D01*
Y4010D01*
X4413D01*
Y4005D01*
X4419D01*
Y3999D01*
X4424D01*
Y3994D01*
X4430D01*
Y3988D01*
X4435D01*
Y3983D01*
X4440D01*
Y3978D01*
X4446D01*
Y3972D01*
X4451D01*
Y3967D01*
X4457D01*
Y3961D01*
X4462D01*
Y3950D01*
X4468D01*
Y3945D01*
X4473D01*
Y3940D01*
X4478D01*
Y3934D01*
X4484D01*
Y3929D01*
X4489D01*
Y3918D01*
X4495D01*
Y3913D01*
X4500D01*
Y3907D01*
X4505D01*
Y3902D01*
X4511D01*
Y3891D01*
X4516D01*
Y3885D01*
X4522D01*
Y3875D01*
X4527D01*
Y3869D01*
X4533D01*
Y3858D01*
X4538D01*
Y3853D01*
X4543D01*
Y3842D01*
X4549D01*
Y3837D01*
X4554D01*
Y3826D01*
X4560D01*
Y3815D01*
X4565D01*
Y3810D01*
X4570D01*
Y3799D01*
X4576D01*
Y3788D01*
X4581D01*
Y3777D01*
X4587D01*
Y3766D01*
X4592D01*
Y3755D01*
X4598D01*
Y3745D01*
X4603D01*
Y3734D01*
X4608D01*
Y3723D01*
X4614D01*
Y3707D01*
X4619D01*
Y3696D01*
X4625D01*
Y3680D01*
X4630D01*
Y3663D01*
X4635D01*
Y3652D01*
X4641D01*
Y3636D01*
X4646D01*
Y3615D01*
X4652D01*
Y3598D01*
X4657D01*
Y3577D01*
X4663D01*
Y3555D01*
X4668D01*
Y3528D01*
X4673D01*
Y3501D01*
X4679D01*
Y3447D01*
X4684D01*
Y3279D01*
X4679D01*
Y3230D01*
X4673D01*
Y3197D01*
X4668D01*
Y3176D01*
X4663D01*
Y3149D01*
X4657D01*
Y3127D01*
X4652D01*
Y3111D01*
X4646D01*
Y3095D01*
X4641D01*
Y3078D01*
X4635D01*
Y3062D01*
X4630D01*
Y3046D01*
X4625D01*
Y3030D01*
X4619D01*
Y3019D01*
X4614D01*
Y3002D01*
X4608D01*
Y2992D01*
X4603D01*
Y2981D01*
X4598D01*
Y2970D01*
X4592D01*
Y2959D01*
X4587D01*
Y2948D01*
X4581D01*
Y2937D01*
X4576D01*
Y2927D01*
X4570D01*
Y2916D01*
X4565D01*
Y2910D01*
X4560D01*
Y2899D01*
X4554D01*
Y2889D01*
X4549D01*
Y2883D01*
X4543D01*
Y2872D01*
X4538D01*
Y2867D01*
X4533D01*
Y2856D01*
X4527D01*
Y2851D01*
X4522D01*
Y2840D01*
X4516D01*
Y2834D01*
X4511D01*
Y2829D01*
X4505D01*
Y2818D01*
X4500D01*
Y2813D01*
X4495D01*
Y2807D01*
X4489D01*
Y2802D01*
X4484D01*
Y2791D01*
X4478D01*
Y2786D01*
X4473D01*
Y2780D01*
X4468D01*
Y2775D01*
X4462D01*
Y2769D01*
X4457D01*
Y2764D01*
X4451D01*
Y2753D01*
X4446D01*
Y2748D01*
X4440D01*
Y2742D01*
X4435D01*
Y2737D01*
X4430D01*
Y2732D01*
X4424D01*
Y2726D01*
X4419D01*
Y2721D01*
X4413D01*
Y2715D01*
X4408D01*
Y2710D01*
X4402D01*
Y2704D01*
X4392D01*
Y2699D01*
X4386D01*
Y2694D01*
X4381D01*
Y2688D01*
X4375D01*
Y2683D01*
X4370D01*
Y2677D01*
X4365D01*
Y2672D01*
X4359D01*
Y2667D01*
X4354D01*
Y2661D01*
X4343D01*
Y2656D01*
X4337D01*
Y2650D01*
X4332D01*
Y2645D01*
X4321D01*
Y2639D01*
X4316D01*
Y2634D01*
X4310D01*
Y2629D01*
X4300D01*
Y2623D01*
X4294D01*
Y2618D01*
X4289D01*
Y2612D01*
X4278D01*
Y2607D01*
X4267D01*
Y2602D01*
X4262D01*
Y2596D01*
X4251D01*
Y2591D01*
X4245D01*
Y2585D01*
X4235D01*
Y2580D01*
X4224D01*
Y2574D01*
X4213D01*
Y2569D01*
X4202D01*
Y2564D01*
X4191D01*
Y2558D01*
X4180D01*
Y2553D01*
X4170D01*
Y2547D01*
X4159D01*
Y2542D01*
X4142D01*
Y2537D01*
X4132D01*
Y2531D01*
X4115D01*
Y2526D01*
X4105D01*
Y2520D01*
X4088D01*
Y2515D01*
X4072D01*
Y2509D01*
X4056D01*
Y2504D01*
X4040D01*
Y2499D01*
X4023D01*
Y2493D01*
X4002D01*
Y2488D01*
X3980D01*
Y2482D01*
X3953D01*
Y2477D01*
X3915D01*
Y2472D01*
X3850D01*
Y2466D01*
X3698D01*
Y2472D01*
X3655D01*
Y2477D01*
X3622D01*
Y2482D01*
X3595D01*
Y2488D01*
X3574D01*
Y2493D01*
X3552D01*
Y2499D01*
X3536D01*
Y2504D01*
X3520D01*
Y2509D01*
X3498D01*
Y2515D01*
X3487D01*
Y2520D01*
X3471D01*
Y2526D01*
X3454D01*
Y2531D01*
X3444D01*
Y2537D01*
X3433D01*
Y2542D01*
X3417D01*
Y2547D01*
X3406D01*
Y2553D01*
X3395D01*
Y2558D01*
X3384D01*
Y2564D01*
X3373D01*
Y2569D01*
X3362D01*
Y2574D01*
X3352D01*
Y2580D01*
X3346D01*
Y2585D01*
X3335D01*
Y2591D01*
X3324D01*
Y2596D01*
X3319D01*
Y2602D01*
X3308D01*
Y2607D01*
X3297D01*
Y2612D01*
X3292D01*
Y2618D01*
X3281D01*
Y2623D01*
X3276D01*
Y2629D01*
X3270D01*
Y2634D01*
X3259D01*
Y2639D01*
X3254D01*
Y2645D01*
X3243D01*
Y2650D01*
X3238D01*
Y2656D01*
X3232D01*
Y2661D01*
X3227D01*
Y2667D01*
X3216D01*
Y2672D01*
X3211D01*
Y2677D01*
X3205D01*
Y2683D01*
X3200D01*
Y2688D01*
X3194D01*
Y2694D01*
X3189D01*
Y2699D01*
X3178D01*
Y2704D01*
X3173D01*
Y2710D01*
X3167D01*
Y2715D01*
X3162D01*
Y2721D01*
X3157D01*
Y2726D01*
X3151D01*
Y2732D01*
X3146D01*
Y2737D01*
X3140D01*
Y2742D01*
X3135D01*
Y2748D01*
X3129D01*
Y2753D01*
X3124D01*
Y2764D01*
X3119D01*
Y2769D01*
X3113D01*
Y2775D01*
X3108D01*
Y2780D01*
X3102D01*
Y2786D01*
X3097D01*
Y2791D01*
X3092D01*
Y2802D01*
X3086D01*
Y2807D01*
X3081D01*
Y2813D01*
X3075D01*
Y2818D01*
X3070D01*
Y2829D01*
X3064D01*
Y2834D01*
X3059D01*
Y2840D01*
X3054D01*
Y2851D01*
X3048D01*
Y2856D01*
X3043D01*
Y2867D01*
X3037D01*
Y2872D01*
X3032D01*
Y2883D01*
X3027D01*
Y2889D01*
X3021D01*
Y2899D01*
X3016D01*
Y2910D01*
X3010D01*
Y2916D01*
X3005D01*
Y2927D01*
X2999D01*
Y2937D01*
X2994D01*
Y2948D01*
X2989D01*
Y2959D01*
X2983D01*
Y2970D01*
X2978D01*
Y2981D01*
X2972D01*
Y2992D01*
X2967D01*
Y3002D01*
X2962D01*
Y3019D01*
X2956D01*
Y3030D01*
X2951D01*
Y3046D01*
X2945D01*
Y3062D01*
X2940D01*
Y3073D01*
X2934D01*
Y3095D01*
X2929D01*
Y3111D01*
X2924D01*
Y3132D01*
X2918D01*
Y3154D01*
X2913D01*
Y3176D01*
X2907D01*
Y3197D01*
X2902D01*
Y3235D01*
X2897D01*
Y3284D01*
X2891D01*
Y3436D01*
X2897D01*
Y3490D01*
X2902D01*
Y3528D01*
X2907D01*
Y3555D01*
X2913D01*
Y3577D01*
X2918D01*
Y3598D01*
X2924D01*
Y3620D01*
X2929D01*
Y3636D01*
X2934D01*
Y3652D01*
X2940D01*
Y3663D01*
X2945D01*
Y3680D01*
X2951D01*
Y3696D01*
X2956D01*
Y3707D01*
X2962D01*
Y3717D01*
X2967D01*
Y3734D01*
X2972D01*
Y3745D01*
X2978D01*
Y3755D01*
X2983D01*
Y3766D01*
X2989D01*
Y3777D01*
X2994D01*
Y3788D01*
X2999D01*
Y3799D01*
X3005D01*
Y3804D01*
X3010D01*
Y3815D01*
X3016D01*
Y3826D01*
X3021D01*
Y3837D01*
X3027D01*
Y3842D01*
X3032D01*
Y3853D01*
X3037D01*
Y3858D01*
X3043D01*
Y3869D01*
X3048D01*
Y3875D01*
X3054D01*
Y3885D01*
X3059D01*
Y3891D01*
X3064D01*
Y3896D01*
X3070D01*
Y3907D01*
X3075D01*
Y3913D01*
X3081D01*
Y3918D01*
X3086D01*
Y3929D01*
X3092D01*
Y3934D01*
X3097D01*
Y3940D01*
X3102D01*
Y3945D01*
X3108D01*
Y3950D01*
X3113D01*
Y3961D01*
X3119D01*
Y3967D01*
X3124D01*
Y3972D01*
X3129D01*
Y3978D01*
X3135D01*
Y3983D01*
X3140D01*
Y3988D01*
X3146D01*
Y3994D01*
X3151D01*
Y3999D01*
X3157D01*
Y4005D01*
X3162D01*
Y4010D01*
X3167D01*
Y4015D01*
X3173D01*
Y4021D01*
X3178D01*
Y4026D01*
X3184D01*
Y4032D01*
X3194D01*
Y4037D01*
X3200D01*
Y4043D01*
X3205D01*
Y4048D01*
X3211D01*
Y4053D01*
X3216D01*
Y4059D01*
X3222D01*
Y4064D01*
X3232D01*
Y4070D01*
X3238D01*
Y4075D01*
X3243D01*
Y4080D01*
X3254D01*
Y4086D01*
X3259D01*
Y4091D01*
X3265D01*
Y4097D01*
X3276D01*
Y4102D01*
X3281D01*
Y4108D01*
X3292D01*
Y4113D01*
X3297D01*
Y4118D01*
X3308D01*
Y4124D01*
X3314D01*
Y4129D01*
X3324D01*
Y4135D01*
X3335D01*
Y4140D01*
X3346D01*
Y4145D01*
X3352D01*
Y4151D01*
X3362D01*
Y4156D01*
X3373D01*
Y4162D01*
X3384D01*
Y4167D01*
X3395D01*
Y4173D01*
X3406D01*
Y4178D01*
X3417D01*
Y4183D01*
X3433D01*
Y4189D01*
X3444D01*
Y4194D01*
X3454D01*
Y4200D01*
X3471D01*
Y4205D01*
X3487D01*
Y4210D01*
X3503D01*
Y4216D01*
X3520D01*
Y4221D01*
X3536D01*
Y4227D01*
X3552D01*
Y4232D01*
X3574D01*
Y4238D01*
X3595D01*
Y4243D01*
X3622D01*
Y4248D01*
X3655D01*
Y4254D01*
X3698D01*
Y4259D01*
X3758D01*
Y4265D01*
X3823D01*
Y4259D01*
D02*
G37*
%LPC*%
G36*
X3812Y4194D02*
X3763D01*
Y4189D01*
X3704D01*
Y4183D01*
X3660D01*
Y4178D01*
X3628D01*
Y4173D01*
X3601D01*
Y4167D01*
X3579D01*
Y4162D01*
X3557D01*
Y4156D01*
X3541D01*
Y4151D01*
X3525D01*
Y4145D01*
X3509D01*
Y4140D01*
X3492D01*
Y4135D01*
X3482D01*
Y4129D01*
X3465D01*
Y4124D01*
X3454D01*
Y4118D01*
X3444D01*
Y4113D01*
X3433D01*
Y4108D01*
X3417D01*
Y4102D01*
X3406D01*
Y4097D01*
X3400D01*
Y4091D01*
X3389D01*
Y4086D01*
X3379D01*
Y4080D01*
X3368D01*
Y4075D01*
X3357D01*
Y4070D01*
X3352D01*
Y4064D01*
X3341D01*
Y4059D01*
X3335D01*
Y4053D01*
X3324D01*
Y4048D01*
X3319D01*
Y4043D01*
X3308D01*
Y4037D01*
X3303D01*
Y4032D01*
X3297D01*
Y4026D01*
X3287D01*
Y4021D01*
X3281D01*
Y4015D01*
X3276D01*
Y4010D01*
X3265D01*
Y4005D01*
X3259D01*
Y3999D01*
X3254D01*
Y3994D01*
X3249D01*
Y3988D01*
X3243D01*
Y3983D01*
X3238D01*
Y3978D01*
X3232D01*
Y3972D01*
X3222D01*
Y3967D01*
X3216D01*
Y3961D01*
X3211D01*
Y3956D01*
X3205D01*
Y3950D01*
X3200D01*
Y3945D01*
X3194D01*
Y3940D01*
X3189D01*
Y3934D01*
X3184D01*
Y3929D01*
X3178D01*
Y3918D01*
X3173D01*
Y3913D01*
X3167D01*
Y3907D01*
X3162D01*
Y3902D01*
X3157D01*
Y3896D01*
X3151D01*
Y3891D01*
X3146D01*
Y3880D01*
X3140D01*
Y3875D01*
X3135D01*
Y3869D01*
X3129D01*
Y3864D01*
X3124D01*
Y3853D01*
X3119D01*
Y3847D01*
X3113D01*
Y3837D01*
X3108D01*
Y3831D01*
X3102D01*
Y3826D01*
X3097D01*
Y3815D01*
X3092D01*
Y3804D01*
X3086D01*
Y3799D01*
X3081D01*
Y3788D01*
X3075D01*
Y3782D01*
X3070D01*
Y3772D01*
X3064D01*
Y3761D01*
X3059D01*
Y3750D01*
X3054D01*
Y3739D01*
X3048D01*
Y3728D01*
X3043D01*
Y3717D01*
X3037D01*
Y3707D01*
X3032D01*
Y3696D01*
X3027D01*
Y3680D01*
X3021D01*
Y3669D01*
X3016D01*
Y3652D01*
X3010D01*
Y3642D01*
X3005D01*
Y3625D01*
X2999D01*
Y3609D01*
X2994D01*
Y3587D01*
X2989D01*
Y3571D01*
X2983D01*
Y3550D01*
X2978D01*
Y3522D01*
X2972D01*
Y3490D01*
X2967D01*
Y3452D01*
X2962D01*
Y3273D01*
X2967D01*
Y3235D01*
X2972D01*
Y3203D01*
X2978D01*
Y3176D01*
X2983D01*
Y3154D01*
X2989D01*
Y3132D01*
X2994D01*
Y3116D01*
X2999D01*
Y3100D01*
X3005D01*
Y3084D01*
X3010D01*
Y3067D01*
X3016D01*
Y3057D01*
X3021D01*
Y3040D01*
X3027D01*
Y3030D01*
X3032D01*
Y3019D01*
X3037D01*
Y3008D01*
X3043D01*
Y2997D01*
X3048D01*
Y2986D01*
X3054D01*
Y2975D01*
X3059D01*
Y2965D01*
X3064D01*
Y2954D01*
X3070D01*
Y2943D01*
X3075D01*
Y2937D01*
X3081D01*
Y2927D01*
X3086D01*
Y2916D01*
X3092D01*
Y2910D01*
X3097D01*
Y2899D01*
X3102D01*
Y2894D01*
X3108D01*
Y2883D01*
X3113D01*
Y2878D01*
X3119D01*
Y2872D01*
X3124D01*
Y2862D01*
X3129D01*
Y2856D01*
X3135D01*
Y2851D01*
X3140D01*
Y2845D01*
X3146D01*
Y2834D01*
X3151D01*
Y2829D01*
X3157D01*
Y2824D01*
X3162D01*
Y2818D01*
X3167D01*
Y2813D01*
X3173D01*
Y2807D01*
X3178D01*
Y2802D01*
X3184D01*
Y2797D01*
X3189D01*
Y2791D01*
X3194D01*
Y2786D01*
X3200D01*
Y2775D01*
X3205D01*
Y2769D01*
X3216D01*
Y2764D01*
X3222D01*
Y2759D01*
X3227D01*
Y2753D01*
X3232D01*
Y2748D01*
X3238D01*
Y2742D01*
X3243D01*
Y2737D01*
X3249D01*
Y2732D01*
X3254D01*
Y2726D01*
X3259D01*
Y2721D01*
X3270D01*
Y2715D01*
X3276D01*
Y2710D01*
X3281D01*
Y2704D01*
X3292D01*
Y2699D01*
X3297D01*
Y2694D01*
X3303D01*
Y2688D01*
X3314D01*
Y2683D01*
X3319D01*
Y2677D01*
X3330D01*
Y2672D01*
X3335D01*
Y2667D01*
X3346D01*
Y2661D01*
X3352D01*
Y2656D01*
X3362D01*
Y2650D01*
X3373D01*
Y2645D01*
X3379D01*
Y2639D01*
X3389D01*
Y2634D01*
X3400D01*
Y2629D01*
X3411D01*
Y2623D01*
X3422D01*
Y2618D01*
X3433D01*
Y2612D01*
X3444D01*
Y2607D01*
X3454D01*
Y2602D01*
X3471D01*
Y2596D01*
X3482D01*
Y2591D01*
X3498D01*
Y2585D01*
X3509D01*
Y2580D01*
X3525D01*
Y2574D01*
X3541D01*
Y2569D01*
X3563D01*
Y2564D01*
X3585D01*
Y2558D01*
X3606D01*
Y2553D01*
X3633D01*
Y2547D01*
X3666D01*
Y2542D01*
X3715D01*
Y2537D01*
X3861D01*
Y2542D01*
X3910D01*
Y2547D01*
X3942D01*
Y2553D01*
X3969D01*
Y2558D01*
X3991D01*
Y2564D01*
X4012D01*
Y2569D01*
X4029D01*
Y2574D01*
X4045D01*
Y2580D01*
X4061D01*
Y2585D01*
X4077D01*
Y2591D01*
X4094D01*
Y2596D01*
X4105D01*
Y2602D01*
X4121D01*
Y2607D01*
X4132D01*
Y2612D01*
X4142D01*
Y2618D01*
X4153D01*
Y2623D01*
X4164D01*
Y2629D01*
X4175D01*
Y2634D01*
X4186D01*
Y2639D01*
X4197D01*
Y2645D01*
X4207D01*
Y2650D01*
X4213D01*
Y2656D01*
X4224D01*
Y2661D01*
X4235D01*
Y2667D01*
X4240D01*
Y2672D01*
X4251D01*
Y2677D01*
X4256D01*
Y2683D01*
X4267D01*
Y2688D01*
X4272D01*
Y2694D01*
X4278D01*
Y2699D01*
X4289D01*
Y2704D01*
X4294D01*
Y2710D01*
X4300D01*
Y2715D01*
X4310D01*
Y2721D01*
X4316D01*
Y2726D01*
X4321D01*
Y2732D01*
X4327D01*
Y2737D01*
X4332D01*
Y2742D01*
X4337D01*
Y2748D01*
X4348D01*
Y2753D01*
X4354D01*
Y2759D01*
X4359D01*
Y2764D01*
X4365D01*
Y2769D01*
X4370D01*
Y2775D01*
X4375D01*
Y2780D01*
X4381D01*
Y2786D01*
X4386D01*
Y2791D01*
X4392D01*
Y2797D01*
X4397D01*
Y2802D01*
X4402D01*
Y2813D01*
X4408D01*
Y2818D01*
X4413D01*
Y2824D01*
X4419D01*
Y2829D01*
X4424D01*
Y2834D01*
X4430D01*
Y2840D01*
X4435D01*
Y2851D01*
X4440D01*
Y2856D01*
X4446D01*
Y2862D01*
X4451D01*
Y2872D01*
X4457D01*
Y2878D01*
X4462D01*
Y2883D01*
X4468D01*
Y2894D01*
X4473D01*
Y2899D01*
X4478D01*
Y2910D01*
X4484D01*
Y2916D01*
X4489D01*
Y2927D01*
X4495D01*
Y2937D01*
X4500D01*
Y2943D01*
X4505D01*
Y2954D01*
X4511D01*
Y2965D01*
X4516D01*
Y2975D01*
X4522D01*
Y2986D01*
X4527D01*
Y2997D01*
X4533D01*
Y3008D01*
X4538D01*
Y3019D01*
X4543D01*
Y3030D01*
X4549D01*
Y3040D01*
X4554D01*
Y3057D01*
X4560D01*
Y3067D01*
X4565D01*
Y3084D01*
X4570D01*
Y3100D01*
X4576D01*
Y3116D01*
X4581D01*
Y3138D01*
X4587D01*
Y3154D01*
X4592D01*
Y3181D01*
X4598D01*
Y3208D01*
X4603D01*
Y3241D01*
X4608D01*
Y3279D01*
X4614D01*
Y3333D01*
X4619D01*
Y3392D01*
X4614D01*
Y3447D01*
X4608D01*
Y3490D01*
X4603D01*
Y3517D01*
X4598D01*
Y3544D01*
X4592D01*
Y3566D01*
X4587D01*
Y3587D01*
X4581D01*
Y3604D01*
X4576D01*
Y3625D01*
X4570D01*
Y3636D01*
X4565D01*
Y3652D01*
X4560D01*
Y3669D01*
X4554D01*
Y3680D01*
X4549D01*
Y3696D01*
X4543D01*
Y3707D01*
X4538D01*
Y3717D01*
X4533D01*
Y3728D01*
X4527D01*
Y3739D01*
X4522D01*
Y3750D01*
X4516D01*
Y3761D01*
X4511D01*
Y3772D01*
X4505D01*
Y3782D01*
X4500D01*
Y3788D01*
X4495D01*
Y3799D01*
X4489D01*
Y3810D01*
X4484D01*
Y3815D01*
X4478D01*
Y3826D01*
X4473D01*
Y3831D01*
X4468D01*
Y3842D01*
X4462D01*
Y3847D01*
X4457D01*
Y3853D01*
X4451D01*
Y3864D01*
X4446D01*
Y3869D01*
X4440D01*
Y3875D01*
X4435D01*
Y3885D01*
X4430D01*
Y3891D01*
X4424D01*
Y3896D01*
X4419D01*
Y3902D01*
X4413D01*
Y3907D01*
X4408D01*
Y3913D01*
X4402D01*
Y3923D01*
X4397D01*
Y3929D01*
X4392D01*
Y3934D01*
X4386D01*
Y3940D01*
X4381D01*
Y3945D01*
X4375D01*
Y3950D01*
X4370D01*
Y3956D01*
X4365D01*
Y3961D01*
X4359D01*
Y3967D01*
X4354D01*
Y3972D01*
X4348D01*
Y3978D01*
X4343D01*
Y3983D01*
X4332D01*
Y3988D01*
X4327D01*
Y3994D01*
X4321D01*
Y3999D01*
X4316D01*
Y4005D01*
X4310D01*
Y4010D01*
X4300D01*
Y4015D01*
X4294D01*
Y4021D01*
X4289D01*
Y4026D01*
X4283D01*
Y4032D01*
X4272D01*
Y4037D01*
X4267D01*
Y4043D01*
X4256D01*
Y4048D01*
X4251D01*
Y4053D01*
X4240D01*
Y4059D01*
X4235D01*
Y4064D01*
X4224D01*
Y4070D01*
X4218D01*
Y4075D01*
X4207D01*
Y4080D01*
X4197D01*
Y4086D01*
X4186D01*
Y4091D01*
X4175D01*
Y4097D01*
X4170D01*
Y4102D01*
X4159D01*
Y4108D01*
X4148D01*
Y4113D01*
X4132D01*
Y4118D01*
X4121D01*
Y4124D01*
X4110D01*
Y4129D01*
X4094D01*
Y4135D01*
X4083D01*
Y4140D01*
X4067D01*
Y4145D01*
X4050D01*
Y4151D01*
X4034D01*
Y4156D01*
X4018D01*
Y4162D01*
X3996D01*
Y4167D01*
X3975D01*
Y4173D01*
X3947D01*
Y4178D01*
X3915D01*
Y4183D01*
X3872D01*
Y4189D01*
X3812D01*
Y4194D01*
D02*
G37*
%LPD*%
G36*
X3828Y4140D02*
X3888D01*
Y4135D01*
X3920D01*
Y4129D01*
X3947D01*
Y4124D01*
X3975D01*
Y4118D01*
X3991D01*
Y4113D01*
X4012D01*
Y4108D01*
X4029D01*
Y4102D01*
X4045D01*
Y4097D01*
X4061D01*
Y4091D01*
X4072D01*
Y4086D01*
X4088D01*
Y4080D01*
X4099D01*
Y4075D01*
X4115D01*
Y4070D01*
X4126D01*
Y4064D01*
X4137D01*
Y4059D01*
X4148D01*
Y4053D01*
X4159D01*
Y4048D01*
X4164D01*
Y4043D01*
X4175D01*
Y4037D01*
X4186D01*
Y4032D01*
X4197D01*
Y4026D01*
X4202D01*
Y4021D01*
X4213D01*
Y4015D01*
X4218D01*
Y4010D01*
X4229D01*
Y4005D01*
X4235D01*
Y3999D01*
X4245D01*
Y3994D01*
X4251D01*
Y3988D01*
X4256D01*
Y3983D01*
X4267D01*
Y3978D01*
X4272D01*
Y3972D01*
X4278D01*
Y3967D01*
X4283D01*
Y3961D01*
X4294D01*
Y3956D01*
X4300D01*
Y3950D01*
X4305D01*
Y3945D01*
X4310D01*
Y3940D01*
X4316D01*
Y3934D01*
X4321D01*
Y3929D01*
X4327D01*
Y3923D01*
X4332D01*
Y3918D01*
X4337D01*
Y3913D01*
X4343D01*
Y3907D01*
X4348D01*
Y3902D01*
X4354D01*
Y3896D01*
X4359D01*
Y3891D01*
X4365D01*
Y3885D01*
X4370D01*
Y3880D01*
X4375D01*
Y3875D01*
X4381D01*
Y3869D01*
X4386D01*
Y3858D01*
X4392D01*
Y3853D01*
X4397D01*
Y3847D01*
X4402D01*
Y3842D01*
X4408D01*
Y3831D01*
X4413D01*
Y3826D01*
X4419D01*
Y3820D01*
X4424D01*
Y3810D01*
X4430D01*
Y3804D01*
X4435D01*
Y3793D01*
X4440D01*
Y3788D01*
X4446D01*
Y3777D01*
X4451D01*
Y3766D01*
X4457D01*
Y3761D01*
X4462D01*
Y3750D01*
X4468D01*
Y3739D01*
X4473D01*
Y3734D01*
X4478D01*
Y3723D01*
X4484D01*
Y3707D01*
X4489D01*
Y3696D01*
X4495D01*
Y3685D01*
X4500D01*
Y3674D01*
X4505D01*
Y3663D01*
X4511D01*
Y3647D01*
X4516D01*
Y3636D01*
X4522D01*
Y3620D01*
X4527D01*
Y3604D01*
X4533D01*
Y3587D01*
X4538D01*
Y3566D01*
X4543D01*
Y3544D01*
X4549D01*
Y3522D01*
X4554D01*
Y3495D01*
X4560D01*
Y3457D01*
X4565D01*
Y3392D01*
X4570D01*
Y3333D01*
X4565D01*
Y3262D01*
X4560D01*
Y3230D01*
X4554D01*
Y3203D01*
X4549D01*
Y3181D01*
X4543D01*
Y3160D01*
X4538D01*
Y3138D01*
X4533D01*
Y3122D01*
X4527D01*
Y3105D01*
X4522D01*
Y3089D01*
X4516D01*
Y3078D01*
X4511D01*
Y3062D01*
X4505D01*
Y3051D01*
X4500D01*
Y3040D01*
X4495D01*
Y3030D01*
X4489D01*
Y3019D01*
X4484D01*
Y3008D01*
X4478D01*
Y2997D01*
X4473D01*
Y2986D01*
X4468D01*
Y2975D01*
X4462D01*
Y2965D01*
X4457D01*
Y2959D01*
X4451D01*
Y2948D01*
X4446D01*
Y2943D01*
X4440D01*
Y2932D01*
X4435D01*
Y2927D01*
X4430D01*
Y2916D01*
X4424D01*
Y2910D01*
X4419D01*
Y2899D01*
X4413D01*
Y2894D01*
X4408D01*
Y2889D01*
X4402D01*
Y2878D01*
X4397D01*
Y2872D01*
X4392D01*
Y2867D01*
X4386D01*
Y2862D01*
X4381D01*
Y2856D01*
X4375D01*
Y2845D01*
X4370D01*
Y2840D01*
X4365D01*
Y2834D01*
X4359D01*
Y2829D01*
X4354D01*
Y2824D01*
X4348D01*
Y2818D01*
X4343D01*
Y2813D01*
X4337D01*
Y2807D01*
X4332D01*
Y2802D01*
X4327D01*
Y2797D01*
X4321D01*
Y2791D01*
X4316D01*
Y2786D01*
X4310D01*
Y2780D01*
X4305D01*
Y2775D01*
X4294D01*
Y2769D01*
X4289D01*
Y2764D01*
X4283D01*
Y2759D01*
X4278D01*
Y2753D01*
X4272D01*
Y2748D01*
X4262D01*
Y2742D01*
X4256D01*
Y2737D01*
X4251D01*
Y2732D01*
X4240D01*
Y2726D01*
X4235D01*
Y2721D01*
X4224D01*
Y2715D01*
X4218D01*
Y2710D01*
X4207D01*
Y2704D01*
X4202D01*
Y2699D01*
X4191D01*
Y2694D01*
X4186D01*
Y2688D01*
X4175D01*
Y2683D01*
X4164D01*
Y2677D01*
X4153D01*
Y2672D01*
X4142D01*
Y2667D01*
X4132D01*
Y2661D01*
X4121D01*
Y2656D01*
X4110D01*
Y2650D01*
X4099D01*
Y2645D01*
X4083D01*
Y2639D01*
X4072D01*
Y2634D01*
X4056D01*
Y2629D01*
X4045D01*
Y2623D01*
X4029D01*
Y2618D01*
X4007D01*
Y2612D01*
X3991D01*
Y2607D01*
X3969D01*
Y2602D01*
X3947D01*
Y2596D01*
X3910D01*
Y2591D01*
X3855D01*
Y2585D01*
X3693D01*
Y2591D01*
X3660D01*
Y2596D01*
X3633D01*
Y2602D01*
X3606D01*
Y2607D01*
X3585D01*
Y2612D01*
X3568D01*
Y2618D01*
X3552D01*
Y2623D01*
X3536D01*
Y2629D01*
X3520D01*
Y2634D01*
X3503D01*
Y2639D01*
X3492D01*
Y2645D01*
X3476D01*
Y2650D01*
X3465D01*
Y2656D01*
X3454D01*
Y2661D01*
X3444D01*
Y2667D01*
X3433D01*
Y2672D01*
X3422D01*
Y2677D01*
X3411D01*
Y2683D01*
X3400D01*
Y2688D01*
X3389D01*
Y2694D01*
X3384D01*
Y2699D01*
X3373D01*
Y2704D01*
X3368D01*
Y2710D01*
X3357D01*
Y2715D01*
X3352D01*
Y2721D01*
X3341D01*
Y2726D01*
X3335D01*
Y2732D01*
X3324D01*
Y2737D01*
X3319D01*
Y2742D01*
X3314D01*
Y2748D01*
X3303D01*
Y2753D01*
X3297D01*
Y2759D01*
X3292D01*
Y2764D01*
X3287D01*
Y2769D01*
X3276D01*
Y2775D01*
X3270D01*
Y2780D01*
X3265D01*
Y2786D01*
X3259D01*
Y2791D01*
X3254D01*
Y2797D01*
X3249D01*
Y2802D01*
X3243D01*
Y2807D01*
X3238D01*
Y2813D01*
X3232D01*
Y2818D01*
X3227D01*
Y2824D01*
X3222D01*
Y2829D01*
X3216D01*
Y2834D01*
X3211D01*
Y2840D01*
X3205D01*
Y2845D01*
X3200D01*
Y2851D01*
X3194D01*
Y2862D01*
X3189D01*
Y2867D01*
X3184D01*
Y2872D01*
X3178D01*
Y2878D01*
X3173D01*
Y2889D01*
X3167D01*
Y2894D01*
X3162D01*
Y2899D01*
X3157D01*
Y2910D01*
X3151D01*
Y2916D01*
X3146D01*
Y2921D01*
X3140D01*
Y2932D01*
X3135D01*
Y2937D01*
X3129D01*
Y2948D01*
X3124D01*
Y2959D01*
X3119D01*
Y2965D01*
X3113D01*
Y2975D01*
X3108D01*
Y2986D01*
X3102D01*
Y2997D01*
X3097D01*
Y3008D01*
X3092D01*
Y3019D01*
X3086D01*
Y3030D01*
X3081D01*
Y3040D01*
X3075D01*
Y3051D01*
X3070D01*
Y3062D01*
X3064D01*
Y3078D01*
X3059D01*
Y3089D01*
X3054D01*
Y3105D01*
X3048D01*
Y3122D01*
X3043D01*
Y3138D01*
X3037D01*
Y3160D01*
X3032D01*
Y3181D01*
X3027D01*
Y3203D01*
X3021D01*
Y3230D01*
X3016D01*
Y3268D01*
X3010D01*
Y3322D01*
X3005D01*
Y3403D01*
X3010D01*
Y3463D01*
X3016D01*
Y3495D01*
X3021D01*
Y3522D01*
X3027D01*
Y3550D01*
X3032D01*
Y3571D01*
X3037D01*
Y3587D01*
X3043D01*
Y3604D01*
X3048D01*
Y3620D01*
X3054D01*
Y3636D01*
X3059D01*
Y3647D01*
X3064D01*
Y3663D01*
X3070D01*
Y3674D01*
X3075D01*
Y3685D01*
X3081D01*
Y3696D01*
X3086D01*
Y3707D01*
X3092D01*
Y3717D01*
X3097D01*
Y3728D01*
X3102D01*
Y3739D01*
X3108D01*
Y3750D01*
X3113D01*
Y3761D01*
X3119D01*
Y3766D01*
X3124D01*
Y3777D01*
X3129D01*
Y3782D01*
X3135D01*
Y3793D01*
X3140D01*
Y3799D01*
X3146D01*
Y3810D01*
X3151D01*
Y3815D01*
X3157D01*
Y3826D01*
X3162D01*
Y3831D01*
X3167D01*
Y3837D01*
X3173D01*
Y3847D01*
X3178D01*
Y3853D01*
X3184D01*
Y3858D01*
X3189D01*
Y3864D01*
X3194D01*
Y3875D01*
X3200D01*
Y3880D01*
X3205D01*
Y3885D01*
X3211D01*
Y3891D01*
X3216D01*
Y3896D01*
X3222D01*
Y3902D01*
X3227D01*
Y3907D01*
X3232D01*
Y3913D01*
X3238D01*
Y3918D01*
X3243D01*
Y3923D01*
X3249D01*
Y3929D01*
X3254D01*
Y3934D01*
X3259D01*
Y3940D01*
X3265D01*
Y3945D01*
X3270D01*
Y3950D01*
X3276D01*
Y3956D01*
X3287D01*
Y3961D01*
X3292D01*
Y3967D01*
X3297D01*
Y3972D01*
X3303D01*
Y3978D01*
X3308D01*
Y3983D01*
X3319D01*
Y3988D01*
X3324D01*
Y3994D01*
X3330D01*
Y3999D01*
X3341D01*
Y4005D01*
X3346D01*
Y4010D01*
X3357D01*
Y4015D01*
X3362D01*
Y4021D01*
X3373D01*
Y4026D01*
X3379D01*
Y4032D01*
X3389D01*
Y4037D01*
X3400D01*
Y4043D01*
X3411D01*
Y4048D01*
X3417D01*
Y4053D01*
X3427D01*
Y4059D01*
X3438D01*
Y4064D01*
X3449D01*
Y4070D01*
X3465D01*
Y4075D01*
X3476D01*
Y4080D01*
X3487D01*
Y4086D01*
X3503D01*
Y4091D01*
X3514D01*
Y4097D01*
X3530D01*
Y4102D01*
X3547D01*
Y4108D01*
X3563D01*
Y4113D01*
X3585D01*
Y4118D01*
X3601D01*
Y4124D01*
X3628D01*
Y4129D01*
X3655D01*
Y4135D01*
X3687D01*
Y4140D01*
X3747D01*
Y4145D01*
X3828D01*
Y4140D01*
D02*
G37*
%LPC*%
G36*
X3899Y4102D02*
X3677D01*
Y4097D01*
X3639D01*
Y4091D01*
X3617D01*
Y4086D01*
X3595D01*
Y4080D01*
X3579D01*
Y4075D01*
X3557D01*
Y4070D01*
X3547D01*
Y4064D01*
X3530D01*
Y4059D01*
X3514D01*
Y4053D01*
X3503D01*
Y4048D01*
X3487D01*
Y4043D01*
X3476D01*
Y4037D01*
X3465D01*
Y4032D01*
X3454D01*
Y4026D01*
X3444D01*
Y4021D01*
X3433D01*
Y4015D01*
X3422D01*
Y4010D01*
X3417D01*
Y4005D01*
X3406D01*
Y3999D01*
X3395D01*
Y3994D01*
X3389D01*
Y3988D01*
X3379D01*
Y3983D01*
X3373D01*
Y3978D01*
X3362D01*
Y3972D01*
X3357D01*
Y3967D01*
X3352D01*
Y3961D01*
X3341D01*
Y3956D01*
X3335D01*
Y3950D01*
X3330D01*
Y3945D01*
X3319D01*
Y3940D01*
X3314D01*
Y3934D01*
X3308D01*
Y3929D01*
X3303D01*
Y3923D01*
X3297D01*
Y3918D01*
X3287D01*
Y3913D01*
X3281D01*
Y3907D01*
X3276D01*
Y3902D01*
X3270D01*
Y3896D01*
X3265D01*
Y3891D01*
X3259D01*
Y3885D01*
X3254D01*
Y3880D01*
X3249D01*
Y3875D01*
X3243D01*
Y3869D01*
X3238D01*
Y3864D01*
X3232D01*
Y3853D01*
X3227D01*
Y3847D01*
X3222D01*
Y3842D01*
X3216D01*
Y3837D01*
X3211D01*
Y3831D01*
X3205D01*
Y3820D01*
X3200D01*
Y3815D01*
X3194D01*
Y3810D01*
X3189D01*
Y3804D01*
X3184D01*
Y3793D01*
X3178D01*
Y3788D01*
X3173D01*
Y3777D01*
X3167D01*
Y3772D01*
X3162D01*
Y3761D01*
X3157D01*
Y3750D01*
X3151D01*
Y3745D01*
X3146D01*
Y3734D01*
X3140D01*
Y3723D01*
X3135D01*
Y3717D01*
X3129D01*
Y3707D01*
X3124D01*
Y3696D01*
X3119D01*
Y3685D01*
X3113D01*
Y3674D01*
X3108D01*
Y3658D01*
X3102D01*
Y3647D01*
X3097D01*
Y3631D01*
X3092D01*
Y3620D01*
X3086D01*
Y3604D01*
X3081D01*
Y3587D01*
X3075D01*
Y3566D01*
X3070D01*
Y3550D01*
X3064D01*
Y3528D01*
X3059D01*
Y3512D01*
X3054D01*
Y3490D01*
X3048D01*
Y3235D01*
X3054D01*
Y3219D01*
X3059D01*
Y3197D01*
X3064D01*
Y3176D01*
X3070D01*
Y3160D01*
X3075D01*
Y3143D01*
X3081D01*
Y3127D01*
X3086D01*
Y3111D01*
X3092D01*
Y3095D01*
X3097D01*
Y3084D01*
X3102D01*
Y3067D01*
X3108D01*
Y3057D01*
X3113D01*
Y3046D01*
X3119D01*
Y3035D01*
X3124D01*
Y3024D01*
X3129D01*
Y3013D01*
X3135D01*
Y3002D01*
X3140D01*
Y2992D01*
X3146D01*
Y2986D01*
X3151D01*
Y2975D01*
X3157D01*
Y2965D01*
X3162D01*
Y2959D01*
X3167D01*
Y2948D01*
X3173D01*
Y2943D01*
X3178D01*
Y2932D01*
X3184D01*
Y2927D01*
X3189D01*
Y2916D01*
X3194D01*
Y2910D01*
X3200D01*
Y2905D01*
X3205D01*
Y2899D01*
X3211D01*
Y2889D01*
X3216D01*
Y2883D01*
X3222D01*
Y2878D01*
X3227D01*
Y2872D01*
X3232D01*
Y2867D01*
X3238D01*
Y2862D01*
X3243D01*
Y2856D01*
X3249D01*
Y2851D01*
X3254D01*
Y2840D01*
X3259D01*
Y2834D01*
X3265D01*
Y2829D01*
X3276D01*
Y2824D01*
X3281D01*
Y2818D01*
X3287D01*
Y2813D01*
X3292D01*
Y2807D01*
X3297D01*
Y2802D01*
X3303D01*
Y2797D01*
X3308D01*
Y2791D01*
X3314D01*
Y2786D01*
X3324D01*
Y2780D01*
X3330D01*
Y2775D01*
X3335D01*
Y2769D01*
X3346D01*
Y2764D01*
X3352D01*
Y2759D01*
X3357D01*
Y2753D01*
X3368D01*
Y2748D01*
X3373D01*
Y2742D01*
X3384D01*
Y2737D01*
X3389D01*
Y2732D01*
X3400D01*
Y2726D01*
X3411D01*
Y2721D01*
X3417D01*
Y2715D01*
X3427D01*
Y2710D01*
X3438D01*
Y2704D01*
X3449D01*
Y2699D01*
X3460D01*
Y2694D01*
X3471D01*
Y2688D01*
X3482D01*
Y2683D01*
X3492D01*
Y2677D01*
X3509D01*
Y2672D01*
X3520D01*
Y2667D01*
X3536D01*
Y2661D01*
X3552D01*
Y2656D01*
X3568D01*
Y2650D01*
X3585D01*
Y2645D01*
X3606D01*
Y2639D01*
X3628D01*
Y2634D01*
X3655D01*
Y2629D01*
X3687D01*
Y2623D01*
X3850D01*
Y2629D01*
X3926D01*
Y2634D01*
X3953D01*
Y2639D01*
X3975D01*
Y2645D01*
X3991D01*
Y2650D01*
X4012D01*
Y2656D01*
X4029D01*
Y2661D01*
X4040D01*
Y2667D01*
X4056D01*
Y2672D01*
X4067D01*
Y2677D01*
X4083D01*
Y2683D01*
X4094D01*
Y2688D01*
X4105D01*
Y2694D01*
X4115D01*
Y2699D01*
X4126D01*
Y2704D01*
X4137D01*
Y2710D01*
X4148D01*
Y2715D01*
X4159D01*
Y2721D01*
X4164D01*
Y2726D01*
X4175D01*
Y2732D01*
X4186D01*
Y2737D01*
X4191D01*
Y2742D01*
X4202D01*
Y2748D01*
X4207D01*
Y2753D01*
X4218D01*
Y2759D01*
X4224D01*
Y2764D01*
X4235D01*
Y2769D01*
X4240D01*
Y2775D01*
X4245D01*
Y2780D01*
X4251D01*
Y2786D01*
X4262D01*
Y2791D01*
X4267D01*
Y2797D01*
X4272D01*
Y2802D01*
X4278D01*
Y2807D01*
X4283D01*
Y2813D01*
X4289D01*
Y2818D01*
X4300D01*
Y2824D01*
X4305D01*
Y2829D01*
X4310D01*
Y2834D01*
X4316D01*
Y2840D01*
X4321D01*
Y2845D01*
X4327D01*
Y2856D01*
X4332D01*
Y2862D01*
X4337D01*
Y2867D01*
X4343D01*
Y2872D01*
X4348D01*
Y2878D01*
X4354D01*
Y2883D01*
X4359D01*
Y2889D01*
X4365D01*
Y2894D01*
X4370D01*
Y2905D01*
X4375D01*
Y2910D01*
X4381D01*
Y2916D01*
X4386D01*
Y2927D01*
X4392D01*
Y2932D01*
X4397D01*
Y2943D01*
X4402D01*
Y2948D01*
X4408D01*
Y2959D01*
X4413D01*
Y2965D01*
X4419D01*
Y2975D01*
X4424D01*
Y2981D01*
X4430D01*
Y2992D01*
X4435D01*
Y3002D01*
X4440D01*
Y3013D01*
X4446D01*
Y3024D01*
X4451D01*
Y3035D01*
X4457D01*
Y3046D01*
X4462D01*
Y3057D01*
X4468D01*
Y3067D01*
X4473D01*
Y3078D01*
X4478D01*
Y3095D01*
X4484D01*
Y3105D01*
X4489D01*
Y3122D01*
X4495D01*
Y3138D01*
X4500D01*
Y3160D01*
X4505D01*
Y3176D01*
X4511D01*
Y3197D01*
X4516D01*
Y3219D01*
X4522D01*
Y3235D01*
X4527D01*
Y3490D01*
X4522D01*
Y3512D01*
X4516D01*
Y3533D01*
X4511D01*
Y3550D01*
X4505D01*
Y3571D01*
X4500D01*
Y3587D01*
X4495D01*
Y3604D01*
X4489D01*
Y3620D01*
X4484D01*
Y3631D01*
X4478D01*
Y3647D01*
X4473D01*
Y3658D01*
X4468D01*
Y3669D01*
X4462D01*
Y3685D01*
X4457D01*
Y3696D01*
X4451D01*
Y3707D01*
X4446D01*
Y3717D01*
X4440D01*
Y3723D01*
X4435D01*
Y3734D01*
X4430D01*
Y3745D01*
X4424D01*
Y3750D01*
X4419D01*
Y3761D01*
X4413D01*
Y3772D01*
X4408D01*
Y3777D01*
X4402D01*
Y3788D01*
X4397D01*
Y3793D01*
X4392D01*
Y3799D01*
X4386D01*
Y3810D01*
X4381D01*
Y3815D01*
X4375D01*
Y3820D01*
X4370D01*
Y3831D01*
X4365D01*
Y3837D01*
X4359D01*
Y3842D01*
X4354D01*
Y3847D01*
X4348D01*
Y3853D01*
X4343D01*
Y3864D01*
X4337D01*
Y3869D01*
X4332D01*
Y3875D01*
X4327D01*
Y3880D01*
X4321D01*
Y3885D01*
X4316D01*
Y3891D01*
X4310D01*
Y3896D01*
X4305D01*
Y3902D01*
X4300D01*
Y3907D01*
X4289D01*
Y3913D01*
X4283D01*
Y3918D01*
X4278D01*
Y3923D01*
X4272D01*
Y3929D01*
X4267D01*
Y3934D01*
X4262D01*
Y3940D01*
X4256D01*
Y3945D01*
X4251D01*
Y3950D01*
X4240D01*
Y3956D01*
X4235D01*
Y3961D01*
X4229D01*
Y3967D01*
X4218D01*
Y3972D01*
X4213D01*
Y3978D01*
X4202D01*
Y3983D01*
X4197D01*
Y3988D01*
X4186D01*
Y3983D01*
X4191D01*
Y3978D01*
X4197D01*
Y3972D01*
X4202D01*
Y3961D01*
X4207D01*
Y3837D01*
X4202D01*
Y3826D01*
X4197D01*
Y3815D01*
X4191D01*
Y3804D01*
X4186D01*
Y3799D01*
X4180D01*
Y3788D01*
X4175D01*
Y3782D01*
X4170D01*
Y3777D01*
X4164D01*
Y3772D01*
X4159D01*
Y3782D01*
X4164D01*
Y3799D01*
X4170D01*
Y3810D01*
X4175D01*
Y3826D01*
X4180D01*
Y3842D01*
X4186D01*
Y3858D01*
X4191D01*
Y3923D01*
X4186D01*
Y3929D01*
X4180D01*
Y3940D01*
X4175D01*
Y3945D01*
X4170D01*
Y3950D01*
X4164D01*
Y3956D01*
X4159D01*
Y3961D01*
X4153D01*
Y3967D01*
X4148D01*
Y3972D01*
X4137D01*
Y3978D01*
X4132D01*
Y3983D01*
X4115D01*
Y3988D01*
X4094D01*
Y3983D01*
X4077D01*
Y3978D01*
X4072D01*
Y3972D01*
X4061D01*
Y3967D01*
X4056D01*
Y3961D01*
X4050D01*
Y3950D01*
X4045D01*
Y3923D01*
X4050D01*
Y3918D01*
X4056D01*
Y3907D01*
X4061D01*
Y3902D01*
X4067D01*
Y3907D01*
X4077D01*
Y3913D01*
X4088D01*
Y3918D01*
X4105D01*
Y3923D01*
X4110D01*
Y3913D01*
X4115D01*
Y3907D01*
X4110D01*
Y3896D01*
X4105D01*
Y3885D01*
X4099D01*
Y3880D01*
X4094D01*
Y3875D01*
X4088D01*
Y3869D01*
X4083D01*
Y3858D01*
X4077D01*
Y3853D01*
X4072D01*
Y3847D01*
X4067D01*
Y3842D01*
X4061D01*
Y3837D01*
X4056D01*
Y3831D01*
X4045D01*
Y3826D01*
X4029D01*
Y3820D01*
X4018D01*
Y3815D01*
X4002D01*
Y3810D01*
X3985D01*
Y3815D01*
X3991D01*
Y3820D01*
X3996D01*
Y3826D01*
X4002D01*
Y3831D01*
X4007D01*
Y3837D01*
X4012D01*
Y3842D01*
X4018D01*
Y3847D01*
X4023D01*
Y3853D01*
X4029D01*
Y3858D01*
X4034D01*
Y3864D01*
X4040D01*
Y3875D01*
X4045D01*
Y3885D01*
X4040D01*
Y3896D01*
X4034D01*
Y3902D01*
X4029D01*
Y3913D01*
X4023D01*
Y3918D01*
X4018D01*
Y3929D01*
X4012D01*
Y3934D01*
X4007D01*
Y3929D01*
X4002D01*
Y3923D01*
X3991D01*
Y3918D01*
X3985D01*
Y3913D01*
X3980D01*
Y3907D01*
X3975D01*
Y3902D01*
X3969D01*
Y3896D01*
X3958D01*
Y3891D01*
X3953D01*
Y3885D01*
X3947D01*
Y3880D01*
X3937D01*
Y3875D01*
X3931D01*
Y3869D01*
X3920D01*
Y3864D01*
X3904D01*
Y3875D01*
X3910D01*
Y3885D01*
X3915D01*
Y3923D01*
X3969D01*
Y3929D01*
X3975D01*
Y3934D01*
X3980D01*
Y3940D01*
X3985D01*
Y3945D01*
X3991D01*
Y3956D01*
X3996D01*
Y3961D01*
X4002D01*
Y3967D01*
X4007D01*
Y3972D01*
X4012D01*
Y3978D01*
X4018D01*
Y3983D01*
X4023D01*
Y3988D01*
X4029D01*
Y3994D01*
X4034D01*
Y3999D01*
X4040D01*
Y4005D01*
X4045D01*
Y4010D01*
X4050D01*
Y4015D01*
X4061D01*
Y4021D01*
X4072D01*
Y4026D01*
X4099D01*
Y4032D01*
X4110D01*
Y4037D01*
X4099D01*
Y4043D01*
X4088D01*
Y4048D01*
X4077D01*
Y4053D01*
X4061D01*
Y4059D01*
X4045D01*
Y4064D01*
X4029D01*
Y4070D01*
X4012D01*
Y4075D01*
X3996D01*
Y4080D01*
X3975D01*
Y4086D01*
X3958D01*
Y4091D01*
X3937D01*
Y4097D01*
X3899D01*
Y4102D01*
D02*
G37*
%LPD*%
G36*
X3834Y3918D02*
X3839D01*
Y3913D01*
X3812D01*
Y3918D01*
X3817D01*
Y3923D01*
X3834D01*
Y3918D01*
D02*
G37*
G36*
X3568Y3923D02*
X3574D01*
Y3918D01*
X3579D01*
Y3913D01*
X3585D01*
Y3907D01*
X3590D01*
Y3896D01*
X3595D01*
Y3891D01*
X3601D01*
Y3885D01*
X3585D01*
Y3891D01*
X3579D01*
Y3896D01*
X3568D01*
Y3902D01*
X3552D01*
Y3907D01*
X3536D01*
Y3902D01*
X3552D01*
Y3896D01*
X3563D01*
Y3853D01*
X3557D01*
Y3831D01*
X3563D01*
Y3837D01*
X3579D01*
Y3842D01*
X3595D01*
Y3847D01*
X3622D01*
Y3853D01*
X3650D01*
Y3842D01*
X3644D01*
Y3837D01*
X3639D01*
Y3826D01*
X3633D01*
Y3820D01*
X3628D01*
Y3815D01*
X3612D01*
Y3820D01*
X3601D01*
Y3826D01*
X3590D01*
Y3831D01*
X3574D01*
Y3826D01*
X3568D01*
Y3820D01*
X3563D01*
Y3799D01*
X3579D01*
Y3804D01*
X3601D01*
Y3799D01*
X3595D01*
Y3793D01*
X3579D01*
Y3788D01*
X3563D01*
Y3782D01*
X3547D01*
Y3777D01*
X3536D01*
Y3772D01*
X3525D01*
Y3761D01*
X3536D01*
Y3766D01*
X3547D01*
Y3755D01*
X3536D01*
Y3750D01*
X3525D01*
Y3745D01*
X3514D01*
Y3739D01*
X3503D01*
Y3734D01*
X3492D01*
Y3728D01*
X3482D01*
Y3723D01*
X3471D01*
Y3717D01*
X3460D01*
Y3712D01*
X3449D01*
Y3707D01*
X3438D01*
Y3696D01*
X3454D01*
Y3701D01*
X3471D01*
Y3707D01*
X3482D01*
Y3712D01*
X3492D01*
Y3717D01*
X3509D01*
Y3707D01*
X3503D01*
Y3701D01*
X3492D01*
Y3696D01*
X3482D01*
Y3690D01*
X3471D01*
Y3685D01*
X3460D01*
Y3680D01*
X3444D01*
Y3674D01*
X3427D01*
Y3669D01*
X3422D01*
Y3663D01*
X3411D01*
Y3652D01*
X3406D01*
Y3615D01*
X3411D01*
Y3631D01*
X3417D01*
Y3642D01*
X3422D01*
Y3652D01*
X3427D01*
Y3663D01*
X3438D01*
Y3658D01*
X3433D01*
Y3642D01*
X3427D01*
Y3604D01*
X3433D01*
Y3598D01*
X3444D01*
Y3604D01*
X3449D01*
Y3609D01*
X3460D01*
Y3604D01*
X3454D01*
Y3598D01*
X3449D01*
Y3593D01*
X3444D01*
Y3587D01*
X3438D01*
Y3582D01*
X3433D01*
Y3577D01*
X3422D01*
Y3571D01*
X3417D01*
Y3566D01*
X3411D01*
Y3560D01*
X3406D01*
Y3555D01*
X3395D01*
Y3550D01*
X3389D01*
Y3544D01*
X3379D01*
Y3539D01*
X3373D01*
Y3533D01*
X3368D01*
Y3528D01*
X3357D01*
Y3522D01*
X3352D01*
Y3517D01*
X3346D01*
Y3512D01*
X3335D01*
Y3506D01*
X3330D01*
Y3501D01*
X3324D01*
Y3495D01*
X3319D01*
Y3490D01*
X3314D01*
Y3485D01*
X3308D01*
Y3479D01*
X3303D01*
Y3474D01*
X3297D01*
Y3463D01*
X3292D01*
Y3457D01*
X3287D01*
Y3452D01*
X3281D01*
Y3447D01*
X3276D01*
Y3457D01*
X3281D01*
Y3463D01*
X3287D01*
Y3468D01*
X3292D01*
Y3479D01*
X3297D01*
Y3485D01*
X3303D01*
Y3490D01*
X3308D01*
Y3495D01*
X3314D01*
Y3501D01*
X3319D01*
Y3506D01*
X3324D01*
Y3512D01*
X3330D01*
Y3517D01*
X3335D01*
Y3522D01*
X3341D01*
Y3528D01*
X3346D01*
Y3533D01*
X3352D01*
Y3539D01*
X3357D01*
Y3544D01*
X3362D01*
Y3550D01*
X3368D01*
Y3555D01*
X3373D01*
Y3560D01*
X3379D01*
Y3566D01*
X3384D01*
Y3615D01*
X3389D01*
Y3652D01*
X3395D01*
Y3669D01*
X3400D01*
Y3680D01*
X3406D01*
Y3685D01*
X3411D01*
Y3690D01*
X3417D01*
Y3696D01*
X3422D01*
Y3701D01*
X3427D01*
Y3707D01*
X3433D01*
Y3712D01*
X3438D01*
Y3717D01*
X3444D01*
Y3723D01*
X3449D01*
Y3728D01*
X3454D01*
Y3734D01*
X3465D01*
Y3739D01*
X3471D01*
Y3745D01*
X3476D01*
Y3750D01*
X3482D01*
Y3755D01*
X3487D01*
Y3761D01*
X3492D01*
Y3766D01*
X3487D01*
Y3777D01*
X3482D01*
Y3788D01*
X3476D01*
Y3799D01*
X3471D01*
Y3815D01*
X3465D01*
Y3875D01*
X3471D01*
Y3891D01*
X3476D01*
Y3896D01*
X3482D01*
Y3902D01*
X3487D01*
Y3907D01*
X3492D01*
Y3913D01*
X3498D01*
Y3918D01*
X3509D01*
Y3923D01*
X3520D01*
Y3929D01*
X3568D01*
Y3923D01*
D02*
G37*
G36*
X3736Y3896D02*
X3731D01*
Y3885D01*
X3687D01*
Y3880D01*
X3655D01*
Y3885D01*
X3671D01*
Y3891D01*
X3687D01*
Y3896D01*
X3698D01*
Y3902D01*
X3720D01*
Y3907D01*
X3736D01*
Y3896D01*
D02*
G37*
G36*
X3617Y3864D02*
X3612D01*
Y3858D01*
X3606D01*
Y3869D01*
X3612D01*
Y3875D01*
X3617D01*
Y3864D01*
D02*
G37*
G36*
X4126Y3950D02*
X4132D01*
Y3945D01*
X4137D01*
Y3940D01*
X4142D01*
Y3929D01*
X4148D01*
Y3918D01*
X4153D01*
Y3907D01*
X4159D01*
Y3896D01*
X4164D01*
Y3880D01*
X4170D01*
Y3820D01*
X4164D01*
Y3810D01*
X4159D01*
Y3799D01*
X4153D01*
Y3793D01*
X4148D01*
Y3788D01*
X4137D01*
Y3782D01*
X4072D01*
Y3788D01*
X4045D01*
Y3782D01*
X4040D01*
Y3777D01*
X4029D01*
Y3772D01*
X4023D01*
Y3761D01*
X4018D01*
Y3750D01*
X4012D01*
Y3690D01*
X4023D01*
Y3685D01*
X4029D01*
Y3680D01*
X4040D01*
Y3674D01*
X4045D01*
Y3669D01*
X4050D01*
Y3663D01*
X4040D01*
Y3658D01*
X4018D01*
Y3663D01*
X4012D01*
Y3669D01*
X4007D01*
Y3674D01*
X4002D01*
Y3680D01*
X3996D01*
Y3685D01*
X3991D01*
Y3696D01*
X3985D01*
Y3707D01*
X3980D01*
Y3717D01*
X3975D01*
Y3766D01*
X3980D01*
Y3772D01*
X3985D01*
Y3777D01*
X3991D01*
Y3782D01*
X3996D01*
Y3788D01*
X4007D01*
Y3793D01*
X4018D01*
Y3799D01*
X4029D01*
Y3804D01*
X4045D01*
Y3810D01*
X4061D01*
Y3815D01*
X4077D01*
Y3820D01*
X4088D01*
Y3826D01*
X4099D01*
Y3831D01*
X4105D01*
Y3837D01*
X4115D01*
Y3842D01*
X4121D01*
Y3847D01*
X4126D01*
Y3853D01*
X4132D01*
Y3864D01*
X4137D01*
Y3869D01*
Y3907D01*
X4132D01*
Y3918D01*
X4126D01*
Y3929D01*
X4121D01*
Y3940D01*
X4115D01*
Y3950D01*
X4110D01*
Y3956D01*
X4126D01*
Y3950D01*
D02*
G37*
G36*
X3807Y3712D02*
X3796D01*
Y3717D01*
X3807D01*
Y3712D01*
D02*
G37*
G36*
X3660Y3793D02*
X3666D01*
Y3788D01*
X3671D01*
Y3782D01*
X3677D01*
Y3777D01*
X3682D01*
Y3772D01*
X3687D01*
Y3766D01*
X3693D01*
Y3761D01*
X3698D01*
Y3755D01*
X3704D01*
Y3750D01*
X3715D01*
Y3745D01*
X3720D01*
Y3739D01*
X3725D01*
Y3734D01*
X3736D01*
Y3728D01*
X3747D01*
Y3723D01*
X3758D01*
Y3717D01*
X3763D01*
Y3712D01*
X3731D01*
Y3717D01*
X3715D01*
Y3723D01*
X3704D01*
Y3728D01*
X3698D01*
Y3734D01*
X3687D01*
Y3739D01*
X3682D01*
Y3745D01*
X3671D01*
Y3750D01*
X3666D01*
Y3755D01*
X3655D01*
Y3761D01*
X3644D01*
Y3755D01*
X3628D01*
Y3750D01*
X3617D01*
Y3745D01*
X3606D01*
Y3739D01*
X3590D01*
Y3734D01*
X3574D01*
Y3728D01*
X3552D01*
Y3734D01*
X3557D01*
Y3739D01*
X3568D01*
Y3745D01*
X3574D01*
Y3750D01*
X3585D01*
Y3755D01*
X3590D01*
Y3761D01*
X3595D01*
Y3766D01*
X3606D01*
Y3772D01*
X3612D01*
Y3777D01*
X3617D01*
Y3782D01*
X3622D01*
Y3788D01*
X3628D01*
Y3793D01*
X3639D01*
Y3799D01*
X3660D01*
Y3793D01*
D02*
G37*
G36*
X3850Y3772D02*
X3855D01*
Y3766D01*
X3861D01*
Y3755D01*
X3866D01*
Y3750D01*
X3872D01*
Y3734D01*
X3877D01*
Y3723D01*
X3882D01*
Y3701D01*
X3888D01*
Y3674D01*
X3893D01*
Y3647D01*
X3888D01*
Y3636D01*
X3850D01*
Y3642D01*
X3839D01*
Y3647D01*
X3828D01*
Y3652D01*
X3817D01*
Y3658D01*
X3801D01*
Y3631D01*
X3807D01*
Y3598D01*
X3812D01*
Y3587D01*
X3790D01*
Y3593D01*
X3780D01*
Y3598D01*
X3758D01*
Y3593D01*
X3752D01*
Y3582D01*
X3747D01*
Y3560D01*
X3752D01*
Y3550D01*
X3758D01*
Y3544D01*
X3763D01*
Y3539D01*
X3769D01*
Y3533D01*
X3774D01*
Y3528D01*
X3780D01*
Y3501D01*
X3774D01*
Y3495D01*
X3715D01*
Y3490D01*
X3704D01*
Y3485D01*
X3693D01*
Y3479D01*
X3666D01*
Y3485D01*
X3650D01*
Y3490D01*
X3628D01*
Y3495D01*
X3622D01*
Y3501D01*
X3655D01*
Y3506D01*
X3704D01*
Y3512D01*
X3709D01*
Y3517D01*
X3720D01*
Y3539D01*
X3725D01*
Y3593D01*
X3720D01*
Y3587D01*
X3715D01*
Y3582D01*
X3709D01*
Y3577D01*
X3704D01*
Y3566D01*
X3698D01*
Y3560D01*
X3693D01*
Y3550D01*
X3687D01*
Y3539D01*
X3682D01*
Y3528D01*
X3677D01*
Y3517D01*
X3671D01*
Y3512D01*
X3622D01*
Y3517D01*
X3606D01*
Y3522D01*
X3595D01*
Y3528D01*
X3568D01*
Y3522D01*
X3525D01*
Y3533D01*
X3530D01*
Y3539D01*
X3536D01*
Y3544D01*
X3547D01*
Y3550D01*
X3552D01*
Y3555D01*
X3557D01*
Y3560D01*
X3563D01*
Y3566D01*
X3568D01*
Y3571D01*
X3574D01*
Y3577D01*
X3585D01*
Y3582D01*
X3590D01*
Y3587D01*
X3601D01*
Y3593D01*
X3639D01*
Y3598D01*
X3704D01*
Y3604D01*
X3742D01*
Y3609D01*
X3758D01*
Y3615D01*
X3763D01*
Y3620D01*
X3769D01*
Y3625D01*
X3774D01*
Y3636D01*
X3780D01*
Y3658D01*
X3785D01*
Y3680D01*
X3790D01*
Y3685D01*
X3801D01*
Y3690D01*
X3834D01*
Y3696D01*
X3850D01*
Y3745D01*
X3845D01*
Y3761D01*
X3839D01*
Y3777D01*
X3850D01*
Y3772D01*
D02*
G37*
G36*
X4002Y3636D02*
X4007D01*
Y3631D01*
X4012D01*
Y3625D01*
X4018D01*
Y3620D01*
X4023D01*
Y3615D01*
X4029D01*
Y3609D01*
X4034D01*
Y3604D01*
X4040D01*
Y3598D01*
X4045D01*
Y3587D01*
X4050D01*
Y3582D01*
X4056D01*
Y3577D01*
X4061D01*
Y3566D01*
X4067D01*
Y3560D01*
X4072D01*
Y3550D01*
X4077D01*
Y3539D01*
X4083D01*
Y3528D01*
X4088D01*
Y3517D01*
X4094D01*
Y3501D01*
X4088D01*
Y3512D01*
X4083D01*
Y3517D01*
X4077D01*
Y3528D01*
X4072D01*
Y3533D01*
X4067D01*
Y3539D01*
X4061D01*
Y3544D01*
X4056D01*
Y3550D01*
X4050D01*
Y3555D01*
X4045D01*
Y3560D01*
X4040D01*
Y3566D01*
X4029D01*
Y3571D01*
X4023D01*
Y3577D01*
X4018D01*
Y3582D01*
X4007D01*
Y3587D01*
X4002D01*
Y3593D01*
X3991D01*
Y3598D01*
X3980D01*
Y3604D01*
X3839D01*
Y3609D01*
X3834D01*
Y3615D01*
X3828D01*
Y3625D01*
X3845D01*
Y3620D01*
X3877D01*
Y3625D01*
X3904D01*
Y3631D01*
X3931D01*
Y3636D01*
X3975D01*
Y3642D01*
X4002D01*
Y3636D01*
D02*
G37*
G36*
X3639Y3739D02*
X3655D01*
Y3734D01*
X3671D01*
Y3728D01*
X3687D01*
Y3723D01*
X3698D01*
Y3717D01*
X3715D01*
Y3712D01*
X3731D01*
Y3707D01*
X3742D01*
Y3701D01*
X3774D01*
Y3707D01*
X3785D01*
Y3712D01*
X3796D01*
Y3707D01*
X3790D01*
Y3701D01*
X3780D01*
Y3696D01*
X3774D01*
Y3690D01*
X3758D01*
Y3685D01*
X3747D01*
Y3680D01*
X3736D01*
Y3674D01*
X3731D01*
Y3669D01*
X3725D01*
Y3663D01*
X3715D01*
Y3658D01*
X3709D01*
Y3652D01*
X3704D01*
Y3647D01*
X3698D01*
Y3642D01*
X3693D01*
Y3636D01*
X3687D01*
Y3631D01*
X3682D01*
Y3625D01*
X3671D01*
Y3620D01*
X3666D01*
Y3615D01*
X3660D01*
Y3609D01*
X3650D01*
Y3604D01*
X3633D01*
Y3609D01*
X3639D01*
Y3620D01*
X3644D01*
Y3625D01*
X3650D01*
Y3636D01*
X3655D01*
Y3642D01*
X3660D01*
Y3652D01*
X3666D01*
Y3658D01*
X3671D01*
Y3669D01*
X3677D01*
Y3674D01*
X3682D01*
Y3696D01*
X3677D01*
Y3701D01*
X3671D01*
Y3707D01*
X3666D01*
Y3712D01*
X3660D01*
Y3717D01*
X3650D01*
Y3723D01*
X3639D01*
Y3728D01*
X3633D01*
Y3734D01*
X3628D01*
Y3745D01*
X3639D01*
Y3739D01*
D02*
G37*
G36*
X3276Y3441D02*
X3270D01*
Y3447D01*
X3276D01*
Y3441D01*
D02*
G37*
G36*
X3514Y3506D02*
X3541D01*
Y3501D01*
X3585D01*
Y3495D01*
X3595D01*
Y3490D01*
X3606D01*
Y3485D01*
X3612D01*
Y3479D01*
X3622D01*
Y3474D01*
X3628D01*
Y3468D01*
X3644D01*
Y3463D01*
X3655D01*
Y3457D01*
X3671D01*
Y3452D01*
X3693D01*
Y3447D01*
X3709D01*
Y3441D01*
X3720D01*
Y3436D01*
X3693D01*
Y3441D01*
X3671D01*
Y3447D01*
X3655D01*
Y3452D01*
X3644D01*
Y3457D01*
X3633D01*
Y3463D01*
X3622D01*
Y3468D01*
X3612D01*
Y3474D01*
X3606D01*
Y3479D01*
X3595D01*
Y3485D01*
X3585D01*
Y3490D01*
X3476D01*
Y3485D01*
X3427D01*
Y3490D01*
X3438D01*
Y3495D01*
X3454D01*
Y3501D01*
X3471D01*
Y3506D01*
X3498D01*
Y3512D01*
X3514D01*
Y3506D01*
D02*
G37*
G36*
X3362Y3392D02*
X3357D01*
Y3387D01*
X3341D01*
Y3382D01*
X3330D01*
Y3376D01*
X3319D01*
Y3371D01*
X3303D01*
Y3365D01*
X3297D01*
Y3360D01*
X3287D01*
Y3355D01*
X3276D01*
Y3349D01*
X3270D01*
Y3338D01*
X3281D01*
Y3333D01*
X3287D01*
Y3327D01*
X3297D01*
Y3322D01*
X3308D01*
Y3317D01*
X3319D01*
Y3360D01*
X3324D01*
Y3365D01*
X3335D01*
Y3371D01*
X3352D01*
Y3376D01*
X3368D01*
Y3382D01*
X3395D01*
Y3387D01*
X3400D01*
Y3376D01*
X3395D01*
Y3371D01*
X3389D01*
Y3365D01*
X3384D01*
Y3360D01*
X3379D01*
Y3355D01*
X3373D01*
Y3349D01*
X3368D01*
Y3344D01*
X3362D01*
Y3333D01*
X3357D01*
Y3327D01*
X3352D01*
Y3322D01*
X3346D01*
Y3295D01*
X3362D01*
Y3300D01*
X3373D01*
Y3306D01*
X3379D01*
Y3311D01*
X3389D01*
Y3300D01*
X3384D01*
Y3295D01*
X3379D01*
Y3290D01*
X3373D01*
Y3284D01*
X3368D01*
Y3279D01*
X3373D01*
Y3273D01*
X3389D01*
Y3268D01*
X3406D01*
Y3262D01*
X3422D01*
Y3257D01*
X3438D01*
Y3252D01*
X3465D01*
Y3257D01*
X3476D01*
Y3262D01*
X3487D01*
Y3268D01*
X3492D01*
Y3273D01*
X3503D01*
Y3279D01*
X3509D01*
Y3284D01*
X3520D01*
Y3290D01*
X3525D01*
Y3295D01*
X3536D01*
Y3300D01*
X3541D01*
Y3306D01*
X3547D01*
Y3311D01*
X3541D01*
Y3317D01*
X3536D01*
Y3322D01*
X3530D01*
Y3317D01*
X3520D01*
Y3311D01*
X3514D01*
Y3306D01*
X3503D01*
Y3300D01*
X3498D01*
Y3295D01*
X3492D01*
Y3290D01*
X3487D01*
Y3284D01*
X3476D01*
Y3279D01*
X3465D01*
Y3273D01*
X3438D01*
Y3279D01*
X3444D01*
Y3284D01*
X3454D01*
Y3290D01*
X3465D01*
Y3295D01*
X3471D01*
Y3300D01*
X3482D01*
Y3306D01*
X3492D01*
Y3311D01*
X3503D01*
Y3317D01*
X3514D01*
Y3322D01*
X3520D01*
Y3327D01*
X3530D01*
Y3333D01*
X3536D01*
Y3338D01*
X3530D01*
Y3344D01*
X3552D01*
Y3338D01*
X3574D01*
Y3333D01*
X3590D01*
Y3327D01*
X3601D01*
Y3322D01*
X3612D01*
Y3317D01*
X3622D01*
Y3311D01*
X3633D01*
Y3306D01*
X3644D01*
Y3300D01*
X3650D01*
Y3295D01*
X3660D01*
Y3290D01*
X3666D01*
Y3284D01*
X3677D01*
Y3279D01*
X3682D01*
Y3273D01*
X3687D01*
Y3268D01*
X3693D01*
Y3262D01*
X3704D01*
Y3257D01*
X3709D01*
Y3252D01*
X3715D01*
Y3246D01*
X3720D01*
Y3241D01*
X3725D01*
Y3235D01*
X3731D01*
Y3230D01*
X3736D01*
Y3225D01*
X3742D01*
Y3219D01*
X3747D01*
Y3214D01*
X3752D01*
Y3208D01*
X3758D01*
Y3219D01*
X3752D01*
Y3241D01*
X3758D01*
Y3235D01*
X3763D01*
Y3225D01*
X3769D01*
Y3214D01*
X3774D01*
Y3203D01*
X3780D01*
Y3192D01*
X3785D01*
Y3176D01*
X3790D01*
Y3154D01*
X3796D01*
Y3122D01*
X3790D01*
Y3100D01*
X3785D01*
Y3084D01*
X3780D01*
Y3067D01*
X3774D01*
Y3057D01*
X3769D01*
Y3040D01*
X3763D01*
Y3013D01*
X3758D01*
Y2975D01*
X3752D01*
Y2948D01*
X3747D01*
Y2937D01*
X3742D01*
Y2927D01*
X3736D01*
Y2921D01*
X3731D01*
Y2916D01*
X3725D01*
Y2910D01*
X3715D01*
Y2905D01*
X3698D01*
Y2916D01*
X3704D01*
Y2921D01*
X3709D01*
Y2932D01*
X3715D01*
Y2943D01*
X3720D01*
Y2948D01*
X3725D01*
Y2959D01*
X3731D01*
Y2970D01*
X3736D01*
Y2992D01*
X3731D01*
Y2997D01*
X3725D01*
Y2992D01*
X3720D01*
Y2986D01*
X3715D01*
Y2981D01*
X3709D01*
Y2975D01*
X3704D01*
Y2970D01*
X3698D01*
Y2965D01*
X3693D01*
Y2954D01*
X3633D01*
Y2948D01*
X3585D01*
Y2943D01*
X3568D01*
Y2937D01*
X3557D01*
Y2921D01*
X3563D01*
Y2916D01*
X3568D01*
Y2910D01*
X3574D01*
Y2905D01*
X3585D01*
Y2899D01*
X3595D01*
Y2894D01*
X3606D01*
Y2889D01*
X3622D01*
Y2883D01*
X3633D01*
Y2878D01*
X3650D01*
Y2872D01*
X3655D01*
Y2867D01*
X3660D01*
Y2862D01*
X3666D01*
Y2851D01*
X3650D01*
Y2845D01*
X3633D01*
Y2851D01*
X3628D01*
Y2856D01*
X3622D01*
Y2862D01*
X3612D01*
Y2867D01*
X3606D01*
Y2872D01*
X3595D01*
Y2867D01*
X3585D01*
Y2872D01*
X3579D01*
Y2878D01*
X3574D01*
Y2883D01*
X3568D01*
Y2889D01*
X3563D01*
Y2894D01*
X3552D01*
Y2899D01*
X3547D01*
Y2910D01*
X3541D01*
Y2975D01*
X3530D01*
Y2981D01*
X3525D01*
Y2986D01*
X3520D01*
Y2992D01*
X3509D01*
Y2997D01*
X3503D01*
Y3002D01*
X3498D01*
Y3008D01*
X3492D01*
Y3013D01*
X3487D01*
Y3019D01*
X3482D01*
Y3024D01*
X3476D01*
Y3040D01*
X3482D01*
Y3035D01*
X3498D01*
Y3030D01*
X3509D01*
Y3024D01*
X3525D01*
Y3019D01*
X3541D01*
Y3067D01*
X3547D01*
Y3073D01*
X3552D01*
Y3078D01*
X3557D01*
Y3084D01*
X3563D01*
Y3089D01*
X3568D01*
Y3095D01*
X3579D01*
Y3089D01*
X3574D01*
Y3078D01*
X3568D01*
Y3073D01*
X3563D01*
Y3062D01*
X3557D01*
Y3030D01*
X3568D01*
Y3024D01*
X3585D01*
Y3035D01*
X3628D01*
Y3040D01*
X3639D01*
Y3046D01*
X3644D01*
Y3051D01*
X3655D01*
Y3057D01*
X3660D01*
Y3062D01*
X3666D01*
Y3067D01*
X3671D01*
Y3073D01*
X3677D01*
Y3057D01*
X3671D01*
Y3046D01*
X3666D01*
Y3030D01*
X3660D01*
Y3019D01*
X3677D01*
Y3024D01*
X3687D01*
Y3030D01*
X3693D01*
Y3035D01*
X3704D01*
Y3040D01*
X3709D01*
Y3046D01*
X3715D01*
Y3051D01*
X3720D01*
Y3122D01*
X3725D01*
Y3138D01*
X3731D01*
Y3197D01*
X3725D01*
Y3203D01*
X3715D01*
Y3208D01*
X3704D01*
Y3203D01*
X3687D01*
Y3197D01*
X3682D01*
Y3192D01*
X3677D01*
Y3181D01*
X3671D01*
Y3176D01*
X3666D01*
Y3165D01*
X3660D01*
Y3160D01*
X3655D01*
Y3149D01*
X3650D01*
Y3143D01*
X3644D01*
Y3132D01*
X3633D01*
Y3143D01*
X3639D01*
Y3154D01*
X3644D01*
Y3170D01*
X3650D01*
Y3181D01*
X3655D01*
Y3192D01*
X3644D01*
Y3187D01*
X3639D01*
Y3181D01*
X3633D01*
Y3170D01*
X3628D01*
Y3160D01*
X3622D01*
Y3154D01*
X3617D01*
Y3143D01*
X3612D01*
Y3132D01*
X3606D01*
Y3122D01*
X3601D01*
Y3143D01*
X3606D01*
Y3149D01*
X3601D01*
Y3160D01*
X3595D01*
Y3165D01*
X3590D01*
Y3170D01*
X3585D01*
Y3176D01*
X3579D01*
Y3187D01*
X3574D01*
Y3192D01*
X3568D01*
Y3197D01*
X3563D01*
Y3203D01*
X3552D01*
Y3208D01*
X3547D01*
Y3187D01*
X3552D01*
Y3160D01*
X3547D01*
Y3165D01*
X3536D01*
Y3170D01*
X3530D01*
Y3176D01*
X3525D01*
Y3181D01*
X3520D01*
Y3192D01*
X3514D01*
Y3203D01*
X3509D01*
Y3214D01*
X3503D01*
Y3225D01*
X3498D01*
Y3230D01*
X3492D01*
Y3235D01*
X3471D01*
Y3230D01*
X3454D01*
Y3225D01*
X3449D01*
Y3203D01*
X3444D01*
Y3208D01*
X3433D01*
Y3214D01*
X3427D01*
Y3219D01*
X3411D01*
Y3225D01*
X3406D01*
Y3192D01*
X3411D01*
Y3176D01*
X3417D01*
Y3149D01*
X3395D01*
Y3154D01*
X3389D01*
Y3165D01*
X3384D01*
Y3170D01*
X3379D01*
Y3181D01*
X3373D01*
Y3192D01*
X3368D01*
Y3197D01*
X3362D01*
Y3208D01*
X3357D01*
Y3219D01*
X3352D01*
Y3225D01*
X3346D01*
Y3235D01*
X3341D01*
Y3246D01*
X3335D01*
Y3252D01*
X3330D01*
Y3257D01*
X3324D01*
Y3262D01*
X3314D01*
Y3268D01*
X3308D01*
Y3273D01*
X3303D01*
Y3279D01*
X3297D01*
Y3284D01*
X3292D01*
Y3290D01*
X3287D01*
Y3295D01*
X3281D01*
Y3300D01*
X3276D01*
Y3306D01*
X3270D01*
Y3311D01*
X3265D01*
Y3317D01*
X3259D01*
Y3327D01*
X3254D01*
Y3338D01*
X3249D01*
Y3371D01*
X3254D01*
Y3376D01*
X3270D01*
Y3371D01*
X3292D01*
Y3376D01*
X3308D01*
Y3382D01*
X3319D01*
Y3387D01*
X3330D01*
Y3392D01*
X3346D01*
Y3398D01*
X3362D01*
Y3392D01*
D02*
G37*
G36*
X3731Y3398D02*
X3742D01*
Y3392D01*
X3747D01*
Y3387D01*
X3758D01*
Y3382D01*
X3763D01*
Y3376D01*
X3769D01*
Y3365D01*
X3774D01*
Y3344D01*
X3780D01*
Y3327D01*
Y3322D01*
Y3317D01*
X3785D01*
Y3300D01*
X3790D01*
Y3295D01*
X3796D01*
Y3284D01*
X3801D01*
Y3279D01*
X3807D01*
Y3273D01*
X3812D01*
Y3268D01*
X3817D01*
Y3262D01*
X3823D01*
Y3257D01*
X3828D01*
Y3252D01*
X3850D01*
Y3273D01*
X3845D01*
Y3300D01*
X3839D01*
Y3311D01*
X3834D01*
Y3322D01*
X3828D01*
Y3333D01*
X3823D01*
Y3338D01*
X3817D01*
Y3349D01*
X3812D01*
Y3360D01*
X3807D01*
Y3365D01*
X3801D01*
Y3376D01*
X3796D01*
Y3387D01*
X3807D01*
Y3382D01*
X3812D01*
Y3376D01*
X3817D01*
Y3371D01*
X3823D01*
Y3365D01*
X3828D01*
Y3360D01*
X3834D01*
Y3355D01*
X3839D01*
Y3349D01*
X3845D01*
Y3344D01*
X3850D01*
Y3338D01*
X3855D01*
Y3333D01*
X3861D01*
Y3322D01*
X3866D01*
Y3317D01*
X3872D01*
Y3262D01*
X3866D01*
Y3246D01*
X3861D01*
Y3235D01*
X3855D01*
Y3219D01*
X3850D01*
Y3214D01*
X3855D01*
Y3149D01*
X3850D01*
Y3154D01*
X3845D01*
Y3165D01*
X3839D01*
Y3176D01*
X3834D01*
Y3187D01*
X3828D01*
Y3197D01*
X3823D01*
Y3214D01*
X3817D01*
Y3225D01*
X3812D01*
Y3241D01*
X3807D01*
Y3257D01*
X3801D01*
Y3268D01*
X3796D01*
Y3279D01*
X3790D01*
Y3284D01*
X3785D01*
Y3290D01*
X3774D01*
Y3295D01*
X3704D01*
Y3300D01*
X3693D01*
Y3306D01*
X3687D01*
Y3317D01*
X3682D01*
Y3327D01*
X3677D01*
Y3338D01*
X3671D01*
Y3349D01*
X3666D01*
Y3355D01*
X3660D01*
Y3360D01*
X3644D01*
Y3365D01*
X3628D01*
Y3371D01*
X3612D01*
Y3376D01*
X3601D01*
Y3382D01*
X3585D01*
Y3387D01*
X3574D01*
Y3392D01*
X3563D01*
Y3398D01*
X3579D01*
Y3392D01*
X3595D01*
Y3387D01*
X3628D01*
Y3382D01*
X3644D01*
Y3376D01*
X3655D01*
Y3371D01*
X3666D01*
Y3365D01*
X3671D01*
Y3360D01*
X3682D01*
Y3355D01*
X3687D01*
Y3349D01*
X3693D01*
Y3344D01*
X3698D01*
Y3338D01*
X3704D01*
Y3333D01*
X3709D01*
Y3327D01*
X3720D01*
Y3322D01*
X3758D01*
Y3333D01*
X3752D01*
Y3355D01*
X3747D01*
Y3360D01*
X3742D01*
Y3371D01*
X3736D01*
Y3376D01*
X3731D01*
Y3382D01*
X3725D01*
Y3392D01*
X3720D01*
Y3403D01*
X3731D01*
Y3398D01*
D02*
G37*
G36*
X3774Y3441D02*
X3790D01*
Y3436D01*
X3801D01*
Y3430D01*
X3812D01*
Y3425D01*
X3828D01*
Y3420D01*
X3839D01*
Y3414D01*
X3861D01*
Y3409D01*
X3877D01*
Y3403D01*
X3893D01*
Y3398D01*
X3904D01*
Y3392D01*
X3915D01*
Y3387D01*
X3926D01*
Y3382D01*
X3937D01*
Y3376D01*
X3947D01*
Y3371D01*
X3953D01*
Y3365D01*
X3964D01*
Y3360D01*
X3969D01*
Y3355D01*
X3975D01*
Y3344D01*
X3980D01*
Y3338D01*
X3985D01*
Y3327D01*
X3991D01*
Y3317D01*
X3996D01*
Y3284D01*
X3991D01*
Y3268D01*
X3985D01*
Y3262D01*
X3980D01*
Y3252D01*
X3975D01*
Y3241D01*
X3969D01*
Y3230D01*
X3964D01*
Y3219D01*
X4007D01*
Y3225D01*
X4023D01*
Y3230D01*
X4034D01*
Y3235D01*
X4045D01*
Y3241D01*
X4056D01*
Y3246D01*
X4067D01*
Y3252D01*
X4072D01*
Y3257D01*
X4077D01*
Y3262D01*
X4083D01*
Y3311D01*
X4077D01*
Y3355D01*
X4072D01*
Y3365D01*
X4067D01*
Y3382D01*
X4077D01*
Y3371D01*
X4083D01*
Y3365D01*
X4088D01*
Y3355D01*
X4094D01*
Y3344D01*
X4099D01*
Y3322D01*
X4105D01*
Y3257D01*
X4099D01*
Y3241D01*
X4094D01*
Y3225D01*
X4088D01*
Y3214D01*
X4083D01*
Y3208D01*
X4067D01*
Y3203D01*
X4050D01*
Y3197D01*
X4034D01*
Y3192D01*
X4002D01*
Y3181D01*
X3996D01*
Y3170D01*
X3991D01*
Y3160D01*
X3985D01*
Y3143D01*
X3980D01*
Y3132D01*
X3975D01*
Y3127D01*
X3980D01*
Y3100D01*
X3985D01*
Y3084D01*
X3991D01*
Y3067D01*
X3980D01*
Y3073D01*
X3964D01*
Y3062D01*
X3969D01*
Y3051D01*
X3975D01*
Y3046D01*
X3980D01*
Y3040D01*
X3985D01*
Y3030D01*
X3991D01*
Y3024D01*
X3996D01*
Y3019D01*
X4002D01*
Y3013D01*
X4007D01*
Y3008D01*
X4012D01*
Y3002D01*
X4018D01*
Y2997D01*
X4007D01*
Y3002D01*
X3996D01*
Y3008D01*
X3985D01*
Y3013D01*
X3980D01*
Y3019D01*
X3975D01*
Y3024D01*
X3969D01*
Y3019D01*
X3975D01*
Y3013D01*
X3980D01*
Y3008D01*
X3985D01*
Y3002D01*
X3991D01*
Y2997D01*
X3996D01*
Y2992D01*
X4002D01*
Y2986D01*
X3980D01*
Y2992D01*
X3975D01*
Y2997D01*
X3964D01*
Y3002D01*
X3958D01*
Y3008D01*
X3953D01*
Y3013D01*
X3947D01*
Y3019D01*
X3942D01*
Y3024D01*
X3937D01*
Y3013D01*
X3942D01*
Y3008D01*
X3947D01*
Y2997D01*
X3953D01*
Y2986D01*
X3947D01*
Y2992D01*
X3937D01*
Y2997D01*
X3931D01*
Y3002D01*
X3920D01*
Y3008D01*
X3904D01*
Y3013D01*
X3899D01*
Y3019D01*
X3893D01*
Y3024D01*
X3888D01*
Y3030D01*
X3882D01*
Y3035D01*
X3877D01*
Y3040D01*
X3855D01*
Y3035D01*
X3839D01*
Y3030D01*
X3828D01*
Y3024D01*
X3823D01*
Y3019D01*
X3817D01*
Y3008D01*
X3812D01*
Y2997D01*
X3807D01*
Y2981D01*
X3801D01*
Y2965D01*
X3796D01*
Y2948D01*
X3790D01*
Y2932D01*
X3785D01*
Y2916D01*
X3780D01*
Y2899D01*
X3774D01*
Y2889D01*
X3769D01*
Y2878D01*
X3763D01*
Y2867D01*
X3731D01*
Y2878D01*
X3736D01*
Y2883D01*
X3742D01*
Y2894D01*
X3747D01*
Y2905D01*
X3752D01*
Y2916D01*
X3758D01*
Y2932D01*
X3763D01*
Y2948D01*
X3769D01*
Y2965D01*
X3774D01*
Y2975D01*
X3780D01*
Y2986D01*
X3785D01*
Y3002D01*
X3790D01*
Y3008D01*
X3796D01*
Y3019D01*
X3801D01*
Y3030D01*
X3807D01*
Y3035D01*
X3812D01*
Y3046D01*
X3817D01*
Y3057D01*
X3823D01*
Y3062D01*
X3828D01*
Y3073D01*
X3834D01*
Y3084D01*
X3839D01*
Y3095D01*
X3845D01*
Y3105D01*
X3850D01*
Y3116D01*
X3855D01*
Y3127D01*
X3861D01*
Y3143D01*
X3866D01*
Y3165D01*
X3872D01*
Y3192D01*
X3877D01*
Y3208D01*
X3888D01*
Y3181D01*
X3882D01*
Y3116D01*
X3888D01*
Y3122D01*
X3893D01*
Y3132D01*
X3899D01*
Y3154D01*
X3904D01*
Y3187D01*
X3910D01*
Y3214D01*
X3915D01*
Y3225D01*
X3920D01*
Y3235D01*
X3926D01*
Y3246D01*
X3931D01*
Y3257D01*
X3937D01*
Y3262D01*
X3942D01*
Y3273D01*
X3937D01*
Y3300D01*
X3931D01*
Y3311D01*
X3926D01*
Y3317D01*
X3920D01*
Y3327D01*
X3915D01*
Y3333D01*
X3910D01*
Y3338D01*
X3904D01*
Y3344D01*
X3893D01*
Y3349D01*
X3888D01*
Y3355D01*
X3882D01*
Y3360D01*
X3872D01*
Y3365D01*
X3861D01*
Y3371D01*
X3850D01*
Y3376D01*
X3845D01*
Y3382D01*
X3834D01*
Y3387D01*
X3823D01*
Y3392D01*
X3812D01*
Y3398D01*
X3807D01*
Y3403D01*
X3796D01*
Y3409D01*
X3790D01*
Y3414D01*
X3780D01*
Y3420D01*
X3774D01*
Y3425D01*
X3769D01*
Y3430D01*
X3763D01*
Y3436D01*
X3758D01*
Y3447D01*
X3774D01*
Y3441D01*
D02*
G37*
G36*
X3682Y3073D02*
X3677D01*
Y3078D01*
X3682D01*
Y3073D01*
D02*
G37*
G36*
X3715Y2867D02*
X3709D01*
Y2862D01*
X3704D01*
Y2856D01*
X3693D01*
Y2862D01*
X3682D01*
Y2867D01*
X3677D01*
Y2872D01*
X3687D01*
Y2878D01*
X3715D01*
Y2867D01*
D02*
G37*
G36*
X3476Y2797D02*
X3471D01*
Y2807D01*
X3476D01*
Y2797D01*
D02*
G37*
G36*
X4094Y2786D02*
X4105D01*
Y2780D01*
X4072D01*
Y2786D01*
X4083D01*
Y2791D01*
X4094D01*
Y2786D01*
D02*
G37*
G36*
X4197Y2807D02*
X4202D01*
Y2780D01*
X4175D01*
Y2769D01*
X4197D01*
Y2764D01*
X4202D01*
Y2759D01*
X4126D01*
Y2791D01*
X4186D01*
Y2797D01*
X4126D01*
Y2802D01*
X4132D01*
Y2807D01*
X4180D01*
Y2813D01*
X4197D01*
Y2807D01*
D02*
G37*
G36*
X4056Y2802D02*
X4012D01*
Y2797D01*
X3991D01*
Y2791D01*
X4029D01*
Y2786D01*
X4045D01*
Y2780D01*
X4029D01*
Y2775D01*
X4050D01*
Y2769D01*
X4056D01*
Y2759D01*
X3985D01*
Y2764D01*
X3975D01*
Y2769D01*
X3969D01*
Y2775D01*
X3975D01*
Y2807D01*
X4056D01*
Y2802D01*
D02*
G37*
G36*
X3958D02*
X3915D01*
Y2797D01*
X3893D01*
Y2791D01*
X3915D01*
Y2786D01*
X3958D01*
Y2759D01*
X3882D01*
Y2769D01*
X3893D01*
Y2775D01*
X3915D01*
Y2780D01*
X3882D01*
Y2807D01*
X3958D01*
Y2802D01*
D02*
G37*
G36*
X3839Y2807D02*
X3861D01*
Y2802D01*
X3817D01*
Y2797D01*
X3801D01*
Y2791D01*
X3823D01*
Y2786D01*
X3861D01*
Y2759D01*
X3785D01*
Y2769D01*
X3796D01*
Y2775D01*
X3812D01*
Y2780D01*
X3796D01*
Y2786D01*
X3785D01*
Y2807D01*
X3790D01*
Y2813D01*
X3839D01*
Y2807D01*
D02*
G37*
G36*
X3763Y2802D02*
X3720D01*
Y2797D01*
X3704D01*
Y2791D01*
X3742D01*
Y2786D01*
X3758D01*
Y2780D01*
X3736D01*
Y2775D01*
X3763D01*
Y2769D01*
X3769D01*
Y2759D01*
X3698D01*
Y2764D01*
X3687D01*
Y2769D01*
X3682D01*
Y2780D01*
X3687D01*
Y2807D01*
X3763D01*
Y2802D01*
D02*
G37*
G36*
X3639Y2807D02*
X3666D01*
Y2797D01*
X3671D01*
Y2759D01*
X3666D01*
Y2764D01*
X3660D01*
Y2775D01*
X3655D01*
Y2780D01*
X3617D01*
Y2775D01*
X3601D01*
Y2764D01*
X3590D01*
Y2786D01*
X3585D01*
Y2807D01*
X3590D01*
Y2813D01*
X3639D01*
Y2807D01*
D02*
G37*
G36*
X3568D02*
X3574D01*
Y2759D01*
X3503D01*
Y2764D01*
X3498D01*
Y2807D01*
X3552D01*
Y2813D01*
X3568D01*
Y2807D01*
D02*
G37*
G36*
X3476Y2780D02*
Y2759D01*
X3471D01*
Y2786D01*
X3476D01*
Y2780D01*
D02*
G37*
G36*
X3417Y2807D02*
X3454D01*
Y2802D01*
X3444D01*
Y2797D01*
X3422D01*
Y2775D01*
X3417D01*
Y2759D01*
X3411D01*
Y2780D01*
X3406D01*
Y2802D01*
X3373D01*
Y2807D01*
X3395D01*
Y2813D01*
X3417D01*
Y2807D01*
D02*
G37*
%LPC*%
G36*
X3536Y3902D02*
X3520D01*
Y3896D01*
X3509D01*
Y3891D01*
X3503D01*
Y3875D01*
X3509D01*
Y3869D01*
X3530D01*
Y3864D01*
X3536D01*
Y3858D01*
X3530D01*
Y3853D01*
X3520D01*
Y3847D01*
X3509D01*
Y3842D01*
X3498D01*
Y3837D01*
X3487D01*
Y3804D01*
X3492D01*
Y3788D01*
X3498D01*
Y3777D01*
X3509D01*
Y3804D01*
X3503D01*
Y3826D01*
X3509D01*
Y3820D01*
X3514D01*
Y3810D01*
X3520D01*
Y3799D01*
X3525D01*
Y3793D01*
X3530D01*
Y3788D01*
X3536D01*
Y3810D01*
X3530D01*
Y3815D01*
X3525D01*
Y3820D01*
X3520D01*
Y3826D01*
X3514D01*
Y3831D01*
X3520D01*
Y3837D01*
X3525D01*
Y3842D01*
X3530D01*
Y3847D01*
X3536D01*
Y3853D01*
X3541D01*
Y3858D01*
X3547D01*
Y3869D01*
X3552D01*
Y3885D01*
X3536D01*
Y3891D01*
X3525D01*
Y3896D01*
X3536D01*
Y3902D01*
D02*
G37*
G36*
X3687Y3560D02*
X3677D01*
Y3555D01*
X3666D01*
Y3550D01*
X3660D01*
Y3544D01*
X3650D01*
Y3539D01*
X3639D01*
Y3533D01*
X3622D01*
Y3528D01*
X3644D01*
Y3533D01*
X3660D01*
Y3539D01*
X3671D01*
Y3544D01*
X3677D01*
Y3550D01*
X3682D01*
Y3555D01*
X3687D01*
Y3560D01*
D02*
G37*
G36*
X3579Y3295D02*
X3574D01*
Y3284D01*
X3579D01*
Y3279D01*
X3585D01*
Y3273D01*
X3590D01*
Y3268D01*
X3595D01*
Y3262D01*
X3601D01*
Y3257D01*
X3606D01*
Y3252D01*
X3612D01*
Y3246D01*
X3617D01*
Y3241D01*
X3612D01*
Y3246D01*
X3601D01*
Y3252D01*
X3595D01*
Y3257D01*
X3585D01*
Y3262D01*
X3574D01*
Y3268D01*
X3568D01*
Y3273D01*
X3557D01*
Y3279D01*
X3552D01*
Y3268D01*
X3557D01*
Y3262D01*
X3563D01*
Y3257D01*
X3568D01*
Y3252D01*
X3579D01*
Y3246D01*
X3585D01*
Y3241D01*
X3590D01*
Y3235D01*
X3595D01*
Y3230D01*
X3601D01*
Y3225D01*
X3606D01*
Y3219D01*
X3612D01*
Y3214D01*
X3606D01*
Y3219D01*
X3595D01*
Y3225D01*
X3590D01*
Y3230D01*
X3579D01*
Y3235D01*
X3568D01*
Y3241D01*
X3547D01*
Y3246D01*
X3541D01*
Y3235D01*
X3547D01*
Y3230D01*
X3552D01*
Y3225D01*
X3557D01*
Y3219D01*
X3563D01*
Y3214D01*
X3568D01*
Y3208D01*
X3579D01*
Y3203D01*
X3585D01*
Y3197D01*
X3590D01*
Y3192D01*
X3601D01*
Y3197D01*
X3595D01*
Y3208D01*
X3601D01*
Y3203D01*
X3606D01*
Y3197D01*
X3612D01*
Y3192D01*
X3633D01*
Y3208D01*
X3628D01*
Y3219D01*
X3633D01*
Y3214D01*
X3639D01*
Y3208D01*
X3660D01*
Y3225D01*
X3655D01*
Y3230D01*
X3650D01*
Y3241D01*
X3655D01*
Y3235D01*
X3660D01*
Y3230D01*
X3671D01*
Y3225D01*
X3677D01*
Y3219D01*
X3687D01*
Y3230D01*
X3682D01*
Y3235D01*
X3677D01*
Y3241D01*
X3666D01*
Y3246D01*
X3660D01*
Y3252D01*
X3655D01*
Y3257D01*
X3644D01*
Y3262D01*
X3639D01*
Y3268D01*
X3628D01*
Y3273D01*
X3617D01*
Y3279D01*
X3606D01*
Y3284D01*
X3595D01*
Y3290D01*
X3579D01*
Y3295D01*
D02*
G37*
G36*
X3650Y2862D02*
X3644D01*
Y2856D01*
X3650D01*
Y2862D01*
D02*
G37*
G36*
X3985Y3181D02*
X3975D01*
Y3176D01*
X3964D01*
Y3170D01*
X3958D01*
Y3165D01*
X3953D01*
Y3160D01*
X3947D01*
Y3149D01*
X3942D01*
Y3111D01*
X3947D01*
Y3116D01*
X3953D01*
Y3122D01*
X3958D01*
Y3132D01*
X3964D01*
Y3143D01*
X3969D01*
Y3154D01*
X3975D01*
Y3165D01*
X3980D01*
Y3176D01*
X3985D01*
Y3181D01*
D02*
G37*
G36*
X3639Y2802D02*
X3622D01*
Y2797D01*
X3606D01*
Y2791D01*
X3655D01*
Y2797D01*
X3639D01*
Y2802D01*
D02*
G37*
G36*
X3568Y2797D02*
X3509D01*
Y2780D01*
X3503D01*
Y2775D01*
X3541D01*
Y2780D01*
X3520D01*
Y2786D01*
X3530D01*
Y2791D01*
X3568D01*
Y2797D01*
D02*
G37*
%LPD*%
M02*
