G04*
G04 #@! TF.GenerationSoftware,Altium Limited,Altium Designer,22.2.1 (43)*
G04*
G04 Layer_Color=8421504*
%FSLAX23Y23*%
%MOIN*%
G70*
G04*
G04 #@! TF.SameCoordinates,341014A0-F451-4C88-BB74-CD236E81B47C*
G04*
G04*
G04 #@! TF.FilePolarity,Positive*
G04*
G01*
G75*
G04:AMPARAMS|DCode=16|XSize=74mil|YSize=21mil|CornerRadius=11mil|HoleSize=0mil|Usage=FLASHONLY|Rotation=90.000|XOffset=0mil|YOffset=0mil|HoleType=Round|Shape=RoundedRectangle|*
%AMROUNDEDRECTD16*
21,1,0.074,0.000,0,0,90.0*
21,1,0.052,0.021,0,0,90.0*
1,1,0.021,0.000,0.026*
1,1,0.021,0.000,-0.026*
1,1,0.021,0.000,-0.026*
1,1,0.021,0.000,0.026*
%
%ADD16ROUNDEDRECTD16*%
%ADD17R,0.021X0.074*%
%ADD18R,0.051X0.028*%
%ADD19O,0.098X0.028*%
%ADD20R,0.012X0.020*%
%ADD21R,0.037X0.053*%
%ADD22R,0.041X0.057*%
%ADD23R,0.020X0.012*%
%ADD24R,0.031X0.035*%
%ADD25R,0.065X0.044*%
%ADD26O,0.028X0.098*%
%ADD27R,0.053X0.022*%
%ADD28R,0.037X0.057*%
%ADD29R,0.142X0.038*%
G04:AMPARAMS|DCode=30|XSize=62mil|YSize=16mil|CornerRadius=2mil|HoleSize=0mil|Usage=FLASHONLY|Rotation=0.000|XOffset=0mil|YOffset=0mil|HoleType=Round|Shape=RoundedRectangle|*
%AMROUNDEDRECTD30*
21,1,0.062,0.012,0,0,0.0*
21,1,0.058,0.016,0,0,0.0*
1,1,0.004,0.029,-0.006*
1,1,0.004,-0.029,-0.006*
1,1,0.004,-0.029,0.006*
1,1,0.004,0.029,0.006*
%
%ADD30ROUNDEDRECTD30*%
%ADD31R,0.055X0.061*%
D16*
X3045Y3286D02*
D03*
X3095D02*
D03*
X3145D02*
D03*
X3195D02*
D03*
Y3104D02*
D03*
X3145D02*
D03*
X3095D02*
D03*
D17*
X3045D02*
D03*
D18*
X3665Y3918D02*
D03*
Y3992D02*
D03*
D19*
X3459Y3645D02*
D03*
Y3595D02*
D03*
Y3545D02*
D03*
Y3495D02*
D03*
X3651Y3645D02*
D03*
Y3595D02*
D03*
Y3545D02*
D03*
Y3495D02*
D03*
X3286Y3760D02*
D03*
Y3810D02*
D03*
Y3860D02*
D03*
Y3910D02*
D03*
X3094Y3760D02*
D03*
Y3810D02*
D03*
Y3860D02*
D03*
Y3910D02*
D03*
D20*
X3710Y3744D02*
D03*
Y3716D02*
D03*
X3735Y3644D02*
D03*
Y3616D02*
D03*
X3735Y3516D02*
D03*
Y3544D02*
D03*
X3010Y3816D02*
D03*
Y3844D02*
D03*
X3365Y3809D02*
D03*
Y3781D02*
D03*
X3521Y2986D02*
D03*
Y3014D02*
D03*
X3451Y3006D02*
D03*
Y3034D02*
D03*
D21*
X3024Y3375D02*
D03*
X3085D02*
D03*
D22*
X3228Y3375D02*
D03*
X3155D02*
D03*
D23*
X3551Y3700D02*
D03*
X3579D02*
D03*
X3209Y3975D02*
D03*
X3181D02*
D03*
X3279Y3975D02*
D03*
X3251D02*
D03*
X3409Y3855D02*
D03*
X3381D02*
D03*
X3447Y2970D02*
D03*
X3475D02*
D03*
X3492Y2945D02*
D03*
X3520D02*
D03*
X4298Y3187D02*
D03*
X4270D02*
D03*
X4294Y3215D02*
D03*
X4266D02*
D03*
D24*
X3378Y3685D02*
D03*
X3322D02*
D03*
X3433Y3910D02*
D03*
X3377D02*
D03*
X3417Y3810D02*
D03*
X3473D02*
D03*
D25*
X3311Y3485D02*
D03*
Y3385D02*
D03*
D26*
X3621Y3311D02*
D03*
X3571D02*
D03*
X3521D02*
D03*
X3471D02*
D03*
X3621Y3118D02*
D03*
X3571D02*
D03*
X3521D02*
D03*
X3471D02*
D03*
D27*
X3311Y3323D02*
D03*
Y3246D02*
D03*
D28*
X3633Y2675D02*
D03*
X3557D02*
D03*
D29*
X3326Y3171D02*
D03*
Y2988D02*
D03*
D30*
X4208Y3290D02*
D03*
Y3264D02*
D03*
Y3110D02*
D03*
Y3238D02*
D03*
X3982D02*
D03*
X4208Y3213D02*
D03*
X3982D02*
D03*
Y3290D02*
D03*
Y3264D02*
D03*
Y3110D02*
D03*
Y3187D02*
D03*
Y3162D02*
D03*
X4208Y3136D02*
D03*
Y3162D02*
D03*
Y3187D02*
D03*
X3982Y3136D02*
D03*
D31*
X4472Y3180D02*
D03*
X4398D02*
D03*
X4477Y3390D02*
D03*
X4472Y3285D02*
D03*
X4403Y3390D02*
D03*
X4398Y3285D02*
D03*
M02*
