G04*
G04 #@! TF.GenerationSoftware,Altium Limited,Altium Designer,22.2.1 (43)*
G04*
G04 Layer_Color=2752767*
%FSLAX23Y23*%
%MOIN*%
G70*
G04*
G04 #@! TF.SameCoordinates,341014A0-F451-4C88-BB74-CD236E81B47C*
G04*
G04*
G04 #@! TF.FilePolarity,Positive*
G04*
G01*
G75*
%ADD58C,0.002*%
%ADD59C,0.003*%
D58*
X4387Y2522D02*
Y2538D01*
X4403D01*
Y2522D01*
X4387D01*
X2772Y3097D02*
Y3113D01*
X2788D01*
Y3097D01*
X2772D01*
X3777Y4372D02*
Y4388D01*
X3793D01*
Y4372D01*
X3777D01*
X3755Y2342D02*
X3747Y2358D01*
X3763D01*
X3755Y2342D01*
X3655Y2442D02*
X3647Y2458D01*
X3663D01*
X3655Y2442D01*
X3855D02*
X3847Y2458D01*
X3863D01*
X3855Y2442D01*
Y2242D02*
X3847Y2258D01*
X3863D01*
X3855Y2242D01*
X3655D02*
X3647Y2258D01*
X3663D01*
X3655Y2242D01*
X4670Y3567D02*
X4674Y3571D01*
X4678D01*
X4674Y3575D01*
X4678Y3579D01*
X4674D01*
X4670Y3583D01*
X4666Y3579D01*
X4662D01*
X4666Y3575D01*
X4662Y3571D01*
X4666D01*
X4670Y3567D01*
Y2867D02*
X4674Y2871D01*
X4678D01*
X4674Y2875D01*
X4678Y2879D01*
X4674D01*
X4670Y2883D01*
X4666Y2879D01*
X4662D01*
X4666Y2875D01*
X4662Y2871D01*
X4666D01*
X4670Y2867D01*
Y2767D02*
X4674Y2771D01*
X4678D01*
X4674Y2775D01*
X4678Y2779D01*
X4674D01*
X4670Y2783D01*
X4666Y2779D01*
X4662D01*
X4666Y2775D01*
X4662Y2771D01*
X4666D01*
X4670Y2767D01*
Y3867D02*
X4674Y3871D01*
X4678D01*
X4674Y3875D01*
X4678Y3879D01*
X4674D01*
X4670Y3883D01*
X4666Y3879D01*
X4662D01*
X4666Y3875D01*
X4662Y3871D01*
X4666D01*
X4670Y3867D01*
Y3767D02*
X4674Y3771D01*
X4678D01*
X4674Y3775D01*
X4678Y3779D01*
X4674D01*
X4670Y3783D01*
X4666Y3779D01*
X4662D01*
X4666Y3775D01*
X4662Y3771D01*
X4666D01*
X4670Y3767D01*
Y3667D02*
X4674Y3671D01*
X4678D01*
X4674Y3675D01*
X4678Y3679D01*
X4674D01*
X4670Y3683D01*
X4666Y3679D01*
X4662D01*
X4666Y3675D01*
X4662Y3671D01*
X4666D01*
X4670Y3667D01*
Y3467D02*
X4674Y3471D01*
X4678D01*
X4674Y3475D01*
X4678Y3479D01*
X4674D01*
X4670Y3483D01*
X4666Y3479D01*
X4662D01*
X4666Y3475D01*
X4662Y3471D01*
X4666D01*
X4670Y3467D01*
Y3367D02*
X4674Y3371D01*
X4678D01*
X4674Y3375D01*
X4678Y3379D01*
X4674D01*
X4670Y3383D01*
X4666Y3379D01*
X4662D01*
X4666Y3375D01*
X4662Y3371D01*
X4666D01*
X4670Y3367D01*
Y3167D02*
X4674Y3171D01*
X4678D01*
X4674Y3175D01*
X4678Y3179D01*
X4674D01*
X4670Y3183D01*
X4666Y3179D01*
X4662D01*
X4666Y3175D01*
X4662Y3171D01*
X4666D01*
X4670Y3167D01*
Y2967D02*
X4674Y2971D01*
X4678D01*
X4674Y2975D01*
X4678Y2979D01*
X4674D01*
X4670Y2983D01*
X4666Y2979D01*
X4662D01*
X4666Y2975D01*
X4662Y2971D01*
X4666D01*
X4670Y2967D01*
Y3067D02*
X4674Y3071D01*
X4678D01*
X4674Y3075D01*
X4678Y3079D01*
X4674D01*
X4670Y3083D01*
X4666Y3079D01*
X4662D01*
X4666Y3075D01*
X4662Y3071D01*
X4666D01*
X4670Y3067D01*
Y3267D02*
X4674Y3271D01*
X4678D01*
X4674Y3275D01*
X4678Y3279D01*
X4674D01*
X4670Y3283D01*
X4666Y3279D01*
X4662D01*
X4666Y3275D01*
X4662Y3271D01*
X4666D01*
X4670Y3267D01*
X4332Y2987D02*
X4336Y2995D01*
X4332Y3003D01*
X4340Y2999D01*
X4348Y3003D01*
X4344Y2995D01*
X4348Y2987D01*
X4340Y2991D01*
X4332Y2987D01*
X4297Y3102D02*
X4301Y3110D01*
X4297Y3118D01*
X4305Y3114D01*
X4313Y3118D01*
X4309Y3110D01*
X4313Y3102D01*
X4305Y3106D01*
X4297Y3102D01*
X3577Y3897D02*
X3581Y3905D01*
X3577Y3913D01*
X3585Y3909D01*
X3593Y3913D01*
X3589Y3905D01*
X3593Y3897D01*
X3585Y3901D01*
X3577Y3897D01*
X4462Y3467D02*
X4466Y3475D01*
X4462Y3483D01*
X4470Y3479D01*
X4478Y3483D01*
X4474Y3475D01*
X4478Y3467D01*
X4470Y3471D01*
X4462Y3467D01*
X4242Y3424D02*
X4246Y3432D01*
X4242Y3440D01*
X4250Y3436D01*
X4258Y3440D01*
X4254Y3432D01*
X4258Y3424D01*
X4250Y3428D01*
X4242Y3424D01*
X3613Y2972D02*
X3617Y2980D01*
X3613Y2988D01*
X3621Y2984D01*
X3629Y2988D01*
X3625Y2980D01*
X3629Y2972D01*
X3621Y2976D01*
X3613Y2972D01*
X3482Y3902D02*
X3486Y3910D01*
X3482Y3918D01*
X3490Y3914D01*
X3498Y3918D01*
X3494Y3910D01*
X3498Y3902D01*
X3490Y3906D01*
X3482Y3902D01*
X3232Y3627D02*
X3236Y3635D01*
X3232Y3643D01*
X3240Y3639D01*
X3248Y3643D01*
X3244Y3635D01*
X3248Y3627D01*
X3240Y3631D01*
X3232Y3627D01*
X4117Y3247D02*
X4121Y3255D01*
X4117Y3263D01*
X4125Y3259D01*
X4133Y3263D01*
X4129Y3255D01*
X4133Y3247D01*
X4125Y3251D01*
X4117Y3247D01*
Y3122D02*
X4121Y3130D01*
X4117Y3138D01*
X4125Y3134D01*
X4133Y3138D01*
X4129Y3130D01*
X4133Y3122D01*
X4125Y3126D01*
X4117Y3122D01*
D59*
X3546Y2415D02*
G03*
X3546Y2415I-8J0D01*
G01*
X3250D02*
G03*
X3250Y2415I-8J0D01*
G01*
M02*
