G04*
G04 #@! TF.GenerationSoftware,Altium Limited,Altium Designer,22.2.1 (43)*
G04*
G04 Layer_Color=16711935*
%FSLAX23Y23*%
%MOIN*%
G70*
G04*
G04 #@! TF.SameCoordinates,341014A0-F451-4C88-BB74-CD236E81B47C*
G04*
G04*
G04 #@! TF.FilePolarity,Positive*
G04*
G01*
G75*
%ADD11C,0.008*%
G36*
X3101Y3235D02*
X3101D01*
X3101Y3235D01*
X3102Y3235D01*
X3102Y3235D01*
X3102Y3235D01*
X3103Y3235D01*
X3103Y3235D01*
X3104Y3235D01*
X3104D01*
X3104Y3235D01*
X3104Y3234D01*
X3104Y3234D01*
X3104Y3234D01*
X3104Y3234D01*
X3105Y3234D01*
X3105Y3234D01*
X3105Y3234D01*
X3105Y3233D01*
X3106Y3233D01*
X3106Y3233D01*
X3106Y3233D01*
X3107Y3232D01*
X3107Y3232D01*
X3107Y3232D01*
X3107Y3232D01*
X3107Y3231D01*
X3107Y3231D01*
X3108Y3231D01*
X3108Y3231D01*
X3108Y3231D01*
X3108Y3231D01*
X3108Y3230D01*
X3109Y3230D01*
X3109Y3230D01*
X3109Y3230D01*
X3109Y3230D01*
X3109Y3230D01*
X3109Y3229D01*
X3110Y3229D01*
X3110Y3229D01*
X3110Y3229D01*
X3110Y3229D01*
X3110Y3229D01*
X3111Y3229D01*
X3111D01*
X3111Y3229D01*
X3111Y3229D01*
X3111Y3229D01*
X3111Y3229D01*
X3111Y3229D01*
X3111Y3229D01*
X3112Y3229D01*
X3112Y3229D01*
X3112Y3229D01*
X3112Y3229D01*
X3112D01*
X3113Y3229D01*
X3113Y3229D01*
X3113D01*
Y3226D01*
X3113D01*
X3113D01*
X3113D01*
X3113D01*
X3113Y3226D01*
X3113D01*
X3112D01*
X3112D01*
X3112D01*
X3112D01*
X3112D01*
X3112Y3226D01*
X3112D01*
X3112Y3226D01*
X3111Y3226D01*
X3111Y3226D01*
X3110Y3226D01*
X3110Y3226D01*
X3109Y3226D01*
X3109D01*
X3109Y3226D01*
X3109Y3226D01*
X3109Y3226D01*
X3109Y3226D01*
X3109Y3226D01*
X3108Y3227D01*
X3108Y3227D01*
X3108Y3227D01*
X3107Y3227D01*
X3107Y3227D01*
X3107Y3227D01*
X3107Y3228D01*
X3107Y3228D01*
X3107Y3228D01*
X3106Y3228D01*
X3106Y3228D01*
X3106Y3229D01*
X3106Y3229D01*
X3106Y3229D01*
X3105Y3229D01*
X3105Y3230D01*
X3105Y3230D01*
X3105Y3230D01*
X3105Y3230D01*
X3105Y3230D01*
X3105Y3230D01*
X3105Y3230D01*
X3104Y3230D01*
X3104Y3231D01*
X3104Y3231D01*
X3103Y3231D01*
X3103Y3232D01*
X3103Y3232D01*
X3103D01*
X3103Y3232D01*
X3103Y3232D01*
X3103Y3232D01*
X3102Y3232D01*
X3102Y3232D01*
X3102Y3232D01*
X3101Y3232D01*
X3101Y3232D01*
X3101D01*
X3101D01*
X3101D01*
X3101Y3232D01*
X3101Y3232D01*
X3100Y3232D01*
X3100Y3232D01*
X3100Y3232D01*
X3100Y3232D01*
X3100Y3232D01*
X3099Y3232D01*
X3099Y3232D01*
X3099Y3231D01*
X3098Y3231D01*
X3098Y3231D01*
X3098Y3231D01*
X3098Y3231D01*
X3098Y3231D01*
X3098Y3231D01*
X3098Y3230D01*
X3098Y3230D01*
X3097Y3230D01*
X3097Y3230D01*
X3097Y3230D01*
X3097Y3230D01*
X3097Y3229D01*
X3097Y3229D01*
X3097Y3229D01*
X3097Y3228D01*
X3097Y3228D01*
X3097Y3228D01*
X3097Y3227D01*
Y3227D01*
X3097Y3227D01*
X3097Y3227D01*
X3097Y3227D01*
X3097Y3226D01*
X3097Y3226D01*
X3097Y3226D01*
X3097Y3225D01*
X3097Y3225D01*
X3097Y3225D01*
X3097Y3225D01*
X3098Y3224D01*
X3098Y3224D01*
X3098Y3224D01*
X3098Y3224D01*
X3098Y3224D01*
X3098Y3224D01*
X3098Y3224D01*
X3098Y3224D01*
X3099Y3223D01*
X3099Y3223D01*
X3099Y3223D01*
X3099Y3223D01*
X3100Y3223D01*
X3100Y3223D01*
X3100Y3223D01*
X3101Y3222D01*
X3101Y3222D01*
X3102Y3222D01*
X3101Y3219D01*
X3101D01*
X3101D01*
X3101Y3219D01*
X3101Y3219D01*
X3101Y3219D01*
X3100Y3219D01*
X3100Y3219D01*
X3100Y3219D01*
X3099Y3220D01*
X3099Y3220D01*
X3098Y3220D01*
X3098Y3220D01*
X3098Y3220D01*
X3097Y3221D01*
X3097Y3221D01*
X3096Y3221D01*
X3096Y3222D01*
X3096Y3222D01*
X3096Y3222D01*
X3096Y3222D01*
X3096Y3222D01*
X3095Y3222D01*
X3095Y3223D01*
X3095Y3223D01*
X3095Y3223D01*
X3095Y3224D01*
X3095Y3224D01*
X3094Y3224D01*
X3094Y3225D01*
X3094Y3225D01*
X3094Y3226D01*
X3094Y3227D01*
X3094Y3227D01*
Y3227D01*
X3094Y3228D01*
X3094Y3228D01*
X3094Y3228D01*
X3094Y3229D01*
X3094Y3229D01*
X3094Y3229D01*
X3094Y3230D01*
X3095Y3230D01*
X3095Y3231D01*
X3095Y3231D01*
X3095Y3232D01*
X3095Y3232D01*
X3096Y3233D01*
X3096Y3233D01*
X3096Y3233D01*
X3096Y3233D01*
X3096Y3233D01*
X3096Y3233D01*
X3097Y3234D01*
X3097Y3234D01*
X3097Y3234D01*
X3097Y3234D01*
X3098Y3234D01*
X3098Y3235D01*
X3098Y3235D01*
X3099Y3235D01*
X3099Y3235D01*
X3100Y3235D01*
X3100Y3235D01*
X3101Y3235D01*
X3101D01*
X3101D01*
X3101D01*
X3101Y3235D01*
D02*
G37*
G36*
X3120Y3225D02*
X3116D01*
Y3229D01*
X3120D01*
Y3225D01*
D02*
G37*
G36*
X3110Y3215D02*
X3110D01*
X3110Y3215D01*
X3111Y3215D01*
X3111Y3215D01*
X3112Y3215D01*
X3112Y3215D01*
X3113Y3214D01*
X3114Y3214D01*
X3114Y3214D01*
X3115Y3214D01*
X3115Y3214D01*
X3115D01*
X3115Y3214D01*
X3115Y3214D01*
X3115Y3214D01*
X3116Y3214D01*
X3116Y3214D01*
X3116Y3213D01*
X3116Y3213D01*
X3117Y3213D01*
X3117Y3213D01*
X3117Y3213D01*
X3117Y3212D01*
X3118Y3212D01*
X3118Y3212D01*
X3118Y3211D01*
X3119Y3211D01*
X3119Y3211D01*
X3119Y3211D01*
X3119Y3211D01*
X3119Y3210D01*
X3119Y3210D01*
X3119Y3210D01*
X3119Y3210D01*
X3119Y3209D01*
X3119Y3209D01*
X3120Y3208D01*
X3120Y3208D01*
X3120Y3207D01*
X3120Y3207D01*
X3120Y3206D01*
X3120Y3206D01*
X3120Y3205D01*
Y3205D01*
X3120Y3204D01*
X3120Y3204D01*
X3120Y3204D01*
X3120Y3203D01*
X3120Y3203D01*
X3120Y3202D01*
X3120Y3202D01*
X3120Y3201D01*
X3119Y3201D01*
X3119Y3201D01*
X3119Y3200D01*
X3119Y3200D01*
X3119Y3199D01*
X3119Y3199D01*
X3119Y3199D01*
X3119Y3199D01*
X3119Y3199D01*
X3118Y3199D01*
X3118Y3198D01*
X3118Y3198D01*
X3118Y3198D01*
X3118Y3198D01*
X3117Y3197D01*
X3117Y3197D01*
X3117Y3197D01*
X3116Y3197D01*
X3116Y3196D01*
X3116Y3196D01*
X3115Y3196D01*
X3115Y3196D01*
X3115Y3196D01*
X3115Y3196D01*
X3115Y3196D01*
X3115Y3196D01*
X3114Y3196D01*
X3114Y3196D01*
X3114Y3195D01*
X3113Y3195D01*
X3113Y3195D01*
X3112Y3195D01*
X3112Y3195D01*
X3111Y3195D01*
X3110Y3195D01*
X3110Y3195D01*
X3109Y3195D01*
X3094D01*
Y3198D01*
X3109D01*
X3109D01*
X3109D01*
X3109D01*
X3109Y3198D01*
X3110D01*
X3110Y3198D01*
X3110Y3198D01*
X3111Y3198D01*
X3112Y3198D01*
X3112Y3199D01*
X3113Y3199D01*
X3113Y3199D01*
X3113Y3199D01*
X3114Y3199D01*
X3114D01*
X3114Y3199D01*
X3114Y3199D01*
X3114Y3199D01*
X3114Y3199D01*
X3114Y3199D01*
X3115Y3199D01*
X3115Y3200D01*
X3115Y3200D01*
X3116Y3201D01*
X3116Y3201D01*
X3116Y3201D01*
Y3201D01*
X3116Y3201D01*
X3116Y3201D01*
X3116Y3201D01*
X3116Y3201D01*
X3116Y3202D01*
X3117Y3202D01*
X3117Y3202D01*
X3117Y3202D01*
X3117Y3203D01*
X3117Y3203D01*
X3117Y3203D01*
X3117Y3204D01*
X3117Y3204D01*
X3117Y3205D01*
Y3205D01*
X3117Y3205D01*
Y3205D01*
X3117Y3206D01*
X3117Y3206D01*
X3117Y3206D01*
X3117Y3207D01*
X3117Y3207D01*
X3117Y3208D01*
X3116Y3208D01*
X3116Y3208D01*
X3116Y3209D01*
X3116Y3209D01*
X3116Y3210D01*
X3115Y3210D01*
X3115Y3210D01*
X3115Y3210D01*
X3115Y3210D01*
X3115Y3210D01*
X3115Y3210D01*
X3115Y3210D01*
X3114Y3211D01*
X3114Y3211D01*
X3114Y3211D01*
X3113Y3211D01*
X3113Y3211D01*
X3112Y3211D01*
X3111Y3211D01*
X3111Y3211D01*
X3110Y3211D01*
X3109Y3211D01*
X3094D01*
Y3215D01*
X3109D01*
X3109D01*
X3109D01*
X3109D01*
X3109D01*
X3109D01*
X3110Y3215D01*
D02*
G37*
G36*
X3337Y3273D02*
X3337Y3273D01*
Y3273D01*
X3337Y3273D01*
X3337Y3272D01*
X3337Y3272D01*
X3337Y3271D01*
X3336Y3271D01*
X3336Y3270D01*
X3336Y3270D01*
X3336Y3269D01*
X3336Y3269D01*
X3336Y3269D01*
Y3269D01*
X3336Y3268D01*
X3336Y3268D01*
X3336Y3268D01*
X3336Y3268D01*
X3336Y3268D01*
X3336Y3268D01*
X3335Y3268D01*
X3335Y3267D01*
X3335Y3267D01*
X3335Y3267D01*
X3335Y3267D01*
X3334Y3266D01*
X3334Y3266D01*
X3334Y3266D01*
X3334Y3266D01*
X3334Y3266D01*
X3333Y3266D01*
X3333Y3266D01*
X3333Y3266D01*
X3333Y3266D01*
X3333Y3265D01*
X3333Y3265D01*
X3332Y3265D01*
X3332Y3265D01*
X3332Y3265D01*
X3332Y3265D01*
X3331Y3265D01*
X3331Y3265D01*
X3330Y3265D01*
X3330Y3265D01*
X3330D01*
X3330D01*
X3330Y3265D01*
X3329D01*
X3329Y3265D01*
X3329Y3265D01*
X3329Y3265D01*
X3328Y3265D01*
X3328Y3265D01*
X3327Y3265D01*
X3327Y3265D01*
X3327Y3265D01*
X3326Y3266D01*
X3326Y3266D01*
X3326Y3266D01*
X3325Y3266D01*
X3325Y3266D01*
X3325Y3267D01*
X3325Y3267D01*
X3325Y3267D01*
X3325Y3267D01*
X3325Y3267D01*
X3324Y3267D01*
X3324Y3268D01*
X3324Y3268D01*
X3324Y3269D01*
X3324Y3269D01*
X3324Y3269D01*
X3323Y3270D01*
X3323Y3271D01*
X3323Y3271D01*
X3323Y3272D01*
Y3272D01*
X3323Y3272D01*
X3323Y3272D01*
X3323Y3272D01*
X3323Y3271D01*
X3323Y3271D01*
X3322Y3271D01*
X3322Y3270D01*
X3322Y3270D01*
X3322Y3270D01*
X3322Y3270D01*
X3322Y3270D01*
X3322Y3270D01*
X3321Y3270D01*
X3321Y3269D01*
X3321Y3269D01*
X3321Y3269D01*
X3321Y3269D01*
X3321Y3269D01*
X3320Y3268D01*
X3320Y3268D01*
X3320Y3268D01*
X3319Y3268D01*
X3319Y3268D01*
X3318Y3267D01*
X3312Y3263D01*
Y3267D01*
X3317Y3270D01*
X3317Y3270D01*
X3317Y3270D01*
X3317Y3270D01*
X3317Y3270D01*
X3317Y3271D01*
X3318Y3271D01*
X3318Y3271D01*
X3318Y3271D01*
X3319Y3271D01*
X3319Y3272D01*
X3320Y3272D01*
X3320Y3272D01*
X3320Y3273D01*
X3320Y3273D01*
X3320Y3273D01*
X3320Y3273D01*
X3320Y3273D01*
X3321Y3273D01*
X3321Y3273D01*
X3321Y3273D01*
X3321Y3274D01*
X3322Y3274D01*
X3322Y3274D01*
X3322Y3274D01*
X3322Y3274D01*
X3322Y3275D01*
X3322Y3275D01*
X3322Y3275D01*
X3322Y3275D01*
X3322Y3275D01*
X3323Y3276D01*
Y3276D01*
X3323Y3276D01*
X3323Y3276D01*
X3323Y3276D01*
X3323Y3276D01*
X3323Y3277D01*
X3323Y3277D01*
Y3281D01*
X3312D01*
Y3285D01*
X3337D01*
Y3273D01*
D02*
G37*
G36*
X3317Y3261D02*
X3317D01*
X3317Y3261D01*
X3317Y3261D01*
X3317Y3261D01*
X3318Y3261D01*
X3318Y3261D01*
X3319Y3260D01*
X3319D01*
X3319Y3260D01*
X3319Y3260D01*
X3319Y3260D01*
X3319Y3260D01*
X3319Y3260D01*
X3320Y3260D01*
X3320Y3259D01*
X3320Y3259D01*
X3321Y3259D01*
Y3259D01*
X3321Y3259D01*
X3321Y3259D01*
X3321Y3259D01*
X3321Y3258D01*
X3321Y3258D01*
X3321Y3258D01*
X3321Y3257D01*
X3321Y3257D01*
X3322Y3257D01*
Y3257D01*
X3322Y3256D01*
Y3256D01*
X3322Y3256D01*
X3322Y3256D01*
X3322Y3256D01*
X3322Y3256D01*
X3322Y3256D01*
X3322Y3256D01*
X3322Y3255D01*
X3322Y3255D01*
X3322Y3255D01*
X3322Y3255D01*
X3322Y3254D01*
X3322Y3254D01*
X3322Y3254D01*
Y3254D01*
X3322Y3254D01*
Y3254D01*
X3322Y3253D01*
X3322Y3253D01*
X3322Y3253D01*
X3322Y3253D01*
X3322Y3252D01*
X3322Y3252D01*
X3322Y3251D01*
X3322Y3251D01*
X3323Y3250D01*
X3323Y3249D01*
X3323Y3249D01*
X3323Y3249D01*
X3323Y3248D01*
X3323D01*
X3323D01*
X3323D01*
X3323Y3248D01*
X3324D01*
X3324D01*
X3324D01*
X3324D01*
X3324D01*
X3324D01*
X3324Y3248D01*
X3324D01*
X3325Y3248D01*
X3325Y3248D01*
X3325Y3248D01*
X3326Y3249D01*
X3326Y3249D01*
X3326Y3249D01*
X3327Y3249D01*
X3327Y3249D01*
X3327Y3249D01*
X3327Y3249D01*
X3327Y3249D01*
X3327Y3249D01*
X3327Y3250D01*
X3327Y3250D01*
X3327Y3250D01*
X3327Y3250D01*
X3327Y3251D01*
X3327Y3251D01*
X3327Y3251D01*
X3327Y3251D01*
X3328Y3252D01*
X3328Y3252D01*
X3328Y3253D01*
Y3253D01*
X3328Y3253D01*
Y3253D01*
X3328Y3253D01*
X3328Y3254D01*
X3327Y3254D01*
X3327Y3254D01*
X3327Y3255D01*
X3327Y3255D01*
X3327Y3256D01*
X3327Y3256D01*
Y3256D01*
X3327Y3256D01*
X3327Y3256D01*
X3327Y3256D01*
X3327Y3256D01*
X3326Y3256D01*
X3326Y3256D01*
X3326Y3256D01*
X3326Y3257D01*
X3326Y3257D01*
X3326Y3257D01*
X3325Y3257D01*
X3325Y3257D01*
X3325Y3257D01*
X3324Y3257D01*
X3324Y3257D01*
X3325Y3260D01*
X3325D01*
X3325Y3260D01*
X3325Y3260D01*
X3325Y3260D01*
X3325Y3260D01*
X3325Y3260D01*
X3325Y3260D01*
X3326Y3260D01*
X3326Y3260D01*
X3327Y3260D01*
X3327Y3259D01*
X3328Y3259D01*
X3328Y3259D01*
X3328Y3259D01*
X3328Y3259D01*
X3328Y3259D01*
X3328Y3259D01*
X3328Y3259D01*
X3328Y3259D01*
X3328Y3258D01*
X3328Y3258D01*
X3329Y3258D01*
X3329Y3258D01*
X3329Y3258D01*
X3329Y3257D01*
X3329Y3257D01*
X3329Y3256D01*
Y3256D01*
X3330Y3256D01*
X3330Y3256D01*
X3330Y3256D01*
X3330Y3256D01*
X3330Y3256D01*
X3330Y3255D01*
X3330Y3255D01*
X3330Y3255D01*
X3330Y3255D01*
X3330Y3254D01*
X3330Y3254D01*
X3330Y3253D01*
X3330Y3253D01*
X3330Y3252D01*
Y3252D01*
X3330Y3252D01*
Y3251D01*
X3330Y3251D01*
X3330Y3251D01*
X3330Y3250D01*
X3330Y3250D01*
X3330Y3249D01*
X3330Y3249D01*
X3330Y3248D01*
Y3248D01*
X3330Y3248D01*
X3330Y3248D01*
X3329Y3248D01*
X3329Y3248D01*
X3329Y3248D01*
X3329Y3248D01*
X3329Y3247D01*
X3329Y3247D01*
X3328Y3247D01*
X3328Y3246D01*
X3328Y3246D01*
X3328Y3246D01*
X3328Y3246D01*
X3328Y3246D01*
X3327Y3246D01*
X3327Y3246D01*
X3327Y3245D01*
X3326Y3245D01*
X3326D01*
X3326Y3245D01*
X3326D01*
X3326Y3245D01*
X3326Y3245D01*
X3326D01*
X3325Y3245D01*
X3325Y3245D01*
X3325Y3245D01*
X3325D01*
X3325Y3245D01*
X3324D01*
X3324Y3245D01*
X3324D01*
X3323D01*
X3319D01*
X3319D01*
X3319D01*
X3319D01*
X3319D01*
X3319D01*
X3319D01*
X3318D01*
X3318D01*
X3318Y3245D01*
X3317D01*
X3317D01*
X3316Y3245D01*
X3315Y3245D01*
X3315Y3245D01*
X3315Y3245D01*
X3314Y3245D01*
X3314Y3245D01*
X3314Y3245D01*
X3314D01*
X3314Y3245D01*
X3314D01*
X3313Y3245D01*
X3313Y3245D01*
X3313Y3245D01*
X3313Y3245D01*
X3312Y3245D01*
X3312Y3244D01*
X3312Y3244D01*
Y3247D01*
X3312D01*
X3312Y3247D01*
X3312Y3247D01*
X3312Y3247D01*
X3312Y3248D01*
X3312Y3248D01*
X3312Y3248D01*
X3313Y3248D01*
X3313Y3248D01*
X3314Y3248D01*
X3314Y3248D01*
X3314Y3248D01*
X3314Y3248D01*
X3314Y3248D01*
X3313Y3248D01*
X3313Y3249D01*
X3313Y3249D01*
X3313Y3249D01*
X3313Y3250D01*
X3312Y3250D01*
X3312Y3251D01*
X3312Y3251D01*
X3312Y3251D01*
Y3251D01*
X3312Y3251D01*
X3312Y3251D01*
X3312Y3252D01*
X3312Y3252D01*
X3312Y3252D01*
X3311Y3252D01*
X3311Y3252D01*
X3311Y3253D01*
X3311Y3253D01*
X3311Y3253D01*
X3311Y3254D01*
X3311Y3255D01*
Y3255D01*
X3311Y3255D01*
Y3255D01*
X3311Y3255D01*
X3311Y3256D01*
X3311Y3256D01*
X3311Y3256D01*
X3311Y3257D01*
X3311Y3257D01*
X3312Y3258D01*
X3312Y3258D01*
X3312Y3258D01*
X3312Y3259D01*
X3312Y3259D01*
X3313Y3259D01*
X3313Y3259D01*
X3313Y3259D01*
X3313Y3259D01*
X3313Y3260D01*
X3313Y3260D01*
X3313Y3260D01*
X3313Y3260D01*
X3314Y3260D01*
X3314Y3260D01*
X3314Y3260D01*
X3314Y3261D01*
X3315Y3261D01*
X3315Y3261D01*
X3315Y3261D01*
X3316Y3261D01*
X3316Y3261D01*
X3316D01*
X3316D01*
X3316D01*
X3317Y3261D01*
D02*
G37*
G36*
X3330Y3237D02*
X3320D01*
X3320D01*
X3320D01*
X3319D01*
X3319D01*
X3319D01*
X3319Y3237D01*
X3319D01*
X3318D01*
X3318Y3237D01*
X3317Y3237D01*
X3317Y3237D01*
X3317Y3237D01*
X3317Y3237D01*
X3316Y3237D01*
X3316D01*
X3316Y3237D01*
X3316Y3237D01*
X3316Y3237D01*
X3316Y3237D01*
X3316Y3237D01*
X3315Y3237D01*
X3315Y3237D01*
X3315Y3236D01*
X3314Y3236D01*
Y3236D01*
X3314Y3236D01*
X3314Y3236D01*
X3314Y3236D01*
X3314Y3236D01*
X3314Y3235D01*
X3314Y3235D01*
X3314Y3235D01*
X3314Y3234D01*
X3314Y3234D01*
Y3233D01*
X3314Y3233D01*
Y3233D01*
X3314Y3233D01*
X3314Y3233D01*
X3314Y3232D01*
X3314Y3232D01*
X3314Y3231D01*
X3314Y3231D01*
Y3231D01*
X3314Y3231D01*
X3315Y3231D01*
X3315Y3231D01*
X3315Y3231D01*
X3315Y3230D01*
X3315Y3230D01*
X3316Y3230D01*
X3316Y3229D01*
X3316Y3229D01*
X3316D01*
X3316Y3229D01*
X3317Y3229D01*
X3317Y3229D01*
X3317Y3229D01*
X3317Y3229D01*
X3317Y3229D01*
X3317Y3229D01*
X3318Y3229D01*
X3318Y3229D01*
X3318Y3229D01*
X3318Y3229D01*
X3319Y3229D01*
X3319Y3229D01*
X3320Y3229D01*
X3320D01*
X3330D01*
Y3226D01*
X3312D01*
Y3228D01*
X3314D01*
X3314Y3228D01*
X3314Y3229D01*
X3314Y3229D01*
X3314Y3229D01*
X3313Y3229D01*
X3313Y3229D01*
X3313Y3230D01*
X3313Y3230D01*
X3312Y3230D01*
X3312Y3231D01*
X3312Y3231D01*
X3312Y3232D01*
X3311Y3232D01*
X3311Y3233D01*
X3311Y3234D01*
X3311Y3234D01*
Y3234D01*
X3311Y3235D01*
Y3235D01*
X3311Y3235D01*
X3311Y3235D01*
X3311Y3235D01*
X3311Y3236D01*
X3311Y3236D01*
X3312Y3237D01*
X3312Y3237D01*
Y3237D01*
X3312Y3237D01*
X3312Y3237D01*
X3312Y3237D01*
X3312Y3238D01*
X3312Y3238D01*
X3312Y3238D01*
X3312Y3238D01*
X3313Y3239D01*
X3313Y3239D01*
X3313Y3239D01*
X3313D01*
X3313Y3239D01*
X3313Y3239D01*
X3313Y3239D01*
X3314Y3240D01*
X3314Y3240D01*
X3314Y3240D01*
X3315Y3240D01*
X3315Y3240D01*
X3316Y3240D01*
X3316D01*
X3316D01*
X3316Y3240D01*
X3316D01*
X3316Y3240D01*
X3316Y3240D01*
X3316Y3240D01*
X3316D01*
X3316Y3240D01*
X3317Y3240D01*
X3317Y3240D01*
X3317Y3240D01*
X3317D01*
X3318Y3240D01*
X3318D01*
X3318D01*
X3330D01*
Y3237D01*
D02*
G37*
G36*
X3321Y3222D02*
X3321Y3222D01*
X3322Y3222D01*
X3322Y3222D01*
X3322Y3222D01*
X3323Y3222D01*
X3323Y3222D01*
X3324Y3221D01*
X3324Y3221D01*
X3325Y3221D01*
X3325Y3221D01*
X3326Y3221D01*
X3326Y3221D01*
X3326Y3221D01*
X3326Y3221D01*
X3326Y3221D01*
X3326Y3221D01*
X3326Y3220D01*
X3327Y3220D01*
X3327Y3220D01*
X3327Y3220D01*
X3327Y3220D01*
X3328Y3219D01*
X3328Y3219D01*
X3328Y3219D01*
X3329Y3219D01*
X3329Y3218D01*
X3329Y3218D01*
X3329Y3218D01*
X3329Y3218D01*
X3329Y3218D01*
X3329Y3218D01*
X3329Y3217D01*
X3329Y3217D01*
X3329Y3217D01*
X3330Y3217D01*
X3330Y3216D01*
X3330Y3216D01*
X3330Y3216D01*
X3330Y3215D01*
X3330Y3215D01*
X3330Y3214D01*
X3330Y3214D01*
X3330Y3214D01*
Y3213D01*
X3330Y3213D01*
X3330Y3213D01*
X3330Y3212D01*
X3330Y3212D01*
X3330Y3212D01*
X3330Y3211D01*
X3330Y3211D01*
X3330Y3211D01*
X3330Y3210D01*
X3329Y3210D01*
X3329Y3209D01*
X3329Y3209D01*
X3329Y3209D01*
X3329Y3209D01*
X3329Y3209D01*
X3328Y3209D01*
X3328Y3208D01*
X3328Y3208D01*
X3328Y3208D01*
X3328Y3208D01*
X3328Y3208D01*
X3327Y3207D01*
X3327Y3207D01*
X3327Y3207D01*
X3326Y3207D01*
X3326Y3207D01*
X3325Y3207D01*
X3325Y3206D01*
X3324Y3206D01*
X3324Y3209D01*
X3324D01*
X3324Y3209D01*
X3324Y3209D01*
X3324Y3209D01*
X3324Y3209D01*
X3325Y3209D01*
X3325Y3210D01*
X3325Y3210D01*
X3326Y3210D01*
X3326Y3210D01*
X3326Y3211D01*
X3327Y3211D01*
X3327Y3211D01*
X3327Y3211D01*
X3327Y3211D01*
X3327Y3211D01*
X3327Y3211D01*
X3327Y3211D01*
X3327Y3211D01*
X3327Y3212D01*
X3327Y3212D01*
X3327Y3212D01*
X3328Y3213D01*
X3328Y3213D01*
X3328Y3213D01*
Y3214D01*
X3328Y3214D01*
Y3214D01*
X3328Y3214D01*
X3328Y3214D01*
X3327Y3214D01*
X3327Y3215D01*
X3327Y3215D01*
X3327Y3215D01*
X3327Y3216D01*
X3327Y3216D01*
X3327Y3216D01*
X3326Y3217D01*
X3326Y3217D01*
X3326Y3217D01*
X3326Y3217D01*
X3326Y3217D01*
X3326Y3217D01*
X3326Y3217D01*
X3325Y3218D01*
X3325Y3218D01*
X3325Y3218D01*
X3325Y3218D01*
X3324Y3218D01*
X3324Y3218D01*
X3323Y3218D01*
X3323Y3218D01*
X3322Y3218D01*
X3322Y3219D01*
X3321Y3219D01*
X3321Y3219D01*
X3321D01*
X3321D01*
X3320D01*
X3320D01*
X3320Y3219D01*
X3320Y3219D01*
X3319Y3219D01*
X3319Y3219D01*
X3319Y3218D01*
X3318Y3218D01*
X3318Y3218D01*
X3317Y3218D01*
X3317Y3218D01*
X3316Y3218D01*
X3316Y3218D01*
X3316Y3217D01*
X3315Y3217D01*
X3315Y3217D01*
X3315Y3217D01*
X3315Y3217D01*
X3315Y3217D01*
X3315Y3217D01*
X3315Y3217D01*
X3315Y3216D01*
X3314Y3216D01*
X3314Y3216D01*
X3314Y3216D01*
X3314Y3215D01*
X3314Y3215D01*
X3314Y3215D01*
X3314Y3214D01*
X3314Y3214D01*
X3314Y3214D01*
Y3213D01*
X3314Y3213D01*
X3314Y3213D01*
X3314Y3213D01*
X3314Y3213D01*
X3314Y3213D01*
X3314Y3212D01*
X3314Y3212D01*
X3314Y3211D01*
X3314Y3211D01*
X3315Y3211D01*
X3315Y3211D01*
X3315Y3211D01*
X3315Y3210D01*
X3315Y3210D01*
X3315Y3210D01*
X3315Y3210D01*
X3315Y3210D01*
X3315Y3210D01*
X3316Y3210D01*
X3316Y3210D01*
X3316Y3210D01*
X3316Y3210D01*
X3317Y3209D01*
X3317Y3209D01*
X3317Y3209D01*
X3318Y3209D01*
X3318Y3209D01*
X3318Y3206D01*
X3318D01*
X3318Y3206D01*
X3317Y3206D01*
X3317Y3206D01*
X3317Y3206D01*
X3317Y3206D01*
X3316Y3206D01*
X3316Y3206D01*
X3316Y3207D01*
X3315Y3207D01*
X3315Y3207D01*
X3314Y3207D01*
X3314Y3208D01*
X3314Y3208D01*
X3313Y3208D01*
X3313Y3209D01*
X3313Y3209D01*
X3313Y3209D01*
X3313Y3209D01*
X3313Y3209D01*
X3312Y3209D01*
X3312Y3209D01*
X3312Y3210D01*
X3312Y3210D01*
X3312Y3210D01*
X3312Y3211D01*
X3312Y3211D01*
X3311Y3212D01*
X3311Y3212D01*
X3311Y3212D01*
X3311Y3213D01*
X3311Y3214D01*
Y3214D01*
X3311Y3214D01*
X3311Y3214D01*
X3311Y3214D01*
X3311Y3215D01*
X3311Y3215D01*
X3311Y3216D01*
X3312Y3216D01*
X3312Y3217D01*
X3312Y3217D01*
X3312Y3218D01*
X3312Y3218D01*
X3313Y3219D01*
X3313Y3219D01*
X3314Y3220D01*
X3314Y3220D01*
X3314Y3220D01*
X3314Y3220D01*
X3314Y3220D01*
X3314Y3220D01*
X3315Y3220D01*
X3315Y3220D01*
X3315Y3221D01*
X3316Y3221D01*
X3316Y3221D01*
X3317Y3221D01*
X3318Y3221D01*
X3318Y3222D01*
X3319Y3222D01*
X3320Y3222D01*
X3321Y3222D01*
X3321D01*
X3321D01*
X3321D01*
X3321Y3222D01*
D02*
G37*
G36*
X3337Y3200D02*
X3328D01*
X3328Y3200D01*
X3328Y3200D01*
X3328Y3200D01*
X3328Y3200D01*
X3328Y3200D01*
X3328Y3199D01*
X3329Y3199D01*
X3329Y3199D01*
X3329Y3198D01*
X3329Y3198D01*
X3330Y3198D01*
X3330Y3197D01*
X3330Y3197D01*
X3330Y3196D01*
X3330Y3195D01*
X3330Y3195D01*
Y3195D01*
X3330Y3194D01*
Y3194D01*
X3330Y3194D01*
X3330Y3194D01*
X3330Y3194D01*
X3330Y3193D01*
X3330Y3192D01*
X3330Y3192D01*
X3329Y3191D01*
Y3191D01*
X3329Y3191D01*
X3329Y3191D01*
X3329Y3191D01*
X3329Y3191D01*
X3329Y3191D01*
X3329Y3190D01*
X3328Y3190D01*
X3328Y3190D01*
X3328Y3189D01*
X3327Y3189D01*
X3327Y3189D01*
X3327D01*
X3327Y3189D01*
X3327Y3189D01*
X3327Y3189D01*
X3327Y3189D01*
X3327Y3189D01*
X3326Y3189D01*
X3326Y3189D01*
X3326Y3189D01*
X3326Y3189D01*
X3325Y3189D01*
X3325Y3189D01*
X3324Y3189D01*
X3324Y3188D01*
X3324Y3188D01*
X3323D01*
X3312D01*
Y3192D01*
X3323D01*
X3323D01*
X3323D01*
X3323D01*
X3323Y3192D01*
X3324Y3192D01*
X3324Y3192D01*
X3324Y3192D01*
X3324Y3192D01*
X3325Y3192D01*
X3325Y3192D01*
X3326Y3192D01*
X3326Y3192D01*
X3326Y3192D01*
X3326Y3193D01*
X3326Y3193D01*
X3326Y3193D01*
X3327Y3193D01*
X3327Y3193D01*
X3327Y3193D01*
X3327Y3193D01*
X3327Y3193D01*
X3327Y3193D01*
X3327Y3193D01*
X3327Y3194D01*
X3327Y3194D01*
X3327Y3194D01*
X3327Y3194D01*
X3327Y3195D01*
X3327Y3195D01*
X3327Y3195D01*
Y3196D01*
X3327Y3196D01*
Y3196D01*
X3327Y3196D01*
X3327Y3196D01*
X3327Y3197D01*
X3327Y3197D01*
X3327Y3198D01*
X3327Y3198D01*
Y3198D01*
X3327Y3198D01*
X3327Y3198D01*
X3327Y3198D01*
X3326Y3198D01*
X3326Y3199D01*
X3326Y3199D01*
X3326Y3199D01*
X3325Y3200D01*
X3325Y3200D01*
X3325D01*
X3325Y3200D01*
X3325Y3200D01*
X3325Y3200D01*
X3324Y3200D01*
X3324Y3200D01*
X3324Y3200D01*
X3324Y3200D01*
X3324Y3200D01*
X3323Y3200D01*
X3323Y3200D01*
X3323Y3200D01*
X3323Y3200D01*
X3322Y3200D01*
X3322Y3200D01*
X3321D01*
X3312D01*
Y3203D01*
X3337D01*
Y3200D01*
D02*
G37*
G36*
X3325Y3175D02*
X3325D01*
X3325Y3175D01*
X3326Y3175D01*
X3326Y3175D01*
X3327Y3174D01*
X3327Y3174D01*
X3328Y3174D01*
X3328Y3174D01*
X3329Y3174D01*
X3329Y3174D01*
X3330Y3174D01*
X3331Y3173D01*
X3331Y3173D01*
X3331Y3173D01*
X3331Y3173D01*
X3331Y3173D01*
X3332Y3173D01*
X3332Y3173D01*
X3332Y3173D01*
X3332Y3172D01*
X3333Y3172D01*
X3333Y3172D01*
X3333Y3171D01*
X3334Y3171D01*
X3334Y3171D01*
X3335Y3170D01*
X3335Y3170D01*
X3335Y3169D01*
X3336Y3169D01*
X3336Y3169D01*
X3336Y3169D01*
X3336Y3169D01*
X3336Y3168D01*
X3336Y3168D01*
X3336Y3168D01*
X3336Y3167D01*
X3336Y3167D01*
X3336Y3167D01*
X3337Y3166D01*
X3337Y3166D01*
X3337Y3165D01*
X3337Y3165D01*
X3337Y3164D01*
X3337Y3163D01*
X3337Y3163D01*
Y3163D01*
X3337Y3162D01*
Y3162D01*
X3337Y3162D01*
X3337Y3161D01*
X3337Y3161D01*
X3337Y3161D01*
X3337Y3160D01*
X3337Y3160D01*
X3336Y3159D01*
X3336Y3159D01*
X3336Y3158D01*
X3336Y3157D01*
X3335Y3157D01*
X3335Y3156D01*
X3335Y3156D01*
X3335Y3156D01*
X3335Y3156D01*
X3335Y3156D01*
X3335Y3156D01*
X3334Y3156D01*
X3334Y3155D01*
X3334Y3155D01*
X3333Y3155D01*
X3333Y3154D01*
X3333Y3154D01*
X3332Y3154D01*
X3332Y3154D01*
X3331Y3153D01*
X3330Y3153D01*
X3330Y3153D01*
X3329Y3156D01*
X3329D01*
X3329Y3156D01*
X3329Y3156D01*
X3329Y3156D01*
X3330Y3156D01*
X3330Y3156D01*
X3330Y3157D01*
X3331Y3157D01*
X3331Y3157D01*
X3332Y3158D01*
X3332Y3158D01*
X3332Y3158D01*
X3333Y3158D01*
X3333Y3159D01*
X3333Y3159D01*
X3333Y3159D01*
X3333Y3159D01*
X3333Y3159D01*
X3333Y3159D01*
X3333Y3159D01*
X3333Y3160D01*
X3334Y3160D01*
X3334Y3160D01*
X3334Y3160D01*
X3334Y3161D01*
X3334Y3161D01*
X3334Y3162D01*
X3334Y3162D01*
X3334Y3162D01*
X3334Y3163D01*
Y3163D01*
X3334Y3163D01*
X3334Y3164D01*
X3334Y3164D01*
X3334Y3164D01*
X3334Y3165D01*
X3334Y3165D01*
X3334Y3165D01*
X3334Y3166D01*
X3334Y3166D01*
X3333Y3167D01*
X3333Y3167D01*
X3333Y3167D01*
X3333Y3168D01*
X3333Y3168D01*
X3333Y3168D01*
X3333Y3168D01*
X3333Y3168D01*
X3332Y3168D01*
X3332Y3168D01*
X3332Y3169D01*
X3332Y3169D01*
X3332Y3169D01*
X3331Y3169D01*
X3331Y3169D01*
X3331Y3170D01*
X3330Y3170D01*
X3330Y3170D01*
X3330Y3170D01*
X3329Y3170D01*
X3329D01*
X3329Y3170D01*
X3329Y3170D01*
X3329Y3171D01*
X3328Y3171D01*
X3328Y3171D01*
X3328Y3171D01*
X3328Y3171D01*
X3327Y3171D01*
X3327Y3171D01*
X3326Y3171D01*
X3326Y3171D01*
X3325Y3171D01*
X3324Y3171D01*
X3324D01*
X3324D01*
X3324D01*
X3324Y3171D01*
X3323D01*
X3323Y3171D01*
X3323Y3171D01*
X3322Y3171D01*
X3322Y3171D01*
X3321Y3171D01*
X3321Y3171D01*
X3320Y3171D01*
X3319Y3170D01*
X3319Y3170D01*
X3319Y3170D01*
X3319Y3170D01*
X3318Y3170D01*
X3318Y3170D01*
X3318Y3170D01*
X3318Y3170D01*
X3318Y3170D01*
X3317Y3170D01*
X3317Y3169D01*
X3317Y3169D01*
X3316Y3169D01*
X3316Y3169D01*
X3316Y3168D01*
X3316Y3168D01*
X3315Y3168D01*
X3315Y3167D01*
X3315Y3167D01*
X3315Y3167D01*
X3315Y3167D01*
X3315Y3167D01*
X3315Y3167D01*
X3315Y3167D01*
X3315Y3166D01*
X3315Y3166D01*
X3314Y3166D01*
X3314Y3165D01*
X3314Y3165D01*
X3314Y3165D01*
X3314Y3164D01*
X3314Y3164D01*
X3314Y3164D01*
X3314Y3163D01*
Y3163D01*
X3314Y3163D01*
Y3163D01*
X3314Y3162D01*
X3314Y3162D01*
X3314Y3162D01*
X3314Y3161D01*
X3314Y3161D01*
X3314Y3161D01*
X3314Y3160D01*
X3315Y3160D01*
X3315Y3160D01*
X3315Y3159D01*
X3315Y3159D01*
X3316Y3158D01*
X3316Y3158D01*
X3316Y3158D01*
X3316Y3158D01*
X3316Y3158D01*
X3316Y3158D01*
X3316Y3158D01*
X3316Y3158D01*
X3317Y3157D01*
X3317Y3157D01*
X3317Y3157D01*
X3318Y3157D01*
X3318Y3156D01*
X3319Y3156D01*
X3319Y3156D01*
X3320Y3156D01*
X3320Y3156D01*
X3319Y3152D01*
X3319D01*
X3319Y3152D01*
X3319D01*
X3319Y3152D01*
X3319Y3153D01*
X3319Y3153D01*
X3318Y3153D01*
X3318Y3153D01*
X3318Y3153D01*
X3317Y3153D01*
X3317Y3154D01*
X3316Y3154D01*
X3316Y3154D01*
X3315Y3154D01*
X3315Y3155D01*
X3314Y3155D01*
X3314Y3156D01*
X3313Y3156D01*
X3313Y3156D01*
X3313Y3156D01*
X3313Y3156D01*
X3313Y3157D01*
X3313Y3157D01*
X3313Y3157D01*
X3312Y3158D01*
X3312Y3158D01*
X3312Y3158D01*
X3312Y3159D01*
X3312Y3160D01*
X3311Y3160D01*
X3311Y3161D01*
X3311Y3161D01*
X3311Y3162D01*
X3311Y3163D01*
Y3163D01*
X3311Y3163D01*
Y3163D01*
X3311Y3164D01*
X3311Y3164D01*
X3311Y3165D01*
X3311Y3165D01*
X3311Y3166D01*
X3311Y3166D01*
X3312Y3167D01*
X3312Y3167D01*
X3312Y3168D01*
X3312Y3168D01*
X3312Y3169D01*
X3313Y3169D01*
X3313Y3169D01*
X3313Y3170D01*
X3313Y3170D01*
X3313Y3170D01*
X3313Y3170D01*
X3313Y3170D01*
X3314Y3171D01*
X3314Y3171D01*
X3314Y3171D01*
X3315Y3171D01*
X3315Y3172D01*
X3315Y3172D01*
X3316Y3172D01*
X3316Y3173D01*
X3317Y3173D01*
X3318Y3173D01*
X3318Y3173D01*
X3318Y3173D01*
X3318Y3173D01*
X3318Y3174D01*
X3318Y3174D01*
X3319Y3174D01*
X3319Y3174D01*
X3320Y3174D01*
X3320Y3174D01*
X3321Y3174D01*
X3321Y3174D01*
X3322Y3174D01*
X3322Y3175D01*
X3323Y3175D01*
X3324Y3175D01*
X3324Y3175D01*
X3324D01*
X3324D01*
X3324D01*
X3324D01*
X3325Y3175D01*
D02*
G37*
G36*
X3324Y3150D02*
X3324D01*
X3324D01*
X3324Y3150D01*
X3325Y3150D01*
X3325Y3150D01*
X3325Y3150D01*
X3326Y3150D01*
X3326Y3149D01*
X3327Y3149D01*
X3328Y3149D01*
X3329Y3149D01*
X3330Y3149D01*
X3331Y3149D01*
X3332Y3148D01*
X3332Y3148D01*
X3333Y3147D01*
X3334Y3147D01*
X3334Y3147D01*
X3334Y3147D01*
X3334Y3147D01*
X3334Y3147D01*
X3334Y3147D01*
X3335Y3146D01*
X3335Y3146D01*
X3335Y3146D01*
X3335Y3145D01*
X3336Y3145D01*
X3336Y3144D01*
X3336Y3144D01*
X3336Y3143D01*
X3336Y3143D01*
X3337Y3142D01*
X3337Y3141D01*
X3337Y3141D01*
Y3141D01*
X3337Y3140D01*
Y3140D01*
X3337Y3140D01*
X3337Y3140D01*
X3337Y3139D01*
X3337Y3139D01*
X3336Y3139D01*
X3336Y3138D01*
X3336Y3138D01*
X3336Y3137D01*
X3336Y3137D01*
X3336Y3137D01*
X3335Y3136D01*
X3335Y3136D01*
X3335Y3136D01*
X3335Y3136D01*
X3335Y3136D01*
X3335Y3136D01*
X3335Y3135D01*
X3334Y3135D01*
X3334Y3135D01*
X3334Y3135D01*
X3334Y3135D01*
X3333Y3134D01*
X3333Y3134D01*
X3332Y3134D01*
X3332Y3134D01*
X3332Y3134D01*
X3331Y3134D01*
X3330Y3134D01*
X3330Y3137D01*
X3330D01*
X3330Y3137D01*
X3330Y3137D01*
X3331Y3137D01*
X3331Y3137D01*
X3331Y3137D01*
X3331Y3137D01*
X3332Y3137D01*
X3332Y3137D01*
X3333Y3138D01*
X3333Y3138D01*
X3333Y3138D01*
X3333Y3138D01*
X3333Y3138D01*
X3333Y3138D01*
X3333Y3138D01*
X3333Y3138D01*
X3333Y3138D01*
X3333Y3138D01*
X3334Y3139D01*
X3334Y3139D01*
X3334Y3139D01*
X3334Y3139D01*
X3334Y3140D01*
X3334Y3140D01*
X3334Y3140D01*
X3334Y3141D01*
X3334Y3141D01*
Y3141D01*
X3334Y3141D01*
Y3141D01*
X3334Y3141D01*
X3334Y3142D01*
X3334Y3142D01*
X3334Y3143D01*
X3334Y3143D01*
X3334Y3143D01*
X3333Y3143D01*
X3333Y3143D01*
X3333Y3144D01*
X3333Y3144D01*
X3333Y3144D01*
X3333Y3144D01*
X3333Y3144D01*
X3333Y3144D01*
X3333Y3144D01*
X3332Y3144D01*
X3332Y3145D01*
X3332Y3145D01*
X3332Y3145D01*
X3331Y3145D01*
X3331Y3145D01*
X3331Y3146D01*
X3330Y3146D01*
X3330D01*
X3330Y3146D01*
X3330Y3146D01*
X3330Y3146D01*
X3330Y3146D01*
X3329Y3146D01*
X3329Y3146D01*
X3329Y3146D01*
X3328Y3146D01*
X3328Y3146D01*
X3327Y3146D01*
X3327Y3147D01*
X3326Y3147D01*
X3326Y3147D01*
X3325Y3147D01*
X3324Y3147D01*
X3324Y3147D01*
X3325Y3147D01*
X3325Y3147D01*
X3325Y3146D01*
X3325Y3146D01*
X3325Y3146D01*
X3325Y3146D01*
X3325Y3146D01*
X3326Y3145D01*
X3326Y3145D01*
X3327Y3144D01*
X3327Y3144D01*
X3327Y3144D01*
X3327Y3144D01*
X3327Y3144D01*
X3327Y3144D01*
X3327Y3144D01*
X3327Y3143D01*
X3327Y3143D01*
X3327Y3143D01*
X3327Y3143D01*
X3327Y3143D01*
X3328Y3142D01*
X3328Y3142D01*
X3328Y3141D01*
X3328Y3141D01*
Y3140D01*
X3328Y3140D01*
X3328Y3140D01*
X3328Y3140D01*
X3328Y3139D01*
X3328Y3139D01*
X3328Y3139D01*
X3327Y3138D01*
X3327Y3138D01*
X3327Y3137D01*
X3327Y3137D01*
X3327Y3137D01*
X3326Y3136D01*
X3326Y3136D01*
X3326Y3135D01*
X3326Y3135D01*
X3325Y3135D01*
X3325Y3135D01*
X3325Y3135D01*
X3325Y3135D01*
X3325Y3135D01*
X3324Y3134D01*
X3324Y3134D01*
X3324Y3134D01*
X3323Y3134D01*
X3323Y3134D01*
X3322Y3133D01*
X3322Y3133D01*
X3321Y3133D01*
X3320Y3133D01*
X3320Y3133D01*
X3320D01*
X3320D01*
X3319D01*
X3319Y3133D01*
X3319Y3133D01*
X3319Y3133D01*
X3319Y3133D01*
X3318Y3133D01*
X3318Y3133D01*
X3318Y3133D01*
X3317Y3134D01*
X3316Y3134D01*
X3316Y3134D01*
X3316Y3134D01*
X3315Y3134D01*
X3315Y3134D01*
X3315Y3134D01*
X3315Y3134D01*
X3315Y3134D01*
X3315Y3134D01*
X3315Y3135D01*
X3314Y3135D01*
X3314Y3135D01*
X3314Y3135D01*
X3314Y3135D01*
X3313Y3135D01*
X3313Y3136D01*
X3313Y3136D01*
X3312Y3137D01*
X3312Y3137D01*
X3312Y3137D01*
X3312Y3137D01*
X3312Y3137D01*
X3312Y3137D01*
X3312Y3137D01*
X3312Y3138D01*
X3312Y3138D01*
X3312Y3138D01*
X3312Y3138D01*
X3311Y3139D01*
X3311Y3139D01*
X3311Y3139D01*
X3311Y3140D01*
X3311Y3141D01*
X3311Y3141D01*
Y3141D01*
X3311Y3141D01*
X3311Y3142D01*
X3311Y3142D01*
X3311Y3142D01*
X3311Y3143D01*
X3311Y3143D01*
X3312Y3144D01*
X3312Y3144D01*
X3312Y3145D01*
X3312Y3145D01*
X3313Y3146D01*
X3313Y3146D01*
X3313Y3147D01*
X3314Y3147D01*
X3314Y3147D01*
X3314Y3147D01*
X3314Y3147D01*
X3314Y3148D01*
X3315Y3148D01*
X3315Y3148D01*
X3316Y3148D01*
X3316Y3148D01*
X3317Y3149D01*
X3317Y3149D01*
X3317Y3149D01*
X3318Y3149D01*
X3318Y3149D01*
X3319Y3149D01*
X3319Y3149D01*
X3320Y3149D01*
X3320Y3149D01*
X3320Y3150D01*
X3321Y3150D01*
X3322Y3150D01*
X3322Y3150D01*
X3323Y3150D01*
X3323D01*
X3323D01*
X3323D01*
X3323D01*
X3324D01*
X3324Y3150D01*
D02*
G37*
G36*
X3458Y2444D02*
X3455D01*
Y2448D01*
X3458D01*
Y2444D01*
D02*
G37*
G36*
X3402Y2448D02*
X3402D01*
X3403Y2448D01*
X3403Y2448D01*
X3404Y2448D01*
X3404Y2448D01*
X3405Y2448D01*
X3405Y2447D01*
X3406Y2447D01*
X3406Y2447D01*
X3407Y2447D01*
X3407Y2447D01*
X3408Y2446D01*
X3408Y2446D01*
X3408Y2446D01*
X3408Y2446D01*
X3408Y2446D01*
X3409Y2446D01*
X3409Y2445D01*
X3409Y2445D01*
X3409Y2445D01*
X3410Y2445D01*
X3410Y2444D01*
X3410Y2444D01*
X3411Y2443D01*
X3411Y2443D01*
X3411Y2442D01*
X3411Y2442D01*
X3412Y2441D01*
X3412Y2441D01*
X3409Y2440D01*
Y2440D01*
X3408Y2440D01*
X3408Y2440D01*
X3408Y2440D01*
X3408Y2441D01*
X3408Y2441D01*
X3408Y2441D01*
X3408Y2441D01*
X3408Y2442D01*
X3407Y2443D01*
X3407Y2443D01*
X3407Y2443D01*
X3406Y2444D01*
X3406Y2444D01*
X3406Y2444D01*
X3406Y2444D01*
X3406Y2444D01*
X3406Y2444D01*
X3405Y2444D01*
X3405Y2444D01*
X3405Y2444D01*
X3405Y2444D01*
X3405Y2445D01*
X3404Y2445D01*
X3404Y2445D01*
X3403Y2445D01*
X3403Y2445D01*
X3403Y2445D01*
X3402Y2445D01*
X3402Y2445D01*
X3402D01*
X3401Y2445D01*
X3401Y2445D01*
X3401Y2445D01*
X3400Y2445D01*
X3400Y2445D01*
X3400Y2445D01*
X3399Y2445D01*
X3399Y2445D01*
X3399Y2445D01*
X3398Y2444D01*
X3398Y2444D01*
X3397Y2444D01*
X3397Y2444D01*
X3397Y2444D01*
X3397Y2444D01*
X3397Y2444D01*
X3397Y2443D01*
X3396Y2443D01*
X3396Y2443D01*
X3396Y2443D01*
X3396Y2443D01*
X3396Y2442D01*
X3395Y2442D01*
X3395Y2442D01*
X3395Y2442D01*
X3395Y2441D01*
X3395Y2441D01*
X3394Y2440D01*
X3394Y2440D01*
Y2440D01*
X3394Y2440D01*
X3394Y2440D01*
X3394Y2440D01*
X3394Y2439D01*
X3394Y2439D01*
X3394Y2439D01*
X3394Y2438D01*
X3394Y2438D01*
X3394Y2438D01*
X3394Y2437D01*
X3394Y2437D01*
X3393Y2436D01*
X3393Y2435D01*
Y2435D01*
Y2435D01*
Y2435D01*
X3393Y2435D01*
Y2434D01*
X3393Y2434D01*
X3394Y2434D01*
X3394Y2433D01*
X3394Y2433D01*
X3394Y2432D01*
X3394Y2431D01*
X3394Y2430D01*
X3394Y2430D01*
X3394Y2430D01*
X3394Y2430D01*
X3394Y2429D01*
X3394Y2429D01*
X3395Y2429D01*
X3395Y2429D01*
X3395Y2429D01*
X3395Y2428D01*
X3395Y2428D01*
X3395Y2428D01*
X3395Y2428D01*
X3396Y2427D01*
X3396Y2427D01*
X3396Y2427D01*
X3397Y2426D01*
X3397Y2426D01*
X3397Y2426D01*
X3397Y2426D01*
X3397Y2426D01*
X3397Y2426D01*
X3398Y2426D01*
X3398Y2426D01*
X3398Y2426D01*
X3398Y2426D01*
X3399Y2425D01*
X3399Y2425D01*
X3399Y2425D01*
X3400Y2425D01*
X3400Y2425D01*
X3400Y2425D01*
X3401Y2425D01*
X3401Y2425D01*
X3402Y2425D01*
X3402D01*
X3402Y2425D01*
X3402D01*
X3402Y2425D01*
X3403Y2425D01*
X3403Y2425D01*
X3403Y2425D01*
X3404Y2425D01*
X3404Y2425D01*
X3404Y2425D01*
X3405Y2425D01*
X3405Y2426D01*
X3405Y2426D01*
X3406Y2426D01*
X3406Y2426D01*
X3406Y2426D01*
X3406Y2426D01*
X3406Y2427D01*
X3407Y2427D01*
X3407Y2427D01*
X3407Y2427D01*
X3407Y2427D01*
X3407Y2428D01*
X3408Y2428D01*
X3408Y2428D01*
X3408Y2429D01*
X3408Y2429D01*
X3408Y2430D01*
X3409Y2430D01*
X3409Y2431D01*
X3409Y2431D01*
X3412Y2430D01*
Y2430D01*
X3412Y2430D01*
Y2430D01*
X3412Y2430D01*
X3412Y2430D01*
X3412Y2430D01*
X3412Y2429D01*
X3412Y2429D01*
X3412Y2429D01*
X3411Y2428D01*
X3411Y2428D01*
X3411Y2427D01*
X3411Y2427D01*
X3410Y2426D01*
X3410Y2425D01*
X3409Y2425D01*
X3409Y2425D01*
X3408Y2424D01*
X3408Y2424D01*
X3408Y2424D01*
X3408Y2424D01*
X3408Y2424D01*
X3408Y2424D01*
X3407Y2423D01*
X3407Y2423D01*
X3407Y2423D01*
X3406Y2423D01*
X3406Y2423D01*
X3405Y2422D01*
X3404Y2422D01*
X3404Y2422D01*
X3403Y2422D01*
X3403Y2422D01*
X3402Y2422D01*
X3402D01*
X3401Y2422D01*
X3401D01*
X3401Y2422D01*
X3400Y2422D01*
X3400Y2422D01*
X3399Y2422D01*
X3399Y2422D01*
X3398Y2422D01*
X3398Y2422D01*
X3397Y2423D01*
X3397Y2423D01*
X3396Y2423D01*
X3396Y2423D01*
X3395Y2424D01*
X3395Y2424D01*
X3395Y2424D01*
X3395Y2424D01*
X3395Y2424D01*
X3395Y2424D01*
X3394Y2424D01*
X3394Y2425D01*
X3394Y2425D01*
X3393Y2425D01*
X3393Y2426D01*
X3393Y2426D01*
X3392Y2426D01*
X3392Y2427D01*
X3392Y2427D01*
X3392Y2428D01*
X3391Y2428D01*
X3391Y2428D01*
X3391Y2429D01*
X3391Y2429D01*
X3391Y2429D01*
X3391Y2429D01*
X3391Y2430D01*
X3391Y2430D01*
X3391Y2430D01*
X3391Y2431D01*
X3390Y2431D01*
X3390Y2432D01*
X3390Y2433D01*
X3390Y2433D01*
X3390Y2434D01*
X3390Y2434D01*
X3390Y2435D01*
Y2435D01*
Y2435D01*
Y2435D01*
Y2435D01*
X3390Y2436D01*
Y2436D01*
X3390Y2436D01*
X3390Y2437D01*
X3390Y2437D01*
X3390Y2437D01*
X3390Y2438D01*
X3390Y2439D01*
X3390Y2439D01*
X3391Y2440D01*
X3391Y2440D01*
X3391Y2441D01*
X3391Y2441D01*
X3391Y2442D01*
X3392Y2442D01*
X3392Y2442D01*
X3392Y2442D01*
X3392Y2442D01*
X3392Y2443D01*
X3392Y2443D01*
X3392Y2443D01*
X3393Y2444D01*
X3393Y2444D01*
X3393Y2444D01*
X3394Y2445D01*
X3394Y2445D01*
X3394Y2445D01*
X3395Y2446D01*
X3395Y2446D01*
X3396Y2446D01*
X3396Y2446D01*
X3396Y2446D01*
X3396Y2447D01*
X3396Y2447D01*
X3396Y2447D01*
X3397Y2447D01*
X3397Y2447D01*
X3398Y2447D01*
X3398Y2447D01*
X3398Y2447D01*
X3399Y2448D01*
X3399Y2448D01*
X3400Y2448D01*
X3401Y2448D01*
X3401Y2448D01*
X3402Y2448D01*
X3402D01*
X3402Y2448D01*
D02*
G37*
G36*
X3529Y2422D02*
X3526D01*
X3519Y2441D01*
X3523D01*
X3527Y2430D01*
Y2430D01*
X3527Y2430D01*
X3527Y2430D01*
X3527Y2429D01*
X3527Y2429D01*
X3527Y2429D01*
X3527Y2429D01*
X3527Y2429D01*
X3527Y2428D01*
X3527Y2428D01*
X3527Y2427D01*
X3528Y2427D01*
X3528Y2426D01*
Y2426D01*
X3528Y2426D01*
X3528Y2426D01*
X3528Y2426D01*
X3528Y2426D01*
X3528Y2427D01*
X3528Y2427D01*
X3528Y2427D01*
X3528Y2427D01*
X3528Y2427D01*
X3528Y2428D01*
X3528Y2428D01*
X3529Y2429D01*
X3529Y2429D01*
X3533Y2441D01*
X3536D01*
X3529Y2422D01*
D02*
G37*
G36*
X3561D02*
X3558D01*
Y2448D01*
X3561D01*
Y2422D01*
D02*
G37*
G36*
X3485Y2438D02*
X3485Y2439D01*
X3485Y2439D01*
X3486Y2439D01*
X3486Y2439D01*
X3486Y2439D01*
X3486Y2439D01*
X3487Y2440D01*
X3487Y2440D01*
X3487Y2440D01*
X3488Y2440D01*
X3488Y2440D01*
X3489Y2441D01*
X3489Y2441D01*
X3490Y2441D01*
X3490Y2441D01*
X3491Y2441D01*
X3491D01*
X3491Y2441D01*
X3491D01*
X3492Y2441D01*
X3492Y2441D01*
X3492Y2441D01*
X3493Y2441D01*
X3493Y2441D01*
X3494Y2440D01*
X3494Y2440D01*
X3494D01*
X3494Y2440D01*
X3494Y2440D01*
X3495Y2440D01*
X3495Y2440D01*
X3495Y2440D01*
X3495Y2440D01*
X3496Y2439D01*
X3496Y2439D01*
X3496Y2438D01*
X3496Y2438D01*
X3496Y2438D01*
Y2438D01*
X3496Y2438D01*
X3497Y2438D01*
X3497Y2438D01*
X3497Y2438D01*
X3497Y2437D01*
X3497Y2437D01*
X3497Y2437D01*
X3497Y2437D01*
X3497Y2436D01*
X3497Y2436D01*
X3497Y2436D01*
X3497Y2435D01*
X3497Y2435D01*
X3497Y2434D01*
Y2434D01*
Y2422D01*
X3494D01*
Y2434D01*
Y2434D01*
Y2434D01*
Y2434D01*
X3494Y2434D01*
X3494Y2435D01*
X3494Y2435D01*
X3494Y2435D01*
X3494Y2435D01*
X3494Y2436D01*
X3494Y2436D01*
X3493Y2437D01*
X3493Y2437D01*
X3493Y2437D01*
X3493Y2437D01*
X3493Y2437D01*
X3493Y2437D01*
X3493Y2437D01*
X3493Y2437D01*
X3493Y2438D01*
X3493Y2438D01*
X3492Y2438D01*
X3492Y2438D01*
X3492Y2438D01*
X3492Y2438D01*
X3492Y2438D01*
X3491Y2438D01*
X3491Y2438D01*
X3491Y2438D01*
X3491Y2438D01*
X3490Y2438D01*
X3490D01*
X3490Y2438D01*
X3490D01*
X3490Y2438D01*
X3489Y2438D01*
X3489Y2438D01*
X3489Y2438D01*
X3488Y2438D01*
X3488Y2438D01*
X3488D01*
X3488Y2438D01*
X3487Y2438D01*
X3487Y2438D01*
X3487Y2437D01*
X3487Y2437D01*
X3487Y2437D01*
X3486Y2437D01*
X3486Y2436D01*
X3486Y2436D01*
Y2436D01*
X3486Y2436D01*
X3486Y2436D01*
X3486Y2436D01*
X3486Y2435D01*
X3486Y2435D01*
X3486Y2435D01*
X3486Y2435D01*
X3486Y2435D01*
X3486Y2434D01*
X3485Y2434D01*
X3485Y2434D01*
X3485Y2433D01*
X3485Y2433D01*
X3485Y2433D01*
Y2432D01*
Y2422D01*
X3482D01*
Y2448D01*
X3485D01*
Y2438D01*
D02*
G37*
G36*
X3458Y2422D02*
X3455D01*
Y2441D01*
X3458D01*
Y2422D01*
D02*
G37*
G36*
X3439Y2438D02*
X3439Y2439D01*
X3439Y2439D01*
X3439Y2439D01*
X3439Y2439D01*
X3439Y2439D01*
X3439Y2439D01*
X3440Y2440D01*
X3440Y2440D01*
X3440Y2440D01*
X3441Y2440D01*
X3441Y2440D01*
X3442Y2441D01*
X3442Y2441D01*
X3443Y2441D01*
X3443Y2441D01*
X3444Y2441D01*
X3444D01*
X3444Y2441D01*
X3444D01*
X3445Y2441D01*
X3445Y2441D01*
X3445Y2441D01*
X3446Y2441D01*
X3446Y2441D01*
X3447Y2440D01*
X3447Y2440D01*
X3447D01*
X3448Y2440D01*
X3448Y2440D01*
X3448Y2440D01*
X3448Y2440D01*
X3448Y2440D01*
X3448Y2440D01*
X3449Y2439D01*
X3449Y2439D01*
X3449Y2438D01*
X3449Y2438D01*
X3450Y2438D01*
Y2438D01*
X3450Y2438D01*
X3450Y2438D01*
X3450Y2438D01*
X3450Y2438D01*
X3450Y2437D01*
X3450Y2437D01*
X3450Y2437D01*
X3450Y2437D01*
X3450Y2436D01*
X3450Y2436D01*
X3450Y2436D01*
X3450Y2435D01*
X3450Y2435D01*
X3450Y2434D01*
Y2434D01*
Y2422D01*
X3447D01*
Y2434D01*
Y2434D01*
Y2434D01*
Y2434D01*
X3447Y2434D01*
X3447Y2435D01*
X3447Y2435D01*
X3447Y2435D01*
X3447Y2435D01*
X3447Y2436D01*
X3447Y2436D01*
X3447Y2437D01*
X3447Y2437D01*
X3446Y2437D01*
X3446Y2437D01*
X3446Y2437D01*
X3446Y2437D01*
X3446Y2437D01*
X3446Y2437D01*
X3446Y2438D01*
X3446Y2438D01*
X3446Y2438D01*
X3445Y2438D01*
X3445Y2438D01*
X3445Y2438D01*
X3445Y2438D01*
X3445Y2438D01*
X3444Y2438D01*
X3444Y2438D01*
X3444Y2438D01*
X3443Y2438D01*
X3443D01*
X3443Y2438D01*
X3443D01*
X3443Y2438D01*
X3442Y2438D01*
X3442Y2438D01*
X3442Y2438D01*
X3441Y2438D01*
X3441Y2438D01*
X3441D01*
X3441Y2438D01*
X3441Y2438D01*
X3441Y2438D01*
X3440Y2437D01*
X3440Y2437D01*
X3440Y2437D01*
X3440Y2437D01*
X3439Y2436D01*
X3439Y2436D01*
Y2436D01*
X3439Y2436D01*
X3439Y2436D01*
X3439Y2436D01*
X3439Y2435D01*
X3439Y2435D01*
X3439Y2435D01*
X3439Y2435D01*
X3439Y2435D01*
X3439Y2434D01*
X3439Y2434D01*
X3439Y2434D01*
X3439Y2433D01*
X3439Y2433D01*
X3439Y2433D01*
Y2432D01*
Y2422D01*
X3435D01*
Y2448D01*
X3439D01*
Y2438D01*
D02*
G37*
G36*
X3570Y2441D02*
X3573D01*
Y2438D01*
X3570D01*
Y2428D01*
Y2428D01*
Y2427D01*
Y2427D01*
Y2427D01*
Y2427D01*
X3570Y2427D01*
X3570Y2427D01*
X3570Y2426D01*
X3570Y2426D01*
X3570Y2426D01*
X3570Y2426D01*
Y2426D01*
X3570Y2426D01*
X3570Y2426D01*
X3570Y2426D01*
X3570Y2425D01*
X3570Y2425D01*
X3571D01*
X3571Y2425D01*
X3571Y2425D01*
X3571Y2425D01*
X3571Y2425D01*
X3571Y2425D01*
X3571Y2425D01*
X3572Y2425D01*
X3572D01*
X3572Y2425D01*
X3572D01*
X3572Y2425D01*
X3573Y2425D01*
X3573Y2425D01*
X3573Y2422D01*
X3573D01*
X3573Y2422D01*
X3573D01*
X3573Y2422D01*
X3573Y2422D01*
X3573Y2422D01*
X3573Y2422D01*
X3572Y2422D01*
X3572Y2422D01*
X3571Y2422D01*
X3571Y2422D01*
X3571D01*
X3571Y2422D01*
X3570D01*
X3570Y2422D01*
X3570Y2422D01*
X3569Y2422D01*
X3569Y2423D01*
X3568Y2423D01*
X3568D01*
X3568Y2423D01*
X3568Y2423D01*
X3568Y2423D01*
X3568Y2423D01*
X3568Y2423D01*
X3567Y2423D01*
X3567Y2424D01*
X3567Y2424D01*
Y2424D01*
X3567Y2424D01*
X3567Y2424D01*
X3567Y2424D01*
X3567Y2424D01*
X3567Y2424D01*
X3567Y2425D01*
X3567Y2425D01*
X3567Y2425D01*
X3567Y2425D01*
X3567Y2426D01*
X3567Y2426D01*
X3567Y2426D01*
X3567Y2427D01*
X3567Y2427D01*
Y2428D01*
Y2438D01*
X3564D01*
Y2441D01*
X3567D01*
Y2445D01*
X3570Y2447D01*
Y2441D01*
D02*
G37*
G36*
X3547Y2441D02*
X3547Y2441D01*
X3547Y2441D01*
X3548Y2441D01*
X3548Y2441D01*
X3548Y2441D01*
X3549Y2441D01*
X3549Y2440D01*
X3550Y2440D01*
X3550Y2440D01*
X3551Y2440D01*
X3551Y2439D01*
X3552Y2439D01*
X3552Y2439D01*
X3552Y2439D01*
X3552Y2438D01*
X3553Y2438D01*
X3553Y2438D01*
X3553Y2438D01*
X3553Y2438D01*
X3553Y2437D01*
X3554Y2437D01*
X3554Y2436D01*
X3554Y2436D01*
X3554Y2435D01*
X3554Y2435D01*
X3555Y2434D01*
X3555Y2433D01*
X3555Y2433D01*
X3555Y2432D01*
Y2432D01*
Y2432D01*
Y2431D01*
X3555Y2431D01*
X3555Y2431D01*
X3555Y2431D01*
X3555Y2430D01*
X3555Y2430D01*
X3555Y2429D01*
X3555Y2429D01*
X3554Y2428D01*
X3554Y2427D01*
X3554Y2427D01*
X3554Y2427D01*
X3554Y2426D01*
X3554Y2426D01*
X3554Y2426D01*
X3554Y2426D01*
X3554Y2426D01*
X3553Y2426D01*
X3553Y2426D01*
X3553Y2425D01*
X3553Y2425D01*
X3553Y2425D01*
X3553Y2425D01*
X3552Y2424D01*
X3552Y2424D01*
X3552Y2424D01*
X3551Y2424D01*
X3551Y2423D01*
X3551Y2423D01*
X3551Y2423D01*
X3551Y2423D01*
X3550Y2423D01*
X3550Y2423D01*
X3550Y2423D01*
X3550Y2423D01*
X3550Y2423D01*
X3549Y2423D01*
X3549Y2422D01*
X3549Y2422D01*
X3548Y2422D01*
X3548Y2422D01*
X3547Y2422D01*
X3547Y2422D01*
X3546Y2422D01*
X3546D01*
X3546Y2422D01*
X3546Y2422D01*
X3545Y2422D01*
X3545Y2422D01*
X3544Y2422D01*
X3544Y2422D01*
X3544Y2422D01*
X3543Y2423D01*
X3543Y2423D01*
X3542Y2423D01*
X3542Y2423D01*
X3541Y2424D01*
X3541Y2424D01*
X3540Y2424D01*
X3540Y2424D01*
X3540Y2425D01*
X3540Y2425D01*
X3540Y2425D01*
X3540Y2425D01*
X3539Y2425D01*
X3539Y2426D01*
X3539Y2426D01*
X3539Y2427D01*
X3538Y2427D01*
X3538Y2428D01*
X3538Y2428D01*
X3538Y2429D01*
X3538Y2430D01*
X3538Y2431D01*
X3538Y2431D01*
Y2432D01*
Y2432D01*
Y2432D01*
Y2432D01*
X3538Y2432D01*
Y2432D01*
X3538Y2432D01*
Y2432D01*
X3538Y2433D01*
X3538Y2433D01*
X3538Y2434D01*
X3538Y2434D01*
X3538Y2435D01*
X3538Y2436D01*
X3539Y2436D01*
X3539Y2437D01*
X3539Y2437D01*
X3540Y2438D01*
X3540Y2438D01*
X3541Y2439D01*
X3541Y2439D01*
X3541Y2439D01*
X3541Y2439D01*
X3541Y2439D01*
X3541Y2439D01*
X3541Y2440D01*
X3542Y2440D01*
X3542Y2440D01*
X3543Y2440D01*
X3543Y2440D01*
X3543Y2441D01*
X3544Y2441D01*
X3544Y2441D01*
X3545Y2441D01*
X3546Y2441D01*
X3546Y2441D01*
X3546D01*
X3547Y2441D01*
D02*
G37*
G36*
X3470D02*
X3470Y2441D01*
X3470Y2441D01*
X3471Y2441D01*
X3471Y2441D01*
X3471Y2441D01*
X3472Y2441D01*
X3472Y2440D01*
X3473Y2440D01*
X3473Y2440D01*
X3473Y2440D01*
X3474Y2439D01*
X3474Y2439D01*
X3475Y2438D01*
Y2441D01*
X3478D01*
Y2425D01*
Y2425D01*
Y2425D01*
Y2425D01*
Y2425D01*
Y2425D01*
Y2424D01*
X3478Y2424D01*
Y2424D01*
X3478Y2423D01*
X3478Y2423D01*
X3477Y2423D01*
X3477Y2422D01*
X3477Y2422D01*
X3477Y2421D01*
X3477Y2420D01*
X3477Y2420D01*
X3477Y2419D01*
X3477Y2419D01*
Y2419D01*
X3477Y2419D01*
X3477Y2419D01*
X3477Y2419D01*
X3476Y2418D01*
X3476Y2418D01*
X3476Y2418D01*
X3476Y2418D01*
X3476Y2418D01*
X3476Y2417D01*
X3475Y2417D01*
X3475Y2417D01*
X3475Y2417D01*
X3475Y2416D01*
X3474Y2416D01*
X3474Y2416D01*
X3474Y2416D01*
X3474Y2416D01*
X3474Y2416D01*
X3474Y2416D01*
X3473Y2416D01*
X3473Y2416D01*
X3473Y2416D01*
X3473Y2416D01*
X3472Y2415D01*
X3472Y2415D01*
X3472Y2415D01*
X3471Y2415D01*
X3471Y2415D01*
X3470Y2415D01*
X3470Y2415D01*
X3469Y2415D01*
X3469D01*
X3469Y2415D01*
X3469D01*
X3469Y2415D01*
X3468Y2415D01*
X3468Y2415D01*
X3467Y2415D01*
X3467Y2415D01*
X3467Y2415D01*
X3466Y2415D01*
X3466Y2416D01*
X3465Y2416D01*
X3465Y2416D01*
X3464Y2416D01*
X3464Y2416D01*
X3464Y2416D01*
X3464Y2417D01*
X3464Y2417D01*
X3464Y2417D01*
X3464Y2417D01*
X3463Y2417D01*
X3463Y2417D01*
X3463Y2418D01*
X3463Y2418D01*
X3463Y2418D01*
X3463Y2419D01*
X3462Y2419D01*
X3462Y2419D01*
X3462Y2420D01*
X3462Y2420D01*
Y2421D01*
X3465Y2420D01*
Y2420D01*
X3465Y2420D01*
Y2420D01*
X3465Y2420D01*
X3465Y2420D01*
X3465Y2420D01*
X3465Y2420D01*
X3466Y2419D01*
X3466Y2419D01*
X3466Y2419D01*
X3466Y2418D01*
X3466D01*
X3466Y2418D01*
X3466Y2418D01*
X3466Y2418D01*
X3467Y2418D01*
X3467Y2418D01*
X3467Y2418D01*
X3467Y2418D01*
X3467Y2418D01*
X3467Y2418D01*
X3468Y2418D01*
X3468Y2418D01*
X3468Y2418D01*
X3469Y2418D01*
X3469Y2418D01*
X3469Y2418D01*
X3470D01*
X3470Y2418D01*
X3470D01*
X3470Y2418D01*
X3470Y2418D01*
X3471Y2418D01*
X3471Y2418D01*
X3472Y2418D01*
X3472Y2418D01*
X3472Y2418D01*
X3473Y2418D01*
X3473Y2418D01*
X3473Y2418D01*
X3473Y2419D01*
X3473Y2419D01*
X3473Y2419D01*
X3473Y2419D01*
X3474Y2419D01*
X3474Y2420D01*
X3474Y2420D01*
X3474Y2421D01*
Y2421D01*
X3474Y2421D01*
Y2421D01*
X3474Y2421D01*
X3474Y2421D01*
X3474Y2421D01*
X3474Y2421D01*
X3474Y2422D01*
X3474Y2422D01*
X3474Y2422D01*
X3474Y2423D01*
X3474Y2423D01*
Y2423D01*
X3474Y2424D01*
Y2424D01*
Y2425D01*
X3474Y2425D01*
X3474Y2425D01*
X3474Y2425D01*
X3474Y2424D01*
X3474Y2424D01*
X3474Y2424D01*
X3473Y2424D01*
X3473Y2424D01*
X3473Y2423D01*
X3472Y2423D01*
X3472Y2423D01*
X3471Y2423D01*
X3471Y2423D01*
X3471Y2422D01*
X3470Y2422D01*
X3469Y2422D01*
X3469D01*
X3469Y2422D01*
X3469Y2422D01*
X3468Y2422D01*
X3468Y2423D01*
X3468Y2423D01*
X3467Y2423D01*
X3467Y2423D01*
X3466Y2423D01*
X3466Y2423D01*
X3465Y2424D01*
X3465Y2424D01*
X3464Y2424D01*
X3464Y2425D01*
X3464Y2425D01*
X3464Y2425D01*
X3464Y2425D01*
X3463Y2425D01*
X3463Y2426D01*
X3463Y2426D01*
X3463Y2426D01*
X3463Y2427D01*
X3463Y2427D01*
X3462Y2427D01*
X3462Y2428D01*
X3462Y2428D01*
X3462Y2429D01*
X3462Y2430D01*
X3462Y2430D01*
X3462Y2431D01*
X3462Y2432D01*
Y2432D01*
Y2432D01*
Y2432D01*
X3462Y2432D01*
Y2432D01*
X3462Y2433D01*
X3462Y2433D01*
X3462Y2433D01*
X3462Y2434D01*
X3462Y2434D01*
X3462Y2435D01*
X3462Y2436D01*
X3462Y2436D01*
X3463Y2436D01*
X3463Y2436D01*
X3463Y2436D01*
X3463Y2437D01*
X3463Y2437D01*
X3463Y2437D01*
X3463Y2437D01*
X3463Y2437D01*
X3463Y2438D01*
X3463Y2438D01*
X3464Y2438D01*
X3464Y2438D01*
X3464Y2439D01*
X3464Y2439D01*
X3465Y2439D01*
X3465Y2440D01*
X3465Y2440D01*
X3465Y2440D01*
X3465Y2440D01*
X3465Y2440D01*
X3466Y2440D01*
X3466Y2440D01*
X3466Y2440D01*
X3466Y2440D01*
X3466Y2440D01*
X3467Y2441D01*
X3467Y2441D01*
X3467Y2441D01*
X3468Y2441D01*
X3468Y2441D01*
X3469Y2441D01*
X3469Y2441D01*
X3469Y2441D01*
X3470D01*
X3470Y2441D01*
D02*
G37*
G36*
X3519Y2415D02*
X3499D01*
Y2418D01*
X3519D01*
Y2415D01*
D02*
G37*
G36*
X3433D02*
X3413D01*
Y2418D01*
X3433D01*
Y2415D01*
D02*
G37*
G36*
X3352Y3068D02*
X3352Y3068D01*
Y3068D01*
X3352Y3068D01*
X3352Y3067D01*
X3352Y3067D01*
X3352Y3066D01*
X3351Y3066D01*
X3351Y3065D01*
X3351Y3065D01*
X3351Y3064D01*
X3351Y3064D01*
X3351Y3064D01*
Y3064D01*
X3351Y3063D01*
X3351Y3063D01*
X3351Y3063D01*
X3351Y3063D01*
X3351Y3063D01*
X3351Y3063D01*
X3350Y3063D01*
X3350Y3062D01*
X3350Y3062D01*
X3350Y3062D01*
X3350Y3062D01*
X3349Y3061D01*
X3349Y3061D01*
X3349Y3061D01*
X3349Y3061D01*
X3349Y3061D01*
X3348Y3061D01*
X3348Y3061D01*
X3348Y3061D01*
X3348Y3061D01*
X3348Y3060D01*
X3348Y3060D01*
X3347Y3060D01*
X3347Y3060D01*
X3347Y3060D01*
X3347Y3060D01*
X3346Y3060D01*
X3346Y3060D01*
X3345Y3060D01*
X3345Y3060D01*
X3345D01*
X3345D01*
X3345Y3060D01*
X3344D01*
X3344Y3060D01*
X3344Y3060D01*
X3344Y3060D01*
X3343Y3060D01*
X3343Y3060D01*
X3342Y3060D01*
X3342Y3060D01*
X3342Y3060D01*
X3341Y3061D01*
X3341Y3061D01*
X3341Y3061D01*
X3340Y3061D01*
X3340Y3061D01*
X3340Y3062D01*
X3340Y3062D01*
X3340Y3062D01*
X3340Y3062D01*
X3340Y3062D01*
X3339Y3062D01*
X3339Y3063D01*
X3339Y3063D01*
X3339Y3064D01*
X3339Y3064D01*
X3339Y3064D01*
X3338Y3065D01*
X3338Y3066D01*
X3338Y3066D01*
X3338Y3067D01*
Y3067D01*
X3338Y3067D01*
X3338Y3067D01*
X3338Y3067D01*
X3338Y3066D01*
X3338Y3066D01*
X3337Y3066D01*
X3337Y3065D01*
X3337Y3065D01*
X3337Y3065D01*
X3337Y3065D01*
X3337Y3065D01*
X3337Y3065D01*
X3336Y3065D01*
X3336Y3064D01*
X3336Y3064D01*
X3336Y3064D01*
X3336Y3064D01*
X3336Y3064D01*
X3335Y3063D01*
X3335Y3063D01*
X3335Y3063D01*
X3334Y3063D01*
X3334Y3063D01*
X3333Y3062D01*
X3327Y3058D01*
Y3062D01*
X3332Y3065D01*
X3332Y3065D01*
X3332Y3065D01*
X3332Y3065D01*
X3332Y3065D01*
X3332Y3066D01*
X3333Y3066D01*
X3333Y3066D01*
X3333Y3066D01*
X3334Y3066D01*
X3334Y3067D01*
X3335Y3067D01*
X3335Y3067D01*
X3335Y3068D01*
X3335Y3068D01*
X3335Y3068D01*
X3335Y3068D01*
X3335Y3068D01*
X3336Y3068D01*
X3336Y3068D01*
X3336Y3068D01*
X3336Y3069D01*
X3337Y3069D01*
X3337Y3069D01*
X3337Y3069D01*
X3337Y3069D01*
X3337Y3070D01*
X3337Y3070D01*
X3337Y3070D01*
X3337Y3070D01*
X3337Y3070D01*
X3338Y3071D01*
Y3071D01*
X3338Y3071D01*
X3338Y3071D01*
X3338Y3071D01*
X3338Y3071D01*
X3338Y3072D01*
X3338Y3072D01*
Y3076D01*
X3327D01*
Y3080D01*
X3352D01*
Y3068D01*
D02*
G37*
G36*
X3332Y3056D02*
X3332D01*
X3332Y3056D01*
X3332Y3056D01*
X3332Y3056D01*
X3333Y3056D01*
X3333Y3056D01*
X3334Y3055D01*
X3334D01*
X3334Y3055D01*
X3334Y3055D01*
X3334Y3055D01*
X3334Y3055D01*
X3334Y3055D01*
X3335Y3055D01*
X3335Y3054D01*
X3335Y3054D01*
X3336Y3054D01*
Y3054D01*
X3336Y3054D01*
X3336Y3054D01*
X3336Y3054D01*
X3336Y3053D01*
X3336Y3053D01*
X3336Y3053D01*
X3336Y3052D01*
X3336Y3052D01*
X3337Y3052D01*
Y3052D01*
X3337Y3051D01*
Y3051D01*
X3337Y3051D01*
X3337Y3051D01*
X3337Y3051D01*
X3337Y3051D01*
X3337Y3051D01*
X3337Y3051D01*
X3337Y3050D01*
X3337Y3050D01*
X3337Y3050D01*
X3337Y3050D01*
X3337Y3049D01*
X3337Y3049D01*
X3337Y3049D01*
Y3049D01*
X3337Y3049D01*
Y3049D01*
X3337Y3048D01*
X3337Y3048D01*
X3337Y3048D01*
X3337Y3048D01*
X3337Y3047D01*
X3337Y3047D01*
X3337Y3046D01*
X3337Y3046D01*
X3338Y3045D01*
X3338Y3044D01*
X3338Y3044D01*
X3338Y3044D01*
X3338Y3043D01*
X3338D01*
X3338D01*
X3338D01*
X3338Y3043D01*
X3339D01*
X3339D01*
X3339D01*
X3339D01*
X3339D01*
X3339D01*
X3339Y3043D01*
X3339D01*
X3340Y3043D01*
X3340Y3043D01*
X3340Y3043D01*
X3341Y3044D01*
X3341Y3044D01*
X3341Y3044D01*
X3342Y3044D01*
X3342Y3044D01*
X3342Y3044D01*
X3342Y3044D01*
X3342Y3044D01*
X3342Y3044D01*
X3342Y3045D01*
X3342Y3045D01*
X3342Y3045D01*
X3342Y3045D01*
X3342Y3046D01*
X3342Y3046D01*
X3342Y3046D01*
X3342Y3046D01*
X3343Y3047D01*
X3343Y3047D01*
X3343Y3048D01*
Y3048D01*
X3343Y3048D01*
Y3048D01*
X3343Y3048D01*
X3343Y3049D01*
X3342Y3049D01*
X3342Y3049D01*
X3342Y3050D01*
X3342Y3050D01*
X3342Y3051D01*
X3342Y3051D01*
Y3051D01*
X3342Y3051D01*
X3342Y3051D01*
X3342Y3051D01*
X3342Y3051D01*
X3341Y3051D01*
X3341Y3051D01*
X3341Y3051D01*
X3341Y3052D01*
X3341Y3052D01*
X3341Y3052D01*
X3340Y3052D01*
X3340Y3052D01*
X3340Y3052D01*
X3339Y3052D01*
X3339Y3052D01*
X3340Y3055D01*
X3340D01*
X3340Y3055D01*
X3340Y3055D01*
X3340Y3055D01*
X3340Y3055D01*
X3340Y3055D01*
X3340Y3055D01*
X3341Y3055D01*
X3341Y3055D01*
X3342Y3055D01*
X3342Y3054D01*
X3343Y3054D01*
X3343Y3054D01*
X3343Y3054D01*
X3343Y3054D01*
X3343Y3054D01*
X3343Y3054D01*
X3343Y3054D01*
X3343Y3054D01*
X3343Y3053D01*
X3343Y3053D01*
X3344Y3053D01*
X3344Y3053D01*
X3344Y3053D01*
X3344Y3052D01*
X3344Y3052D01*
X3344Y3051D01*
Y3051D01*
X3345Y3051D01*
X3345Y3051D01*
X3345Y3051D01*
X3345Y3051D01*
X3345Y3051D01*
X3345Y3050D01*
X3345Y3050D01*
X3345Y3050D01*
X3345Y3050D01*
X3345Y3049D01*
X3345Y3049D01*
X3345Y3048D01*
X3345Y3048D01*
X3345Y3047D01*
Y3047D01*
X3345Y3047D01*
Y3046D01*
X3345Y3046D01*
X3345Y3046D01*
X3345Y3045D01*
X3345Y3045D01*
X3345Y3044D01*
X3345Y3044D01*
X3345Y3043D01*
Y3043D01*
X3345Y3043D01*
X3345Y3043D01*
X3344Y3043D01*
X3344Y3043D01*
X3344Y3043D01*
X3344Y3043D01*
X3344Y3042D01*
X3344Y3042D01*
X3343Y3042D01*
X3343Y3041D01*
X3343Y3041D01*
X3343Y3041D01*
X3343Y3041D01*
X3343Y3041D01*
X3342Y3041D01*
X3342Y3041D01*
X3342Y3040D01*
X3341Y3040D01*
X3341D01*
X3341Y3040D01*
X3341D01*
X3341Y3040D01*
X3341Y3040D01*
X3341D01*
X3340Y3040D01*
X3340Y3040D01*
X3340Y3040D01*
X3340D01*
X3340Y3040D01*
X3339D01*
X3339Y3040D01*
X3339D01*
X3338D01*
X3334D01*
X3334D01*
X3334D01*
X3334D01*
X3334D01*
X3334D01*
X3334D01*
X3333D01*
X3333D01*
X3333Y3040D01*
X3332D01*
X3332D01*
X3331Y3040D01*
X3330Y3040D01*
X3330Y3040D01*
X3330Y3040D01*
X3329Y3040D01*
X3329Y3040D01*
X3329Y3040D01*
X3329D01*
X3329Y3040D01*
X3329D01*
X3328Y3040D01*
X3328Y3040D01*
X3328Y3040D01*
X3328Y3040D01*
X3327Y3040D01*
X3327Y3039D01*
X3327Y3039D01*
Y3042D01*
X3327D01*
X3327Y3042D01*
X3327Y3042D01*
X3327Y3042D01*
X3327Y3043D01*
X3327Y3043D01*
X3327Y3043D01*
X3328Y3043D01*
X3328Y3043D01*
X3329Y3043D01*
X3329Y3043D01*
X3329Y3043D01*
X3329Y3043D01*
X3329Y3043D01*
X3328Y3043D01*
X3328Y3044D01*
X3328Y3044D01*
X3328Y3044D01*
X3328Y3045D01*
X3327Y3045D01*
X3327Y3046D01*
X3327Y3046D01*
X3327Y3046D01*
Y3046D01*
X3327Y3046D01*
X3327Y3046D01*
X3327Y3047D01*
X3327Y3047D01*
X3327Y3047D01*
X3326Y3047D01*
X3326Y3047D01*
X3326Y3048D01*
X3326Y3048D01*
X3326Y3048D01*
X3326Y3049D01*
X3326Y3050D01*
Y3050D01*
X3326Y3050D01*
Y3050D01*
X3326Y3050D01*
X3326Y3051D01*
X3326Y3051D01*
X3326Y3051D01*
X3326Y3052D01*
X3326Y3052D01*
X3327Y3053D01*
X3327Y3053D01*
X3327Y3053D01*
X3327Y3054D01*
X3327Y3054D01*
X3328Y3054D01*
X3328Y3054D01*
X3328Y3054D01*
X3328Y3054D01*
X3328Y3055D01*
X3328Y3055D01*
X3328Y3055D01*
X3328Y3055D01*
X3329Y3055D01*
X3329Y3055D01*
X3329Y3055D01*
X3329Y3056D01*
X3330Y3056D01*
X3330Y3056D01*
X3330Y3056D01*
X3331Y3056D01*
X3331Y3056D01*
X3331D01*
X3331D01*
X3331D01*
X3332Y3056D01*
D02*
G37*
G36*
X3345Y3032D02*
X3335D01*
X3335D01*
X3335D01*
X3334D01*
X3334D01*
X3334D01*
X3334Y3032D01*
X3334D01*
X3333D01*
X3333Y3032D01*
X3332Y3032D01*
X3332Y3032D01*
X3332Y3032D01*
X3332Y3032D01*
X3331Y3032D01*
X3331D01*
X3331Y3032D01*
X3331Y3032D01*
X3331Y3032D01*
X3331Y3032D01*
X3331Y3032D01*
X3330Y3032D01*
X3330Y3032D01*
X3330Y3031D01*
X3329Y3031D01*
Y3031D01*
X3329Y3031D01*
X3329Y3031D01*
X3329Y3031D01*
X3329Y3031D01*
X3329Y3030D01*
X3329Y3030D01*
X3329Y3030D01*
X3329Y3029D01*
X3329Y3029D01*
Y3028D01*
X3329Y3028D01*
Y3028D01*
X3329Y3028D01*
X3329Y3028D01*
X3329Y3027D01*
X3329Y3027D01*
X3329Y3026D01*
X3329Y3026D01*
Y3026D01*
X3329Y3026D01*
X3330Y3026D01*
X3330Y3026D01*
X3330Y3026D01*
X3330Y3025D01*
X3330Y3025D01*
X3331Y3025D01*
X3331Y3024D01*
X3331Y3024D01*
X3331D01*
X3331Y3024D01*
X3332Y3024D01*
X3332Y3024D01*
X3332Y3024D01*
X3332Y3024D01*
X3332Y3024D01*
X3332Y3024D01*
X3333Y3024D01*
X3333Y3024D01*
X3333Y3024D01*
X3333Y3024D01*
X3334Y3024D01*
X3334Y3024D01*
X3335Y3024D01*
X3335D01*
X3345D01*
Y3021D01*
X3327D01*
Y3023D01*
X3329D01*
X3329Y3023D01*
X3329Y3024D01*
X3329Y3024D01*
X3329Y3024D01*
X3328Y3024D01*
X3328Y3024D01*
X3328Y3025D01*
X3328Y3025D01*
X3327Y3025D01*
X3327Y3026D01*
X3327Y3026D01*
X3327Y3027D01*
X3326Y3027D01*
X3326Y3028D01*
X3326Y3029D01*
X3326Y3029D01*
Y3029D01*
X3326Y3030D01*
Y3030D01*
X3326Y3030D01*
X3326Y3030D01*
X3326Y3030D01*
X3326Y3031D01*
X3326Y3031D01*
X3327Y3032D01*
X3327Y3032D01*
Y3032D01*
X3327Y3032D01*
X3327Y3032D01*
X3327Y3032D01*
X3327Y3033D01*
X3327Y3033D01*
X3327Y3033D01*
X3327Y3033D01*
X3328Y3034D01*
X3328Y3034D01*
X3328Y3034D01*
X3328D01*
X3328Y3034D01*
X3328Y3034D01*
X3328Y3034D01*
X3329Y3035D01*
X3329Y3035D01*
X3329Y3035D01*
X3330Y3035D01*
X3330Y3035D01*
X3331Y3035D01*
X3331D01*
X3331D01*
X3331Y3035D01*
X3331D01*
X3331Y3035D01*
X3331Y3035D01*
X3331Y3035D01*
X3331D01*
X3331Y3035D01*
X3332Y3035D01*
X3332Y3035D01*
X3332Y3035D01*
X3332D01*
X3333Y3035D01*
X3333D01*
X3333D01*
X3345D01*
Y3032D01*
D02*
G37*
G36*
X3336Y3017D02*
X3336Y3017D01*
X3337Y3017D01*
X3337Y3017D01*
X3337Y3017D01*
X3338Y3017D01*
X3338Y3017D01*
X3339Y3016D01*
X3339Y3016D01*
X3340Y3016D01*
X3340Y3016D01*
X3341Y3016D01*
X3341Y3016D01*
X3341Y3016D01*
X3341Y3016D01*
X3341Y3016D01*
X3341Y3016D01*
X3341Y3015D01*
X3342Y3015D01*
X3342Y3015D01*
X3342Y3015D01*
X3342Y3015D01*
X3343Y3014D01*
X3343Y3014D01*
X3343Y3014D01*
X3344Y3014D01*
X3344Y3013D01*
X3344Y3013D01*
X3344Y3013D01*
X3344Y3013D01*
X3344Y3013D01*
X3344Y3013D01*
X3344Y3012D01*
X3344Y3012D01*
X3344Y3012D01*
X3345Y3012D01*
X3345Y3011D01*
X3345Y3011D01*
X3345Y3011D01*
X3345Y3010D01*
X3345Y3010D01*
X3345Y3009D01*
X3345Y3009D01*
X3345Y3009D01*
Y3008D01*
X3345Y3008D01*
X3345Y3008D01*
X3345Y3007D01*
X3345Y3007D01*
X3345Y3007D01*
X3345Y3006D01*
X3345Y3006D01*
X3345Y3006D01*
X3345Y3005D01*
X3344Y3005D01*
X3344Y3004D01*
X3344Y3004D01*
X3344Y3004D01*
X3344Y3004D01*
X3344Y3004D01*
X3343Y3004D01*
X3343Y3003D01*
X3343Y3003D01*
X3343Y3003D01*
X3343Y3003D01*
X3343Y3003D01*
X3342Y3002D01*
X3342Y3002D01*
X3342Y3002D01*
X3341Y3002D01*
X3341Y3002D01*
X3340Y3002D01*
X3340Y3001D01*
X3339Y3001D01*
X3339Y3004D01*
X3339D01*
X3339Y3004D01*
X3339Y3004D01*
X3339Y3004D01*
X3339Y3004D01*
X3340Y3004D01*
X3340Y3005D01*
X3340Y3005D01*
X3341Y3005D01*
X3341Y3005D01*
X3341Y3006D01*
X3342Y3006D01*
X3342Y3006D01*
X3342Y3006D01*
X3342Y3006D01*
X3342Y3006D01*
X3342Y3006D01*
X3342Y3006D01*
X3342Y3006D01*
X3342Y3007D01*
X3342Y3007D01*
X3342Y3007D01*
X3343Y3008D01*
X3343Y3008D01*
X3343Y3008D01*
Y3009D01*
X3343Y3009D01*
Y3009D01*
X3343Y3009D01*
X3343Y3009D01*
X3342Y3009D01*
X3342Y3010D01*
X3342Y3010D01*
X3342Y3010D01*
X3342Y3011D01*
X3342Y3011D01*
X3342Y3011D01*
X3341Y3012D01*
X3341Y3012D01*
X3341Y3012D01*
X3341Y3012D01*
X3341Y3012D01*
X3341Y3012D01*
X3341Y3012D01*
X3340Y3013D01*
X3340Y3013D01*
X3340Y3013D01*
X3340Y3013D01*
X3339Y3013D01*
X3339Y3013D01*
X3338Y3013D01*
X3338Y3013D01*
X3337Y3013D01*
X3337Y3014D01*
X3336Y3014D01*
X3336Y3014D01*
X3336D01*
X3336D01*
X3335D01*
X3335D01*
X3335Y3014D01*
X3335Y3014D01*
X3334Y3014D01*
X3334Y3014D01*
X3334Y3013D01*
X3333Y3013D01*
X3333Y3013D01*
X3332Y3013D01*
X3332Y3013D01*
X3331Y3013D01*
X3331Y3013D01*
X3331Y3012D01*
X3330Y3012D01*
X3330Y3012D01*
X3330Y3012D01*
X3330Y3012D01*
X3330Y3012D01*
X3330Y3012D01*
X3330Y3012D01*
X3330Y3011D01*
X3329Y3011D01*
X3329Y3011D01*
X3329Y3011D01*
X3329Y3010D01*
X3329Y3010D01*
X3329Y3010D01*
X3329Y3009D01*
X3329Y3009D01*
X3329Y3009D01*
Y3008D01*
X3329Y3008D01*
X3329Y3008D01*
X3329Y3008D01*
X3329Y3008D01*
X3329Y3008D01*
X3329Y3007D01*
X3329Y3007D01*
X3329Y3006D01*
X3329Y3006D01*
X3330Y3006D01*
X3330Y3006D01*
X3330Y3006D01*
X3330Y3005D01*
X3330Y3005D01*
X3330Y3005D01*
X3330Y3005D01*
X3330Y3005D01*
X3330Y3005D01*
X3331Y3005D01*
X3331Y3005D01*
X3331Y3005D01*
X3331Y3005D01*
X3332Y3004D01*
X3332Y3004D01*
X3332Y3004D01*
X3333Y3004D01*
X3333Y3004D01*
X3333Y3001D01*
X3333D01*
X3333Y3001D01*
X3332Y3001D01*
X3332Y3001D01*
X3332Y3001D01*
X3332Y3001D01*
X3331Y3001D01*
X3331Y3001D01*
X3331Y3002D01*
X3330Y3002D01*
X3330Y3002D01*
X3329Y3002D01*
X3329Y3003D01*
X3329Y3003D01*
X3328Y3003D01*
X3328Y3004D01*
X3328Y3004D01*
X3328Y3004D01*
X3328Y3004D01*
X3328Y3004D01*
X3327Y3004D01*
X3327Y3004D01*
X3327Y3005D01*
X3327Y3005D01*
X3327Y3005D01*
X3327Y3006D01*
X3327Y3006D01*
X3326Y3007D01*
X3326Y3007D01*
X3326Y3007D01*
X3326Y3008D01*
X3326Y3009D01*
Y3009D01*
X3326Y3009D01*
X3326Y3009D01*
X3326Y3009D01*
X3326Y3010D01*
X3326Y3010D01*
X3326Y3011D01*
X3327Y3011D01*
X3327Y3012D01*
X3327Y3012D01*
X3327Y3013D01*
X3327Y3013D01*
X3328Y3014D01*
X3328Y3014D01*
X3329Y3015D01*
X3329Y3015D01*
X3329Y3015D01*
X3329Y3015D01*
X3329Y3015D01*
X3329Y3015D01*
X3330Y3015D01*
X3330Y3015D01*
X3330Y3016D01*
X3331Y3016D01*
X3331Y3016D01*
X3332Y3016D01*
X3333Y3016D01*
X3333Y3017D01*
X3334Y3017D01*
X3335Y3017D01*
X3336Y3017D01*
X3336D01*
X3336D01*
X3336D01*
X3336Y3017D01*
D02*
G37*
G36*
X3352Y2995D02*
X3343D01*
X3343Y2995D01*
X3343Y2995D01*
X3343Y2995D01*
X3343Y2995D01*
X3343Y2995D01*
X3343Y2994D01*
X3344Y2994D01*
X3344Y2994D01*
X3344Y2993D01*
X3344Y2993D01*
X3345Y2993D01*
X3345Y2992D01*
X3345Y2992D01*
X3345Y2991D01*
X3345Y2990D01*
X3345Y2990D01*
Y2990D01*
X3345Y2989D01*
Y2989D01*
X3345Y2989D01*
X3345Y2989D01*
X3345Y2989D01*
X3345Y2988D01*
X3345Y2987D01*
X3345Y2987D01*
X3344Y2986D01*
Y2986D01*
X3344Y2986D01*
X3344Y2986D01*
X3344Y2986D01*
X3344Y2986D01*
X3344Y2986D01*
X3344Y2985D01*
X3343Y2985D01*
X3343Y2985D01*
X3343Y2984D01*
X3342Y2984D01*
X3342Y2984D01*
X3342D01*
X3342Y2984D01*
X3342Y2984D01*
X3342Y2984D01*
X3342Y2984D01*
X3342Y2984D01*
X3341Y2984D01*
X3341Y2984D01*
X3341Y2984D01*
X3341Y2984D01*
X3340Y2984D01*
X3340Y2984D01*
X3339Y2984D01*
X3339Y2984D01*
X3339Y2983D01*
X3338D01*
X3327D01*
Y2987D01*
X3338D01*
X3338D01*
X3338D01*
X3338D01*
X3338Y2987D01*
X3339Y2987D01*
X3339Y2987D01*
X3339Y2987D01*
X3339Y2987D01*
X3340Y2987D01*
X3340Y2987D01*
X3341Y2987D01*
X3341Y2987D01*
X3341Y2987D01*
X3341Y2988D01*
X3341Y2988D01*
X3341Y2988D01*
X3342Y2988D01*
X3342Y2988D01*
X3342Y2988D01*
X3342Y2988D01*
X3342Y2988D01*
X3342Y2988D01*
X3342Y2988D01*
X3342Y2989D01*
X3342Y2989D01*
X3342Y2989D01*
X3342Y2989D01*
X3342Y2990D01*
X3342Y2990D01*
X3342Y2990D01*
Y2991D01*
X3342Y2991D01*
Y2991D01*
X3342Y2991D01*
X3342Y2991D01*
X3342Y2992D01*
X3342Y2992D01*
X3342Y2993D01*
X3342Y2993D01*
Y2993D01*
X3342Y2993D01*
X3342Y2993D01*
X3342Y2993D01*
X3341Y2993D01*
X3341Y2994D01*
X3341Y2994D01*
X3341Y2994D01*
X3340Y2995D01*
X3340Y2995D01*
X3340D01*
X3340Y2995D01*
X3340Y2995D01*
X3340Y2995D01*
X3339Y2995D01*
X3339Y2995D01*
X3339Y2995D01*
X3339Y2995D01*
X3339Y2995D01*
X3338Y2995D01*
X3338Y2995D01*
X3338Y2995D01*
X3338Y2995D01*
X3337Y2995D01*
X3337Y2995D01*
X3336D01*
X3327D01*
Y2998D01*
X3352D01*
Y2995D01*
D02*
G37*
G36*
X3340Y2970D02*
X3340D01*
X3340Y2970D01*
X3341Y2970D01*
X3341Y2970D01*
X3342Y2969D01*
X3342Y2969D01*
X3343Y2969D01*
X3343Y2969D01*
X3344Y2969D01*
X3344Y2969D01*
X3345Y2969D01*
X3346Y2968D01*
X3346Y2968D01*
X3346Y2968D01*
X3346Y2968D01*
X3346Y2968D01*
X3347Y2968D01*
X3347Y2968D01*
X3347Y2968D01*
X3347Y2967D01*
X3348Y2967D01*
X3348Y2967D01*
X3348Y2966D01*
X3349Y2966D01*
X3349Y2966D01*
X3350Y2965D01*
X3350Y2965D01*
X3350Y2964D01*
X3351Y2964D01*
X3351Y2964D01*
X3351Y2964D01*
X3351Y2964D01*
X3351Y2963D01*
X3351Y2963D01*
X3351Y2963D01*
X3351Y2962D01*
X3351Y2962D01*
X3351Y2962D01*
X3352Y2961D01*
X3352Y2961D01*
X3352Y2960D01*
X3352Y2960D01*
X3352Y2959D01*
X3352Y2958D01*
X3352Y2958D01*
Y2958D01*
X3352Y2957D01*
Y2957D01*
X3352Y2957D01*
X3352Y2956D01*
X3352Y2956D01*
X3352Y2956D01*
X3352Y2955D01*
X3352Y2955D01*
X3351Y2954D01*
X3351Y2954D01*
X3351Y2953D01*
X3351Y2952D01*
X3350Y2952D01*
X3350Y2951D01*
X3350Y2951D01*
X3350Y2951D01*
X3350Y2951D01*
X3350Y2951D01*
X3350Y2951D01*
X3349Y2951D01*
X3349Y2950D01*
X3349Y2950D01*
X3348Y2950D01*
X3348Y2949D01*
X3348Y2949D01*
X3347Y2949D01*
X3347Y2949D01*
X3346Y2948D01*
X3345Y2948D01*
X3345Y2948D01*
X3344Y2951D01*
X3344D01*
X3344Y2951D01*
X3344Y2951D01*
X3344Y2951D01*
X3345Y2951D01*
X3345Y2951D01*
X3345Y2952D01*
X3346Y2952D01*
X3346Y2952D01*
X3347Y2953D01*
X3347Y2953D01*
X3347Y2953D01*
X3348Y2953D01*
X3348Y2954D01*
X3348Y2954D01*
X3348Y2954D01*
X3348Y2954D01*
X3348Y2954D01*
X3348Y2954D01*
X3348Y2954D01*
X3348Y2955D01*
X3349Y2955D01*
X3349Y2955D01*
X3349Y2955D01*
X3349Y2956D01*
X3349Y2956D01*
X3349Y2957D01*
X3349Y2957D01*
X3349Y2957D01*
X3349Y2958D01*
Y2958D01*
X3349Y2958D01*
X3349Y2959D01*
X3349Y2959D01*
X3349Y2959D01*
X3349Y2960D01*
X3349Y2960D01*
X3349Y2960D01*
X3349Y2961D01*
X3349Y2961D01*
X3348Y2962D01*
X3348Y2962D01*
X3348Y2962D01*
X3348Y2963D01*
X3348Y2963D01*
X3348Y2963D01*
X3348Y2963D01*
X3348Y2963D01*
X3347Y2963D01*
X3347Y2963D01*
X3347Y2964D01*
X3347Y2964D01*
X3347Y2964D01*
X3346Y2964D01*
X3346Y2964D01*
X3346Y2965D01*
X3345Y2965D01*
X3345Y2965D01*
X3345Y2965D01*
X3344Y2965D01*
X3344D01*
X3344Y2965D01*
X3344Y2965D01*
X3344Y2966D01*
X3343Y2966D01*
X3343Y2966D01*
X3343Y2966D01*
X3343Y2966D01*
X3342Y2966D01*
X3342Y2966D01*
X3341Y2966D01*
X3341Y2966D01*
X3340Y2966D01*
X3339Y2966D01*
X3339D01*
X3339D01*
X3339D01*
X3339Y2966D01*
X3338D01*
X3338Y2966D01*
X3338Y2966D01*
X3337Y2966D01*
X3337Y2966D01*
X3336Y2966D01*
X3336Y2966D01*
X3335Y2966D01*
X3334Y2965D01*
X3334Y2965D01*
X3334Y2965D01*
X3334Y2965D01*
X3333Y2965D01*
X3333Y2965D01*
X3333Y2965D01*
X3333Y2965D01*
X3333Y2965D01*
X3332Y2965D01*
X3332Y2964D01*
X3332Y2964D01*
X3331Y2964D01*
X3331Y2964D01*
X3331Y2963D01*
X3331Y2963D01*
X3330Y2963D01*
X3330Y2962D01*
X3330Y2962D01*
X3330Y2962D01*
X3330Y2962D01*
X3330Y2962D01*
X3330Y2962D01*
X3330Y2962D01*
X3330Y2961D01*
X3330Y2961D01*
X3329Y2961D01*
X3329Y2960D01*
X3329Y2960D01*
X3329Y2960D01*
X3329Y2959D01*
X3329Y2959D01*
X3329Y2959D01*
X3329Y2958D01*
Y2958D01*
X3329Y2958D01*
Y2958D01*
X3329Y2957D01*
X3329Y2957D01*
X3329Y2957D01*
X3329Y2956D01*
X3329Y2956D01*
X3329Y2956D01*
X3329Y2955D01*
X3330Y2955D01*
X3330Y2955D01*
X3330Y2954D01*
X3330Y2954D01*
X3331Y2953D01*
X3331Y2953D01*
X3331Y2953D01*
X3331Y2953D01*
X3331Y2953D01*
X3331Y2953D01*
X3331Y2953D01*
X3331Y2953D01*
X3332Y2952D01*
X3332Y2952D01*
X3332Y2952D01*
X3333Y2952D01*
X3333Y2951D01*
X3334Y2951D01*
X3334Y2951D01*
X3335Y2951D01*
X3335Y2951D01*
X3334Y2947D01*
X3334D01*
X3334Y2947D01*
X3334D01*
X3334Y2947D01*
X3334Y2948D01*
X3334Y2948D01*
X3333Y2948D01*
X3333Y2948D01*
X3333Y2948D01*
X3332Y2948D01*
X3332Y2949D01*
X3331Y2949D01*
X3331Y2949D01*
X3330Y2949D01*
X3330Y2950D01*
X3329Y2950D01*
X3329Y2951D01*
X3328Y2951D01*
X3328Y2951D01*
X3328Y2951D01*
X3328Y2951D01*
X3328Y2952D01*
X3328Y2952D01*
X3328Y2952D01*
X3327Y2953D01*
X3327Y2953D01*
X3327Y2953D01*
X3327Y2954D01*
X3327Y2955D01*
X3326Y2955D01*
X3326Y2956D01*
X3326Y2956D01*
X3326Y2957D01*
X3326Y2958D01*
Y2958D01*
X3326Y2958D01*
Y2958D01*
X3326Y2959D01*
X3326Y2959D01*
X3326Y2960D01*
X3326Y2960D01*
X3326Y2961D01*
X3326Y2961D01*
X3327Y2962D01*
X3327Y2962D01*
X3327Y2963D01*
X3327Y2963D01*
X3327Y2964D01*
X3328Y2964D01*
X3328Y2964D01*
X3328Y2965D01*
X3328Y2965D01*
X3328Y2965D01*
X3328Y2965D01*
X3328Y2965D01*
X3329Y2966D01*
X3329Y2966D01*
X3329Y2966D01*
X3330Y2966D01*
X3330Y2967D01*
X3330Y2967D01*
X3331Y2967D01*
X3331Y2968D01*
X3332Y2968D01*
X3333Y2968D01*
X3333Y2968D01*
X3333Y2968D01*
X3333Y2968D01*
X3333Y2969D01*
X3333Y2969D01*
X3334Y2969D01*
X3334Y2969D01*
X3335Y2969D01*
X3335Y2969D01*
X3336Y2969D01*
X3336Y2969D01*
X3337Y2969D01*
X3337Y2970D01*
X3338Y2970D01*
X3339Y2970D01*
X3339Y2970D01*
X3339D01*
X3339D01*
X3339D01*
X3339D01*
X3340Y2970D01*
D02*
G37*
G36*
X3351Y2928D02*
X3349D01*
X3349Y2928D01*
X3349Y2928D01*
X3349Y2928D01*
X3348Y2929D01*
X3348Y2929D01*
X3348Y2929D01*
X3348Y2929D01*
X3347Y2930D01*
X3347Y2930D01*
X3346Y2930D01*
X3346Y2931D01*
X3345Y2931D01*
X3344Y2932D01*
X3344Y2932D01*
X3343Y2932D01*
X3342Y2933D01*
X3342D01*
X3342Y2933D01*
X3342Y2933D01*
X3342Y2933D01*
X3342Y2933D01*
X3342Y2933D01*
X3342Y2933D01*
X3341Y2933D01*
X3341Y2933D01*
X3341Y2934D01*
X3340Y2934D01*
X3339Y2934D01*
X3339Y2934D01*
X3338Y2935D01*
X3337Y2935D01*
X3337Y2935D01*
X3336Y2936D01*
X3335Y2936D01*
X3334Y2936D01*
X3333Y2936D01*
X3333D01*
X3333Y2937D01*
X3333Y2937D01*
X3333Y2937D01*
X3333Y2937D01*
X3332Y2937D01*
X3332Y2937D01*
X3331Y2937D01*
X3331Y2937D01*
X3330Y2937D01*
X3330Y2937D01*
X3329Y2937D01*
X3329Y2937D01*
X3328Y2938D01*
X3327Y2938D01*
X3327Y2938D01*
Y2941D01*
X3327D01*
X3327D01*
X3327Y2941D01*
X3327D01*
X3327Y2941D01*
X3328Y2941D01*
X3328Y2941D01*
X3329Y2941D01*
X3329Y2941D01*
X3330Y2941D01*
X3330Y2940D01*
X3331Y2940D01*
X3331Y2940D01*
X3332Y2940D01*
X3333Y2940D01*
X3334Y2940D01*
X3334D01*
X3334Y2940D01*
X3334Y2940D01*
X3334Y2940D01*
X3334Y2940D01*
X3334Y2940D01*
X3334Y2940D01*
X3334Y2939D01*
X3335Y2939D01*
X3335Y2939D01*
X3336Y2939D01*
X3336Y2939D01*
X3337Y2939D01*
X3337Y2938D01*
X3338Y2938D01*
X3339Y2938D01*
X3340Y2938D01*
X3340Y2937D01*
X3341Y2937D01*
X3342Y2936D01*
X3342D01*
X3342Y2936D01*
X3342Y2936D01*
X3342Y2936D01*
X3342Y2936D01*
X3342Y2936D01*
X3343Y2936D01*
X3343Y2936D01*
X3344Y2935D01*
X3344Y2935D01*
X3345Y2935D01*
X3345Y2934D01*
X3346Y2934D01*
X3346Y2934D01*
X3347Y2933D01*
X3348Y2932D01*
X3348Y2932D01*
Y2944D01*
X3351D01*
Y2928D01*
D02*
G37*
%LPC*%
G36*
X3334Y3281D02*
X3326D01*
Y3274D01*
X3326Y3274D01*
Y3274D01*
X3326Y3273D01*
X3326Y3273D01*
X3326Y3272D01*
X3326Y3272D01*
X3326Y3271D01*
X3326Y3271D01*
X3326Y3271D01*
Y3271D01*
X3326Y3271D01*
X3326Y3271D01*
X3326Y3271D01*
X3326Y3270D01*
X3326Y3270D01*
X3327Y3270D01*
X3327Y3269D01*
X3327Y3269D01*
X3328Y3269D01*
X3328D01*
X3328Y3269D01*
X3328Y3269D01*
X3328Y3269D01*
X3328Y3269D01*
X3328Y3268D01*
X3329Y3268D01*
X3329Y3268D01*
X3329Y3268D01*
X3330Y3268D01*
X3330D01*
X3330D01*
X3330D01*
X3330Y3268D01*
X3330Y3268D01*
X3330Y3268D01*
X3331Y3268D01*
X3331Y3268D01*
X3331Y3268D01*
X3332Y3269D01*
X3332Y3269D01*
X3332Y3269D01*
X3332Y3269D01*
X3332Y3269D01*
X3333Y3269D01*
X3333Y3269D01*
X3333Y3270D01*
X3333Y3270D01*
X3333Y3270D01*
X3333Y3270D01*
X3333Y3270D01*
X3333Y3270D01*
X3333Y3270D01*
X3333Y3271D01*
X3333Y3271D01*
X3334Y3271D01*
X3334Y3272D01*
X3334Y3272D01*
X3334Y3273D01*
X3334Y3273D01*
X3334Y3274D01*
Y3281D01*
D02*
G37*
G36*
X3316Y3258D02*
X3316D01*
X3316D01*
X3316D01*
X3316Y3258D01*
X3316Y3258D01*
X3316Y3258D01*
X3315Y3257D01*
X3315Y3257D01*
X3315Y3257D01*
X3314Y3257D01*
X3314Y3257D01*
Y3257D01*
X3314Y3257D01*
X3314Y3257D01*
X3314Y3257D01*
X3314Y3256D01*
X3314Y3256D01*
X3314Y3256D01*
X3314Y3256D01*
X3314Y3256D01*
X3314Y3256D01*
X3314Y3255D01*
X3314Y3255D01*
X3314Y3255D01*
X3314Y3255D01*
X3314Y3254D01*
X3314Y3254D01*
Y3254D01*
X3314Y3254D01*
Y3254D01*
X3314Y3253D01*
X3314Y3253D01*
X3314Y3253D01*
X3314Y3252D01*
X3314Y3252D01*
X3314Y3251D01*
X3314Y3251D01*
Y3251D01*
X3314Y3251D01*
X3314Y3251D01*
X3314Y3251D01*
X3314Y3250D01*
X3315Y3250D01*
X3315Y3250D01*
X3315Y3250D01*
X3316Y3249D01*
X3316Y3249D01*
X3316Y3249D01*
X3316D01*
X3316Y3249D01*
X3317Y3249D01*
X3317Y3249D01*
X3317Y3249D01*
X3317Y3249D01*
X3317Y3249D01*
X3317Y3249D01*
X3317Y3248D01*
X3318Y3248D01*
X3318Y3248D01*
X3318Y3248D01*
X3318Y3248D01*
X3319Y3248D01*
X3319Y3248D01*
X3320D01*
X3321D01*
Y3248D01*
X3321Y3248D01*
X3321Y3248D01*
X3321Y3249D01*
X3320Y3249D01*
X3320Y3249D01*
X3320Y3249D01*
X3320Y3250D01*
X3320Y3250D01*
X3320Y3250D01*
X3320Y3251D01*
X3320Y3251D01*
X3320Y3252D01*
X3320Y3252D01*
X3320Y3253D01*
X3319Y3253D01*
Y3253D01*
X3319Y3253D01*
Y3253D01*
X3319Y3254D01*
X3319Y3254D01*
X3319Y3254D01*
X3319Y3254D01*
X3319Y3255D01*
X3319Y3255D01*
X3319Y3256D01*
X3319Y3256D01*
X3319Y3256D01*
X3319Y3256D01*
X3319Y3256D01*
X3319Y3256D01*
X3319Y3256D01*
X3318Y3257D01*
X3318Y3257D01*
X3318Y3257D01*
X3318Y3257D01*
X3318Y3257D01*
X3318Y3257D01*
X3318Y3257D01*
X3317Y3257D01*
X3317Y3258D01*
X3317Y3258D01*
X3317Y3258D01*
X3316Y3258D01*
D02*
G37*
G36*
X3320Y3146D02*
X3320D01*
X3320D01*
X3319D01*
X3319Y3146D01*
X3319D01*
X3319Y3146D01*
X3319Y3146D01*
X3319Y3146D01*
X3318Y3146D01*
X3318Y3146D01*
X3317Y3146D01*
X3317Y3145D01*
X3317D01*
X3317Y3145D01*
X3316Y3145D01*
X3316Y3145D01*
X3316Y3145D01*
X3316Y3145D01*
X3316Y3145D01*
X3315Y3145D01*
X3315Y3144D01*
X3315Y3144D01*
X3314Y3144D01*
Y3144D01*
X3314Y3144D01*
X3314Y3143D01*
X3314Y3143D01*
X3314Y3143D01*
X3314Y3143D01*
X3314Y3143D01*
X3314Y3142D01*
X3314Y3142D01*
X3314Y3142D01*
X3314Y3141D01*
Y3141D01*
X3314Y3141D01*
Y3141D01*
X3314Y3141D01*
X3314Y3140D01*
X3314Y3140D01*
X3314Y3140D01*
X3314Y3140D01*
X3314Y3139D01*
X3314Y3139D01*
X3314Y3139D01*
X3314Y3139D01*
X3315Y3138D01*
X3315Y3138D01*
X3315Y3138D01*
X3315Y3138D01*
X3315Y3138D01*
X3315Y3138D01*
X3315Y3137D01*
X3316Y3137D01*
X3316Y3137D01*
X3316Y3137D01*
X3316Y3137D01*
X3317Y3137D01*
X3317Y3137D01*
X3317Y3137D01*
X3318Y3136D01*
X3318Y3136D01*
X3319Y3136D01*
X3319Y3136D01*
X3319Y3136D01*
X3320D01*
X3320D01*
X3320D01*
X3320Y3136D01*
X3320Y3136D01*
X3320Y3136D01*
X3321Y3136D01*
X3321Y3136D01*
X3321Y3137D01*
X3322Y3137D01*
X3322Y3137D01*
X3322Y3137D01*
X3323Y3137D01*
X3323Y3137D01*
X3323Y3137D01*
X3324Y3138D01*
X3324Y3138D01*
X3324Y3138D01*
X3324Y3138D01*
X3324Y3138D01*
X3324Y3138D01*
X3324Y3138D01*
X3324Y3138D01*
X3324Y3139D01*
X3324Y3139D01*
X3325Y3139D01*
X3325Y3139D01*
X3325Y3140D01*
X3325Y3140D01*
X3325Y3140D01*
X3325Y3141D01*
X3325Y3141D01*
Y3141D01*
X3325Y3142D01*
X3325Y3142D01*
X3325Y3142D01*
X3325Y3142D01*
X3325Y3142D01*
X3325Y3143D01*
X3325Y3143D01*
X3325Y3143D01*
X3324Y3144D01*
X3324Y3144D01*
X3324Y3144D01*
X3324Y3144D01*
X3324Y3145D01*
X3324Y3145D01*
X3323Y3145D01*
X3323Y3145D01*
X3323Y3145D01*
X3323Y3145D01*
X3323Y3145D01*
X3323Y3145D01*
X3323Y3145D01*
X3322Y3146D01*
X3322Y3146D01*
X3322Y3146D01*
X3321Y3146D01*
X3321Y3146D01*
X3320Y3146D01*
X3320Y3146D01*
X3320Y3146D01*
D02*
G37*
G36*
X3546Y2438D02*
X3546D01*
X3546Y2438D01*
X3546D01*
X3546Y2438D01*
X3545Y2438D01*
X3545Y2438D01*
X3545Y2438D01*
X3545Y2438D01*
X3544Y2438D01*
X3544Y2438D01*
X3544Y2438D01*
X3543Y2438D01*
X3543Y2437D01*
X3543Y2437D01*
X3542Y2437D01*
X3542Y2437D01*
X3542Y2437D01*
X3542Y2437D01*
X3542Y2436D01*
X3542Y2436D01*
X3542Y2436D01*
X3542Y2436D01*
X3542Y2435D01*
X3541Y2435D01*
X3541Y2435D01*
X3541Y2434D01*
X3541Y2434D01*
X3541Y2433D01*
X3541Y2433D01*
X3541Y2432D01*
X3541Y2431D01*
Y2431D01*
Y2431D01*
X3541Y2431D01*
Y2431D01*
X3541Y2431D01*
X3541Y2430D01*
X3541Y2430D01*
X3541Y2430D01*
X3541Y2429D01*
X3541Y2429D01*
X3541Y2428D01*
X3542Y2428D01*
X3542Y2427D01*
X3542Y2427D01*
X3542Y2427D01*
X3542Y2426D01*
X3542Y2426D01*
X3542Y2426D01*
X3543Y2426D01*
X3543Y2426D01*
X3543Y2426D01*
X3543Y2426D01*
X3543Y2426D01*
X3543Y2425D01*
X3544Y2425D01*
X3544Y2425D01*
X3544Y2425D01*
X3545Y2425D01*
X3545Y2425D01*
X3545Y2425D01*
X3546Y2425D01*
X3546Y2425D01*
X3546D01*
X3546Y2425D01*
X3547D01*
X3547Y2425D01*
X3547Y2425D01*
X3547Y2425D01*
X3548Y2425D01*
X3548Y2425D01*
X3548Y2425D01*
X3549Y2425D01*
X3549Y2425D01*
X3549Y2425D01*
X3549Y2426D01*
X3550Y2426D01*
X3550Y2426D01*
X3550Y2426D01*
X3550Y2426D01*
X3550Y2426D01*
X3550Y2427D01*
X3550Y2427D01*
X3551Y2427D01*
X3551Y2427D01*
X3551Y2428D01*
X3551Y2428D01*
X3551Y2428D01*
X3551Y2429D01*
X3551Y2429D01*
X3551Y2430D01*
X3552Y2430D01*
X3552Y2431D01*
X3552Y2432D01*
Y2432D01*
Y2432D01*
Y2432D01*
Y2432D01*
X3552Y2432D01*
X3552Y2432D01*
X3552Y2433D01*
X3551Y2433D01*
X3551Y2434D01*
X3551Y2434D01*
X3551Y2434D01*
X3551Y2435D01*
X3551Y2435D01*
X3551Y2436D01*
X3551Y2436D01*
X3550Y2436D01*
X3550Y2437D01*
X3550Y2437D01*
X3550Y2437D01*
X3550Y2437D01*
X3550Y2437D01*
X3550Y2437D01*
X3549Y2437D01*
X3549Y2437D01*
X3549Y2438D01*
X3549Y2438D01*
X3548Y2438D01*
X3548Y2438D01*
X3548Y2438D01*
X3547Y2438D01*
X3547Y2438D01*
X3547Y2438D01*
X3546Y2438D01*
D02*
G37*
G36*
X3470D02*
X3470D01*
X3469Y2438D01*
X3469D01*
X3469Y2438D01*
X3469Y2438D01*
X3469Y2438D01*
X3468Y2438D01*
X3468Y2438D01*
X3468Y2438D01*
X3468Y2438D01*
X3467Y2438D01*
X3467Y2438D01*
X3467Y2437D01*
X3466Y2437D01*
X3466Y2437D01*
X3466Y2437D01*
X3466Y2437D01*
X3466Y2437D01*
X3466Y2436D01*
X3466Y2436D01*
X3466Y2436D01*
X3466Y2436D01*
X3465Y2436D01*
X3465Y2435D01*
X3465Y2435D01*
X3465Y2434D01*
X3465Y2434D01*
X3465Y2434D01*
X3465Y2433D01*
X3465Y2432D01*
X3465Y2432D01*
Y2432D01*
Y2432D01*
X3465Y2431D01*
Y2431D01*
X3465Y2431D01*
X3465Y2431D01*
X3465Y2430D01*
X3465Y2430D01*
X3465Y2429D01*
X3465Y2429D01*
X3465Y2429D01*
X3465Y2428D01*
X3466Y2428D01*
X3466Y2427D01*
X3466Y2427D01*
X3466Y2427D01*
X3466Y2427D01*
X3466Y2427D01*
X3466Y2426D01*
X3466Y2426D01*
X3467Y2426D01*
X3467Y2426D01*
X3467Y2426D01*
X3467Y2426D01*
X3467Y2426D01*
X3468Y2425D01*
X3468Y2425D01*
X3468Y2425D01*
X3469Y2425D01*
X3469Y2425D01*
X3469Y2425D01*
X3470Y2425D01*
X3470D01*
X3470Y2425D01*
X3470D01*
X3470Y2425D01*
X3470Y2425D01*
X3471Y2425D01*
X3471Y2425D01*
X3471Y2425D01*
X3472Y2425D01*
X3472Y2425D01*
X3472Y2426D01*
X3472Y2426D01*
X3473Y2426D01*
X3473Y2426D01*
X3473Y2427D01*
X3473Y2427D01*
X3473Y2427D01*
X3473Y2427D01*
X3474Y2427D01*
X3474Y2427D01*
X3474Y2427D01*
X3474Y2428D01*
X3474Y2428D01*
X3474Y2428D01*
X3474Y2429D01*
X3474Y2429D01*
X3474Y2429D01*
X3475Y2430D01*
X3475Y2430D01*
X3475Y2431D01*
X3475Y2432D01*
Y2432D01*
Y2432D01*
Y2432D01*
Y2432D01*
X3475Y2432D01*
X3475Y2433D01*
X3475Y2433D01*
X3475Y2433D01*
X3475Y2434D01*
X3474Y2434D01*
X3474Y2434D01*
X3474Y2435D01*
X3474Y2435D01*
X3474Y2436D01*
X3474Y2436D01*
X3473Y2436D01*
X3473Y2437D01*
X3473Y2437D01*
X3473Y2437D01*
X3473Y2437D01*
X3473Y2437D01*
X3473Y2437D01*
X3473Y2437D01*
X3472Y2437D01*
X3472Y2438D01*
X3472Y2438D01*
X3472Y2438D01*
X3471Y2438D01*
X3471Y2438D01*
X3471Y2438D01*
X3470Y2438D01*
X3470Y2438D01*
X3470Y2438D01*
D02*
G37*
G36*
X3349Y3076D02*
X3341D01*
Y3069D01*
X3341Y3069D01*
Y3069D01*
X3341Y3068D01*
X3341Y3068D01*
X3341Y3067D01*
X3341Y3067D01*
X3341Y3066D01*
X3341Y3066D01*
X3341Y3066D01*
Y3066D01*
X3341Y3066D01*
X3341Y3066D01*
X3341Y3066D01*
X3341Y3065D01*
X3341Y3065D01*
X3342Y3065D01*
X3342Y3064D01*
X3342Y3064D01*
X3343Y3064D01*
X3343D01*
X3343Y3064D01*
X3343Y3064D01*
X3343Y3064D01*
X3343Y3064D01*
X3343Y3063D01*
X3344Y3063D01*
X3344Y3063D01*
X3344Y3063D01*
X3345Y3063D01*
X3345D01*
X3345D01*
X3345D01*
X3345Y3063D01*
X3345Y3063D01*
X3345Y3063D01*
X3346Y3063D01*
X3346Y3063D01*
X3346Y3063D01*
X3347Y3064D01*
X3347Y3064D01*
X3347Y3064D01*
X3347Y3064D01*
X3347Y3064D01*
X3348Y3064D01*
X3348Y3064D01*
X3348Y3065D01*
X3348Y3065D01*
X3348Y3065D01*
X3348Y3065D01*
X3348Y3065D01*
X3348Y3065D01*
X3348Y3065D01*
X3348Y3066D01*
X3348Y3066D01*
X3349Y3066D01*
X3349Y3067D01*
X3349Y3067D01*
X3349Y3068D01*
X3349Y3068D01*
X3349Y3069D01*
Y3076D01*
D02*
G37*
G36*
X3331Y3053D02*
X3331D01*
X3331D01*
X3331D01*
X3331Y3053D01*
X3331Y3053D01*
X3331Y3053D01*
X3330Y3052D01*
X3330Y3052D01*
X3330Y3052D01*
X3329Y3052D01*
X3329Y3052D01*
Y3052D01*
X3329Y3052D01*
X3329Y3052D01*
X3329Y3052D01*
X3329Y3051D01*
X3329Y3051D01*
X3329Y3051D01*
X3329Y3051D01*
X3329Y3051D01*
X3329Y3051D01*
X3329Y3050D01*
X3329Y3050D01*
X3329Y3050D01*
X3329Y3050D01*
X3329Y3049D01*
X3329Y3049D01*
Y3049D01*
X3329Y3049D01*
Y3049D01*
X3329Y3048D01*
X3329Y3048D01*
X3329Y3048D01*
X3329Y3047D01*
X3329Y3047D01*
X3329Y3046D01*
X3329Y3046D01*
Y3046D01*
X3329Y3046D01*
X3329Y3046D01*
X3329Y3046D01*
X3329Y3045D01*
X3330Y3045D01*
X3330Y3045D01*
X3330Y3045D01*
X3331Y3044D01*
X3331Y3044D01*
X3331Y3044D01*
X3331D01*
X3331Y3044D01*
X3332Y3044D01*
X3332Y3044D01*
X3332Y3044D01*
X3332Y3044D01*
X3332Y3044D01*
X3332Y3044D01*
X3332Y3043D01*
X3333Y3043D01*
X3333Y3043D01*
X3333Y3043D01*
X3333Y3043D01*
X3334Y3043D01*
X3334Y3043D01*
X3335D01*
X3336D01*
Y3043D01*
X3336Y3043D01*
X3336Y3043D01*
X3336Y3044D01*
X3335Y3044D01*
X3335Y3044D01*
X3335Y3044D01*
X3335Y3045D01*
X3335Y3045D01*
X3335Y3045D01*
X3335Y3046D01*
X3335Y3046D01*
X3335Y3047D01*
X3335Y3047D01*
X3335Y3048D01*
X3334Y3048D01*
Y3048D01*
X3334Y3048D01*
Y3048D01*
X3334Y3049D01*
X3334Y3049D01*
X3334Y3049D01*
X3334Y3049D01*
X3334Y3050D01*
X3334Y3050D01*
X3334Y3051D01*
X3334Y3051D01*
X3334Y3051D01*
X3334Y3051D01*
X3334Y3051D01*
X3334Y3051D01*
X3334Y3051D01*
X3333Y3052D01*
X3333Y3052D01*
X3333Y3052D01*
X3333Y3052D01*
X3333Y3052D01*
X3333Y3052D01*
X3333Y3052D01*
X3332Y3052D01*
X3332Y3053D01*
X3332Y3053D01*
X3332Y3053D01*
X3331Y3053D01*
D02*
G37*
%LPD*%
D11*
X3020Y3063D02*
X3220D01*
Y3327D01*
X3020D02*
X3220D01*
X3020Y3063D02*
Y3327D01*
X3634Y4010D02*
X3696D01*
X3634Y3900D02*
Y4010D01*
Y3900D02*
X3696D01*
Y4010D01*
X3273Y3359D02*
X3349D01*
Y3511D01*
X3273D02*
X3349D01*
X3273Y3359D02*
Y3511D01*
X3344Y3232D02*
Y3338D01*
X3279Y3232D02*
X3344D01*
X3279D02*
Y3338D01*
X3344D01*
X3213Y2517D02*
X3567D01*
Y2313D02*
Y2517D01*
X3213Y2313D02*
X3567D01*
X3213D02*
Y2517D01*
X3534Y2643D02*
Y2707D01*
Y2643D02*
X3656D01*
Y2707D01*
X3534D02*
X3656D01*
X3407Y2960D02*
Y3200D01*
X3245Y2960D02*
X3407D01*
X3245D02*
Y3200D01*
X3407D01*
M02*
