solid CATIA STL
  facet normal  -0.000000e+000  1.000000e+000  0.000000e+000
    outer loop
      vertex  1.842970e+001  1.621414e+003  2.197091e+001
      vertex  1.941914e+000  1.621414e+003  2.204951e+001
      vertex  3.238435e+000  1.621414e+003  2.220033e+001
    endloop
  endfacet
  facet normal  0.000000e+000  1.000000e+000  -0.000000e+000
    outer loop
      vertex  1.157008e+001  1.621414e+003  1.807405e+001
      vertex  1.111043e+001  1.621414e+003 -1.236280e+001
      vertex -1.836496e+000  1.621414e+003  1.727640e+001
    endloop
  endfacet
  facet normal  0.000000e+000  1.000000e+000  0.000000e+000
    outer loop
      vertex  1.157008e+001  1.621414e+003  1.807405e+001
      vertex -1.836496e+000  1.621414e+003  1.727640e+001
      vertex -1.646603e+000  1.621414e+003  1.856777e+001
    endloop
  endfacet
  facet normal  -0.000000e+000  1.000000e+000  0.000000e+000
    outer loop
      vertex  1.157008e+001  1.621414e+003  1.807405e+001
      vertex -1.646603e+000  1.621414e+003  1.856777e+001
      vertex -1.128949e+000  1.621414e+003  1.976600e+001
    endloop
  endfacet
  facet normal  -0.000000e+000  1.000000e+000  0.000000e+000
    outer loop
      vertex  1.157008e+001  1.621414e+003  1.807405e+001
      vertex -1.128949e+000  1.621414e+003  1.976600e+001
      vertex -3.188099e-001  1.621414e+003  2.078941e+001
    endloop
  endfacet
  facet normal  -0.000000e+000  1.000000e+000  0.000000e+000
    outer loop
      vertex  1.157008e+001  1.621414e+003  1.807405e+001
      vertex -3.188099e-001  1.621414e+003  2.078941e+001
      vertex  7.286044e-001  1.621414e+003  2.156828e+001
    endloop
  endfacet
  facet normal  -0.000000e+000  9.999999e-001  0.000000e+000
    outer loop
      vertex  1.157008e+001  1.621414e+003  1.807405e+001
      vertex  7.286044e-001  1.621414e+003  2.156828e+001
      vertex  1.941914e+000  1.621414e+003  2.204951e+001
    endloop
  endfacet
  facet normal  0.000000e+000  1.000000e+000  0.000000e+000
    outer loop
      vertex  1.157008e+001  1.621414e+003  1.807405e+001
      vertex  1.941914e+000  1.621414e+003  2.204951e+001
      vertex  1.842970e+001  1.621414e+003  2.197091e+001
    endloop
  endfacet
  facet normal  0.000000e+000  1.000000e+000  0.000000e+000
    outer loop
      vertex  1.157008e+001  1.621414e+003  1.807405e+001
      vertex  1.842970e+001  1.621414e+003  2.197091e+001
      vertex  1.436976e+001  1.621414e+003  1.803177e+001
    endloop
  endfacet
  facet normal  0.000000e+000  1.000000e+000  -0.000000e+000
    outer loop
      vertex -2.581135e+001  1.621414e+003  1.863857e+001
      vertex -2.627100e+001  1.621414e+003 -1.179827e+001
      vertex -3.047052e+001  1.621414e+003 -1.173485e+001
    endloop
  endfacet
  facet normal  0.000000e+000  1.000000e+000  0.000000e+000
    outer loop
      vertex -2.581135e+001  1.621414e+003  1.863857e+001
      vertex -3.047052e+001  1.621414e+003 -1.173485e+001
      vertex -2.995047e+001  1.621414e+003  2.270154e+001
    endloop
  endfacet
  facet normal  0.000000e+000  9.999999e-001  0.000000e+000
    outer loop
      vertex -2.581135e+001  1.621414e+003  1.863857e+001
      vertex -2.995047e+001  1.621414e+003  2.270154e+001
      vertex -1.475951e+001  1.621414e+003  2.247213e+001
    endloop
  endfacet
  facet normal  0.000000e+000  1.000000e+000  0.000000e+000
    outer loop
      vertex -2.581135e+001  1.621414e+003  1.863857e+001
      vertex -1.475951e+001  1.621414e+003  2.247213e+001
      vertex -1.346814e+001  1.621414e+003  2.228223e+001
    endloop
  endfacet
  facet normal  0.000000e+000  1.000000e+000  0.000000e+000
    outer loop
      vertex -2.581135e+001  1.621414e+003  1.863857e+001
      vertex -1.346814e+001  1.621414e+003  2.228223e+001
      vertex -1.226991e+001  1.621414e+003  2.176458e+001
    endloop
  endfacet
  facet normal  0.000000e+000  9.999999e-001  0.000000e+000
    outer loop
      vertex -2.581135e+001  1.621414e+003  1.863857e+001
      vertex -1.226991e+001  1.621414e+003  2.176458e+001
      vertex -1.124650e+001  1.621414e+003  2.095444e+001
    endloop
  endfacet
  facet normal  0.000000e+000  1.000000e+000  0.000000e+000
    outer loop
      vertex -2.581135e+001  1.621414e+003  1.863857e+001
      vertex -1.124650e+001  1.621414e+003  2.095444e+001
      vertex -1.046763e+001  1.621414e+003  1.990703e+001
    endloop
  endfacet
  facet normal  0.000000e+000  1.000000e+000  0.000000e+000
    outer loop
      vertex -2.581135e+001  1.621414e+003  1.863857e+001
      vertex -1.046763e+001  1.621414e+003  1.990703e+001
      vertex -9.986394e+000  1.621414e+003  1.869372e+001
    endloop
  endfacet
  facet normal  0.000000e+000  1.000000e+000  0.000000e+000
    outer loop
      vertex -2.581135e+001  1.621414e+003  1.863857e+001
      vertex -9.986394e+000  1.621414e+003  1.869372e+001
      vertex -2.301167e+001  1.621414e+003  1.859629e+001
    endloop
  endfacet
  facet normal  0.000000e+000  1.000000e+000  0.000000e+000
    outer loop
      vertex  1.391011e+001  1.621414e+003 -1.240508e+001
      vertex  1.436976e+001  1.621414e+003  1.803177e+001
      vertex  1.790965e+001  1.621414e+003 -1.246548e+001
    endloop
  endfacet
  facet normal  0.000000e+000  1.000000e+000  -0.000000e+000
    outer loop
      vertex  1.790965e+001  1.621414e+003 -1.246548e+001
      vertex  1.436976e+001  1.621414e+003  1.803177e+001
      vertex  1.842970e+001  1.621414e+003  2.197091e+001
    endloop
  endfacet
  facet normal  0.000000e+000  1.000000e+000  0.000000e+000
    outer loop
      vertex -1.836496e+000  1.621414e+003  1.727640e+001
      vertex  1.111043e+001  1.621414e+003 -1.236280e+001
      vertex -1.987497e+000  1.621414e+003  7.277536e+000
    endloop
  endfacet
  facet normal  0.000000e+000  9.999999e-001  0.000000e+000
    outer loop
      vertex -1.987497e+000  1.621414e+003  7.277536e+000
      vertex  1.111043e+001  1.621414e+003 -1.236280e+001
      vertex -2.347132e+001  1.621414e+003 -1.184055e+001
    endloop
  endfacet
  facet normal  0.000000e+000  1.000000e+000  0.000000e+000
    outer loop
      vertex -1.987497e+000  1.621414e+003  7.277536e+000
      vertex -2.347132e+001  1.621414e+003 -1.184055e+001
      vertex -9.986585e+000  1.621414e+003  7.398336e+000
    endloop
  endfacet
  facet normal  0.000000e+000  1.000000e+000  0.000000e+000
    outer loop
      vertex -9.986585e+000  1.621414e+003  7.398336e+000
      vertex -2.347132e+001  1.621414e+003 -1.184055e+001
      vertex -9.835584e+000  1.621414e+003  1.739720e+001
    endloop
  endfacet
  facet normal  0.000000e+000  9.999999e-001  0.000000e+000
    outer loop
      vertex -9.835584e+000  1.621414e+003  1.739720e+001
      vertex -2.347132e+001  1.621414e+003 -1.184055e+001
      vertex -2.301167e+001  1.621414e+003  1.859629e+001
    endloop
  endfacet
  facet normal  -0.000000e+000  1.000000e+000  0.000000e+000
    outer loop
      vertex -9.835584e+000  1.621414e+003  1.739720e+001
      vertex -2.301167e+001  1.621414e+003  1.859629e+001
      vertex -9.986394e+000  1.621414e+003  1.869372e+001
    endloop
  endfacet
  facet normal  -0.000000e+000 -1.000000e+000  0.000000e+000
    outer loop
      vertex  7.910791e+000  1.611414e+003 -1.231448e+001
      vertex  8.430842e+000  1.611414e+003  2.212191e+001
      vertex  3.238435e+000  1.611414e+003  2.220033e+001
    endloop
  endfacet
  facet normal  0.000000e+000 -1.000000e+000  -0.000000e+000
    outer loop
      vertex  7.910791e+000  1.611414e+003 -1.231448e+001
      vertex  3.238435e+000  1.611414e+003  2.220033e+001
      vertex  1.941914e+000  1.611414e+003  2.204951e+001
    endloop
  endfacet
  facet normal  0.000000e+000 -1.000000e+000  -0.000000e+000
    outer loop
      vertex  7.910791e+000  1.611414e+003 -1.231448e+001
      vertex  1.941914e+000  1.611414e+003  2.204951e+001
      vertex  7.286044e-001  1.611414e+003  2.156828e+001
    endloop
  endfacet
  facet normal  0.000000e+000 -1.000000e+000  -0.000000e+000
    outer loop
      vertex  7.910791e+000  1.611414e+003 -1.231448e+001
      vertex  7.286044e-001  1.611414e+003  2.156828e+001
      vertex -3.188099e-001  1.611414e+003  2.078941e+001
    endloop
  endfacet
  facet normal  0.000000e+000 -1.000000e+000  -0.000000e+000
    outer loop
      vertex  7.910791e+000  1.611414e+003 -1.231448e+001
      vertex -3.188099e-001  1.611414e+003  2.078941e+001
      vertex -1.128949e+000  1.611414e+003  1.976600e+001
    endloop
  endfacet
  facet normal  0.000000e+000 -1.000000e+000  -0.000000e+000
    outer loop
      vertex  7.910791e+000  1.611414e+003 -1.231448e+001
      vertex -1.128949e+000  1.611414e+003  1.976600e+001
      vertex -1.646603e+000  1.611414e+003  1.856777e+001
    endloop
  endfacet
  facet normal  0.000000e+000 -1.000000e+000  -0.000000e+000
    outer loop
      vertex  7.910791e+000  1.611414e+003 -1.231448e+001
      vertex -1.646603e+000  1.611414e+003  1.856777e+001
      vertex -1.836496e+000  1.611414e+003  1.727640e+001
    endloop
  endfacet
  facet normal  0.000000e+000 -1.000000e+000  -0.000000e+000
    outer loop
      vertex  7.910791e+000  1.611414e+003 -1.231448e+001
      vertex -1.836496e+000  1.611414e+003  1.727640e+001
      vertex -1.987497e+000  1.611414e+003  7.277536e+000
    endloop
  endfacet
  facet normal  0.000000e+000 -1.000000e+000  -0.000000e+000
    outer loop
      vertex  7.910791e+000  1.611414e+003 -1.231448e+001
      vertex -1.987497e+000  1.611414e+003  7.277536e+000
      vertex -2.047166e+001  1.611414e+003 -1.188585e+001
    endloop
  endfacet
  facet normal  -0.000000e+000 -1.000000e+000  0.000000e+000
    outer loop
      vertex -2.047166e+001  1.611414e+003 -1.188585e+001
      vertex -1.987497e+000  1.611414e+003  7.277536e+000
      vertex -9.986585e+000  1.611414e+003  7.398336e+000
    endloop
  endfacet
  facet normal  -0.000000e+000 -1.000000e+000  0.000000e+000
    outer loop
      vertex -2.047166e+001  1.611414e+003 -1.188585e+001
      vertex -9.986585e+000  1.611414e+003  7.398336e+000
      vertex -9.835584e+000  1.611414e+003  1.739720e+001
    endloop
  endfacet
  facet normal  -0.000000e+000 -9.999999e-001  0.000000e+000
    outer loop
      vertex -2.047166e+001  1.611414e+003 -1.188585e+001
      vertex -9.835584e+000  1.611414e+003  1.739720e+001
      vertex -9.986394e+000  1.611414e+003  1.869372e+001
    endloop
  endfacet
  facet normal  -0.000000e+000 -1.000000e+000  0.000000e+000
    outer loop
      vertex -2.047166e+001  1.611414e+003 -1.188585e+001
      vertex -9.986394e+000  1.611414e+003  1.869372e+001
      vertex -1.046763e+001  1.611414e+003  1.990703e+001
    endloop
  endfacet
  facet normal  -0.000000e+000 -1.000000e+000  0.000000e+000
    outer loop
      vertex -2.047166e+001  1.611414e+003 -1.188585e+001
      vertex -1.046763e+001  1.611414e+003  1.990703e+001
      vertex -1.124650e+001  1.611414e+003  2.095444e+001
    endloop
  endfacet
  facet normal  -0.000000e+000 -1.000000e+000  0.000000e+000
    outer loop
      vertex -2.047166e+001  1.611414e+003 -1.188585e+001
      vertex -1.124650e+001  1.611414e+003  2.095444e+001
      vertex -1.226991e+001  1.611414e+003  2.176458e+001
    endloop
  endfacet
  facet normal  -0.000000e+000 -1.000000e+000  0.000000e+000
    outer loop
      vertex -2.047166e+001  1.611414e+003 -1.188585e+001
      vertex -1.226991e+001  1.611414e+003  2.176458e+001
      vertex -1.346814e+001  1.611414e+003  2.228223e+001
    endloop
  endfacet
  facet normal  -0.000000e+000 -9.999999e-001  0.000000e+000
    outer loop
      vertex -2.047166e+001  1.611414e+003 -1.188585e+001
      vertex -1.346814e+001  1.611414e+003  2.228223e+001
      vertex -1.475951e+001  1.611414e+003  2.247213e+001
    endloop
  endfacet
  facet normal  -0.000000e+000 -9.999999e-001  0.000000e+000
    outer loop
      vertex -2.047166e+001  1.611414e+003 -1.188585e+001
      vertex -1.475951e+001  1.611414e+003  2.247213e+001
      vertex -1.995161e+001  1.611414e+003  2.255054e+001
    endloop
  endfacet
  facet normal -9.998860e-001  0.000000e+000  1.510009e-002
    outer loop
      vertex -1.836496e+000  1.611414e+003  1.727640e+001
      vertex -1.987497e+000  1.615584e+003  7.277536e+000
      vertex -1.987497e+000  1.611414e+003  7.277536e+000
    endloop
  endfacet
  facet normal -9.998860e-001 -8.694525e-008  1.510005e-002
    outer loop
      vertex -1.987497e+000  1.615584e+003  7.277536e+000
      vertex -1.836496e+000  1.611414e+003  1.727640e+001
      vertex -1.979046e+000  1.615584e+003  7.837154e+000
    endloop
  endfacet
  facet normal -9.998860e-001  0.000000e+000  1.510009e-002
    outer loop
      vertex -1.979046e+000  1.615584e+003  7.837154e+000
      vertex -1.836496e+000  1.611414e+003  1.727640e+001
      vertex -1.836496e+000  1.621414e+003  1.727640e+001
    endloop
  endfacet
  facet normal -9.998860e-001  0.000000e+000  1.510009e-002
    outer loop
      vertex -1.979046e+000  1.615584e+003  7.837154e+000
      vertex -1.836496e+000  1.621414e+003  1.727640e+001
      vertex -1.979046e+000  1.619337e+003  7.837154e+000
    endloop
  endfacet
  facet normal -9.998860e-001  1.304308e-008  1.510009e-002
    outer loop
      vertex -1.979046e+000  1.619337e+003  7.837154e+000
      vertex -1.836496e+000  1.621414e+003  1.727640e+001
      vertex -1.987497e+000  1.621414e+003  7.277536e+000
    endloop
  endfacet
  facet normal -9.998860e-001  0.000000e+000  1.510004e-002
    outer loop
      vertex -1.979046e+000  1.619337e+003  7.837154e+000
      vertex -1.987497e+000  1.621414e+003  7.277536e+000
      vertex -1.987497e+000  1.619337e+003  7.277536e+000
    endloop
  endfacet
  facet normal  1.510012e-002  0.000000e+000  9.998860e-001
    outer loop
      vertex  3.238435e+000  1.611414e+003  2.220033e+001
      vertex  8.430842e+000  1.611414e+003  2.212191e+001
      vertex  3.238435e+000  1.621414e+003  2.220033e+001
    endloop
  endfacet
  facet normal  1.510011e-002 -7.803325e-009  9.998860e-001
    outer loop
      vertex  3.238435e+000  1.621414e+003  2.220033e+001
      vertex  8.430842e+000  1.611414e+003  2.212191e+001
      vertex  1.842970e+001  1.621414e+003  2.197091e+001
    endloop
  endfacet
  facet normal -1.155402e-001  0.000000e+000  9.933028e-001
    outer loop
      vertex  3.238435e+000  1.611414e+003  2.220033e+001
      vertex  3.238435e+000  1.621414e+003  2.220033e+001
      vertex  1.941914e+000  1.611414e+003  2.204951e+001
    endloop
  endfacet
  facet normal -1.155402e-001  0.000000e+000  9.933028e-001
    outer loop
      vertex  1.941914e+000  1.611414e+003  2.204951e+001
      vertex  3.238435e+000  1.621414e+003  2.220033e+001
      vertex  1.941914e+000  1.621414e+003  2.204951e+001
    endloop
  endfacet
  facet normal -3.686889e-001  0.000000e+000  9.295529e-001
    outer loop
      vertex  1.941914e+000  1.611414e+003  2.204951e+001
      vertex  1.941914e+000  1.621414e+003  2.204951e+001
      vertex  7.286044e-001  1.611414e+003  2.156828e+001
    endloop
  endfacet
  facet normal -3.686889e-001  0.000000e+000  9.295529e-001
    outer loop
      vertex  7.286044e-001  1.611414e+003  2.156828e+001
      vertex  1.941914e+000  1.621414e+003  2.204951e+001
      vertex  7.286044e-001  1.621414e+003  2.156828e+001
    endloop
  endfacet
  facet normal -5.967123e-001  0.000000e+000  8.024553e-001
    outer loop
      vertex  7.286044e-001  1.611414e+003  2.156828e+001
      vertex  7.286044e-001  1.621414e+003  2.156828e+001
      vertex -3.188099e-001  1.611414e+003  2.078941e+001
    endloop
  endfacet
  facet normal -5.967123e-001  0.000000e+000  8.024553e-001
    outer loop
      vertex -3.188099e-001  1.611414e+003  2.078941e+001
      vertex  7.286044e-001  1.621414e+003  2.156828e+001
      vertex -3.188099e-001  1.621414e+003  2.078941e+001
    endloop
  endfacet
  facet normal -7.840708e-001  0.000000e+000  6.206713e-001
    outer loop
      vertex -3.188099e-001  1.611414e+003  2.078941e+001
      vertex -3.188099e-001  1.621414e+003  2.078941e+001
      vertex -1.128949e+000  1.611414e+003  1.976600e+001
    endloop
  endfacet
  facet normal -7.840708e-001  0.000000e+000  6.206713e-001
    outer loop
      vertex -1.128949e+000  1.611414e+003  1.976600e+001
      vertex -3.188099e-001  1.621414e+003  2.078941e+001
      vertex -1.128949e+000  1.621414e+003  1.976600e+001
    endloop
  endfacet
  facet normal -9.179956e-001  0.000000e+000  3.965904e-001
    outer loop
      vertex -1.128949e+000  1.611414e+003  1.976600e+001
      vertex -1.128949e+000  1.621414e+003  1.976600e+001
      vertex -1.646603e+000  1.611414e+003  1.856777e+001
    endloop
  endfacet
  facet normal -9.179956e-001  0.000000e+000  3.965904e-001
    outer loop
      vertex -1.646603e+000  1.611414e+003  1.856777e+001
      vertex -1.128949e+000  1.621414e+003  1.976600e+001
      vertex -1.646603e+000  1.621414e+003  1.856777e+001
    endloop
  endfacet
  facet normal -9.893608e-001  0.000000e+000  1.454823e-001
    outer loop
      vertex -1.646603e+000  1.611414e+003  1.856777e+001
      vertex -1.646603e+000  1.621414e+003  1.856777e+001
      vertex -1.836496e+000  1.611414e+003  1.727640e+001
    endloop
  endfacet
  facet normal -9.893608e-001  0.000000e+000  1.454823e-001
    outer loop
      vertex -1.836496e+000  1.611414e+003  1.727640e+001
      vertex -1.646603e+000  1.621414e+003  1.856777e+001
      vertex -1.836496e+000  1.621414e+003  1.727640e+001
    endloop
  endfacet
  facet normal  9.998860e-001  0.000000e+000 -1.510010e-002
    outer loop
      vertex -9.835584e+000  1.621414e+003  1.739720e+001
      vertex -9.986585e+000  1.619125e+003  7.398336e+000
      vertex -9.986585e+000  1.621414e+003  7.398336e+000
    endloop
  endfacet
  facet normal  9.998860e-001  1.537911e-006 -1.510045e-002
    outer loop
      vertex -9.986585e+000  1.619125e+003  7.398336e+000
      vertex -9.835584e+000  1.621414e+003  1.739720e+001
      vertex -9.978133e+000  1.619125e+003  7.957955e+000
    endloop
  endfacet
  facet normal  9.998860e-001  0.000000e+000 -1.510008e-002
    outer loop
      vertex -9.978133e+000  1.619125e+003  7.957955e+000
      vertex -9.835584e+000  1.621414e+003  1.739720e+001
      vertex -9.835584e+000  1.611414e+003  1.739720e+001
    endloop
  endfacet
  facet normal  9.998860e-001  0.000000e+000 -1.510008e-002
    outer loop
      vertex -9.978133e+000  1.619125e+003  7.957955e+000
      vertex -9.835584e+000  1.611414e+003  1.739720e+001
      vertex -9.978133e+000  1.615796e+003  7.957955e+000
    endloop
  endfacet
  facet normal  9.998860e-001 -4.496376e-008 -1.510010e-002
    outer loop
      vertex -9.978133e+000  1.615796e+003  7.957955e+000
      vertex -9.835584e+000  1.611414e+003  1.739720e+001
      vertex -9.986585e+000  1.611414e+003  7.398336e+000
    endloop
  endfacet
  facet normal  9.998859e-001  0.000000e+000 -1.510045e-002
    outer loop
      vertex -9.978133e+000  1.615796e+003  7.957955e+000
      vertex -9.986585e+000  1.611414e+003  7.398336e+000
      vertex -9.986585e+000  1.615796e+003  7.398336e+000
    endloop
  endfacet
  facet normal  1.510030e-002  1.992427e-007  9.998860e-001
    outer loop
      vertex -1.995161e+001  1.611414e+003  2.255054e+001
      vertex -1.475951e+001  1.611414e+003  2.247213e+001
      vertex -2.995047e+001  1.621414e+003  2.270154e+001
    endloop
  endfacet
  facet normal  1.510017e-002  0.000000e+000  9.998860e-001
    outer loop
      vertex -2.995047e+001  1.621414e+003  2.270154e+001
      vertex -1.475951e+001  1.611414e+003  2.247213e+001
      vertex -1.475951e+001  1.621414e+003  2.247213e+001
    endloop
  endfacet
  facet normal  1.454819e-001  -0.000000e+000  9.893609e-001
    outer loop
      vertex -1.475951e+001  1.621414e+003  2.247213e+001
      vertex -1.475951e+001  1.611414e+003  2.247213e+001
      vertex -1.346814e+001  1.621414e+003  2.228223e+001
    endloop
  endfacet
  facet normal  1.454819e-001  0.000000e+000  9.893609e-001
    outer loop
      vertex -1.346814e+001  1.621414e+003  2.228223e+001
      vertex -1.475951e+001  1.611414e+003  2.247213e+001
      vertex -1.346814e+001  1.611414e+003  2.228223e+001
    endloop
  endfacet
  facet normal  3.965904e-001  -0.000000e+000  9.179956e-001
    outer loop
      vertex -1.346814e+001  1.621414e+003  2.228223e+001
      vertex -1.346814e+001  1.611414e+003  2.228223e+001
      vertex -1.226991e+001  1.621414e+003  2.176458e+001
    endloop
  endfacet
  facet normal  3.965904e-001  0.000000e+000  9.179956e-001
    outer loop
      vertex -1.226991e+001  1.621414e+003  2.176458e+001
      vertex -1.346814e+001  1.611414e+003  2.228223e+001
      vertex -1.226991e+001  1.611414e+003  2.176458e+001
    endloop
  endfacet
  facet normal  6.206715e-001  -0.000000e+000  7.840707e-001
    outer loop
      vertex -1.226991e+001  1.621414e+003  2.176458e+001
      vertex -1.226991e+001  1.611414e+003  2.176458e+001
      vertex -1.124650e+001  1.621414e+003  2.095444e+001
    endloop
  endfacet
  facet normal  6.206715e-001  0.000000e+000  7.840707e-001
    outer loop
      vertex -1.124650e+001  1.621414e+003  2.095444e+001
      vertex -1.226991e+001  1.611414e+003  2.176458e+001
      vertex -1.124650e+001  1.611414e+003  2.095444e+001
    endloop
  endfacet
  facet normal  8.024554e-001  -0.000000e+000  5.967121e-001
    outer loop
      vertex -1.124650e+001  1.621414e+003  2.095444e+001
      vertex -1.124650e+001  1.611414e+003  2.095444e+001
      vertex -1.046763e+001  1.621414e+003  1.990703e+001
    endloop
  endfacet
  facet normal  8.024554e-001  0.000000e+000  5.967121e-001
    outer loop
      vertex -1.046763e+001  1.621414e+003  1.990703e+001
      vertex -1.124650e+001  1.611414e+003  2.095444e+001
      vertex -1.046763e+001  1.611414e+003  1.990703e+001
    endloop
  endfacet
  facet normal  9.295526e-001  -0.000000e+000  3.686894e-001
    outer loop
      vertex -1.046763e+001  1.621414e+003  1.990703e+001
      vertex -1.046763e+001  1.611414e+003  1.990703e+001
      vertex -9.986394e+000  1.621414e+003  1.869372e+001
    endloop
  endfacet
  facet normal  9.295526e-001  0.000000e+000  3.686894e-001
    outer loop
      vertex -9.986394e+000  1.621414e+003  1.869372e+001
      vertex -1.046763e+001  1.611414e+003  1.990703e+001
      vertex -9.986394e+000  1.611414e+003  1.869372e+001
    endloop
  endfacet
  facet normal  9.933028e-001  -0.000000e+000  1.155402e-001
    outer loop
      vertex -9.986394e+000  1.621414e+003  1.869372e+001
      vertex -9.986394e+000  1.611414e+003  1.869372e+001
      vertex -9.835584e+000  1.621414e+003  1.739720e+001
    endloop
  endfacet
  facet normal  9.933028e-001  0.000000e+000  1.155402e-001
    outer loop
      vertex -9.835584e+000  1.621414e+003  1.739720e+001
      vertex -9.986394e+000  1.611414e+003  1.869372e+001
      vertex -9.835584e+000  1.611414e+003  1.739720e+001
    endloop
  endfacet
  facet normal  1.754158e-001 -9.844909e-001 -2.649087e-003
    outer loop
      vertex -1.987497e+000  1.619337e+003  7.277536e+000
      vertex -1.287939e+000  1.619461e+003  7.826717e+000
      vertex -1.979046e+000  1.619337e+003  7.837154e+000
    endloop
  endfacet
  facet normal  1.950551e-001  9.807898e-001 -2.230357e-003
    outer loop
      vertex -1.589940e+000  1.615461e+003 -1.217100e+001
      vertex -2.355220e+000  1.615613e+003 -1.215944e+001
      vertex -1.987497e+000  1.615584e+003  7.277536e+000
    endloop
  endfacet
  facet normal  5.555361e-001  8.314407e-001 -9.272503e-003
    outer loop
      vertex -1.987497e+000  1.615584e+003  7.277536e+000
      vertex -2.355220e+000  1.615613e+003 -1.215944e+001
      vertex -3.003993e+000  1.616046e+003 -1.214965e+001
    endloop
  endfacet
  facet normal  5.276473e-001  8.494315e-001 -7.384941e-003
    outer loop
      vertex -1.987497e+000  1.615584e+003  7.277536e+000
      vertex -3.003993e+000  1.616046e+003 -1.214965e+001
      vertex -2.672402e+000  1.616009e+003  7.287879e+000
    endloop
  endfacet
  facet normal  8.313492e-001  5.555956e-001 -1.312503e-002
    outer loop
      vertex -2.672402e+000  1.616009e+003  7.287879e+000
      vertex -3.003993e+000  1.616046e+003 -1.214965e+001
      vertex -3.437489e+000  1.616695e+003 -1.214310e+001
    endloop
  endfacet
  facet normal  8.201302e-001  5.720491e-001 -1.210258e-002
    outer loop
      vertex -2.672402e+000  1.616009e+003  7.287879e+000
      vertex -3.437489e+000  1.616695e+003 -1.214310e+001
      vertex -3.133616e+000  1.616671e+003  7.294845e+000
    endloop
  endfacet
  facet normal  9.806700e-001  1.950869e-001 -1.508575e-002
    outer loop
      vertex -3.133616e+000  1.616671e+003  7.294845e+000
      vertex -3.437489e+000  1.616695e+003 -1.214310e+001
      vertex -3.589712e+000  1.617461e+003 -1.214080e+001
    endloop
  endfacet
  facet normal  9.793552e-001  2.016049e-001 -1.479003e-002
    outer loop
      vertex -3.133616e+000  1.616671e+003  7.294845e+000
      vertex -3.589712e+000  1.617461e+003 -1.214080e+001
      vertex -3.296162e+000  1.617461e+003  7.297299e+000
    endloop
  endfacet
  facet normal  9.806742e-001 -1.950869e-001 -1.480995e-002
    outer loop
      vertex -3.296162e+000  1.617461e+003  7.297299e+000
      vertex -3.589712e+000  1.617461e+003 -1.214080e+001
      vertex -3.437489e+000  1.618226e+003 -1.214310e+001
    endloop
  endfacet
  facet normal  9.793574e-001 -2.015750e-001 -1.505582e-002
    outer loop
      vertex -3.296162e+000  1.617461e+003  7.297299e+000
      vertex -3.437489e+000  1.618226e+003 -1.214310e+001
      vertex -3.133616e+000  1.618250e+003  7.294845e+000
    endloop
  endfacet
  facet normal  8.314100e-001 -5.555233e-001 -1.229618e-002
    outer loop
      vertex -3.133616e+000  1.618250e+003  7.294845e+000
      vertex -3.437489e+000  1.618226e+003 -1.214310e+001
      vertex -3.003993e+000  1.618875e+003 -1.214965e+001
    endloop
  endfacet
  facet normal  8.201180e-001 -5.720490e-001 -1.290212e-002
    outer loop
      vertex -3.133616e+000  1.618250e+003  7.294845e+000
      vertex -3.003993e+000  1.618875e+003 -1.214965e+001
      vertex -2.672402e+000  1.618912e+003  7.287879e+000
    endloop
  endfacet
  facet normal  5.554489e-001 -8.315132e-001 -7.893314e-003
    outer loop
      vertex -2.672402e+000  1.618912e+003  7.287879e+000
      vertex -3.003993e+000  1.618875e+003 -1.214965e+001
      vertex -2.355220e+000  1.619308e+003 -1.215944e+001
    endloop
  endfacet
  facet normal  5.276272e-001 -8.494313e-001 -8.712388e-003
    outer loop
      vertex -2.672402e+000  1.618912e+003  7.287879e+000
      vertex -2.355220e+000  1.619308e+003 -1.215944e+001
      vertex -1.987497e+000  1.619337e+003  7.277536e+000
    endloop
  endfacet
  facet normal  1.950552e-001 -9.807898e-001 -2.224199e-003
    outer loop
      vertex -1.987497e+000  1.619337e+003  7.277536e+000
      vertex -2.355220e+000  1.619308e+003 -1.215944e+001
      vertex -1.589940e+000  1.619461e+003 -1.217100e+001
    endloop
  endfacet
  facet normal  1.754158e-001 -9.844909e-001 -2.649096e-003
    outer loop
      vertex -1.987497e+000  1.619337e+003  7.277536e+000
      vertex -1.589940e+000  1.619461e+003 -1.217100e+001
      vertex -1.287939e+000  1.619461e+003  7.826717e+000
    endloop
  endfacet
  facet normal  1.755843e-001  9.844608e-001 -2.651640e-003
    outer loop
      vertex -1.589940e+000  1.615461e+003 -1.217100e+001
      vertex -1.987497e+000  1.615584e+003  7.277536e+000
      vertex -1.287939e+000  1.615461e+003  7.826717e+000
    endloop
  endfacet
  facet normal  1.755843e-001  9.844608e-001 -2.651632e-003
    outer loop
      vertex -1.287939e+000  1.615461e+003  7.826717e+000
      vertex -1.987497e+000  1.615584e+003  7.277536e+000
      vertex -1.979046e+000  1.615584e+003  7.837154e+000
    endloop
  endfacet
  facet normal -1.510016e-002  -0.000000e+000 -9.998859e-001
    outer loop
      vertex -1.979046e+000  1.615584e+003  7.837154e+000
      vertex -1.979046e+000  1.619337e+003  7.837154e+000
      vertex -1.287939e+000  1.615461e+003  7.826717e+000
    endloop
  endfacet
  facet normal -1.510016e-002  0.000000e+000 -9.998860e-001
    outer loop
      vertex -1.287939e+000  1.615461e+003  7.826717e+000
      vertex -1.979046e+000  1.619337e+003  7.837154e+000
      vertex -1.287939e+000  1.619461e+003  7.826717e+000
    endloop
  endfacet
  facet normal -1.510008e-002  -0.000000e+000 -9.998860e-001
    outer loop
      vertex -1.287939e+000  1.615461e+003  7.826717e+000
      vertex -1.287939e+000  1.619461e+003  7.826717e+000
      vertex -5.226592e-001  1.615613e+003  7.815160e+000
    endloop
  endfacet
  facet normal -1.510008e-002  0.000000e+000 -9.998859e-001
    outer loop
      vertex -5.226592e-001  1.615613e+003  7.815160e+000
      vertex -1.287939e+000  1.619461e+003  7.826717e+000
      vertex -5.226592e-001  1.619308e+003  7.815160e+000
    endloop
  endfacet
  facet normal -1.509998e-002  -0.000000e+000 -9.998859e-001
    outer loop
      vertex -5.226592e-001  1.615613e+003  7.815160e+000
      vertex -5.226592e-001  1.619308e+003  7.815160e+000
      vertex  1.261135e-001  1.616046e+003  7.805363e+000
    endloop
  endfacet
  facet normal -1.509998e-002  0.000000e+000 -9.998860e-001
    outer loop
      vertex  1.261135e-001  1.616046e+003  7.805363e+000
      vertex -5.226592e-001  1.619308e+003  7.815160e+000
      vertex  1.261135e-001  1.618875e+003  7.805363e+000
    endloop
  endfacet
  facet normal -1.509991e-002  -0.000000e+000 -9.998860e-001
    outer loop
      vertex  1.261135e-001  1.616046e+003  7.805363e+000
      vertex  1.261135e-001  1.618875e+003  7.805363e+000
      vertex  5.596097e-001  1.616695e+003  7.798816e+000
    endloop
  endfacet
  facet normal -1.509991e-002  0.000000e+000 -9.998860e-001
    outer loop
      vertex  5.596097e-001  1.616695e+003  7.798816e+000
      vertex  1.261135e-001  1.618875e+003  7.805363e+000
      vertex  5.596097e-001  1.618226e+003  7.798816e+000
    endloop
  endfacet
  facet normal -1.509996e-002  -0.000000e+000 -9.998860e-001
    outer loop
      vertex  5.596097e-001  1.616695e+003  7.798816e+000
      vertex  5.596097e-001  1.618226e+003  7.798816e+000
      vertex  7.118332e-001  1.617461e+003  7.796517e+000
    endloop
  endfacet
  facet normal -8.313267e-001  5.555940e-001  1.453213e-002
    outer loop
      vertex -9.541275e+000  1.616695e+003 -1.205092e+001
      vertex -9.974771e+000  1.616046e+003 -1.204438e+001
      vertex -9.433455e+000  1.616348e+003  7.389983e+000
    endloop
  endfacet
  facet normal -9.235875e-001  3.832008e-001  1.196528e-002
    outer loop
      vertex -9.134035e+000  1.617070e+003  7.385462e+000
      vertex -9.541275e+000  1.616695e+003 -1.205092e+001
      vertex -9.433455e+000  1.616348e+003  7.389983e+000
    endloop
  endfacet
  facet normal -9.806424e-001  1.950865e-001  1.678659e-002
    outer loop
      vertex -9.389051e+000  1.617461e+003 -1.205322e+001
      vertex -9.541275e+000  1.616695e+003 -1.205092e+001
      vertex -9.134035e+000  1.617070e+003  7.385462e+000
    endloop
  endfacet
  facet normal -9.999139e-001  0.000000e+000  1.311788e-002
    outer loop
      vertex -9.134035e+000  1.617851e+003  7.385462e+000
      vertex -9.389051e+000  1.617461e+003 -1.205322e+001
      vertex -9.134035e+000  1.617070e+003  7.385462e+000
    endloop
  endfacet
  facet normal -9.806424e-001 -1.950865e-001  1.678659e-002
    outer loop
      vertex -9.134035e+000  1.617851e+003  7.385462e+000
      vertex -9.541275e+000  1.618226e+003 -1.205092e+001
      vertex -9.389051e+000  1.617461e+003 -1.205322e+001
    endloop
  endfacet
  facet normal -9.235875e-001 -3.832008e-001  1.196528e-002
    outer loop
      vertex -9.541275e+000  1.618226e+003 -1.205092e+001
      vertex -9.134035e+000  1.617851e+003  7.385462e+000
      vertex -9.433455e+000  1.618573e+003  7.389983e+000
    endloop
  endfacet
  facet normal -8.313750e-001 -5.555218e-001  1.453111e-002
    outer loop
      vertex -9.433455e+000  1.618573e+003  7.389983e+000
      vertex -9.974771e+000  1.618875e+003 -1.204438e+001
      vertex -9.541275e+000  1.618226e+003 -1.205092e+001
    endloop
  endfacet
  facet normal -7.062145e-001  7.079447e-001  8.682722e-003
    outer loop
      vertex -9.986585e+000  1.615796e+003  7.398336e+000
      vertex -9.433455e+000  1.616348e+003  7.389983e+000
      vertex -9.974771e+000  1.616046e+003 -1.204438e+001
    endloop
  endfacet
  facet normal -5.555184e-001  8.314396e-001  1.036378e-002
    outer loop
      vertex -9.986585e+000  1.615796e+003  7.398336e+000
      vertex -9.974771e+000  1.616046e+003 -1.204438e+001
      vertex -1.062354e+001  1.615613e+003 -1.203458e+001
    endloop
  endfacet
  facet normal -4.275288e-001  9.039851e-001  5.484150e-003
    outer loop
      vertex -9.986585e+000  1.615796e+003  7.398336e+000
      vertex -1.062354e+001  1.615613e+003 -1.203458e+001
      vertex -1.050766e+001  1.615546e+003  7.965952e+000
    endloop
  endfacet
  facet normal -4.266741e-001  9.043825e-001  6.443705e-003
    outer loop
      vertex -9.986585e+000  1.615796e+003  7.398336e+000
      vertex -1.050766e+001  1.615546e+003  7.965952e+000
      vertex -9.978133e+000  1.615796e+003  7.957955e+000
    endloop
  endfacet
  facet normal -4.265036e-001 -9.044629e-001  6.441130e-003
    outer loop
      vertex -9.986585e+000  1.619125e+003  7.398336e+000
      vertex -9.978133e+000  1.619125e+003  7.957955e+000
      vertex -1.050766e+001  1.619375e+003  7.965952e+000
    endloop
  endfacet
  facet normal -4.273568e-001 -9.040664e-001  5.483424e-003
    outer loop
      vertex -9.986585e+000  1.619125e+003  7.398336e+000
      vertex -1.050766e+001  1.619375e+003  7.965952e+000
      vertex -1.062354e+001  1.619308e+003 -1.203458e+001
    endloop
  endfacet
  facet normal -5.554102e-001 -8.315119e-001  1.036477e-002
    outer loop
      vertex -9.986585e+000  1.619125e+003  7.398336e+000
      vertex -1.062354e+001  1.619308e+003 -1.203458e+001
      vertex -9.974771e+000  1.618875e+003 -1.204438e+001
    endloop
  endfacet
  facet normal -7.062929e-001 -7.078665e-001  8.681672e-003
    outer loop
      vertex -9.986585e+000  1.619125e+003  7.398336e+000
      vertex -9.974771e+000  1.618875e+003 -1.204438e+001
      vertex -9.433455e+000  1.618573e+003  7.389983e+000
    endloop
  endfacet
  facet normal -1.950223e-001  9.807890e-001  4.392429e-003
    outer loop
      vertex -1.062354e+001  1.615613e+003 -1.203458e+001
      vertex -1.138882e+001  1.615461e+003 -1.202302e+001
      vertex -1.050766e+001  1.615546e+003  7.965952e+000
    endloop
  endfacet
  facet normal -1.463336e-001  9.892329e-001  2.209903e-003
    outer loop
      vertex -1.050766e+001  1.615546e+003  7.965952e+000
      vertex -1.138882e+001  1.615461e+003 -1.202302e+001
      vertex -1.108682e+001  1.615461e+003  7.974699e+000
    endloop
  endfacet
  facet normal -1.950443e-001 -9.807900e-001  2.945524e-003
    outer loop
      vertex -1.138882e+001  1.619461e+003 -1.202302e+001
      vertex -1.062354e+001  1.619308e+003 -1.203458e+001
      vertex -1.108682e+001  1.619461e+003  7.974699e+000
    endloop
  endfacet
  facet normal -1.463042e-001 -9.892310e-001  4.138226e-003
    outer loop
      vertex -1.108682e+001  1.619461e+003  7.974699e+000
      vertex -1.062354e+001  1.619308e+003 -1.203458e+001
      vertex -1.050766e+001  1.619375e+003  7.965952e+000
    endloop
  endfacet
  facet normal -1.509972e-002  0.000000e+000 -9.998860e-001
    outer loop
      vertex -9.978133e+000  1.619125e+003  7.957955e+000
      vertex -9.978133e+000  1.615796e+003  7.957955e+000
      vertex -1.050766e+001  1.619375e+003  7.965952e+000
    endloop
  endfacet
  facet normal -1.509972e-002  -0.000000e+000 -9.998861e-001
    outer loop
      vertex -1.050766e+001  1.619375e+003  7.965952e+000
      vertex -9.978133e+000  1.615796e+003  7.957955e+000
      vertex -1.050766e+001  1.615546e+003  7.965952e+000
    endloop
  endfacet
  facet normal -1.510039e-002  0.000000e+000 -9.998860e-001
    outer loop
      vertex -1.050766e+001  1.619375e+003  7.965952e+000
      vertex -1.050766e+001  1.615546e+003  7.965952e+000
      vertex -1.108682e+001  1.619461e+003  7.974699e+000
    endloop
  endfacet
  facet normal -1.510039e-002  -0.000000e+000 -9.998860e-001
    outer loop
      vertex -1.108682e+001  1.619461e+003  7.974699e+000
      vertex -1.050766e+001  1.615546e+003  7.965952e+000
      vertex -1.108682e+001  1.615461e+003  7.974699e+000
    endloop
  endfacet
  facet normal -1.510008e-002  0.000000e+000 -9.998860e-001
    outer loop
      vertex -1.108682e+001  1.619461e+003  7.974699e+000
      vertex -1.108682e+001  1.615461e+003  7.974699e+000
      vertex -1.185210e+001  1.619308e+003  7.986256e+000
    endloop
  endfacet
  facet normal -1.510008e-002  -0.000000e+000 -9.998859e-001
    outer loop
      vertex -1.185210e+001  1.619308e+003  7.986256e+000
      vertex -1.108682e+001  1.615461e+003  7.974699e+000
      vertex -1.185210e+001  1.615613e+003  7.986256e+000
    endloop
  endfacet
  facet normal -1.509999e-002  0.000000e+000 -9.998859e-001
    outer loop
      vertex -1.185210e+001  1.619308e+003  7.986256e+000
      vertex -1.185210e+001  1.615613e+003  7.986256e+000
      vertex -1.250087e+001  1.618875e+003  7.996053e+000
    endloop
  endfacet
  facet normal -1.509999e-002  -0.000000e+000 -9.998860e-001
    outer loop
      vertex -1.250087e+001  1.618875e+003  7.996053e+000
      vertex -1.185210e+001  1.615613e+003  7.986256e+000
      vertex -1.250087e+001  1.616046e+003  7.996053e+000
    endloop
  endfacet
  facet normal -1.509989e-002  0.000000e+000 -9.998860e-001
    outer loop
      vertex -1.250087e+001  1.618875e+003  7.996053e+000
      vertex -1.250087e+001  1.616046e+003  7.996053e+000
      vertex -1.293437e+001  1.618226e+003  8.002600e+000
    endloop
  endfacet
  facet normal -1.509990e-002  -0.000000e+000 -9.998861e-001
    outer loop
      vertex -1.293437e+001  1.618226e+003  8.002600e+000
      vertex -1.250087e+001  1.616046e+003  7.996053e+000
      vertex -1.293437e+001  1.616695e+003  8.002600e+000
    endloop
  endfacet
  facet normal -1.510309e-002  0.000000e+000 -9.998859e-001
    outer loop
      vertex -1.293437e+001  1.618226e+003  8.002600e+000
      vertex -1.293437e+001  1.616695e+003  8.002600e+000
      vertex -1.308659e+001  1.617461e+003  8.004899e+000
    endloop
  endfacet
  facet normal  1.509996e-002 -7.276659e-008  9.998859e-001
    outer loop
      vertex -1.987497e+000  1.611414e+003  7.277536e+000
      vertex -2.672402e+000  1.616009e+003  7.287879e+000
      vertex -3.133616e+000  1.616671e+003  7.294845e+000
    endloop
  endfacet
  facet normal  1.510045e-002  0.000000e+000  9.998860e-001
    outer loop
      vertex -1.987497e+000  1.611414e+003  7.277536e+000
      vertex -1.987497e+000  1.615584e+003  7.277536e+000
      vertex -2.672402e+000  1.616009e+003  7.287879e+000
    endloop
  endfacet
  facet normal  1.510012e-002  5.951214e-007  9.998860e-001
    outer loop
      vertex -3.296162e+000  1.617461e+003  7.297299e+000
      vertex -9.433455e+000  1.618573e+003  7.389983e+000
      vertex -9.134035e+000  1.617851e+003  7.385462e+000
    endloop
  endfacet
  facet normal  1.510008e-002  0.000000e+000  9.998860e-001
    outer loop
      vertex -3.296162e+000  1.617461e+003  7.297299e+000
      vertex -9.134035e+000  1.617851e+003  7.385462e+000
      vertex -9.134035e+000  1.617070e+003  7.385462e+000
    endloop
  endfacet
  facet normal  1.510005e-002  0.000000e+000  9.998860e-001
    outer loop
      vertex -9.986585e+000  1.619125e+003  7.398336e+000
      vertex -9.433455e+000  1.618573e+003  7.389983e+000
      vertex -9.986585e+000  1.621414e+003  7.398336e+000
    endloop
  endfacet
  facet normal  1.510001e-002 -8.076579e-009  9.998859e-001
    outer loop
      vertex -9.986585e+000  1.621414e+003  7.398336e+000
      vertex -9.433455e+000  1.618573e+003  7.389983e+000
      vertex -3.296162e+000  1.617461e+003  7.297299e+000
    endloop
  endfacet
  facet normal  1.510004e-002  3.561673e-008  9.998860e-001
    outer loop
      vertex -9.986585e+000  1.621414e+003  7.398336e+000
      vertex -3.296162e+000  1.617461e+003  7.297299e+000
      vertex -3.133616e+000  1.618250e+003  7.294845e+000
    endloop
  endfacet
  facet normal  1.510005e-002  -0.000000e+000  9.998860e-001
    outer loop
      vertex -9.986585e+000  1.615796e+003  7.398336e+000
      vertex -9.986585e+000  1.611414e+003  7.398336e+000
      vertex -9.433455e+000  1.616348e+003  7.389983e+000
    endloop
  endfacet
  facet normal  1.510006e-002 -8.565850e-010  9.998860e-001
    outer loop
      vertex -9.433455e+000  1.616348e+003  7.389983e+000
      vertex -9.986585e+000  1.611414e+003  7.398336e+000
      vertex -1.987497e+000  1.611414e+003  7.277536e+000
    endloop
  endfacet
  facet normal  1.509977e-002 -4.473991e-007  9.998860e-001
    outer loop
      vertex -9.433455e+000  1.616348e+003  7.389983e+000
      vertex -1.987497e+000  1.611414e+003  7.277536e+000
      vertex -9.134035e+000  1.617070e+003  7.385462e+000
    endloop
  endfacet
  facet normal  1.510008e-002 -4.646688e-008  9.998859e-001
    outer loop
      vertex -9.134035e+000  1.617070e+003  7.385462e+000
      vertex -1.987497e+000  1.611414e+003  7.277536e+000
      vertex -3.133616e+000  1.616671e+003  7.294845e+000
    endloop
  endfacet
  facet normal  1.510009e-002 -2.614294e-008  9.998860e-001
    outer loop
      vertex -9.134035e+000  1.617070e+003  7.385462e+000
      vertex -3.133616e+000  1.616671e+003  7.294845e+000
      vertex -3.296162e+000  1.617461e+003  7.297299e+000
    endloop
  endfacet
  facet normal  1.510006e-002  8.447247e-008  9.998860e-001
    outer loop
      vertex -9.986585e+000  1.621414e+003  7.398336e+000
      vertex -3.133616e+000  1.618250e+003  7.294845e+000
      vertex -1.987497e+000  1.621414e+003  7.277536e+000
    endloop
  endfacet
  facet normal  1.509982e-002  1.729479e-007  9.998860e-001
    outer loop
      vertex -1.987497e+000  1.621414e+003  7.277536e+000
      vertex -3.133616e+000  1.618250e+003  7.294845e+000
      vertex -2.672402e+000  1.618912e+003  7.287879e+000
    endloop
  endfacet
  facet normal  1.510045e-002  0.000000e+000  9.998859e-001
    outer loop
      vertex -1.987497e+000  1.621414e+003  7.277536e+000
      vertex -2.672402e+000  1.618912e+003  7.287879e+000
      vertex -1.987497e+000  1.619337e+003  7.277536e+000
    endloop
  endfacet
  facet normal -1.510012e-002  6.542460e-007 -9.998860e-001
    outer loop
      vertex -3.589712e+000  1.617461e+003 -1.214080e+001
      vertex -9.389051e+000  1.617461e+003 -1.205322e+001
      vertex -3.437489e+000  1.618226e+003 -1.214310e+001
    endloop
  endfacet
  facet normal -1.510052e-002 -1.908326e-006 -9.998860e-001
    outer loop
      vertex -9.389051e+000  1.617461e+003 -1.205322e+001
      vertex -3.003993e+000  1.616046e+003 -1.214965e+001
      vertex -2.355220e+000  1.615613e+003 -1.215944e+001
    endloop
  endfacet
  facet normal -1.509994e-002  7.156088e-007 -9.998859e-001
    outer loop
      vertex -9.389051e+000  1.617461e+003 -1.205322e+001
      vertex -3.437489e+000  1.616695e+003 -1.214310e+001
      vertex -3.003993e+000  1.616046e+003 -1.214965e+001
    endloop
  endfacet
  facet normal -1.510012e-002 -6.542460e-007 -9.998860e-001
    outer loop
      vertex -9.389051e+000  1.617461e+003 -1.205322e+001
      vertex -3.589712e+000  1.617461e+003 -1.214080e+001
      vertex -3.437489e+000  1.616695e+003 -1.214310e+001
    endloop
  endfacet
  facet normal -1.510000e-002 -1.440048e-009 -9.998860e-001
    outer loop
      vertex  1.391011e+001  1.621414e+003 -1.240508e+001
      vertex  1.790965e+001  1.621414e+003 -1.246548e+001
      vertex  7.910791e+000  1.611414e+003 -1.231448e+001
    endloop
  endfacet
  facet normal -1.510009e-002  5.209080e-008 -9.998860e-001
    outer loop
      vertex  1.391011e+001  1.621414e+003 -1.240508e+001
      vertex  7.910791e+000  1.611414e+003 -1.231448e+001
      vertex  4.098316e-001  1.617461e+003 -1.220120e+001
    endloop
  endfacet
  facet normal -1.510007e-002 -1.419848e-008 -9.998860e-001
    outer loop
      vertex  1.391011e+001  1.621414e+003 -1.240508e+001
      vertex  4.098316e-001  1.617461e+003 -1.220120e+001
      vertex  1.111043e+001  1.621414e+003 -1.236280e+001
    endloop
  endfacet
  facet normal -1.510007e-002  0.000000e+000 -9.998860e-001
    outer loop
      vertex  1.391011e+001  1.621414e+003 -1.240508e+001
      vertex  1.111043e+001  1.621414e+003 -1.236280e+001
      vertex  1.111043e+001  1.631414e+003 -1.236280e+001
    endloop
  endfacet
  facet normal -1.510007e-002  0.000000e+000 -9.998860e-001
    outer loop
      vertex  1.391011e+001  1.621414e+003 -1.240508e+001
      vertex  1.111043e+001  1.631414e+003 -1.236280e+001
      vertex  1.391011e+001  1.631414e+003 -1.240508e+001
    endloop
  endfacet
  facet normal -1.510028e-002  5.590770e-007 -9.998860e-001
    outer loop
      vertex  1.111043e+001  1.621414e+003 -1.236280e+001
      vertex  4.098316e-001  1.617461e+003 -1.220120e+001
      vertex  2.576080e-001  1.618226e+003 -1.219890e+001
    endloop
  endfacet
  facet normal -1.509991e-002 -7.317016e-007 -9.998860e-001
    outer loop
      vertex  1.111043e+001  1.621414e+003 -1.236280e+001
      vertex  2.576080e-001  1.618226e+003 -1.219890e+001
      vertex -1.758881e-001  1.618875e+003 -1.219236e+001
    endloop
  endfacet
  facet normal -1.510023e-002  7.267125e-007 -9.998860e-001
    outer loop
      vertex  1.111043e+001  1.621414e+003 -1.236280e+001
      vertex -1.758881e-001  1.618875e+003 -1.219236e+001
      vertex -8.246608e-001  1.619308e+003 -1.218256e+001
    endloop
  endfacet
  facet normal -1.509980e-002 -1.713398e-006 -9.998860e-001
    outer loop
      vertex  1.111043e+001  1.621414e+003 -1.236280e+001
      vertex -8.246608e-001  1.619308e+003 -1.218256e+001
      vertex -1.589940e+000  1.619461e+003 -1.217100e+001
    endloop
  endfacet
  facet normal -1.510009e-002  1.405593e-007 -9.998860e-001
    outer loop
      vertex  1.111043e+001  1.621414e+003 -1.236280e+001
      vertex -1.589940e+000  1.619461e+003 -1.217100e+001
      vertex -9.974771e+000  1.618875e+003 -1.204438e+001
    endloop
  endfacet
  facet normal -1.510017e-002  8.079082e-007 -9.998860e-001
    outer loop
      vertex  1.111043e+001  1.621414e+003 -1.236280e+001
      vertex -9.974771e+000  1.618875e+003 -1.204438e+001
      vertex -1.062354e+001  1.619308e+003 -1.203458e+001
    endloop
  endfacet
  facet normal -1.509988e-002 -2.136063e-006 -9.998860e-001
    outer loop
      vertex  1.111043e+001  1.621414e+003 -1.236280e+001
      vertex -1.062354e+001  1.619308e+003 -1.203458e+001
      vertex -1.138882e+001  1.619461e+003 -1.202302e+001
    endloop
  endfacet
  facet normal -1.510007e-002  6.832511e-008 -9.998860e-001
    outer loop
      vertex -2.347132e+001  1.621414e+003 -1.184055e+001
      vertex  1.111043e+001  1.621414e+003 -1.236280e+001
      vertex -1.138882e+001  1.619461e+003 -1.202302e+001
    endloop
  endfacet
  facet normal -1.510037e-002 -1.761074e-006 -9.998860e-001
    outer loop
      vertex -2.347132e+001  1.621414e+003 -1.184055e+001
      vertex -1.138882e+001  1.619461e+003 -1.202302e+001
      vertex -1.215410e+001  1.619308e+003 -1.201146e+001
    endloop
  endfacet
  facet normal -1.509987e-002  9.444247e-007 -9.998859e-001
    outer loop
      vertex -2.347132e+001  1.621414e+003 -1.184055e+001
      vertex -1.215410e+001  1.619308e+003 -1.201146e+001
      vertex -1.280288e+001  1.618875e+003 -1.200167e+001
    endloop
  endfacet
  facet normal -1.510022e-002 -5.395145e-007 -9.998860e-001
    outer loop
      vertex -2.347132e+001  1.621414e+003 -1.184055e+001
      vertex -1.280288e+001  1.618875e+003 -1.200167e+001
      vertex -1.323637e+001  1.618226e+003 -1.199512e+001
    endloop
  endfacet
  facet normal -1.510023e-002 -5.691355e-007 -9.998860e-001
    outer loop
      vertex -2.347132e+001  1.621414e+003 -1.184055e+001
      vertex -1.323637e+001  1.618226e+003 -1.199512e+001
      vertex -1.338859e+001  1.617461e+003 -1.199282e+001
    endloop
  endfacet
  facet normal -1.510007e-002 -1.654780e-007 -9.998860e-001
    outer loop
      vertex -2.347132e+001  1.621414e+003 -1.184055e+001
      vertex -1.338859e+001  1.617461e+003 -1.199282e+001
      vertex -2.627100e+001  1.621414e+003 -1.179827e+001
    endloop
  endfacet
  facet normal -1.510007e-002  0.000000e+000 -9.998860e-001
    outer loop
      vertex -2.347132e+001  1.621414e+003 -1.184055e+001
      vertex -2.627100e+001  1.621414e+003 -1.179827e+001
      vertex -2.627100e+001  1.631414e+003 -1.179827e+001
    endloop
  endfacet
  facet normal -1.510007e-002  0.000000e+000 -9.998860e-001
    outer loop
      vertex -2.347132e+001  1.621414e+003 -1.184055e+001
      vertex -2.627100e+001  1.631414e+003 -1.179827e+001
      vertex -2.347132e+001  1.631414e+003 -1.184055e+001
    endloop
  endfacet
  facet normal -1.509976e-002  1.546320e-006 -9.998860e-001
    outer loop
      vertex  7.910791e+000  1.611414e+003 -1.231448e+001
      vertex -1.138882e+001  1.615461e+003 -1.202302e+001
      vertex -1.062354e+001  1.615613e+003 -1.203458e+001
    endloop
  endfacet
  facet normal -1.510026e-002 -6.616200e-007 -9.998860e-001
    outer loop
      vertex  7.910791e+000  1.611414e+003 -1.231448e+001
      vertex -1.062354e+001  1.615613e+003 -1.203458e+001
      vertex -9.974771e+000  1.616046e+003 -1.204438e+001
    endloop
  endfacet
  facet normal -1.509991e-002  7.200264e-007 -9.998860e-001
    outer loop
      vertex  7.910791e+000  1.611414e+003 -1.231448e+001
      vertex -9.974771e+000  1.616046e+003 -1.204438e+001
      vertex -9.541275e+000  1.616695e+003 -1.205092e+001
    endloop
  endfacet
  facet normal -1.510029e-002 -5.568261e-007 -9.998860e-001
    outer loop
      vertex  7.910791e+000  1.611414e+003 -1.231448e+001
      vertex -9.541275e+000  1.616695e+003 -1.205092e+001
      vertex -9.389051e+000  1.617461e+003 -1.205322e+001
    endloop
  endfacet
  facet normal -1.509979e-002  8.821048e-007 -9.998860e-001
    outer loop
      vertex  7.910791e+000  1.611414e+003 -1.231448e+001
      vertex -9.389051e+000  1.617461e+003 -1.205322e+001
      vertex -2.355220e+000  1.615613e+003 -1.215944e+001
    endloop
  endfacet
  facet normal -1.510123e-002 -2.642309e-006 -9.998860e-001
    outer loop
      vertex  7.910791e+000  1.611414e+003 -1.231448e+001
      vertex -2.355220e+000  1.615613e+003 -1.215944e+001
      vertex -1.589940e+000  1.615461e+003 -1.217100e+001
    endloop
  endfacet
  facet normal -1.509967e-002  1.032732e-006 -9.998860e-001
    outer loop
      vertex  7.910791e+000  1.611414e+003 -1.231448e+001
      vertex -1.589940e+000  1.615461e+003 -1.217100e+001
      vertex -8.246608e-001  1.615613e+003 -1.218256e+001
    endloop
  endfacet
  facet normal -1.510039e-002 -4.833847e-007 -9.998860e-001
    outer loop
      vertex  7.910791e+000  1.611414e+003 -1.231448e+001
      vertex -8.246608e-001  1.615613e+003 -1.218256e+001
      vertex -1.758881e-001  1.616046e+003 -1.219236e+001
    endloop
  endfacet
  facet normal -1.509975e-002  6.318646e-007 -9.998860e-001
    outer loop
      vertex  7.910791e+000  1.611414e+003 -1.231448e+001
      vertex -1.758881e-001  1.616046e+003 -1.219236e+001
      vertex  2.576080e-001  1.616695e+003 -1.219890e+001
    endloop
  endfacet
  facet normal -1.510054e-002 -5.077135e-007 -9.998860e-001
    outer loop
      vertex  7.910791e+000  1.611414e+003 -1.231448e+001
      vertex  2.576080e-001  1.616695e+003 -1.219890e+001
      vertex  4.098316e-001  1.617461e+003 -1.220120e+001
    endloop
  endfacet
  facet normal -1.510007e-002 -6.427168e-008 -9.998860e-001
    outer loop
      vertex -2.047166e+001  1.611414e+003 -1.188585e+001
      vertex -3.047052e+001  1.621414e+003 -1.173485e+001
      vertex -2.627100e+001  1.621414e+003 -1.179827e+001
    endloop
  endfacet
  facet normal -1.510003e-002 -4.477791e-008 -9.998861e-001
    outer loop
      vertex -2.047166e+001  1.611414e+003 -1.188585e+001
      vertex -2.627100e+001  1.621414e+003 -1.179827e+001
      vertex -1.338859e+001  1.617461e+003 -1.199282e+001
    endloop
  endfacet
  facet normal -1.510051e-002  5.132435e-007 -9.998860e-001
    outer loop
      vertex -2.047166e+001  1.611414e+003 -1.188585e+001
      vertex -1.338859e+001  1.617461e+003 -1.199282e+001
      vertex -1.323637e+001  1.616695e+003 -1.199512e+001
    endloop
  endfacet
  facet normal -1.510043e-002  4.006126e-007 -9.998860e-001
    outer loop
      vertex -2.047166e+001  1.611414e+003 -1.188585e+001
      vertex -1.323637e+001  1.616695e+003 -1.199512e+001
      vertex -1.280288e+001  1.616046e+003 -1.200167e+001
    endloop
  endfacet
  facet normal -1.509973e-002 -7.468599e-007 -9.998859e-001
    outer loop
      vertex -2.047166e+001  1.611414e+003 -1.188585e+001
      vertex -1.280288e+001  1.616046e+003 -1.200167e+001
      vertex -1.215410e+001  1.615613e+003 -1.201146e+001
    endloop
  endfacet
  facet normal -1.510055e-002  8.648181e-007 -9.998860e-001
    outer loop
      vertex -2.047166e+001  1.611414e+003 -1.188585e+001
      vertex -1.215410e+001  1.615613e+003 -1.201146e+001
      vertex -1.138882e+001  1.615461e+003 -1.202302e+001
    endloop
  endfacet
  facet normal -1.510011e-002 -1.156593e-007 -9.998859e-001
    outer loop
      vertex -2.047166e+001  1.611414e+003 -1.188585e+001
      vertex -1.138882e+001  1.615461e+003 -1.202302e+001
      vertex  7.910791e+000  1.611414e+003 -1.231448e+001
    endloop
  endfacet
  facet normal -1.509994e-002 -7.275999e-007 -9.998860e-001
    outer loop
      vertex -3.437489e+000  1.618226e+003 -1.214310e+001
      vertex -9.389051e+000  1.617461e+003 -1.205322e+001
      vertex -3.003993e+000  1.618875e+003 -1.214965e+001
    endloop
  endfacet
  facet normal -1.510023e-002  5.698124e-007 -9.998860e-001
    outer loop
      vertex -3.003993e+000  1.618875e+003 -1.214965e+001
      vertex -9.389051e+000  1.617461e+003 -1.205322e+001
      vertex -9.541275e+000  1.618226e+003 -1.205092e+001
    endloop
  endfacet
  facet normal -1.510033e-002  1.640918e-006 -9.998860e-001
    outer loop
      vertex -3.003993e+000  1.618875e+003 -1.214965e+001
      vertex -9.541275e+000  1.618226e+003 -1.205092e+001
      vertex -2.355220e+000  1.619308e+003 -1.215944e+001
    endloop
  endfacet
  facet normal -1.509997e-002 -7.629741e-007 -9.998860e-001
    outer loop
      vertex -2.355220e+000  1.619308e+003 -1.215944e+001
      vertex -9.541275e+000  1.618226e+003 -1.205092e+001
      vertex -9.974771e+000  1.618875e+003 -1.204438e+001
    endloop
  endfacet
  facet normal -1.509974e-002 -4.845953e-006 -9.998860e-001
    outer loop
      vertex -2.355220e+000  1.619308e+003 -1.215944e+001
      vertex -9.974771e+000  1.618875e+003 -1.204438e+001
      vertex -1.589940e+000  1.619461e+003 -1.217100e+001
    endloop
  endfacet
  facet normal  7.070262e-001 -7.071068e-001 -1.067736e-002
    outer loop
      vertex  7.910791e+000  1.611414e+003 -1.231448e+001
      vertex  1.790965e+001  1.621414e+003 -1.246548e+001
      vertex  8.430842e+000  1.611414e+003  2.212191e+001
    endloop
  endfacet
  facet normal  7.070261e-001 -7.071068e-001 -1.067738e-002
    outer loop
      vertex  8.430842e+000  1.611414e+003  2.212191e+001
      vertex  1.790965e+001  1.621414e+003 -1.246548e+001
      vertex  1.842970e+001  1.621414e+003  2.197091e+001
    endloop
  endfacet
  facet normal -7.070261e-001 -7.071067e-001  1.067738e-002
    outer loop
      vertex -1.995161e+001  1.611414e+003  2.255054e+001
      vertex -2.995047e+001  1.621414e+003  2.270154e+001
      vertex -2.047166e+001  1.611414e+003 -1.188585e+001
    endloop
  endfacet
  facet normal -7.070262e-001 -7.071068e-001  1.067738e-002
    outer loop
      vertex -2.047166e+001  1.611414e+003 -1.188585e+001
      vertex -2.995047e+001  1.621414e+003  2.270154e+001
      vertex -3.047052e+001  1.621414e+003 -1.173485e+001
    endloop
  endfacet
  facet normal -9.806742e-001  1.950868e-001  1.480995e-002
    outer loop
      vertex  7.118332e-001  1.617461e+003  7.796517e+000
      vertex  2.576080e-001  1.616695e+003 -1.219890e+001
      vertex  5.596097e-001  1.616695e+003  7.798816e+000
    endloop
  endfacet
  facet normal -8.313578e-001  5.555956e-001  1.255500e-002
    outer loop
      vertex  5.596097e-001  1.616695e+003  7.798816e+000
      vertex  2.576080e-001  1.616695e+003 -1.219890e+001
      vertex -1.758881e-001  1.616046e+003 -1.219236e+001
    endloop
  endfacet
  facet normal -8.313578e-001  5.555956e-001  1.255500e-002
    outer loop
      vertex  5.596097e-001  1.616695e+003  7.798816e+000
      vertex -1.758881e-001  1.616046e+003 -1.219236e+001
      vertex  1.261135e-001  1.616046e+003  7.805363e+000
    endloop
  endfacet
  facet normal -5.555497e-001  8.314411e-001  8.389803e-003
    outer loop
      vertex  1.261135e-001  1.616046e+003  7.805363e+000
      vertex -1.758881e-001  1.616046e+003 -1.219236e+001
      vertex -8.246608e-001  1.615613e+003 -1.218256e+001
    endloop
  endfacet
  facet normal -5.555497e-001  8.314411e-001  8.389803e-003
    outer loop
      vertex  1.261135e-001  1.616046e+003  7.805363e+000
      vertex -8.246608e-001  1.615613e+003 -1.218256e+001
      vertex -5.226592e-001  1.615613e+003  7.815160e+000
    endloop
  endfacet
  facet normal -1.950444e-001  9.807900e-001  2.945522e-003
    outer loop
      vertex -5.226592e-001  1.615613e+003  7.815160e+000
      vertex -8.246608e-001  1.615613e+003 -1.218256e+001
      vertex -1.589940e+000  1.615461e+003 -1.217100e+001
    endloop
  endfacet
  facet normal -1.950444e-001  9.807900e-001  2.945523e-003
    outer loop
      vertex -5.226592e-001  1.615613e+003  7.815160e+000
      vertex -1.589940e+000  1.615461e+003 -1.217100e+001
      vertex -1.287939e+000  1.615461e+003  7.826717e+000
    endloop
  endfacet
  facet normal -9.806742e-001  1.950869e-001  1.480995e-002
    outer loop
      vertex  2.576080e-001  1.616695e+003 -1.219890e+001
      vertex  7.118332e-001  1.617461e+003  7.796517e+000
      vertex  4.098316e-001  1.617461e+003 -1.220120e+001
    endloop
  endfacet
  facet normal -9.806742e-001 -1.950869e-001  1.480995e-002
    outer loop
      vertex  4.098316e-001  1.617461e+003 -1.220120e+001
      vertex  7.118332e-001  1.617461e+003  7.796517e+000
      vertex  5.596097e-001  1.618226e+003  7.798816e+000
    endloop
  endfacet
  facet normal -9.806742e-001 -1.950869e-001  1.480995e-002
    outer loop
      vertex  4.098316e-001  1.617461e+003 -1.220120e+001
      vertex  5.596097e-001  1.618226e+003  7.798816e+000
      vertex  2.576080e-001  1.618226e+003 -1.219890e+001
    endloop
  endfacet
  facet normal -8.314061e-001 -5.555235e-001  1.255573e-002
    outer loop
      vertex  2.576080e-001  1.618226e+003 -1.219890e+001
      vertex  5.596097e-001  1.618226e+003  7.798816e+000
      vertex  1.261135e-001  1.618875e+003  7.805363e+000
    endloop
  endfacet
  facet normal -8.314061e-001 -5.555235e-001  1.255573e-002
    outer loop
      vertex  2.576080e-001  1.618226e+003 -1.219890e+001
      vertex  1.261135e-001  1.618875e+003  7.805363e+000
      vertex -1.758881e-001  1.618875e+003 -1.219236e+001
    endloop
  endfacet
  facet normal -5.554414e-001 -8.315133e-001  8.388168e-003
    outer loop
      vertex -1.758881e-001  1.618875e+003 -1.219236e+001
      vertex  1.261135e-001  1.618875e+003  7.805363e+000
      vertex -5.226592e-001  1.619308e+003  7.815160e+000
    endloop
  endfacet
  facet normal -5.554414e-001 -8.315133e-001  8.388168e-003
    outer loop
      vertex -1.758881e-001  1.618875e+003 -1.219236e+001
      vertex -5.226592e-001  1.619308e+003  7.815160e+000
      vertex -8.246608e-001  1.619308e+003 -1.218256e+001
    endloop
  endfacet
  facet normal -1.950444e-001 -9.807900e-001  2.945522e-003
    outer loop
      vertex -8.246608e-001  1.619308e+003 -1.218256e+001
      vertex -5.226592e-001  1.619308e+003  7.815160e+000
      vertex -1.287939e+000  1.619461e+003  7.826717e+000
    endloop
  endfacet
  facet normal -1.950444e-001 -9.807900e-001  2.945522e-003
    outer loop
      vertex -8.246608e-001  1.619308e+003 -1.218256e+001
      vertex -1.287939e+000  1.619461e+003  7.826717e+000
      vertex -1.589940e+000  1.619461e+003 -1.217100e+001
    endloop
  endfacet
  facet normal  9.806742e-001 -1.950869e-001 -1.480992e-002
    outer loop
      vertex -1.308659e+001  1.617461e+003  8.004899e+000
      vertex -1.323637e+001  1.618226e+003 -1.199512e+001
      vertex -1.293437e+001  1.618226e+003  8.002600e+000
    endloop
  endfacet
  facet normal  8.314064e-001 -5.555230e-001 -1.255571e-002
    outer loop
      vertex -1.293437e+001  1.618226e+003  8.002600e+000
      vertex -1.323637e+001  1.618226e+003 -1.199512e+001
      vertex -1.280288e+001  1.618875e+003 -1.200167e+001
    endloop
  endfacet
  facet normal  8.314059e-001 -5.555238e-001 -1.255574e-002
    outer loop
      vertex -1.293437e+001  1.618226e+003  8.002600e+000
      vertex -1.280288e+001  1.618875e+003 -1.200167e+001
      vertex -1.250087e+001  1.618875e+003  7.996053e+000
    endloop
  endfacet
  facet normal  5.554413e-001 -8.315135e-001 -8.388173e-003
    outer loop
      vertex -1.250087e+001  1.618875e+003  7.996053e+000
      vertex -1.280288e+001  1.618875e+003 -1.200167e+001
      vertex -1.215410e+001  1.619308e+003 -1.201146e+001
    endloop
  endfacet
  facet normal  5.554418e-001 -8.315131e-001 -8.388155e-003
    outer loop
      vertex -1.250087e+001  1.618875e+003  7.996053e+000
      vertex -1.215410e+001  1.619308e+003 -1.201146e+001
      vertex -1.185210e+001  1.619308e+003  7.986256e+000
    endloop
  endfacet
  facet normal  1.950445e-001 -9.807900e-001 -2.945518e-003
    outer loop
      vertex -1.185210e+001  1.619308e+003  7.986256e+000
      vertex -1.215410e+001  1.619308e+003 -1.201146e+001
      vertex -1.138882e+001  1.619461e+003 -1.202302e+001
    endloop
  endfacet
  facet normal  1.950443e-001 -9.807900e-001 -2.945524e-003
    outer loop
      vertex -1.185210e+001  1.619308e+003  7.986256e+000
      vertex -1.138882e+001  1.619461e+003 -1.202302e+001
      vertex -1.108682e+001  1.619461e+003  7.974699e+000
    endloop
  endfacet
  facet normal  9.806742e-001 -1.950869e-001 -1.480992e-002
    outer loop
      vertex -1.323637e+001  1.618226e+003 -1.199512e+001
      vertex -1.308659e+001  1.617461e+003  8.004899e+000
      vertex -1.338859e+001  1.617461e+003 -1.199282e+001
    endloop
  endfacet
  facet normal  9.806742e-001  1.950869e-001 -1.480992e-002
    outer loop
      vertex -1.338859e+001  1.617461e+003 -1.199282e+001
      vertex -1.308659e+001  1.617461e+003  8.004899e+000
      vertex -1.293437e+001  1.616695e+003  8.002600e+000
    endloop
  endfacet
  facet normal  9.806742e-001  1.950869e-001 -1.480992e-002
    outer loop
      vertex -1.338859e+001  1.617461e+003 -1.199282e+001
      vertex -1.293437e+001  1.616695e+003  8.002600e+000
      vertex -1.323637e+001  1.616695e+003 -1.199512e+001
    endloop
  endfacet
  facet normal  8.313575e-001  5.555960e-001 -1.255497e-002
    outer loop
      vertex -1.323637e+001  1.616695e+003 -1.199512e+001
      vertex -1.293437e+001  1.616695e+003  8.002600e+000
      vertex -1.250087e+001  1.616046e+003  7.996053e+000
    endloop
  endfacet
  facet normal  8.313581e-001  5.555952e-001 -1.255502e-002
    outer loop
      vertex -1.323637e+001  1.616695e+003 -1.199512e+001
      vertex -1.250087e+001  1.616046e+003  7.996053e+000
      vertex -1.280288e+001  1.616046e+003 -1.200167e+001
    endloop
  endfacet
  facet normal  5.555499e-001  8.314409e-001 -8.389814e-003
    outer loop
      vertex -1.280288e+001  1.616046e+003 -1.200167e+001
      vertex -1.250087e+001  1.616046e+003  7.996053e+000
      vertex -1.185210e+001  1.615613e+003  7.986256e+000
    endloop
  endfacet
  facet normal  5.555494e-001  8.314412e-001 -8.389779e-003
    outer loop
      vertex -1.280288e+001  1.616046e+003 -1.200167e+001
      vertex -1.185210e+001  1.615613e+003  7.986256e+000
      vertex -1.215410e+001  1.615613e+003 -1.201146e+001
    endloop
  endfacet
  facet normal  1.950443e-001  9.807900e-001 -2.945515e-003
    outer loop
      vertex -1.215410e+001  1.615613e+003 -1.201146e+001
      vertex -1.185210e+001  1.615613e+003  7.986256e+000
      vertex -1.108682e+001  1.615461e+003  7.974699e+000
    endloop
  endfacet
  facet normal  1.950445e-001  9.807899e-001 -2.945527e-003
    outer loop
      vertex -1.215410e+001  1.615613e+003 -1.201146e+001
      vertex -1.108682e+001  1.615461e+003  7.974699e+000
      vertex -1.138882e+001  1.615461e+003 -1.202302e+001
    endloop
  endfacet
  facet normal -9.998860e-001  0.000000e+000  1.510007e-002
    outer loop
      vertex  1.157008e+001  1.631414e+003  1.807405e+001
      vertex  1.111043e+001  1.631414e+003 -1.236280e+001
      vertex  1.157008e+001  1.621414e+003  1.807405e+001
    endloop
  endfacet
  facet normal -9.998860e-001  0.000000e+000  1.510007e-002
    outer loop
      vertex  1.157008e+001  1.621414e+003  1.807405e+001
      vertex  1.111043e+001  1.631414e+003 -1.236280e+001
      vertex  1.111043e+001  1.621414e+003 -1.236280e+001
    endloop
  endfacet
  facet normal  9.998860e-001  0.000000e+000 -1.510007e-002
    outer loop
      vertex  1.391011e+001  1.631414e+003 -1.240508e+001
      vertex  1.436976e+001  1.631414e+003  1.803177e+001
      vertex  1.391011e+001  1.621414e+003 -1.240508e+001
    endloop
  endfacet
  facet normal  9.998860e-001  0.000000e+000 -1.510007e-002
    outer loop
      vertex  1.391011e+001  1.621414e+003 -1.240508e+001
      vertex  1.436976e+001  1.631414e+003  1.803177e+001
      vertex  1.436976e+001  1.621414e+003  1.803177e+001
    endloop
  endfacet
  facet normal  9.998860e-001  0.000000e+000 -1.510004e-002
    outer loop
      vertex -2.301167e+001  1.631414e+003  1.859629e+001
      vertex -2.301167e+001  1.621414e+003  1.859629e+001
      vertex -2.347132e+001  1.631414e+003 -1.184055e+001
    endloop
  endfacet
  facet normal  9.998860e-001  0.000000e+000 -1.510004e-002
    outer loop
      vertex -2.347132e+001  1.631414e+003 -1.184055e+001
      vertex -2.301167e+001  1.621414e+003  1.859629e+001
      vertex -2.347132e+001  1.621414e+003 -1.184055e+001
    endloop
  endfacet
  facet normal -9.998860e-001  0.000000e+000  1.510004e-002
    outer loop
      vertex -2.627100e+001  1.631414e+003 -1.179827e+001
      vertex -2.627100e+001  1.621414e+003 -1.179827e+001
      vertex -2.581135e+001  1.631414e+003  1.863857e+001
    endloop
  endfacet
  facet normal -9.998860e-001  0.000000e+000  1.510004e-002
    outer loop
      vertex -2.581135e+001  1.631414e+003  1.863857e+001
      vertex -2.627100e+001  1.621414e+003 -1.179827e+001
      vertex -2.581135e+001  1.621414e+003  1.863857e+001
    endloop
  endfacet
  facet normal  1.510007e-002  0.000000e+000  9.998860e-001
    outer loop
      vertex -2.301167e+001  1.631414e+003  1.859629e+001
      vertex -2.581135e+001  1.631414e+003  1.863857e+001
      vertex -2.301167e+001  1.621414e+003  1.859629e+001
    endloop
  endfacet
  facet normal  1.510007e-002  0.000000e+000  9.998860e-001
    outer loop
      vertex -2.301167e+001  1.621414e+003  1.859629e+001
      vertex -2.581135e+001  1.631414e+003  1.863857e+001
      vertex -2.581135e+001  1.621414e+003  1.863857e+001
    endloop
  endfacet
  facet normal  1.510007e-002  0.000000e+000  9.998860e-001
    outer loop
      vertex  1.436976e+001  1.631414e+003  1.803177e+001
      vertex  1.157008e+001  1.631414e+003  1.807405e+001
      vertex  1.436976e+001  1.621414e+003  1.803177e+001
    endloop
  endfacet
  facet normal  1.510007e-002  0.000000e+000  9.998860e-001
    outer loop
      vertex  1.436976e+001  1.621414e+003  1.803177e+001
      vertex  1.157008e+001  1.631414e+003  1.807405e+001
      vertex  1.157008e+001  1.621414e+003  1.807405e+001
    endloop
  endfacet
  facet normal  0.000000e+000  1.000000e+000  0.000000e+000
    outer loop
      vertex -2.627100e+001  1.631414e+003 -1.179827e+001
      vertex -2.581135e+001  1.631414e+003  1.863857e+001
      vertex -2.347132e+001  1.631414e+003 -1.184055e+001
    endloop
  endfacet
  facet normal  0.000000e+000  1.000000e+000  -0.000000e+000
    outer loop
      vertex -2.347132e+001  1.631414e+003 -1.184055e+001
      vertex -2.581135e+001  1.631414e+003  1.863857e+001
      vertex -2.301167e+001  1.631414e+003  1.859629e+001
    endloop
  endfacet
  facet normal  0.000000e+000  1.000000e+000  0.000000e+000
    outer loop
      vertex  1.111043e+001  1.631414e+003 -1.236280e+001
      vertex  1.157008e+001  1.631414e+003  1.807405e+001
      vertex  1.391011e+001  1.631414e+003 -1.240508e+001
    endloop
  endfacet
  facet normal  0.000000e+000  1.000000e+000  -0.000000e+000
    outer loop
      vertex  1.391011e+001  1.631414e+003 -1.240508e+001
      vertex  1.157008e+001  1.631414e+003  1.807405e+001
      vertex  1.436976e+001  1.631414e+003  1.803177e+001
    endloop
  endfacet
endsolid CATIA STL
