solid CATIA STL
  facet normal  -0.000000e+000  0.000000e+000 -9.999999e-001
    outer loop
      vertex -8.000000e+000  4.705000e+002  0.000000e+000
      vertex -1.030970e+001  2.443537e+002  0.000000e+000
      vertex -1.050000e+001  2.433970e+002  0.000000e+000
    endloop
  endfacet
  facet normal  -0.000000e+000  0.000000e+000 -1.000000e+000
    outer loop
      vertex -8.000000e+000  4.705000e+002  0.000000e+000
      vertex -9.767767e+000  2.451648e+002  0.000000e+000
      vertex -1.030970e+001  2.443537e+002  0.000000e+000
    endloop
  endfacet
  facet normal  -0.000000e+000  0.000000e+000 -1.000000e+000
    outer loop
      vertex -8.000000e+000  4.705000e+002  0.000000e+000
      vertex -8.956709e+000  2.457067e+002  0.000000e+000
      vertex -9.767767e+000  2.451648e+002  0.000000e+000
    endloop
  endfacet
  facet normal  -0.000000e+000  0.000000e+000 -1.000000e+000
    outer loop
      vertex -8.000000e+000  4.705000e+002  0.000000e+000
      vertex -8.000000e+000  2.458970e+002  0.000000e+000
      vertex -8.956709e+000  2.457067e+002  0.000000e+000
    endloop
  endfacet
  facet normal  -0.000000e+000  0.000000e+000 -1.000000e+000
    outer loop
      vertex -8.000000e+000  2.408970e+002  0.000000e+000
      vertex -1.030970e+001  4.085600e+001  0.000000e+000
      vertex -1.050000e+001  3.989930e+001  0.000000e+000
    endloop
  endfacet
  facet normal  -0.000000e+000  0.000000e+000 -1.000000e+000
    outer loop
      vertex -8.000000e+000  2.408970e+002  0.000000e+000
      vertex -9.767767e+000  4.166706e+001  0.000000e+000
      vertex -1.030970e+001  4.085600e+001  0.000000e+000
    endloop
  endfacet
  facet normal  -0.000000e+000  0.000000e+000 -9.999999e-001
    outer loop
      vertex -8.000000e+000  2.408970e+002  0.000000e+000
      vertex -8.956709e+000  4.220899e+001  0.000000e+000
      vertex -9.767767e+000  4.166706e+001  0.000000e+000
    endloop
  endfacet
  facet normal  -0.000000e+000  0.000000e+000 -1.000000e+000
    outer loop
      vertex -8.000000e+000  2.408970e+002  0.000000e+000
      vertex -8.000000e+000  4.239930e+001  0.000000e+000
      vertex -8.956709e+000  4.220899e+001  0.000000e+000
    endloop
  endfacet
  facet normal  -0.000000e+000  0.000000e+000 -9.999999e-001
    outer loop
      vertex -1.500000e+001  4.930000e+002  0.000000e+000
      vertex -9.191070e-001  4.930000e+002  0.000000e+000
      vertex -8.000000e+000  4.755000e+002  0.000000e+000
    endloop
  endfacet
  facet normal  -0.000000e+000  0.000000e+000 -1.000000e+000
    outer loop
      vertex -1.500000e+001  4.930000e+002  0.000000e+000
      vertex -8.000000e+000  4.755000e+002  0.000000e+000
      vertex -8.956709e+000  4.753097e+002  0.000000e+000
    endloop
  endfacet
  facet normal  -0.000000e+000  0.000000e+000 -1.000000e+000
    outer loop
      vertex -1.500000e+001  4.930000e+002  0.000000e+000
      vertex -8.956709e+000  4.753097e+002  0.000000e+000
      vertex -9.767767e+000  4.747678e+002  0.000000e+000
    endloop
  endfacet
  facet normal  -0.000000e+000  0.000000e+000 -9.999999e-001
    outer loop
      vertex -1.500000e+001  4.930000e+002  0.000000e+000
      vertex -9.767767e+000  4.747678e+002  0.000000e+000
      vertex -1.030970e+001  4.739567e+002  0.000000e+000
    endloop
  endfacet
  facet normal  -0.000000e+000  0.000000e+000 -1.000000e+000
    outer loop
      vertex -1.500000e+001  4.930000e+002  0.000000e+000
      vertex -1.030970e+001  4.739567e+002  0.000000e+000
      vertex -1.050000e+001  4.730000e+002  0.000000e+000
    endloop
  endfacet
  facet normal  -0.000000e+000  0.000000e+000 -1.000000e+000
    outer loop
      vertex -1.500000e+001  4.930000e+002  0.000000e+000
      vertex -1.050000e+001  4.730000e+002  0.000000e+000
      vertex -1.500000e+001  7.000000e+000  0.000000e+000
    endloop
  endfacet
  facet normal  0.000000e+000  -0.000000e+000 -1.000000e+000
    outer loop
      vertex -1.500000e+001  7.000000e+000  0.000000e+000
      vertex -1.050000e+001  4.730000e+002  0.000000e+000
      vertex -1.030970e+001  4.720433e+002  0.000000e+000
    endloop
  endfacet
  facet normal  0.000000e+000  -0.000000e+000 -9.999999e-001
    outer loop
      vertex -1.500000e+001  7.000000e+000  0.000000e+000
      vertex -1.030970e+001  4.720433e+002  0.000000e+000
      vertex -9.767767e+000  4.712322e+002  0.000000e+000
    endloop
  endfacet
  facet normal  0.000000e+000  -0.000000e+000 -1.000000e+000
    outer loop
      vertex -1.500000e+001  7.000000e+000  0.000000e+000
      vertex -9.767767e+000  4.712322e+002  0.000000e+000
      vertex -8.956709e+000  4.706903e+002  0.000000e+000
    endloop
  endfacet
  facet normal  0.000000e+000  -0.000000e+000 -1.000000e+000
    outer loop
      vertex -1.500000e+001  7.000000e+000  0.000000e+000
      vertex -8.956709e+000  4.706903e+002  0.000000e+000
      vertex -8.000000e+000  4.705000e+002  0.000000e+000
    endloop
  endfacet
  facet normal  0.000000e+000  0.000000e+000 -9.999999e-001
    outer loop
      vertex -1.500000e+001  7.000000e+000  0.000000e+000
      vertex -8.000000e+000  4.705000e+002  0.000000e+000
      vertex -1.050000e+001  2.433970e+002  0.000000e+000
    endloop
  endfacet
  facet normal  0.000000e+000  -0.000000e+000 -1.000000e+000
    outer loop
      vertex -1.500000e+001  7.000000e+000  0.000000e+000
      vertex -1.050000e+001  2.433970e+002  0.000000e+000
      vertex -1.030970e+001  2.424403e+002  0.000000e+000
    endloop
  endfacet
  facet normal  0.000000e+000  -0.000000e+000 -1.000000e+000
    outer loop
      vertex -1.500000e+001  7.000000e+000  0.000000e+000
      vertex -1.030970e+001  2.424403e+002  0.000000e+000
      vertex -9.767767e+000  2.416292e+002  0.000000e+000
    endloop
  endfacet
  facet normal  0.000000e+000  -0.000000e+000 -1.000000e+000
    outer loop
      vertex -1.500000e+001  7.000000e+000  0.000000e+000
      vertex -9.767767e+000  2.416292e+002  0.000000e+000
      vertex -8.956709e+000  2.410873e+002  0.000000e+000
    endloop
  endfacet
  facet normal  0.000000e+000  -0.000000e+000 -9.999999e-001
    outer loop
      vertex -1.500000e+001  7.000000e+000  0.000000e+000
      vertex -8.956709e+000  2.410873e+002  0.000000e+000
      vertex -8.000000e+000  2.408970e+002  0.000000e+000
    endloop
  endfacet
  facet normal  0.000000e+000  0.000000e+000 -9.999999e-001
    outer loop
      vertex -1.500000e+001  7.000000e+000  0.000000e+000
      vertex -8.000000e+000  2.408970e+002  0.000000e+000
      vertex -1.050000e+001  3.989930e+001  0.000000e+000
    endloop
  endfacet
  facet normal  0.000000e+000  -0.000000e+000 -1.000000e+000
    outer loop
      vertex -1.500000e+001  7.000000e+000  0.000000e+000
      vertex -1.050000e+001  3.989930e+001  0.000000e+000
      vertex -1.030970e+001  3.894258e+001  0.000000e+000
    endloop
  endfacet
  facet normal  0.000000e+000  -0.000000e+000 -1.000000e+000
    outer loop
      vertex -1.500000e+001  7.000000e+000  0.000000e+000
      vertex -1.030970e+001  3.894258e+001  0.000000e+000
      vertex -9.767767e+000  3.813153e+001  0.000000e+000
    endloop
  endfacet
  facet normal  0.000000e+000  -0.000000e+000 -1.000000e+000
    outer loop
      vertex -1.500000e+001  7.000000e+000  0.000000e+000
      vertex -9.767767e+000  3.813153e+001  0.000000e+000
      vertex -8.956709e+000  3.758960e+001  0.000000e+000
    endloop
  endfacet
  facet normal  0.000000e+000  -0.000000e+000 -1.000000e+000
    outer loop
      vertex -1.500000e+001  7.000000e+000  0.000000e+000
      vertex -8.956709e+000  3.758960e+001  0.000000e+000
      vertex -8.000000e+000  3.739930e+001  0.000000e+000
    endloop
  endfacet
  facet normal  0.000000e+000  -0.000000e+000 -1.000000e+000
    outer loop
      vertex -1.500000e+001  7.000000e+000  0.000000e+000
      vertex -8.000000e+000  3.739930e+001  0.000000e+000
      vertex  0.000000e+000  7.000000e+000  0.000000e+000
    endloop
  endfacet
  facet normal  0.000000e+000  0.000000e+000 -1.000000e+000
    outer loop
      vertex  1.000000e+001  4.630000e+002  0.000000e+000
      vertex  1.000000e+001  2.331250e+002  0.000000e+000
      vertex -6.232233e+000  2.451648e+002  0.000000e+000
    endloop
  endfacet
  facet normal  0.000000e+000  0.000000e+000 -1.000000e+000
    outer loop
      vertex  1.000000e+001  4.630000e+002  0.000000e+000
      vertex -6.232233e+000  2.451648e+002  0.000000e+000
      vertex -7.043292e+000  2.457067e+002  0.000000e+000
    endloop
  endfacet
  facet normal  0.000000e+000  0.000000e+000 -9.999999e-001
    outer loop
      vertex  1.000000e+001  4.630000e+002  0.000000e+000
      vertex -7.043292e+000  2.457067e+002  0.000000e+000
      vertex -8.000000e+000  2.458970e+002  0.000000e+000
    endloop
  endfacet
  facet normal  0.000000e+000  0.000000e+000 -1.000000e+000
    outer loop
      vertex  1.000000e+001  4.630000e+002  0.000000e+000
      vertex -8.000000e+000  2.458970e+002  0.000000e+000
      vertex -8.000000e+000  4.705000e+002  0.000000e+000
    endloop
  endfacet
  facet normal  0.000000e+000  0.000000e+000 -9.999999e-001
    outer loop
      vertex  1.000000e+001  4.630000e+002  0.000000e+000
      vertex -8.000000e+000  4.705000e+002  0.000000e+000
      vertex -7.043292e+000  4.706903e+002  0.000000e+000
    endloop
  endfacet
  facet normal  0.000000e+000  0.000000e+000 -1.000000e+000
    outer loop
      vertex  1.000000e+001  4.630000e+002  0.000000e+000
      vertex -7.043292e+000  4.706903e+002  0.000000e+000
      vertex -6.232233e+000  4.712322e+002  0.000000e+000
    endloop
  endfacet
  facet normal  0.000000e+000  0.000000e+000 -1.000000e+000
    outer loop
      vertex  1.000000e+001  4.630000e+002  0.000000e+000
      vertex -6.232233e+000  4.712322e+002  0.000000e+000
      vertex -5.690301e+000  4.720433e+002  0.000000e+000
    endloop
  endfacet
  facet normal  0.000000e+000  0.000000e+000 -1.000000e+000
    outer loop
      vertex  1.000000e+001  4.630000e+002  0.000000e+000
      vertex -5.690301e+000  4.720433e+002  0.000000e+000
      vertex -5.500000e+000  4.730000e+002  0.000000e+000
    endloop
  endfacet
  facet normal  0.000000e+000  0.000000e+000 -9.999999e-001
    outer loop
      vertex  1.000000e+001  4.630000e+002  0.000000e+000
      vertex -5.500000e+000  4.730000e+002  0.000000e+000
      vertex -5.690301e+000  4.739567e+002  0.000000e+000
    endloop
  endfacet
  facet normal  0.000000e+000  0.000000e+000 -1.000000e+000
    outer loop
      vertex  1.000000e+001  4.630000e+002  0.000000e+000
      vertex -5.690301e+000  4.739567e+002  0.000000e+000
      vertex -6.232233e+000  4.747678e+002  0.000000e+000
    endloop
  endfacet
  facet normal  0.000000e+000  0.000000e+000 -1.000000e+000
    outer loop
      vertex -9.191070e-001  4.930000e+002  0.000000e+000
      vertex  1.000000e+001  4.630000e+002  0.000000e+000
      vertex -6.232233e+000  4.747678e+002  0.000000e+000
    endloop
  endfacet
  facet normal  0.000000e+000  0.000000e+000 -1.000000e+000
    outer loop
      vertex -9.191070e-001  4.930000e+002  0.000000e+000
      vertex -6.232233e+000  4.747678e+002  0.000000e+000
      vertex -7.043292e+000  4.753097e+002  0.000000e+000
    endloop
  endfacet
  facet normal  0.000000e+000  0.000000e+000 -1.000000e+000
    outer loop
      vertex -9.191070e-001  4.930000e+002  0.000000e+000
      vertex -7.043292e+000  4.753097e+002  0.000000e+000
      vertex -8.000000e+000  4.755000e+002  0.000000e+000
    endloop
  endfacet
  facet normal  -0.000000e+000  0.000000e+000 -1.000000e+000
    outer loop
      vertex  1.000000e+001  2.331250e+002  0.000000e+000
      vertex  1.600000e+002  1.300000e+002  0.000000e+000
      vertex -8.000000e+000  4.239930e+001  0.000000e+000
    endloop
  endfacet
  facet normal  0.000000e+000  0.000000e+000 -1.000000e+000
    outer loop
      vertex  1.000000e+001  2.331250e+002  0.000000e+000
      vertex -8.000000e+000  4.239930e+001  0.000000e+000
      vertex -8.000000e+000  2.408970e+002  0.000000e+000
    endloop
  endfacet
  facet normal  0.000000e+000  0.000000e+000 -1.000000e+000
    outer loop
      vertex  1.000000e+001  2.331250e+002  0.000000e+000
      vertex -8.000000e+000  2.408970e+002  0.000000e+000
      vertex -7.043292e+000  2.410873e+002  0.000000e+000
    endloop
  endfacet
  facet normal  0.000000e+000  0.000000e+000 -1.000000e+000
    outer loop
      vertex  1.000000e+001  2.331250e+002  0.000000e+000
      vertex -7.043292e+000  2.410873e+002  0.000000e+000
      vertex -6.232233e+000  2.416292e+002  0.000000e+000
    endloop
  endfacet
  facet normal  0.000000e+000  0.000000e+000 -1.000000e+000
    outer loop
      vertex  1.000000e+001  2.331250e+002  0.000000e+000
      vertex -6.232233e+000  2.416292e+002  0.000000e+000
      vertex -5.690301e+000  2.424403e+002  0.000000e+000
    endloop
  endfacet
  facet normal  0.000000e+000  0.000000e+000 -1.000000e+000
    outer loop
      vertex  1.000000e+001  2.331250e+002  0.000000e+000
      vertex -5.690301e+000  2.424403e+002  0.000000e+000
      vertex -5.500000e+000  2.433970e+002  0.000000e+000
    endloop
  endfacet
  facet normal  0.000000e+000  0.000000e+000 -1.000000e+000
    outer loop
      vertex  1.000000e+001  2.331250e+002  0.000000e+000
      vertex -5.500000e+000  2.433970e+002  0.000000e+000
      vertex -5.690301e+000  2.443537e+002  0.000000e+000
    endloop
  endfacet
  facet normal  0.000000e+000  0.000000e+000 -1.000000e+000
    outer loop
      vertex  1.000000e+001  2.331250e+002  0.000000e+000
      vertex -5.690301e+000  2.443537e+002  0.000000e+000
      vertex -6.232233e+000  2.451648e+002  0.000000e+000
    endloop
  endfacet
  facet normal  0.000000e+000  0.000000e+000 -9.999999e-001
    outer loop
      vertex  0.000000e+000  7.000000e+000  0.000000e+000
      vertex -8.000000e+000  3.739930e+001  0.000000e+000
      vertex -7.043292e+000  3.758960e+001  0.000000e+000
    endloop
  endfacet
  facet normal  0.000000e+000  0.000000e+000 -1.000000e+000
    outer loop
      vertex  0.000000e+000  7.000000e+000  0.000000e+000
      vertex -7.043292e+000  3.758960e+001  0.000000e+000
      vertex -6.232233e+000  3.813153e+001  0.000000e+000
    endloop
  endfacet
  facet normal  0.000000e+000  0.000000e+000 -1.000000e+000
    outer loop
      vertex  0.000000e+000  7.000000e+000  0.000000e+000
      vertex -6.232233e+000  3.813153e+001  0.000000e+000
      vertex -5.690301e+000  3.894258e+001  0.000000e+000
    endloop
  endfacet
  facet normal  0.000000e+000  0.000000e+000 -1.000000e+000
    outer loop
      vertex  0.000000e+000  7.000000e+000  0.000000e+000
      vertex -5.690301e+000  3.894258e+001  0.000000e+000
      vertex -5.500000e+000  3.989930e+001  0.000000e+000
    endloop
  endfacet
  facet normal  0.000000e+000  0.000000e+000 -1.000000e+000
    outer loop
      vertex  1.600000e+002  1.300000e+002  0.000000e+000
      vertex  1.600000e+002 -3.000004e+001  0.000000e+000
      vertex  0.000000e+000  0.000000e+000  0.000000e+000
    endloop
  endfacet
  facet normal  0.000000e+000  0.000000e+000 -1.000000e+000
    outer loop
      vertex  1.600000e+002  1.300000e+002  0.000000e+000
      vertex  0.000000e+000  0.000000e+000  0.000000e+000
      vertex  0.000000e+000  7.000000e+000  0.000000e+000
    endloop
  endfacet
  facet normal  0.000000e+000  0.000000e+000 -9.999999e-001
    outer loop
      vertex  1.600000e+002  1.300000e+002  0.000000e+000
      vertex  0.000000e+000  7.000000e+000  0.000000e+000
      vertex -5.500000e+000  3.989930e+001  0.000000e+000
    endloop
  endfacet
  facet normal  0.000000e+000  0.000000e+000 -1.000000e+000
    outer loop
      vertex  1.600000e+002  1.300000e+002  0.000000e+000
      vertex -5.500000e+000  3.989930e+001  0.000000e+000
      vertex -5.690301e+000  4.085600e+001  0.000000e+000
    endloop
  endfacet
  facet normal  0.000000e+000  0.000000e+000 -1.000000e+000
    outer loop
      vertex  1.600000e+002  1.300000e+002  0.000000e+000
      vertex -5.690301e+000  4.085600e+001  0.000000e+000
      vertex -6.232233e+000  4.166706e+001  0.000000e+000
    endloop
  endfacet
  facet normal  0.000000e+000  0.000000e+000 -9.999999e-001
    outer loop
      vertex  1.600000e+002  1.300000e+002  0.000000e+000
      vertex -6.232233e+000  4.166706e+001  0.000000e+000
      vertex -7.043292e+000  4.220899e+001  0.000000e+000
    endloop
  endfacet
  facet normal  0.000000e+000  0.000000e+000 -9.999999e-001
    outer loop
      vertex  1.600000e+002  1.300000e+002  0.000000e+000
      vertex -7.043292e+000  4.220899e+001  0.000000e+000
      vertex -8.000000e+000  4.239930e+001  0.000000e+000
    endloop
  endfacet
  facet normal  0.000000e+000  -0.000000e+000  9.999999e-001
    outer loop
      vertex -1.050000e+001  2.433970e+002  2.000000e+000
      vertex -1.030970e+001  2.443537e+002  2.000000e+000
      vertex -8.000000e+000  4.705000e+002  2.000000e+000
    endloop
  endfacet
  facet normal  0.000000e+000  -0.000000e+000  1.000000e+000
    outer loop
      vertex -1.030970e+001  2.443537e+002  2.000000e+000
      vertex -9.767767e+000  2.451648e+002  2.000000e+000
      vertex -8.000000e+000  4.705000e+002  2.000000e+000
    endloop
  endfacet
  facet normal  0.000000e+000  -0.000000e+000  1.000000e+000
    outer loop
      vertex -9.767767e+000  2.451648e+002  2.000000e+000
      vertex -8.956709e+000  2.457067e+002  2.000000e+000
      vertex -8.000000e+000  4.705000e+002  2.000000e+000
    endloop
  endfacet
  facet normal  0.000000e+000  -0.000000e+000  1.000000e+000
    outer loop
      vertex -8.956709e+000  2.457067e+002  2.000000e+000
      vertex -8.000000e+000  2.458970e+002  2.000000e+000
      vertex -8.000000e+000  4.705000e+002  2.000000e+000
    endloop
  endfacet
  facet normal  0.000000e+000  -0.000000e+000  1.000000e+000
    outer loop
      vertex -1.050000e+001  3.989930e+001  2.000000e+000
      vertex -1.030970e+001  4.085600e+001  2.000000e+000
      vertex -8.000000e+000  2.408970e+002  2.000000e+000
    endloop
  endfacet
  facet normal  0.000000e+000  -0.000000e+000  1.000000e+000
    outer loop
      vertex -1.030970e+001  4.085600e+001  2.000000e+000
      vertex -9.767767e+000  4.166706e+001  2.000000e+000
      vertex -8.000000e+000  2.408970e+002  2.000000e+000
    endloop
  endfacet
  facet normal  0.000000e+000  -0.000000e+000  9.999999e-001
    outer loop
      vertex -9.767767e+000  4.166706e+001  2.000000e+000
      vertex -8.956709e+000  4.220899e+001  2.000000e+000
      vertex -8.000000e+000  2.408970e+002  2.000000e+000
    endloop
  endfacet
  facet normal  0.000000e+000  -0.000000e+000  1.000000e+000
    outer loop
      vertex -8.956709e+000  4.220899e+001  2.000000e+000
      vertex -8.000000e+000  4.239930e+001  2.000000e+000
      vertex -8.000000e+000  2.408970e+002  2.000000e+000
    endloop
  endfacet
  facet normal  0.000000e+000  0.000000e+000  1.000000e+000
    outer loop
      vertex -1.500000e+001  4.930000e+002  2.000000e+000
      vertex -1.500000e+001  7.000000e+000  2.000000e+000
      vertex -1.050000e+001  4.730000e+002  2.000000e+000
    endloop
  endfacet
  facet normal  0.000000e+000  -0.000000e+000  1.000000e+000
    outer loop
      vertex -1.500000e+001  4.930000e+002  2.000000e+000
      vertex -1.050000e+001  4.730000e+002  2.000000e+000
      vertex -1.030970e+001  4.739567e+002  2.000000e+000
    endloop
  endfacet
  facet normal  0.000000e+000  -0.000000e+000  9.999999e-001
    outer loop
      vertex -1.500000e+001  4.930000e+002  2.000000e+000
      vertex -1.030970e+001  4.739567e+002  2.000000e+000
      vertex -9.767767e+000  4.747678e+002  2.000000e+000
    endloop
  endfacet
  facet normal  0.000000e+000  -0.000000e+000  1.000000e+000
    outer loop
      vertex -1.500000e+001  4.930000e+002  2.000000e+000
      vertex -9.767767e+000  4.747678e+002  2.000000e+000
      vertex -8.956709e+000  4.753097e+002  2.000000e+000
    endloop
  endfacet
  facet normal  0.000000e+000  -0.000000e+000  1.000000e+000
    outer loop
      vertex -1.500000e+001  4.930000e+002  2.000000e+000
      vertex -8.956709e+000  4.753097e+002  2.000000e+000
      vertex -8.000000e+000  4.755000e+002  2.000000e+000
    endloop
  endfacet
  facet normal  0.000000e+000  -0.000000e+000  1.000000e+000
    outer loop
      vertex -1.500000e+001  4.930000e+002  2.000000e+000
      vertex -8.000000e+000  4.755000e+002  2.000000e+000
      vertex -9.191070e-001  4.930000e+002  2.000000e+000
    endloop
  endfacet
  facet normal  0.000000e+000  0.000000e+000  1.000000e+000
    outer loop
      vertex -1.500000e+001  7.000000e+000  2.000000e+000
      vertex  0.000000e+000  7.000000e+000  2.000000e+000
      vertex -8.000000e+000  3.739930e+001  2.000000e+000
    endloop
  endfacet
  facet normal  0.000000e+000  0.000000e+000  1.000000e+000
    outer loop
      vertex -1.500000e+001  7.000000e+000  2.000000e+000
      vertex -8.000000e+000  3.739930e+001  2.000000e+000
      vertex -8.956709e+000  3.758960e+001  2.000000e+000
    endloop
  endfacet
  facet normal  0.000000e+000  0.000000e+000  1.000000e+000
    outer loop
      vertex -1.500000e+001  7.000000e+000  2.000000e+000
      vertex -8.956709e+000  3.758960e+001  2.000000e+000
      vertex -9.767767e+000  3.813153e+001  2.000000e+000
    endloop
  endfacet
  facet normal  0.000000e+000  0.000000e+000  1.000000e+000
    outer loop
      vertex -1.500000e+001  7.000000e+000  2.000000e+000
      vertex -9.767767e+000  3.813153e+001  2.000000e+000
      vertex -1.030970e+001  3.894258e+001  2.000000e+000
    endloop
  endfacet
  facet normal  0.000000e+000  0.000000e+000  1.000000e+000
    outer loop
      vertex -1.500000e+001  7.000000e+000  2.000000e+000
      vertex -1.030970e+001  3.894258e+001  2.000000e+000
      vertex -1.050000e+001  3.989930e+001  2.000000e+000
    endloop
  endfacet
  facet normal  0.000000e+000  -0.000000e+000  9.999999e-001
    outer loop
      vertex -1.500000e+001  7.000000e+000  2.000000e+000
      vertex -1.050000e+001  3.989930e+001  2.000000e+000
      vertex -8.000000e+000  2.408970e+002  2.000000e+000
    endloop
  endfacet
  facet normal  0.000000e+000  0.000000e+000  9.999999e-001
    outer loop
      vertex -1.500000e+001  7.000000e+000  2.000000e+000
      vertex -8.000000e+000  2.408970e+002  2.000000e+000
      vertex -8.956709e+000  2.410873e+002  2.000000e+000
    endloop
  endfacet
  facet normal  0.000000e+000  0.000000e+000  1.000000e+000
    outer loop
      vertex -1.500000e+001  7.000000e+000  2.000000e+000
      vertex -8.956709e+000  2.410873e+002  2.000000e+000
      vertex -9.767767e+000  2.416292e+002  2.000000e+000
    endloop
  endfacet
  facet normal  0.000000e+000  0.000000e+000  1.000000e+000
    outer loop
      vertex -1.500000e+001  7.000000e+000  2.000000e+000
      vertex -9.767767e+000  2.416292e+002  2.000000e+000
      vertex -1.030970e+001  2.424403e+002  2.000000e+000
    endloop
  endfacet
  facet normal  0.000000e+000  0.000000e+000  1.000000e+000
    outer loop
      vertex -1.500000e+001  7.000000e+000  2.000000e+000
      vertex -1.030970e+001  2.424403e+002  2.000000e+000
      vertex -1.050000e+001  2.433970e+002  2.000000e+000
    endloop
  endfacet
  facet normal  0.000000e+000  -0.000000e+000  9.999999e-001
    outer loop
      vertex -1.500000e+001  7.000000e+000  2.000000e+000
      vertex -1.050000e+001  2.433970e+002  2.000000e+000
      vertex -8.000000e+000  4.705000e+002  2.000000e+000
    endloop
  endfacet
  facet normal  0.000000e+000  0.000000e+000  1.000000e+000
    outer loop
      vertex -1.500000e+001  7.000000e+000  2.000000e+000
      vertex -8.000000e+000  4.705000e+002  2.000000e+000
      vertex -8.956709e+000  4.706903e+002  2.000000e+000
    endloop
  endfacet
  facet normal  0.000000e+000  0.000000e+000  1.000000e+000
    outer loop
      vertex -1.500000e+001  7.000000e+000  2.000000e+000
      vertex -8.956709e+000  4.706903e+002  2.000000e+000
      vertex -9.767767e+000  4.712322e+002  2.000000e+000
    endloop
  endfacet
  facet normal  0.000000e+000  0.000000e+000  9.999999e-001
    outer loop
      vertex -1.500000e+001  7.000000e+000  2.000000e+000
      vertex -9.767767e+000  4.712322e+002  2.000000e+000
      vertex -1.030970e+001  4.720433e+002  2.000000e+000
    endloop
  endfacet
  facet normal  0.000000e+000  0.000000e+000  1.000000e+000
    outer loop
      vertex -1.500000e+001  7.000000e+000  2.000000e+000
      vertex -1.030970e+001  4.720433e+002  2.000000e+000
      vertex -1.050000e+001  4.730000e+002  2.000000e+000
    endloop
  endfacet
  facet normal  0.000000e+000  0.000000e+000  1.000000e+000
    outer loop
      vertex  1.000000e+001  4.630000e+002  2.000000e+000
      vertex -6.232233e+000  4.747678e+002  2.000000e+000
      vertex -5.690301e+000  4.739567e+002  2.000000e+000
    endloop
  endfacet
  facet normal  0.000000e+000  0.000000e+000  9.999999e-001
    outer loop
      vertex  1.000000e+001  4.630000e+002  2.000000e+000
      vertex -5.690301e+000  4.739567e+002  2.000000e+000
      vertex -5.500000e+000  4.730000e+002  2.000000e+000
    endloop
  endfacet
  facet normal  0.000000e+000  0.000000e+000  1.000000e+000
    outer loop
      vertex  1.000000e+001  4.630000e+002  2.000000e+000
      vertex -5.500000e+000  4.730000e+002  2.000000e+000
      vertex -5.690301e+000  4.720433e+002  2.000000e+000
    endloop
  endfacet
  facet normal  0.000000e+000  0.000000e+000  1.000000e+000
    outer loop
      vertex  1.000000e+001  4.630000e+002  2.000000e+000
      vertex -5.690301e+000  4.720433e+002  2.000000e+000
      vertex -6.232233e+000  4.712322e+002  2.000000e+000
    endloop
  endfacet
  facet normal  0.000000e+000  0.000000e+000  1.000000e+000
    outer loop
      vertex  1.000000e+001  4.630000e+002  2.000000e+000
      vertex -6.232233e+000  4.712322e+002  2.000000e+000
      vertex -7.043292e+000  4.706903e+002  2.000000e+000
    endloop
  endfacet
  facet normal  0.000000e+000  0.000000e+000  9.999999e-001
    outer loop
      vertex  1.000000e+001  4.630000e+002  2.000000e+000
      vertex -7.043292e+000  4.706903e+002  2.000000e+000
      vertex -8.000000e+000  4.705000e+002  2.000000e+000
    endloop
  endfacet
  facet normal  0.000000e+000  0.000000e+000  1.000000e+000
    outer loop
      vertex  1.000000e+001  4.630000e+002  2.000000e+000
      vertex -8.000000e+000  4.705000e+002  2.000000e+000
      vertex -8.000000e+000  2.458970e+002  2.000000e+000
    endloop
  endfacet
  facet normal  -0.000000e+000  0.000000e+000  9.999999e-001
    outer loop
      vertex  1.000000e+001  4.630000e+002  2.000000e+000
      vertex -8.000000e+000  2.458970e+002  2.000000e+000
      vertex -7.043292e+000  2.457067e+002  2.000000e+000
    endloop
  endfacet
  facet normal  -0.000000e+000  0.000000e+000  1.000000e+000
    outer loop
      vertex  1.000000e+001  4.630000e+002  2.000000e+000
      vertex -7.043292e+000  2.457067e+002  2.000000e+000
      vertex -6.232233e+000  2.451648e+002  2.000000e+000
    endloop
  endfacet
  facet normal  -0.000000e+000  0.000000e+000  1.000000e+000
    outer loop
      vertex  1.000000e+001  4.630000e+002  2.000000e+000
      vertex -6.232233e+000  2.451648e+002  2.000000e+000
      vertex  1.000000e+001  2.331250e+002  2.000000e+000
    endloop
  endfacet
  facet normal  -0.000000e+000  0.000000e+000  1.000000e+000
    outer loop
      vertex -9.191070e-001  4.930000e+002  2.000000e+000
      vertex -8.000000e+000  4.755000e+002  2.000000e+000
      vertex -7.043292e+000  4.753097e+002  2.000000e+000
    endloop
  endfacet
  facet normal  -0.000000e+000  0.000000e+000  1.000000e+000
    outer loop
      vertex -9.191070e-001  4.930000e+002  2.000000e+000
      vertex -7.043292e+000  4.753097e+002  2.000000e+000
      vertex -6.232233e+000  4.747678e+002  2.000000e+000
    endloop
  endfacet
  facet normal  -0.000000e+000  0.000000e+000  1.000000e+000
    outer loop
      vertex -9.191070e-001  4.930000e+002  2.000000e+000
      vertex -6.232233e+000  4.747678e+002  2.000000e+000
      vertex  1.000000e+001  4.630000e+002  2.000000e+000
    endloop
  endfacet
  facet normal  0.000000e+000  0.000000e+000  1.000000e+000
    outer loop
      vertex  1.000000e+001  2.331250e+002  2.000000e+000
      vertex -6.232233e+000  2.451648e+002  2.000000e+000
      vertex -5.690301e+000  2.443537e+002  2.000000e+000
    endloop
  endfacet
  facet normal  0.000000e+000  0.000000e+000  1.000000e+000
    outer loop
      vertex  1.000000e+001  2.331250e+002  2.000000e+000
      vertex -5.690301e+000  2.443537e+002  2.000000e+000
      vertex -5.500000e+000  2.433970e+002  2.000000e+000
    endloop
  endfacet
  facet normal  0.000000e+000  0.000000e+000  1.000000e+000
    outer loop
      vertex  1.000000e+001  2.331250e+002  2.000000e+000
      vertex -5.500000e+000  2.433970e+002  2.000000e+000
      vertex -5.690301e+000  2.424403e+002  2.000000e+000
    endloop
  endfacet
  facet normal  0.000000e+000  0.000000e+000  1.000000e+000
    outer loop
      vertex  1.000000e+001  2.331250e+002  2.000000e+000
      vertex -5.690301e+000  2.424403e+002  2.000000e+000
      vertex -6.232233e+000  2.416292e+002  2.000000e+000
    endloop
  endfacet
  facet normal  0.000000e+000  0.000000e+000  1.000000e+000
    outer loop
      vertex  1.000000e+001  2.331250e+002  2.000000e+000
      vertex -6.232233e+000  2.416292e+002  2.000000e+000
      vertex -7.043292e+000  2.410873e+002  2.000000e+000
    endloop
  endfacet
  facet normal  0.000000e+000  0.000000e+000  1.000000e+000
    outer loop
      vertex  1.000000e+001  2.331250e+002  2.000000e+000
      vertex -7.043292e+000  2.410873e+002  2.000000e+000
      vertex -8.000000e+000  2.408970e+002  2.000000e+000
    endloop
  endfacet
  facet normal  0.000000e+000  0.000000e+000  1.000000e+000
    outer loop
      vertex  1.000000e+001  2.331250e+002  2.000000e+000
      vertex -8.000000e+000  2.408970e+002  2.000000e+000
      vertex -8.000000e+000  4.239930e+001  2.000000e+000
    endloop
  endfacet
  facet normal  0.000000e+000  0.000000e+000  1.000000e+000
    outer loop
      vertex  1.000000e+001  2.331250e+002  2.000000e+000
      vertex -8.000000e+000  4.239930e+001  2.000000e+000
      vertex  1.600000e+002  1.300000e+002  2.000000e+000
    endloop
  endfacet
  facet normal  0.000000e+000  0.000000e+000  1.000000e+000
    outer loop
      vertex  0.000000e+000  7.000000e+000  2.000000e+000
      vertex -5.500000e+000  3.989930e+001  2.000000e+000
      vertex -5.690301e+000  3.894258e+001  2.000000e+000
    endloop
  endfacet
  facet normal  0.000000e+000  0.000000e+000  1.000000e+000
    outer loop
      vertex  0.000000e+000  7.000000e+000  2.000000e+000
      vertex -5.690301e+000  3.894258e+001  2.000000e+000
      vertex -6.232233e+000  3.813153e+001  2.000000e+000
    endloop
  endfacet
  facet normal  0.000000e+000  0.000000e+000  1.000000e+000
    outer loop
      vertex  0.000000e+000  7.000000e+000  2.000000e+000
      vertex -6.232233e+000  3.813153e+001  2.000000e+000
      vertex -7.043292e+000  3.758960e+001  2.000000e+000
    endloop
  endfacet
  facet normal  0.000000e+000  0.000000e+000  9.999999e-001
    outer loop
      vertex  0.000000e+000  7.000000e+000  2.000000e+000
      vertex -7.043292e+000  3.758960e+001  2.000000e+000
      vertex -8.000000e+000  3.739930e+001  2.000000e+000
    endloop
  endfacet
  facet normal  -0.000000e+000  0.000000e+000  9.999999e-001
    outer loop
      vertex  1.600000e+002  1.300000e+002  2.000000e+000
      vertex -8.000000e+000  4.239930e+001  2.000000e+000
      vertex -7.043292e+000  4.220899e+001  2.000000e+000
    endloop
  endfacet
  facet normal  -0.000000e+000  0.000000e+000  9.999999e-001
    outer loop
      vertex  1.600000e+002  1.300000e+002  2.000000e+000
      vertex -7.043292e+000  4.220899e+001  2.000000e+000
      vertex -6.232233e+000  4.166706e+001  2.000000e+000
    endloop
  endfacet
  facet normal  -0.000000e+000  0.000000e+000  1.000000e+000
    outer loop
      vertex  1.600000e+002  1.300000e+002  2.000000e+000
      vertex -6.232233e+000  4.166706e+001  2.000000e+000
      vertex -5.690301e+000  4.085600e+001  2.000000e+000
    endloop
  endfacet
  facet normal  -0.000000e+000  0.000000e+000  1.000000e+000
    outer loop
      vertex  1.600000e+002  1.300000e+002  2.000000e+000
      vertex -5.690301e+000  4.085600e+001  2.000000e+000
      vertex -5.500000e+000  3.989930e+001  2.000000e+000
    endloop
  endfacet
  facet normal  -0.000000e+000  0.000000e+000  9.999999e-001
    outer loop
      vertex  1.600000e+002  1.300000e+002  2.000000e+000
      vertex -5.500000e+000  3.989930e+001  2.000000e+000
      vertex  0.000000e+000  7.000000e+000  2.000000e+000
    endloop
  endfacet
  facet normal  -0.000000e+000  0.000000e+000  1.000000e+000
    outer loop
      vertex  1.600000e+002  1.300000e+002  2.000000e+000
      vertex  0.000000e+000  7.000000e+000  2.000000e+000
      vertex  0.000000e+000  0.000000e+000  2.000000e+000
    endloop
  endfacet
  facet normal  -0.000000e+000  0.000000e+000  9.999999e-001
    outer loop
      vertex  1.600000e+002  1.300000e+002  2.000000e+000
      vertex  0.000000e+000  0.000000e+000  2.000000e+000
      vertex  1.600000e+002 -3.000004e+001  2.000000e+000
    endloop
  endfacet
  facet normal  1.950816e-001 -9.807870e-001  0.000000e+000
    outer loop
      vertex -8.000000e+000  2.458970e+002  0.000000e+000
      vertex -8.956709e+000  2.457067e+002  2.000000e+000
      vertex -8.956709e+000  2.457067e+002  0.000000e+000
    endloop
  endfacet
  facet normal  5.555699e-001 -8.314698e-001  0.000000e+000
    outer loop
      vertex -8.956709e+000  2.457067e+002  0.000000e+000
      vertex -8.956709e+000  2.457067e+002  2.000000e+000
      vertex -9.767767e+000  2.451648e+002  2.000000e+000
    endloop
  endfacet
  facet normal  5.555699e-001 -8.314698e-001  0.000000e+000
    outer loop
      vertex -8.956709e+000  2.457067e+002  0.000000e+000
      vertex -9.767767e+000  2.451648e+002  2.000000e+000
      vertex -9.767767e+000  2.451648e+002  0.000000e+000
    endloop
  endfacet
  facet normal  8.314719e-001 -5.555670e-001  0.000000e+000
    outer loop
      vertex -9.767767e+000  2.451648e+002  0.000000e+000
      vertex -9.767767e+000  2.451648e+002  2.000000e+000
      vertex -1.030970e+001  2.443537e+002  2.000000e+000
    endloop
  endfacet
  facet normal  8.314719e-001 -5.555670e-001  0.000000e+000
    outer loop
      vertex -9.767767e+000  2.451648e+002  0.000000e+000
      vertex -1.030970e+001  2.443537e+002  2.000000e+000
      vertex -1.030970e+001  2.443537e+002  0.000000e+000
    endloop
  endfacet
  facet normal  9.807854e-001 -1.950897e-001  0.000000e+000
    outer loop
      vertex -1.030970e+001  2.443537e+002  0.000000e+000
      vertex -1.030970e+001  2.443537e+002  2.000000e+000
      vertex -1.050000e+001  2.433970e+002  2.000000e+000
    endloop
  endfacet
  facet normal  9.807854e-001 -1.950897e-001  0.000000e+000
    outer loop
      vertex -1.030970e+001  2.443537e+002  0.000000e+000
      vertex -1.050000e+001  2.433970e+002  2.000000e+000
      vertex -1.050000e+001  2.433970e+002  0.000000e+000
    endloop
  endfacet
  facet normal  1.950816e-001 -9.807870e-001  0.000000e+000
    outer loop
      vertex -8.956709e+000  2.457067e+002  2.000000e+000
      vertex -8.000000e+000  2.458970e+002  0.000000e+000
      vertex -8.000000e+000  2.458970e+002  2.000000e+000
    endloop
  endfacet
  facet normal -1.950817e-001 -9.807870e-001  -0.000000e+000
    outer loop
      vertex -8.000000e+000  2.458970e+002  2.000000e+000
      vertex -8.000000e+000  2.458970e+002  0.000000e+000
      vertex -7.043292e+000  2.457067e+002  0.000000e+000
    endloop
  endfacet
  facet normal -1.950817e-001 -9.807870e-001  0.000000e+000
    outer loop
      vertex -8.000000e+000  2.458970e+002  2.000000e+000
      vertex -7.043292e+000  2.457067e+002  0.000000e+000
      vertex -7.043292e+000  2.457067e+002  2.000000e+000
    endloop
  endfacet
  facet normal -5.555696e-001 -8.314700e-001  -0.000000e+000
    outer loop
      vertex -7.043292e+000  2.457067e+002  2.000000e+000
      vertex -7.043292e+000  2.457067e+002  0.000000e+000
      vertex -6.232233e+000  2.451648e+002  0.000000e+000
    endloop
  endfacet
  facet normal -5.555696e-001 -8.314700e-001  0.000000e+000
    outer loop
      vertex -7.043292e+000  2.457067e+002  2.000000e+000
      vertex -6.232233e+000  2.451648e+002  0.000000e+000
      vertex -6.232233e+000  2.451648e+002  2.000000e+000
    endloop
  endfacet
  facet normal -8.314719e-001 -5.555670e-001  -0.000000e+000
    outer loop
      vertex -6.232233e+000  2.451648e+002  2.000000e+000
      vertex -6.232233e+000  2.451648e+002  0.000000e+000
      vertex -5.690301e+000  2.443537e+002  0.000000e+000
    endloop
  endfacet
  facet normal -8.314719e-001 -5.555670e-001  0.000000e+000
    outer loop
      vertex -6.232233e+000  2.451648e+002  2.000000e+000
      vertex -5.690301e+000  2.443537e+002  0.000000e+000
      vertex -5.690301e+000  2.443537e+002  2.000000e+000
    endloop
  endfacet
  facet normal -9.807854e-001 -1.950897e-001  -0.000000e+000
    outer loop
      vertex -5.690301e+000  2.443537e+002  2.000000e+000
      vertex -5.690301e+000  2.443537e+002  0.000000e+000
      vertex -5.500000e+000  2.433970e+002  0.000000e+000
    endloop
  endfacet
  facet normal -9.807854e-001 -1.950897e-001  0.000000e+000
    outer loop
      vertex -5.690301e+000  2.443537e+002  2.000000e+000
      vertex -5.500000e+000  2.433970e+002  0.000000e+000
      vertex -5.500000e+000  2.433970e+002  2.000000e+000
    endloop
  endfacet
  facet normal -1.950967e-001  9.807839e-001  0.000000e+000
    outer loop
      vertex -8.000000e+000  2.408970e+002  0.000000e+000
      vertex -7.043292e+000  2.410873e+002  2.000000e+000
      vertex -7.043292e+000  2.410873e+002  0.000000e+000
    endloop
  endfacet
  facet normal -5.555696e-001  8.314700e-001  0.000000e+000
    outer loop
      vertex -7.043292e+000  2.410873e+002  0.000000e+000
      vertex -7.043292e+000  2.410873e+002  2.000000e+000
      vertex -6.232233e+000  2.416292e+002  2.000000e+000
    endloop
  endfacet
  facet normal -5.555696e-001  8.314700e-001  0.000000e+000
    outer loop
      vertex -7.043292e+000  2.410873e+002  0.000000e+000
      vertex -6.232233e+000  2.416292e+002  2.000000e+000
      vertex -6.232233e+000  2.416292e+002  0.000000e+000
    endloop
  endfacet
  facet normal -8.314670e-001  5.555741e-001  0.000000e+000
    outer loop
      vertex -6.232233e+000  2.416292e+002  0.000000e+000
      vertex -6.232233e+000  2.416292e+002  2.000000e+000
      vertex -5.690301e+000  2.424403e+002  2.000000e+000
    endloop
  endfacet
  facet normal -8.314670e-001  5.555741e-001  0.000000e+000
    outer loop
      vertex -6.232233e+000  2.416292e+002  0.000000e+000
      vertex -5.690301e+000  2.424403e+002  2.000000e+000
      vertex -5.690301e+000  2.424403e+002  0.000000e+000
    endloop
  endfacet
  facet normal -9.807854e-001  1.950897e-001  0.000000e+000
    outer loop
      vertex -5.690301e+000  2.424403e+002  0.000000e+000
      vertex -5.690301e+000  2.424403e+002  2.000000e+000
      vertex -5.500000e+000  2.433970e+002  2.000000e+000
    endloop
  endfacet
  facet normal -9.807854e-001  1.950897e-001  0.000000e+000
    outer loop
      vertex -5.690301e+000  2.424403e+002  0.000000e+000
      vertex -5.500000e+000  2.433970e+002  2.000000e+000
      vertex -5.500000e+000  2.433970e+002  0.000000e+000
    endloop
  endfacet
  facet normal -1.950967e-001  9.807839e-001  0.000000e+000
    outer loop
      vertex -7.043292e+000  2.410873e+002  2.000000e+000
      vertex -8.000000e+000  2.408970e+002  0.000000e+000
      vertex -8.000000e+000  2.408970e+002  2.000000e+000
    endloop
  endfacet
  facet normal  1.950966e-001  9.807840e-001  0.000000e+000
    outer loop
      vertex -8.000000e+000  2.408970e+002  2.000000e+000
      vertex -8.000000e+000  2.408970e+002  0.000000e+000
      vertex -8.956709e+000  2.410873e+002  0.000000e+000
    endloop
  endfacet
  facet normal  1.950966e-001  9.807840e-001  -0.000000e+000
    outer loop
      vertex -8.000000e+000  2.408970e+002  2.000000e+000
      vertex -8.956709e+000  2.410873e+002  0.000000e+000
      vertex -8.956709e+000  2.410873e+002  2.000000e+000
    endloop
  endfacet
  facet normal  5.555699e-001  8.314698e-001  0.000000e+000
    outer loop
      vertex -8.956709e+000  2.410873e+002  2.000000e+000
      vertex -8.956709e+000  2.410873e+002  0.000000e+000
      vertex -9.767767e+000  2.416292e+002  0.000000e+000
    endloop
  endfacet
  facet normal  5.555699e-001  8.314698e-001  -0.000000e+000
    outer loop
      vertex -8.956709e+000  2.410873e+002  2.000000e+000
      vertex -9.767767e+000  2.416292e+002  0.000000e+000
      vertex -9.767767e+000  2.416292e+002  2.000000e+000
    endloop
  endfacet
  facet normal  8.314670e-001  5.555741e-001  0.000000e+000
    outer loop
      vertex -9.767767e+000  2.416292e+002  2.000000e+000
      vertex -9.767767e+000  2.416292e+002  0.000000e+000
      vertex -1.030970e+001  2.424403e+002  0.000000e+000
    endloop
  endfacet
  facet normal  8.314670e-001  5.555741e-001  -0.000000e+000
    outer loop
      vertex -9.767767e+000  2.416292e+002  2.000000e+000
      vertex -1.030970e+001  2.424403e+002  0.000000e+000
      vertex -1.030970e+001  2.424403e+002  2.000000e+000
    endloop
  endfacet
  facet normal  9.807854e-001  1.950897e-001  0.000000e+000
    outer loop
      vertex -1.030970e+001  2.424403e+002  2.000000e+000
      vertex -1.030970e+001  2.424403e+002  0.000000e+000
      vertex -1.050000e+001  2.433970e+002  0.000000e+000
    endloop
  endfacet
  facet normal  9.807854e-001  1.950897e-001  -0.000000e+000
    outer loop
      vertex -1.030970e+001  2.424403e+002  2.000000e+000
      vertex -1.050000e+001  2.433970e+002  0.000000e+000
      vertex -1.050000e+001  2.433970e+002  2.000000e+000
    endloop
  endfacet
  facet normal  1.950929e-001 -9.807848e-001  0.000000e+000
    outer loop
      vertex -8.000000e+000  4.239930e+001  0.000000e+000
      vertex -8.956709e+000  4.220899e+001  2.000000e+000
      vertex -8.956709e+000  4.220899e+001  0.000000e+000
    endloop
  endfacet
  facet normal  5.555699e-001 -8.314698e-001  0.000000e+000
    outer loop
      vertex -8.956709e+000  4.220899e+001  0.000000e+000
      vertex -8.956709e+000  4.220899e+001  2.000000e+000
      vertex -9.767767e+000  4.166706e+001  2.000000e+000
    endloop
  endfacet
  facet normal  5.555699e-001 -8.314698e-001  0.000000e+000
    outer loop
      vertex -8.956709e+000  4.220899e+001  0.000000e+000
      vertex -9.767767e+000  4.166706e+001  2.000000e+000
      vertex -9.767767e+000  4.166706e+001  0.000000e+000
    endloop
  endfacet
  facet normal  8.314694e-001 -5.555705e-001  0.000000e+000
    outer loop
      vertex -9.767767e+000  4.166706e+001  0.000000e+000
      vertex -9.767767e+000  4.166706e+001  2.000000e+000
      vertex -1.030970e+001  4.085600e+001  2.000000e+000
    endloop
  endfacet
  facet normal  8.314694e-001 -5.555705e-001  0.000000e+000
    outer loop
      vertex -9.767767e+000  4.166706e+001  0.000000e+000
      vertex -1.030970e+001  4.085600e+001  2.000000e+000
      vertex -1.030970e+001  4.085600e+001  0.000000e+000
    endloop
  endfacet
  facet normal  9.807853e-001 -1.950904e-001  0.000000e+000
    outer loop
      vertex -1.030970e+001  4.085600e+001  0.000000e+000
      vertex -1.030970e+001  4.085600e+001  2.000000e+000
      vertex -1.050000e+001  3.989930e+001  2.000000e+000
    endloop
  endfacet
  facet normal  9.807853e-001 -1.950904e-001  0.000000e+000
    outer loop
      vertex -1.030970e+001  4.085600e+001  0.000000e+000
      vertex -1.050000e+001  3.989930e+001  2.000000e+000
      vertex -1.050000e+001  3.989930e+001  0.000000e+000
    endloop
  endfacet
  facet normal  1.950929e-001 -9.807848e-001  0.000000e+000
    outer loop
      vertex -8.956709e+000  4.220899e+001  2.000000e+000
      vertex -8.000000e+000  4.239930e+001  0.000000e+000
      vertex -8.000000e+000  4.239930e+001  2.000000e+000
    endloop
  endfacet
  facet normal -1.950929e-001 -9.807848e-001  -0.000000e+000
    outer loop
      vertex -8.000000e+000  4.239930e+001  2.000000e+000
      vertex -8.000000e+000  4.239930e+001  0.000000e+000
      vertex -7.043292e+000  4.220899e+001  0.000000e+000
    endloop
  endfacet
  facet normal -1.950929e-001 -9.807848e-001  0.000000e+000
    outer loop
      vertex -8.000000e+000  4.239930e+001  2.000000e+000
      vertex -7.043292e+000  4.220899e+001  0.000000e+000
      vertex -7.043292e+000  4.220899e+001  2.000000e+000
    endloop
  endfacet
  facet normal -5.555696e-001 -8.314700e-001  -0.000000e+000
    outer loop
      vertex -7.043292e+000  4.220899e+001  2.000000e+000
      vertex -7.043292e+000  4.220899e+001  0.000000e+000
      vertex -6.232233e+000  4.166706e+001  0.000000e+000
    endloop
  endfacet
  facet normal -5.555696e-001 -8.314700e-001  0.000000e+000
    outer loop
      vertex -7.043292e+000  4.220899e+001  2.000000e+000
      vertex -6.232233e+000  4.166706e+001  0.000000e+000
      vertex -6.232233e+000  4.166706e+001  2.000000e+000
    endloop
  endfacet
  facet normal -8.314694e-001 -5.555705e-001  -0.000000e+000
    outer loop
      vertex -6.232233e+000  4.166706e+001  2.000000e+000
      vertex -6.232233e+000  4.166706e+001  0.000000e+000
      vertex -5.690301e+000  4.085600e+001  0.000000e+000
    endloop
  endfacet
  facet normal -8.314694e-001 -5.555705e-001  0.000000e+000
    outer loop
      vertex -6.232233e+000  4.166706e+001  2.000000e+000
      vertex -5.690301e+000  4.085600e+001  0.000000e+000
      vertex -5.690301e+000  4.085600e+001  2.000000e+000
    endloop
  endfacet
  facet normal -9.807853e-001 -1.950904e-001  -0.000000e+000
    outer loop
      vertex -5.690301e+000  4.085600e+001  2.000000e+000
      vertex -5.690301e+000  4.085600e+001  0.000000e+000
      vertex -5.500000e+000  3.989930e+001  0.000000e+000
    endloop
  endfacet
  facet normal -9.807853e-001 -1.950904e-001  0.000000e+000
    outer loop
      vertex -5.690301e+000  4.085600e+001  2.000000e+000
      vertex -5.500000e+000  3.989930e+001  0.000000e+000
      vertex -5.500000e+000  3.989930e+001  2.000000e+000
    endloop
  endfacet
  facet normal -1.950892e-001  9.807855e-001  0.000000e+000
    outer loop
      vertex -8.000000e+000  3.739930e+001  0.000000e+000
      vertex -7.043292e+000  3.758960e+001  2.000000e+000
      vertex -7.043292e+000  3.758960e+001  0.000000e+000
    endloop
  endfacet
  facet normal -5.555696e-001  8.314700e-001  0.000000e+000
    outer loop
      vertex -7.043292e+000  3.758960e+001  0.000000e+000
      vertex -7.043292e+000  3.758960e+001  2.000000e+000
      vertex -6.232233e+000  3.813153e+001  2.000000e+000
    endloop
  endfacet
  facet normal -5.555696e-001  8.314700e-001  0.000000e+000
    outer loop
      vertex -7.043292e+000  3.758960e+001  0.000000e+000
      vertex -6.232233e+000  3.813153e+001  2.000000e+000
      vertex -6.232233e+000  3.813153e+001  0.000000e+000
    endloop
  endfacet
  facet normal -8.314694e-001  5.555705e-001  0.000000e+000
    outer loop
      vertex -6.232233e+000  3.813153e+001  0.000000e+000
      vertex -6.232233e+000  3.813153e+001  2.000000e+000
      vertex -5.690301e+000  3.894258e+001  2.000000e+000
    endloop
  endfacet
  facet normal -8.314694e-001  5.555705e-001  0.000000e+000
    outer loop
      vertex -6.232233e+000  3.813153e+001  0.000000e+000
      vertex -5.690301e+000  3.894258e+001  2.000000e+000
      vertex -5.690301e+000  3.894258e+001  0.000000e+000
    endloop
  endfacet
  facet normal -9.807854e-001  1.950897e-001  0.000000e+000
    outer loop
      vertex -5.690301e+000  3.894258e+001  0.000000e+000
      vertex -5.690301e+000  3.894258e+001  2.000000e+000
      vertex -5.500000e+000  3.989930e+001  2.000000e+000
    endloop
  endfacet
  facet normal -9.807854e-001  1.950897e-001  0.000000e+000
    outer loop
      vertex -5.690301e+000  3.894258e+001  0.000000e+000
      vertex -5.500000e+000  3.989930e+001  2.000000e+000
      vertex -5.500000e+000  3.989930e+001  0.000000e+000
    endloop
  endfacet
  facet normal -1.950892e-001  9.807855e-001  0.000000e+000
    outer loop
      vertex -7.043292e+000  3.758960e+001  2.000000e+000
      vertex -8.000000e+000  3.739930e+001  0.000000e+000
      vertex -8.000000e+000  3.739930e+001  2.000000e+000
    endloop
  endfacet
  facet normal  1.950891e-001  9.807855e-001  0.000000e+000
    outer loop
      vertex -8.000000e+000  3.739930e+001  2.000000e+000
      vertex -8.000000e+000  3.739930e+001  0.000000e+000
      vertex -8.956709e+000  3.758960e+001  0.000000e+000
    endloop
  endfacet
  facet normal  1.950891e-001  9.807855e-001  -0.000000e+000
    outer loop
      vertex -8.000000e+000  3.739930e+001  2.000000e+000
      vertex -8.956709e+000  3.758960e+001  0.000000e+000
      vertex -8.956709e+000  3.758960e+001  2.000000e+000
    endloop
  endfacet
  facet normal  5.555699e-001  8.314698e-001  0.000000e+000
    outer loop
      vertex -8.956709e+000  3.758960e+001  2.000000e+000
      vertex -8.956709e+000  3.758960e+001  0.000000e+000
      vertex -9.767767e+000  3.813153e+001  0.000000e+000
    endloop
  endfacet
  facet normal  5.555699e-001  8.314698e-001  -0.000000e+000
    outer loop
      vertex -8.956709e+000  3.758960e+001  2.000000e+000
      vertex -9.767767e+000  3.813153e+001  0.000000e+000
      vertex -9.767767e+000  3.813153e+001  2.000000e+000
    endloop
  endfacet
  facet normal  8.314694e-001  5.555705e-001  0.000000e+000
    outer loop
      vertex -9.767767e+000  3.813153e+001  2.000000e+000
      vertex -9.767767e+000  3.813153e+001  0.000000e+000
      vertex -1.030970e+001  3.894258e+001  0.000000e+000
    endloop
  endfacet
  facet normal  8.314694e-001  5.555705e-001  -0.000000e+000
    outer loop
      vertex -9.767767e+000  3.813153e+001  2.000000e+000
      vertex -1.030970e+001  3.894258e+001  0.000000e+000
      vertex -1.030970e+001  3.894258e+001  2.000000e+000
    endloop
  endfacet
  facet normal  9.807854e-001  1.950897e-001  0.000000e+000
    outer loop
      vertex -1.030970e+001  3.894258e+001  2.000000e+000
      vertex -1.030970e+001  3.894258e+001  0.000000e+000
      vertex -1.050000e+001  3.989930e+001  0.000000e+000
    endloop
  endfacet
  facet normal  9.807854e-001  1.950897e-001  -0.000000e+000
    outer loop
      vertex -1.030970e+001  3.894258e+001  2.000000e+000
      vertex -1.050000e+001  3.989930e+001  0.000000e+000
      vertex -1.050000e+001  3.989930e+001  2.000000e+000
    endloop
  endfacet
  facet normal -1.950967e-001 -9.807839e-001  0.000000e+000
    outer loop
      vertex -8.000000e+000  4.755000e+002  2.000000e+000
      vertex -7.043292e+000  4.753097e+002  0.000000e+000
      vertex -7.043292e+000  4.753097e+002  2.000000e+000
    endloop
  endfacet
  facet normal -5.555696e-001 -8.314700e-001  -0.000000e+000
    outer loop
      vertex -7.043292e+000  4.753097e+002  2.000000e+000
      vertex -7.043292e+000  4.753097e+002  0.000000e+000
      vertex -6.232233e+000  4.747678e+002  0.000000e+000
    endloop
  endfacet
  facet normal -5.555696e-001 -8.314700e-001  0.000000e+000
    outer loop
      vertex -7.043292e+000  4.753097e+002  2.000000e+000
      vertex -6.232233e+000  4.747678e+002  0.000000e+000
      vertex -6.232233e+000  4.747678e+002  2.000000e+000
    endloop
  endfacet
  facet normal -8.314719e-001 -5.555670e-001  -0.000000e+000
    outer loop
      vertex -6.232233e+000  4.747678e+002  2.000000e+000
      vertex -6.232233e+000  4.747678e+002  0.000000e+000
      vertex -5.690301e+000  4.739567e+002  0.000000e+000
    endloop
  endfacet
  facet normal -8.314719e-001 -5.555670e-001  0.000000e+000
    outer loop
      vertex -6.232233e+000  4.747678e+002  2.000000e+000
      vertex -5.690301e+000  4.739567e+002  0.000000e+000
      vertex -5.690301e+000  4.739567e+002  2.000000e+000
    endloop
  endfacet
  facet normal -9.807848e-001 -1.950926e-001  -0.000000e+000
    outer loop
      vertex -5.690301e+000  4.739567e+002  2.000000e+000
      vertex -5.690301e+000  4.739567e+002  0.000000e+000
      vertex -5.500000e+000  4.730000e+002  0.000000e+000
    endloop
  endfacet
  facet normal -9.807848e-001 -1.950926e-001  0.000000e+000
    outer loop
      vertex -5.690301e+000  4.739567e+002  2.000000e+000
      vertex -5.500000e+000  4.730000e+002  0.000000e+000
      vertex -5.500000e+000  4.730000e+002  2.000000e+000
    endloop
  endfacet
  facet normal -1.950967e-001 -9.807839e-001  -0.000000e+000
    outer loop
      vertex -7.043292e+000  4.753097e+002  0.000000e+000
      vertex -8.000000e+000  4.755000e+002  2.000000e+000
      vertex -8.000000e+000  4.755000e+002  0.000000e+000
    endloop
  endfacet
  facet normal  1.950966e-001 -9.807840e-001  0.000000e+000
    outer loop
      vertex -8.000000e+000  4.755000e+002  0.000000e+000
      vertex -8.000000e+000  4.755000e+002  2.000000e+000
      vertex -8.956709e+000  4.753097e+002  2.000000e+000
    endloop
  endfacet
  facet normal  1.950966e-001 -9.807840e-001  0.000000e+000
    outer loop
      vertex -8.000000e+000  4.755000e+002  0.000000e+000
      vertex -8.956709e+000  4.753097e+002  2.000000e+000
      vertex -8.956709e+000  4.753097e+002  0.000000e+000
    endloop
  endfacet
  facet normal  5.555699e-001 -8.314698e-001  0.000000e+000
    outer loop
      vertex -8.956709e+000  4.753097e+002  0.000000e+000
      vertex -8.956709e+000  4.753097e+002  2.000000e+000
      vertex -9.767767e+000  4.747678e+002  2.000000e+000
    endloop
  endfacet
  facet normal  5.555699e-001 -8.314698e-001  0.000000e+000
    outer loop
      vertex -8.956709e+000  4.753097e+002  0.000000e+000
      vertex -9.767767e+000  4.747678e+002  2.000000e+000
      vertex -9.767767e+000  4.747678e+002  0.000000e+000
    endloop
  endfacet
  facet normal  8.314719e-001 -5.555670e-001  0.000000e+000
    outer loop
      vertex -9.767767e+000  4.747678e+002  0.000000e+000
      vertex -9.767767e+000  4.747678e+002  2.000000e+000
      vertex -1.030970e+001  4.739567e+002  2.000000e+000
    endloop
  endfacet
  facet normal  8.314719e-001 -5.555670e-001  0.000000e+000
    outer loop
      vertex -9.767767e+000  4.747678e+002  0.000000e+000
      vertex -1.030970e+001  4.739567e+002  2.000000e+000
      vertex -1.030970e+001  4.739567e+002  0.000000e+000
    endloop
  endfacet
  facet normal  9.807848e-001 -1.950926e-001  0.000000e+000
    outer loop
      vertex -1.030970e+001  4.739567e+002  0.000000e+000
      vertex -1.030970e+001  4.739567e+002  2.000000e+000
      vertex -1.050000e+001  4.730000e+002  2.000000e+000
    endloop
  endfacet
  facet normal  9.807848e-001 -1.950926e-001  0.000000e+000
    outer loop
      vertex -1.030970e+001  4.739567e+002  0.000000e+000
      vertex -1.050000e+001  4.730000e+002  2.000000e+000
      vertex -1.050000e+001  4.730000e+002  0.000000e+000
    endloop
  endfacet
  facet normal  1.950966e-001  9.807840e-001  -0.000000e+000
    outer loop
      vertex -8.000000e+000  4.705000e+002  2.000000e+000
      vertex -8.956709e+000  4.706903e+002  0.000000e+000
      vertex -8.956709e+000  4.706903e+002  2.000000e+000
    endloop
  endfacet
  facet normal  5.555699e-001  8.314698e-001  0.000000e+000
    outer loop
      vertex -8.956709e+000  4.706903e+002  2.000000e+000
      vertex -8.956709e+000  4.706903e+002  0.000000e+000
      vertex -9.767767e+000  4.712322e+002  0.000000e+000
    endloop
  endfacet
  facet normal  5.555699e-001  8.314698e-001  -0.000000e+000
    outer loop
      vertex -8.956709e+000  4.706903e+002  2.000000e+000
      vertex -9.767767e+000  4.712322e+002  0.000000e+000
      vertex -9.767767e+000  4.712322e+002  2.000000e+000
    endloop
  endfacet
  facet normal  8.314719e-001  5.555670e-001  0.000000e+000
    outer loop
      vertex -9.767767e+000  4.712322e+002  2.000000e+000
      vertex -9.767767e+000  4.712322e+002  0.000000e+000
      vertex -1.030970e+001  4.720433e+002  0.000000e+000
    endloop
  endfacet
  facet normal  8.314719e-001  5.555670e-001  -0.000000e+000
    outer loop
      vertex -9.767767e+000  4.712322e+002  2.000000e+000
      vertex -1.030970e+001  4.720433e+002  0.000000e+000
      vertex -1.030970e+001  4.720433e+002  2.000000e+000
    endloop
  endfacet
  facet normal  9.807848e-001  1.950926e-001  0.000000e+000
    outer loop
      vertex -1.030970e+001  4.720433e+002  2.000000e+000
      vertex -1.030970e+001  4.720433e+002  0.000000e+000
      vertex -1.050000e+001  4.730000e+002  0.000000e+000
    endloop
  endfacet
  facet normal  9.807848e-001  1.950926e-001  -0.000000e+000
    outer loop
      vertex -1.030970e+001  4.720433e+002  2.000000e+000
      vertex -1.050000e+001  4.730000e+002  0.000000e+000
      vertex -1.050000e+001  4.730000e+002  2.000000e+000
    endloop
  endfacet
  facet normal  1.950966e-001  9.807840e-001  0.000000e+000
    outer loop
      vertex -8.956709e+000  4.706903e+002  0.000000e+000
      vertex -8.000000e+000  4.705000e+002  2.000000e+000
      vertex -8.000000e+000  4.705000e+002  0.000000e+000
    endloop
  endfacet
  facet normal -1.950967e-001  9.807839e-001  0.000000e+000
    outer loop
      vertex -8.000000e+000  4.705000e+002  0.000000e+000
      vertex -8.000000e+000  4.705000e+002  2.000000e+000
      vertex -7.043292e+000  4.706903e+002  2.000000e+000
    endloop
  endfacet
  facet normal -1.950967e-001  9.807839e-001  0.000000e+000
    outer loop
      vertex -8.000000e+000  4.705000e+002  0.000000e+000
      vertex -7.043292e+000  4.706903e+002  2.000000e+000
      vertex -7.043292e+000  4.706903e+002  0.000000e+000
    endloop
  endfacet
  facet normal -5.555696e-001  8.314700e-001  0.000000e+000
    outer loop
      vertex -7.043292e+000  4.706903e+002  0.000000e+000
      vertex -7.043292e+000  4.706903e+002  2.000000e+000
      vertex -6.232233e+000  4.712322e+002  2.000000e+000
    endloop
  endfacet
  facet normal -5.555696e-001  8.314700e-001  0.000000e+000
    outer loop
      vertex -7.043292e+000  4.706903e+002  0.000000e+000
      vertex -6.232233e+000  4.712322e+002  2.000000e+000
      vertex -6.232233e+000  4.712322e+002  0.000000e+000
    endloop
  endfacet
  facet normal -8.314719e-001  5.555670e-001  0.000000e+000
    outer loop
      vertex -6.232233e+000  4.712322e+002  0.000000e+000
      vertex -6.232233e+000  4.712322e+002  2.000000e+000
      vertex -5.690301e+000  4.720433e+002  2.000000e+000
    endloop
  endfacet
  facet normal -8.314719e-001  5.555670e-001  0.000000e+000
    outer loop
      vertex -6.232233e+000  4.712322e+002  0.000000e+000
      vertex -5.690301e+000  4.720433e+002  2.000000e+000
      vertex -5.690301e+000  4.720433e+002  0.000000e+000
    endloop
  endfacet
  facet normal -9.807848e-001  1.950926e-001  0.000000e+000
    outer loop
      vertex -5.690301e+000  4.720433e+002  0.000000e+000
      vertex -5.690301e+000  4.720433e+002  2.000000e+000
      vertex -5.500000e+000  4.730000e+002  2.000000e+000
    endloop
  endfacet
  facet normal -9.807848e-001  1.950926e-001  0.000000e+000
    outer loop
      vertex -5.690301e+000  4.720433e+002  0.000000e+000
      vertex -5.500000e+000  4.730000e+002  2.000000e+000
      vertex -5.500000e+000  4.730000e+002  0.000000e+000
    endloop
  endfacet
  facet normal  0.000000e+000 -1.000000e+000  0.000000e+000
    outer loop
      vertex -1.500000e+001  7.000000e+000  0.000000e+000
      vertex  0.000000e+000  7.000000e+000  0.000000e+000
      vertex -1.500000e+001  7.000000e+000  2.000000e+000
    endloop
  endfacet
  facet normal  0.000000e+000 -1.000000e+000  0.000000e+000
    outer loop
      vertex -1.500000e+001  7.000000e+000  2.000000e+000
      vertex  0.000000e+000  7.000000e+000  0.000000e+000
      vertex  0.000000e+000  7.000000e+000  2.000000e+000
    endloop
  endfacet
  facet normal  1.000000e+000  0.000000e+000  0.000000e+000
    outer loop
      vertex  1.000000e+001  2.331250e+002  0.000000e+000
      vertex  1.000000e+001  4.630000e+002  0.000000e+000
      vertex  1.000000e+001  2.331250e+002  2.000000e+000
    endloop
  endfacet
  facet normal  1.000000e+000  -0.000000e+000  0.000000e+000
    outer loop
      vertex  1.000000e+001  2.331250e+002  2.000000e+000
      vertex  1.000000e+001  4.630000e+002  0.000000e+000
      vertex  1.000000e+001  4.630000e+002  2.000000e+000
    endloop
  endfacet
  facet normal -1.000000e+000  0.000000e+000  0.000000e+000
    outer loop
      vertex  0.000000e+000  7.000000e+000  2.000000e+000
      vertex  0.000000e+000  7.000000e+000  0.000000e+000
      vertex  0.000000e+000  0.000000e+000  2.000000e+000
    endloop
  endfacet
  facet normal -1.000000e+000  0.000000e+000  0.000000e+000
    outer loop
      vertex  0.000000e+000  0.000000e+000  2.000000e+000
      vertex  0.000000e+000  7.000000e+000  0.000000e+000
      vertex  0.000000e+000  0.000000e+000  0.000000e+000
    endloop
  endfacet
  facet normal  5.665289e-001  8.240418e-001  -0.000000e+000
    outer loop
      vertex  1.600000e+002  1.300000e+002  2.000000e+000
      vertex  1.600000e+002  1.300000e+002  0.000000e+000
      vertex  1.000000e+001  2.331250e+002  2.000000e+000
    endloop
  endfacet
  facet normal  5.665289e-001  8.240418e-001  0.000000e+000
    outer loop
      vertex  1.000000e+001  2.331250e+002  2.000000e+000
      vertex  1.600000e+002  1.300000e+002  0.000000e+000
      vertex  1.000000e+001  2.331250e+002  0.000000e+000
    endloop
  endfacet
  facet normal -9.999999e-001  0.000000e+000  0.000000e+000
    outer loop
      vertex -1.500000e+001  4.930000e+002  0.000000e+000
      vertex -1.500000e+001  7.000000e+000  0.000000e+000
      vertex -1.500000e+001  4.930000e+002  2.000000e+000
    endloop
  endfacet
  facet normal -9.999999e-001  -0.000000e+000  0.000000e+000
    outer loop
      vertex -1.500000e+001  4.930000e+002  2.000000e+000
      vertex -1.500000e+001  7.000000e+000  0.000000e+000
      vertex -1.500000e+001  7.000000e+000  2.000000e+000
    endloop
  endfacet
  facet normal  0.000000e+000  1.000000e+000  0.000000e+000
    outer loop
      vertex -1.500000e+001  4.930000e+002  0.000000e+000
      vertex -1.500000e+001  4.930000e+002  2.000000e+000
      vertex -9.191070e-001  4.930000e+002  0.000000e+000
    endloop
  endfacet
  facet normal  0.000000e+000  1.000000e+000  -0.000000e+000
    outer loop
      vertex -9.191070e-001  4.930000e+002  0.000000e+000
      vertex -1.500000e+001  4.930000e+002  2.000000e+000
      vertex -9.191070e-001  4.930000e+002  2.000000e+000
    endloop
  endfacet
  facet normal  9.396926e-001  3.420202e-001  0.000000e+000
    outer loop
      vertex -9.191070e-001  4.930000e+002  0.000000e+000
      vertex -9.191070e-001  4.930000e+002  2.000000e+000
      vertex  1.000000e+001  4.630000e+002  0.000000e+000
    endloop
  endfacet
  facet normal  9.396926e-001  3.420202e-001  -0.000000e+000
    outer loop
      vertex  1.000000e+001  4.630000e+002  0.000000e+000
      vertex -9.191070e-001  4.930000e+002  2.000000e+000
      vertex  1.000000e+001  4.630000e+002  2.000000e+000
    endloop
  endfacet
  facet normal  1.000000e+000  0.000000e+000  0.000000e+000
    outer loop
      vertex  1.600000e+002 -3.000004e+001  2.000000e+000
      vertex  1.600000e+002 -3.000004e+001  0.000000e+000
      vertex  1.600000e+002  1.300000e+002  2.000000e+000
    endloop
  endfacet
  facet normal  1.000000e+000  0.000000e+000  0.000000e+000
    outer loop
      vertex  1.600000e+002  1.300000e+002  2.000000e+000
      vertex  1.600000e+002 -3.000004e+001  0.000000e+000
      vertex  1.600000e+002  1.300000e+002  0.000000e+000
    endloop
  endfacet
  facet normal -1.842888e-001 -9.828722e-001  0.000000e+000
    outer loop
      vertex  0.000000e+000  0.000000e+000  2.000000e+000
      vertex  0.000000e+000  0.000000e+000  0.000000e+000
      vertex  1.600000e+002 -3.000004e+001  2.000000e+000
    endloop
  endfacet
  facet normal -1.842888e-001 -9.828722e-001  -0.000000e+000
    outer loop
      vertex  1.600000e+002 -3.000004e+001  2.000000e+000
      vertex  0.000000e+000  0.000000e+000  0.000000e+000
      vertex  1.600000e+002 -3.000004e+001  0.000000e+000
    endloop
  endfacet
endsolid CATIA STL
